G04 DipTrace 2.3.1.0*
%INminishiftjig_TopSilk.gto*%
%MOIN*%
%ADD10C,0.0098*%
%ADD12C,0.003*%
%ADD14C,0.0125*%
%ADD35C,0.0062*%
%FSLAX44Y44*%
G04*
G70*
G90*
G75*
G01*
%LNTopSilk*%
%LPD*%
X14199Y8219D2*
D10*
Y12155D1*
X13175Y8219D2*
Y12155D1*
X14199D2*
X13175D1*
X14199Y8219D2*
X13884D1*
X13490D2*
X13175D1*
X13884D2*
G03X13490Y8219I-197J0D01*
G01*
X13175Y16655D2*
Y12719D1*
X14199Y16655D2*
Y12719D1*
X13175D2*
X14199D1*
X13175Y16655D2*
X13490D1*
X13884D2*
X14199D1*
X13490D2*
G03X13884Y16655I197J0D01*
G01*
X19602Y9780D2*
Y10094D1*
Y11280D2*
Y11594D1*
Y12780D2*
Y13094D1*
X6387Y18737D2*
D14*
X18987D1*
Y6137D1*
X6387D1*
Y18737D1*
X8757Y23462D2*
D12*
X8907D1*
X12447D2*
X12522D1*
X4527Y23447D2*
X4707D1*
X5247D2*
X5397D1*
X5607D2*
X5712D1*
X6642D2*
X6747D1*
X7587D2*
X7692D1*
X8322D2*
X8427D1*
X8735D2*
X8914D1*
X9672D2*
X10392D1*
X12442D2*
X12520D1*
X12642D2*
X13122D1*
X18372D2*
X18477D1*
X18687D2*
X18792D1*
X4527Y23432D2*
X4709D1*
X5240D2*
X5397D1*
X5607D2*
X5712D1*
X6642D2*
X6747D1*
X7587D2*
X7692D1*
X8322D2*
X8427D1*
X8716D2*
X8918D1*
X9672D2*
X10392D1*
X12012D2*
D3*
X12437D2*
X12516D1*
X12642D2*
X13168D1*
X18372D2*
X18477D1*
X18687D2*
X18792D1*
X4527Y23417D2*
X4713D1*
X5233D2*
X5397D1*
X5607D2*
X5712D1*
X6642D2*
X6747D1*
X7587D2*
X7692D1*
X8322D2*
X8427D1*
X8699D2*
X8921D1*
X9102D2*
X9117D1*
X9672D2*
X10392D1*
X11990D2*
X12012D1*
X12432D2*
X12512D1*
X12642D2*
X13205D1*
X18372D2*
X18477D1*
X18687D2*
X18792D1*
X4527Y23402D2*
X4718D1*
X5227D2*
X5397D1*
X5607D2*
X5712D1*
X6642D2*
X6747D1*
X7587D2*
X7692D1*
X8322D2*
X8427D1*
X8685D2*
X8918D1*
X9075D2*
X9117D1*
X9672D2*
X10392D1*
X11966D2*
X12012D1*
X12427D2*
X12507D1*
X12642D2*
X13232D1*
X18372D2*
X18477D1*
X18687D2*
X18792D1*
X4527Y23387D2*
X4722D1*
X5222D2*
X5397D1*
X5607D2*
X5712D1*
X6642D2*
X6747D1*
X7587D2*
X7692D1*
X8322D2*
X8427D1*
X8674D2*
X8903D1*
X9052D2*
X9117D1*
X9672D2*
X10392D1*
X11945D2*
X12012D1*
X12422D2*
X12502D1*
X12642D2*
X13253D1*
X18372D2*
X18477D1*
X18687D2*
X18792D1*
X4527Y23372D2*
X4727D1*
X5217D2*
X5397D1*
X5607D2*
X5712D1*
X6642D2*
X6747D1*
X7587D2*
X7692D1*
X8322D2*
X8427D1*
X8665D2*
X8866D1*
X9034D2*
X9117D1*
X9672D2*
X10392D1*
X11929D2*
X12012D1*
X12419D2*
X12497D1*
X12642D2*
X13270D1*
X18372D2*
X18477D1*
X18687D2*
X18792D1*
X4527Y23357D2*
X4732D1*
X5212D2*
X5397D1*
X5607D2*
X5712D1*
X6642D2*
X6747D1*
X7587D2*
X7692D1*
X8322D2*
X8427D1*
X8659D2*
X8827D1*
X9021D2*
X9117D1*
X9672D2*
X10392D1*
X11916D2*
X12012D1*
X12416D2*
X12494D1*
X12642D2*
X13286D1*
X18372D2*
X18477D1*
X18687D2*
X18792D1*
X4527Y23342D2*
X4737D1*
X5207D2*
X5397D1*
X5607D2*
X5712D1*
X6642D2*
X6747D1*
X7587D2*
X7692D1*
X8322D2*
X8427D1*
X8655D2*
X8798D1*
X9016D2*
X9117D1*
X9987D2*
X10092D1*
X11911D2*
X12012D1*
X12411D2*
X12491D1*
X12642D2*
X12747D1*
X13101D2*
X13299D1*
X18372D2*
X18477D1*
X18687D2*
X18792D1*
X4527Y23327D2*
X4742D1*
X5202D2*
X5397D1*
X5607D2*
X5712D1*
X6642D2*
X6747D1*
X7587D2*
X7692D1*
X8322D2*
X8427D1*
X8653D2*
X8776D1*
X9014D2*
X9117D1*
X9987D2*
X10092D1*
X11909D2*
X12012D1*
X12407D2*
X12486D1*
X12642D2*
X12747D1*
X13134D2*
X13310D1*
X18372D2*
X18477D1*
X18687D2*
X18792D1*
X4527Y23312D2*
X4747D1*
X5197D2*
X5397D1*
X7587D2*
X7692D1*
X8653D2*
X8767D1*
X9013D2*
X9117D1*
X9987D2*
X10092D1*
X11908D2*
X12012D1*
X12402D2*
X12482D1*
X12642D2*
X12747D1*
X13159D2*
X13319D1*
X18372D2*
X18477D1*
X4527Y23297D2*
X4752D1*
X5192D2*
X5397D1*
X7587D2*
X7692D1*
X8652D2*
X8761D1*
X9012D2*
X9117D1*
X9987D2*
X10092D1*
X11907D2*
X12012D1*
X12397D2*
X12477D1*
X12642D2*
X12747D1*
X13178D2*
X13326D1*
X18372D2*
X18477D1*
X4527Y23282D2*
X4632D1*
X4663D2*
X4757D1*
X5187D2*
X5397D1*
X7587D2*
X7692D1*
X8652D2*
X8759D1*
X9012D2*
X9117D1*
X9987D2*
X10092D1*
X11907D2*
X12012D1*
X12392D2*
X12472D1*
X12642D2*
X12747D1*
X13193D2*
X13331D1*
X18372D2*
X18477D1*
X4527Y23267D2*
X4632D1*
X4665D2*
X4762D1*
X5182D2*
X5261D1*
X5292D2*
X5397D1*
X7587D2*
X7692D1*
X8652D2*
X8758D1*
X9012D2*
X9117D1*
X9987D2*
X10092D1*
X11907D2*
X12012D1*
X12389D2*
X12467D1*
X12642D2*
X12747D1*
X13203D2*
X13337D1*
X18372D2*
X18477D1*
X4527Y23252D2*
X4632D1*
X4668D2*
X4767D1*
X5177D2*
X5260D1*
X5292D2*
X5397D1*
X7587D2*
X7692D1*
X8652D2*
X8757D1*
X9012D2*
X9117D1*
X9987D2*
X10092D1*
X11907D2*
X12012D1*
X12386D2*
X12464D1*
X12642D2*
X12747D1*
X13210D2*
X13341D1*
X18372D2*
X18477D1*
X4527Y23237D2*
X4632D1*
X4673D2*
X4772D1*
X5172D2*
X5256D1*
X5292D2*
X5397D1*
X7587D2*
X7692D1*
X8652D2*
X8757D1*
X9012D2*
X9117D1*
X9987D2*
X10092D1*
X11907D2*
X12012D1*
X12381D2*
X12461D1*
X12642D2*
X12747D1*
X13216D2*
X13344D1*
X18372D2*
X18477D1*
X4527Y23222D2*
X4632D1*
X4677D2*
X4777D1*
X5167D2*
X5251D1*
X5292D2*
X5397D1*
X7587D2*
X7692D1*
X8652D2*
X8757D1*
X9012D2*
X9117D1*
X9987D2*
X10092D1*
X11907D2*
X12012D1*
X12377D2*
X12456D1*
X12642D2*
X12747D1*
X13221D2*
X13346D1*
X18372D2*
X18477D1*
X4527Y23207D2*
X4632D1*
X4682D2*
X4782D1*
X5162D2*
X5247D1*
X5292D2*
X5397D1*
X6147D2*
X6282D1*
X7077D2*
X7242D1*
X7587D2*
X7692D1*
X7842D2*
X7962D1*
X8652D2*
X8757D1*
X9012D2*
X9117D1*
X9987D2*
X10092D1*
X10722D2*
X10857D1*
X11382D2*
X11547D1*
X11907D2*
X12012D1*
X12372D2*
X12452D1*
X12642D2*
X12747D1*
X13224D2*
X13347D1*
X13722D2*
X13812D1*
X14157D2*
X14292D1*
X14847D2*
X14997D1*
X15627D2*
X15717D1*
X16047D2*
X16227D1*
X16827D2*
X16962D1*
X17232D2*
X17352D1*
X18372D2*
X18477D1*
X19152D2*
X19302D1*
X4527Y23192D2*
X4632D1*
X4687D2*
X4787D1*
X5157D2*
X5242D1*
X5292D2*
X5397D1*
X5607D2*
X5712D1*
X5907D2*
X5997D1*
X6118D2*
X6316D1*
X6642D2*
X6747D1*
X7043D2*
X7278D1*
X7587D2*
X7692D1*
X7806D2*
X7996D1*
X8322D2*
X8427D1*
X8547D2*
X8877D1*
X8937D2*
X9237D1*
X9987D2*
X10092D1*
X10683D2*
X10893D1*
X11348D2*
X11583D1*
X11832D2*
X12132D1*
X12367D2*
X12449D1*
X12642D2*
X12747D1*
X13226D2*
X13347D1*
X13512D2*
X13602D1*
X13700D2*
X13842D1*
X14116D2*
X14333D1*
X14813D2*
X15028D1*
X15132D2*
X15222D1*
X15417D2*
X15507D1*
X15605D2*
X15747D1*
X16004D2*
X16268D1*
X16587D2*
X16677D1*
X16796D2*
X16989D1*
X17201D2*
X17381D1*
X18372D2*
X18477D1*
X18687D2*
X18792D1*
X19118D2*
X19333D1*
X19437D2*
X19527D1*
X4527Y23177D2*
X4632D1*
X4692D2*
X4792D1*
X5152D2*
X5237D1*
X5292D2*
X5397D1*
X5607D2*
X5712D1*
X5907D2*
X5997D1*
X6090D2*
X6344D1*
X6642D2*
X6747D1*
X7013D2*
X7310D1*
X7587D2*
X7693D1*
X7773D2*
X8024D1*
X8322D2*
X8427D1*
X8547D2*
X8877D1*
X8937D2*
X9237D1*
X9987D2*
X10092D1*
X10650D2*
X10925D1*
X11318D2*
X11615D1*
X11832D2*
X12132D1*
X12362D2*
X12446D1*
X12642D2*
X12747D1*
X13227D2*
X13347D1*
X13512D2*
X13602D1*
X13681D2*
X13872D1*
X14081D2*
X14368D1*
X14785D2*
X15056D1*
X15131D2*
X15222D1*
X15417D2*
X15507D1*
X15586D2*
X15777D1*
X15968D2*
X16300D1*
X16587D2*
X16677D1*
X16768D2*
X17013D1*
X17174D2*
X17404D1*
X18372D2*
X18477D1*
X18687D2*
X18792D1*
X19090D2*
X19361D1*
X19436D2*
X19527D1*
X4527Y23162D2*
X4632D1*
X4697D2*
X4797D1*
X5147D2*
X5232D1*
X5292D2*
X5397D1*
X5607D2*
X5712D1*
X5907D2*
X5998D1*
X6066D2*
X6366D1*
X6642D2*
X6747D1*
X6989D2*
X7336D1*
X7587D2*
X7695D1*
X7745D2*
X8046D1*
X8322D2*
X8427D1*
X8547D2*
X8877D1*
X8937D2*
X9237D1*
X9987D2*
X10092D1*
X10625D2*
X10951D1*
X11294D2*
X11641D1*
X11832D2*
X12132D1*
X12359D2*
X12441D1*
X12642D2*
X12747D1*
X13226D2*
X13347D1*
X13512D2*
X13602D1*
X13664D2*
X13865D1*
X14053D2*
X14396D1*
X14763D2*
X15082D1*
X15129D2*
X15222D1*
X15417D2*
X15507D1*
X15569D2*
X15770D1*
X15939D2*
X16324D1*
X16587D2*
X16678D1*
X16745D2*
X17032D1*
X17150D2*
X17423D1*
X18372D2*
X18477D1*
X18687D2*
X18792D1*
X19068D2*
X19387D1*
X19434D2*
X19527D1*
X4527Y23147D2*
X4632D1*
X4702D2*
X4802D1*
X5142D2*
X5227D1*
X5292D2*
X5397D1*
X5607D2*
X5712D1*
X5907D2*
X6000D1*
X6043D2*
X6384D1*
X6642D2*
X6747D1*
X6971D2*
X7355D1*
X7587D2*
X7700D1*
X7718D2*
X8064D1*
X8322D2*
X8427D1*
X8547D2*
X8877D1*
X8937D2*
X9237D1*
X9987D2*
X10092D1*
X10605D2*
X10972D1*
X11276D2*
X11660D1*
X11832D2*
X12132D1*
X12356D2*
X12437D1*
X12642D2*
X12747D1*
X13224D2*
X13346D1*
X13512D2*
X13603D1*
X13650D2*
X13858D1*
X14030D2*
X14418D1*
X14744D2*
X15107D1*
X15124D2*
X15222D1*
X15417D2*
X15508D1*
X15555D2*
X15763D1*
X15918D2*
X16341D1*
X16587D2*
X16680D1*
X16723D2*
X17048D1*
X17130D2*
X17438D1*
X18372D2*
X18477D1*
X18687D2*
X18792D1*
X19049D2*
X19412D1*
X19429D2*
X19527D1*
X4527Y23132D2*
X4632D1*
X4707D2*
X4807D1*
X5136D2*
X5222D1*
X5292D2*
X5397D1*
X5607D2*
X5712D1*
X5907D2*
X6005D1*
X6021D2*
X6399D1*
X6642D2*
X6747D1*
X6956D2*
X7368D1*
X7587D2*
X8079D1*
X8322D2*
X8427D1*
X8547D2*
X8877D1*
X8937D2*
X9237D1*
X9987D2*
X10092D1*
X10588D2*
X10990D1*
X11261D2*
X11673D1*
X11832D2*
X12132D1*
X12351D2*
X12432D1*
X12642D2*
X12747D1*
X13220D2*
X13345D1*
X13512D2*
X13605D1*
X13638D2*
X13853D1*
X14011D2*
X14436D1*
X14728D2*
X15222D1*
X15417D2*
X15510D1*
X15543D2*
X15758D1*
X15902D2*
X16354D1*
X16587D2*
X16685D1*
X16700D2*
X17060D1*
X17111D2*
X17450D1*
X18372D2*
X18477D1*
X18687D2*
X18792D1*
X19033D2*
X19527D1*
X4527Y23117D2*
X4632D1*
X4712D2*
X4812D1*
X5130D2*
X5217D1*
X5292D2*
X5397D1*
X5607D2*
X5712D1*
X5907D2*
X6165D1*
X6218D2*
X6410D1*
X6642D2*
X6747D1*
X6943D2*
X7131D1*
X7188D2*
X7379D1*
X7587D2*
X7846D1*
X7893D2*
X8090D1*
X8322D2*
X8427D1*
X8547D2*
X8877D1*
X8937D2*
X9237D1*
X9987D2*
X10092D1*
X10573D2*
X10760D1*
X10823D2*
X11006D1*
X11248D2*
X11436D1*
X11493D2*
X11684D1*
X11832D2*
X12132D1*
X12347D2*
X12427D1*
X12642D2*
X12747D1*
X13215D2*
X13341D1*
X13512D2*
X13610D1*
X13628D2*
X13848D1*
X13996D2*
X14191D1*
X14258D2*
X14449D1*
X14715D2*
X14878D1*
X14976D2*
X15222D1*
X15417D2*
X15515D1*
X15533D2*
X15753D1*
X15890D2*
X16084D1*
X16140D2*
X16364D1*
X16587D2*
X16832D1*
X16901D2*
X17071D1*
X17089D2*
X17236D1*
X17286D2*
X17459D1*
X18372D2*
X18477D1*
X18687D2*
X18792D1*
X19020D2*
X19183D1*
X19281D2*
X19527D1*
X4527Y23102D2*
X4632D1*
X4717D2*
X4817D1*
X5123D2*
X5212D1*
X5292D2*
X5397D1*
X5607D2*
X5712D1*
X5907D2*
X6127D1*
X6255D2*
X6419D1*
X6642D2*
X6747D1*
X6933D2*
X7090D1*
X7229D2*
X7387D1*
X7587D2*
X7809D1*
X7934D2*
X8099D1*
X8322D2*
X8427D1*
X8652D2*
X8757D1*
X9012D2*
X9117D1*
X9987D2*
X10092D1*
X10558D2*
X10717D1*
X10860D2*
X11019D1*
X11238D2*
X11395D1*
X11534D2*
X11692D1*
X11907D2*
X12012D1*
X12342D2*
X12422D1*
X12642D2*
X12747D1*
X13208D2*
X13336D1*
X13512D2*
X13844D1*
X13984D2*
X14154D1*
X14295D2*
X14461D1*
X14704D2*
X14850D1*
X15009D2*
X15222D1*
X15417D2*
X15749D1*
X15880D2*
X16039D1*
X16190D2*
X16373D1*
X16587D2*
X16798D1*
X16926D2*
X17199D1*
X17318D2*
X17468D1*
X18372D2*
X18477D1*
X18687D2*
X18792D1*
X19009D2*
X19155D1*
X19314D2*
X19527D1*
X4527Y23087D2*
X4632D1*
X4722D2*
X4822D1*
X5118D2*
X5207D1*
X5292D2*
X5397D1*
X5607D2*
X5712D1*
X5907D2*
X6095D1*
X6283D2*
X6426D1*
X6642D2*
X6747D1*
X6925D2*
X7060D1*
X7259D2*
X7395D1*
X7587D2*
X7780D1*
X7964D2*
X8106D1*
X8322D2*
X8427D1*
X8652D2*
X8757D1*
X9012D2*
X9117D1*
X9987D2*
X10092D1*
X10545D2*
X10684D1*
X10889D2*
X11030D1*
X11230D2*
X11365D1*
X11564D2*
X11700D1*
X11907D2*
X12012D1*
X12337D2*
X12419D1*
X12642D2*
X12747D1*
X13200D2*
X13332D1*
X13512D2*
X13710D1*
X13797D2*
X13842D1*
X13975D2*
X14125D1*
X14324D2*
X14472D1*
X14695D2*
X14827D1*
X15034D2*
X15222D1*
X15417D2*
X15615D1*
X15702D2*
X15747D1*
X15871D2*
X16005D1*
X16225D2*
X16380D1*
X16587D2*
X16772D1*
X16946D2*
X17171D1*
X17341D2*
X17475D1*
X18372D2*
X18477D1*
X18687D2*
X18792D1*
X19000D2*
X19132D1*
X19339D2*
X19527D1*
X4527Y23072D2*
X4632D1*
X4727D2*
X4827D1*
X5112D2*
X5202D1*
X5292D2*
X5397D1*
X5607D2*
X5712D1*
X5907D2*
X6071D1*
X6303D2*
X6431D1*
X6642D2*
X6747D1*
X6919D2*
X7038D1*
X7281D2*
X7401D1*
X7587D2*
X7758D1*
X7986D2*
X8111D1*
X8322D2*
X8427D1*
X8652D2*
X8757D1*
X9012D2*
X9117D1*
X9987D2*
X10092D1*
X10534D2*
X10660D1*
X10911D2*
X11039D1*
X11224D2*
X11343D1*
X11586D2*
X11706D1*
X11907D2*
X12012D1*
X12332D2*
X12416D1*
X12642D2*
X12747D1*
X13190D2*
X13326D1*
X13512D2*
X13687D1*
X13966D2*
X14103D1*
X14346D2*
X14481D1*
X14686D2*
X14809D1*
X15054D2*
X15222D1*
X15417D2*
X15592D1*
X15863D2*
X15982D1*
X16248D2*
X16386D1*
X16587D2*
X16752D1*
X16960D2*
X17150D1*
X17357D2*
X17481D1*
X18372D2*
X18477D1*
X18687D2*
X18792D1*
X18991D2*
X19114D1*
X19359D2*
X19527D1*
X4527Y23057D2*
X4632D1*
X4732D2*
X4832D1*
X5107D2*
X5197D1*
X5292D2*
X5397D1*
X5607D2*
X5712D1*
X5907D2*
X6054D1*
X6318D2*
X6437D1*
X6642D2*
X6747D1*
X6915D2*
X7028D1*
X7292D2*
X7404D1*
X7587D2*
X7740D1*
X7997D2*
X8117D1*
X8322D2*
X8427D1*
X8652D2*
X8757D1*
X9012D2*
X9117D1*
X9987D2*
X10092D1*
X10525D2*
X10643D1*
X10929D2*
X11048D1*
X11220D2*
X11333D1*
X11597D2*
X11709D1*
X11907D2*
X12012D1*
X12329D2*
X12411D1*
X12642D2*
X12747D1*
X13175D2*
X13320D1*
X13512D2*
X13669D1*
X13958D2*
X14085D1*
X14364D2*
X14490D1*
X14678D2*
X14795D1*
X15070D2*
X15222D1*
X15417D2*
X15574D1*
X15856D2*
X15967D1*
X16263D2*
X16389D1*
X16587D2*
X16736D1*
X16969D2*
X17136D1*
X17368D2*
X17484D1*
X18372D2*
X18477D1*
X18687D2*
X18792D1*
X18983D2*
X19100D1*
X19375D2*
X19527D1*
X4527Y23042D2*
X4632D1*
X4737D2*
X4837D1*
X5102D2*
X5192D1*
X5292D2*
X5397D1*
X5607D2*
X5712D1*
X5907D2*
X6042D1*
X6325D2*
X6441D1*
X6642D2*
X6747D1*
X6913D2*
X7021D1*
X7300D2*
X7406D1*
X7587D2*
X7726D1*
X8005D2*
X8121D1*
X8322D2*
X8427D1*
X8652D2*
X8757D1*
X9012D2*
X9117D1*
X9987D2*
X10092D1*
X10516D2*
X10629D1*
X10943D2*
X11055D1*
X11218D2*
X11326D1*
X11605D2*
X11711D1*
X11907D2*
X12012D1*
X12326D2*
X12407D1*
X12642D2*
X12747D1*
X13150D2*
X13313D1*
X13512D2*
X13655D1*
X13951D2*
X14070D1*
X14379D2*
X14498D1*
X14671D2*
X14785D1*
X15084D2*
X15222D1*
X15417D2*
X15560D1*
X15849D2*
X15956D1*
X16273D2*
X16391D1*
X16587D2*
X16724D1*
X16976D2*
X17126D1*
X17375D2*
X17486D1*
X18372D2*
X18477D1*
X18687D2*
X18792D1*
X18976D2*
X19090D1*
X19389D2*
X19527D1*
X4527Y23027D2*
X4632D1*
X4742D2*
X4842D1*
X5097D2*
X5187D1*
X5292D2*
X5397D1*
X5607D2*
X5712D1*
X5907D2*
X6034D1*
X6331D2*
X6444D1*
X6642D2*
X6747D1*
X6913D2*
X7020D1*
X7308D2*
X7407D1*
X7587D2*
X7716D1*
X8011D2*
X8124D1*
X8322D2*
X8427D1*
X8652D2*
X8757D1*
X9012D2*
X9117D1*
X9987D2*
X10092D1*
X10509D2*
X10618D1*
X10953D2*
X11061D1*
X11218D2*
X11325D1*
X11613D2*
X11712D1*
X11907D2*
X12012D1*
X12321D2*
X12402D1*
X12642D2*
X12747D1*
X13114D2*
X13305D1*
X13512D2*
X13646D1*
X13944D2*
X14059D1*
X14390D2*
X14505D1*
X14664D2*
X14777D1*
X15095D2*
X15222D1*
X15417D2*
X15551D1*
X15842D2*
X15949D1*
X16280D2*
X16392D1*
X16587D2*
X16716D1*
X16982D2*
X17119D1*
X17379D2*
X17487D1*
X18372D2*
X18477D1*
X18687D2*
X18792D1*
X18969D2*
X19082D1*
X19400D2*
X19527D1*
X4527Y23012D2*
X4632D1*
X4747D2*
X4847D1*
X5092D2*
X5181D1*
X5292D2*
X5397D1*
X5607D2*
X5712D1*
X5907D2*
X6028D1*
X6336D2*
X6446D1*
X6642D2*
X6747D1*
X6912D2*
X7027D1*
X7317D2*
X7332D1*
X7587D2*
X7709D1*
X8016D2*
X8126D1*
X8322D2*
X8427D1*
X8652D2*
X8757D1*
X9012D2*
X9117D1*
X9987D2*
X10092D1*
X10503D2*
X10610D1*
X10960D2*
X11067D1*
X11217D2*
X11332D1*
X11622D2*
X11637D1*
X11907D2*
X12012D1*
X12317D2*
X12397D1*
X12642D2*
X12747D1*
X13068D2*
X13296D1*
X13512D2*
X13639D1*
X13938D2*
X14050D1*
X14399D2*
X14511D1*
X14658D2*
X14769D1*
X15104D2*
X15222D1*
X15417D2*
X15544D1*
X15837D2*
X15945D1*
X16284D2*
X16392D1*
X16587D2*
X16710D1*
X16986D2*
X17113D1*
X17381D2*
X17487D1*
X18372D2*
X18477D1*
X18687D2*
X18792D1*
X18963D2*
X19074D1*
X19409D2*
X19527D1*
X4527Y22997D2*
X4632D1*
X4752D2*
X4852D1*
X5087D2*
X5175D1*
X5292D2*
X5397D1*
X5607D2*
X5712D1*
X5907D2*
X6022D1*
X6339D2*
X6447D1*
X6642D2*
X6747D1*
X6913D2*
X7038D1*
X7587D2*
X7703D1*
X8019D2*
X8127D1*
X8322D2*
X8427D1*
X8652D2*
X8757D1*
X9012D2*
X9117D1*
X9987D2*
X10092D1*
X10499D2*
X10605D1*
X10966D2*
X11072D1*
X11218D2*
X11343D1*
X11907D2*
X12012D1*
X12312D2*
X12392D1*
X12642D2*
X13284D1*
X13512D2*
X13635D1*
X13934D2*
X14044D1*
X14405D2*
X14515D1*
X14654D2*
X14763D1*
X15110D2*
X15222D1*
X15417D2*
X15540D1*
X15912D2*
X15942D1*
X16285D2*
X16392D1*
X16587D2*
X16706D1*
X16989D2*
X17107D1*
X17381D2*
X17487D1*
X18372D2*
X18477D1*
X18687D2*
X18792D1*
X18959D2*
X19068D1*
X19415D2*
X19527D1*
X4527Y22982D2*
X4632D1*
X4757D2*
X4857D1*
X5082D2*
X5168D1*
X5292D2*
X5397D1*
X5607D2*
X5712D1*
X5907D2*
X6018D1*
X6341D2*
X6447D1*
X6642D2*
X6747D1*
X6915D2*
X7056D1*
X7587D2*
X7698D1*
X8021D2*
X8127D1*
X8322D2*
X8427D1*
X8652D2*
X8757D1*
X9012D2*
X9117D1*
X9987D2*
X10092D1*
X10496D2*
X10601D1*
X10971D2*
X11076D1*
X11220D2*
X11361D1*
X11907D2*
X12012D1*
X12307D2*
X12389D1*
X12642D2*
X13270D1*
X13512D2*
X13631D1*
X13931D2*
X14040D1*
X14409D2*
X14518D1*
X14651D2*
X14757D1*
X15114D2*
X15222D1*
X15417D2*
X15536D1*
X16284D2*
X16392D1*
X16587D2*
X16702D1*
X16991D2*
X17103D1*
X17382D2*
X17487D1*
X18372D2*
X18477D1*
X18687D2*
X18792D1*
X18956D2*
X19062D1*
X19419D2*
X19527D1*
X4527Y22967D2*
X4632D1*
X4762D2*
X4862D1*
X5077D2*
X5163D1*
X5292D2*
X5397D1*
X5607D2*
X5712D1*
X5907D2*
X6015D1*
X6342D2*
X6447D1*
X6642D2*
X6747D1*
X6919D2*
X7084D1*
X7587D2*
X7695D1*
X8022D2*
X8127D1*
X8322D2*
X8427D1*
X8652D2*
X8757D1*
X9012D2*
X9117D1*
X9987D2*
X10092D1*
X10491D2*
X10597D1*
X10974D2*
X11079D1*
X11224D2*
X11389D1*
X11907D2*
X12012D1*
X12302D2*
X12386D1*
X12642D2*
X13253D1*
X13512D2*
X13626D1*
X13926D2*
X14036D1*
X14413D2*
X14523D1*
X14646D2*
X14752D1*
X15118D2*
X15222D1*
X15417D2*
X15531D1*
X16272D2*
X16392D1*
X16587D2*
X16697D1*
X16992D2*
X17100D1*
X17382D2*
X17487D1*
X18372D2*
X18477D1*
X18687D2*
X18792D1*
X18951D2*
X19057D1*
X19423D2*
X19527D1*
X4527Y22952D2*
X4632D1*
X4767D2*
X4867D1*
X5072D2*
X5157D1*
X5292D2*
X5397D1*
X5607D2*
X5712D1*
X5907D2*
X6013D1*
X6342D2*
X6447D1*
X6642D2*
X6747D1*
X6925D2*
X7122D1*
X7587D2*
X7693D1*
X8022D2*
X8127D1*
X8322D2*
X8427D1*
X8652D2*
X8757D1*
X9012D2*
X9117D1*
X9987D2*
X10092D1*
X10487D2*
X10592D1*
X10976D2*
X11081D1*
X11230D2*
X11427D1*
X11907D2*
X12012D1*
X12299D2*
X12381D1*
X12642D2*
X13229D1*
X13512D2*
X13622D1*
X13922D2*
X14031D1*
X14418D2*
X14527D1*
X14642D2*
X14748D1*
X15123D2*
X15222D1*
X15417D2*
X15527D1*
X16235D2*
X16392D1*
X16587D2*
X16695D1*
X16992D2*
X17098D1*
X17382D2*
X17487D1*
X18372D2*
X18477D1*
X18687D2*
X18792D1*
X18947D2*
X19053D1*
X19428D2*
X19527D1*
X4527Y22937D2*
X4632D1*
X4772D2*
X4872D1*
X5067D2*
X5152D1*
X5292D2*
X5397D1*
X5607D2*
X5712D1*
X5907D2*
X6012D1*
X6342D2*
X6447D1*
X6642D2*
X6747D1*
X6934D2*
X7168D1*
X7587D2*
X7692D1*
X8022D2*
X8127D1*
X8322D2*
X8427D1*
X8652D2*
X8757D1*
X9012D2*
X9117D1*
X9987D2*
X10092D1*
X10485D2*
X10589D1*
X10977D2*
X11084D1*
X11239D2*
X11473D1*
X11907D2*
X12012D1*
X12296D2*
X12377D1*
X12642D2*
X13196D1*
X13512D2*
X13620D1*
X13920D2*
X14027D1*
X14422D2*
X14529D1*
X14640D2*
X14745D1*
X15127D2*
X15222D1*
X15417D2*
X15525D1*
X16179D2*
X16392D1*
X16587D2*
X16693D1*
X16992D2*
X17097D1*
X17382D2*
X17487D1*
X18372D2*
X18477D1*
X18687D2*
X18792D1*
X18945D2*
X19050D1*
X19432D2*
X19527D1*
X4527Y22922D2*
X4632D1*
X4777D2*
X4877D1*
X5062D2*
X5147D1*
X5292D2*
X5397D1*
X5607D2*
X5712D1*
X5907D2*
X6012D1*
X6342D2*
X6447D1*
X6642D2*
X6747D1*
X6945D2*
X7216D1*
X7587D2*
X7692D1*
X8022D2*
X8127D1*
X8322D2*
X8427D1*
X8652D2*
X8757D1*
X9012D2*
X9117D1*
X9987D2*
X10092D1*
X10483D2*
X11088D1*
X11250D2*
X11521D1*
X11907D2*
X12012D1*
X12291D2*
X12372D1*
X12642D2*
X13154D1*
X13512D2*
X13618D1*
X13918D2*
X14025D1*
X14424D2*
X14531D1*
X14638D2*
X14743D1*
X15129D2*
X15222D1*
X15417D2*
X15523D1*
X16111D2*
X16392D1*
X16587D2*
X16692D1*
X16992D2*
X17097D1*
X17382D2*
X17487D1*
X18372D2*
X18477D1*
X18687D2*
X18792D1*
X18943D2*
X19048D1*
X19434D2*
X19527D1*
X4527Y22907D2*
X4632D1*
X4782D2*
X4882D1*
X5057D2*
X5142D1*
X5292D2*
X5397D1*
X5607D2*
X5712D1*
X5907D2*
X6012D1*
X6342D2*
X6447D1*
X6642D2*
X6747D1*
X6959D2*
X7263D1*
X7587D2*
X7692D1*
X8022D2*
X8127D1*
X8322D2*
X8427D1*
X8652D2*
X8757D1*
X9012D2*
X9117D1*
X9987D2*
X10092D1*
X10482D2*
X11092D1*
X11264D2*
X11568D1*
X11907D2*
X12012D1*
X12287D2*
X12367D1*
X12642D2*
X13107D1*
X13512D2*
X13617D1*
X13917D2*
X14023D1*
X14426D2*
X14532D1*
X14637D2*
X14742D1*
X15131D2*
X15222D1*
X15417D2*
X15522D1*
X16045D2*
X16392D1*
X16587D2*
X16692D1*
X16992D2*
X17097D1*
X17382D2*
X17487D1*
X18372D2*
X18477D1*
X18687D2*
X18792D1*
X18942D2*
X19047D1*
X19436D2*
X19527D1*
X4527Y22892D2*
X4632D1*
X4787D2*
X4887D1*
X5052D2*
X5137D1*
X5292D2*
X5397D1*
X5607D2*
X5712D1*
X5907D2*
X6012D1*
X6342D2*
X6447D1*
X6642D2*
X6747D1*
X6976D2*
X7304D1*
X7587D2*
X7692D1*
X8022D2*
X8127D1*
X8322D2*
X8427D1*
X8652D2*
X8757D1*
X9012D2*
X9117D1*
X9987D2*
X10092D1*
X10482D2*
X11095D1*
X11281D2*
X11609D1*
X11907D2*
X12012D1*
X12284D2*
X12362D1*
X12642D2*
X12747D1*
X13512D2*
X13617D1*
X13917D2*
X14022D1*
X14427D2*
X14532D1*
X14637D2*
X14742D1*
X15132D2*
X15222D1*
X15417D2*
X15522D1*
X15989D2*
X16392D1*
X16587D2*
X16692D1*
X16992D2*
X17097D1*
X17382D2*
X17487D1*
X18372D2*
X18477D1*
X18687D2*
X18792D1*
X18942D2*
X19047D1*
X19437D2*
X19527D1*
X4527Y22877D2*
X4632D1*
X4792D2*
X4892D1*
X5047D2*
X5132D1*
X5292D2*
X5397D1*
X5607D2*
X5712D1*
X5907D2*
X6012D1*
X6342D2*
X6447D1*
X6642D2*
X6747D1*
X6998D2*
X7338D1*
X7587D2*
X7692D1*
X8022D2*
X8127D1*
X8322D2*
X8427D1*
X8652D2*
X8757D1*
X9012D2*
X9117D1*
X9987D2*
X10092D1*
X10482D2*
X11096D1*
X11303D2*
X11643D1*
X11907D2*
X12012D1*
X12281D2*
X12359D1*
X12642D2*
X12747D1*
X13512D2*
X13617D1*
X13917D2*
X14022D1*
X14427D2*
X14532D1*
X14637D2*
X14742D1*
X15132D2*
X15222D1*
X15417D2*
X15522D1*
X15945D2*
X16392D1*
X16587D2*
X16692D1*
X16992D2*
X17097D1*
X17382D2*
X17487D1*
X18372D2*
X18477D1*
X18687D2*
X18792D1*
X18942D2*
X19047D1*
X19437D2*
X19527D1*
X4527Y22862D2*
X4632D1*
X4797D2*
X4897D1*
X5042D2*
X5127D1*
X5292D2*
X5397D1*
X5607D2*
X5712D1*
X5907D2*
X6012D1*
X6342D2*
X6447D1*
X6642D2*
X6747D1*
X7027D2*
X7365D1*
X7587D2*
X7692D1*
X8022D2*
X8127D1*
X8322D2*
X8427D1*
X8652D2*
X8757D1*
X9012D2*
X9117D1*
X9987D2*
X10092D1*
X10482D2*
X11097D1*
X11332D2*
X11670D1*
X11907D2*
X12012D1*
X12276D2*
X12356D1*
X12642D2*
X12747D1*
X13512D2*
X13617D1*
X13917D2*
X14022D1*
X14427D2*
X14532D1*
X14637D2*
X14742D1*
X15132D2*
X15222D1*
X15417D2*
X15522D1*
X15913D2*
X16392D1*
X16587D2*
X16692D1*
X16992D2*
X17097D1*
X17382D2*
X17487D1*
X18372D2*
X18477D1*
X18687D2*
X18792D1*
X18942D2*
X19047D1*
X19437D2*
X19527D1*
X4527Y22847D2*
X4632D1*
X4802D2*
X4902D1*
X5037D2*
X5122D1*
X5292D2*
X5397D1*
X5607D2*
X5712D1*
X5907D2*
X6012D1*
X6342D2*
X6447D1*
X6642D2*
X6747D1*
X7065D2*
X7384D1*
X7587D2*
X7692D1*
X8022D2*
X8127D1*
X8322D2*
X8427D1*
X8652D2*
X8757D1*
X9012D2*
X9117D1*
X9987D2*
X10092D1*
X10482D2*
X11097D1*
X11370D2*
X11689D1*
X11907D2*
X12012D1*
X12272D2*
X12351D1*
X12642D2*
X12747D1*
X13512D2*
X13617D1*
X13917D2*
X14022D1*
X14427D2*
X14532D1*
X14637D2*
X14742D1*
X15132D2*
X15222D1*
X15417D2*
X15522D1*
X15889D2*
X16225D1*
X16287D2*
X16392D1*
X16587D2*
X16692D1*
X16992D2*
X17097D1*
X17382D2*
X17487D1*
X18372D2*
X18477D1*
X18687D2*
X18792D1*
X18942D2*
X19047D1*
X19437D2*
X19527D1*
X4527Y22832D2*
X4632D1*
X4807D2*
X4907D1*
X5032D2*
X5117D1*
X5292D2*
X5397D1*
X5607D2*
X5712D1*
X5907D2*
X6012D1*
X6342D2*
X6447D1*
X6642D2*
X6747D1*
X7109D2*
X7398D1*
X7587D2*
X7692D1*
X8022D2*
X8127D1*
X8322D2*
X8427D1*
X8652D2*
X8757D1*
X9012D2*
X9117D1*
X9987D2*
X10092D1*
X10482D2*
X10587D1*
X11414D2*
X11703D1*
X11907D2*
X12012D1*
X12267D2*
X12347D1*
X12642D2*
X12747D1*
X13512D2*
X13617D1*
X13917D2*
X14022D1*
X14427D2*
X14532D1*
X14637D2*
X14742D1*
X15131D2*
X15222D1*
X15417D2*
X15522D1*
X15872D2*
X16150D1*
X16287D2*
X16392D1*
X16587D2*
X16692D1*
X16992D2*
X17097D1*
X17382D2*
X17487D1*
X18372D2*
X18477D1*
X18687D2*
X18792D1*
X18942D2*
X19047D1*
X19436D2*
X19527D1*
X4527Y22817D2*
X4632D1*
X4812D2*
X4912D1*
X5027D2*
X5112D1*
X5292D2*
X5397D1*
X5607D2*
X5712D1*
X5907D2*
X6012D1*
X6342D2*
X6447D1*
X6642D2*
X6747D1*
X7158D2*
X7409D1*
X7587D2*
X7692D1*
X8022D2*
X8127D1*
X8322D2*
X8427D1*
X8652D2*
X8757D1*
X9012D2*
X9117D1*
X9987D2*
X10092D1*
X10482D2*
X10587D1*
X11463D2*
X11714D1*
X11907D2*
X12012D1*
X12262D2*
X12342D1*
X12642D2*
X12747D1*
X13512D2*
X13617D1*
X13917D2*
X14023D1*
X14426D2*
X14532D1*
X14638D2*
X14743D1*
X15130D2*
X15222D1*
X15417D2*
X15522D1*
X15860D2*
X16083D1*
X16287D2*
X16392D1*
X16587D2*
X16692D1*
X16992D2*
X17097D1*
X17382D2*
X17487D1*
X18372D2*
X18477D1*
X18687D2*
X18792D1*
X18943D2*
X19048D1*
X19435D2*
X19527D1*
X4527Y22802D2*
X4632D1*
X4817D2*
X4917D1*
X5022D2*
X5107D1*
X5292D2*
X5397D1*
X5607D2*
X5712D1*
X5907D2*
X6012D1*
X6342D2*
X6447D1*
X6642D2*
X6747D1*
X7205D2*
X7417D1*
X7587D2*
X7692D1*
X8022D2*
X8127D1*
X8322D2*
X8427D1*
X8652D2*
X8757D1*
X9012D2*
X9117D1*
X9987D2*
X10092D1*
X10483D2*
X10588D1*
X11510D2*
X11722D1*
X11907D2*
X12012D1*
X12257D2*
X12337D1*
X12642D2*
X12747D1*
X13512D2*
X13617D1*
X13918D2*
X14025D1*
X14425D2*
X14531D1*
X14640D2*
X14745D1*
X15126D2*
X15222D1*
X15417D2*
X15522D1*
X15850D2*
X16030D1*
X16287D2*
X16392D1*
X16587D2*
X16692D1*
X16992D2*
X17097D1*
X17382D2*
X17487D1*
X18372D2*
X18477D1*
X18687D2*
X18792D1*
X18945D2*
X19050D1*
X19431D2*
X19527D1*
X4527Y22787D2*
X4632D1*
X4822D2*
X4922D1*
X5017D2*
X5102D1*
X5292D2*
X5397D1*
X5607D2*
X5712D1*
X5907D2*
X6012D1*
X6342D2*
X6447D1*
X6642D2*
X6747D1*
X7248D2*
X7425D1*
X7587D2*
X7692D1*
X8022D2*
X8127D1*
X8322D2*
X8427D1*
X8652D2*
X8757D1*
X9012D2*
X9117D1*
X9987D2*
X10092D1*
X10485D2*
X10590D1*
X11553D2*
X11730D1*
X11907D2*
X12012D1*
X12254D2*
X12332D1*
X12642D2*
X12747D1*
X13512D2*
X13617D1*
X13920D2*
X14028D1*
X14421D2*
X14530D1*
X14643D2*
X14748D1*
X15122D2*
X15222D1*
X15417D2*
X15522D1*
X15841D2*
X15992D1*
X16286D2*
X16392D1*
X16587D2*
X16692D1*
X16992D2*
X17097D1*
X17382D2*
X17487D1*
X17982D2*
X18087D1*
X18372D2*
X18477D1*
X18687D2*
X18792D1*
X18948D2*
X19053D1*
X19427D2*
X19527D1*
X4527Y22772D2*
X4632D1*
X4827D2*
X4927D1*
X5012D2*
X5097D1*
X5292D2*
X5397D1*
X5607D2*
X5712D1*
X5907D2*
X6012D1*
X6342D2*
X6447D1*
X6642D2*
X6747D1*
X7282D2*
X7431D1*
X7587D2*
X7692D1*
X8022D2*
X8127D1*
X8322D2*
X8427D1*
X8652D2*
X8757D1*
X9012D2*
X9117D1*
X9987D2*
X10092D1*
X10488D2*
X10593D1*
X11587D2*
X11736D1*
X11907D2*
X12012D1*
X12251D2*
X12329D1*
X12642D2*
X12747D1*
X13512D2*
X13617D1*
X13923D2*
X14032D1*
X14417D2*
X14526D1*
X14647D2*
X14753D1*
X15119D2*
X15222D1*
X15417D2*
X15522D1*
X15834D2*
X15966D1*
X16285D2*
X16392D1*
X16587D2*
X16692D1*
X16992D2*
X17097D1*
X17382D2*
X17487D1*
X17982D2*
X18087D1*
X18372D2*
X18477D1*
X18687D2*
X18792D1*
X18952D2*
X19058D1*
X19424D2*
X19527D1*
X4527Y22757D2*
X4632D1*
X4832D2*
X4932D1*
X5007D2*
X5092D1*
X5292D2*
X5397D1*
X5607D2*
X5712D1*
X5907D2*
X6012D1*
X6342D2*
X6447D1*
X6642D2*
X6747D1*
X7308D2*
X7434D1*
X7587D2*
X7692D1*
X8022D2*
X8127D1*
X8322D2*
X8427D1*
X8652D2*
X8757D1*
X9012D2*
X9117D1*
X9987D2*
X10092D1*
X10492D2*
X10598D1*
X11613D2*
X11739D1*
X11907D2*
X12012D1*
X12246D2*
X12326D1*
X12642D2*
X12747D1*
X13512D2*
X13617D1*
X13927D2*
X14035D1*
X14414D2*
X14522D1*
X14650D2*
X14757D1*
X15116D2*
X15222D1*
X15417D2*
X15522D1*
X15828D2*
X15949D1*
X16281D2*
X16392D1*
X16587D2*
X16692D1*
X16992D2*
X17097D1*
X17382D2*
X17487D1*
X17982D2*
X18088D1*
X18371D2*
X18477D1*
X18687D2*
X18792D1*
X18955D2*
X19062D1*
X19421D2*
X19527D1*
X4527Y22742D2*
X4632D1*
X4837D2*
X4937D1*
X5002D2*
X5087D1*
X5292D2*
X5397D1*
X5607D2*
X5712D1*
X5907D2*
X6012D1*
X6342D2*
X6447D1*
X6642D2*
X6747D1*
X6987D2*
X7002D1*
X7322D2*
X7436D1*
X7587D2*
X7692D1*
X8022D2*
X8127D1*
X8322D2*
X8427D1*
X8652D2*
X8757D1*
X9012D2*
X9117D1*
X9987D2*
X10092D1*
X10495D2*
X10602D1*
X10977D2*
X10992D1*
X11292D2*
X11307D1*
X11627D2*
X11741D1*
X11907D2*
X12012D1*
X12242D2*
X12321D1*
X12642D2*
X12747D1*
X13512D2*
X13617D1*
X13930D2*
X14039D1*
X14411D2*
X14519D1*
X14654D2*
X14763D1*
X15111D2*
X15222D1*
X15417D2*
X15522D1*
X15825D2*
X15936D1*
X16276D2*
X16392D1*
X16587D2*
X16692D1*
X16992D2*
X17097D1*
X17382D2*
X17487D1*
X17982D2*
X18090D1*
X18370D2*
X18476D1*
X18687D2*
X18792D1*
X18959D2*
X19068D1*
X19416D2*
X19527D1*
X4527Y22727D2*
X4632D1*
X4842D2*
X4943D1*
X4996D2*
X5082D1*
X5292D2*
X5397D1*
X5607D2*
X5712D1*
X5907D2*
X6012D1*
X6342D2*
X6447D1*
X6642D2*
X6747D1*
X6897D2*
X7004D1*
X7327D2*
X7437D1*
X7587D2*
X7692D1*
X8022D2*
X8127D1*
X8322D2*
X8427D1*
X8652D2*
X8757D1*
X9012D2*
X9117D1*
X9987D2*
X10092D1*
X10499D2*
X10608D1*
X10971D2*
X11082D1*
X11202D2*
X11309D1*
X11632D2*
X11742D1*
X11907D2*
X12012D1*
X12237D2*
X12317D1*
X12642D2*
X12747D1*
X13512D2*
X13617D1*
X13934D2*
X14043D1*
X14406D2*
X14516D1*
X14658D2*
X14769D1*
X15104D2*
X15222D1*
X15417D2*
X15522D1*
X15823D2*
X15931D1*
X16272D2*
X16392D1*
X16587D2*
X16692D1*
X16992D2*
X17097D1*
X17382D2*
X17487D1*
X17983D2*
X18093D1*
X18366D2*
X18475D1*
X18687D2*
X18792D1*
X18963D2*
X19074D1*
X19409D2*
X19527D1*
X4527Y22712D2*
X4632D1*
X4847D2*
X4950D1*
X4989D2*
X5077D1*
X5292D2*
X5397D1*
X5607D2*
X5712D1*
X5907D2*
X6012D1*
X6342D2*
X6447D1*
X6642D2*
X6747D1*
X6898D2*
X7009D1*
X7329D2*
X7437D1*
X7587D2*
X7692D1*
X8022D2*
X8127D1*
X8322D2*
X8427D1*
X8652D2*
X8757D1*
X9012D2*
X9117D1*
X9987D2*
X10092D1*
X10503D2*
X10615D1*
X10964D2*
X11080D1*
X11203D2*
X11314D1*
X11634D2*
X11742D1*
X11907D2*
X12012D1*
X12232D2*
X12314D1*
X12642D2*
X12747D1*
X13512D2*
X13617D1*
X13938D2*
X14050D1*
X14399D2*
X14511D1*
X14664D2*
X14776D1*
X15095D2*
X15222D1*
X15417D2*
X15522D1*
X15822D2*
X15929D1*
X16266D2*
X16392D1*
X16587D2*
X16692D1*
X16992D2*
X17097D1*
X17382D2*
X17487D1*
X17985D2*
X18098D1*
X18361D2*
X18471D1*
X18687D2*
X18792D1*
X18969D2*
X19081D1*
X19400D2*
X19527D1*
X4527Y22697D2*
X4632D1*
X4852D2*
X4962D1*
X4977D2*
X5072D1*
X5292D2*
X5397D1*
X5607D2*
X5712D1*
X5907D2*
X6012D1*
X6342D2*
X6447D1*
X6642D2*
X6747D1*
X6900D2*
X7015D1*
X7329D2*
X7436D1*
X7587D2*
X7692D1*
X8022D2*
X8127D1*
X8322D2*
X8427D1*
X8652D2*
X8757D1*
X9012D2*
X9117D1*
X9987D2*
X10092D1*
X10509D2*
X10624D1*
X10956D2*
X11075D1*
X11205D2*
X11320D1*
X11634D2*
X11741D1*
X11907D2*
X12012D1*
X12227D2*
X12311D1*
X12642D2*
X12747D1*
X13512D2*
X13617D1*
X13944D2*
X14059D1*
X14390D2*
X14507D1*
X14671D2*
X14785D1*
X15084D2*
X15222D1*
X15417D2*
X15522D1*
X15822D2*
X15930D1*
X16259D2*
X16392D1*
X16587D2*
X16692D1*
X16992D2*
X17097D1*
X17382D2*
X17487D1*
X17988D2*
X18103D1*
X18356D2*
X18466D1*
X18687D2*
X18792D1*
X18976D2*
X19090D1*
X19389D2*
X19527D1*
X4527Y22682D2*
X4632D1*
X4857D2*
X5067D1*
X5292D2*
X5397D1*
X5607D2*
X5712D1*
X5907D2*
X6012D1*
X6342D2*
X6447D1*
X6642D2*
X6747D1*
X6904D2*
X7022D1*
X7325D2*
X7434D1*
X7587D2*
X7692D1*
X8022D2*
X8127D1*
X8322D2*
X8427D1*
X8652D2*
X8757D1*
X9012D2*
X9118D1*
X9987D2*
X10092D1*
X10516D2*
X10635D1*
X10946D2*
X11070D1*
X11209D2*
X11327D1*
X11630D2*
X11739D1*
X11907D2*
X12013D1*
X12224D2*
X12306D1*
X12642D2*
X12747D1*
X13512D2*
X13617D1*
X13951D2*
X14070D1*
X14379D2*
X14501D1*
X14678D2*
X14796D1*
X15071D2*
X15222D1*
X15417D2*
X15522D1*
X15823D2*
X15934D1*
X16250D2*
X16392D1*
X16587D2*
X16692D1*
X16992D2*
X17097D1*
X17382D2*
X17487D1*
X17993D2*
X18110D1*
X18349D2*
X18462D1*
X18687D2*
X18792D1*
X18983D2*
X19101D1*
X19376D2*
X19527D1*
X4527Y22667D2*
X4632D1*
X4862D2*
X5062D1*
X5292D2*
X5397D1*
X5607D2*
X5712D1*
X5907D2*
X6012D1*
X6342D2*
X6447D1*
X6642D2*
X6747D1*
X6910D2*
X7032D1*
X7318D2*
X7430D1*
X7587D2*
X7692D1*
X8022D2*
X8127D1*
X8322D2*
X8427D1*
X8652D2*
X8757D1*
X9012D2*
X9119D1*
X9987D2*
X10092D1*
X10523D2*
X10649D1*
X10934D2*
X11063D1*
X11215D2*
X11337D1*
X11623D2*
X11735D1*
X11907D2*
X12014D1*
X12221D2*
X12302D1*
X12642D2*
X12747D1*
X13512D2*
X13617D1*
X13958D2*
X14084D1*
X14365D2*
X14494D1*
X14686D2*
X14813D1*
X15054D2*
X15222D1*
X15417D2*
X15522D1*
X15825D2*
X15941D1*
X16236D2*
X16392D1*
X16587D2*
X16692D1*
X16992D2*
X17097D1*
X17382D2*
X17487D1*
X17997D2*
X18122D1*
X18337D2*
X18457D1*
X18687D2*
X18792D1*
X18991D2*
X19118D1*
X19359D2*
X19527D1*
X4527Y22652D2*
X4632D1*
X4867D2*
X5057D1*
X5292D2*
X5397D1*
X5607D2*
X5712D1*
X5907D2*
X6012D1*
X6342D2*
X6447D1*
X6642D2*
X6747D1*
X6916D2*
X7047D1*
X7309D2*
X7424D1*
X7587D2*
X7692D1*
X8022D2*
X8127D1*
X8322D2*
X8427D1*
X8652D2*
X8757D1*
X9012D2*
X9126D1*
X9987D2*
X10092D1*
X10531D2*
X10667D1*
X10918D2*
X11055D1*
X11221D2*
X11352D1*
X11614D2*
X11729D1*
X11907D2*
X12021D1*
X12216D2*
X12297D1*
X12642D2*
X12747D1*
X13512D2*
X13617D1*
X13966D2*
X14102D1*
X14347D2*
X14486D1*
X14694D2*
X14839D1*
X15031D2*
X15222D1*
X15417D2*
X15522D1*
X15829D2*
X15950D1*
X16215D2*
X16393D1*
X16587D2*
X16692D1*
X16992D2*
X17097D1*
X17382D2*
X17487D1*
X18003D2*
X18137D1*
X18322D2*
X18452D1*
X18687D2*
X18792D1*
X18999D2*
X19144D1*
X19336D2*
X19527D1*
X4527Y22637D2*
X4632D1*
X4872D2*
X5052D1*
X5292D2*
X5397D1*
X5607D2*
X5712D1*
X5907D2*
X6012D1*
X6342D2*
X6447D1*
X6642D2*
X6747D1*
X6924D2*
X7072D1*
X7282D2*
X7416D1*
X7587D2*
X7692D1*
X8022D2*
X8127D1*
X8322D2*
X8427D1*
X8652D2*
X8757D1*
X9013D2*
X9147D1*
X9987D2*
X10092D1*
X10539D2*
X10695D1*
X10893D2*
X11046D1*
X11229D2*
X11377D1*
X11587D2*
X11721D1*
X11908D2*
X12042D1*
X12212D2*
X12292D1*
X12642D2*
X12747D1*
X13512D2*
X13617D1*
X13974D2*
X14127D1*
X14322D2*
X14477D1*
X14703D2*
X14881D1*
X14991D2*
X15222D1*
X15417D2*
X15522D1*
X15835D2*
X15974D1*
X16184D2*
X16395D1*
X16587D2*
X16692D1*
X16992D2*
X17097D1*
X17382D2*
X17487D1*
X18009D2*
X18173D1*
X18286D2*
X18446D1*
X18687D2*
X18792D1*
X19008D2*
X19186D1*
X19296D2*
X19527D1*
X4527Y22622D2*
X4632D1*
X4877D2*
X5046D1*
X5292D2*
X5397D1*
X5607D2*
X5712D1*
X5907D2*
X6012D1*
X6342D2*
X6447D1*
X6642D2*
X6747D1*
X6933D2*
X7115D1*
X7237D2*
X7406D1*
X7587D2*
X7692D1*
X8022D2*
X8127D1*
X8322D2*
X8427D1*
X8652D2*
X8757D1*
X9015D2*
X9176D1*
X9987D2*
X10092D1*
X10548D2*
X10738D1*
X10852D2*
X11034D1*
X11238D2*
X11420D1*
X11542D2*
X11711D1*
X11910D2*
X12071D1*
X12207D2*
X12287D1*
X12642D2*
X12747D1*
X13512D2*
X13617D1*
X13983D2*
X14167D1*
X14282D2*
X14466D1*
X14715D2*
X14942D1*
X14931D2*
X15222D1*
X15417D2*
X15522D1*
X15841D2*
X16013D1*
X16135D2*
X16398D1*
X16587D2*
X16692D1*
X16992D2*
X17097D1*
X17382D2*
X17487D1*
X18016D2*
X18229D1*
X18230D2*
X18439D1*
X18687D2*
X18792D1*
X19020D2*
X19247D1*
X19236D2*
X19527D1*
X4527Y22607D2*
X4632D1*
X4882D2*
X5040D1*
X5292D2*
X5397D1*
X5607D2*
X5712D1*
X5907D2*
X6012D1*
X6342D2*
X6447D1*
X6642D2*
X6747D1*
X6945D2*
X7180D1*
X7170D2*
X7396D1*
X7587D2*
X7692D1*
X8022D2*
X8127D1*
X8322D2*
X8427D1*
X8652D2*
X8757D1*
X9019D2*
X9206D1*
X9987D2*
X10092D1*
X10561D2*
X10800D1*
X10792D2*
X11021D1*
X11250D2*
X11485D1*
X11475D2*
X11701D1*
X11914D2*
X12101D1*
X12202D2*
X12284D1*
X12642D2*
X12747D1*
X13512D2*
X13617D1*
X13996D2*
X14225D1*
X14224D2*
X14454D1*
X14729D2*
X15222D1*
X15417D2*
X15522D1*
X15849D2*
X16070D1*
X16066D2*
X16402D1*
X16587D2*
X16692D1*
X16992D2*
X17097D1*
X17382D2*
X17487D1*
X18024D2*
X18428D1*
X18687D2*
X18792D1*
X19034D2*
X19527D1*
X4527Y22592D2*
X4632D1*
X4887D2*
X5033D1*
X5292D2*
X5397D1*
X5607D2*
X5712D1*
X5907D2*
X6012D1*
X6342D2*
X6447D1*
X6642D2*
X6747D1*
X6958D2*
X7384D1*
X7587D2*
X7692D1*
X8022D2*
X8127D1*
X8322D2*
X8427D1*
X8652D2*
X8757D1*
X9025D2*
X9230D1*
X9987D2*
X10092D1*
X10576D2*
X11006D1*
X11263D2*
X11689D1*
X11920D2*
X12125D1*
X12197D2*
X12281D1*
X12642D2*
X12747D1*
X13512D2*
X13617D1*
X14011D2*
X14438D1*
X14746D2*
X15086D1*
X15117D2*
X15222D1*
X15417D2*
X15522D1*
X15858D2*
X16256D1*
X16303D2*
X16405D1*
X16587D2*
X16692D1*
X16992D2*
X17097D1*
X17382D2*
X17487D1*
X18034D2*
X18415D1*
X18687D2*
X18792D1*
X19051D2*
X19391D1*
X19422D2*
X19527D1*
X4527Y22577D2*
X4632D1*
X4892D2*
X5028D1*
X5292D2*
X5397D1*
X5607D2*
X5712D1*
X5907D2*
X6012D1*
X6342D2*
X6447D1*
X6642D2*
X6747D1*
X6973D2*
X7368D1*
X7587D2*
X7692D1*
X8022D2*
X8127D1*
X8322D2*
X8427D1*
X8652D2*
X8757D1*
X9034D2*
X9242D1*
X9987D2*
X10092D1*
X10594D2*
X10989D1*
X11278D2*
X11673D1*
X11929D2*
X12137D1*
X12194D2*
X12276D1*
X12642D2*
X12747D1*
X13512D2*
X13617D1*
X14029D2*
X14419D1*
X14767D2*
X15068D1*
X15117D2*
X15222D1*
X15417D2*
X15522D1*
X15871D2*
X16239D1*
X16305D2*
X16408D1*
X16587D2*
X16692D1*
X16992D2*
X17097D1*
X17382D2*
X17487D1*
X18048D2*
X18401D1*
X18687D2*
X18792D1*
X19072D2*
X19373D1*
X19422D2*
X19527D1*
X4527Y22562D2*
X4632D1*
X4897D2*
X5022D1*
X5292D2*
X5397D1*
X5607D2*
X5712D1*
X5907D2*
X6012D1*
X6342D2*
X6447D1*
X6642D2*
X6747D1*
X6992D2*
X7347D1*
X7587D2*
X7692D1*
X8022D2*
X8127D1*
X8322D2*
X8427D1*
X8652D2*
X8757D1*
X9046D2*
X9247D1*
X9987D2*
X10092D1*
X10617D2*
X10967D1*
X11297D2*
X11652D1*
X11941D2*
X12142D1*
X12191D2*
X12272D1*
X12642D2*
X12747D1*
X13512D2*
X13617D1*
X14051D2*
X14396D1*
X14794D2*
X15045D1*
X15117D2*
X15222D1*
X15417D2*
X15522D1*
X15887D2*
X16217D1*
X16308D2*
X16413D1*
X16587D2*
X16692D1*
X16992D2*
X17097D1*
X17382D2*
X17487D1*
X18067D2*
X18383D1*
X18687D2*
X18792D1*
X19099D2*
X19350D1*
X19422D2*
X19527D1*
X4527Y22547D2*
X4632D1*
X4900D2*
X5015D1*
X5292D2*
X5397D1*
X5607D2*
X5712D1*
X5907D2*
X6012D1*
X6342D2*
X6447D1*
X6642D2*
X6747D1*
X7017D2*
X7322D1*
X7587D2*
X7692D1*
X8022D2*
X8127D1*
X8322D2*
X8427D1*
X8652D2*
X8757D1*
X9061D2*
X9250D1*
X9987D2*
X10092D1*
X10645D2*
X10940D1*
X11322D2*
X11627D1*
X11956D2*
X12145D1*
X12186D2*
X12267D1*
X12642D2*
X12747D1*
X13512D2*
X13617D1*
X14077D2*
X14366D1*
X14827D2*
X15015D1*
X15117D2*
X15222D1*
X15417D2*
X15522D1*
X15910D2*
X16190D1*
X16313D2*
X16418D1*
X16587D2*
X16692D1*
X16992D2*
X17097D1*
X17382D2*
X17487D1*
X18092D2*
X18360D1*
X18687D2*
X18792D1*
X19132D2*
X19320D1*
X19422D2*
X19527D1*
X4527Y22532D2*
X4632D1*
X4902D2*
X5007D1*
X5292D2*
X5397D1*
X5607D2*
X5712D1*
X5907D2*
X6012D1*
X6342D2*
X6447D1*
X6642D2*
X6747D1*
X7052D2*
X7291D1*
X7587D2*
X7692D1*
X8022D2*
X8127D1*
X8322D2*
X8427D1*
X8652D2*
X8757D1*
X9081D2*
X9251D1*
X9987D2*
X10092D1*
X10681D2*
X10907D1*
X11357D2*
X11596D1*
X11976D2*
X12146D1*
X12181D2*
X12260D1*
X12642D2*
X12747D1*
X13512D2*
X13617D1*
X14108D2*
X14330D1*
X14862D2*
X14982D1*
X15117D2*
X15222D1*
X15417D2*
X15522D1*
X15939D2*
X16157D1*
X16317D2*
X16422D1*
X16587D2*
X16692D1*
X16992D2*
X17097D1*
X17382D2*
X17487D1*
X18119D2*
X18330D1*
X18687D2*
X18792D1*
X19167D2*
X19287D1*
X19422D2*
X19527D1*
X7092Y22517D2*
X7257D1*
X9102D2*
X9252D1*
X10722D2*
X10872D1*
X11397D2*
X11562D1*
X11997D2*
X12147D1*
X12177D2*
X12252D1*
X14142D2*
X14292D1*
X15117D2*
X15221D1*
X15972D2*
X16122D1*
X18147D2*
X18297D1*
X19422D2*
X19526D1*
X15116Y22502D2*
X15220D1*
X19421D2*
X19525D1*
X15114Y22487D2*
X15216D1*
X19419D2*
X19521D1*
X15110Y22472D2*
X15212D1*
X19415D2*
X19517D1*
X14652Y22457D2*
X14742D1*
X15105D2*
X15209D1*
X18957D2*
X19047D1*
X19410D2*
X19514D1*
X14657Y22442D2*
X14755D1*
X15098D2*
X15206D1*
X18962D2*
X19060D1*
X19403D2*
X19511D1*
X14662Y22427D2*
X14766D1*
X15090D2*
X15201D1*
X18967D2*
X19071D1*
X19395D2*
X19506D1*
X14665Y22412D2*
X14777D1*
X15080D2*
X15195D1*
X18970D2*
X19082D1*
X19385D2*
X19500D1*
X14668Y22397D2*
X14792D1*
X15064D2*
X15188D1*
X18973D2*
X19097D1*
X19369D2*
X19493D1*
X14673Y22382D2*
X14810D1*
X15037D2*
X15180D1*
X18978D2*
X19115D1*
X19342D2*
X19485D1*
X14680Y22367D2*
X14858D1*
X14989D2*
X15171D1*
X18985D2*
X19163D1*
X19294D2*
X19476D1*
X14689Y22352D2*
X14928D1*
X14917D2*
X15159D1*
X18994D2*
X19233D1*
X19222D2*
X19464D1*
X14701Y22337D2*
X15145D1*
X19006D2*
X19450D1*
X14717Y22322D2*
X15128D1*
X19022D2*
X19433D1*
X14738Y22307D2*
X15107D1*
X19043D2*
X19412D1*
X14767Y22292D2*
X15080D1*
X19072D2*
X19385D1*
X14805Y22277D2*
X15047D1*
X19110D2*
X19352D1*
X14847Y22262D2*
X15012D1*
X19152D2*
X19317D1*
X18846Y10566D2*
X18861D1*
X18826Y10551D2*
X18861D1*
X18426Y10536D2*
X18441D1*
X18806D2*
X18861D1*
X18426Y10521D2*
X18456D1*
X18786D2*
X18861D1*
X18426Y10506D2*
X18471D1*
X18766D2*
X18858D1*
X18427Y10491D2*
X18486D1*
X18744D2*
X18853D1*
X18430Y10476D2*
X18501D1*
X18722D2*
X18840D1*
X18436Y10461D2*
X18514D1*
X18700D2*
X18823D1*
X18446Y10446D2*
X18525D1*
X18677D2*
X18803D1*
X18458Y10431D2*
X18538D1*
X18653D2*
X18782D1*
X18472Y10416D2*
X18555D1*
X18624D2*
X18760D1*
X18487Y10401D2*
X18578D1*
X18588D2*
X18738D1*
X18501Y10386D2*
X18715D1*
X18516Y10371D2*
X18693D1*
X18531Y10356D2*
X18673D1*
X18546Y10341D2*
X18654D1*
X18561Y10326D2*
X18636D1*
X18573Y10311D2*
X18651D1*
X18582Y10296D2*
X18666D1*
X18588Y10281D2*
X18681D1*
X18246Y10266D2*
X18861D1*
X18246Y10251D2*
X18861D1*
X18246Y10236D2*
X18861D1*
X18246Y10221D2*
X18861D1*
X18246Y10206D2*
X18861D1*
X18246Y10116D2*
X18261D1*
X18246Y10101D2*
X18319D1*
X18247Y10086D2*
X18375D1*
X18247Y10071D2*
X18429D1*
X18253Y10056D2*
X18483D1*
X18276Y10041D2*
X18537D1*
X18313Y10026D2*
X18592D1*
X18361Y10011D2*
X18646D1*
X18418Y9996D2*
X18701D1*
X18479Y9981D2*
X18754D1*
X18542Y9966D2*
X18799D1*
X18603Y9951D2*
X18835D1*
X18659Y9936D2*
X18851D1*
X18710Y9921D2*
X18856D1*
X18756Y9906D2*
X18860D1*
X18690Y9891D2*
X18857D1*
X18628Y9876D2*
X18843D1*
X18570Y9861D2*
X18812D1*
X18514Y9846D2*
X18772D1*
X18461Y9831D2*
X18725D1*
X18408Y9816D2*
X18674D1*
X18357Y9801D2*
X18620D1*
X18313Y9786D2*
X18567D1*
X18275Y9771D2*
X18513D1*
X18258Y9756D2*
X18462D1*
X18252Y9741D2*
X18414D1*
X18249Y9726D2*
X18373D1*
X18247Y9711D2*
X18336D1*
X18247Y9696D2*
X18391D1*
X18254Y9681D2*
X18444D1*
X18280Y9666D2*
X18498D1*
X18316Y9651D2*
X18552D1*
X18361Y9636D2*
X18607D1*
X18410Y9621D2*
X18661D1*
X18461Y9606D2*
X18714D1*
X18513Y9591D2*
X18763D1*
X18565Y9576D2*
X18804D1*
X18618Y9561D2*
X18837D1*
X18670Y9546D2*
X18852D1*
X18721Y9531D2*
X18857D1*
X18771Y9516D2*
X18859D1*
X18699Y9501D2*
X18858D1*
X18630Y9486D2*
X18847D1*
X18565Y9471D2*
X18816D1*
X18501Y9456D2*
X18775D1*
X18436Y9441D2*
X18727D1*
X18374Y9426D2*
X18674D1*
X18321Y9411D2*
X18619D1*
X18278Y9396D2*
X18563D1*
X18259Y9381D2*
X18507D1*
X18252Y9366D2*
X18451D1*
X18249Y9351D2*
X18394D1*
X18247Y9336D2*
X18335D1*
X18246Y9321D2*
X18276D1*
X18771Y11991D2*
X18786D1*
X18751Y11976D2*
X18786D1*
X18351Y11961D2*
X18366D1*
X18731D2*
X18786D1*
X18351Y11946D2*
X18381D1*
X18711D2*
X18785D1*
X18351Y11931D2*
X18396D1*
X18690D2*
X18783D1*
X18352Y11916D2*
X18411D1*
X18669D2*
X18778D1*
X18354Y11901D2*
X18425D1*
X18647D2*
X18765D1*
X18360Y11886D2*
X18438D1*
X18625D2*
X18748D1*
X18370Y11871D2*
X18450D1*
X18602D2*
X18728D1*
X18383Y11856D2*
X18462D1*
X18578D2*
X18706D1*
X18397Y11841D2*
X18479D1*
X18549D2*
X18684D1*
X18411Y11826D2*
X18503D1*
X18512D2*
X18662D1*
X18426Y11811D2*
X18640D1*
X18441Y11796D2*
X18618D1*
X18456Y11781D2*
X18597D1*
X18471Y11766D2*
X18579D1*
X18485Y11751D2*
X18561D1*
X18498Y11736D2*
X18576D1*
X18507Y11721D2*
X18591D1*
X18512Y11706D2*
X18606D1*
X18171Y11691D2*
X18786D1*
X18171Y11676D2*
X18786D1*
X18171Y11661D2*
X18786D1*
X18171Y11646D2*
X18786D1*
X18171Y11631D2*
X18786D1*
X18381Y11511D2*
X18576D1*
X18345Y11496D2*
X18610D1*
X18313Y11481D2*
X18640D1*
X18287Y11466D2*
X18666D1*
X18266Y11451D2*
X18688D1*
X18248Y11436D2*
X18397D1*
X18540D2*
X18707D1*
X18232Y11421D2*
X18357D1*
X18587D2*
X18722D1*
X18219Y11406D2*
X18324D1*
X18624D2*
X18734D1*
X18208Y11391D2*
X18299D1*
X18653D2*
X18743D1*
X18198Y11376D2*
X18279D1*
X18675D2*
X18752D1*
X18190Y11361D2*
X18263D1*
X18691D2*
X18759D1*
X18183Y11346D2*
X18249D1*
X18703D2*
X18767D1*
X18177Y11331D2*
X18238D1*
X18713D2*
X18774D1*
X18171Y11316D2*
X18229D1*
X18722D2*
X18780D1*
X18166Y11301D2*
X18223D1*
X18729D2*
X18783D1*
X18161Y11286D2*
X18218D1*
X18735D2*
X18785D1*
X18159Y11271D2*
X18215D1*
X18738D2*
X18788D1*
X18157Y11256D2*
X18210D1*
X18740D2*
X18792D1*
X18156Y11241D2*
X18206D1*
X18740D2*
X18796D1*
X18156Y11226D2*
X18204D1*
X18741D2*
X18798D1*
X18156Y11211D2*
X18204D1*
X18741D2*
X18797D1*
X18156Y11196D2*
X18207D1*
X18740D2*
X18794D1*
X18157Y11181D2*
X18211D1*
X18738D2*
X18791D1*
X18158Y11166D2*
X18214D1*
X18735D2*
X18788D1*
X18162Y11151D2*
X18217D1*
X18730D2*
X18786D1*
X18166Y11136D2*
X18222D1*
X18725D2*
X18784D1*
X18171Y11121D2*
X18229D1*
X18718D2*
X18779D1*
X18177Y11106D2*
X18238D1*
X18710D2*
X18773D1*
X18183Y11091D2*
X18249D1*
X18700D2*
X18767D1*
X18190Y11076D2*
X18263D1*
X18688D2*
X18759D1*
X18198Y11061D2*
X18280D1*
X18671D2*
X18750D1*
X18207Y11046D2*
X18303D1*
X18647D2*
X18738D1*
X18219Y11031D2*
X18340D1*
X18611D2*
X18725D1*
X18232Y11016D2*
X18401D1*
X18553D2*
X18710D1*
X18247Y11001D2*
X18489D1*
X18473D2*
X18695D1*
X18264Y10986D2*
X18678D1*
X18286Y10971D2*
X18656D1*
X18316Y10956D2*
X18629D1*
X18354Y10941D2*
X18596D1*
X18396Y10926D2*
X18561D1*
X18380Y13535D2*
X18440D1*
X18378Y13520D2*
X18440D1*
X18375Y13505D2*
X18440D1*
X18373Y13490D2*
X18440D1*
X18374Y13475D2*
X18440D1*
X18377Y13460D2*
X18441D1*
X18382Y13445D2*
X18443D1*
X18389Y13430D2*
X18451D1*
X18399Y13415D2*
X18477D1*
X18412Y13400D2*
X18519D1*
X18425Y13385D2*
X18574D1*
X18405Y13370D2*
X18815D1*
X18389Y13355D2*
X18815D1*
X18385Y13340D2*
X18815D1*
X18382Y13325D2*
X18815D1*
X18380Y13310D2*
X18815D1*
X18380Y13235D2*
X18440D1*
X18378Y13220D2*
X18440D1*
X18375Y13205D2*
X18440D1*
X18373Y13190D2*
X18440D1*
X18374Y13175D2*
X18440D1*
X18377Y13160D2*
X18441D1*
X18382Y13145D2*
X18443D1*
X18389Y13130D2*
X18451D1*
X18399Y13115D2*
X18477D1*
X18412Y13100D2*
X18519D1*
X18425Y13085D2*
X18574D1*
X18405Y13070D2*
X18815D1*
X18389Y13055D2*
X18815D1*
X18385Y13040D2*
X18815D1*
X18382Y13025D2*
X18815D1*
X18380Y13010D2*
X18815D1*
X18755Y12890D2*
X18815D1*
X18200Y12875D2*
X18260D1*
X18755D2*
X18815D1*
X18200Y12860D2*
X18260D1*
X18755D2*
X18815D1*
X18200Y12845D2*
X18260D1*
X18470D2*
X18530D1*
X18755D2*
X18815D1*
X18200Y12830D2*
X18260D1*
X18470D2*
X18530D1*
X18755D2*
X18815D1*
X18200Y12815D2*
X18260D1*
X18470D2*
X18530D1*
X18755D2*
X18815D1*
X18200Y12800D2*
X18260D1*
X18470D2*
X18530D1*
X18755D2*
X18815D1*
X18200Y12785D2*
X18260D1*
X18470D2*
X18530D1*
X18755D2*
X18815D1*
X18200Y12770D2*
X18260D1*
X18470D2*
X18530D1*
X18755D2*
X18815D1*
X18200Y12755D2*
X18260D1*
X18470D2*
X18530D1*
X18755D2*
X18815D1*
X18200Y12740D2*
X18260D1*
X18470D2*
X18530D1*
X18755D2*
X18815D1*
X18200Y12725D2*
X18260D1*
X18470D2*
X18530D1*
X18755D2*
X18815D1*
X18200Y12710D2*
X18260D1*
X18470D2*
X18530D1*
X18755D2*
X18815D1*
X18200Y12695D2*
X18260D1*
X18470D2*
X18530D1*
X18755D2*
X18815D1*
X18200Y12680D2*
X18260D1*
X18470D2*
X18530D1*
X18755D2*
X18815D1*
X18200Y12665D2*
X18260D1*
X18470D2*
X18530D1*
X18755D2*
X18815D1*
X18200Y12650D2*
X18260D1*
X18470D2*
X18530D1*
X18755D2*
X18815D1*
X18200Y12635D2*
X18260D1*
X18470D2*
X18530D1*
X18755D2*
X18815D1*
X18200Y12620D2*
X18260D1*
X18470D2*
X18530D1*
X18755D2*
X18815D1*
X18200Y12605D2*
X18260D1*
X18470D2*
X18530D1*
X18755D2*
X18815D1*
X18200Y12590D2*
X18260D1*
X18470D2*
X18530D1*
X18755D2*
X18815D1*
X18200Y12575D2*
X18260D1*
X18470D2*
X18530D1*
X18755D2*
X18815D1*
X18200Y12560D2*
X18260D1*
X18470D2*
X18530D1*
X18755D2*
X18815D1*
X18200Y12545D2*
X18260D1*
X18470D2*
X18530D1*
X18755D2*
X18815D1*
X18200Y12530D2*
X18260D1*
X18470D2*
X18530D1*
X18755D2*
X18815D1*
X18200Y12515D2*
X18260D1*
X18470D2*
X18530D1*
X18755D2*
X18815D1*
X18200Y12500D2*
X18260D1*
X18470D2*
X18530D1*
X18755D2*
X18815D1*
X18200Y12485D2*
X18815D1*
X18200Y12470D2*
X18815D1*
X18200Y12455D2*
X18815D1*
X18200Y12440D2*
X18815D1*
X18200Y12425D2*
X18815D1*
X8757Y23462D2*
X8735Y23447D1*
X8716Y23432D1*
X8699Y23417D1*
X8685Y23402D1*
X8674Y23387D1*
X8665Y23372D1*
X8659Y23357D1*
X8655Y23342D1*
X8653Y23327D1*
Y23312D1*
X8652Y23297D1*
Y23282D1*
Y23267D1*
Y23252D1*
Y23237D1*
Y23222D1*
Y23207D1*
Y23192D1*
X8547D1*
Y23177D1*
Y23162D1*
Y23147D1*
Y23132D1*
Y23117D1*
Y23102D1*
X8652D1*
Y23087D1*
Y23072D1*
Y23057D1*
Y23042D1*
Y23027D1*
Y23012D1*
Y22997D1*
Y22982D1*
Y22967D1*
Y22952D1*
Y22937D1*
Y22922D1*
Y22907D1*
Y22892D1*
Y22877D1*
Y22862D1*
Y22847D1*
Y22832D1*
Y22817D1*
Y22802D1*
Y22787D1*
Y22772D1*
Y22757D1*
Y22742D1*
Y22727D1*
Y22712D1*
Y22697D1*
Y22682D1*
Y22667D1*
Y22652D1*
Y22637D1*
Y22622D1*
Y22607D1*
Y22592D1*
Y22577D1*
Y22562D1*
Y22547D1*
Y22532D1*
X8907Y23462D2*
X8914Y23447D1*
X8918Y23432D1*
X8921Y23417D1*
X8918Y23402D1*
X8903Y23387D1*
X8866Y23372D1*
X8827Y23357D1*
X8798Y23342D1*
X8776Y23327D1*
X8767Y23312D1*
X8761Y23297D1*
X8759Y23282D1*
X8758Y23267D1*
X8757Y23252D1*
Y23237D1*
Y23222D1*
Y23207D1*
Y23192D1*
X8877D1*
Y23177D1*
Y23162D1*
Y23147D1*
Y23132D1*
Y23117D1*
Y23102D1*
X8757D1*
Y23087D1*
Y23072D1*
Y23057D1*
Y23042D1*
Y23027D1*
Y23012D1*
Y22997D1*
Y22982D1*
Y22967D1*
Y22952D1*
Y22937D1*
Y22922D1*
Y22907D1*
Y22892D1*
Y22877D1*
Y22862D1*
Y22847D1*
Y22832D1*
Y22817D1*
Y22802D1*
Y22787D1*
Y22772D1*
Y22757D1*
Y22742D1*
Y22727D1*
Y22712D1*
Y22697D1*
Y22682D1*
Y22667D1*
Y22652D1*
Y22637D1*
Y22622D1*
Y22607D1*
Y22592D1*
Y22577D1*
Y22562D1*
Y22547D1*
Y22532D1*
X12447Y23462D2*
X12442Y23447D1*
X12437Y23432D1*
X12432Y23417D1*
X12427Y23402D1*
X12422Y23387D1*
X12419Y23372D1*
X12416Y23357D1*
X12411Y23342D1*
X12407Y23327D1*
X12402Y23312D1*
X12397Y23297D1*
X12392Y23282D1*
X12389Y23267D1*
X12386Y23252D1*
X12381Y23237D1*
X12377Y23222D1*
X12372Y23207D1*
X12367Y23192D1*
X12362Y23177D1*
X12359Y23162D1*
X12356Y23147D1*
X12351Y23132D1*
X12347Y23117D1*
X12342Y23102D1*
X12337Y23087D1*
X12332Y23072D1*
X12329Y23057D1*
X12326Y23042D1*
X12321Y23027D1*
X12317Y23012D1*
X12312Y22997D1*
X12307Y22982D1*
X12302Y22967D1*
X12299Y22952D1*
X12296Y22937D1*
X12291Y22922D1*
X12287Y22907D1*
X12284Y22892D1*
X12281Y22877D1*
X12276Y22862D1*
X12272Y22847D1*
X12267Y22832D1*
X12262Y22817D1*
X12257Y22802D1*
X12254Y22787D1*
X12251Y22772D1*
X12246Y22757D1*
X12242Y22742D1*
X12237Y22727D1*
X12232Y22712D1*
X12227Y22697D1*
X12224Y22682D1*
X12221Y22667D1*
X12216Y22652D1*
X12212Y22637D1*
X12207Y22622D1*
X12202Y22607D1*
X12197Y22592D1*
X12194Y22577D1*
X12191Y22562D1*
X12186Y22547D1*
X12181Y22532D1*
X12177Y22517D1*
X12522Y23462D2*
X12520Y23447D1*
X12516Y23432D1*
X12512Y23417D1*
X12507Y23402D1*
X12502Y23387D1*
X12497Y23372D1*
X12494Y23357D1*
X12491Y23342D1*
X12486Y23327D1*
X12482Y23312D1*
X12477Y23297D1*
X12472Y23282D1*
X12467Y23267D1*
X12464Y23252D1*
X12461Y23237D1*
X12456Y23222D1*
X12452Y23207D1*
X12449Y23192D1*
X12446Y23177D1*
X12441Y23162D1*
X12437Y23147D1*
X12432Y23132D1*
X12427Y23117D1*
X12422Y23102D1*
X12419Y23087D1*
X12416Y23072D1*
X12411Y23057D1*
X12407Y23042D1*
X12402Y23027D1*
X12397Y23012D1*
X12392Y22997D1*
X12389Y22982D1*
X12386Y22967D1*
X12381Y22952D1*
X12377Y22937D1*
X12372Y22922D1*
X12367Y22907D1*
X12362Y22892D1*
X12359Y22877D1*
X12356Y22862D1*
X12351Y22847D1*
X12347Y22832D1*
X12342Y22817D1*
X12337Y22802D1*
X12332Y22787D1*
X12329Y22772D1*
X12326Y22757D1*
X12321Y22742D1*
X12317Y22727D1*
X12314Y22712D1*
X12311Y22697D1*
X12306Y22682D1*
X12302Y22667D1*
X12297Y22652D1*
X12292Y22637D1*
X12287Y22622D1*
X12284Y22607D1*
X12281Y22592D1*
X12276Y22577D1*
X12272Y22562D1*
X12267Y22547D1*
X12260Y22532D1*
X12252Y22517D1*
X4527Y23447D2*
Y23432D1*
Y23417D1*
Y23402D1*
Y23387D1*
Y23372D1*
Y23357D1*
Y23342D1*
Y23327D1*
Y23312D1*
Y23297D1*
Y23282D1*
Y23267D1*
Y23252D1*
Y23237D1*
Y23222D1*
Y23207D1*
Y23192D1*
Y23177D1*
Y23162D1*
Y23147D1*
Y23132D1*
Y23117D1*
Y23102D1*
Y23087D1*
Y23072D1*
Y23057D1*
Y23042D1*
Y23027D1*
Y23012D1*
Y22997D1*
Y22982D1*
Y22967D1*
Y22952D1*
Y22937D1*
Y22922D1*
Y22907D1*
Y22892D1*
Y22877D1*
Y22862D1*
Y22847D1*
Y22832D1*
Y22817D1*
Y22802D1*
Y22787D1*
Y22772D1*
Y22757D1*
Y22742D1*
Y22727D1*
Y22712D1*
Y22697D1*
Y22682D1*
Y22667D1*
Y22652D1*
Y22637D1*
Y22622D1*
Y22607D1*
Y22592D1*
Y22577D1*
Y22562D1*
Y22547D1*
Y22532D1*
X4707Y23447D2*
X4709Y23432D1*
X4713Y23417D1*
X4718Y23402D1*
X4722Y23387D1*
X4727Y23372D1*
X4732Y23357D1*
X4737Y23342D1*
X4742Y23327D1*
X4747Y23312D1*
X4752Y23297D1*
X4757Y23282D1*
X4762Y23267D1*
X4767Y23252D1*
X4772Y23237D1*
X4777Y23222D1*
X4782Y23207D1*
X4787Y23192D1*
X4792Y23177D1*
X4797Y23162D1*
X4802Y23147D1*
X4807Y23132D1*
X4812Y23117D1*
X4817Y23102D1*
X4822Y23087D1*
X4827Y23072D1*
X4832Y23057D1*
X4837Y23042D1*
X4842Y23027D1*
X4847Y23012D1*
X4852Y22997D1*
X4857Y22982D1*
X4862Y22967D1*
X4867Y22952D1*
X4872Y22937D1*
X4877Y22922D1*
X4882Y22907D1*
X4887Y22892D1*
X4892Y22877D1*
X4897Y22862D1*
X4902Y22847D1*
X4907Y22832D1*
X4912Y22817D1*
X4917Y22802D1*
X4922Y22787D1*
X4927Y22772D1*
X4932Y22757D1*
X4937Y22742D1*
X4943Y22727D1*
X4950Y22712D1*
X4962Y22697D1*
X4977Y22682D1*
X5247Y23447D2*
X5240Y23432D1*
X5233Y23417D1*
X5227Y23402D1*
X5222Y23387D1*
X5217Y23372D1*
X5212Y23357D1*
X5207Y23342D1*
X5202Y23327D1*
X5197Y23312D1*
X5192Y23297D1*
X5187Y23282D1*
X5182Y23267D1*
X5177Y23252D1*
X5172Y23237D1*
X5167Y23222D1*
X5162Y23207D1*
X5157Y23192D1*
X5152Y23177D1*
X5147Y23162D1*
X5142Y23147D1*
X5136Y23132D1*
X5130Y23117D1*
X5123Y23102D1*
X5118Y23087D1*
X5112Y23072D1*
X5107Y23057D1*
X5102Y23042D1*
X5097Y23027D1*
X5092Y23012D1*
X5087Y22997D1*
X5082Y22982D1*
X5077Y22967D1*
X5072Y22952D1*
X5067Y22937D1*
X5062Y22922D1*
X5057Y22907D1*
X5052Y22892D1*
X5047Y22877D1*
X5042Y22862D1*
X5037Y22847D1*
X5032Y22832D1*
X5027Y22817D1*
X5022Y22802D1*
X5017Y22787D1*
X5012Y22772D1*
X5007Y22757D1*
X5002Y22742D1*
X4996Y22727D1*
X4989Y22712D1*
X4977Y22697D1*
X4962Y22682D1*
X5397Y23447D2*
Y23432D1*
Y23417D1*
Y23402D1*
Y23387D1*
Y23372D1*
Y23357D1*
Y23342D1*
Y23327D1*
Y23312D1*
Y23297D1*
Y23282D1*
Y23267D1*
Y23252D1*
Y23237D1*
Y23222D1*
Y23207D1*
Y23192D1*
Y23177D1*
Y23162D1*
Y23147D1*
Y23132D1*
Y23117D1*
Y23102D1*
Y23087D1*
Y23072D1*
Y23057D1*
Y23042D1*
Y23027D1*
Y23012D1*
Y22997D1*
Y22982D1*
Y22967D1*
Y22952D1*
Y22937D1*
Y22922D1*
Y22907D1*
Y22892D1*
Y22877D1*
Y22862D1*
Y22847D1*
Y22832D1*
Y22817D1*
Y22802D1*
Y22787D1*
Y22772D1*
Y22757D1*
Y22742D1*
Y22727D1*
Y22712D1*
Y22697D1*
Y22682D1*
Y22667D1*
Y22652D1*
Y22637D1*
Y22622D1*
Y22607D1*
Y22592D1*
Y22577D1*
Y22562D1*
Y22547D1*
Y22532D1*
X5607Y23447D2*
Y23432D1*
Y23417D1*
Y23402D1*
Y23387D1*
Y23372D1*
Y23357D1*
Y23342D1*
Y23327D1*
X5712Y23447D2*
Y23432D1*
Y23417D1*
Y23402D1*
Y23387D1*
Y23372D1*
Y23357D1*
Y23342D1*
Y23327D1*
X6642Y23447D2*
Y23432D1*
Y23417D1*
Y23402D1*
Y23387D1*
Y23372D1*
Y23357D1*
Y23342D1*
Y23327D1*
X6747Y23447D2*
Y23432D1*
Y23417D1*
Y23402D1*
Y23387D1*
Y23372D1*
Y23357D1*
Y23342D1*
Y23327D1*
X7587Y23447D2*
Y23432D1*
Y23417D1*
Y23402D1*
Y23387D1*
Y23372D1*
Y23357D1*
Y23342D1*
Y23327D1*
Y23312D1*
Y23297D1*
Y23282D1*
Y23267D1*
Y23252D1*
Y23237D1*
Y23222D1*
Y23207D1*
Y23192D1*
Y23177D1*
Y23162D1*
Y23147D1*
Y23132D1*
Y23117D1*
Y23102D1*
Y23087D1*
Y23072D1*
Y23057D1*
Y23042D1*
Y23027D1*
Y23012D1*
Y22997D1*
Y22982D1*
Y22967D1*
Y22952D1*
Y22937D1*
Y22922D1*
Y22907D1*
Y22892D1*
Y22877D1*
Y22862D1*
Y22847D1*
Y22832D1*
Y22817D1*
Y22802D1*
Y22787D1*
Y22772D1*
Y22757D1*
Y22742D1*
Y22727D1*
Y22712D1*
Y22697D1*
Y22682D1*
Y22667D1*
Y22652D1*
Y22637D1*
Y22622D1*
Y22607D1*
Y22592D1*
Y22577D1*
Y22562D1*
Y22547D1*
Y22532D1*
X7692Y23447D2*
Y23432D1*
Y23417D1*
Y23402D1*
Y23387D1*
Y23372D1*
Y23357D1*
Y23342D1*
Y23327D1*
Y23312D1*
Y23297D1*
Y23282D1*
Y23267D1*
Y23252D1*
Y23237D1*
Y23222D1*
Y23207D1*
Y23192D1*
X7693Y23177D1*
X7695Y23162D1*
X7700Y23147D1*
X7707Y23132D1*
X8322Y23447D2*
Y23432D1*
Y23417D1*
Y23402D1*
Y23387D1*
Y23372D1*
Y23357D1*
Y23342D1*
Y23327D1*
X8427Y23447D2*
Y23432D1*
Y23417D1*
Y23402D1*
Y23387D1*
Y23372D1*
Y23357D1*
Y23342D1*
Y23327D1*
X9672Y23447D2*
Y23432D1*
Y23417D1*
Y23402D1*
Y23387D1*
Y23372D1*
Y23357D1*
X10392Y23447D2*
Y23432D1*
Y23417D1*
Y23402D1*
Y23387D1*
Y23372D1*
Y23357D1*
X12642Y23447D2*
Y23432D1*
Y23417D1*
Y23402D1*
Y23387D1*
Y23372D1*
Y23357D1*
Y23342D1*
Y23327D1*
Y23312D1*
Y23297D1*
Y23282D1*
Y23267D1*
Y23252D1*
Y23237D1*
Y23222D1*
Y23207D1*
Y23192D1*
Y23177D1*
Y23162D1*
Y23147D1*
Y23132D1*
Y23117D1*
Y23102D1*
Y23087D1*
Y23072D1*
Y23057D1*
Y23042D1*
Y23027D1*
Y23012D1*
Y22997D1*
Y22982D1*
Y22967D1*
Y22952D1*
Y22937D1*
Y22922D1*
Y22907D1*
Y22892D1*
Y22877D1*
Y22862D1*
Y22847D1*
Y22832D1*
Y22817D1*
Y22802D1*
Y22787D1*
Y22772D1*
Y22757D1*
Y22742D1*
Y22727D1*
Y22712D1*
Y22697D1*
Y22682D1*
Y22667D1*
Y22652D1*
Y22637D1*
Y22622D1*
Y22607D1*
Y22592D1*
Y22577D1*
Y22562D1*
Y22547D1*
Y22532D1*
X13122Y23447D2*
X13168Y23432D1*
X13205Y23417D1*
X13232Y23402D1*
X13253Y23387D1*
X13270Y23372D1*
X13286Y23357D1*
X13299Y23342D1*
X13310Y23327D1*
X13319Y23312D1*
X13326Y23297D1*
X13331Y23282D1*
X13337Y23267D1*
X13341Y23252D1*
X13344Y23237D1*
X13346Y23222D1*
X13347Y23207D1*
Y23192D1*
Y23177D1*
Y23162D1*
X13346Y23147D1*
X13345Y23132D1*
X13341Y23117D1*
X13336Y23102D1*
X13332Y23087D1*
X13326Y23072D1*
X13320Y23057D1*
X13313Y23042D1*
X13305Y23027D1*
X13296Y23012D1*
X13284Y22997D1*
X13270Y22982D1*
X13253Y22967D1*
X13229Y22952D1*
X13196Y22937D1*
X13154Y22922D1*
X13107Y22907D1*
X18372Y23447D2*
Y23432D1*
Y23417D1*
Y23402D1*
Y23387D1*
Y23372D1*
Y23357D1*
Y23342D1*
Y23327D1*
Y23312D1*
Y23297D1*
Y23282D1*
Y23267D1*
Y23252D1*
Y23237D1*
Y23222D1*
Y23207D1*
Y23192D1*
Y23177D1*
Y23162D1*
Y23147D1*
Y23132D1*
Y23117D1*
Y23102D1*
Y23087D1*
Y23072D1*
Y23057D1*
Y23042D1*
Y23027D1*
Y23012D1*
Y22997D1*
Y22982D1*
Y22967D1*
Y22952D1*
Y22937D1*
Y22922D1*
Y22907D1*
Y22892D1*
Y22877D1*
Y22862D1*
Y22847D1*
Y22832D1*
Y22817D1*
Y22802D1*
Y22787D1*
Y22772D1*
X18371Y22757D1*
X18370Y22742D1*
X18366Y22727D1*
X18361Y22712D1*
X18356Y22697D1*
X18349Y22682D1*
X18337Y22667D1*
X18322Y22652D1*
X18286Y22637D1*
X18230Y22622D1*
X18162Y22607D1*
X18477Y23447D2*
Y23432D1*
Y23417D1*
Y23402D1*
Y23387D1*
Y23372D1*
Y23357D1*
Y23342D1*
Y23327D1*
Y23312D1*
Y23297D1*
Y23282D1*
Y23267D1*
Y23252D1*
Y23237D1*
Y23222D1*
Y23207D1*
Y23192D1*
Y23177D1*
Y23162D1*
Y23147D1*
Y23132D1*
Y23117D1*
Y23102D1*
Y23087D1*
Y23072D1*
Y23057D1*
Y23042D1*
Y23027D1*
Y23012D1*
Y22997D1*
Y22982D1*
Y22967D1*
Y22952D1*
Y22937D1*
Y22922D1*
Y22907D1*
Y22892D1*
Y22877D1*
Y22862D1*
Y22847D1*
Y22832D1*
Y22817D1*
Y22802D1*
Y22787D1*
Y22772D1*
Y22757D1*
X18476Y22742D1*
X18475Y22727D1*
X18471Y22712D1*
X18466Y22697D1*
X18462Y22682D1*
X18457Y22667D1*
X18452Y22652D1*
X18446Y22637D1*
X18439Y22622D1*
X18428Y22607D1*
X18415Y22592D1*
X18401Y22577D1*
X18383Y22562D1*
X18360Y22547D1*
X18330Y22532D1*
X18297Y22517D1*
X18687Y23447D2*
Y23432D1*
Y23417D1*
Y23402D1*
Y23387D1*
Y23372D1*
Y23357D1*
Y23342D1*
Y23327D1*
X18792Y23447D2*
Y23432D1*
Y23417D1*
Y23402D1*
Y23387D1*
Y23372D1*
Y23357D1*
Y23342D1*
Y23327D1*
X12012Y23432D2*
X11990Y23417D1*
X11966Y23402D1*
X11945Y23387D1*
X11929Y23372D1*
X11916Y23357D1*
X11911Y23342D1*
X11909Y23327D1*
X11908Y23312D1*
X11907Y23297D1*
Y23282D1*
Y23267D1*
Y23252D1*
Y23237D1*
Y23222D1*
Y23207D1*
Y23192D1*
X11832D1*
Y23177D1*
Y23162D1*
Y23147D1*
Y23132D1*
Y23117D1*
Y23102D1*
X11907D1*
Y23087D1*
Y23072D1*
Y23057D1*
Y23042D1*
Y23027D1*
Y23012D1*
Y22997D1*
Y22982D1*
Y22967D1*
Y22952D1*
Y22937D1*
Y22922D1*
Y22907D1*
Y22892D1*
Y22877D1*
Y22862D1*
Y22847D1*
Y22832D1*
Y22817D1*
Y22802D1*
Y22787D1*
Y22772D1*
Y22757D1*
Y22742D1*
Y22727D1*
Y22712D1*
Y22697D1*
Y22682D1*
Y22667D1*
Y22652D1*
X11908Y22637D1*
X11910Y22622D1*
X11914Y22607D1*
X11920Y22592D1*
X11929Y22577D1*
X11941Y22562D1*
X11956Y22547D1*
X11976Y22532D1*
X11997Y22517D1*
X9102Y23417D2*
X9075Y23402D1*
X9052Y23387D1*
X9034Y23372D1*
X9021Y23357D1*
X9016Y23342D1*
X9014Y23327D1*
X9013Y23312D1*
X9012Y23297D1*
Y23282D1*
Y23267D1*
Y23252D1*
Y23237D1*
Y23222D1*
Y23207D1*
Y23192D1*
X8937D1*
Y23177D1*
Y23162D1*
Y23147D1*
Y23132D1*
Y23117D1*
Y23102D1*
X9012D1*
Y23087D1*
Y23072D1*
Y23057D1*
Y23042D1*
Y23027D1*
Y23012D1*
Y22997D1*
Y22982D1*
Y22967D1*
Y22952D1*
Y22937D1*
Y22922D1*
Y22907D1*
Y22892D1*
Y22877D1*
Y22862D1*
Y22847D1*
Y22832D1*
Y22817D1*
Y22802D1*
Y22787D1*
Y22772D1*
Y22757D1*
Y22742D1*
Y22727D1*
Y22712D1*
Y22697D1*
Y22682D1*
Y22667D1*
Y22652D1*
X9013Y22637D1*
X9015Y22622D1*
X9019Y22607D1*
X9025Y22592D1*
X9034Y22577D1*
X9046Y22562D1*
X9061Y22547D1*
X9081Y22532D1*
X9102Y22517D1*
X9117Y23417D2*
Y23402D1*
Y23387D1*
Y23372D1*
Y23357D1*
Y23342D1*
Y23327D1*
Y23312D1*
Y23297D1*
Y23282D1*
Y23267D1*
Y23252D1*
Y23237D1*
Y23222D1*
Y23207D1*
Y23192D1*
X9237D1*
Y23177D1*
Y23162D1*
Y23147D1*
Y23132D1*
Y23117D1*
Y23102D1*
X9117D1*
Y23087D1*
Y23072D1*
Y23057D1*
Y23042D1*
Y23027D1*
Y23012D1*
Y22997D1*
Y22982D1*
Y22967D1*
Y22952D1*
Y22937D1*
Y22922D1*
Y22907D1*
Y22892D1*
Y22877D1*
Y22862D1*
Y22847D1*
Y22832D1*
Y22817D1*
Y22802D1*
Y22787D1*
Y22772D1*
Y22757D1*
Y22742D1*
Y22727D1*
Y22712D1*
Y22697D1*
X9118Y22682D1*
X9119Y22667D1*
X9126Y22652D1*
X9147Y22637D1*
X9176Y22622D1*
X9206Y22607D1*
X9230Y22592D1*
X9242Y22577D1*
X9247Y22562D1*
X9250Y22547D1*
X9251Y22532D1*
X9252Y22517D1*
X12012Y23417D2*
Y23402D1*
Y23387D1*
Y23372D1*
Y23357D1*
Y23342D1*
Y23327D1*
Y23312D1*
Y23297D1*
Y23282D1*
Y23267D1*
Y23252D1*
Y23237D1*
Y23222D1*
Y23207D1*
Y23192D1*
X12132D1*
Y23177D1*
Y23162D1*
Y23147D1*
Y23132D1*
Y23117D1*
Y23102D1*
X12012D1*
Y23087D1*
Y23072D1*
Y23057D1*
Y23042D1*
Y23027D1*
Y23012D1*
Y22997D1*
Y22982D1*
Y22967D1*
Y22952D1*
Y22937D1*
Y22922D1*
Y22907D1*
Y22892D1*
Y22877D1*
Y22862D1*
Y22847D1*
Y22832D1*
Y22817D1*
Y22802D1*
Y22787D1*
Y22772D1*
Y22757D1*
Y22742D1*
Y22727D1*
Y22712D1*
Y22697D1*
X12013Y22682D1*
X12014Y22667D1*
X12021Y22652D1*
X12042Y22637D1*
X12071Y22622D1*
X12101Y22607D1*
X12125Y22592D1*
X12137Y22577D1*
X12142Y22562D1*
X12145Y22547D1*
X12146Y22532D1*
X12147Y22517D1*
X9987Y23357D2*
Y23342D1*
Y23327D1*
Y23312D1*
Y23297D1*
Y23282D1*
Y23267D1*
Y23252D1*
Y23237D1*
Y23222D1*
Y23207D1*
Y23192D1*
Y23177D1*
Y23162D1*
Y23147D1*
Y23132D1*
Y23117D1*
Y23102D1*
Y23087D1*
Y23072D1*
Y23057D1*
Y23042D1*
Y23027D1*
Y23012D1*
Y22997D1*
Y22982D1*
Y22967D1*
Y22952D1*
Y22937D1*
Y22922D1*
Y22907D1*
Y22892D1*
Y22877D1*
Y22862D1*
Y22847D1*
Y22832D1*
Y22817D1*
Y22802D1*
Y22787D1*
Y22772D1*
Y22757D1*
Y22742D1*
Y22727D1*
Y22712D1*
Y22697D1*
Y22682D1*
Y22667D1*
Y22652D1*
Y22637D1*
Y22622D1*
Y22607D1*
Y22592D1*
Y22577D1*
Y22562D1*
Y22547D1*
Y22532D1*
X10092Y23357D2*
Y23342D1*
Y23327D1*
Y23312D1*
Y23297D1*
Y23282D1*
Y23267D1*
Y23252D1*
Y23237D1*
Y23222D1*
Y23207D1*
Y23192D1*
Y23177D1*
Y23162D1*
Y23147D1*
Y23132D1*
Y23117D1*
Y23102D1*
Y23087D1*
Y23072D1*
Y23057D1*
Y23042D1*
Y23027D1*
Y23012D1*
Y22997D1*
Y22982D1*
Y22967D1*
Y22952D1*
Y22937D1*
Y22922D1*
Y22907D1*
Y22892D1*
Y22877D1*
Y22862D1*
Y22847D1*
Y22832D1*
Y22817D1*
Y22802D1*
Y22787D1*
Y22772D1*
Y22757D1*
Y22742D1*
Y22727D1*
Y22712D1*
Y22697D1*
Y22682D1*
Y22667D1*
Y22652D1*
Y22637D1*
Y22622D1*
Y22607D1*
Y22592D1*
Y22577D1*
Y22562D1*
Y22547D1*
Y22532D1*
X12747Y23357D2*
Y23342D1*
Y23327D1*
Y23312D1*
Y23297D1*
Y23282D1*
Y23267D1*
Y23252D1*
Y23237D1*
Y23222D1*
Y23207D1*
Y23192D1*
Y23177D1*
Y23162D1*
Y23147D1*
Y23132D1*
Y23117D1*
Y23102D1*
Y23087D1*
Y23072D1*
Y23057D1*
Y23042D1*
Y23027D1*
Y23012D1*
Y22997D1*
X13062Y23357D2*
X13101Y23342D1*
X13134Y23327D1*
X13159Y23312D1*
X13178Y23297D1*
X13193Y23282D1*
X13203Y23267D1*
X13210Y23252D1*
X13216Y23237D1*
X13221Y23222D1*
X13224Y23207D1*
X13226Y23192D1*
X13227Y23177D1*
X13226Y23162D1*
X13224Y23147D1*
X13220Y23132D1*
X13215Y23117D1*
X13208Y23102D1*
X13200Y23087D1*
X13190Y23072D1*
X13175Y23057D1*
X13150Y23042D1*
X13114Y23027D1*
X13068Y23012D1*
X13017Y22997D1*
X4632Y23297D2*
Y23282D1*
Y23267D1*
Y23252D1*
Y23237D1*
Y23222D1*
Y23207D1*
Y23192D1*
Y23177D1*
Y23162D1*
Y23147D1*
Y23132D1*
Y23117D1*
Y23102D1*
Y23087D1*
Y23072D1*
Y23057D1*
Y23042D1*
Y23027D1*
Y23012D1*
Y22997D1*
Y22982D1*
Y22967D1*
Y22952D1*
Y22937D1*
Y22922D1*
Y22907D1*
Y22892D1*
Y22877D1*
Y22862D1*
Y22847D1*
Y22832D1*
Y22817D1*
Y22802D1*
Y22787D1*
Y22772D1*
Y22757D1*
Y22742D1*
Y22727D1*
Y22712D1*
Y22697D1*
Y22682D1*
Y22667D1*
Y22652D1*
Y22637D1*
Y22622D1*
Y22607D1*
Y22592D1*
Y22577D1*
Y22562D1*
Y22547D1*
Y22532D1*
X4662Y23297D2*
X4663Y23282D1*
X4665Y23267D1*
X4668Y23252D1*
X4673Y23237D1*
X4677Y23222D1*
X4682Y23207D1*
X4687Y23192D1*
X4692Y23177D1*
X4697Y23162D1*
X4702Y23147D1*
X4707Y23132D1*
X4712Y23117D1*
X4717Y23102D1*
X4722Y23087D1*
X4727Y23072D1*
X4732Y23057D1*
X4737Y23042D1*
X4742Y23027D1*
X4747Y23012D1*
X4752Y22997D1*
X4757Y22982D1*
X4762Y22967D1*
X4767Y22952D1*
X4772Y22937D1*
X4777Y22922D1*
X4782Y22907D1*
X4787Y22892D1*
X4792Y22877D1*
X4797Y22862D1*
X4802Y22847D1*
X4807Y22832D1*
X4812Y22817D1*
X4817Y22802D1*
X4822Y22787D1*
X4827Y22772D1*
X4832Y22757D1*
X4837Y22742D1*
X4842Y22727D1*
X4847Y22712D1*
X4852Y22697D1*
X4857Y22682D1*
X4862Y22667D1*
X4867Y22652D1*
X4872Y22637D1*
X4877Y22622D1*
X4882Y22607D1*
X4887Y22592D1*
X4892Y22577D1*
X4897Y22562D1*
X4900Y22547D1*
X4902Y22532D1*
X5262Y23282D2*
X5261Y23267D1*
X5260Y23252D1*
X5256Y23237D1*
X5251Y23222D1*
X5247Y23207D1*
X5242Y23192D1*
X5237Y23177D1*
X5232Y23162D1*
X5227Y23147D1*
X5222Y23132D1*
X5217Y23117D1*
X5212Y23102D1*
X5207Y23087D1*
X5202Y23072D1*
X5197Y23057D1*
X5192Y23042D1*
X5187Y23027D1*
X5181Y23012D1*
X5175Y22997D1*
X5168Y22982D1*
X5163Y22967D1*
X5157Y22952D1*
X5152Y22937D1*
X5147Y22922D1*
X5142Y22907D1*
X5137Y22892D1*
X5132Y22877D1*
X5127Y22862D1*
X5122Y22847D1*
X5117Y22832D1*
X5112Y22817D1*
X5107Y22802D1*
X5102Y22787D1*
X5097Y22772D1*
X5092Y22757D1*
X5087Y22742D1*
X5082Y22727D1*
X5077Y22712D1*
X5072Y22697D1*
X5067Y22682D1*
X5062Y22667D1*
X5057Y22652D1*
X5052Y22637D1*
X5046Y22622D1*
X5040Y22607D1*
X5033Y22592D1*
X5028Y22577D1*
X5022Y22562D1*
X5015Y22547D1*
X5007Y22532D1*
X5292Y23282D2*
Y23267D1*
Y23252D1*
Y23237D1*
Y23222D1*
Y23207D1*
Y23192D1*
Y23177D1*
Y23162D1*
Y23147D1*
Y23132D1*
Y23117D1*
Y23102D1*
Y23087D1*
Y23072D1*
Y23057D1*
Y23042D1*
Y23027D1*
Y23012D1*
Y22997D1*
Y22982D1*
Y22967D1*
Y22952D1*
Y22937D1*
Y22922D1*
Y22907D1*
Y22892D1*
Y22877D1*
Y22862D1*
Y22847D1*
Y22832D1*
Y22817D1*
Y22802D1*
Y22787D1*
Y22772D1*
Y22757D1*
Y22742D1*
Y22727D1*
Y22712D1*
Y22697D1*
Y22682D1*
Y22667D1*
Y22652D1*
Y22637D1*
Y22622D1*
Y22607D1*
Y22592D1*
Y22577D1*
Y22562D1*
Y22547D1*
Y22532D1*
X6147Y23207D2*
X6118Y23192D1*
X6090Y23177D1*
X6066Y23162D1*
X6043Y23147D1*
X6021Y23132D1*
X5997Y23117D1*
X6282Y23207D2*
X6316Y23192D1*
X6344Y23177D1*
X6366Y23162D1*
X6384Y23147D1*
X6399Y23132D1*
X6410Y23117D1*
X6419Y23102D1*
X6426Y23087D1*
X6431Y23072D1*
X6437Y23057D1*
X6441Y23042D1*
X6444Y23027D1*
X6446Y23012D1*
X6447Y22997D1*
Y22982D1*
Y22967D1*
Y22952D1*
Y22937D1*
Y22922D1*
Y22907D1*
Y22892D1*
Y22877D1*
Y22862D1*
Y22847D1*
Y22832D1*
Y22817D1*
Y22802D1*
Y22787D1*
Y22772D1*
Y22757D1*
Y22742D1*
Y22727D1*
Y22712D1*
Y22697D1*
Y22682D1*
Y22667D1*
Y22652D1*
Y22637D1*
Y22622D1*
Y22607D1*
Y22592D1*
Y22577D1*
Y22562D1*
Y22547D1*
Y22532D1*
X7077Y23207D2*
X7043Y23192D1*
X7013Y23177D1*
X6989Y23162D1*
X6971Y23147D1*
X6956Y23132D1*
X6943Y23117D1*
X6933Y23102D1*
X6925Y23087D1*
X6919Y23072D1*
X6915Y23057D1*
X6913Y23042D1*
Y23027D1*
X6912Y23012D1*
X6913Y22997D1*
X6915Y22982D1*
X6919Y22967D1*
X6925Y22952D1*
X6934Y22937D1*
X6945Y22922D1*
X6959Y22907D1*
X6976Y22892D1*
X6998Y22877D1*
X7027Y22862D1*
X7065Y22847D1*
X7109Y22832D1*
X7158Y22817D1*
X7205Y22802D1*
X7248Y22787D1*
X7282Y22772D1*
X7308Y22757D1*
X7322Y22742D1*
X7327Y22727D1*
X7329Y22712D1*
Y22697D1*
X7325Y22682D1*
X7318Y22667D1*
X7309Y22652D1*
X7282Y22637D1*
X7237Y22622D1*
X7170Y22607D1*
X7092Y22592D1*
X7242Y23207D2*
X7278Y23192D1*
X7310Y23177D1*
X7336Y23162D1*
X7355Y23147D1*
X7368Y23132D1*
X7379Y23117D1*
X7387Y23102D1*
X7395Y23087D1*
X7401Y23072D1*
X7404Y23057D1*
X7406Y23042D1*
X7407Y23027D1*
X7332Y23012D1*
X7842Y23207D2*
X7806Y23192D1*
X7773Y23177D1*
X7745Y23162D1*
X7718Y23147D1*
X7692Y23132D1*
X7962Y23207D2*
X7996Y23192D1*
X8024Y23177D1*
X8046Y23162D1*
X8064Y23147D1*
X8079Y23132D1*
X8090Y23117D1*
X8099Y23102D1*
X8106Y23087D1*
X8111Y23072D1*
X8117Y23057D1*
X8121Y23042D1*
X8124Y23027D1*
X8126Y23012D1*
X8127Y22997D1*
Y22982D1*
Y22967D1*
Y22952D1*
Y22937D1*
Y22922D1*
Y22907D1*
Y22892D1*
Y22877D1*
Y22862D1*
Y22847D1*
Y22832D1*
Y22817D1*
Y22802D1*
Y22787D1*
Y22772D1*
Y22757D1*
Y22742D1*
Y22727D1*
Y22712D1*
Y22697D1*
Y22682D1*
Y22667D1*
Y22652D1*
Y22637D1*
Y22622D1*
Y22607D1*
Y22592D1*
Y22577D1*
Y22562D1*
Y22547D1*
Y22532D1*
X10722Y23207D2*
X10683Y23192D1*
X10650Y23177D1*
X10625Y23162D1*
X10605Y23147D1*
X10588Y23132D1*
X10573Y23117D1*
X10558Y23102D1*
X10545Y23087D1*
X10534Y23072D1*
X10525Y23057D1*
X10516Y23042D1*
X10509Y23027D1*
X10503Y23012D1*
X10499Y22997D1*
X10496Y22982D1*
X10491Y22967D1*
X10487Y22952D1*
X10485Y22937D1*
X10483Y22922D1*
X10482Y22907D1*
Y22892D1*
Y22877D1*
Y22862D1*
Y22847D1*
Y22832D1*
Y22817D1*
X10483Y22802D1*
X10485Y22787D1*
X10488Y22772D1*
X10492Y22757D1*
X10495Y22742D1*
X10499Y22727D1*
X10503Y22712D1*
X10509Y22697D1*
X10516Y22682D1*
X10523Y22667D1*
X10531Y22652D1*
X10539Y22637D1*
X10548Y22622D1*
X10561Y22607D1*
X10576Y22592D1*
X10594Y22577D1*
X10617Y22562D1*
X10645Y22547D1*
X10681Y22532D1*
X10722Y22517D1*
X10857Y23207D2*
X10893Y23192D1*
X10925Y23177D1*
X10951Y23162D1*
X10972Y23147D1*
X10990Y23132D1*
X11006Y23117D1*
X11019Y23102D1*
X11030Y23087D1*
X11039Y23072D1*
X11048Y23057D1*
X11055Y23042D1*
X11061Y23027D1*
X11067Y23012D1*
X11072Y22997D1*
X11076Y22982D1*
X11079Y22967D1*
X11081Y22952D1*
X11084Y22937D1*
X11088Y22922D1*
X11092Y22907D1*
X11095Y22892D1*
X11096Y22877D1*
X11097Y22862D1*
Y22847D1*
X11382Y23207D2*
X11348Y23192D1*
X11318Y23177D1*
X11294Y23162D1*
X11276Y23147D1*
X11261Y23132D1*
X11248Y23117D1*
X11238Y23102D1*
X11230Y23087D1*
X11224Y23072D1*
X11220Y23057D1*
X11218Y23042D1*
Y23027D1*
X11217Y23012D1*
X11218Y22997D1*
X11220Y22982D1*
X11224Y22967D1*
X11230Y22952D1*
X11239Y22937D1*
X11250Y22922D1*
X11264Y22907D1*
X11281Y22892D1*
X11303Y22877D1*
X11332Y22862D1*
X11370Y22847D1*
X11414Y22832D1*
X11463Y22817D1*
X11510Y22802D1*
X11553Y22787D1*
X11587Y22772D1*
X11613Y22757D1*
X11627Y22742D1*
X11632Y22727D1*
X11634Y22712D1*
Y22697D1*
X11630Y22682D1*
X11623Y22667D1*
X11614Y22652D1*
X11587Y22637D1*
X11542Y22622D1*
X11475Y22607D1*
X11397Y22592D1*
X11547Y23207D2*
X11583Y23192D1*
X11615Y23177D1*
X11641Y23162D1*
X11660Y23147D1*
X11673Y23132D1*
X11684Y23117D1*
X11692Y23102D1*
X11700Y23087D1*
X11706Y23072D1*
X11709Y23057D1*
X11711Y23042D1*
X11712Y23027D1*
X11637Y23012D1*
X13722Y23207D2*
X13700Y23192D1*
X13681Y23177D1*
X13664Y23162D1*
X13650Y23147D1*
X13638Y23132D1*
X13628Y23117D1*
X13617Y23102D1*
X13812Y23207D2*
X13842Y23192D1*
X13872Y23177D1*
X13865Y23162D1*
X13858Y23147D1*
X13853Y23132D1*
X13848Y23117D1*
X13844Y23102D1*
X13842Y23087D1*
X14157Y23207D2*
X14116Y23192D1*
X14081Y23177D1*
X14053Y23162D1*
X14030Y23147D1*
X14011Y23132D1*
X13996Y23117D1*
X13984Y23102D1*
X13975Y23087D1*
X13966Y23072D1*
X13958Y23057D1*
X13951Y23042D1*
X13944Y23027D1*
X13938Y23012D1*
X13934Y22997D1*
X13931Y22982D1*
X13926Y22967D1*
X13922Y22952D1*
X13920Y22937D1*
X13918Y22922D1*
X13917Y22907D1*
Y22892D1*
Y22877D1*
Y22862D1*
Y22847D1*
Y22832D1*
Y22817D1*
X13918Y22802D1*
X13920Y22787D1*
X13923Y22772D1*
X13927Y22757D1*
X13930Y22742D1*
X13934Y22727D1*
X13938Y22712D1*
X13944Y22697D1*
X13951Y22682D1*
X13958Y22667D1*
X13966Y22652D1*
X13974Y22637D1*
X13983Y22622D1*
X13996Y22607D1*
X14011Y22592D1*
X14029Y22577D1*
X14051Y22562D1*
X14077Y22547D1*
X14108Y22532D1*
X14142Y22517D1*
X14292Y23207D2*
X14333Y23192D1*
X14368Y23177D1*
X14396Y23162D1*
X14418Y23147D1*
X14436Y23132D1*
X14449Y23117D1*
X14461Y23102D1*
X14472Y23087D1*
X14481Y23072D1*
X14490Y23057D1*
X14498Y23042D1*
X14505Y23027D1*
X14511Y23012D1*
X14515Y22997D1*
X14518Y22982D1*
X14523Y22967D1*
X14527Y22952D1*
X14529Y22937D1*
X14531Y22922D1*
X14532Y22907D1*
Y22892D1*
Y22877D1*
Y22862D1*
Y22847D1*
Y22832D1*
Y22817D1*
X14531Y22802D1*
X14530Y22787D1*
X14526Y22772D1*
X14522Y22757D1*
X14519Y22742D1*
X14516Y22727D1*
X14511Y22712D1*
X14507Y22697D1*
X14501Y22682D1*
X14494Y22667D1*
X14486Y22652D1*
X14477Y22637D1*
X14466Y22622D1*
X14454Y22607D1*
X14438Y22592D1*
X14419Y22577D1*
X14396Y22562D1*
X14366Y22547D1*
X14330Y22532D1*
X14292Y22517D1*
X14847Y23207D2*
X14813Y23192D1*
X14785Y23177D1*
X14763Y23162D1*
X14744Y23147D1*
X14728Y23132D1*
X14715Y23117D1*
X14704Y23102D1*
X14695Y23087D1*
X14686Y23072D1*
X14678Y23057D1*
X14671Y23042D1*
X14664Y23027D1*
X14658Y23012D1*
X14654Y22997D1*
X14651Y22982D1*
X14646Y22967D1*
X14642Y22952D1*
X14640Y22937D1*
X14638Y22922D1*
X14637Y22907D1*
Y22892D1*
Y22877D1*
Y22862D1*
Y22847D1*
Y22832D1*
X14638Y22817D1*
X14640Y22802D1*
X14643Y22787D1*
X14647Y22772D1*
X14650Y22757D1*
X14654Y22742D1*
X14658Y22727D1*
X14664Y22712D1*
X14671Y22697D1*
X14678Y22682D1*
X14686Y22667D1*
X14694Y22652D1*
X14703Y22637D1*
X14715Y22622D1*
X14729Y22607D1*
X14746Y22592D1*
X14767Y22577D1*
X14794Y22562D1*
X14827Y22547D1*
X14862Y22532D1*
X14997Y23207D2*
X15028Y23192D1*
X15056Y23177D1*
X15082Y23162D1*
X15107Y23147D1*
X15132Y23132D1*
X15627Y23207D2*
X15605Y23192D1*
X15586Y23177D1*
X15569Y23162D1*
X15555Y23147D1*
X15543Y23132D1*
X15533Y23117D1*
X15522Y23102D1*
X15717Y23207D2*
X15747Y23192D1*
X15777Y23177D1*
X15770Y23162D1*
X15763Y23147D1*
X15758Y23132D1*
X15753Y23117D1*
X15749Y23102D1*
X15747Y23087D1*
X16047Y23207D2*
X16004Y23192D1*
X15968Y23177D1*
X15939Y23162D1*
X15918Y23147D1*
X15902Y23132D1*
X15890Y23117D1*
X15880Y23102D1*
X15871Y23087D1*
X15863Y23072D1*
X15856Y23057D1*
X15849Y23042D1*
X15842Y23027D1*
X15837Y23012D1*
X15912Y22997D1*
X16227Y23207D2*
X16268Y23192D1*
X16300Y23177D1*
X16324Y23162D1*
X16341Y23147D1*
X16354Y23132D1*
X16364Y23117D1*
X16373Y23102D1*
X16380Y23087D1*
X16386Y23072D1*
X16389Y23057D1*
X16391Y23042D1*
X16392Y23027D1*
Y23012D1*
Y22997D1*
Y22982D1*
Y22967D1*
Y22952D1*
Y22937D1*
Y22922D1*
Y22907D1*
Y22892D1*
Y22877D1*
Y22862D1*
Y22847D1*
Y22832D1*
Y22817D1*
Y22802D1*
Y22787D1*
Y22772D1*
Y22757D1*
Y22742D1*
Y22727D1*
Y22712D1*
Y22697D1*
Y22682D1*
Y22667D1*
X16393Y22652D1*
X16395Y22637D1*
X16398Y22622D1*
X16402Y22607D1*
X16405Y22592D1*
X16408Y22577D1*
X16413Y22562D1*
X16418Y22547D1*
X16422Y22532D1*
X16827Y23207D2*
X16796Y23192D1*
X16768Y23177D1*
X16745Y23162D1*
X16723Y23147D1*
X16700Y23132D1*
X16677Y23117D1*
X16962Y23207D2*
X16989Y23192D1*
X17013Y23177D1*
X17032Y23162D1*
X17048Y23147D1*
X17060Y23132D1*
X17071Y23117D1*
X17082Y23102D1*
X17232Y23207D2*
X17201Y23192D1*
X17174Y23177D1*
X17150Y23162D1*
X17130Y23147D1*
X17111Y23132D1*
X17089Y23117D1*
X17067Y23102D1*
X17352Y23207D2*
X17381Y23192D1*
X17404Y23177D1*
X17423Y23162D1*
X17438Y23147D1*
X17450Y23132D1*
X17459Y23117D1*
X17468Y23102D1*
X17475Y23087D1*
X17481Y23072D1*
X17484Y23057D1*
X17486Y23042D1*
X17487Y23027D1*
Y23012D1*
Y22997D1*
Y22982D1*
Y22967D1*
Y22952D1*
Y22937D1*
Y22922D1*
Y22907D1*
Y22892D1*
Y22877D1*
Y22862D1*
Y22847D1*
Y22832D1*
Y22817D1*
Y22802D1*
Y22787D1*
Y22772D1*
Y22757D1*
Y22742D1*
Y22727D1*
Y22712D1*
Y22697D1*
Y22682D1*
Y22667D1*
Y22652D1*
Y22637D1*
Y22622D1*
Y22607D1*
Y22592D1*
Y22577D1*
Y22562D1*
Y22547D1*
Y22532D1*
X19152Y23207D2*
X19118Y23192D1*
X19090Y23177D1*
X19068Y23162D1*
X19049Y23147D1*
X19033Y23132D1*
X19020Y23117D1*
X19009Y23102D1*
X19000Y23087D1*
X18991Y23072D1*
X18983Y23057D1*
X18976Y23042D1*
X18969Y23027D1*
X18963Y23012D1*
X18959Y22997D1*
X18956Y22982D1*
X18951Y22967D1*
X18947Y22952D1*
X18945Y22937D1*
X18943Y22922D1*
X18942Y22907D1*
Y22892D1*
Y22877D1*
Y22862D1*
Y22847D1*
Y22832D1*
X18943Y22817D1*
X18945Y22802D1*
X18948Y22787D1*
X18952Y22772D1*
X18955Y22757D1*
X18959Y22742D1*
X18963Y22727D1*
X18969Y22712D1*
X18976Y22697D1*
X18983Y22682D1*
X18991Y22667D1*
X18999Y22652D1*
X19008Y22637D1*
X19020Y22622D1*
X19034Y22607D1*
X19051Y22592D1*
X19072Y22577D1*
X19099Y22562D1*
X19132Y22547D1*
X19167Y22532D1*
X19302Y23207D2*
X19333Y23192D1*
X19361Y23177D1*
X19387Y23162D1*
X19412Y23147D1*
X19437Y23132D1*
X5607Y23192D2*
Y23177D1*
Y23162D1*
Y23147D1*
Y23132D1*
Y23117D1*
Y23102D1*
Y23087D1*
Y23072D1*
Y23057D1*
Y23042D1*
Y23027D1*
Y23012D1*
Y22997D1*
Y22982D1*
Y22967D1*
Y22952D1*
Y22937D1*
Y22922D1*
Y22907D1*
Y22892D1*
Y22877D1*
Y22862D1*
Y22847D1*
Y22832D1*
Y22817D1*
Y22802D1*
Y22787D1*
Y22772D1*
Y22757D1*
Y22742D1*
Y22727D1*
Y22712D1*
Y22697D1*
Y22682D1*
Y22667D1*
Y22652D1*
Y22637D1*
Y22622D1*
Y22607D1*
Y22592D1*
Y22577D1*
Y22562D1*
Y22547D1*
Y22532D1*
X5712Y23192D2*
Y23177D1*
Y23162D1*
Y23147D1*
Y23132D1*
Y23117D1*
Y23102D1*
Y23087D1*
Y23072D1*
Y23057D1*
Y23042D1*
Y23027D1*
Y23012D1*
Y22997D1*
Y22982D1*
Y22967D1*
Y22952D1*
Y22937D1*
Y22922D1*
Y22907D1*
Y22892D1*
Y22877D1*
Y22862D1*
Y22847D1*
Y22832D1*
Y22817D1*
Y22802D1*
Y22787D1*
Y22772D1*
Y22757D1*
Y22742D1*
Y22727D1*
Y22712D1*
Y22697D1*
Y22682D1*
Y22667D1*
Y22652D1*
Y22637D1*
Y22622D1*
Y22607D1*
Y22592D1*
Y22577D1*
Y22562D1*
Y22547D1*
Y22532D1*
X5907Y23192D2*
Y23177D1*
Y23162D1*
Y23147D1*
Y23132D1*
Y23117D1*
Y23102D1*
Y23087D1*
Y23072D1*
Y23057D1*
Y23042D1*
Y23027D1*
Y23012D1*
Y22997D1*
Y22982D1*
Y22967D1*
Y22952D1*
Y22937D1*
Y22922D1*
Y22907D1*
Y22892D1*
Y22877D1*
Y22862D1*
Y22847D1*
Y22832D1*
Y22817D1*
Y22802D1*
Y22787D1*
Y22772D1*
Y22757D1*
Y22742D1*
Y22727D1*
Y22712D1*
Y22697D1*
Y22682D1*
Y22667D1*
Y22652D1*
Y22637D1*
Y22622D1*
Y22607D1*
Y22592D1*
Y22577D1*
Y22562D1*
Y22547D1*
Y22532D1*
X5997Y23192D2*
Y23177D1*
X5998Y23162D1*
X6000Y23147D1*
X6005Y23132D1*
X6012Y23117D1*
X6642Y23192D2*
Y23177D1*
Y23162D1*
Y23147D1*
Y23132D1*
Y23117D1*
Y23102D1*
Y23087D1*
Y23072D1*
Y23057D1*
Y23042D1*
Y23027D1*
Y23012D1*
Y22997D1*
Y22982D1*
Y22967D1*
Y22952D1*
Y22937D1*
Y22922D1*
Y22907D1*
Y22892D1*
Y22877D1*
Y22862D1*
Y22847D1*
Y22832D1*
Y22817D1*
Y22802D1*
Y22787D1*
Y22772D1*
Y22757D1*
Y22742D1*
Y22727D1*
Y22712D1*
Y22697D1*
Y22682D1*
Y22667D1*
Y22652D1*
Y22637D1*
Y22622D1*
Y22607D1*
Y22592D1*
Y22577D1*
Y22562D1*
Y22547D1*
Y22532D1*
X6747Y23192D2*
Y23177D1*
Y23162D1*
Y23147D1*
Y23132D1*
Y23117D1*
Y23102D1*
Y23087D1*
Y23072D1*
Y23057D1*
Y23042D1*
Y23027D1*
Y23012D1*
Y22997D1*
Y22982D1*
Y22967D1*
Y22952D1*
Y22937D1*
Y22922D1*
Y22907D1*
Y22892D1*
Y22877D1*
Y22862D1*
Y22847D1*
Y22832D1*
Y22817D1*
Y22802D1*
Y22787D1*
Y22772D1*
Y22757D1*
Y22742D1*
Y22727D1*
Y22712D1*
Y22697D1*
Y22682D1*
Y22667D1*
Y22652D1*
Y22637D1*
Y22622D1*
Y22607D1*
Y22592D1*
Y22577D1*
Y22562D1*
Y22547D1*
Y22532D1*
X8322Y23192D2*
Y23177D1*
Y23162D1*
Y23147D1*
Y23132D1*
Y23117D1*
Y23102D1*
Y23087D1*
Y23072D1*
Y23057D1*
Y23042D1*
Y23027D1*
Y23012D1*
Y22997D1*
Y22982D1*
Y22967D1*
Y22952D1*
Y22937D1*
Y22922D1*
Y22907D1*
Y22892D1*
Y22877D1*
Y22862D1*
Y22847D1*
Y22832D1*
Y22817D1*
Y22802D1*
Y22787D1*
Y22772D1*
Y22757D1*
Y22742D1*
Y22727D1*
Y22712D1*
Y22697D1*
Y22682D1*
Y22667D1*
Y22652D1*
Y22637D1*
Y22622D1*
Y22607D1*
Y22592D1*
Y22577D1*
Y22562D1*
Y22547D1*
Y22532D1*
X8427Y23192D2*
Y23177D1*
Y23162D1*
Y23147D1*
Y23132D1*
Y23117D1*
Y23102D1*
Y23087D1*
Y23072D1*
Y23057D1*
Y23042D1*
Y23027D1*
Y23012D1*
Y22997D1*
Y22982D1*
Y22967D1*
Y22952D1*
Y22937D1*
Y22922D1*
Y22907D1*
Y22892D1*
Y22877D1*
Y22862D1*
Y22847D1*
Y22832D1*
Y22817D1*
Y22802D1*
Y22787D1*
Y22772D1*
Y22757D1*
Y22742D1*
Y22727D1*
Y22712D1*
Y22697D1*
Y22682D1*
Y22667D1*
Y22652D1*
Y22637D1*
Y22622D1*
Y22607D1*
Y22592D1*
Y22577D1*
Y22562D1*
Y22547D1*
Y22532D1*
X13512Y23192D2*
Y23177D1*
Y23162D1*
Y23147D1*
Y23132D1*
Y23117D1*
Y23102D1*
Y23087D1*
Y23072D1*
Y23057D1*
Y23042D1*
Y23027D1*
Y23012D1*
Y22997D1*
Y22982D1*
Y22967D1*
Y22952D1*
Y22937D1*
Y22922D1*
Y22907D1*
Y22892D1*
Y22877D1*
Y22862D1*
Y22847D1*
Y22832D1*
Y22817D1*
Y22802D1*
Y22787D1*
Y22772D1*
Y22757D1*
Y22742D1*
Y22727D1*
Y22712D1*
Y22697D1*
Y22682D1*
Y22667D1*
Y22652D1*
Y22637D1*
Y22622D1*
Y22607D1*
Y22592D1*
Y22577D1*
Y22562D1*
Y22547D1*
Y22532D1*
X13602Y23192D2*
Y23177D1*
Y23162D1*
X13603Y23147D1*
X13605Y23132D1*
X13610Y23117D1*
X13617Y23102D1*
X15132Y23192D2*
X15131Y23177D1*
X15129Y23162D1*
X15124Y23147D1*
X15117Y23132D1*
X15222Y23192D2*
Y23177D1*
Y23162D1*
Y23147D1*
Y23132D1*
Y23117D1*
Y23102D1*
Y23087D1*
Y23072D1*
Y23057D1*
Y23042D1*
Y23027D1*
Y23012D1*
Y22997D1*
Y22982D1*
Y22967D1*
Y22952D1*
Y22937D1*
Y22922D1*
Y22907D1*
Y22892D1*
Y22877D1*
Y22862D1*
Y22847D1*
Y22832D1*
Y22817D1*
Y22802D1*
Y22787D1*
Y22772D1*
Y22757D1*
Y22742D1*
Y22727D1*
Y22712D1*
Y22697D1*
Y22682D1*
Y22667D1*
Y22652D1*
Y22637D1*
Y22622D1*
Y22607D1*
Y22592D1*
Y22577D1*
Y22562D1*
Y22547D1*
Y22532D1*
X15221Y22517D1*
X15220Y22502D1*
X15216Y22487D1*
X15212Y22472D1*
X15209Y22457D1*
X15206Y22442D1*
X15201Y22427D1*
X15195Y22412D1*
X15188Y22397D1*
X15180Y22382D1*
X15171Y22367D1*
X15159Y22352D1*
X15145Y22337D1*
X15128Y22322D1*
X15107Y22307D1*
X15080Y22292D1*
X15047Y22277D1*
X15012Y22262D1*
X15417Y23192D2*
Y23177D1*
Y23162D1*
Y23147D1*
Y23132D1*
Y23117D1*
Y23102D1*
Y23087D1*
Y23072D1*
Y23057D1*
Y23042D1*
Y23027D1*
Y23012D1*
Y22997D1*
Y22982D1*
Y22967D1*
Y22952D1*
Y22937D1*
Y22922D1*
Y22907D1*
Y22892D1*
Y22877D1*
Y22862D1*
Y22847D1*
Y22832D1*
Y22817D1*
Y22802D1*
Y22787D1*
Y22772D1*
Y22757D1*
Y22742D1*
Y22727D1*
Y22712D1*
Y22697D1*
Y22682D1*
Y22667D1*
Y22652D1*
Y22637D1*
Y22622D1*
Y22607D1*
Y22592D1*
Y22577D1*
Y22562D1*
Y22547D1*
Y22532D1*
X15507Y23192D2*
Y23177D1*
Y23162D1*
X15508Y23147D1*
X15510Y23132D1*
X15515Y23117D1*
X15522Y23102D1*
X16587Y23192D2*
Y23177D1*
Y23162D1*
Y23147D1*
Y23132D1*
Y23117D1*
Y23102D1*
Y23087D1*
Y23072D1*
Y23057D1*
Y23042D1*
Y23027D1*
Y23012D1*
Y22997D1*
Y22982D1*
Y22967D1*
Y22952D1*
Y22937D1*
Y22922D1*
Y22907D1*
Y22892D1*
Y22877D1*
Y22862D1*
Y22847D1*
Y22832D1*
Y22817D1*
Y22802D1*
Y22787D1*
Y22772D1*
Y22757D1*
Y22742D1*
Y22727D1*
Y22712D1*
Y22697D1*
Y22682D1*
Y22667D1*
Y22652D1*
Y22637D1*
Y22622D1*
Y22607D1*
Y22592D1*
Y22577D1*
Y22562D1*
Y22547D1*
Y22532D1*
X16677Y23192D2*
Y23177D1*
X16678Y23162D1*
X16680Y23147D1*
X16685Y23132D1*
X16692Y23117D1*
X18687Y23192D2*
Y23177D1*
Y23162D1*
Y23147D1*
Y23132D1*
Y23117D1*
Y23102D1*
Y23087D1*
Y23072D1*
Y23057D1*
Y23042D1*
Y23027D1*
Y23012D1*
Y22997D1*
Y22982D1*
Y22967D1*
Y22952D1*
Y22937D1*
Y22922D1*
Y22907D1*
Y22892D1*
Y22877D1*
Y22862D1*
Y22847D1*
Y22832D1*
Y22817D1*
Y22802D1*
Y22787D1*
Y22772D1*
Y22757D1*
Y22742D1*
Y22727D1*
Y22712D1*
Y22697D1*
Y22682D1*
Y22667D1*
Y22652D1*
Y22637D1*
Y22622D1*
Y22607D1*
Y22592D1*
Y22577D1*
Y22562D1*
Y22547D1*
Y22532D1*
X18792Y23192D2*
Y23177D1*
Y23162D1*
Y23147D1*
Y23132D1*
Y23117D1*
Y23102D1*
Y23087D1*
Y23072D1*
Y23057D1*
Y23042D1*
Y23027D1*
Y23012D1*
Y22997D1*
Y22982D1*
Y22967D1*
Y22952D1*
Y22937D1*
Y22922D1*
Y22907D1*
Y22892D1*
Y22877D1*
Y22862D1*
Y22847D1*
Y22832D1*
Y22817D1*
Y22802D1*
Y22787D1*
Y22772D1*
Y22757D1*
Y22742D1*
Y22727D1*
Y22712D1*
Y22697D1*
Y22682D1*
Y22667D1*
Y22652D1*
Y22637D1*
Y22622D1*
Y22607D1*
Y22592D1*
Y22577D1*
Y22562D1*
Y22547D1*
Y22532D1*
X19437Y23192D2*
X19436Y23177D1*
X19434Y23162D1*
X19429Y23147D1*
X19422Y23132D1*
X19527Y23192D2*
Y23177D1*
Y23162D1*
Y23147D1*
Y23132D1*
Y23117D1*
Y23102D1*
Y23087D1*
Y23072D1*
Y23057D1*
Y23042D1*
Y23027D1*
Y23012D1*
Y22997D1*
Y22982D1*
Y22967D1*
Y22952D1*
Y22937D1*
Y22922D1*
Y22907D1*
Y22892D1*
Y22877D1*
Y22862D1*
Y22847D1*
Y22832D1*
Y22817D1*
Y22802D1*
Y22787D1*
Y22772D1*
Y22757D1*
Y22742D1*
Y22727D1*
Y22712D1*
Y22697D1*
Y22682D1*
Y22667D1*
Y22652D1*
Y22637D1*
Y22622D1*
Y22607D1*
Y22592D1*
Y22577D1*
Y22562D1*
Y22547D1*
Y22532D1*
X19526Y22517D1*
X19525Y22502D1*
X19521Y22487D1*
X19517Y22472D1*
X19514Y22457D1*
X19511Y22442D1*
X19506Y22427D1*
X19500Y22412D1*
X19493Y22397D1*
X19485Y22382D1*
X19476Y22367D1*
X19464Y22352D1*
X19450Y22337D1*
X19433Y22322D1*
X19412Y22307D1*
X19385Y22292D1*
X19352Y22277D1*
X19317Y22262D1*
X6207Y23132D2*
X6165Y23117D1*
X6127Y23102D1*
X6095Y23087D1*
X6071Y23072D1*
X6054Y23057D1*
X6042Y23042D1*
X6034Y23027D1*
X6028Y23012D1*
X6022Y22997D1*
X6018Y22982D1*
X6015Y22967D1*
X6013Y22952D1*
X6012Y22937D1*
Y22922D1*
Y22907D1*
Y22892D1*
Y22877D1*
Y22862D1*
Y22847D1*
Y22832D1*
Y22817D1*
Y22802D1*
Y22787D1*
Y22772D1*
Y22757D1*
Y22742D1*
Y22727D1*
Y22712D1*
Y22697D1*
Y22682D1*
Y22667D1*
Y22652D1*
Y22637D1*
Y22622D1*
Y22607D1*
Y22592D1*
Y22577D1*
Y22562D1*
Y22547D1*
Y22532D1*
X6177Y23132D2*
X6218Y23117D1*
X6255Y23102D1*
X6283Y23087D1*
X6303Y23072D1*
X6318Y23057D1*
X6325Y23042D1*
X6331Y23027D1*
X6336Y23012D1*
X6339Y22997D1*
X6341Y22982D1*
X6342Y22967D1*
Y22952D1*
Y22937D1*
Y22922D1*
Y22907D1*
Y22892D1*
Y22877D1*
Y22862D1*
Y22847D1*
Y22832D1*
Y22817D1*
Y22802D1*
Y22787D1*
Y22772D1*
Y22757D1*
Y22742D1*
Y22727D1*
Y22712D1*
Y22697D1*
Y22682D1*
Y22667D1*
Y22652D1*
Y22637D1*
Y22622D1*
Y22607D1*
Y22592D1*
Y22577D1*
Y22562D1*
Y22547D1*
Y22532D1*
X7182Y23132D2*
X7131Y23117D1*
X7090Y23102D1*
X7060Y23087D1*
X7038Y23072D1*
X7028Y23057D1*
X7021Y23042D1*
X7020Y23027D1*
X7027Y23012D1*
X7038Y22997D1*
X7056Y22982D1*
X7084Y22967D1*
X7122Y22952D1*
X7168Y22937D1*
X7216Y22922D1*
X7263Y22907D1*
X7304Y22892D1*
X7338Y22877D1*
X7365Y22862D1*
X7384Y22847D1*
X7398Y22832D1*
X7409Y22817D1*
X7417Y22802D1*
X7425Y22787D1*
X7431Y22772D1*
X7434Y22757D1*
X7436Y22742D1*
X7437Y22727D1*
Y22712D1*
X7436Y22697D1*
X7434Y22682D1*
X7430Y22667D1*
X7424Y22652D1*
X7416Y22637D1*
X7406Y22622D1*
X7396Y22607D1*
X7384Y22592D1*
X7368Y22577D1*
X7347Y22562D1*
X7322Y22547D1*
X7291Y22532D1*
X7257Y22517D1*
X7137Y23132D2*
X7188Y23117D1*
X7229Y23102D1*
X7259Y23087D1*
X7281Y23072D1*
X7292Y23057D1*
X7300Y23042D1*
X7308Y23027D1*
X7317Y23012D1*
X7887Y23132D2*
X7846Y23117D1*
X7809Y23102D1*
X7780Y23087D1*
X7758Y23072D1*
X7740Y23057D1*
X7726Y23042D1*
X7716Y23027D1*
X7709Y23012D1*
X7703Y22997D1*
X7698Y22982D1*
X7695Y22967D1*
X7693Y22952D1*
X7692Y22937D1*
Y22922D1*
Y22907D1*
Y22892D1*
Y22877D1*
Y22862D1*
Y22847D1*
Y22832D1*
Y22817D1*
Y22802D1*
Y22787D1*
Y22772D1*
Y22757D1*
Y22742D1*
Y22727D1*
Y22712D1*
Y22697D1*
Y22682D1*
Y22667D1*
Y22652D1*
Y22637D1*
Y22622D1*
Y22607D1*
Y22592D1*
Y22577D1*
Y22562D1*
Y22547D1*
Y22532D1*
X7842Y23132D2*
X7893Y23117D1*
X7934Y23102D1*
X7964Y23087D1*
X7986Y23072D1*
X7997Y23057D1*
X8005Y23042D1*
X8011Y23027D1*
X8016Y23012D1*
X8019Y22997D1*
X8021Y22982D1*
X8022Y22967D1*
Y22952D1*
Y22937D1*
Y22922D1*
Y22907D1*
Y22892D1*
Y22877D1*
Y22862D1*
Y22847D1*
Y22832D1*
Y22817D1*
Y22802D1*
Y22787D1*
Y22772D1*
Y22757D1*
Y22742D1*
Y22727D1*
Y22712D1*
Y22697D1*
Y22682D1*
Y22667D1*
Y22652D1*
Y22637D1*
Y22622D1*
Y22607D1*
Y22592D1*
Y22577D1*
Y22562D1*
Y22547D1*
Y22532D1*
X10812Y23132D2*
X10760Y23117D1*
X10717Y23102D1*
X10684Y23087D1*
X10660Y23072D1*
X10643Y23057D1*
X10629Y23042D1*
X10618Y23027D1*
X10610Y23012D1*
X10605Y22997D1*
X10601Y22982D1*
X10597Y22967D1*
X10592Y22952D1*
X10589Y22937D1*
X10587Y22922D1*
X10782Y23132D2*
X10823Y23117D1*
X10860Y23102D1*
X10889Y23087D1*
X10911Y23072D1*
X10929Y23057D1*
X10943Y23042D1*
X10953Y23027D1*
X10960Y23012D1*
X10966Y22997D1*
X10971Y22982D1*
X10974Y22967D1*
X10976Y22952D1*
X10977Y22937D1*
Y22922D1*
X11487Y23132D2*
X11436Y23117D1*
X11395Y23102D1*
X11365Y23087D1*
X11343Y23072D1*
X11333Y23057D1*
X11326Y23042D1*
X11325Y23027D1*
X11332Y23012D1*
X11343Y22997D1*
X11361Y22982D1*
X11389Y22967D1*
X11427Y22952D1*
X11473Y22937D1*
X11521Y22922D1*
X11568Y22907D1*
X11609Y22892D1*
X11643Y22877D1*
X11670Y22862D1*
X11689Y22847D1*
X11703Y22832D1*
X11714Y22817D1*
X11722Y22802D1*
X11730Y22787D1*
X11736Y22772D1*
X11739Y22757D1*
X11741Y22742D1*
X11742Y22727D1*
Y22712D1*
X11741Y22697D1*
X11739Y22682D1*
X11735Y22667D1*
X11729Y22652D1*
X11721Y22637D1*
X11711Y22622D1*
X11701Y22607D1*
X11689Y22592D1*
X11673Y22577D1*
X11652Y22562D1*
X11627Y22547D1*
X11596Y22532D1*
X11562Y22517D1*
X11442Y23132D2*
X11493Y23117D1*
X11534Y23102D1*
X11564Y23087D1*
X11586Y23072D1*
X11597Y23057D1*
X11605Y23042D1*
X11613Y23027D1*
X11622Y23012D1*
X14232Y23132D2*
X14191Y23117D1*
X14154Y23102D1*
X14125Y23087D1*
X14103Y23072D1*
X14085Y23057D1*
X14070Y23042D1*
X14059Y23027D1*
X14050Y23012D1*
X14044Y22997D1*
X14040Y22982D1*
X14036Y22967D1*
X14031Y22952D1*
X14027Y22937D1*
X14025Y22922D1*
X14023Y22907D1*
X14022Y22892D1*
Y22877D1*
Y22862D1*
Y22847D1*
Y22832D1*
X14023Y22817D1*
X14025Y22802D1*
X14028Y22787D1*
X14032Y22772D1*
X14035Y22757D1*
X14039Y22742D1*
X14043Y22727D1*
X14050Y22712D1*
X14059Y22697D1*
X14070Y22682D1*
X14084Y22667D1*
X14102Y22652D1*
X14127Y22637D1*
X14167Y22622D1*
X14225Y22607D1*
X14292Y22592D1*
X14217Y23132D2*
X14258Y23117D1*
X14295Y23102D1*
X14324Y23087D1*
X14346Y23072D1*
X14364Y23057D1*
X14379Y23042D1*
X14390Y23027D1*
X14399Y23012D1*
X14405Y22997D1*
X14409Y22982D1*
X14413Y22967D1*
X14418Y22952D1*
X14422Y22937D1*
X14424Y22922D1*
X14426Y22907D1*
X14427Y22892D1*
Y22877D1*
Y22862D1*
Y22847D1*
Y22832D1*
X14426Y22817D1*
X14425Y22802D1*
X14421Y22787D1*
X14417Y22772D1*
X14414Y22757D1*
X14411Y22742D1*
X14406Y22727D1*
X14399Y22712D1*
X14390Y22697D1*
X14379Y22682D1*
X14365Y22667D1*
X14347Y22652D1*
X14322Y22637D1*
X14282Y22622D1*
X14224Y22607D1*
X14157Y22592D1*
X14907Y23132D2*
X14878Y23117D1*
X14850Y23102D1*
X14827Y23087D1*
X14809Y23072D1*
X14795Y23057D1*
X14785Y23042D1*
X14777Y23027D1*
X14769Y23012D1*
X14763Y22997D1*
X14757Y22982D1*
X14752Y22967D1*
X14748Y22952D1*
X14745Y22937D1*
X14743Y22922D1*
X14742Y22907D1*
Y22892D1*
Y22877D1*
Y22862D1*
Y22847D1*
Y22832D1*
X14743Y22817D1*
X14745Y22802D1*
X14748Y22787D1*
X14753Y22772D1*
X14757Y22757D1*
X14763Y22742D1*
X14769Y22727D1*
X14776Y22712D1*
X14785Y22697D1*
X14796Y22682D1*
X14813Y22667D1*
X14839Y22652D1*
X14881Y22637D1*
X14942Y22622D1*
X15012Y22607D1*
X14937Y23132D2*
X14976Y23117D1*
X15009Y23102D1*
X15034Y23087D1*
X15054Y23072D1*
X15070Y23057D1*
X15084Y23042D1*
X15095Y23027D1*
X15104Y23012D1*
X15110Y22997D1*
X15114Y22982D1*
X15118Y22967D1*
X15123Y22952D1*
X15127Y22937D1*
X15129Y22922D1*
X15131Y22907D1*
X15132Y22892D1*
Y22877D1*
Y22862D1*
Y22847D1*
X15131Y22832D1*
X15130Y22817D1*
X15126Y22802D1*
X15122Y22787D1*
X15119Y22772D1*
X15116Y22757D1*
X15111Y22742D1*
X15104Y22727D1*
X15095Y22712D1*
X15084Y22697D1*
X15071Y22682D1*
X15054Y22667D1*
X15031Y22652D1*
X14991Y22637D1*
X14931Y22622D1*
X14862Y22607D1*
X16137Y23132D2*
X16084Y23117D1*
X16039Y23102D1*
X16005Y23087D1*
X15982Y23072D1*
X15967Y23057D1*
X15956Y23042D1*
X15949Y23027D1*
X15945Y23012D1*
X15942Y22997D1*
X16077Y23132D2*
X16140Y23117D1*
X16190Y23102D1*
X16225Y23087D1*
X16248Y23072D1*
X16263Y23057D1*
X16273Y23042D1*
X16280Y23027D1*
X16284Y23012D1*
X16285Y22997D1*
X16284Y22982D1*
X16272Y22967D1*
X16235Y22952D1*
X16179Y22937D1*
X16111Y22922D1*
X16045Y22907D1*
X15989Y22892D1*
X15945Y22877D1*
X15913Y22862D1*
X15889Y22847D1*
X15872Y22832D1*
X15860Y22817D1*
X15850Y22802D1*
X15841Y22787D1*
X15834Y22772D1*
X15828Y22757D1*
X15825Y22742D1*
X15823Y22727D1*
X15822Y22712D1*
Y22697D1*
X15823Y22682D1*
X15825Y22667D1*
X15829Y22652D1*
X15835Y22637D1*
X15841Y22622D1*
X15849Y22607D1*
X15858Y22592D1*
X15871Y22577D1*
X15887Y22562D1*
X15910Y22547D1*
X15939Y22532D1*
X15972Y22517D1*
X16872Y23132D2*
X16832Y23117D1*
X16798Y23102D1*
X16772Y23087D1*
X16752Y23072D1*
X16736Y23057D1*
X16724Y23042D1*
X16716Y23027D1*
X16710Y23012D1*
X16706Y22997D1*
X16702Y22982D1*
X16697Y22967D1*
X16695Y22952D1*
X16693Y22937D1*
X16692Y22922D1*
Y22907D1*
Y22892D1*
Y22877D1*
Y22862D1*
Y22847D1*
Y22832D1*
Y22817D1*
Y22802D1*
Y22787D1*
Y22772D1*
Y22757D1*
Y22742D1*
Y22727D1*
Y22712D1*
Y22697D1*
Y22682D1*
Y22667D1*
Y22652D1*
Y22637D1*
Y22622D1*
Y22607D1*
Y22592D1*
Y22577D1*
Y22562D1*
Y22547D1*
Y22532D1*
X16872Y23132D2*
X16901Y23117D1*
X16926Y23102D1*
X16946Y23087D1*
X16960Y23072D1*
X16969Y23057D1*
X16976Y23042D1*
X16982Y23027D1*
X16986Y23012D1*
X16989Y22997D1*
X16991Y22982D1*
X16992Y22967D1*
Y22952D1*
Y22937D1*
Y22922D1*
Y22907D1*
Y22892D1*
Y22877D1*
Y22862D1*
Y22847D1*
Y22832D1*
Y22817D1*
Y22802D1*
Y22787D1*
Y22772D1*
Y22757D1*
Y22742D1*
Y22727D1*
Y22712D1*
Y22697D1*
Y22682D1*
Y22667D1*
Y22652D1*
Y22637D1*
Y22622D1*
Y22607D1*
Y22592D1*
Y22577D1*
Y22562D1*
Y22547D1*
Y22532D1*
X17277Y23132D2*
X17236Y23117D1*
X17199Y23102D1*
X17171Y23087D1*
X17150Y23072D1*
X17136Y23057D1*
X17126Y23042D1*
X17119Y23027D1*
X17113Y23012D1*
X17107Y22997D1*
X17103Y22982D1*
X17100Y22967D1*
X17098Y22952D1*
X17097Y22937D1*
Y22922D1*
Y22907D1*
Y22892D1*
Y22877D1*
Y22862D1*
Y22847D1*
Y22832D1*
Y22817D1*
Y22802D1*
Y22787D1*
Y22772D1*
Y22757D1*
Y22742D1*
Y22727D1*
Y22712D1*
Y22697D1*
Y22682D1*
Y22667D1*
Y22652D1*
Y22637D1*
Y22622D1*
Y22607D1*
Y22592D1*
Y22577D1*
Y22562D1*
Y22547D1*
Y22532D1*
X17247Y23132D2*
X17286Y23117D1*
X17318Y23102D1*
X17341Y23087D1*
X17357Y23072D1*
X17368Y23057D1*
X17375Y23042D1*
X17379Y23027D1*
X17381Y23012D1*
Y22997D1*
X17382Y22982D1*
Y22967D1*
Y22952D1*
Y22937D1*
Y22922D1*
Y22907D1*
Y22892D1*
Y22877D1*
Y22862D1*
Y22847D1*
Y22832D1*
Y22817D1*
Y22802D1*
Y22787D1*
Y22772D1*
Y22757D1*
Y22742D1*
Y22727D1*
Y22712D1*
Y22697D1*
Y22682D1*
Y22667D1*
Y22652D1*
Y22637D1*
Y22622D1*
Y22607D1*
Y22592D1*
Y22577D1*
Y22562D1*
Y22547D1*
Y22532D1*
X19212Y23132D2*
X19183Y23117D1*
X19155Y23102D1*
X19132Y23087D1*
X19114Y23072D1*
X19100Y23057D1*
X19090Y23042D1*
X19082Y23027D1*
X19074Y23012D1*
X19068Y22997D1*
X19062Y22982D1*
X19057Y22967D1*
X19053Y22952D1*
X19050Y22937D1*
X19048Y22922D1*
X19047Y22907D1*
Y22892D1*
Y22877D1*
Y22862D1*
Y22847D1*
Y22832D1*
X19048Y22817D1*
X19050Y22802D1*
X19053Y22787D1*
X19058Y22772D1*
X19062Y22757D1*
X19068Y22742D1*
X19074Y22727D1*
X19081Y22712D1*
X19090Y22697D1*
X19101Y22682D1*
X19118Y22667D1*
X19144Y22652D1*
X19186Y22637D1*
X19247Y22622D1*
X19317Y22607D1*
X19242Y23132D2*
X19281Y23117D1*
X19314Y23102D1*
X19339Y23087D1*
X19359Y23072D1*
X19375Y23057D1*
X19389Y23042D1*
X19400Y23027D1*
X19409Y23012D1*
X19415Y22997D1*
X19419Y22982D1*
X19423Y22967D1*
X19428Y22952D1*
X19432Y22937D1*
X19434Y22922D1*
X19436Y22907D1*
X19437Y22892D1*
Y22877D1*
Y22862D1*
Y22847D1*
X19436Y22832D1*
X19435Y22817D1*
X19431Y22802D1*
X19427Y22787D1*
X19424Y22772D1*
X19421Y22757D1*
X19416Y22742D1*
X19409Y22727D1*
X19400Y22712D1*
X19389Y22697D1*
X19376Y22682D1*
X19359Y22667D1*
X19336Y22652D1*
X19296Y22637D1*
X19236Y22622D1*
X19167Y22607D1*
X13737Y23102D2*
X13710Y23087D1*
X13687Y23072D1*
X13669Y23057D1*
X13655Y23042D1*
X13646Y23027D1*
X13639Y23012D1*
X13635Y22997D1*
X13631Y22982D1*
X13626Y22967D1*
X13622Y22952D1*
X13620Y22937D1*
X13618Y22922D1*
X13617Y22907D1*
Y22892D1*
Y22877D1*
Y22862D1*
Y22847D1*
Y22832D1*
Y22817D1*
Y22802D1*
Y22787D1*
Y22772D1*
Y22757D1*
Y22742D1*
Y22727D1*
Y22712D1*
Y22697D1*
Y22682D1*
Y22667D1*
Y22652D1*
Y22637D1*
Y22622D1*
Y22607D1*
Y22592D1*
Y22577D1*
Y22562D1*
Y22547D1*
Y22532D1*
X13782Y23102D2*
X13797Y23087D1*
X15642Y23102D2*
X15615Y23087D1*
X15592Y23072D1*
X15574Y23057D1*
X15560Y23042D1*
X15551Y23027D1*
X15544Y23012D1*
X15540Y22997D1*
X15536Y22982D1*
X15531Y22967D1*
X15527Y22952D1*
X15525Y22937D1*
X15523Y22922D1*
X15522Y22907D1*
Y22892D1*
Y22877D1*
Y22862D1*
Y22847D1*
Y22832D1*
Y22817D1*
Y22802D1*
Y22787D1*
Y22772D1*
Y22757D1*
Y22742D1*
Y22727D1*
Y22712D1*
Y22697D1*
Y22682D1*
Y22667D1*
Y22652D1*
Y22637D1*
Y22622D1*
Y22607D1*
Y22592D1*
Y22577D1*
Y22562D1*
Y22547D1*
Y22532D1*
X15687Y23102D2*
X15702Y23087D1*
X12747Y22907D2*
Y22892D1*
Y22877D1*
Y22862D1*
Y22847D1*
Y22832D1*
Y22817D1*
Y22802D1*
Y22787D1*
Y22772D1*
Y22757D1*
Y22742D1*
Y22727D1*
Y22712D1*
Y22697D1*
Y22682D1*
Y22667D1*
Y22652D1*
Y22637D1*
Y22622D1*
Y22607D1*
Y22592D1*
Y22577D1*
Y22562D1*
Y22547D1*
Y22532D1*
X16302Y22862D2*
X16225Y22847D1*
X16150Y22832D1*
X16083Y22817D1*
X16030Y22802D1*
X15992Y22787D1*
X15966Y22772D1*
X15949Y22757D1*
X15936Y22742D1*
X15931Y22727D1*
X15929Y22712D1*
X15930Y22697D1*
X15934Y22682D1*
X15941Y22667D1*
X15950Y22652D1*
X15974Y22637D1*
X16013Y22622D1*
X16070Y22607D1*
X16137Y22592D1*
X16287Y22862D2*
Y22847D1*
Y22832D1*
Y22817D1*
Y22802D1*
X16286Y22787D1*
X16285Y22772D1*
X16281Y22757D1*
X16276Y22742D1*
X16272Y22727D1*
X16266Y22712D1*
X16259Y22697D1*
X16250Y22682D1*
X16236Y22667D1*
X16215Y22652D1*
X16184Y22637D1*
X16135Y22622D1*
X16066Y22607D1*
X15987Y22592D1*
X10587Y22847D2*
Y22832D1*
Y22817D1*
X10588Y22802D1*
X10590Y22787D1*
X10593Y22772D1*
X10598Y22757D1*
X10602Y22742D1*
X10608Y22727D1*
X10615Y22712D1*
X10624Y22697D1*
X10635Y22682D1*
X10649Y22667D1*
X10667Y22652D1*
X10695Y22637D1*
X10738Y22622D1*
X10800Y22607D1*
X10872Y22592D1*
X17982Y22787D2*
Y22772D1*
Y22757D1*
Y22742D1*
X17983Y22727D1*
X17985Y22712D1*
X17988Y22697D1*
X17993Y22682D1*
X17997Y22667D1*
X18003Y22652D1*
X18009Y22637D1*
X18016Y22622D1*
X18024Y22607D1*
X18034Y22592D1*
X18048Y22577D1*
X18067Y22562D1*
X18092Y22547D1*
X18119Y22532D1*
X18147Y22517D1*
X18087Y22787D2*
Y22772D1*
X18088Y22757D1*
X18090Y22742D1*
X18093Y22727D1*
X18098Y22712D1*
X18103Y22697D1*
X18110Y22682D1*
X18122Y22667D1*
X18137Y22652D1*
X18173Y22637D1*
X18229Y22622D1*
X18297Y22607D1*
X6987Y22742D2*
X6897Y22727D1*
X6898Y22712D1*
X6900Y22697D1*
X6904Y22682D1*
X6910Y22667D1*
X6916Y22652D1*
X6924Y22637D1*
X6933Y22622D1*
X6945Y22607D1*
X6958Y22592D1*
X6973Y22577D1*
X6992Y22562D1*
X7017Y22547D1*
X7052Y22532D1*
X7092Y22517D1*
X7002Y22742D2*
X7004Y22727D1*
X7009Y22712D1*
X7015Y22697D1*
X7022Y22682D1*
X7032Y22667D1*
X7047Y22652D1*
X7072Y22637D1*
X7115Y22622D1*
X7180Y22607D1*
X7257Y22592D1*
X10977Y22742D2*
X10971Y22727D1*
X10964Y22712D1*
X10956Y22697D1*
X10946Y22682D1*
X10934Y22667D1*
X10918Y22652D1*
X10893Y22637D1*
X10852Y22622D1*
X10792Y22607D1*
X10722Y22592D1*
X10992Y22742D2*
X11082Y22727D1*
X11080Y22712D1*
X11075Y22697D1*
X11070Y22682D1*
X11063Y22667D1*
X11055Y22652D1*
X11046Y22637D1*
X11034Y22622D1*
X11021Y22607D1*
X11006Y22592D1*
X10989Y22577D1*
X10967Y22562D1*
X10940Y22547D1*
X10907Y22532D1*
X10872Y22517D1*
X11292Y22742D2*
X11202Y22727D1*
X11203Y22712D1*
X11205Y22697D1*
X11209Y22682D1*
X11215Y22667D1*
X11221Y22652D1*
X11229Y22637D1*
X11238Y22622D1*
X11250Y22607D1*
X11263Y22592D1*
X11278Y22577D1*
X11297Y22562D1*
X11322Y22547D1*
X11357Y22532D1*
X11397Y22517D1*
X11307Y22742D2*
X11309Y22727D1*
X11314Y22712D1*
X11320Y22697D1*
X11327Y22682D1*
X11337Y22667D1*
X11352Y22652D1*
X11377Y22637D1*
X11420Y22622D1*
X11485Y22607D1*
X11562Y22592D1*
X15102Y22607D2*
X15086Y22592D1*
X15068Y22577D1*
X15045Y22562D1*
X15015Y22547D1*
X14982Y22532D1*
X15117Y22607D2*
Y22592D1*
Y22577D1*
Y22562D1*
Y22547D1*
Y22532D1*
Y22517D1*
X15116Y22502D1*
X15114Y22487D1*
X15110Y22472D1*
X15105Y22457D1*
X15098Y22442D1*
X15090Y22427D1*
X15080Y22412D1*
X15064Y22397D1*
X15037Y22382D1*
X14989Y22367D1*
X14917Y22352D1*
X14832Y22337D1*
X16272Y22607D2*
X16256Y22592D1*
X16239Y22577D1*
X16217Y22562D1*
X16190Y22547D1*
X16157Y22532D1*
X16122Y22517D1*
X16302Y22607D2*
X16303Y22592D1*
X16305Y22577D1*
X16308Y22562D1*
X16313Y22547D1*
X16317Y22532D1*
X19407Y22607D2*
X19391Y22592D1*
X19373Y22577D1*
X19350Y22562D1*
X19320Y22547D1*
X19287Y22532D1*
X19422Y22607D2*
Y22592D1*
Y22577D1*
Y22562D1*
Y22547D1*
Y22532D1*
Y22517D1*
X19421Y22502D1*
X19419Y22487D1*
X19415Y22472D1*
X19410Y22457D1*
X19403Y22442D1*
X19395Y22427D1*
X19385Y22412D1*
X19369Y22397D1*
X19342Y22382D1*
X19294Y22367D1*
X19222Y22352D1*
X19137Y22337D1*
X14652Y22457D2*
X14657Y22442D1*
X14662Y22427D1*
X14665Y22412D1*
X14668Y22397D1*
X14673Y22382D1*
X14680Y22367D1*
X14689Y22352D1*
X14701Y22337D1*
X14717Y22322D1*
X14738Y22307D1*
X14767Y22292D1*
X14805Y22277D1*
X14847Y22262D1*
X14742Y22457D2*
X14755Y22442D1*
X14766Y22427D1*
X14777Y22412D1*
X14792Y22397D1*
X14810Y22382D1*
X14858Y22367D1*
X14928Y22352D1*
X15012Y22337D1*
X18957Y22457D2*
X18962Y22442D1*
X18967Y22427D1*
X18970Y22412D1*
X18973Y22397D1*
X18978Y22382D1*
X18985Y22367D1*
X18994Y22352D1*
X19006Y22337D1*
X19022Y22322D1*
X19043Y22307D1*
X19072Y22292D1*
X19110Y22277D1*
X19152Y22262D1*
X19047Y22457D2*
X19060Y22442D1*
X19071Y22427D1*
X19082Y22412D1*
X19097Y22397D1*
X19115Y22382D1*
X19163Y22367D1*
X19233Y22352D1*
X19317Y22337D1*
X18846Y10566D2*
X18826Y10551D1*
X18806Y10536D1*
X18786Y10521D1*
X18766Y10506D1*
X18744Y10491D1*
X18722Y10476D1*
X18700Y10461D1*
X18677Y10446D1*
X18653Y10431D1*
X18624Y10416D1*
X18588Y10401D1*
X18546Y10386D1*
X18861Y10566D2*
Y10551D1*
Y10536D1*
Y10521D1*
X18858Y10506D1*
X18853Y10491D1*
X18840Y10476D1*
X18823Y10461D1*
X18803Y10446D1*
X18782Y10431D1*
X18760Y10416D1*
X18738Y10401D1*
X18715Y10386D1*
X18693Y10371D1*
X18673Y10356D1*
X18654Y10341D1*
X18636Y10326D1*
X18651Y10311D1*
X18666Y10296D1*
X18681Y10281D1*
X18696Y10266D1*
X18426Y10536D2*
Y10521D1*
Y10506D1*
X18427Y10491D1*
X18430Y10476D1*
X18436Y10461D1*
X18446Y10446D1*
X18458Y10431D1*
X18472Y10416D1*
X18487Y10401D1*
X18501Y10386D1*
X18516Y10371D1*
X18531Y10356D1*
X18546Y10341D1*
X18561Y10326D1*
X18573Y10311D1*
X18582Y10296D1*
X18588Y10281D1*
X18591Y10266D1*
X18441Y10536D2*
X18456Y10521D1*
X18471Y10506D1*
X18486Y10491D1*
X18501Y10476D1*
X18514Y10461D1*
X18525Y10446D1*
X18538Y10431D1*
X18555Y10416D1*
X18578Y10401D1*
X18606Y10386D1*
X18246Y10266D2*
Y10251D1*
Y10236D1*
Y10221D1*
Y10206D1*
X18861Y10266D2*
Y10251D1*
Y10236D1*
Y10221D1*
Y10206D1*
X18246Y10116D2*
Y10101D1*
X18247Y10086D1*
Y10071D1*
X18253Y10056D1*
X18276Y10041D1*
X18313Y10026D1*
X18361Y10011D1*
X18418Y9996D1*
X18479Y9981D1*
X18542Y9966D1*
X18603Y9951D1*
X18659Y9936D1*
X18710Y9921D1*
X18756Y9906D1*
X18690Y9891D1*
X18628Y9876D1*
X18570Y9861D1*
X18514Y9846D1*
X18461Y9831D1*
X18408Y9816D1*
X18357Y9801D1*
X18313Y9786D1*
X18275Y9771D1*
X18258Y9756D1*
X18252Y9741D1*
X18249Y9726D1*
X18247Y9711D1*
Y9696D1*
X18254Y9681D1*
X18280Y9666D1*
X18316Y9651D1*
X18361Y9636D1*
X18410Y9621D1*
X18461Y9606D1*
X18513Y9591D1*
X18565Y9576D1*
X18618Y9561D1*
X18670Y9546D1*
X18721Y9531D1*
X18771Y9516D1*
X18699Y9501D1*
X18630Y9486D1*
X18565Y9471D1*
X18501Y9456D1*
X18436Y9441D1*
X18374Y9426D1*
X18321Y9411D1*
X18278Y9396D1*
X18259Y9381D1*
X18252Y9366D1*
X18249Y9351D1*
X18247Y9336D1*
X18246Y9321D1*
X18261Y10116D2*
X18319Y10101D1*
X18375Y10086D1*
X18429Y10071D1*
X18483Y10056D1*
X18537Y10041D1*
X18592Y10026D1*
X18646Y10011D1*
X18701Y9996D1*
X18754Y9981D1*
X18799Y9966D1*
X18835Y9951D1*
X18851Y9936D1*
X18856Y9921D1*
X18860Y9906D1*
X18857Y9891D1*
X18843Y9876D1*
X18812Y9861D1*
X18772Y9846D1*
X18725Y9831D1*
X18674Y9816D1*
X18620Y9801D1*
X18567Y9786D1*
X18513Y9771D1*
X18462Y9756D1*
X18414Y9741D1*
X18373Y9726D1*
X18336Y9711D1*
X18391Y9696D1*
X18444Y9681D1*
X18498Y9666D1*
X18552Y9651D1*
X18607Y9636D1*
X18661Y9621D1*
X18714Y9606D1*
X18763Y9591D1*
X18804Y9576D1*
X18837Y9561D1*
X18852Y9546D1*
X18857Y9531D1*
X18859Y9516D1*
X18858Y9501D1*
X18847Y9486D1*
X18816Y9471D1*
X18775Y9456D1*
X18727Y9441D1*
X18674Y9426D1*
X18619Y9411D1*
X18563Y9396D1*
X18507Y9381D1*
X18451Y9366D1*
X18394Y9351D1*
X18335Y9336D1*
X18276Y9321D1*
X18771Y11991D2*
X18751Y11976D1*
X18731Y11961D1*
X18711Y11946D1*
X18690Y11931D1*
X18669Y11916D1*
X18647Y11901D1*
X18625Y11886D1*
X18602Y11871D1*
X18578Y11856D1*
X18549Y11841D1*
X18512Y11826D1*
X18471Y11811D1*
X18786Y11991D2*
Y11976D1*
Y11961D1*
X18785Y11946D1*
X18783Y11931D1*
X18778Y11916D1*
X18765Y11901D1*
X18748Y11886D1*
X18728Y11871D1*
X18706Y11856D1*
X18684Y11841D1*
X18662Y11826D1*
X18640Y11811D1*
X18618Y11796D1*
X18597Y11781D1*
X18579Y11766D1*
X18561Y11751D1*
X18576Y11736D1*
X18591Y11721D1*
X18606Y11706D1*
X18621Y11691D1*
X18351Y11961D2*
Y11946D1*
Y11931D1*
X18352Y11916D1*
X18354Y11901D1*
X18360Y11886D1*
X18370Y11871D1*
X18383Y11856D1*
X18397Y11841D1*
X18411Y11826D1*
X18426Y11811D1*
X18441Y11796D1*
X18456Y11781D1*
X18471Y11766D1*
X18485Y11751D1*
X18498Y11736D1*
X18507Y11721D1*
X18512Y11706D1*
X18516Y11691D1*
X18366Y11961D2*
X18381Y11946D1*
X18396Y11931D1*
X18411Y11916D1*
X18425Y11901D1*
X18438Y11886D1*
X18450Y11871D1*
X18462Y11856D1*
X18479Y11841D1*
X18503Y11826D1*
X18531Y11811D1*
X18171Y11691D2*
Y11676D1*
Y11661D1*
Y11646D1*
Y11631D1*
X18786Y11691D2*
Y11676D1*
Y11661D1*
Y11646D1*
Y11631D1*
X18381Y11511D2*
X18345Y11496D1*
X18313Y11481D1*
X18287Y11466D1*
X18266Y11451D1*
X18248Y11436D1*
X18232Y11421D1*
X18219Y11406D1*
X18208Y11391D1*
X18198Y11376D1*
X18190Y11361D1*
X18183Y11346D1*
X18177Y11331D1*
X18171Y11316D1*
X18166Y11301D1*
X18161Y11286D1*
X18159Y11271D1*
X18157Y11256D1*
X18156Y11241D1*
Y11226D1*
Y11211D1*
Y11196D1*
X18157Y11181D1*
X18158Y11166D1*
X18162Y11151D1*
X18166Y11136D1*
X18171Y11121D1*
X18177Y11106D1*
X18183Y11091D1*
X18190Y11076D1*
X18198Y11061D1*
X18207Y11046D1*
X18219Y11031D1*
X18232Y11016D1*
X18247Y11001D1*
X18264Y10986D1*
X18286Y10971D1*
X18316Y10956D1*
X18354Y10941D1*
X18396Y10926D1*
X18576Y11511D2*
X18610Y11496D1*
X18640Y11481D1*
X18666Y11466D1*
X18688Y11451D1*
X18707Y11436D1*
X18722Y11421D1*
X18734Y11406D1*
X18743Y11391D1*
X18752Y11376D1*
X18759Y11361D1*
X18767Y11346D1*
X18774Y11331D1*
X18780Y11316D1*
X18783Y11301D1*
X18785Y11286D1*
X18788Y11271D1*
X18792Y11256D1*
X18796Y11241D1*
X18798Y11226D1*
X18797Y11211D1*
X18794Y11196D1*
X18791Y11181D1*
X18788Y11166D1*
X18786Y11151D1*
X18784Y11136D1*
X18779Y11121D1*
X18773Y11106D1*
X18767Y11091D1*
X18759Y11076D1*
X18750Y11061D1*
X18738Y11046D1*
X18725Y11031D1*
X18710Y11016D1*
X18695Y11001D1*
X18678Y10986D1*
X18656Y10971D1*
X18629Y10956D1*
X18596Y10941D1*
X18561Y10926D1*
X18441Y11451D2*
X18397Y11436D1*
X18357Y11421D1*
X18324Y11406D1*
X18299Y11391D1*
X18279Y11376D1*
X18263Y11361D1*
X18249Y11346D1*
X18238Y11331D1*
X18229Y11316D1*
X18223Y11301D1*
X18218Y11286D1*
X18215Y11271D1*
X18210Y11256D1*
X18206Y11241D1*
X18204Y11226D1*
Y11211D1*
X18207Y11196D1*
X18211Y11181D1*
X18214Y11166D1*
X18217Y11151D1*
X18222Y11136D1*
X18229Y11121D1*
X18238Y11106D1*
X18249Y11091D1*
X18263Y11076D1*
X18280Y11061D1*
X18303Y11046D1*
X18340Y11031D1*
X18401Y11016D1*
X18489Y11001D1*
X18591Y10986D1*
X18486Y11451D2*
X18540Y11436D1*
X18587Y11421D1*
X18624Y11406D1*
X18653Y11391D1*
X18675Y11376D1*
X18691Y11361D1*
X18703Y11346D1*
X18713Y11331D1*
X18722Y11316D1*
X18729Y11301D1*
X18735Y11286D1*
X18738Y11271D1*
X18740Y11256D1*
Y11241D1*
X18741Y11226D1*
Y11211D1*
X18740Y11196D1*
X18738Y11181D1*
X18735Y11166D1*
X18730Y11151D1*
X18725Y11136D1*
X18718Y11121D1*
X18710Y11106D1*
X18700Y11091D1*
X18688Y11076D1*
X18671Y11061D1*
X18647Y11046D1*
X18611Y11031D1*
X18553Y11016D1*
X18473Y11001D1*
X18381Y10986D1*
X18380Y13535D2*
X18378Y13520D1*
X18375Y13505D1*
X18373Y13490D1*
X18374Y13475D1*
X18377Y13460D1*
X18382Y13445D1*
X18389Y13430D1*
X18399Y13415D1*
X18412Y13400D1*
X18425Y13385D1*
X18405Y13370D1*
X18389Y13355D1*
X18385Y13340D1*
X18382Y13325D1*
X18380Y13310D1*
X18440Y13535D2*
Y13520D1*
Y13505D1*
Y13490D1*
Y13475D1*
X18441Y13460D1*
X18443Y13445D1*
X18451Y13430D1*
X18477Y13415D1*
X18519Y13400D1*
X18574Y13385D1*
X18635Y13370D1*
X18815D2*
Y13355D1*
Y13340D1*
Y13325D1*
Y13310D1*
X18380Y13235D2*
X18378Y13220D1*
X18375Y13205D1*
X18373Y13190D1*
X18374Y13175D1*
X18377Y13160D1*
X18382Y13145D1*
X18389Y13130D1*
X18399Y13115D1*
X18412Y13100D1*
X18425Y13085D1*
X18405Y13070D1*
X18389Y13055D1*
X18385Y13040D1*
X18382Y13025D1*
X18380Y13010D1*
X18440Y13235D2*
Y13220D1*
Y13205D1*
Y13190D1*
Y13175D1*
X18441Y13160D1*
X18443Y13145D1*
X18451Y13130D1*
X18477Y13115D1*
X18519Y13100D1*
X18574Y13085D1*
X18635Y13070D1*
X18815D2*
Y13055D1*
Y13040D1*
Y13025D1*
Y13010D1*
X18755Y12890D2*
Y12875D1*
Y12860D1*
Y12845D1*
Y12830D1*
Y12815D1*
Y12800D1*
Y12785D1*
Y12770D1*
Y12755D1*
Y12740D1*
Y12725D1*
Y12710D1*
Y12695D1*
Y12680D1*
Y12665D1*
Y12650D1*
Y12635D1*
Y12620D1*
Y12605D1*
Y12590D1*
Y12575D1*
Y12560D1*
Y12545D1*
Y12530D1*
Y12515D1*
Y12500D1*
Y12485D1*
X18815Y12890D2*
Y12875D1*
Y12860D1*
Y12845D1*
Y12830D1*
Y12815D1*
Y12800D1*
Y12785D1*
Y12770D1*
Y12755D1*
Y12740D1*
Y12725D1*
Y12710D1*
Y12695D1*
Y12680D1*
Y12665D1*
Y12650D1*
Y12635D1*
Y12620D1*
Y12605D1*
Y12590D1*
Y12575D1*
Y12560D1*
Y12545D1*
Y12530D1*
Y12515D1*
Y12500D1*
Y12485D1*
Y12470D1*
Y12455D1*
Y12440D1*
Y12425D1*
X18200Y12875D2*
Y12860D1*
Y12845D1*
Y12830D1*
Y12815D1*
Y12800D1*
Y12785D1*
Y12770D1*
Y12755D1*
Y12740D1*
Y12725D1*
Y12710D1*
Y12695D1*
Y12680D1*
Y12665D1*
Y12650D1*
Y12635D1*
Y12620D1*
Y12605D1*
Y12590D1*
Y12575D1*
Y12560D1*
Y12545D1*
Y12530D1*
Y12515D1*
Y12500D1*
Y12485D1*
Y12470D1*
Y12455D1*
Y12440D1*
Y12425D1*
X18260Y12875D2*
Y12860D1*
Y12845D1*
Y12830D1*
Y12815D1*
Y12800D1*
Y12785D1*
Y12770D1*
Y12755D1*
Y12740D1*
Y12725D1*
Y12710D1*
Y12695D1*
Y12680D1*
Y12665D1*
Y12650D1*
Y12635D1*
Y12620D1*
Y12605D1*
Y12590D1*
Y12575D1*
Y12560D1*
Y12545D1*
Y12530D1*
Y12515D1*
Y12500D1*
Y12485D1*
X18470Y12845D2*
Y12830D1*
Y12815D1*
Y12800D1*
Y12785D1*
Y12770D1*
Y12755D1*
Y12740D1*
Y12725D1*
Y12710D1*
Y12695D1*
Y12680D1*
Y12665D1*
Y12650D1*
Y12635D1*
Y12620D1*
Y12605D1*
Y12590D1*
Y12575D1*
Y12560D1*
Y12545D1*
Y12530D1*
Y12515D1*
Y12500D1*
Y12485D1*
X18530Y12845D2*
Y12830D1*
Y12815D1*
Y12800D1*
Y12785D1*
Y12770D1*
Y12755D1*
Y12740D1*
Y12725D1*
Y12710D1*
Y12695D1*
Y12680D1*
Y12665D1*
Y12650D1*
Y12635D1*
Y12620D1*
Y12605D1*
Y12590D1*
Y12575D1*
Y12560D1*
Y12545D1*
Y12530D1*
Y12515D1*
Y12500D1*
Y12485D1*
X13443Y11741D2*
D35*
Y11454D1*
X13462Y11397D1*
X13501Y11359D1*
X13558Y11339D1*
X13596D1*
X13654Y11359D1*
X13692Y11397D1*
X13711Y11454D1*
Y11741D1*
X13835Y11664D2*
X13873Y11684D1*
X13931Y11741D1*
Y11339D1*
X13357Y16241D2*
Y15954D1*
X13376Y15897D1*
X13415Y15859D1*
X13472Y15839D1*
X13510D1*
X13568Y15859D1*
X13606Y15897D1*
X13625Y15954D1*
Y16241D1*
X13768Y16145D2*
Y16164D1*
X13787Y16203D1*
X13806Y16222D1*
X13845Y16241D1*
X13921D1*
X13959Y16222D1*
X13978Y16203D1*
X13998Y16164D1*
Y16126D1*
X13978Y16088D1*
X13940Y16031D1*
X13749Y15839D1*
X14017D1*
X19969Y10720D2*
Y10318D1*
X20103D1*
X20160Y10337D1*
X20199Y10375D1*
X20218Y10414D1*
X20237Y10471D1*
Y10567D1*
X20218Y10624D1*
X20199Y10662D1*
X20160Y10701D1*
X20103Y10720D1*
X19969D1*
X20360Y10643D2*
X20399Y10662D1*
X20456Y10719D1*
Y10318D1*
X19883Y12220D2*
Y11818D1*
X20017D1*
X20074Y11837D1*
X20113Y11875D1*
X20132Y11914D1*
X20151Y11971D1*
Y12067D1*
X20132Y12124D1*
X20113Y12162D1*
X20074Y12201D1*
X20017Y12220D1*
X19883D1*
X20294Y12124D2*
Y12143D1*
X20313Y12181D1*
X20332Y12200D1*
X20370Y12219D1*
X20447D1*
X20485Y12200D1*
X20504Y12181D1*
X20523Y12143D1*
Y12105D1*
X20504Y12066D1*
X20466Y12009D1*
X20274Y11818D1*
X20542D1*
X20028Y9028D2*
X20200D1*
X20257Y9048D1*
X20277Y9067D1*
X20296Y9105D1*
Y9143D1*
X20277Y9181D1*
X20257Y9201D1*
X20200Y9220D1*
X20028D1*
Y8818D1*
X20162Y9028D2*
X20296Y8818D1*
X20419Y9143D2*
X20458Y9162D1*
X20515Y9219D1*
Y8818D1*
X19883Y13720D2*
Y13318D1*
X20017D1*
X20074Y13337D1*
X20113Y13375D1*
X20132Y13414D1*
X20151Y13471D1*
Y13567D1*
X20132Y13624D1*
X20113Y13662D1*
X20074Y13701D1*
X20017Y13720D1*
X19883D1*
X20313Y13719D2*
X20523D1*
X20408Y13566D1*
X20466D1*
X20504Y13547D1*
X20523Y13528D1*
X20542Y13471D1*
Y13433D1*
X20523Y13375D1*
X20485Y13337D1*
X20427Y13318D1*
X20370D1*
X20313Y13337D1*
X20294Y13356D1*
X20274Y13394D1*
M02*
