G04 DipTrace 2.4.0.1*
%INinterface.frontsilk.gto*%
%MOIN*%
%ADD10C,0.0098*%
%ADD12C,0.003*%
%ADD26C,0.0154*%
%ADD60C,0.0062*%
%ADD61C,0.0087*%
%FSLAX44Y44*%
G04*
G70*
G90*
G75*
G01*
%LNTopSilk*%
%LPD*%
X10567Y7718D2*
D10*
Y12756D1*
X8047Y7718D2*
Y12756D1*
X10567D2*
X8047D1*
X10567Y7718D2*
X9622D1*
X8992D2*
X8047D1*
X9622D2*
G03X8992Y7718I-315J-1D01*
G01*
X13251Y6121D2*
X11007D1*
Y7460D1*
X13251D1*
Y6121D1*
X10280Y7561D2*
X10594D1*
X13969Y6063D2*
X13655D1*
X8563Y7030D2*
Y7344D1*
Y13030D2*
Y13344D1*
X5600Y11615D2*
X3691D1*
Y8859D1*
X5600D1*
Y11615D1*
X16538Y12737D2*
X12562D1*
Y7737D1*
X16538D1*
Y12737D1*
D26*
X11290Y14245D3*
X11791Y14153D2*
D10*
Y12972D1*
X11988D1*
Y14153D1*
X11791D1*
G36*
X15687Y6562D2*
Y7562D1*
X16187Y7062D1*
D1*
X15687Y6562D1*
G37*
X6822Y16287D2*
D12*
X6927D1*
X8292D2*
X8397D1*
X6012Y16272D2*
X6087D1*
X6417D2*
X6492D1*
X6781D2*
X6961D1*
X7242D2*
X7527D1*
X8251D2*
X8431D1*
X8712D2*
X9012D1*
X9297D2*
X9372D1*
X9762D2*
X9837D1*
X11592D2*
X11682D1*
X6012Y16257D2*
X6087D1*
X6417D2*
X6492D1*
X6749D2*
X6991D1*
X7242D2*
X7561D1*
X8219D2*
X8461D1*
X8712D2*
X9050D1*
X9297D2*
X9372D1*
X9762D2*
X9837D1*
X10527D2*
X10542D1*
X11571D2*
X11689D1*
X13662D2*
X13692D1*
X14307D2*
X14397D1*
X6012Y16242D2*
X6087D1*
X6417D2*
X6492D1*
X6724D2*
X7015D1*
X7242D2*
X7588D1*
X8194D2*
X8485D1*
X8712D2*
X9079D1*
X9297D2*
X9372D1*
X9762D2*
X9837D1*
X10510D2*
X10542D1*
X11553D2*
X11694D1*
X13647D2*
X13692D1*
X14278D2*
X14426D1*
X6012Y16227D2*
X6087D1*
X6417D2*
X6492D1*
X6706D2*
X7033D1*
X7242D2*
X7609D1*
X8176D2*
X8503D1*
X8712D2*
X9101D1*
X9297D2*
X9372D1*
X9762D2*
X9837D1*
X10495D2*
X10542D1*
X11540D2*
X11680D1*
X13632D2*
X13692D1*
X14255D2*
X14449D1*
X6012Y16212D2*
X6087D1*
X6417D2*
X6492D1*
X6691D2*
X6796D1*
X6939D2*
X7048D1*
X7242D2*
X7623D1*
X8161D2*
X8266D1*
X8409D2*
X8518D1*
X8712D2*
X9117D1*
X9297D2*
X9372D1*
X9762D2*
X9837D1*
X10488D2*
X10542D1*
X11531D2*
X11649D1*
X13617D2*
X13692D1*
X14236D2*
X14468D1*
X6012Y16197D2*
X6087D1*
X6417D2*
X6492D1*
X6681D2*
X6774D1*
X6962D2*
X7060D1*
X7242D2*
X7317D1*
X7541D2*
X7634D1*
X8151D2*
X8244D1*
X8432D2*
X8530D1*
X8712D2*
X8787D1*
X9023D2*
X9130D1*
X9297D2*
X9372D1*
X9762D2*
X9837D1*
X10485D2*
X10542D1*
X11524D2*
X11619D1*
X13601D2*
X13692D1*
X14221D2*
X14483D1*
X6012Y16182D2*
X6087D1*
X6417D2*
X6492D1*
X6674D2*
X6758D1*
X6980D2*
X7069D1*
X7242D2*
X7317D1*
X7554D2*
X7642D1*
X8144D2*
X8228D1*
X8450D2*
X8539D1*
X8712D2*
X8787D1*
X9045D2*
X9139D1*
X9297D2*
X9372D1*
X9762D2*
X9837D1*
X10483D2*
X10542D1*
X11520D2*
X11594D1*
X13584D2*
X13692D1*
X14209D2*
X14292D1*
X14412D2*
X14495D1*
X6012Y16167D2*
X6087D1*
X6417D2*
X6492D1*
X6668D2*
X6747D1*
X6994D2*
X7076D1*
X7242D2*
X7317D1*
X7565D2*
X7650D1*
X8138D2*
X8217D1*
X8464D2*
X8546D1*
X8712D2*
X8787D1*
X9061D2*
X9146D1*
X9297D2*
X9372D1*
X9762D2*
X9837D1*
X10482D2*
X10542D1*
X11518D2*
X11584D1*
X13565D2*
X13692D1*
X14200D2*
X14277D1*
X14427D2*
X14504D1*
X6012Y16152D2*
X6087D1*
X6417D2*
X6492D1*
X6663D2*
X6739D1*
X7003D2*
X7081D1*
X7242D2*
X7317D1*
X7574D2*
X7656D1*
X8133D2*
X8209D1*
X8473D2*
X8551D1*
X8712D2*
X8787D1*
X9072D2*
X9151D1*
X9297D2*
X9372D1*
X9762D2*
X9837D1*
X10482D2*
X10542D1*
X11516D2*
X11580D1*
X13544D2*
X13692D1*
X14191D2*
X14263D1*
X14441D2*
X14511D1*
X6012Y16137D2*
X6087D1*
X6417D2*
X6492D1*
X6660D2*
X6735D1*
X7010D2*
X7086D1*
X7242D2*
X7317D1*
X7580D2*
X7659D1*
X8130D2*
X8205D1*
X8480D2*
X8556D1*
X8712D2*
X8787D1*
X9080D2*
X9156D1*
X9297D2*
X9372D1*
X9762D2*
X9837D1*
X10482D2*
X10542D1*
X11509D2*
X11578D1*
X13522D2*
X13692D1*
X14184D2*
X14250D1*
X14454D2*
X14516D1*
X6012Y16122D2*
X6087D1*
X6417D2*
X6492D1*
X6659D2*
X6734D1*
X7014D2*
X7090D1*
X7242D2*
X7317D1*
X7584D2*
X7660D1*
X8129D2*
X8204D1*
X8484D2*
X8560D1*
X8712D2*
X8787D1*
X9084D2*
X9159D1*
X9297D2*
X9372D1*
X9762D2*
X9837D1*
X10152D2*
X10227D1*
X10482D2*
X10542D1*
X10842D2*
X10932D1*
X11337D2*
X11397D1*
X11486D2*
X11577D1*
X11892D2*
X11997D1*
X12387D2*
X12477D1*
X12837D2*
X12927D1*
X13500D2*
X13600D1*
X13632D2*
X13692D1*
X14178D2*
X14241D1*
X14463D2*
X14522D1*
X6012Y16107D2*
X6087D1*
X6417D2*
X6492D1*
X6660D2*
X6734D1*
X7017D2*
X7092D1*
X7242D2*
X7317D1*
X7586D2*
X7659D1*
X8130D2*
X8204D1*
X8487D2*
X8562D1*
X8712D2*
X8787D1*
X9086D2*
X9161D1*
X9297D2*
X9372D1*
X9762D2*
X9837D1*
X9972D2*
X10032D1*
X10123D2*
X10253D1*
X10422D2*
X10617D1*
X10808D2*
X10966D1*
X11202D2*
X11247D1*
X11314D2*
X11427D1*
X11457D2*
X11667D1*
X11851D2*
X12031D1*
X12353D2*
X12508D1*
X12803D2*
X12961D1*
X13482D2*
X13580D1*
X13632D2*
X13692D1*
X14175D2*
X14236D1*
X14470D2*
X14526D1*
X6012Y16092D2*
X6087D1*
X6417D2*
X6492D1*
X6663D2*
X6741D1*
X7242D2*
X7317D1*
X7586D2*
X7656D1*
X8133D2*
X8211D1*
X8712D2*
X8787D1*
X9086D2*
X9161D1*
X9297D2*
X9372D1*
X9762D2*
X9837D1*
X9972D2*
X10033D1*
X10099D2*
X10275D1*
X10422D2*
X10617D1*
X10780D2*
X10994D1*
X11202D2*
X11250D1*
X11293D2*
X11667D1*
X11819D2*
X12058D1*
X12325D2*
X12533D1*
X12775D2*
X12989D1*
X13474D2*
X13556D1*
X13632D2*
X13692D1*
X14173D2*
X14231D1*
X14476D2*
X14530D1*
X6012Y16077D2*
X6087D1*
X6417D2*
X6492D1*
X6668D2*
X6753D1*
X7242D2*
X7317D1*
X7584D2*
X7651D1*
X8138D2*
X8223D1*
X8712D2*
X8787D1*
X9086D2*
X9159D1*
X9297D2*
X9372D1*
X9762D2*
X9837D1*
X9972D2*
X10035D1*
X10077D2*
X10291D1*
X10422D2*
X10617D1*
X10758D2*
X11016D1*
X11202D2*
X11255D1*
X11270D2*
X11427D1*
X11457D2*
X11667D1*
X11795D2*
X12079D1*
X12303D2*
X12553D1*
X12753D2*
X13011D1*
X13470D2*
X13529D1*
X13632D2*
X13692D1*
X14170D2*
X14227D1*
X14481D2*
X14533D1*
X6012Y16062D2*
X6087D1*
X6417D2*
X6492D1*
X6673D2*
X6771D1*
X7242D2*
X7317D1*
X7579D2*
X7646D1*
X8143D2*
X8241D1*
X8712D2*
X8787D1*
X9084D2*
X9156D1*
X9297D2*
X9372D1*
X9762D2*
X9837D1*
X9972D2*
X10040D1*
X10055D2*
X10303D1*
X10422D2*
X10617D1*
X10742D2*
X11032D1*
X11202D2*
X11427D1*
X11457D2*
X11667D1*
X11778D2*
X12093D1*
X12285D2*
X12568D1*
X12737D2*
X13027D1*
X13468D2*
X13499D1*
X13632D2*
X13692D1*
X14166D2*
X14222D1*
X14484D2*
X14538D1*
X6012Y16047D2*
X6087D1*
X6417D2*
X6492D1*
X6680D2*
X6799D1*
X7242D2*
X7317D1*
X7565D2*
X7639D1*
X8150D2*
X8269D1*
X8712D2*
X8787D1*
X9078D2*
X9151D1*
X9297D2*
X9372D1*
X9762D2*
X9837D1*
X9972D2*
X10110D1*
X10208D2*
X10312D1*
X10422D2*
X10617D1*
X10730D2*
X10830D1*
X10946D2*
X11044D1*
X11202D2*
X11366D1*
X11457D2*
X11667D1*
X11767D2*
X11865D1*
X12012D2*
X12103D1*
X12271D2*
X12375D1*
X12492D2*
X12580D1*
X12725D2*
X12825D1*
X12941D2*
X13039D1*
X13467D2*
D3*
X13632D2*
X13692D1*
X14162D2*
X14220D1*
X14486D2*
X14542D1*
X6012Y16032D2*
X6087D1*
X6417D2*
X6492D1*
X6691D2*
X6837D1*
X7242D2*
X7317D1*
X7546D2*
X7628D1*
X8161D2*
X8307D1*
X8712D2*
X8787D1*
X9068D2*
X9147D1*
X9297D2*
X9372D1*
X9762D2*
X9837D1*
X9972D2*
X10087D1*
X10230D2*
X10320D1*
X10482D2*
X10542D1*
X10720D2*
X10806D1*
X10973D2*
X11054D1*
X11202D2*
X11323D1*
X11517D2*
X11577D1*
X11759D2*
X11842D1*
X12026D2*
X12110D1*
X12261D2*
X12351D1*
X12507D2*
X12589D1*
X12715D2*
X12801D1*
X12968D2*
X13049D1*
X13632D2*
X13692D1*
X14159D2*
X14218D1*
X14487D2*
X14545D1*
X6012Y16017D2*
X6087D1*
X6417D2*
X6492D1*
X6707D2*
X6880D1*
X7242D2*
X7317D1*
X7523D2*
X7613D1*
X8177D2*
X8350D1*
X8712D2*
X8787D1*
X9055D2*
X9141D1*
X9297D2*
X9372D1*
X9762D2*
X9837D1*
X9972D2*
X10069D1*
X10246D2*
X10326D1*
X10482D2*
X10542D1*
X10711D2*
X10786D1*
X10995D2*
X11063D1*
X11202D2*
X11293D1*
X11517D2*
X11577D1*
X11751D2*
X11824D1*
X12039D2*
X12114D1*
X12254D2*
X12332D1*
X12521D2*
X12596D1*
X12706D2*
X12781D1*
X12990D2*
X13058D1*
X13632D2*
X13692D1*
X14158D2*
X14217D1*
X14487D2*
X14546D1*
X6012Y16002D2*
X6087D1*
X6417D2*
X6492D1*
X6727D2*
X6925D1*
X7242D2*
X7593D1*
X8197D2*
X8395D1*
X8712D2*
X8787D1*
X9041D2*
X9134D1*
X9297D2*
X9372D1*
X9762D2*
X9837D1*
X9972D2*
X10055D1*
X10257D2*
X10329D1*
X10482D2*
X10542D1*
X10704D2*
X10769D1*
X11011D2*
X11070D1*
X11202D2*
X11282D1*
X11517D2*
X11577D1*
X11742D2*
X11812D1*
X12048D2*
X12116D1*
X12248D2*
X12316D1*
X12534D2*
X12604D1*
X12699D2*
X12764D1*
X13006D2*
X13065D1*
X13632D2*
X13692D1*
X14157D2*
X14217D1*
X14487D2*
X14547D1*
X6012Y15987D2*
X6087D1*
X6417D2*
X6492D1*
X6753D2*
X6966D1*
X7242D2*
X7572D1*
X8223D2*
X8436D1*
X8712D2*
X8787D1*
X9027D2*
X9125D1*
X9297D2*
X9372D1*
X9762D2*
X9837D1*
X9972D2*
X10046D1*
X10265D2*
X10331D1*
X10482D2*
X10542D1*
X10698D2*
X10756D1*
X11022D2*
X11076D1*
X11202D2*
X11274D1*
X11517D2*
X11577D1*
X11787D2*
X11802D1*
X12054D2*
X12116D1*
X12242D2*
X12304D1*
X12544D2*
X12612D1*
X12693D2*
X12751D1*
X13017D2*
X13071D1*
X13632D2*
X13692D1*
X14157D2*
X14217D1*
X14487D2*
X14547D1*
X6012Y15972D2*
X6087D1*
X6417D2*
X6492D1*
X6784D2*
X7000D1*
X7242D2*
X7592D1*
X8254D2*
X8470D1*
X8712D2*
X9113D1*
X9297D2*
X9372D1*
X9762D2*
X9837D1*
X9972D2*
X10039D1*
X10269D2*
X10332D1*
X10482D2*
X10542D1*
X10692D2*
X10745D1*
X11030D2*
X11082D1*
X11202D2*
X11268D1*
X11517D2*
X11577D1*
X12053D2*
X12117D1*
X12237D2*
X12295D1*
X12552D2*
X12567D1*
X12687D2*
X12740D1*
X13025D2*
X13077D1*
X13632D2*
X13692D1*
X14157D2*
X14217D1*
X14487D2*
X14547D1*
X6012Y15957D2*
X6087D1*
X6417D2*
X6492D1*
X6823D2*
X7027D1*
X7242D2*
X7612D1*
X8293D2*
X8497D1*
X8712D2*
X9097D1*
X9297D2*
X9372D1*
X9762D2*
X9837D1*
X9972D2*
X10035D1*
X10271D2*
X10332D1*
X10482D2*
X10542D1*
X10687D2*
X10741D1*
X11034D2*
X11087D1*
X11202D2*
X11265D1*
X11517D2*
X11577D1*
X12040D2*
X12117D1*
X12232D2*
X12289D1*
X12682D2*
X12736D1*
X13029D2*
X13082D1*
X13632D2*
X13692D1*
X14157D2*
X14217D1*
X14487D2*
X14547D1*
X6012Y15942D2*
X6087D1*
X6417D2*
X6492D1*
X6866D2*
X7047D1*
X7242D2*
X7629D1*
X8336D2*
X8517D1*
X8712D2*
X9074D1*
X9297D2*
X9372D1*
X9762D2*
X9837D1*
X9972D2*
X10033D1*
X10271D2*
X10332D1*
X10482D2*
X10542D1*
X10683D2*
X10739D1*
X11036D2*
X11091D1*
X11202D2*
X11263D1*
X11517D2*
X11577D1*
X11999D2*
X12117D1*
X12228D2*
X12285D1*
X12678D2*
X12734D1*
X13031D2*
X13086D1*
X13632D2*
X13692D1*
X14157D2*
X14217D1*
X14487D2*
X14547D1*
X6012Y15927D2*
X6087D1*
X6417D2*
X6492D1*
X6908D2*
X7063D1*
X7242D2*
X7317D1*
X7539D2*
X7645D1*
X8378D2*
X8533D1*
X8712D2*
X9045D1*
X9297D2*
X9372D1*
X9762D2*
X9837D1*
X9972D2*
X10033D1*
X10272D2*
X10332D1*
X10482D2*
X10542D1*
X10680D2*
X11094D1*
X11202D2*
X11262D1*
X11517D2*
X11577D1*
X11944D2*
X12117D1*
X12225D2*
X12283D1*
X12675D2*
X13089D1*
X13632D2*
X13692D1*
X14157D2*
X14217D1*
X14487D2*
X14547D1*
X6012Y15912D2*
X6087D1*
X6417D2*
X6492D1*
X6946D2*
X7075D1*
X7242D2*
X7317D1*
X7563D2*
X7659D1*
X7782D2*
X8007D1*
X8416D2*
X8545D1*
X8712D2*
X9012D1*
X9297D2*
X9372D1*
X9762D2*
X9837D1*
X9972D2*
X10032D1*
X10272D2*
X10332D1*
X10482D2*
X10542D1*
X10678D2*
X11096D1*
X11202D2*
X11262D1*
X11517D2*
X11577D1*
X11887D2*
X12117D1*
X12223D2*
X12283D1*
X12673D2*
X13091D1*
X13632D2*
X13692D1*
X14157D2*
X14217D1*
X14487D2*
X14547D1*
X6012Y15897D2*
X6087D1*
X6417D2*
X6492D1*
X6977D2*
X7086D1*
X7242D2*
X7317D1*
X7582D2*
X7670D1*
X7782D2*
X8007D1*
X8447D2*
X8556D1*
X8712D2*
X8787D1*
X9297D2*
X9372D1*
X9762D2*
X9837D1*
X9972D2*
X10032D1*
X10272D2*
X10332D1*
X10482D2*
X10542D1*
X10677D2*
X11097D1*
X11202D2*
X11262D1*
X11517D2*
X11577D1*
X11840D2*
X12117D1*
X12222D2*
X12282D1*
X12672D2*
X13092D1*
X13632D2*
X13692D1*
X14158D2*
X14217D1*
X14487D2*
X14546D1*
X6012Y15882D2*
X6087D1*
X6417D2*
X6492D1*
X6999D2*
X7094D1*
X7242D2*
X7317D1*
X7597D2*
X7679D1*
X7782D2*
X8007D1*
X8469D2*
X8564D1*
X8712D2*
X8787D1*
X9297D2*
X9372D1*
X9762D2*
X9837D1*
X9972D2*
X10032D1*
X10272D2*
X10332D1*
X10482D2*
X10542D1*
X10677D2*
X11097D1*
X11202D2*
X11262D1*
X11517D2*
X11577D1*
X11805D2*
X12117D1*
X12222D2*
X12282D1*
X12672D2*
X13092D1*
X13632D2*
X13692D1*
X14160D2*
X14217D1*
X14487D2*
X14545D1*
X6013Y15867D2*
X6087D1*
X6417D2*
X6491D1*
X7014D2*
X7100D1*
X7242D2*
X7317D1*
X7609D2*
X7685D1*
X7782D2*
X8007D1*
X8484D2*
X8570D1*
X8712D2*
X8787D1*
X9297D2*
X9372D1*
X9762D2*
X9837D1*
X9972D2*
X10032D1*
X10272D2*
X10332D1*
X10482D2*
X10542D1*
X10677D2*
X11097D1*
X11202D2*
X11262D1*
X11517D2*
X11577D1*
X11780D2*
X12015D1*
X12057D2*
X12117D1*
X12222D2*
X12282D1*
X12672D2*
X13092D1*
X13632D2*
X13692D1*
X14163D2*
X14218D1*
X14486D2*
X14541D1*
X6015Y15852D2*
X6088D1*
X6416D2*
X6490D1*
X6627D2*
X6702D1*
X7025D2*
X7104D1*
X7242D2*
X7317D1*
X7613D2*
X7689D1*
X7782D2*
X8007D1*
X8097D2*
X8172D1*
X8495D2*
X8574D1*
X8712D2*
X8787D1*
X9297D2*
X9372D1*
X9762D2*
X9837D1*
X9972D2*
X10032D1*
X10272D2*
X10332D1*
X10482D2*
X10542D1*
X10678D2*
X10738D1*
X11202D2*
X11262D1*
X11517D2*
X11577D1*
X11763D2*
X11936D1*
X12057D2*
X12117D1*
X12223D2*
X12282D1*
X12673D2*
X12733D1*
X13632D2*
X13692D1*
X14167D2*
X14220D1*
X14485D2*
X14537D1*
X6018Y15837D2*
X6090D1*
X6415D2*
X6486D1*
X6629D2*
X6704D1*
X7029D2*
X7106D1*
X7242D2*
X7317D1*
X7615D2*
X7691D1*
X8099D2*
X8174D1*
X8499D2*
X8576D1*
X8712D2*
X8787D1*
X9297D2*
X9372D1*
X9762D2*
X9837D1*
X9972D2*
X10032D1*
X10272D2*
X10332D1*
X10482D2*
X10542D1*
X10680D2*
X10740D1*
X11202D2*
X11262D1*
X11517D2*
X11577D1*
X11750D2*
X11875D1*
X12057D2*
X12117D1*
X12225D2*
X12283D1*
X12675D2*
X12735D1*
X13632D2*
X13692D1*
X14170D2*
X14223D1*
X14481D2*
X14534D1*
X6022Y15822D2*
X6093D1*
X6411D2*
X6482D1*
X6633D2*
X6709D1*
X7030D2*
X7106D1*
X7242D2*
X7317D1*
X7616D2*
X7691D1*
X8103D2*
X8179D1*
X8500D2*
X8576D1*
X8712D2*
X8787D1*
X9297D2*
X9372D1*
X9762D2*
X9837D1*
X9972D2*
X10032D1*
X10272D2*
X10332D1*
X10482D2*
X10542D1*
X10683D2*
X10743D1*
X11202D2*
X11262D1*
X11517D2*
X11577D1*
X11740D2*
X11835D1*
X12056D2*
X12117D1*
X12228D2*
X12285D1*
X12678D2*
X12738D1*
X13632D2*
X13692D1*
X14172D2*
X14228D1*
X14476D2*
X14532D1*
X6025Y15807D2*
X6098D1*
X6406D2*
X6479D1*
X6638D2*
X6714D1*
X7031D2*
X7104D1*
X7242D2*
X7317D1*
X7614D2*
X7689D1*
X8108D2*
X8184D1*
X8501D2*
X8574D1*
X8712D2*
X8787D1*
X9297D2*
X9372D1*
X9762D2*
X9837D1*
X9972D2*
X10032D1*
X10272D2*
X10332D1*
X10482D2*
X10542D1*
X10688D2*
X10748D1*
X11202D2*
X11262D1*
X11517D2*
X11577D1*
X11734D2*
X11807D1*
X12054D2*
X12117D1*
X12233D2*
X12289D1*
X12567D2*
X12582D1*
X12683D2*
X12743D1*
X13632D2*
X13692D1*
X14174D2*
X14233D1*
X14471D2*
X14530D1*
X6028Y15792D2*
X6103D1*
X6401D2*
X6476D1*
X6642D2*
X6721D1*
X7029D2*
X7101D1*
X7242D2*
X7317D1*
X7610D2*
X7686D1*
X8112D2*
X8191D1*
X8499D2*
X8571D1*
X8712D2*
X8787D1*
X9297D2*
X9372D1*
X9762D2*
X9837D1*
X9972D2*
X10032D1*
X10272D2*
X10332D1*
X10482D2*
X10542D1*
X10692D2*
X10753D1*
X11202D2*
X11262D1*
X11517D2*
X11577D1*
X11730D2*
X11796D1*
X12048D2*
X12117D1*
X12237D2*
X12295D1*
X12561D2*
X12627D1*
X12687D2*
X12748D1*
X13632D2*
X13692D1*
X14179D2*
X14240D1*
X14464D2*
X14525D1*
X6033Y15777D2*
X6110D1*
X6394D2*
X6471D1*
X6648D2*
X6730D1*
X7024D2*
X7096D1*
X7242D2*
X7317D1*
X7603D2*
X7681D1*
X8118D2*
X8200D1*
X8494D2*
X8566D1*
X8712D2*
X8787D1*
X9297D2*
X9372D1*
X9762D2*
X9837D1*
X9972D2*
X10032D1*
X10272D2*
X10332D1*
X10482D2*
X10542D1*
X10698D2*
X10760D1*
X11037D2*
X11052D1*
X11202D2*
X11262D1*
X11517D2*
X11577D1*
X11729D2*
X11791D1*
X12038D2*
X12117D1*
X12242D2*
X12304D1*
X12554D2*
X12620D1*
X12693D2*
X12755D1*
X13032D2*
X13047D1*
X13632D2*
X13692D1*
X14184D2*
X14251D1*
X14453D2*
X14520D1*
X6037Y15762D2*
X6122D1*
X6382D2*
X6465D1*
X6655D2*
X6740D1*
X7012D2*
X7091D1*
X7242D2*
X7317D1*
X7592D2*
X7676D1*
X8125D2*
X8210D1*
X8482D2*
X8561D1*
X8712D2*
X8787D1*
X9297D2*
X9372D1*
X9762D2*
X9837D1*
X9972D2*
X10032D1*
X10272D2*
X10332D1*
X10482D2*
X10543D1*
X10704D2*
X10772D1*
X11021D2*
X11097D1*
X11202D2*
X11262D1*
X11517D2*
X11577D1*
X11730D2*
X11790D1*
X12024D2*
X12117D1*
X12247D2*
X12316D1*
X12544D2*
X12613D1*
X12699D2*
X12767D1*
X13016D2*
X13092D1*
X13632D2*
X13692D1*
X14191D2*
X14265D1*
X14439D2*
X14513D1*
X6043Y15747D2*
X6137D1*
X6367D2*
X6458D1*
X6663D2*
X6764D1*
X6997D2*
X7084D1*
X7242D2*
X7317D1*
X7575D2*
X7669D1*
X8133D2*
X8234D1*
X8467D2*
X8554D1*
X8712D2*
X8787D1*
X9297D2*
X9372D1*
X9762D2*
X9837D1*
X9972D2*
X10032D1*
X10272D2*
X10332D1*
X10482D2*
X10545D1*
X10711D2*
X10787D1*
X10999D2*
X11087D1*
X11202D2*
X11262D1*
X11517D2*
X11577D1*
X11733D2*
X11799D1*
X12008D2*
X12117D1*
X12253D2*
X12332D1*
X12531D2*
X12607D1*
X12706D2*
X12782D1*
X12994D2*
X13082D1*
X13632D2*
X13692D1*
X14198D2*
X14297D1*
X14407D2*
X14505D1*
X6050Y15732D2*
X6182D1*
X6322D2*
X6450D1*
X6673D2*
X6809D1*
X6952D2*
X7073D1*
X7242D2*
X7317D1*
X7552D2*
X7658D1*
X8143D2*
X8279D1*
X8422D2*
X8543D1*
X8712D2*
X8787D1*
X9297D2*
X9372D1*
X9762D2*
X9837D1*
X9972D2*
X10032D1*
X10272D2*
X10332D1*
X10483D2*
X10555D1*
X10719D2*
X10829D1*
X10959D2*
X11077D1*
X11202D2*
X11262D1*
X11517D2*
X11577D1*
X11738D2*
X11838D1*
X11965D2*
X12118D1*
X12260D2*
X12371D1*
X12492D2*
X12600D1*
X12714D2*
X12824D1*
X12954D2*
X13072D1*
X13632D2*
X13692D1*
X14206D2*
X14349D1*
X14355D2*
X14496D1*
X6061Y15717D2*
X6253D1*
X6251D2*
X6440D1*
X6685D2*
X6882D1*
X6881D2*
X7060D1*
X7242D2*
X7645D1*
X8155D2*
X8352D1*
X8351D2*
X8530D1*
X8712D2*
X8787D1*
X9297D2*
X9372D1*
X9762D2*
X9837D1*
X9972D2*
X10032D1*
X10272D2*
X10332D1*
X10485D2*
X10576D1*
X10728D2*
X10895D1*
X10894D2*
X11064D1*
X11202D2*
X11262D1*
X11517D2*
X11577D1*
X11743D2*
X11902D1*
X11899D2*
X12120D1*
X12271D2*
X12432D1*
X12590D1*
X12723D2*
X12890D1*
X12889D2*
X13059D1*
X13632D2*
X13692D1*
X13947D2*
X14007D1*
X14216D2*
X14484D1*
X6075Y15702D2*
X6426D1*
X6699D2*
X7046D1*
X7242D2*
X7628D1*
X8169D2*
X8516D1*
X8712D2*
X8787D1*
X9297D2*
X9372D1*
X9762D2*
X9837D1*
X9972D2*
X10032D1*
X10272D2*
X10332D1*
X10489D2*
X10595D1*
X10741D2*
X11050D1*
X11202D2*
X11262D1*
X11517D2*
X11577D1*
X11751D2*
X12026D1*
X12055D2*
X12124D1*
X12284D2*
X12578D1*
X12736D2*
X13045D1*
X13632D2*
X13692D1*
X13947D2*
X14007D1*
X14231D2*
X14470D1*
X6094Y15687D2*
X6406D1*
X6719D2*
X7027D1*
X7242D2*
X7605D1*
X8189D2*
X8497D1*
X8712D2*
X8787D1*
X9297D2*
X9372D1*
X9762D2*
X9837D1*
X9972D2*
X10032D1*
X10272D2*
X10332D1*
X10496D2*
X10609D1*
X10757D2*
X11033D1*
X11202D2*
X11262D1*
X11517D2*
X11577D1*
X11764D2*
X12008D1*
X12066D2*
X12130D1*
X12301D2*
X12562D1*
X12752D2*
X13028D1*
X13632D2*
X13692D1*
X13947D2*
X14007D1*
X14251D2*
X14451D1*
X6121Y15672D2*
X6379D1*
X6746D2*
X7002D1*
X7242D2*
X7575D1*
X8216D2*
X8472D1*
X8712D2*
X8787D1*
X9297D2*
X9372D1*
X9762D2*
X9837D1*
X9972D2*
X10032D1*
X10272D2*
X10332D1*
X10507D2*
X10621D1*
X10780D2*
X11010D1*
X11202D2*
X11262D1*
X11517D2*
X11577D1*
X11783D2*
X11985D1*
X12076D2*
X12138D1*
X12324D2*
X12539D1*
X12775D2*
X13005D1*
X13632D2*
X13692D1*
X13947D2*
X14007D1*
X14277D2*
X14426D1*
X6155Y15657D2*
X6347D1*
X6781D2*
X6967D1*
X7242D2*
X7542D1*
X8251D2*
X8437D1*
X8712D2*
X8787D1*
X9297D2*
X9372D1*
X9762D2*
X9837D1*
X9972D2*
X10032D1*
X10272D2*
X10332D1*
X10523D2*
X10632D1*
X10809D2*
X10980D1*
X11202D2*
X11262D1*
X11517D2*
X11577D1*
X11806D2*
X11955D1*
X12087D2*
X12147D1*
X12354D2*
X12510D1*
X12804D2*
X12975D1*
X13632D2*
X13692D1*
X13947D2*
X14007D1*
X14307D2*
X14397D1*
X6192Y15642D2*
X6312D1*
X6822D2*
X6927D1*
X8292D2*
X8397D1*
X10542D2*
X10617D1*
X10842D2*
X10947D1*
X11832D2*
X11922D1*
X12387D2*
X12477D1*
X12837D2*
X12942D1*
X6822Y16287D2*
X6781Y16272D1*
X6749Y16257D1*
X6724Y16242D1*
X6706Y16227D1*
X6691Y16212D1*
X6681Y16197D1*
X6674Y16182D1*
X6668Y16167D1*
X6663Y16152D1*
X6660Y16137D1*
X6659Y16122D1*
X6660Y16107D1*
X6663Y16092D1*
X6668Y16077D1*
X6673Y16062D1*
X6680Y16047D1*
X6691Y16032D1*
X6707Y16017D1*
X6727Y16002D1*
X6753Y15987D1*
X6784Y15972D1*
X6823Y15957D1*
X6866Y15942D1*
X6908Y15927D1*
X6946Y15912D1*
X6977Y15897D1*
X6999Y15882D1*
X7014Y15867D1*
X7025Y15852D1*
X7029Y15837D1*
X7030Y15822D1*
X7031Y15807D1*
X7029Y15792D1*
X7024Y15777D1*
X7012Y15762D1*
X6997Y15747D1*
X6952Y15732D1*
X6881Y15717D1*
X6792Y15702D1*
X6927Y16287D2*
X6961Y16272D1*
X6991Y16257D1*
X7015Y16242D1*
X7033Y16227D1*
X7048Y16212D1*
X7060Y16197D1*
X7069Y16182D1*
X7076Y16167D1*
X7081Y16152D1*
X7086Y16137D1*
X7090Y16122D1*
X7092Y16107D1*
X8292Y16287D2*
X8251Y16272D1*
X8219Y16257D1*
X8194Y16242D1*
X8176Y16227D1*
X8161Y16212D1*
X8151Y16197D1*
X8144Y16182D1*
X8138Y16167D1*
X8133Y16152D1*
X8130Y16137D1*
X8129Y16122D1*
X8130Y16107D1*
X8133Y16092D1*
X8138Y16077D1*
X8143Y16062D1*
X8150Y16047D1*
X8161Y16032D1*
X8177Y16017D1*
X8197Y16002D1*
X8223Y15987D1*
X8254Y15972D1*
X8293Y15957D1*
X8336Y15942D1*
X8378Y15927D1*
X8416Y15912D1*
X8447Y15897D1*
X8469Y15882D1*
X8484Y15867D1*
X8495Y15852D1*
X8499Y15837D1*
X8500Y15822D1*
X8501Y15807D1*
X8499Y15792D1*
X8494Y15777D1*
X8482Y15762D1*
X8467Y15747D1*
X8422Y15732D1*
X8351Y15717D1*
X8262Y15702D1*
X8397Y16287D2*
X8431Y16272D1*
X8461Y16257D1*
X8485Y16242D1*
X8503Y16227D1*
X8518Y16212D1*
X8530Y16197D1*
X8539Y16182D1*
X8546Y16167D1*
X8551Y16152D1*
X8556Y16137D1*
X8560Y16122D1*
X8562Y16107D1*
X6012Y16272D2*
Y16257D1*
Y16242D1*
Y16227D1*
Y16212D1*
Y16197D1*
Y16182D1*
Y16167D1*
Y16152D1*
Y16137D1*
Y16122D1*
Y16107D1*
Y16092D1*
Y16077D1*
Y16062D1*
Y16047D1*
Y16032D1*
Y16017D1*
Y16002D1*
Y15987D1*
Y15972D1*
Y15957D1*
Y15942D1*
Y15927D1*
Y15912D1*
Y15897D1*
Y15882D1*
X6013Y15867D1*
X6015Y15852D1*
X6018Y15837D1*
X6022Y15822D1*
X6025Y15807D1*
X6028Y15792D1*
X6033Y15777D1*
X6037Y15762D1*
X6043Y15747D1*
X6050Y15732D1*
X6061Y15717D1*
X6075Y15702D1*
X6094Y15687D1*
X6121Y15672D1*
X6155Y15657D1*
X6192Y15642D1*
X6087Y16272D2*
Y16257D1*
Y16242D1*
Y16227D1*
Y16212D1*
Y16197D1*
Y16182D1*
Y16167D1*
Y16152D1*
Y16137D1*
Y16122D1*
Y16107D1*
Y16092D1*
Y16077D1*
Y16062D1*
Y16047D1*
Y16032D1*
Y16017D1*
Y16002D1*
Y15987D1*
Y15972D1*
Y15957D1*
Y15942D1*
Y15927D1*
Y15912D1*
Y15897D1*
Y15882D1*
Y15867D1*
X6088Y15852D1*
X6090Y15837D1*
X6093Y15822D1*
X6098Y15807D1*
X6103Y15792D1*
X6110Y15777D1*
X6122Y15762D1*
X6137Y15747D1*
X6182Y15732D1*
X6253Y15717D1*
X6342Y15702D1*
X6417Y16272D2*
Y16257D1*
Y16242D1*
Y16227D1*
Y16212D1*
Y16197D1*
Y16182D1*
Y16167D1*
Y16152D1*
Y16137D1*
Y16122D1*
Y16107D1*
Y16092D1*
Y16077D1*
Y16062D1*
Y16047D1*
Y16032D1*
Y16017D1*
Y16002D1*
Y15987D1*
Y15972D1*
Y15957D1*
Y15942D1*
Y15927D1*
Y15912D1*
Y15897D1*
Y15882D1*
Y15867D1*
X6416Y15852D1*
X6415Y15837D1*
X6411Y15822D1*
X6406Y15807D1*
X6401Y15792D1*
X6394Y15777D1*
X6382Y15762D1*
X6367Y15747D1*
X6322Y15732D1*
X6251Y15717D1*
X6162Y15702D1*
X6492Y16272D2*
Y16257D1*
Y16242D1*
Y16227D1*
Y16212D1*
Y16197D1*
Y16182D1*
Y16167D1*
Y16152D1*
Y16137D1*
Y16122D1*
Y16107D1*
Y16092D1*
Y16077D1*
Y16062D1*
Y16047D1*
Y16032D1*
Y16017D1*
Y16002D1*
Y15987D1*
Y15972D1*
Y15957D1*
Y15942D1*
Y15927D1*
Y15912D1*
Y15897D1*
Y15882D1*
X6491Y15867D1*
X6490Y15852D1*
X6486Y15837D1*
X6482Y15822D1*
X6479Y15807D1*
X6476Y15792D1*
X6471Y15777D1*
X6465Y15762D1*
X6458Y15747D1*
X6450Y15732D1*
X6440Y15717D1*
X6426Y15702D1*
X6406Y15687D1*
X6379Y15672D1*
X6347Y15657D1*
X6312Y15642D1*
X7242Y16272D2*
Y16257D1*
Y16242D1*
Y16227D1*
Y16212D1*
Y16197D1*
Y16182D1*
Y16167D1*
Y16152D1*
Y16137D1*
Y16122D1*
Y16107D1*
Y16092D1*
Y16077D1*
Y16062D1*
Y16047D1*
Y16032D1*
Y16017D1*
Y16002D1*
Y15987D1*
Y15972D1*
Y15957D1*
Y15942D1*
Y15927D1*
Y15912D1*
Y15897D1*
Y15882D1*
Y15867D1*
Y15852D1*
Y15837D1*
Y15822D1*
Y15807D1*
Y15792D1*
Y15777D1*
Y15762D1*
Y15747D1*
Y15732D1*
Y15717D1*
Y15702D1*
Y15687D1*
Y15672D1*
Y15657D1*
X7527Y16272D2*
X7561Y16257D1*
X7588Y16242D1*
X7609Y16227D1*
X7623Y16212D1*
X7634Y16197D1*
X7642Y16182D1*
X7650Y16167D1*
X7656Y16152D1*
X7659Y16137D1*
X7660Y16122D1*
X7659Y16107D1*
X7656Y16092D1*
X7651Y16077D1*
X7646Y16062D1*
X7639Y16047D1*
X7628Y16032D1*
X7613Y16017D1*
X7593Y16002D1*
X7572Y15987D1*
X7592Y15972D1*
X7612Y15957D1*
X7629Y15942D1*
X7645Y15927D1*
X7659Y15912D1*
X7670Y15897D1*
X7679Y15882D1*
X7685Y15867D1*
X7689Y15852D1*
X7691Y15837D1*
Y15822D1*
X7689Y15807D1*
X7686Y15792D1*
X7681Y15777D1*
X7676Y15762D1*
X7669Y15747D1*
X7658Y15732D1*
X7645Y15717D1*
X7628Y15702D1*
X7605Y15687D1*
X7575Y15672D1*
X7542Y15657D1*
X8712Y16272D2*
Y16257D1*
Y16242D1*
Y16227D1*
Y16212D1*
Y16197D1*
Y16182D1*
Y16167D1*
Y16152D1*
Y16137D1*
Y16122D1*
Y16107D1*
Y16092D1*
Y16077D1*
Y16062D1*
Y16047D1*
Y16032D1*
Y16017D1*
Y16002D1*
Y15987D1*
Y15972D1*
Y15957D1*
Y15942D1*
Y15927D1*
Y15912D1*
Y15897D1*
Y15882D1*
Y15867D1*
Y15852D1*
Y15837D1*
Y15822D1*
Y15807D1*
Y15792D1*
Y15777D1*
Y15762D1*
Y15747D1*
Y15732D1*
Y15717D1*
Y15702D1*
Y15687D1*
Y15672D1*
Y15657D1*
X9012Y16272D2*
X9050Y16257D1*
X9079Y16242D1*
X9101Y16227D1*
X9117Y16212D1*
X9130Y16197D1*
X9139Y16182D1*
X9146Y16167D1*
X9151Y16152D1*
X9156Y16137D1*
X9159Y16122D1*
X9161Y16107D1*
Y16092D1*
X9159Y16077D1*
X9156Y16062D1*
X9151Y16047D1*
X9147Y16032D1*
X9141Y16017D1*
X9134Y16002D1*
X9125Y15987D1*
X9113Y15972D1*
X9097Y15957D1*
X9074Y15942D1*
X9045Y15927D1*
X9012Y15912D1*
X9297Y16272D2*
Y16257D1*
Y16242D1*
Y16227D1*
Y16212D1*
Y16197D1*
Y16182D1*
Y16167D1*
Y16152D1*
Y16137D1*
Y16122D1*
Y16107D1*
Y16092D1*
Y16077D1*
Y16062D1*
Y16047D1*
Y16032D1*
Y16017D1*
Y16002D1*
Y15987D1*
Y15972D1*
Y15957D1*
Y15942D1*
Y15927D1*
Y15912D1*
Y15897D1*
Y15882D1*
Y15867D1*
Y15852D1*
Y15837D1*
Y15822D1*
Y15807D1*
Y15792D1*
Y15777D1*
Y15762D1*
Y15747D1*
Y15732D1*
Y15717D1*
Y15702D1*
Y15687D1*
Y15672D1*
Y15657D1*
X9372Y16272D2*
Y16257D1*
Y16242D1*
Y16227D1*
Y16212D1*
Y16197D1*
Y16182D1*
Y16167D1*
Y16152D1*
Y16137D1*
Y16122D1*
Y16107D1*
Y16092D1*
Y16077D1*
Y16062D1*
Y16047D1*
Y16032D1*
Y16017D1*
Y16002D1*
Y15987D1*
Y15972D1*
Y15957D1*
Y15942D1*
Y15927D1*
Y15912D1*
Y15897D1*
Y15882D1*
Y15867D1*
Y15852D1*
Y15837D1*
Y15822D1*
Y15807D1*
Y15792D1*
Y15777D1*
Y15762D1*
Y15747D1*
Y15732D1*
Y15717D1*
Y15702D1*
Y15687D1*
Y15672D1*
Y15657D1*
X9762Y16272D2*
Y16257D1*
Y16242D1*
Y16227D1*
Y16212D1*
Y16197D1*
Y16182D1*
Y16167D1*
Y16152D1*
Y16137D1*
Y16122D1*
Y16107D1*
Y16092D1*
Y16077D1*
Y16062D1*
Y16047D1*
Y16032D1*
Y16017D1*
Y16002D1*
Y15987D1*
Y15972D1*
Y15957D1*
Y15942D1*
Y15927D1*
Y15912D1*
Y15897D1*
Y15882D1*
Y15867D1*
Y15852D1*
Y15837D1*
Y15822D1*
Y15807D1*
Y15792D1*
Y15777D1*
Y15762D1*
Y15747D1*
Y15732D1*
Y15717D1*
Y15702D1*
Y15687D1*
Y15672D1*
Y15657D1*
X9837Y16272D2*
Y16257D1*
Y16242D1*
Y16227D1*
Y16212D1*
Y16197D1*
Y16182D1*
Y16167D1*
Y16152D1*
Y16137D1*
Y16122D1*
Y16107D1*
Y16092D1*
Y16077D1*
Y16062D1*
Y16047D1*
Y16032D1*
Y16017D1*
Y16002D1*
Y15987D1*
Y15972D1*
Y15957D1*
Y15942D1*
Y15927D1*
Y15912D1*
Y15897D1*
Y15882D1*
Y15867D1*
Y15852D1*
Y15837D1*
Y15822D1*
Y15807D1*
Y15792D1*
Y15777D1*
Y15762D1*
Y15747D1*
Y15732D1*
Y15717D1*
Y15702D1*
Y15687D1*
Y15672D1*
Y15657D1*
X11592Y16272D2*
X11571Y16257D1*
X11553Y16242D1*
X11540Y16227D1*
X11531Y16212D1*
X11524Y16197D1*
X11520Y16182D1*
X11518Y16167D1*
X11516Y16152D1*
X11509Y16137D1*
X11486Y16122D1*
X11457Y16107D1*
X11682Y16272D2*
X11689Y16257D1*
X11694Y16242D1*
X11680Y16227D1*
X11649Y16212D1*
X11619Y16197D1*
X11594Y16182D1*
X11584Y16167D1*
X11580Y16152D1*
X11578Y16137D1*
X11577Y16122D1*
Y16107D1*
X11667D1*
Y16092D1*
Y16077D1*
Y16062D1*
Y16047D1*
Y16032D1*
X11577D1*
Y16017D1*
Y16002D1*
Y15987D1*
Y15972D1*
Y15957D1*
Y15942D1*
Y15927D1*
Y15912D1*
Y15897D1*
Y15882D1*
Y15867D1*
Y15852D1*
Y15837D1*
Y15822D1*
Y15807D1*
Y15792D1*
Y15777D1*
Y15762D1*
Y15747D1*
Y15732D1*
Y15717D1*
Y15702D1*
Y15687D1*
Y15672D1*
Y15657D1*
X10527Y16257D2*
X10510Y16242D1*
X10495Y16227D1*
X10488Y16212D1*
X10485Y16197D1*
X10483Y16182D1*
X10482Y16167D1*
Y16152D1*
Y16137D1*
Y16122D1*
Y16107D1*
X10422D1*
Y16092D1*
Y16077D1*
Y16062D1*
Y16047D1*
Y16032D1*
X10482D1*
Y16017D1*
Y16002D1*
Y15987D1*
Y15972D1*
Y15957D1*
Y15942D1*
Y15927D1*
Y15912D1*
Y15897D1*
Y15882D1*
Y15867D1*
Y15852D1*
Y15837D1*
Y15822D1*
Y15807D1*
Y15792D1*
Y15777D1*
Y15762D1*
Y15747D1*
X10483Y15732D1*
X10485Y15717D1*
X10489Y15702D1*
X10496Y15687D1*
X10507Y15672D1*
X10523Y15657D1*
X10542Y15642D1*
Y16257D2*
Y16242D1*
Y16227D1*
Y16212D1*
Y16197D1*
Y16182D1*
Y16167D1*
Y16152D1*
Y16137D1*
Y16122D1*
Y16107D1*
X10617D1*
Y16092D1*
Y16077D1*
Y16062D1*
Y16047D1*
Y16032D1*
X10542D1*
Y16017D1*
Y16002D1*
Y15987D1*
Y15972D1*
Y15957D1*
Y15942D1*
Y15927D1*
Y15912D1*
Y15897D1*
Y15882D1*
Y15867D1*
Y15852D1*
Y15837D1*
Y15822D1*
Y15807D1*
Y15792D1*
Y15777D1*
X10543Y15762D1*
X10545Y15747D1*
X10555Y15732D1*
X10576Y15717D1*
X10595Y15702D1*
X10609Y15687D1*
X10621Y15672D1*
X10632Y15657D1*
X10617Y15642D1*
X13662Y16257D2*
X13647Y16242D1*
X13632Y16227D1*
X13617Y16212D1*
X13601Y16197D1*
X13584Y16182D1*
X13565Y16167D1*
X13544Y16152D1*
X13522Y16137D1*
X13500Y16122D1*
X13482Y16107D1*
X13474Y16092D1*
X13470Y16077D1*
X13468Y16062D1*
X13467Y16047D1*
X13692Y16257D2*
Y16242D1*
Y16227D1*
Y16212D1*
Y16197D1*
Y16182D1*
Y16167D1*
Y16152D1*
Y16137D1*
Y16122D1*
Y16107D1*
Y16092D1*
Y16077D1*
Y16062D1*
Y16047D1*
Y16032D1*
Y16017D1*
Y16002D1*
Y15987D1*
Y15972D1*
Y15957D1*
Y15942D1*
Y15927D1*
Y15912D1*
Y15897D1*
Y15882D1*
Y15867D1*
Y15852D1*
Y15837D1*
Y15822D1*
Y15807D1*
Y15792D1*
Y15777D1*
Y15762D1*
Y15747D1*
Y15732D1*
Y15717D1*
Y15702D1*
Y15687D1*
Y15672D1*
Y15657D1*
X14307Y16257D2*
X14278Y16242D1*
X14255Y16227D1*
X14236Y16212D1*
X14221Y16197D1*
X14209Y16182D1*
X14200Y16167D1*
X14191Y16152D1*
X14184Y16137D1*
X14178Y16122D1*
X14175Y16107D1*
X14173Y16092D1*
X14170Y16077D1*
X14166Y16062D1*
X14162Y16047D1*
X14159Y16032D1*
X14158Y16017D1*
X14157Y16002D1*
Y15987D1*
Y15972D1*
Y15957D1*
Y15942D1*
Y15927D1*
Y15912D1*
X14158Y15897D1*
X14160Y15882D1*
X14163Y15867D1*
X14167Y15852D1*
X14170Y15837D1*
X14172Y15822D1*
X14174Y15807D1*
X14179Y15792D1*
X14184Y15777D1*
X14191Y15762D1*
X14198Y15747D1*
X14206Y15732D1*
X14216Y15717D1*
X14231Y15702D1*
X14251Y15687D1*
X14277Y15672D1*
X14307Y15657D1*
X14397Y16257D2*
X14426Y16242D1*
X14449Y16227D1*
X14468Y16212D1*
X14483Y16197D1*
X14495Y16182D1*
X14504Y16167D1*
X14511Y16152D1*
X14516Y16137D1*
X14522Y16122D1*
X14526Y16107D1*
X14530Y16092D1*
X14533Y16077D1*
X14538Y16062D1*
X14542Y16047D1*
X14545Y16032D1*
X14546Y16017D1*
X14547Y16002D1*
Y15987D1*
Y15972D1*
Y15957D1*
Y15942D1*
Y15927D1*
Y15912D1*
X14546Y15897D1*
X14545Y15882D1*
X14541Y15867D1*
X14537Y15852D1*
X14534Y15837D1*
X14532Y15822D1*
X14530Y15807D1*
X14525Y15792D1*
X14520Y15777D1*
X14513Y15762D1*
X14505Y15747D1*
X14496Y15732D1*
X14484Y15717D1*
X14470Y15702D1*
X14451Y15687D1*
X14426Y15672D1*
X14397Y15657D1*
X6822Y16227D2*
X6796Y16212D1*
X6774Y16197D1*
X6758Y16182D1*
X6747Y16167D1*
X6739Y16152D1*
X6735Y16137D1*
X6734Y16122D1*
Y16107D1*
X6741Y16092D1*
X6753Y16077D1*
X6771Y16062D1*
X6799Y16047D1*
X6837Y16032D1*
X6880Y16017D1*
X6925Y16002D1*
X6966Y15987D1*
X7000Y15972D1*
X7027Y15957D1*
X7047Y15942D1*
X7063Y15927D1*
X7075Y15912D1*
X7086Y15897D1*
X7094Y15882D1*
X7100Y15867D1*
X7104Y15852D1*
X7106Y15837D1*
Y15822D1*
X7104Y15807D1*
X7101Y15792D1*
X7096Y15777D1*
X7091Y15762D1*
X7084Y15747D1*
X7073Y15732D1*
X7060Y15717D1*
X7046Y15702D1*
X7027Y15687D1*
X7002Y15672D1*
X6967Y15657D1*
X6927Y15642D1*
X6912Y16227D2*
X6939Y16212D1*
X6962Y16197D1*
X6980Y16182D1*
X6994Y16167D1*
X7003Y16152D1*
X7010Y16137D1*
X7014Y16122D1*
X7017Y16107D1*
X8292Y16227D2*
X8266Y16212D1*
X8244Y16197D1*
X8228Y16182D1*
X8217Y16167D1*
X8209Y16152D1*
X8205Y16137D1*
X8204Y16122D1*
Y16107D1*
X8211Y16092D1*
X8223Y16077D1*
X8241Y16062D1*
X8269Y16047D1*
X8307Y16032D1*
X8350Y16017D1*
X8395Y16002D1*
X8436Y15987D1*
X8470Y15972D1*
X8497Y15957D1*
X8517Y15942D1*
X8533Y15927D1*
X8545Y15912D1*
X8556Y15897D1*
X8564Y15882D1*
X8570Y15867D1*
X8574Y15852D1*
X8576Y15837D1*
Y15822D1*
X8574Y15807D1*
X8571Y15792D1*
X8566Y15777D1*
X8561Y15762D1*
X8554Y15747D1*
X8543Y15732D1*
X8530Y15717D1*
X8516Y15702D1*
X8497Y15687D1*
X8472Y15672D1*
X8437Y15657D1*
X8397Y15642D1*
X8382Y16227D2*
X8409Y16212D1*
X8432Y16197D1*
X8450Y16182D1*
X8464Y16167D1*
X8473Y16152D1*
X8480Y16137D1*
X8484Y16122D1*
X8487Y16107D1*
X7317Y16212D2*
Y16197D1*
Y16182D1*
Y16167D1*
Y16152D1*
Y16137D1*
Y16122D1*
Y16107D1*
Y16092D1*
Y16077D1*
Y16062D1*
Y16047D1*
Y16032D1*
Y16017D1*
Y16002D1*
X7527Y16212D2*
X7541Y16197D1*
X7554Y16182D1*
X7565Y16167D1*
X7574Y16152D1*
X7580Y16137D1*
X7584Y16122D1*
X7586Y16107D1*
Y16092D1*
X7584Y16077D1*
X7579Y16062D1*
X7565Y16047D1*
X7546Y16032D1*
X7523Y16017D1*
X7497Y16002D1*
X8787Y16212D2*
Y16197D1*
Y16182D1*
Y16167D1*
Y16152D1*
Y16137D1*
Y16122D1*
Y16107D1*
Y16092D1*
Y16077D1*
Y16062D1*
Y16047D1*
Y16032D1*
Y16017D1*
Y16002D1*
Y15987D1*
Y15972D1*
X8997Y16212D2*
X9023Y16197D1*
X9045Y16182D1*
X9061Y16167D1*
X9072Y16152D1*
X9080Y16137D1*
X9084Y16122D1*
X9086Y16107D1*
Y16092D1*
Y16077D1*
X9084Y16062D1*
X9078Y16047D1*
X9068Y16032D1*
X9055Y16017D1*
X9041Y16002D1*
X9027Y15987D1*
X9012Y15972D1*
X14307Y16197D2*
X14292Y16182D1*
X14277Y16167D1*
X14263Y16152D1*
X14250Y16137D1*
X14241Y16122D1*
X14236Y16107D1*
X14231Y16092D1*
X14227Y16077D1*
X14222Y16062D1*
X14220Y16047D1*
X14218Y16032D1*
X14217Y16017D1*
Y16002D1*
Y15987D1*
Y15972D1*
Y15957D1*
Y15942D1*
Y15927D1*
Y15912D1*
Y15897D1*
Y15882D1*
X14218Y15867D1*
X14220Y15852D1*
X14223Y15837D1*
X14228Y15822D1*
X14233Y15807D1*
X14240Y15792D1*
X14251Y15777D1*
X14265Y15762D1*
X14297Y15747D1*
X14349Y15732D1*
X14412Y15717D1*
X14397Y16197D2*
X14412Y16182D1*
X14427Y16167D1*
X14441Y16152D1*
X14454Y16137D1*
X14463Y16122D1*
X14470Y16107D1*
X14476Y16092D1*
X14481Y16077D1*
X14484Y16062D1*
X14486Y16047D1*
X14487Y16032D1*
Y16017D1*
Y16002D1*
Y15987D1*
Y15972D1*
Y15957D1*
Y15942D1*
Y15927D1*
Y15912D1*
Y15897D1*
Y15882D1*
X14486Y15867D1*
X14485Y15852D1*
X14481Y15837D1*
X14476Y15822D1*
X14471Y15807D1*
X14464Y15792D1*
X14453Y15777D1*
X14439Y15762D1*
X14407Y15747D1*
X14355Y15732D1*
X14292Y15717D1*
X10152Y16122D2*
X10123Y16107D1*
X10099Y16092D1*
X10077Y16077D1*
X10055Y16062D1*
X10032Y16047D1*
X10227Y16122D2*
X10253Y16107D1*
X10275Y16092D1*
X10291Y16077D1*
X10303Y16062D1*
X10312Y16047D1*
X10320Y16032D1*
X10326Y16017D1*
X10329Y16002D1*
X10331Y15987D1*
X10332Y15972D1*
Y15957D1*
Y15942D1*
Y15927D1*
Y15912D1*
Y15897D1*
Y15882D1*
Y15867D1*
Y15852D1*
Y15837D1*
Y15822D1*
Y15807D1*
Y15792D1*
Y15777D1*
Y15762D1*
Y15747D1*
Y15732D1*
Y15717D1*
Y15702D1*
Y15687D1*
Y15672D1*
Y15657D1*
X10842Y16122D2*
X10808Y16107D1*
X10780Y16092D1*
X10758Y16077D1*
X10742Y16062D1*
X10730Y16047D1*
X10720Y16032D1*
X10711Y16017D1*
X10704Y16002D1*
X10698Y15987D1*
X10692Y15972D1*
X10687Y15957D1*
X10683Y15942D1*
X10680Y15927D1*
X10678Y15912D1*
X10677Y15897D1*
Y15882D1*
Y15867D1*
X10678Y15852D1*
X10680Y15837D1*
X10683Y15822D1*
X10688Y15807D1*
X10692Y15792D1*
X10698Y15777D1*
X10704Y15762D1*
X10711Y15747D1*
X10719Y15732D1*
X10728Y15717D1*
X10741Y15702D1*
X10757Y15687D1*
X10780Y15672D1*
X10809Y15657D1*
X10842Y15642D1*
X10932Y16122D2*
X10966Y16107D1*
X10994Y16092D1*
X11016Y16077D1*
X11032Y16062D1*
X11044Y16047D1*
X11054Y16032D1*
X11063Y16017D1*
X11070Y16002D1*
X11076Y15987D1*
X11082Y15972D1*
X11087Y15957D1*
X11091Y15942D1*
X11094Y15927D1*
X11096Y15912D1*
X11097Y15897D1*
Y15882D1*
Y15867D1*
X11337Y16122D2*
X11314Y16107D1*
X11293Y16092D1*
X11270Y16077D1*
X11247Y16062D1*
X11397Y16122D2*
X11427Y16107D1*
X11892Y16122D2*
X11851Y16107D1*
X11819Y16092D1*
X11795Y16077D1*
X11778Y16062D1*
X11767Y16047D1*
X11759Y16032D1*
X11751Y16017D1*
X11742Y16002D1*
X11787Y15987D1*
X11997Y16122D2*
X12031Y16107D1*
X12058Y16092D1*
X12079Y16077D1*
X12093Y16062D1*
X12103Y16047D1*
X12110Y16032D1*
X12114Y16017D1*
X12116Y16002D1*
Y15987D1*
X12117Y15972D1*
Y15957D1*
Y15942D1*
Y15927D1*
Y15912D1*
Y15897D1*
Y15882D1*
Y15867D1*
Y15852D1*
Y15837D1*
Y15822D1*
Y15807D1*
Y15792D1*
Y15777D1*
Y15762D1*
Y15747D1*
X12118Y15732D1*
X12120Y15717D1*
X12124Y15702D1*
X12130Y15687D1*
X12138Y15672D1*
X12147Y15657D1*
X12387Y16122D2*
X12353Y16107D1*
X12325Y16092D1*
X12303Y16077D1*
X12285Y16062D1*
X12271Y16047D1*
X12261Y16032D1*
X12254Y16017D1*
X12248Y16002D1*
X12242Y15987D1*
X12237Y15972D1*
X12232Y15957D1*
X12228Y15942D1*
X12225Y15927D1*
X12223Y15912D1*
X12222Y15897D1*
Y15882D1*
Y15867D1*
X12223Y15852D1*
X12225Y15837D1*
X12228Y15822D1*
X12233Y15807D1*
X12237Y15792D1*
X12242Y15777D1*
X12247Y15762D1*
X12253Y15747D1*
X12260Y15732D1*
X12271Y15717D1*
X12284Y15702D1*
X12301Y15687D1*
X12324Y15672D1*
X12354Y15657D1*
X12387Y15642D1*
X12477Y16122D2*
X12508Y16107D1*
X12533Y16092D1*
X12553Y16077D1*
X12568Y16062D1*
X12580Y16047D1*
X12589Y16032D1*
X12596Y16017D1*
X12604Y16002D1*
X12612Y15987D1*
X12567Y15972D1*
X12837Y16122D2*
X12803Y16107D1*
X12775Y16092D1*
X12753Y16077D1*
X12737Y16062D1*
X12725Y16047D1*
X12715Y16032D1*
X12706Y16017D1*
X12699Y16002D1*
X12693Y15987D1*
X12687Y15972D1*
X12682Y15957D1*
X12678Y15942D1*
X12675Y15927D1*
X12673Y15912D1*
X12672Y15897D1*
Y15882D1*
Y15867D1*
X12673Y15852D1*
X12675Y15837D1*
X12678Y15822D1*
X12683Y15807D1*
X12687Y15792D1*
X12693Y15777D1*
X12699Y15762D1*
X12706Y15747D1*
X12714Y15732D1*
X12723Y15717D1*
X12736Y15702D1*
X12752Y15687D1*
X12775Y15672D1*
X12804Y15657D1*
X12837Y15642D1*
X12927Y16122D2*
X12961Y16107D1*
X12989Y16092D1*
X13011Y16077D1*
X13027Y16062D1*
X13039Y16047D1*
X13049Y16032D1*
X13058Y16017D1*
X13065Y16002D1*
X13071Y15987D1*
X13077Y15972D1*
X13082Y15957D1*
X13086Y15942D1*
X13089Y15927D1*
X13091Y15912D1*
X13092Y15897D1*
Y15882D1*
Y15867D1*
X13617Y16137D2*
X13600Y16122D1*
X13580Y16107D1*
X13556Y16092D1*
X13529Y16077D1*
X13499Y16062D1*
X13467Y16047D1*
X13632Y16137D2*
Y16122D1*
Y16107D1*
Y16092D1*
Y16077D1*
Y16062D1*
Y16047D1*
Y16032D1*
Y16017D1*
Y16002D1*
Y15987D1*
Y15972D1*
Y15957D1*
Y15942D1*
Y15927D1*
Y15912D1*
Y15897D1*
Y15882D1*
Y15867D1*
Y15852D1*
Y15837D1*
Y15822D1*
Y15807D1*
Y15792D1*
Y15777D1*
Y15762D1*
Y15747D1*
Y15732D1*
Y15717D1*
Y15702D1*
Y15687D1*
Y15672D1*
Y15657D1*
X9972Y16107D2*
Y16092D1*
Y16077D1*
Y16062D1*
Y16047D1*
Y16032D1*
Y16017D1*
Y16002D1*
Y15987D1*
Y15972D1*
Y15957D1*
Y15942D1*
Y15927D1*
Y15912D1*
Y15897D1*
Y15882D1*
Y15867D1*
Y15852D1*
Y15837D1*
Y15822D1*
Y15807D1*
Y15792D1*
Y15777D1*
Y15762D1*
Y15747D1*
Y15732D1*
Y15717D1*
Y15702D1*
Y15687D1*
Y15672D1*
Y15657D1*
X10032Y16107D2*
X10033Y16092D1*
X10035Y16077D1*
X10040Y16062D1*
X10047Y16047D1*
X11202Y16107D2*
Y16092D1*
Y16077D1*
Y16062D1*
Y16047D1*
Y16032D1*
Y16017D1*
Y16002D1*
Y15987D1*
Y15972D1*
Y15957D1*
Y15942D1*
Y15927D1*
Y15912D1*
Y15897D1*
Y15882D1*
Y15867D1*
Y15852D1*
Y15837D1*
Y15822D1*
Y15807D1*
Y15792D1*
Y15777D1*
Y15762D1*
Y15747D1*
Y15732D1*
Y15717D1*
Y15702D1*
Y15687D1*
Y15672D1*
Y15657D1*
X11247Y16107D2*
X11250Y16092D1*
X11255Y16077D1*
X11262Y16062D1*
X11427Y16092D2*
Y16077D1*
Y16062D1*
X11366Y16047D1*
X11323Y16032D1*
X11293Y16017D1*
X11282Y16002D1*
X11274Y15987D1*
X11268Y15972D1*
X11265Y15957D1*
X11263Y15942D1*
X11262Y15927D1*
Y15912D1*
Y15897D1*
Y15882D1*
Y15867D1*
Y15852D1*
Y15837D1*
Y15822D1*
Y15807D1*
Y15792D1*
Y15777D1*
Y15762D1*
Y15747D1*
Y15732D1*
Y15717D1*
Y15702D1*
Y15687D1*
Y15672D1*
Y15657D1*
X11457Y16092D2*
Y16077D1*
Y16062D1*
Y16047D1*
Y16032D1*
X11517D1*
Y16017D1*
Y16002D1*
Y15987D1*
Y15972D1*
Y15957D1*
Y15942D1*
Y15927D1*
Y15912D1*
Y15897D1*
Y15882D1*
Y15867D1*
Y15852D1*
Y15837D1*
Y15822D1*
Y15807D1*
Y15792D1*
Y15777D1*
Y15762D1*
Y15747D1*
Y15732D1*
Y15717D1*
Y15702D1*
Y15687D1*
Y15672D1*
Y15657D1*
X10137Y16062D2*
X10110Y16047D1*
X10087Y16032D1*
X10069Y16017D1*
X10055Y16002D1*
X10046Y15987D1*
X10039Y15972D1*
X10035Y15957D1*
X10033Y15942D1*
Y15927D1*
X10032Y15912D1*
Y15897D1*
Y15882D1*
Y15867D1*
Y15852D1*
Y15837D1*
Y15822D1*
Y15807D1*
Y15792D1*
Y15777D1*
Y15762D1*
Y15747D1*
Y15732D1*
Y15717D1*
Y15702D1*
Y15687D1*
Y15672D1*
Y15657D1*
X10182Y16062D2*
X10208Y16047D1*
X10230Y16032D1*
X10246Y16017D1*
X10257Y16002D1*
X10265Y15987D1*
X10269Y15972D1*
X10271Y15957D1*
Y15942D1*
X10272Y15927D1*
Y15912D1*
Y15897D1*
Y15882D1*
Y15867D1*
Y15852D1*
Y15837D1*
Y15822D1*
Y15807D1*
Y15792D1*
Y15777D1*
Y15762D1*
Y15747D1*
Y15732D1*
Y15717D1*
Y15702D1*
Y15687D1*
Y15672D1*
Y15657D1*
X10857Y16062D2*
X10830Y16047D1*
X10806Y16032D1*
X10786Y16017D1*
X10769Y16002D1*
X10756Y15987D1*
X10745Y15972D1*
X10741Y15957D1*
X10739Y15942D1*
X10737Y15927D1*
X10917Y16062D2*
X10946Y16047D1*
X10973Y16032D1*
X10995Y16017D1*
X11011Y16002D1*
X11022Y15987D1*
X11030Y15972D1*
X11034Y15957D1*
X11036Y15942D1*
X11037Y15927D1*
X11892Y16062D2*
X11865Y16047D1*
X11842Y16032D1*
X11824Y16017D1*
X11812Y16002D1*
X11802Y15987D1*
X11997Y16062D2*
X12012Y16047D1*
X12026Y16032D1*
X12039Y16017D1*
X12048Y16002D1*
X12054Y15987D1*
X12053Y15972D1*
X12040Y15957D1*
X11999Y15942D1*
X11944Y15927D1*
X11887Y15912D1*
X11840Y15897D1*
X11805Y15882D1*
X11780Y15867D1*
X11763Y15852D1*
X11750Y15837D1*
X11740Y15822D1*
X11734Y15807D1*
X11730Y15792D1*
X11729Y15777D1*
X11730Y15762D1*
X11733Y15747D1*
X11738Y15732D1*
X11743Y15717D1*
X11751Y15702D1*
X11764Y15687D1*
X11783Y15672D1*
X11806Y15657D1*
X11832Y15642D1*
X12402Y16062D2*
X12375Y16047D1*
X12351Y16032D1*
X12332Y16017D1*
X12316Y16002D1*
X12304Y15987D1*
X12295Y15972D1*
X12289Y15957D1*
X12285Y15942D1*
X12283Y15927D1*
Y15912D1*
X12282Y15897D1*
Y15882D1*
Y15867D1*
Y15852D1*
X12283Y15837D1*
X12285Y15822D1*
X12289Y15807D1*
X12295Y15792D1*
X12304Y15777D1*
X12316Y15762D1*
X12332Y15747D1*
X12371Y15732D1*
X12432Y15717D1*
X12507Y15702D1*
X12477Y16062D2*
X12492Y16047D1*
X12507Y16032D1*
X12521Y16017D1*
X12534Y16002D1*
X12544Y15987D1*
X12552Y15972D1*
X12852Y16062D2*
X12825Y16047D1*
X12801Y16032D1*
X12781Y16017D1*
X12764Y16002D1*
X12751Y15987D1*
X12740Y15972D1*
X12736Y15957D1*
X12734Y15942D1*
X12732Y15927D1*
X12912Y16062D2*
X12941Y16047D1*
X12968Y16032D1*
X12990Y16017D1*
X13006Y16002D1*
X13017Y15987D1*
X13025Y15972D1*
X13029Y15957D1*
X13031Y15942D1*
X13032Y15927D1*
X7317Y15942D2*
Y15927D1*
Y15912D1*
Y15897D1*
Y15882D1*
Y15867D1*
Y15852D1*
Y15837D1*
Y15822D1*
Y15807D1*
Y15792D1*
Y15777D1*
Y15762D1*
Y15747D1*
Y15732D1*
Y15717D1*
X7512Y15942D2*
X7539Y15927D1*
X7563Y15912D1*
X7582Y15897D1*
X7597Y15882D1*
X7609Y15867D1*
X7613Y15852D1*
X7615Y15837D1*
X7616Y15822D1*
X7614Y15807D1*
X7610Y15792D1*
X7603Y15777D1*
X7592Y15762D1*
X7575Y15747D1*
X7552Y15732D1*
X7527Y15717D1*
X7782Y15912D2*
Y15897D1*
Y15882D1*
Y15867D1*
Y15852D1*
X8007Y15912D2*
Y15897D1*
Y15882D1*
Y15867D1*
Y15852D1*
X8787Y15912D2*
Y15897D1*
Y15882D1*
Y15867D1*
Y15852D1*
Y15837D1*
Y15822D1*
Y15807D1*
Y15792D1*
Y15777D1*
Y15762D1*
Y15747D1*
Y15732D1*
Y15717D1*
Y15702D1*
Y15687D1*
Y15672D1*
Y15657D1*
X12102Y15882D2*
X12015Y15867D1*
X11936Y15852D1*
X11875Y15837D1*
X11835Y15822D1*
X11807Y15807D1*
X11796Y15792D1*
X11791Y15777D1*
X11790Y15762D1*
X11799Y15747D1*
X11838Y15732D1*
X11902Y15717D1*
X11982Y15702D1*
X12057Y15882D2*
Y15867D1*
Y15852D1*
Y15837D1*
X12056Y15822D1*
X12054Y15807D1*
X12048Y15792D1*
X12038Y15777D1*
X12024Y15762D1*
X12008Y15747D1*
X11965Y15732D1*
X11899Y15717D1*
X11817Y15702D1*
X6627Y15852D2*
X6629Y15837D1*
X6633Y15822D1*
X6638Y15807D1*
X6642Y15792D1*
X6648Y15777D1*
X6655Y15762D1*
X6663Y15747D1*
X6673Y15732D1*
X6685Y15717D1*
X6699Y15702D1*
X6719Y15687D1*
X6746Y15672D1*
X6781Y15657D1*
X6822Y15642D1*
X6702Y15852D2*
X6704Y15837D1*
X6709Y15822D1*
X6714Y15807D1*
X6721Y15792D1*
X6730Y15777D1*
X6740Y15762D1*
X6764Y15747D1*
X6809Y15732D1*
X6882Y15717D1*
X6972Y15702D1*
X8097Y15852D2*
X8099Y15837D1*
X8103Y15822D1*
X8108Y15807D1*
X8112Y15792D1*
X8118Y15777D1*
X8125Y15762D1*
X8133Y15747D1*
X8143Y15732D1*
X8155Y15717D1*
X8169Y15702D1*
X8189Y15687D1*
X8216Y15672D1*
X8251Y15657D1*
X8292Y15642D1*
X8172Y15852D2*
X8174Y15837D1*
X8179Y15822D1*
X8184Y15807D1*
X8191Y15792D1*
X8200Y15777D1*
X8210Y15762D1*
X8234Y15747D1*
X8279Y15732D1*
X8352Y15717D1*
X8442Y15702D1*
X10737Y15867D2*
X10738Y15852D1*
X10740Y15837D1*
X10743Y15822D1*
X10748Y15807D1*
X10753Y15792D1*
X10760Y15777D1*
X10772Y15762D1*
X10787Y15747D1*
X10829Y15732D1*
X10895Y15717D1*
X10977Y15702D1*
X12732Y15867D2*
X12733Y15852D1*
X12735Y15837D1*
X12738Y15822D1*
X12743Y15807D1*
X12748Y15792D1*
X12755Y15777D1*
X12767Y15762D1*
X12782Y15747D1*
X12824Y15732D1*
X12890Y15717D1*
X12972Y15702D1*
X12567Y15807D2*
X12561Y15792D1*
X12554Y15777D1*
X12544Y15762D1*
X12531Y15747D1*
X12492Y15732D1*
X12432Y15717D1*
X12357Y15702D1*
X12582Y15807D2*
X12627Y15792D1*
X12620Y15777D1*
X12613Y15762D1*
X12607Y15747D1*
X12600Y15732D1*
X12590Y15717D1*
X12578Y15702D1*
X12562Y15687D1*
X12539Y15672D1*
X12510Y15657D1*
X12477Y15642D1*
X11037Y15777D2*
X11021Y15762D1*
X10999Y15747D1*
X10959Y15732D1*
X10894Y15717D1*
X10812Y15702D1*
X11052Y15777D2*
X11097Y15762D1*
X11087Y15747D1*
X11077Y15732D1*
X11064Y15717D1*
X11050Y15702D1*
X11033Y15687D1*
X11010Y15672D1*
X10980Y15657D1*
X10947Y15642D1*
X13032Y15777D2*
X13016Y15762D1*
X12994Y15747D1*
X12954Y15732D1*
X12889Y15717D1*
X12807Y15702D1*
X13047Y15777D2*
X13092Y15762D1*
X13082Y15747D1*
X13072Y15732D1*
X13059Y15717D1*
X13045Y15702D1*
X13028Y15687D1*
X13005Y15672D1*
X12975Y15657D1*
X12942Y15642D1*
X13947Y15717D2*
Y15702D1*
Y15687D1*
Y15672D1*
Y15657D1*
X14007Y15717D2*
Y15702D1*
Y15687D1*
Y15672D1*
Y15657D1*
X12042Y15717D2*
X12026Y15702D1*
X12008Y15687D1*
X11985Y15672D1*
X11955Y15657D1*
X11922Y15642D1*
X12042Y15717D2*
X12055Y15702D1*
X12066Y15687D1*
X12076Y15672D1*
X12087Y15657D1*
X8972Y12592D2*
D60*
Y12190D1*
X9383Y12497D2*
X9364Y12535D1*
X9325Y12573D1*
X9287Y12592D1*
X9211D1*
X9172Y12573D1*
X9134Y12535D1*
X9115Y12497D1*
X9096Y12439D1*
Y12343D1*
X9115Y12286D1*
X9134Y12248D1*
X9172Y12210D1*
X9211Y12190D1*
X9287D1*
X9325Y12210D1*
X9364Y12248D1*
X9383Y12286D1*
X9506Y12515D2*
X9545Y12535D1*
X9602Y12592D1*
Y12190D1*
X11866Y6920D2*
X12019Y6729D1*
Y6519D1*
X12172Y6920D2*
X12019Y6729D1*
X12296Y6843D2*
X12334Y6863D1*
X12392Y6920D1*
Y6519D1*
X10375Y5840D2*
X10337Y5821D1*
X10298Y5782D1*
X10279Y5744D1*
Y5668D1*
X10298Y5629D1*
X10337Y5591D1*
X10375Y5572D1*
X10432Y5553D1*
X10528D1*
X10585Y5572D1*
X10624Y5591D1*
X10662Y5629D1*
X10681Y5668D1*
Y5744D1*
X10662Y5782D1*
X10624Y5821D1*
X10585Y5840D1*
X10356Y5963D2*
X10337Y6002D1*
X10280Y6059D1*
X10681D1*
X13625Y5266D2*
X13587Y5247D1*
X13548Y5208D1*
X13529Y5170D1*
Y5094D1*
X13548Y5055D1*
X13587Y5017D1*
X13625Y4998D1*
X13682Y4979D1*
X13778D1*
X13835Y4998D1*
X13874Y5017D1*
X13912Y5055D1*
X13931Y5094D1*
Y5170D1*
X13912Y5208D1*
X13874Y5247D1*
X13835Y5266D1*
X13625Y5409D2*
X13606D1*
X13568Y5428D1*
X13549Y5447D1*
X13530Y5485D1*
Y5562D1*
X13549Y5600D1*
X13568Y5619D1*
X13606Y5638D1*
X13644D1*
X13683Y5619D1*
X13740Y5581D1*
X13931Y5389D1*
Y5657D1*
X8016Y7249D2*
X7997Y7287D1*
X7958Y7326D1*
X7920Y7345D1*
X7844D1*
X7805Y7326D1*
X7767Y7287D1*
X7748Y7249D1*
X7729Y7192D1*
Y7096D1*
X7748Y7039D1*
X7767Y7000D1*
X7805Y6962D1*
X7844Y6943D1*
X7920D1*
X7958Y6962D1*
X7997Y7000D1*
X8016Y7039D1*
X8178Y7344D2*
X8388D1*
X8273Y7191D1*
X8331D1*
X8369Y7172D1*
X8388Y7153D1*
X8407Y7096D1*
Y7058D1*
X8388Y7000D1*
X8350Y6962D1*
X8292Y6943D1*
X8235D1*
X8178Y6962D1*
X8159Y6981D1*
X8139Y7019D1*
X8006Y13374D2*
X7987Y13412D1*
X7949Y13451D1*
X7911Y13470D1*
X7834D1*
X7796Y13451D1*
X7758Y13412D1*
X7738Y13374D1*
X7719Y13317D1*
Y13221D1*
X7738Y13164D1*
X7758Y13125D1*
X7796Y13087D1*
X7834Y13068D1*
X7911D1*
X7949Y13087D1*
X7987Y13125D1*
X8006Y13164D1*
X8321Y13068D2*
Y13469D1*
X8130Y13202D1*
X8417D1*
X7778Y13903D2*
X7950D1*
X8007Y13923D1*
X8027Y13942D1*
X8046Y13980D1*
Y14018D1*
X8027Y14056D1*
X8007Y14076D1*
X7950Y14095D1*
X7778D1*
Y13693D1*
X7912Y13903D2*
X8046Y13693D1*
X8169Y14018D2*
X8208Y14037D1*
X8265Y14094D1*
Y13693D1*
X11733Y14908D2*
X11695Y14890D1*
X11657Y14851D1*
X11638Y14813D1*
X11618Y14755D1*
Y14660D1*
X11638Y14602D1*
X11657Y14564D1*
X11695Y14526D1*
X11733Y14507D1*
X11810D1*
X11848Y14526D1*
X11886Y14564D1*
X11905Y14602D1*
X11924Y14660D1*
Y14755D1*
X11905Y14813D1*
X11886Y14851D1*
X11848Y14890D1*
X11810Y14908D1*
X11733D1*
X11791Y14583D2*
X11905Y14468D1*
X12048Y14831D2*
X12086Y14851D1*
X12144Y14908D1*
Y14506D1*
X4606Y4405D2*
D61*
X4682Y4137D1*
X4759Y4405D1*
X4835Y4137D1*
X4912Y4405D1*
X5087D2*
X5163Y4137D1*
X5240Y4405D1*
X5316Y4137D1*
X5393Y4405D1*
X5568D2*
X5644Y4137D1*
X5721Y4405D1*
X5797Y4137D1*
X5874Y4405D1*
X6068Y4175D2*
X6049Y4156D1*
X6068Y4137D1*
X6087Y4156D1*
X6068Y4175D1*
X6492Y4405D2*
Y4137D1*
Y4347D2*
X6454Y4385D1*
X6415Y4405D1*
X6358D1*
X6320Y4385D1*
X6282Y4347D1*
X6262Y4290D1*
Y4252D1*
X6282Y4194D1*
X6320Y4156D1*
X6358Y4137D1*
X6415D1*
X6454Y4156D1*
X6492Y4194D1*
X6667Y4405D2*
Y4137D1*
Y4290D2*
X6686Y4347D1*
X6724Y4385D1*
X6762Y4405D1*
X6820D1*
X7224D2*
Y4137D1*
Y4347D2*
X7186Y4385D1*
X7148Y4405D1*
X7091D1*
X7052Y4385D1*
X7014Y4347D1*
X6995Y4290D1*
Y4252D1*
X7014Y4194D1*
X7052Y4156D1*
X7091Y4137D1*
X7148D1*
X7186Y4156D1*
X7224Y4194D1*
X7629Y4347D2*
X7591Y4385D1*
X7552Y4405D1*
X7495D1*
X7457Y4385D1*
X7419Y4347D1*
X7399Y4290D1*
Y4252D1*
X7419Y4194D1*
X7457Y4156D1*
X7495Y4137D1*
X7552D1*
X7591Y4156D1*
X7629Y4194D1*
X7804Y4538D2*
Y4137D1*
Y4328D2*
X7862Y4385D1*
X7900Y4405D1*
X7958D1*
X7996Y4385D1*
X8015Y4328D1*
Y4137D1*
X8190Y4405D2*
Y4137D1*
Y4328D2*
X8247Y4385D1*
X8286Y4405D1*
X8343D1*
X8381Y4385D1*
X8400Y4328D1*
Y4137D1*
X8575Y4538D2*
X8594Y4519D1*
X8614Y4538D1*
X8594Y4558D1*
X8575Y4538D1*
X8594Y4405D2*
Y4137D1*
X9018Y4538D2*
Y4137D1*
Y4347D2*
X8980Y4385D1*
X8942Y4405D1*
X8884D1*
X8846Y4385D1*
X8808Y4347D1*
X8789Y4290D1*
Y4252D1*
X8808Y4194D1*
X8846Y4156D1*
X8884Y4137D1*
X8942D1*
X8980Y4156D1*
X9018Y4194D1*
X9193Y4538D2*
Y4137D1*
X9598Y4405D2*
Y4137D1*
Y4347D2*
X9559Y4385D1*
X9521Y4405D1*
X9464D1*
X9426Y4385D1*
X9387Y4347D1*
X9368Y4290D1*
Y4252D1*
X9387Y4194D1*
X9426Y4156D1*
X9464Y4137D1*
X9521D1*
X9559Y4156D1*
X9598Y4194D1*
X9772Y4538D2*
Y4137D1*
Y4347D2*
X9811Y4385D1*
X9849Y4405D1*
X9906D1*
X9944Y4385D1*
X9983Y4347D1*
X10002Y4290D1*
Y4252D1*
X9983Y4194D1*
X9944Y4156D1*
X9906Y4137D1*
X9849D1*
X9811Y4156D1*
X9772Y4194D1*
X10387Y4347D2*
X10368Y4385D1*
X10311Y4405D1*
X10253D1*
X10196Y4385D1*
X10177Y4347D1*
X10196Y4309D1*
X10234Y4290D1*
X10330Y4271D1*
X10368Y4252D1*
X10387Y4213D1*
Y4194D1*
X10368Y4156D1*
X10311Y4137D1*
X10253D1*
X10196Y4156D1*
X10177Y4194D1*
X10581Y4175D2*
X10562Y4156D1*
X10581Y4137D1*
X10601Y4156D1*
X10581Y4175D1*
X11006Y4347D2*
X10967Y4385D1*
X10929Y4405D1*
X10872D1*
X10833Y4385D1*
X10795Y4347D1*
X10776Y4290D1*
Y4252D1*
X10795Y4194D1*
X10833Y4156D1*
X10872Y4137D1*
X10929D1*
X10967Y4156D1*
X11006Y4194D1*
X11276Y4405D2*
X11238Y4385D1*
X11200Y4347D1*
X11181Y4290D1*
Y4252D1*
X11200Y4194D1*
X11238Y4156D1*
X11276Y4137D1*
X11334D1*
X11372Y4156D1*
X11410Y4194D1*
X11430Y4252D1*
Y4290D1*
X11410Y4347D1*
X11372Y4385D1*
X11334Y4405D1*
X11276D1*
X11605D2*
Y4137D1*
Y4328D2*
X11662Y4385D1*
X11701Y4405D1*
X11758D1*
X11796Y4385D1*
X11815Y4328D1*
Y4137D1*
Y4328D2*
X11873Y4385D1*
X11911Y4405D1*
X11968D1*
X12007Y4385D1*
X12026Y4328D1*
Y4137D1*
X12201D2*
X12469Y4538D1*
X12644Y4405D2*
Y4137D1*
Y4328D2*
X12701Y4385D1*
X12740Y4405D1*
X12797D1*
X12835Y4385D1*
X12854Y4328D1*
Y4137D1*
Y4328D2*
X12912Y4385D1*
X12950Y4405D1*
X13007D1*
X13046Y4385D1*
X13065Y4328D1*
Y4137D1*
X13240Y4538D2*
X13259Y4519D1*
X13279Y4538D1*
X13259Y4558D1*
X13240Y4538D1*
X13259Y4405D2*
Y4137D1*
X13454Y4405D2*
Y4137D1*
Y4328D2*
X13511Y4385D1*
X13550Y4405D1*
X13607D1*
X13645Y4385D1*
X13664Y4328D1*
Y4137D1*
X13839Y4538D2*
X13858Y4519D1*
X13878Y4538D1*
X13858Y4558D1*
X13839Y4538D1*
X13858Y4405D2*
Y4137D1*
X14263Y4347D2*
X14244Y4385D1*
X14187Y4405D1*
X14129D1*
X14072Y4385D1*
X14053Y4347D1*
X14072Y4309D1*
X14110Y4290D1*
X14206Y4271D1*
X14244Y4252D1*
X14263Y4213D1*
Y4194D1*
X14244Y4156D1*
X14187Y4137D1*
X14129D1*
X14072Y4156D1*
X14053Y4194D1*
X14438Y4538D2*
Y4137D1*
Y4328D2*
X14496Y4385D1*
X14534Y4405D1*
X14591D1*
X14630Y4385D1*
X14649Y4328D1*
Y4137D1*
X14824Y4538D2*
X14843Y4519D1*
X14862Y4538D1*
X14843Y4558D1*
X14824Y4538D1*
X14843Y4405D2*
Y4137D1*
X15190Y4538D2*
X15152D1*
X15113Y4519D1*
X15094Y4462D1*
Y4137D1*
X15037Y4405D2*
X15171D1*
X15422Y4538D2*
Y4213D1*
X15441Y4156D1*
X15480Y4137D1*
X15518D1*
X15365Y4405D2*
X15499D1*
X15693Y4137D2*
X15961Y4538D1*
M02*
