G04 DipTrace 2.4.0.1*
%INinterface.backsilk.gbo*%
%MOIN*%
%ADD12C,0.003*%
%ADD28C,0.004*%
%FSLAX44Y44*%
G04*
G70*
G90*
G75*
G01*
%LNBotSilk*%
%LPD*%
X10049Y14122D2*
D28*
X10083Y14119D1*
X10115Y14109D1*
X10144Y14093D1*
X10171Y14072D1*
X10192Y14045D1*
X10209Y14015D1*
X10218Y13983D1*
X10222Y13949D1*
X10219Y13919D1*
X10211Y13890D1*
X10199Y13863D1*
X10223Y13839D1*
X10246Y13814D1*
X10271Y13790D1*
X10295Y13766D1*
X10318Y13741D1*
X10343Y13717D1*
X10367Y13692D1*
X10391Y13668D1*
X10415Y13644D1*
X10439Y13619D1*
X10463Y13595D1*
X10487Y13570D1*
X10511Y13547D1*
X10536Y13522D1*
X10559Y13498D1*
X10583Y13474D1*
X10608Y13449D1*
X10631Y13425D1*
X10656Y13400D1*
X10680Y13376D1*
X10703Y13352D1*
X10728Y13327D1*
X10752Y13303D1*
X10775Y13278D1*
X10800Y13254D1*
X10824Y13230D1*
X10848Y13205D1*
X10872Y13181D1*
Y13146D1*
Y13112D1*
Y13078D1*
Y13043D1*
Y13008D1*
Y12974D1*
Y12940D1*
Y12905D1*
Y12871D1*
Y12836D1*
Y12801D1*
Y12767D1*
Y12733D1*
Y12698D1*
Y12664D1*
Y12629D1*
Y12594D1*
Y12561D1*
Y12526D1*
Y12491D1*
Y12457D1*
Y12422D1*
Y12387D1*
Y12354D1*
Y12319D1*
Y12284D1*
Y12250D1*
Y12215D1*
Y12181D1*
Y12147D1*
Y12112D1*
Y12077D1*
Y12043D1*
Y12008D1*
X10850Y11982D1*
X10827Y11956D1*
X10805Y11930D1*
X10783Y11904D1*
X10761Y11878D1*
X10739Y11852D1*
X10716Y11826D1*
X10694Y11800D1*
X10671Y11774D1*
X10649Y11748D1*
X10627Y11722D1*
X10605Y11696D1*
X10583Y11669D1*
X10560Y11643D1*
X10538Y11617D1*
X10516Y11591D1*
X10493Y11565D1*
X10471Y11539D1*
X10449Y11513D1*
X10427Y11486D1*
X10405Y11460D1*
X10382Y11434D1*
X10360Y11408D1*
X10337Y11382D1*
X10315Y11356D1*
X10293Y11331D1*
X10271Y11304D1*
X10249Y11278D1*
X10226Y11252D1*
X10204Y11226D1*
X10181Y11200D1*
X10159Y11174D1*
X10137Y11147D1*
X10115Y11121D1*
X10132Y11094D1*
X10149Y11068D1*
X10166Y11041D1*
X10195Y11062D1*
X10223Y11083D1*
X10251Y11104D1*
X10279Y11125D1*
X10307Y11146D1*
X10335Y11168D1*
X10363Y11188D1*
X10391Y11209D1*
X10420Y11231D1*
X10448Y11252D1*
X10476Y11273D1*
X10503Y11294D1*
X10532Y11315D1*
X10560Y11336D1*
X10588Y11357D1*
X10616Y11378D1*
X10645Y11399D1*
X10673Y11420D1*
X10700Y11441D1*
X10728Y11462D1*
X10757Y11483D1*
X10785Y11504D1*
X10813Y11526D1*
X10841Y11547D1*
X10869Y11567D1*
X10897Y11589D1*
X10925Y11610D1*
X10953Y11631D1*
X10982Y11652D1*
X11010Y11673D1*
X11038Y11694D1*
X11065Y11715D1*
X11094Y11736D1*
X11122Y11757D1*
X11131Y11791D1*
X11141Y11824D1*
X11151Y11857D1*
X11160Y11890D1*
X11170Y11924D1*
X11179Y11957D1*
X11189Y11990D1*
X11198Y12024D1*
X11207Y12057D1*
X11218Y12090D1*
X11227Y12124D1*
X11236Y12157D1*
X11246Y12190D1*
X11255Y12224D1*
X11265Y12257D1*
X11275Y12290D1*
X11284Y12324D1*
X11294Y12357D1*
X11303Y12390D1*
X11312Y12424D1*
X11322Y12457D1*
X11332Y12490D1*
X11341Y12524D1*
X11351Y12557D1*
X11360Y12590D1*
X11370Y12624D1*
X11379Y12657D1*
X11389Y12690D1*
X11399Y12724D1*
X11408Y12757D1*
X11417Y12790D1*
X11427Y12823D1*
X11436Y12857D1*
X11446Y12890D1*
X11456Y12923D1*
X11465Y12956D1*
X11475Y12990D1*
X11484Y13023D1*
X11493Y13056D1*
X11504Y13089D1*
X11513Y13123D1*
X11522Y13156D1*
X11532Y13189D1*
X11515Y13220D1*
X11500Y13251D1*
X11483Y13281D1*
X11468Y13312D1*
X11451Y13343D1*
X11435Y13374D1*
X11419Y13404D1*
X11403Y13435D1*
X11387Y13466D1*
X11370Y13496D1*
X11355Y13527D1*
X11338Y13558D1*
X11322Y13588D1*
X11306Y13619D1*
X11290Y13650D1*
X11274Y13681D1*
X11258Y13711D1*
X11232Y13704D1*
X11205Y13702D1*
X11171Y13706D1*
X11138Y13715D1*
X11109Y13732D1*
X11083Y13753D1*
X11062Y13779D1*
X11046Y13809D1*
X11036Y13842D1*
X11033Y13875D1*
X11036Y13909D1*
X11046Y13941D1*
X11062Y13971D1*
X11083Y13998D1*
X11109Y14019D1*
X11138Y14035D1*
X11171Y14045D1*
X11205Y14048D1*
X11239Y14045D1*
X11271Y14035D1*
X11301Y14019D1*
X11327Y13998D1*
X11348Y13971D1*
X11364Y13941D1*
X11374Y13909D1*
X11377Y13875D1*
X11375Y13843D1*
X11366Y13813D1*
X11352Y13784D1*
X11333Y13759D1*
X11353Y13732D1*
X11374Y13705D1*
X11395Y13677D1*
X11415Y13650D1*
X11436Y13622D1*
X11457Y13596D1*
X11477Y13568D1*
X11498Y13540D1*
X11519Y13513D1*
X11540Y13485D1*
X11560Y13459D1*
X11581Y13431D1*
X11602Y13403D1*
X11622Y13376D1*
X11643Y13349D1*
X11664Y13322D1*
X11685Y13294D1*
X11705Y13267D1*
X11726Y13239D1*
X11718Y13206D1*
X11711Y13172D1*
X11704Y13138D1*
X11696Y13104D1*
X11688Y13071D1*
X11681Y13037D1*
X11673Y13004D1*
X11665Y12970D1*
X11658Y12936D1*
X11650Y12902D1*
X11642Y12868D1*
X11635Y12834D1*
X11628Y12801D1*
X11620Y12768D1*
X11613Y12734D1*
X11605Y12700D1*
X11598Y12666D1*
X11590Y12632D1*
X11582Y12598D1*
X11575Y12565D1*
X11567Y12531D1*
X11560Y12498D1*
X11552Y12464D1*
X11544Y12430D1*
X11537Y12396D1*
X11530Y12363D1*
X11522Y12329D1*
X11515Y12295D1*
X11507Y12262D1*
X11500Y12228D1*
X11492Y12194D1*
X11484Y12161D1*
X11477Y12127D1*
X11469Y12093D1*
X11461Y12059D1*
X11454Y12025D1*
X11446Y11992D1*
X11439Y11959D1*
X11432Y11925D1*
X11424Y11891D1*
X11417Y11857D1*
X11409Y11823D1*
X11401Y11789D1*
X11394Y11756D1*
X11386Y11722D1*
X11378Y11689D1*
X11371Y11655D1*
X11345Y11632D1*
X11318Y11610D1*
X11291Y11587D1*
X11265Y11564D1*
X11239Y11541D1*
X11212Y11519D1*
X11185Y11497D1*
X11159Y11474D1*
X11132Y11452D1*
X11106Y11429D1*
X11080Y11406D1*
X11053Y11383D1*
X11026Y11361D1*
X11000Y11338D1*
X10974Y11316D1*
X10947Y11293D1*
X10920Y11271D1*
X10894Y11248D1*
X10867Y11225D1*
X10841Y11203D1*
X10815Y11180D1*
X10788Y11157D1*
X10761Y11135D1*
X10735Y11113D1*
X10709Y11090D1*
X10682Y11067D1*
X10656Y11045D1*
X10629Y11022D1*
X10602Y10999D1*
X10576Y10976D1*
X10550Y10954D1*
X10523Y10932D1*
X10496Y10909D1*
X10470Y10886D1*
X10443Y10864D1*
X10417Y10841D1*
X10391Y10818D1*
X10364Y10796D1*
X10337Y10773D1*
X10345Y10762D1*
X10380Y10765D1*
X10413Y10769D1*
X10448Y10773D1*
X10481Y10776D1*
X10516Y10780D1*
X10550Y10784D1*
X10584Y10787D1*
X10618Y10791D1*
X10652Y10795D1*
X10686Y10798D1*
X10721Y10802D1*
X10754Y10805D1*
X10789Y10809D1*
X10822Y10812D1*
X10857Y10816D1*
X10891Y10819D1*
X10925Y10823D1*
X10959Y10827D1*
X10993Y10830D1*
X11027Y10834D1*
X11062Y10837D1*
X11095Y10841D1*
X11130Y10844D1*
X11164Y10848D1*
X11198Y10851D1*
X11221Y10825D1*
X11243Y10799D1*
X11266Y10772D1*
X11289Y10746D1*
X11312Y10719D1*
X11334Y10692D1*
X11357Y10666D1*
X11380Y10640D1*
X11403Y10613D1*
X11425Y10586D1*
X11448Y10560D1*
X11471Y10533D1*
X11493Y10507D1*
X11516Y10481D1*
X11539Y10454D1*
X11562Y10427D1*
X11584Y10401D1*
X11607Y10374D1*
X11630Y10348D1*
X11653Y10322D1*
X11675Y10295D1*
X11698Y10268D1*
X11721Y10242D1*
X11744Y10215D1*
X11766Y10189D1*
X11789Y10163D1*
X11812Y10136D1*
X11834Y10109D1*
X11857Y10083D1*
X11880Y10056D1*
X11903Y10030D1*
X11926Y10003D1*
X11949Y9977D1*
X11972Y9950D1*
X11994Y9923D1*
X12017Y9897D1*
X12015Y9864D1*
X12013Y9832D1*
X12005Y9799D1*
X11995Y9766D1*
X11987Y9734D1*
X11977Y9701D1*
X11969Y9668D1*
X11959Y9635D1*
X11950Y9601D1*
X11941Y9568D1*
X11932Y9535D1*
X11923Y9502D1*
X11914Y9470D1*
X11905Y9437D1*
X11896Y9404D1*
X11887Y9371D1*
X11878Y9338D1*
X11869Y9305D1*
X11860Y9272D1*
X11852Y9239D1*
X11842Y9206D1*
X11834Y9173D1*
X11824Y9140D1*
X11816Y9107D1*
X11806Y9074D1*
X11837Y9058D1*
X11863Y9036D1*
X11886Y9010D1*
X11903Y8981D1*
X11913Y8947D1*
X11917Y8913D1*
X11913Y8879D1*
X11903Y8847D1*
X11887Y8817D1*
X11866Y8791D1*
X11839Y8770D1*
X11809Y8753D1*
X11777Y8744D1*
X11744Y8741D1*
X11710Y8744D1*
X11678Y8753D1*
X11647Y8770D1*
X11621Y8791D1*
X11599Y8817D1*
X11584Y8847D1*
X11573Y8880D1*
X11570Y8913D1*
X11573Y8946D1*
X11583Y8977D1*
X11598Y9007D1*
X11618Y9032D1*
X11643Y9053D1*
X11671Y9069D1*
X11702Y9080D1*
X11735Y9085D1*
X11739Y9119D1*
X11743Y9152D1*
X11747Y9186D1*
X11751Y9219D1*
X11755Y9253D1*
X11758Y9287D1*
X11762Y9320D1*
X11767Y9354D1*
X11771Y9387D1*
X11775Y9420D1*
X11779Y9454D1*
X11783Y9488D1*
X11787Y9521D1*
X11791Y9555D1*
X11794Y9588D1*
X11798Y9622D1*
X11803Y9656D1*
X11807Y9689D1*
X11811Y9723D1*
X11815Y9757D1*
X11819Y9790D1*
X11823Y9823D1*
X11800Y9849D1*
X11776Y9875D1*
X11754Y9901D1*
X11730Y9927D1*
X11707Y9952D1*
X11684Y9978D1*
X11661Y10004D1*
X11638Y10030D1*
X11615Y10056D1*
X11591Y10082D1*
X11569Y10107D1*
X11545Y10133D1*
X11522Y10159D1*
X11499Y10185D1*
X11476Y10210D1*
X11454Y10236D1*
X11430Y10262D1*
X11407Y10288D1*
X11384Y10314D1*
X11361Y10339D1*
X11337Y10365D1*
X11315Y10391D1*
X11291Y10417D1*
X11269Y10442D1*
X11245Y10468D1*
X11222Y10494D1*
X11199Y10520D1*
X11176Y10545D1*
X11152Y10571D1*
X11130Y10597D1*
X11095Y10591D1*
X11062Y10584D1*
X11027Y10578D1*
X10993Y10572D1*
X10958Y10566D1*
X10924Y10560D1*
X10890Y10554D1*
X10855Y10547D1*
X10821Y10541D1*
X10787Y10535D1*
X10753Y10529D1*
X10718Y10522D1*
X10684Y10516D1*
X10650Y10510D1*
X10616Y10504D1*
X10581Y10498D1*
X10547Y10492D1*
X10513Y10485D1*
X10478Y10479D1*
X10485Y10448D1*
X10491Y10418D1*
X10518Y10396D1*
X10547Y10376D1*
X10574Y10355D1*
X10602Y10335D1*
X10630Y10314D1*
X10658Y10293D1*
X10686Y10273D1*
X10714Y10252D1*
X10742Y10232D1*
X10770Y10211D1*
X10797Y10190D1*
X10826Y10170D1*
X10854Y10149D1*
X10881Y10128D1*
X10909Y10108D1*
X10937Y10087D1*
X10965Y10067D1*
X10993Y10045D1*
X11021Y10025D1*
X11049Y10004D1*
X11076Y9984D1*
X11105Y9964D1*
X11133Y9942D1*
X11160Y9922D1*
X11189Y9901D1*
X11216Y9881D1*
X11244Y9860D1*
X11272Y9839D1*
X11300Y9819D1*
X11328Y9798D1*
X11324Y9763D1*
X11320Y9728D1*
X11316Y9694D1*
X11312Y9658D1*
X11308Y9624D1*
X11305Y9589D1*
X11301Y9553D1*
X11298Y9519D1*
X11294Y9484D1*
X11290Y9449D1*
X11286Y9414D1*
X11282Y9380D1*
X11278Y9344D1*
X11274Y9310D1*
X11270Y9275D1*
X11266Y9239D1*
X11263Y9205D1*
X11259Y9170D1*
X11255Y9135D1*
X11251Y9100D1*
X11247Y9066D1*
X11243Y9030D1*
X11240Y8995D1*
X11236Y8961D1*
X11232Y8925D1*
X11228Y8891D1*
X11225Y8856D1*
X11221Y8822D1*
X11217Y8786D1*
X11213Y8752D1*
X11209Y8717D1*
X11205Y8681D1*
X11201Y8647D1*
X11197Y8612D1*
X11193Y8577D1*
X11189Y8542D1*
X11186Y8508D1*
X11182Y8472D1*
X11178Y8438D1*
X11174Y8403D1*
X11171Y8367D1*
X11146Y8342D1*
X11122Y8317D1*
X11098Y8292D1*
X11074Y8267D1*
X11050Y8241D1*
X11026Y8216D1*
X11001Y8190D1*
X10977Y8165D1*
X10953Y8139D1*
X10928Y8114D1*
X10904Y8089D1*
X10880Y8064D1*
X10856Y8038D1*
X10832Y8013D1*
X10808Y7987D1*
X10783Y7962D1*
X10759Y7937D1*
X10735Y7912D1*
X10711Y7886D1*
X10687Y7861D1*
X10701Y7832D1*
X10710Y7802D1*
X10714Y7770D1*
X10710Y7737D1*
X10700Y7704D1*
X10684Y7674D1*
X10663Y7648D1*
X10636Y7627D1*
X10606Y7610D1*
X10574Y7601D1*
X10540Y7598D1*
X10507Y7601D1*
X10474Y7610D1*
X10444Y7627D1*
X10418Y7648D1*
X10396Y7674D1*
X10380Y7704D1*
X10370Y7737D1*
X10367Y7770D1*
X10370Y7804D1*
X10380Y7836D1*
X10396Y7866D1*
X10418Y7892D1*
X10444Y7913D1*
X10474Y7929D1*
X10507Y7939D1*
X10540Y7942D1*
X10569Y7940D1*
X10598Y7932D1*
X10624Y7920D1*
X10643Y7948D1*
X10662Y7976D1*
X10681Y8004D1*
X10700Y8031D1*
X10720Y8059D1*
X10739Y8087D1*
X10758Y8115D1*
X10777Y8142D1*
X10796Y8171D1*
X10815Y8198D1*
X10834Y8226D1*
X10854Y8253D1*
X10873Y8282D1*
X10891Y8309D1*
X10911Y8337D1*
X10930Y8365D1*
X10949Y8393D1*
X10968Y8420D1*
X10988Y8449D1*
X10989Y8482D1*
X10991Y8517D1*
X10993Y8552D1*
X10995Y8585D1*
X10997Y8620D1*
X10999Y8655D1*
X11001Y8689D1*
X11003Y8723D1*
X11004Y8758D1*
X11007Y8792D1*
X11008Y8826D1*
X11011Y8861D1*
X11012Y8896D1*
X11014Y8930D1*
X11016Y8964D1*
X11018Y8999D1*
X11020Y9033D1*
X11022Y9067D1*
X11024Y9102D1*
X11026Y9136D1*
X11027Y9171D1*
X11029Y9205D1*
X11031Y9239D1*
X11033Y9274D1*
X11035Y9308D1*
X11037Y9343D1*
X11039Y9377D1*
X11040Y9412D1*
X11043Y9446D1*
X11044Y9480D1*
X11047Y9515D1*
X11048Y9549D1*
X11050Y9583D1*
X11052Y9618D1*
X11054Y9653D1*
X11056Y9686D1*
X11024Y9696D1*
X10992Y9705D1*
X10960Y9713D1*
X10928Y9722D1*
X10895Y9731D1*
X10864Y9740D1*
X10832Y9749D1*
X10800Y9757D1*
X10768Y9766D1*
X10735Y9775D1*
X10703Y9784D1*
X10671Y9793D1*
X10639Y9801D1*
X10608Y9810D1*
X10592Y9779D1*
X10576Y9748D1*
X10561Y9717D1*
X10545Y9686D1*
X10530Y9655D1*
X10514Y9624D1*
X10499Y9593D1*
X10483Y9562D1*
X10467Y9531D1*
X10452Y9500D1*
X10437Y9469D1*
X10421Y9438D1*
X10405Y9407D1*
X10390Y9376D1*
X10374Y9345D1*
X10359Y9314D1*
X10344Y9283D1*
X10328Y9252D1*
X10312Y9221D1*
X10297Y9190D1*
X10282Y9158D1*
X10266Y9128D1*
X10250Y9097D1*
X10235Y9066D1*
X10219Y9035D1*
X10204Y9003D1*
X10188Y8973D1*
X10173Y8942D1*
X10157Y8910D1*
X10141Y8880D1*
X10126Y8848D1*
X10111Y8818D1*
X10095Y8786D1*
X10064Y8773D1*
X10032Y8759D1*
X10001Y8745D1*
X9970Y8731D1*
X9938Y8718D1*
X9908Y8704D1*
X9876Y8689D1*
X9845Y8676D1*
X9814Y8662D1*
X9782Y8648D1*
X9751Y8634D1*
X9720Y8620D1*
X9688Y8607D1*
X9657Y8593D1*
X9626Y8579D1*
X9594Y8565D1*
X9564Y8552D1*
X9532Y8537D1*
X9501Y8552D1*
X9470Y8565D1*
X9438Y8579D1*
X9407Y8593D1*
X9375Y8607D1*
X9345Y8620D1*
X9314Y8634D1*
X9282Y8648D1*
X9251Y8662D1*
X9219Y8676D1*
X9189Y8689D1*
X9158Y8704D1*
X9126Y8718D1*
X9095Y8731D1*
X9063Y8745D1*
X9032Y8759D1*
X9002Y8773D1*
X8970Y8786D1*
X8955Y8818D1*
X8939Y8848D1*
X8923Y8880D1*
X8907Y8910D1*
X8893Y8941D1*
X8877Y8973D1*
X8861Y9003D1*
X8846Y9035D1*
X8830Y9066D1*
X8815Y9097D1*
X8799Y9128D1*
X8784Y9158D1*
X8768Y9190D1*
X8752Y9221D1*
X8737Y9252D1*
X8722Y9283D1*
X8706Y9313D1*
X8690Y9345D1*
X8675Y9376D1*
X8660Y9407D1*
X8644Y9438D1*
X8628Y9469D1*
X8613Y9500D1*
X8597Y9531D1*
X8581Y9562D1*
X8566Y9593D1*
X8551Y9624D1*
X8535Y9655D1*
X8519Y9686D1*
X8504Y9717D1*
X8489Y9748D1*
X8473Y9779D1*
X8458Y9810D1*
X8574Y10418D2*
X8581Y10449D1*
X8586Y10479D1*
X8552Y10485D1*
X8518Y10492D1*
X8483Y10498D1*
X8449Y10504D1*
X8415Y10510D1*
X8381Y10516D1*
X8346Y10522D1*
X8312Y10529D1*
X8277Y10535D1*
X8243Y10541D1*
X8209Y10547D1*
X8175Y10554D1*
X8140Y10560D1*
X8106Y10566D1*
X8071Y10572D1*
X8037Y10578D1*
X8003Y10584D1*
X7968Y10591D1*
X7934Y10597D1*
X7911Y10571D1*
X7888Y10545D1*
X7865Y10520D1*
X7841Y10494D1*
X7819Y10468D1*
X7795Y10442D1*
X7772Y10416D1*
X7749Y10391D1*
X7726Y10365D1*
X7703Y10339D1*
X7680Y10313D1*
X7657Y10288D1*
X7634Y10262D1*
X7611Y10236D1*
X7587Y10210D1*
X7565Y10185D1*
X7541Y10159D1*
X7518Y10133D1*
X7495Y10107D1*
X7472Y10082D1*
X7449Y10056D1*
X7426Y10030D1*
X7402Y10004D1*
X7380Y9978D1*
X7356Y9952D1*
X7333Y9927D1*
X7311Y9901D1*
X7287Y9875D1*
X7264Y9849D1*
X7241Y9823D1*
X7245Y9790D1*
X7249Y9757D1*
X7253Y9723D1*
X7257Y9689D1*
X7261Y9656D1*
X7265Y9622D1*
X7269Y9588D1*
X7273Y9555D1*
X7277Y9521D1*
X7281Y9488D1*
X7285Y9454D1*
X7289Y9420D1*
X7293Y9387D1*
X7297Y9354D1*
X7301Y9320D1*
X7305Y9287D1*
X7309Y9253D1*
X7313Y9219D1*
X7317Y9186D1*
X7321Y9152D1*
X7325Y9119D1*
X7330Y9085D1*
X7362Y9080D1*
X7392Y9069D1*
X7421Y9054D1*
X7446Y9032D1*
X7466Y9007D1*
X7481Y8977D1*
X7490Y8946D1*
X7493Y8913D1*
X7490Y8880D1*
X7480Y8847D1*
X7464Y8817D1*
X7442Y8791D1*
X7417Y8770D1*
X7387Y8753D1*
X7354Y8744D1*
X7320Y8741D1*
X7286Y8744D1*
X7254Y8753D1*
X7224Y8770D1*
X7199Y8791D1*
X7177Y8818D1*
X7161Y8848D1*
X7152Y8880D1*
X7148Y8913D1*
X7152Y8947D1*
X7162Y8981D1*
X7178Y9010D1*
X7200Y9036D1*
X7227Y9058D1*
X7257Y9074D1*
X7249Y9107D1*
X7239Y9140D1*
X7231Y9173D1*
X7221Y9206D1*
X7213Y9239D1*
X7203Y9272D1*
X7195Y9305D1*
X7185Y9338D1*
X7177Y9371D1*
X7167Y9404D1*
X7159Y9436D1*
X7149Y9469D1*
X7141Y9502D1*
X7131Y9535D1*
X7123Y9568D1*
X7113Y9601D1*
X7105Y9635D1*
X7095Y9668D1*
X7087Y9701D1*
X7077Y9734D1*
X7069Y9766D1*
X7059Y9799D1*
X7050Y9832D1*
X7049Y9864D1*
X7047Y9897D1*
X7070Y9923D1*
X7093Y9950D1*
X7116Y9977D1*
X7138Y10004D1*
X7161Y10030D1*
X7184Y10056D1*
X7206Y10083D1*
X7229Y10109D1*
X7252Y10136D1*
X7275Y10163D1*
X7297Y10189D1*
X7320Y10215D1*
X7343Y10242D1*
X7366Y10268D1*
X7388Y10295D1*
X7411Y10322D1*
X7434Y10348D1*
X7457Y10374D1*
X7479Y10401D1*
X7502Y10427D1*
X7525Y10454D1*
X7547Y10481D1*
X7570Y10507D1*
X7593Y10533D1*
X7616Y10560D1*
X7638Y10586D1*
X7661Y10613D1*
X7684Y10640D1*
X7707Y10666D1*
X7729Y10692D1*
X7752Y10719D1*
X7775Y10746D1*
X7798Y10772D1*
X7820Y10799D1*
X7843Y10825D1*
X7866Y10851D1*
X7900Y10848D1*
X7934Y10844D1*
X7968Y10841D1*
X8002Y10837D1*
X8037Y10834D1*
X8071Y10830D1*
X8105Y10827D1*
X8139Y10823D1*
X8173Y10819D1*
X8207Y10816D1*
X8242Y10812D1*
X8276Y10809D1*
X8310Y10805D1*
X8344Y10802D1*
X8378Y10798D1*
X8412Y10795D1*
X8447Y10791D1*
X8481Y10787D1*
X8515Y10784D1*
X8549Y10780D1*
X8583Y10776D1*
X8617Y10773D1*
X8651Y10769D1*
X8686Y10765D1*
X8720Y10762D1*
X8726Y10773D1*
X8700Y10796D1*
X8673Y10818D1*
X8647Y10841D1*
X8621Y10864D1*
X8594Y10887D1*
X8567Y10909D1*
X8541Y10932D1*
X8515Y10954D1*
X8488Y10976D1*
X8461Y10999D1*
X8435Y11022D1*
X8408Y11045D1*
X8382Y11067D1*
X8356Y11090D1*
X8329Y11113D1*
X8302Y11135D1*
X8276Y11157D1*
X8250Y11180D1*
X8223Y11203D1*
X8196Y11225D1*
X8170Y11248D1*
X8143Y11271D1*
X8117Y11293D1*
X8091Y11316D1*
X8064Y11338D1*
X8037Y11361D1*
X8011Y11383D1*
X7984Y11406D1*
X7958Y11429D1*
X7932Y11452D1*
X7905Y11474D1*
X7878Y11497D1*
X7852Y11519D1*
X7825Y11541D1*
X7799Y11564D1*
X7772Y11587D1*
X7746Y11610D1*
X7719Y11632D1*
X7692Y11655D1*
X7685Y11689D1*
X7678Y11722D1*
X7671Y11756D1*
X7663Y11789D1*
X7655Y11823D1*
X7648Y11857D1*
X7640Y11891D1*
X7632Y11925D1*
X7625Y11959D1*
X7617Y11992D1*
X7609Y12025D1*
X7602Y12059D1*
X7594Y12093D1*
X7587Y12127D1*
X7580Y12161D1*
X7572Y12195D1*
X7565Y12228D1*
X7557Y12262D1*
X7549Y12295D1*
X7542Y12329D1*
X7534Y12363D1*
X7527Y12397D1*
X7519Y12430D1*
X7511Y12464D1*
X7504Y12498D1*
X7496Y12531D1*
X7489Y12565D1*
X7482Y12598D1*
X7474Y12632D1*
X7467Y12666D1*
X7459Y12700D1*
X7451Y12734D1*
X7444Y12768D1*
X7436Y12801D1*
X7428Y12834D1*
X7421Y12868D1*
X7413Y12902D1*
X7406Y12936D1*
X7399Y12970D1*
X7391Y13004D1*
X7384Y13037D1*
X7376Y13071D1*
X7368Y13104D1*
X7361Y13138D1*
X7353Y13172D1*
X7345Y13206D1*
X7338Y13239D1*
X7359Y13267D1*
X7380Y13294D1*
X7400Y13322D1*
X7420Y13349D1*
X7442Y13376D1*
X7462Y13403D1*
X7483Y13431D1*
X7504Y13459D1*
X7525Y13486D1*
X7545Y13513D1*
X7565Y13540D1*
X7587Y13568D1*
X7607Y13596D1*
X7628Y13622D1*
X7649Y13650D1*
X7669Y13677D1*
X7690Y13705D1*
X7710Y13732D1*
X7732Y13759D1*
X7712Y13784D1*
X7698Y13813D1*
X7689Y13843D1*
X7686Y13875D1*
X7689Y13909D1*
X7700Y13941D1*
X7715Y13971D1*
X7737Y13998D1*
X7763Y14019D1*
X7793Y14035D1*
X7826Y14045D1*
X7859Y14048D1*
X7893Y14045D1*
X7925Y14035D1*
X7955Y14019D1*
X7981Y13998D1*
X8002Y13971D1*
X8019Y13941D1*
X8028Y13909D1*
X8031Y13875D1*
X8028Y13842D1*
X8019Y13809D1*
X8002Y13779D1*
X7981Y13753D1*
X7955Y13732D1*
X7925Y13715D1*
X7893Y13706D1*
X7859Y13703D1*
X7833Y13705D1*
X7806Y13711D1*
X7790Y13681D1*
X7774Y13650D1*
X7758Y13619D1*
X7742Y13588D1*
X7725Y13558D1*
X7710Y13527D1*
X7693Y13496D1*
X7678Y13466D1*
X7661Y13435D1*
X7645Y13404D1*
X7629Y13374D1*
X7613Y13343D1*
X7597Y13312D1*
X7580Y13281D1*
X7564Y13251D1*
X7548Y13220D1*
X7532Y13189D1*
X7541Y13156D1*
X7551Y13123D1*
X7561Y13090D1*
X7570Y13056D1*
X7580Y13023D1*
X7589Y12990D1*
X7598Y12956D1*
X7608Y12923D1*
X7618Y12890D1*
X7627Y12857D1*
X7637Y12823D1*
X7646Y12790D1*
X7656Y12757D1*
X7665Y12724D1*
X7675Y12690D1*
X7685Y12657D1*
X7694Y12624D1*
X7703Y12591D1*
X7713Y12557D1*
X7722Y12524D1*
X7732Y12491D1*
X7742Y12457D1*
X7751Y12424D1*
X7761Y12391D1*
X7770Y12357D1*
X7779Y12324D1*
X7790Y12291D1*
X7799Y12257D1*
X7808Y12224D1*
X7818Y12191D1*
X7827Y12157D1*
X7837Y12124D1*
X7847Y12091D1*
X7856Y12057D1*
X7866Y12024D1*
X7875Y11991D1*
X7885Y11957D1*
X7894Y11924D1*
X7903Y11891D1*
X7914Y11857D1*
X7923Y11824D1*
X7932Y11791D1*
X7942Y11757D1*
X7970Y11737D1*
X7998Y11715D1*
X8026Y11694D1*
X8055Y11673D1*
X8083Y11652D1*
X8110Y11631D1*
X8138Y11610D1*
X8167Y11589D1*
X8195Y11567D1*
X8223Y11547D1*
X8251Y11526D1*
X8280Y11504D1*
X8308Y11483D1*
X8336Y11462D1*
X8363Y11441D1*
X8392Y11420D1*
X8420Y11399D1*
X8448Y11378D1*
X8476Y11357D1*
X8505Y11336D1*
X8533Y11315D1*
X8561Y11294D1*
X8588Y11273D1*
X8617Y11252D1*
X8645Y11231D1*
X8673Y11209D1*
X8701Y11189D1*
X8730Y11168D1*
X8758Y11146D1*
X8786Y11125D1*
X8814Y11104D1*
X8842Y11083D1*
X8870Y11062D1*
X8898Y11041D1*
X8915Y11068D1*
X8932Y11094D1*
X8949Y11121D1*
X8927Y11147D1*
X8904Y11174D1*
X8882Y11200D1*
X8860Y11226D1*
X8838Y11252D1*
X8816Y11278D1*
X8793Y11304D1*
X8771Y11331D1*
X8748Y11356D1*
X8726Y11382D1*
X8704Y11408D1*
X8682Y11434D1*
X8660Y11460D1*
X8637Y11486D1*
X8615Y11513D1*
X8592Y11539D1*
X8570Y11565D1*
X8548Y11591D1*
X8526Y11617D1*
X8504Y11643D1*
X8481Y11669D1*
X8459Y11696D1*
X8437Y11722D1*
X8414Y11748D1*
X8392Y11774D1*
X8370Y11800D1*
X8348Y11826D1*
X8326Y11852D1*
X8303Y11878D1*
X8281Y11904D1*
X8258Y11930D1*
X8236Y11956D1*
X8215Y11982D1*
X8192Y12008D1*
Y12043D1*
Y12077D1*
Y12112D1*
Y12147D1*
Y12181D1*
Y12215D1*
Y12250D1*
Y12284D1*
Y12319D1*
Y12354D1*
Y12387D1*
Y12422D1*
Y12457D1*
Y12491D1*
Y12526D1*
Y12561D1*
Y12594D1*
Y12629D1*
Y12664D1*
Y12698D1*
Y12733D1*
Y12767D1*
Y12801D1*
Y12836D1*
Y12871D1*
Y12905D1*
Y12940D1*
Y12974D1*
Y13008D1*
Y13043D1*
Y13078D1*
Y13112D1*
Y13146D1*
Y13181D1*
X8216Y13205D1*
X8240Y13230D1*
X8264Y13254D1*
X8288Y13278D1*
X8313Y13303D1*
X8336Y13327D1*
X8360Y13352D1*
X8385Y13376D1*
X8408Y13400D1*
X8432Y13425D1*
X8457Y13449D1*
X8480Y13474D1*
X8505Y13498D1*
X8529Y13522D1*
X8552Y13547D1*
X8577Y13571D1*
X8601Y13595D1*
X8624Y13619D1*
X8649Y13644D1*
X8673Y13668D1*
X8697Y13692D1*
X8721Y13717D1*
X8745Y13741D1*
X8769Y13766D1*
X8793Y13790D1*
X8817Y13814D1*
X8841Y13839D1*
X8865Y13863D1*
X8853Y13890D1*
X8845Y13919D1*
X8842Y13949D1*
X8846Y13983D1*
X8855Y14015D1*
X8871Y14045D1*
X8893Y14072D1*
X8919Y14093D1*
X8949Y14109D1*
X8981Y14119D1*
X9015Y14122D1*
X9049Y14119D1*
X9081Y14109D1*
X9111Y14093D1*
X9137Y14071D1*
X9158Y14045D1*
X9174Y14015D1*
X9183Y13983D1*
X9187Y13949D1*
X9183Y13915D1*
X9174Y13883D1*
X9158Y13853D1*
X9137Y13827D1*
X9110Y13805D1*
X9081Y13789D1*
X9049Y13780D1*
X9015Y13776D1*
X8988Y13778D1*
X8962Y13784D1*
X8938Y13795D1*
X8918Y13767D1*
X8898Y13739D1*
X8878Y13711D1*
X8857Y13683D1*
X8838Y13655D1*
X8817Y13627D1*
X8798Y13599D1*
X8777Y13571D1*
X8758Y13543D1*
X8737Y13515D1*
X8717Y13487D1*
X8697Y13459D1*
X8677Y13431D1*
X8657Y13403D1*
X8637Y13375D1*
X8617Y13348D1*
X8597Y13319D1*
X8577Y13292D1*
X8557Y13263D1*
X8537Y13236D1*
X8516Y13208D1*
X8497Y13179D1*
X8476Y13152D1*
X8457Y13123D1*
X8458Y13089D1*
X8460Y13053D1*
X8462Y13018D1*
X8464Y12983D1*
X8465Y12948D1*
X8468Y12912D1*
X8469Y12878D1*
X8471Y12842D1*
X8473Y12807D1*
X8475Y12772D1*
X8477Y12737D1*
X8479Y12701D1*
X8480Y12667D1*
X8483Y12631D1*
X8484Y12596D1*
X8486Y12561D1*
X8488Y12526D1*
X8490Y12491D1*
X8491Y12456D1*
X8494Y12421D1*
X8495Y12385D1*
X8497Y12350D1*
X8499Y12315D1*
X8501Y12280D1*
X8503Y12245D1*
X8505Y12210D1*
X8506Y12174D1*
X8508Y12140D1*
X8510Y12104D1*
X8512Y12069D1*
X8514Y12034D1*
X8537Y12008D1*
X8562Y11982D1*
X8585Y11957D1*
X8610Y11931D1*
X8633Y11906D1*
X8657Y11880D1*
X8681Y11854D1*
X8705Y11829D1*
X8729Y11803D1*
X8753Y11778D1*
X8777Y11752D1*
X8801Y11726D1*
X8824Y11700D1*
X8849Y11674D1*
X8872Y11648D1*
X8896Y11623D1*
X8920Y11597D1*
X8936Y11627D1*
X8953Y11657D1*
X8969Y11687D1*
X8985Y11717D1*
X9001Y11747D1*
X9017Y11777D1*
X9034Y11807D1*
X9049Y11837D1*
X9066Y11867D1*
X9082Y11897D1*
X9098Y11927D1*
X9114Y11957D1*
X9115Y11963D1*
X9150D1*
X9185D1*
X9219D1*
X9254D1*
X9288D1*
X9323D1*
X9357D1*
X9393D1*
X9427D1*
X9462D1*
X9496D1*
X9531D1*
X9565D1*
X9600D1*
X9635D1*
X9669D1*
X9704D1*
X9738D1*
X9773D1*
X9808D1*
X9843D1*
X9877D1*
X9912D1*
X9946D1*
X9963Y11933D1*
X9979Y11902D1*
X9995Y11872D1*
X10012Y11841D1*
X10028Y11811D1*
X10045Y11780D1*
X10061Y11749D1*
X10078Y11719D1*
X10094Y11688D1*
X10111Y11658D1*
X10127Y11627D1*
X10144Y11597D1*
X10167Y11623D1*
X10191Y11648D1*
X10215Y11674D1*
X10239Y11700D1*
X10263Y11725D1*
X10287Y11751D1*
X10311Y11777D1*
X10335Y11802D1*
X10358Y11828D1*
X10383Y11854D1*
X10406Y11879D1*
X10431Y11905D1*
X10454Y11931D1*
X10478Y11957D1*
X10502Y11982D1*
X10526Y12008D1*
X10550Y12034D1*
X10552Y12069D1*
X10554Y12104D1*
X10556Y12140D1*
X10558Y12174D1*
X10559Y12210D1*
X10561Y12245D1*
X10563Y12280D1*
X10565Y12315D1*
X10567Y12350D1*
X10569Y12385D1*
X10570Y12421D1*
X10572Y12456D1*
X10574Y12491D1*
X10576Y12526D1*
X10578Y12561D1*
X10579Y12596D1*
X10582Y12631D1*
X10583Y12667D1*
X10585Y12701D1*
X10587Y12737D1*
X10589Y12772D1*
X10590Y12807D1*
X10593Y12842D1*
X10594Y12878D1*
X10596Y12912D1*
X10598Y12948D1*
X10600Y12983D1*
X10602Y13018D1*
X10604Y13053D1*
X10605Y13089D1*
X10608Y13123D1*
X10587Y13152D1*
X10567Y13180D1*
X10547Y13208D1*
X10527Y13236D1*
X10507Y13263D1*
X10487Y13292D1*
X10467Y13319D1*
X10447Y13348D1*
X10427Y13375D1*
X10407Y13403D1*
X10387Y13431D1*
X10366Y13459D1*
X10347Y13487D1*
X10326Y13515D1*
X10307Y13543D1*
X10286Y13571D1*
X10266Y13599D1*
X10246Y13627D1*
X10226Y13655D1*
X10206Y13683D1*
X10186Y13711D1*
X10166Y13739D1*
X10146Y13767D1*
X10126Y13795D1*
X10101Y13784D1*
X10075Y13778D1*
X10049Y13776D1*
X10015Y13780D1*
X9983Y13789D1*
X9953Y13805D1*
X9927Y13827D1*
X9905Y13853D1*
X9890Y13883D1*
X9880Y13915D1*
X9877Y13949D1*
X9880Y13983D1*
X9890Y14015D1*
X9905Y14045D1*
X9927Y14072D1*
X9953Y14093D1*
X9983Y14109D1*
X10015Y14119D1*
X10049Y14122D1*
X8464Y9810D2*
X8431Y9801D1*
X8399Y9793D1*
X8366Y9784D1*
X8334Y9775D1*
X8301Y9766D1*
X8269Y9757D1*
X8236Y9749D1*
X8204Y9740D1*
X8171Y9731D1*
X8138Y9722D1*
X8106Y9713D1*
X8073Y9705D1*
X8041Y9696D1*
X8008Y9686D1*
X8010Y9653D1*
X8012Y9618D1*
X8014Y9583D1*
X8015Y9549D1*
X8018Y9515D1*
X8019Y9480D1*
X8021Y9446D1*
X8023Y9412D1*
X8025Y9377D1*
X8027Y9343D1*
X8029Y9308D1*
X8031Y9274D1*
X8033Y9239D1*
X8034Y9205D1*
X8037Y9171D1*
X8038Y9136D1*
X8041Y9102D1*
X8042Y9067D1*
X8044Y9033D1*
X8046Y8999D1*
X8048Y8964D1*
X8050Y8930D1*
X8051Y8896D1*
X8054Y8861D1*
X8055Y8827D1*
X8057Y8792D1*
X8059Y8758D1*
X8061Y8723D1*
X8063Y8689D1*
X8065Y8655D1*
X8067Y8620D1*
X8069Y8585D1*
X8070Y8552D1*
X8073Y8517D1*
X8074Y8482D1*
X8077Y8449D1*
X8095Y8420D1*
X8114Y8393D1*
X8134Y8365D1*
X8153Y8337D1*
X8172Y8309D1*
X8191Y8282D1*
X8210Y8254D1*
X8229Y8226D1*
X8248Y8198D1*
X8268Y8171D1*
X8287Y8142D1*
X8306Y8115D1*
X8325Y8087D1*
X8344Y8059D1*
X8363Y8031D1*
X8382Y8004D1*
X8402Y7976D1*
X8421Y7948D1*
X8440Y7920D1*
X8466Y7932D1*
X8494Y7940D1*
X8523Y7942D1*
X8557Y7939D1*
X8590Y7930D1*
X8620Y7913D1*
X8646Y7892D1*
X8668Y7866D1*
X8683Y7836D1*
X8693Y7804D1*
X8697Y7770D1*
X8693Y7737D1*
X8683Y7704D1*
X8668Y7674D1*
X8646Y7648D1*
X8620Y7627D1*
X8590Y7610D1*
X8557Y7601D1*
X8523Y7598D1*
X8490Y7601D1*
X8458Y7610D1*
X8428Y7627D1*
X8402Y7648D1*
X8381Y7675D1*
X8365Y7705D1*
X8355Y7737D1*
X8352Y7770D1*
X8355Y7802D1*
X8363Y7832D1*
X8377Y7861D1*
X8353Y7887D1*
X8329Y7912D1*
X8305Y7937D1*
X8280Y7962D1*
X8256Y7987D1*
X8232Y8013D1*
X8207Y8038D1*
X8183Y8064D1*
X8160Y8089D1*
X8135Y8114D1*
X8111Y8140D1*
X8087Y8165D1*
X8062Y8190D1*
X8038Y8216D1*
X8015Y8241D1*
X7990Y8267D1*
X7966Y8292D1*
X7942Y8317D1*
X7917Y8342D1*
X7893Y8367D1*
X7889Y8403D1*
X7885Y8438D1*
X7882Y8472D1*
X7878Y8508D1*
X7874Y8542D1*
X7870Y8577D1*
X7866Y8612D1*
X7863Y8647D1*
X7859Y8681D1*
X7855Y8717D1*
X7851Y8752D1*
X7847Y8786D1*
X7844Y8822D1*
X7840Y8856D1*
X7836Y8891D1*
X7832Y8926D1*
X7828Y8961D1*
X7824Y8995D1*
X7820Y9031D1*
X7816Y9066D1*
X7812Y9100D1*
X7808Y9136D1*
X7805Y9170D1*
X7801Y9205D1*
X7798Y9240D1*
X7794Y9275D1*
X7790Y9310D1*
X7786Y9345D1*
X7782Y9380D1*
X7778Y9414D1*
X7774Y9450D1*
X7770Y9484D1*
X7766Y9519D1*
X7763Y9554D1*
X7759Y9589D1*
X7755Y9624D1*
X7751Y9658D1*
X7747Y9694D1*
X7743Y9728D1*
X7739Y9763D1*
X7736Y9798D1*
X7764Y9819D1*
X7792Y9839D1*
X7819Y9860D1*
X7848Y9881D1*
X7876Y9901D1*
X7903Y9922D1*
X7932Y9943D1*
X7960Y9964D1*
X7987Y9984D1*
X8015Y10005D1*
X8044Y10026D1*
X8071Y10046D1*
X8099Y10067D1*
X8128Y10088D1*
X8155Y10108D1*
X8183Y10129D1*
X8211Y10149D1*
X8239Y10170D1*
X8267Y10191D1*
X8294Y10211D1*
X8323Y10233D1*
X8351Y10253D1*
X8378Y10274D1*
X8407Y10294D1*
X8435Y10315D1*
X8462Y10336D1*
X8490Y10356D1*
X8519Y10377D1*
X8546Y10398D1*
X8574Y10418D1*
X10050Y14048D2*
X10019Y14043D1*
X9991Y14029D1*
X9969Y14007D1*
X9955Y13980D1*
X9949Y13949D1*
X9955Y13918D1*
X9969Y13890D1*
X9991Y13868D1*
X10019Y13854D1*
X10050Y13849D1*
X10081Y13854D1*
X10108Y13868D1*
X10130Y13891D1*
X10144Y13918D1*
X10149Y13949D1*
X10144Y13980D1*
X10130Y14007D1*
X10108Y14029D1*
X10080Y14043D1*
X10050Y14048D1*
X9015D2*
X8984Y14043D1*
X8956Y14029D1*
X8934Y14007D1*
X8920Y13980D1*
X8915Y13949D1*
X8920Y13918D1*
X8934Y13890D1*
X8956Y13868D1*
X8984Y13854D1*
X9015Y13849D1*
X9046Y13854D1*
X9074Y13868D1*
X9096Y13891D1*
X9110Y13918D1*
X9114Y13949D1*
X9110Y13980D1*
X9096Y14007D1*
X9074Y14029D1*
X9045Y14043D1*
X9015Y14048D1*
X11205Y13974D2*
X11174Y13969D1*
X11146Y13955D1*
X11124Y13933D1*
X11110Y13906D1*
X11105Y13875D1*
X11110Y13844D1*
X11124Y13817D1*
X11146Y13795D1*
X11174Y13780D1*
X11205Y13776D1*
X11236Y13780D1*
X11263Y13795D1*
X11286Y13817D1*
X11300Y13844D1*
X11305Y13875D1*
X11300Y13906D1*
X11286Y13934D1*
X11263Y13955D1*
X11236Y13969D1*
X11205Y13974D1*
X7859D2*
X7828Y13969D1*
X7801Y13955D1*
X7778Y13934D1*
X7764Y13906D1*
X7759Y13875D1*
X7764Y13844D1*
X7778Y13817D1*
X7801Y13795D1*
X7828Y13780D1*
X7859Y13776D1*
X7890Y13780D1*
X7917Y13795D1*
X7939Y13817D1*
X7953Y13844D1*
X7958Y13875D1*
X7953Y13906D1*
X7939Y13933D1*
X7917Y13955D1*
X7890Y13969D1*
X7859Y13974D1*
X9749Y10886D2*
X9724D1*
X9699D1*
X9666D1*
X9633D1*
X9599D1*
X9565D1*
X9532D1*
X9499D1*
X9465D1*
X9431D1*
X9398D1*
X9364D1*
X9339D1*
X9315D1*
Y10857D1*
Y10828D1*
Y10799D1*
X9339D1*
X9364D1*
Y10768D1*
Y10736D1*
Y10704D1*
Y10673D1*
Y10640D1*
Y10609D1*
Y10577D1*
Y10545D1*
Y10513D1*
X9350Y10481D1*
X9338Y10448D1*
X9325Y10414D1*
X9313Y10382D1*
X9299Y10349D1*
X9287Y10317D1*
X9274Y10284D1*
X9262Y10251D1*
X9248Y10218D1*
X9236Y10185D1*
X9223Y10152D1*
X9211Y10120D1*
X9198Y10087D1*
X9185Y10054D1*
X9172Y10022D1*
X9160Y9989D1*
X9147Y9956D1*
X9134Y9923D1*
X9121Y9890D1*
X9109Y9858D1*
X9096Y9825D1*
X9083Y9792D1*
X9071Y9760D1*
X9058Y9727D1*
X9045Y9694D1*
X9032Y9661D1*
X9020Y9628D1*
X9007Y9596D1*
X8994Y9563D1*
X8982Y9530D1*
X8969Y9497D1*
X8984Y9465D1*
X8998Y9434D1*
X9013Y9402D1*
X9027Y9371D1*
X9042Y9339D1*
X9056Y9307D1*
X9071Y9276D1*
X9104D1*
X9139D1*
X9172D1*
X9207D1*
X9241D1*
X9275D1*
X9310D1*
X9344D1*
X9378D1*
X9412D1*
X9447D1*
X9480D1*
X9515D1*
X9549D1*
X9583D1*
X9618D1*
X9651D1*
X9686D1*
X9720D1*
X9754D1*
X9789D1*
X9822D1*
X9857D1*
X9891D1*
X9925D1*
X9959D1*
X9994D1*
X10008Y9307D1*
X10023Y9339D1*
X10037Y9371D1*
X10051Y9402D1*
X10066Y9434D1*
X10080Y9465D1*
X10095Y9497D1*
X10083Y9530D1*
X10069Y9563D1*
X10057Y9595D1*
X10044Y9628D1*
X10032Y9661D1*
X10019Y9694D1*
X10006Y9727D1*
X9993Y9760D1*
X9981Y9792D1*
X9968Y9825D1*
X9955Y9857D1*
X9942Y9890D1*
X9930Y9923D1*
X9917Y9956D1*
X9904Y9989D1*
X9891Y10022D1*
X9879Y10054D1*
X9866Y10087D1*
X9854Y10120D1*
X9840Y10152D1*
X9828Y10185D1*
X9815Y10218D1*
X9803Y10251D1*
X9789Y10284D1*
X9777Y10316D1*
X9764Y10349D1*
X9752Y10382D1*
X9738Y10414D1*
X9726Y10448D1*
X9713Y10481D1*
X9701Y10513D1*
Y10545D1*
Y10577D1*
Y10609D1*
Y10640D1*
Y10673D1*
Y10704D1*
Y10736D1*
Y10768D1*
Y10799D1*
X9725D1*
X9749D1*
Y10828D1*
Y10857D1*
Y10886D1*
X11744Y9012D2*
X11713Y9007D1*
X11685Y8993D1*
X11663Y8972D1*
X11648Y8944D1*
X11643Y8913D1*
X11648Y8882D1*
X11663Y8855D1*
X11685Y8833D1*
X11713Y8818D1*
X11744Y8814D1*
X11774Y8818D1*
X11802Y8833D1*
X11823Y8855D1*
X11838Y8882D1*
X11842Y8913D1*
X11838Y8944D1*
X11823Y8972D1*
X11802Y8993D1*
X11774Y9007D1*
X11744Y9012D1*
X7320D2*
X7290Y9007D1*
X7262Y8993D1*
X7240Y8972D1*
X7226Y8944D1*
X7221Y8913D1*
X7226Y8882D1*
X7240Y8855D1*
X7262Y8833D1*
X7290Y8818D1*
X7320Y8814D1*
X7351Y8819D1*
X7379Y8833D1*
X7402Y8855D1*
X7416Y8882D1*
X7420Y8913D1*
X7416Y8944D1*
X7402Y8972D1*
X7379Y8994D1*
X7351Y9007D1*
X7320Y9012D1*
X10540Y7869D2*
X10510Y7865D1*
X10481Y7851D1*
X10460Y7829D1*
X10445Y7802D1*
X10440Y7770D1*
X10445Y7739D1*
X10460Y7712D1*
X10481Y7690D1*
X10509Y7675D1*
X10540Y7670D1*
X10571Y7675D1*
X10598Y7690D1*
X10620Y7712D1*
X10634Y7739D1*
X10639Y7770D1*
X10634Y7801D1*
X10620Y7829D1*
X10598Y7850D1*
X10571Y7865D1*
X10540Y7869D1*
X8523D2*
X8493Y7865D1*
X8465Y7850D1*
X8443Y7829D1*
X8429Y7801D1*
X8425Y7770D1*
X8429Y7739D1*
X8443Y7712D1*
X8465Y7690D1*
X8493Y7675D1*
X8523Y7670D1*
X8555Y7675D1*
X8582Y7690D1*
X8605Y7712D1*
X8619Y7739D1*
X8624Y7770D1*
X8619Y7802D1*
X8605Y7829D1*
X8582Y7851D1*
X8555Y7865D1*
X8523Y7869D1*
X12899Y6963D2*
X12874Y6960D1*
X12850Y6953D1*
X12828Y6941D1*
X12808Y6926D1*
X12792Y6906D1*
X12781Y6884D1*
X12773Y6860D1*
X12770Y6834D1*
Y6801D1*
Y6766D1*
Y6732D1*
Y6697D1*
Y6663D1*
Y6629D1*
Y6594D1*
Y6561D1*
Y6526D1*
Y6492D1*
Y6457D1*
Y6424D1*
Y6389D1*
Y6355D1*
Y6320D1*
Y6287D1*
Y6252D1*
X12797D1*
X12824D1*
X12850D1*
X12877D1*
Y6283D1*
Y6314D1*
Y6346D1*
Y6376D1*
Y6408D1*
Y6439D1*
Y6470D1*
Y6501D1*
X12910D1*
X12944D1*
X12977D1*
X13009D1*
X13043D1*
X13076D1*
X13109D1*
X13143D1*
X13176D1*
X13209D1*
X13242D1*
X13275D1*
X13308D1*
X13342D1*
X13375D1*
Y6470D1*
Y6439D1*
Y6408D1*
Y6376D1*
Y6346D1*
Y6314D1*
Y6283D1*
Y6252D1*
X13401D1*
X13428D1*
X13455D1*
X13481D1*
Y6287D1*
Y6320D1*
Y6355D1*
Y6389D1*
Y6424D1*
Y6457D1*
Y6492D1*
Y6526D1*
Y6561D1*
Y6594D1*
Y6629D1*
Y6663D1*
Y6697D1*
Y6732D1*
Y6766D1*
Y6801D1*
Y6834D1*
X13479Y6860D1*
X13471Y6884D1*
X13459Y6906D1*
X13444Y6926D1*
X13425Y6941D1*
X13403Y6953D1*
X13379Y6960D1*
X13353Y6963D1*
X13318D1*
X13283D1*
X13249D1*
X13213D1*
X13179D1*
X13144D1*
X13108D1*
X13074D1*
X13038D1*
X13004D1*
X12969D1*
X12933D1*
X12899D1*
X12877Y6608D2*
Y6640D1*
Y6672D1*
Y6705D1*
Y6737D1*
Y6770D1*
Y6802D1*
Y6834D1*
X12884Y6849D1*
X12899Y6856D1*
X12933D1*
X12969D1*
X13004D1*
X13038D1*
X13074D1*
X13108D1*
X13144D1*
X13178D1*
X13213D1*
X13248D1*
X13283D1*
X13318D1*
X13353D1*
X13369Y6849D1*
X13375Y6834D1*
Y6802D1*
Y6770D1*
Y6738D1*
Y6705D1*
Y6672D1*
Y6640D1*
Y6608D1*
X13342D1*
X13308D1*
X13275D1*
X13242D1*
X13209D1*
X13176D1*
X13143D1*
X13109D1*
X13076D1*
X13043D1*
X13009D1*
X12977D1*
X12944D1*
X12910D1*
X12877D1*
X12214Y6825D2*
Y6798D1*
Y6771D1*
Y6745D1*
Y6718D1*
X12246D1*
X12277D1*
X12309D1*
X12342D1*
X12374D1*
X12406D1*
X12437D1*
X12469D1*
X12502D1*
X12534D1*
X12549Y6711D1*
X12556Y6697D1*
Y6662D1*
Y6628D1*
Y6594D1*
Y6560D1*
Y6526D1*
Y6491D1*
Y6457D1*
Y6423D1*
Y6389D1*
Y6354D1*
Y6320D1*
Y6286D1*
Y6252D1*
X12582D1*
X12609D1*
X12636D1*
X12662D1*
Y6284D1*
Y6317D1*
Y6348D1*
Y6380D1*
Y6416D1*
Y6450D1*
Y6486D1*
Y6520D1*
Y6556D1*
Y6591D1*
Y6626D1*
Y6661D1*
Y6697D1*
X12660Y6722D1*
X12652Y6745D1*
X12640Y6767D1*
X12625Y6787D1*
X12606Y6803D1*
X12584Y6815D1*
X12560Y6823D1*
X12534Y6825D1*
X12502D1*
X12469D1*
X12438D1*
X12406D1*
X12374D1*
X12342D1*
X12309D1*
X12277D1*
X12246D1*
X12214D1*
X11697D2*
X11671Y6823D1*
X11647Y6815D1*
X11625Y6803D1*
X11606Y6787D1*
X11590Y6767D1*
X11578Y6745D1*
X11571Y6722D1*
X11569Y6697D1*
Y6662D1*
Y6628D1*
Y6594D1*
Y6560D1*
Y6525D1*
Y6491D1*
Y6457D1*
Y6423D1*
Y6389D1*
Y6354D1*
Y6320D1*
Y6286D1*
Y6252D1*
X11603D1*
X11638D1*
X11673D1*
X11708D1*
X11743D1*
X11778D1*
X11813D1*
X11848D1*
X11883D1*
X11918D1*
X11953D1*
X11987D1*
X12023D1*
X12048Y6254D1*
X12073Y6262D1*
X12095Y6274D1*
X12114Y6290D1*
X12129Y6309D1*
X12141Y6330D1*
X12149Y6354D1*
X12151Y6380D1*
Y6416D1*
Y6451D1*
Y6486D1*
Y6521D1*
Y6557D1*
Y6592D1*
X12117D1*
X12083D1*
X12049D1*
X12015D1*
X11981D1*
X11947D1*
X11913D1*
X11879D1*
X11845D1*
X11811D1*
X11777D1*
X11743D1*
X11709D1*
X11675D1*
Y6627D1*
Y6661D1*
Y6697D1*
X11682Y6711D1*
X11697Y6718D1*
X11732D1*
X11766D1*
X11802D1*
X11837D1*
X11871D1*
X11907D1*
X11941D1*
X11976D1*
X12011D1*
X12046D1*
X12081D1*
X12116D1*
X12151D1*
Y6745D1*
Y6771D1*
Y6798D1*
Y6825D1*
X12116D1*
X12081D1*
X12046D1*
X12012D1*
X11976D1*
X11941D1*
X11907D1*
X11871D1*
X11837D1*
X11802D1*
X11767D1*
X11732D1*
X11697D1*
X11675Y6485D2*
X11708D1*
X11742D1*
X11776D1*
X11809D1*
X11843D1*
X11877D1*
X11910D1*
X11943D1*
X11977D1*
X12011D1*
X12045D1*
Y6450D1*
Y6415D1*
Y6380D1*
X12038Y6365D1*
X12023Y6358D1*
X11988D1*
X11953D1*
X11918D1*
X11884D1*
X11849D1*
X11814D1*
X11780D1*
X11744D1*
X11710D1*
X11675D1*
Y6391D1*
Y6422D1*
Y6453D1*
Y6485D1*
X10900Y6358D2*
Y6332D1*
Y6306D1*
Y6279D1*
Y6252D1*
X10935D1*
X10970D1*
X11005D1*
X11040D1*
X11075D1*
X11110D1*
X11145D1*
X11180D1*
X11214D1*
X11250D1*
X11284D1*
X11319D1*
X11355D1*
X11380Y6254D1*
X11405Y6262D1*
X11426Y6274D1*
X11446Y6290D1*
X11461Y6309D1*
X11473Y6330D1*
X11480Y6354D1*
X11483Y6380D1*
Y6416D1*
Y6450D1*
Y6486D1*
Y6520D1*
Y6556D1*
Y6591D1*
Y6626D1*
Y6661D1*
Y6697D1*
X11480Y6722D1*
X11473Y6745D1*
X11461Y6767D1*
X11446Y6787D1*
X11426Y6803D1*
X11405Y6815D1*
X11380Y6823D1*
X11355Y6825D1*
X11319D1*
X11285D1*
X11250D1*
X11215D1*
X11181D1*
X11145D1*
X11111D1*
X11076D1*
X11041D1*
X11007D1*
X10972D1*
X10937D1*
X10902D1*
Y6798D1*
Y6771D1*
Y6745D1*
Y6718D1*
X10937D1*
X10972D1*
X11007D1*
X11041D1*
X11076D1*
X11111D1*
X11145D1*
X11181D1*
X11215D1*
X11250D1*
X11285D1*
X11319D1*
X11355D1*
X11370Y6711D1*
X11376Y6697D1*
Y6661D1*
Y6626D1*
Y6591D1*
Y6556D1*
Y6521D1*
Y6486D1*
Y6450D1*
Y6416D1*
Y6380D1*
X11370Y6365D1*
X11355Y6359D1*
X11319D1*
X11284D1*
X11250D1*
X11214D1*
X11180D1*
X11145D1*
X11110D1*
X11075D1*
X11040D1*
X11005D1*
X10970D1*
X10935D1*
X10900D1*
X10355Y6825D2*
X10329Y6823D1*
X10305Y6815D1*
X10283Y6803D1*
X10264Y6787D1*
X10249Y6767D1*
X10237Y6745D1*
X10229Y6722D1*
X10226Y6697D1*
Y6662D1*
Y6628D1*
Y6594D1*
Y6560D1*
Y6525D1*
Y6491D1*
Y6457D1*
Y6423D1*
Y6389D1*
Y6354D1*
Y6320D1*
Y6286D1*
Y6252D1*
X10253D1*
X10279D1*
X10306D1*
X10333D1*
Y6286D1*
Y6320D1*
Y6354D1*
Y6389D1*
Y6423D1*
Y6457D1*
Y6491D1*
Y6525D1*
Y6560D1*
Y6594D1*
Y6628D1*
Y6662D1*
Y6697D1*
X10340Y6711D1*
X10355Y6718D1*
X10387D1*
X10420D1*
X10452D1*
X10485D1*
X10518D1*
X10550D1*
X10583D1*
X10616D1*
X10648D1*
X10681D1*
X10696Y6711D1*
X10702Y6697D1*
Y6662D1*
Y6628D1*
Y6594D1*
Y6560D1*
Y6525D1*
Y6491D1*
Y6457D1*
Y6423D1*
Y6389D1*
Y6354D1*
Y6320D1*
Y6286D1*
Y6252D1*
X10728D1*
X10755D1*
X10783D1*
X10808D1*
Y6287D1*
Y6321D1*
Y6356D1*
Y6391D1*
Y6425D1*
Y6460D1*
Y6494D1*
Y6528D1*
Y6563D1*
Y6597D1*
Y6632D1*
Y6667D1*
Y6701D1*
Y6736D1*
Y6771D1*
Y6805D1*
Y6839D1*
Y6874D1*
Y6908D1*
Y6943D1*
Y6978D1*
Y7012D1*
X10783D1*
X10755D1*
X10728D1*
X10702D1*
Y6981D1*
Y6950D1*
Y6919D1*
Y6887D1*
Y6856D1*
Y6825D1*
X10667D1*
X10633D1*
X10598D1*
X10563D1*
X10529D1*
X10493D1*
X10459D1*
X10424D1*
X10389D1*
X10355D1*
X9697D2*
X9672Y6823D1*
X9647Y6815D1*
X9626Y6803D1*
X9606Y6787D1*
X9590Y6767D1*
X9578Y6745D1*
X9571Y6722D1*
X9568Y6697D1*
Y6662D1*
Y6628D1*
Y6594D1*
Y6560D1*
Y6525D1*
Y6491D1*
Y6457D1*
Y6423D1*
Y6389D1*
Y6354D1*
Y6320D1*
Y6286D1*
Y6252D1*
X9595D1*
X9622D1*
X9649D1*
X9676D1*
Y6286D1*
Y6320D1*
Y6354D1*
Y6389D1*
Y6423D1*
Y6457D1*
Y6491D1*
Y6525D1*
Y6560D1*
Y6594D1*
Y6628D1*
Y6662D1*
Y6697D1*
X9682Y6711D1*
X9697Y6718D1*
X9730D1*
X9762D1*
X9795D1*
X9827D1*
X9860D1*
X9893D1*
X9925D1*
X9958D1*
X9990D1*
X10023D1*
X10039Y6711D1*
X10045Y6697D1*
Y6662D1*
Y6628D1*
Y6594D1*
Y6560D1*
Y6525D1*
Y6491D1*
Y6457D1*
Y6423D1*
Y6389D1*
Y6354D1*
Y6320D1*
Y6286D1*
Y6252D1*
X10072D1*
X10098D1*
X10125D1*
X10151D1*
Y6286D1*
Y6320D1*
Y6353D1*
Y6387D1*
Y6420D1*
Y6454D1*
Y6488D1*
Y6521D1*
Y6555D1*
Y6589D1*
Y6623D1*
Y6657D1*
Y6690D1*
Y6723D1*
Y6757D1*
Y6791D1*
Y6825D1*
X10116D1*
X10081D1*
X10046D1*
X10011D1*
X9977D1*
X9941D1*
X9907D1*
X9872D1*
X9837D1*
X9802D1*
X9767D1*
X9732D1*
X9697D1*
X9466D2*
X9440D1*
X9413D1*
X9386D1*
X9360D1*
Y6791D1*
Y6757D1*
Y6723D1*
Y6690D1*
Y6657D1*
Y6623D1*
Y6589D1*
Y6555D1*
Y6521D1*
Y6488D1*
Y6454D1*
Y6420D1*
Y6387D1*
Y6353D1*
Y6320D1*
Y6286D1*
Y6252D1*
X9386D1*
X9413D1*
X9440D1*
X9466D1*
Y6286D1*
Y6320D1*
Y6353D1*
Y6387D1*
Y6420D1*
Y6454D1*
Y6488D1*
Y6521D1*
Y6555D1*
Y6589D1*
Y6623D1*
Y6657D1*
Y6690D1*
Y6723D1*
Y6757D1*
Y6791D1*
Y6825D1*
X9360Y7012D2*
Y6985D1*
Y6959D1*
Y6932D1*
Y6906D1*
X9386D1*
X9413D1*
X9440D1*
X9466D1*
Y6932D1*
Y6959D1*
Y6985D1*
Y7012D1*
X9440D1*
X9413D1*
X9386D1*
X9360D1*
X8707D2*
Y6978D1*
Y6943D1*
Y6908D1*
Y6874D1*
Y6839D1*
Y6804D1*
Y6771D1*
Y6736D1*
Y6701D1*
Y6667D1*
Y6632D1*
Y6597D1*
Y6563D1*
Y6528D1*
Y6494D1*
Y6459D1*
Y6425D1*
Y6391D1*
Y6356D1*
Y6321D1*
Y6287D1*
Y6252D1*
X8741D1*
X8777D1*
X8811D1*
X8846D1*
X8881D1*
X8916D1*
X8951D1*
X8986D1*
X9021D1*
X9056D1*
X9091D1*
X9125D1*
X9161D1*
X9187Y6254D1*
X9211Y6262D1*
X9233Y6274D1*
X9252Y6290D1*
X9267Y6309D1*
X9279Y6330D1*
X9287Y6354D1*
X9289Y6380D1*
Y6416D1*
Y6450D1*
Y6486D1*
Y6520D1*
Y6556D1*
Y6591D1*
Y6626D1*
Y6661D1*
Y6697D1*
X9287Y6722D1*
X9279Y6745D1*
X9267Y6767D1*
X9252Y6787D1*
X9233Y6803D1*
X9211Y6815D1*
X9187Y6823D1*
X9161Y6825D1*
X9126D1*
X9091D1*
X9056D1*
X9022D1*
X8987D1*
X8952D1*
X8918D1*
X8882D1*
X8848D1*
X8813D1*
Y6856D1*
Y6887D1*
Y6919D1*
Y6950D1*
Y6981D1*
Y7012D1*
X8787D1*
X8760D1*
X8733D1*
X8707D1*
X8835Y6359D2*
X8820Y6365D1*
X8813Y6380D1*
Y6416D1*
Y6450D1*
Y6486D1*
Y6520D1*
Y6556D1*
Y6591D1*
Y6626D1*
Y6661D1*
Y6697D1*
X8820Y6711D1*
X8835Y6718D1*
X8867D1*
X8900D1*
X8933D1*
X8965D1*
X8998D1*
X9031D1*
X9063D1*
X9096D1*
X9128D1*
X9161D1*
X9176Y6711D1*
X9183Y6697D1*
Y6661D1*
Y6626D1*
Y6591D1*
Y6556D1*
Y6521D1*
Y6486D1*
Y6450D1*
Y6416D1*
Y6380D1*
X9176Y6365D1*
X9161Y6359D1*
X9128D1*
X9096D1*
X9063D1*
X9031D1*
X8998D1*
X8965D1*
X8933D1*
X8900D1*
X8867D1*
X8835D1*
X8310Y6964D2*
X8284D1*
X8257D1*
X8230D1*
X8204D1*
Y6930D1*
Y6897D1*
Y6863D1*
Y6830D1*
Y6796D1*
Y6762D1*
Y6729D1*
Y6695D1*
Y6661D1*
Y6627D1*
Y6594D1*
Y6561D1*
Y6527D1*
Y6493D1*
Y6460D1*
Y6426D1*
Y6392D1*
Y6358D1*
X8171D1*
X8137D1*
X8103D1*
X8070D1*
X8036D1*
X8002D1*
X7969D1*
X7935D1*
X7902D1*
X7868D1*
X7834D1*
X7801D1*
X7768D1*
X7734D1*
X7700D1*
X7667D1*
X7633D1*
X7600D1*
Y6332D1*
Y6306D1*
Y6279D1*
Y6252D1*
X7634D1*
X7667D1*
X7701D1*
X7735D1*
X7769D1*
X7803D1*
X7837D1*
X7870D1*
X7904D1*
X7938D1*
X7972D1*
X8006D1*
X8040D1*
X8073D1*
X8107D1*
X8142D1*
X8175D1*
X8209D1*
X8243D1*
X8276D1*
X8310D1*
Y6286D1*
Y6320D1*
Y6354D1*
Y6387D1*
Y6421D1*
Y6456D1*
Y6490D1*
Y6524D1*
Y6557D1*
Y6591D1*
Y6625D1*
Y6659D1*
Y6693D1*
Y6727D1*
Y6760D1*
Y6794D1*
Y6828D1*
Y6862D1*
Y6896D1*
Y6930D1*
Y6964D1*
X7092Y6825D2*
X7067Y6823D1*
X7043Y6815D1*
X7021Y6803D1*
X7001Y6787D1*
X6985Y6767D1*
X6974Y6745D1*
X6966Y6722D1*
X6963Y6697D1*
Y6662D1*
Y6628D1*
Y6594D1*
Y6560D1*
Y6525D1*
Y6491D1*
Y6457D1*
Y6423D1*
Y6389D1*
Y6354D1*
Y6320D1*
Y6286D1*
Y6252D1*
X6999D1*
X7033D1*
X7069D1*
X7103D1*
X7138D1*
X7173D1*
X7208D1*
X7243D1*
X7278D1*
X7313D1*
X7348D1*
X7383D1*
X7417D1*
X7443Y6254D1*
X7468Y6262D1*
X7489Y6274D1*
X7508Y6290D1*
X7524Y6309D1*
X7536Y6330D1*
X7544Y6354D1*
X7546Y6380D1*
Y6416D1*
Y6451D1*
Y6486D1*
Y6521D1*
Y6557D1*
Y6592D1*
X7512D1*
X7478D1*
X7444D1*
X7410D1*
X7376D1*
X7342D1*
X7308D1*
X7274D1*
X7240D1*
X7206D1*
X7172D1*
X7138D1*
X7104D1*
X7070D1*
Y6627D1*
Y6661D1*
Y6697D1*
X7077Y6711D1*
X7092Y6718D1*
X7127D1*
X7162D1*
X7196D1*
X7232D1*
X7267D1*
X7301D1*
X7337D1*
X7371D1*
X7406D1*
X7441D1*
X7476D1*
X7511D1*
X7546D1*
Y6745D1*
Y6771D1*
Y6798D1*
Y6825D1*
X7511D1*
X7476D1*
X7441D1*
X7406D1*
X7371D1*
X7337D1*
X7301D1*
X7267D1*
X7232D1*
X7197D1*
X7162D1*
X7127D1*
X7092D1*
X7070Y6485D2*
X7104D1*
X7137D1*
X7171D1*
X7204D1*
X7238D1*
X7272D1*
X7305D1*
X7339D1*
X7372D1*
X7406D1*
X7439D1*
Y6450D1*
Y6415D1*
Y6380D1*
X7434Y6365D1*
X7417Y6358D1*
X7383D1*
X7348D1*
X7313D1*
X7279D1*
X7244D1*
X7209D1*
X7174D1*
X7140D1*
X7105D1*
X7070D1*
Y6391D1*
Y6422D1*
Y6453D1*
Y6485D1*
X6423Y6825D2*
X6398Y6823D1*
X6373Y6815D1*
X6351Y6803D1*
X6332Y6787D1*
X6316Y6767D1*
X6304Y6745D1*
X6296Y6722D1*
X6294Y6697D1*
Y6661D1*
Y6626D1*
Y6591D1*
Y6556D1*
Y6521D1*
Y6486D1*
Y6450D1*
Y6416D1*
Y6380D1*
X6296Y6354D1*
X6304Y6330D1*
X6316Y6309D1*
X6332Y6290D1*
X6351Y6273D1*
X6373Y6262D1*
X6398Y6254D1*
X6423Y6252D1*
X6458D1*
X6492D1*
X6528D1*
X6562D1*
X6597D1*
X6632D1*
X6667D1*
X6702D1*
X6737D1*
X6772D1*
X6807D1*
X6842D1*
X6876D1*
Y6287D1*
Y6321D1*
Y6356D1*
Y6391D1*
Y6425D1*
Y6460D1*
Y6494D1*
Y6528D1*
Y6563D1*
Y6597D1*
Y6632D1*
Y6667D1*
Y6701D1*
Y6736D1*
Y6771D1*
Y6805D1*
Y6839D1*
Y6874D1*
Y6908D1*
Y6943D1*
Y6978D1*
Y7012D1*
X6850D1*
X6823D1*
X6796D1*
X6770D1*
Y6981D1*
Y6950D1*
Y6919D1*
Y6887D1*
Y6856D1*
Y6825D1*
X6735D1*
X6701D1*
X6666D1*
X6631D1*
X6597D1*
X6561D1*
X6527D1*
X6492D1*
X6457D1*
X6423D1*
X6401Y6697D2*
X6408Y6711D1*
X6423Y6718D1*
X6456D1*
X6488D1*
X6521D1*
X6553D1*
X6586D1*
X6618D1*
X6651D1*
X6684D1*
X6716D1*
X6749D1*
X6764Y6711D1*
X6770Y6697D1*
Y6661D1*
Y6626D1*
Y6591D1*
Y6556D1*
Y6521D1*
Y6486D1*
Y6450D1*
Y6416D1*
Y6380D1*
X6764Y6365D1*
X6749Y6359D1*
X6716D1*
X6684D1*
X6651D1*
X6619D1*
X6586D1*
X6553D1*
X6521D1*
X6488D1*
X6456D1*
X6423D1*
X6408Y6365D1*
X6401Y6380D1*
Y6416D1*
Y6450D1*
Y6486D1*
Y6520D1*
Y6556D1*
Y6591D1*
Y6626D1*
Y6661D1*
Y6697D1*
X5643Y6675D2*
X5669D1*
X5696D1*
X5723D1*
X5749D1*
Y6697D1*
X5756Y6711D1*
X5771Y6718D1*
X5803D1*
X5836D1*
X5868D1*
X5901D1*
X5933D1*
X5966D1*
X5999D1*
X6031D1*
X6064D1*
X6096D1*
X6113Y6711D1*
X6118Y6697D1*
Y6668D1*
Y6641D1*
Y6613D1*
X6113Y6597D1*
X6096Y6592D1*
X6064D1*
X6031D1*
X5999D1*
X5966D1*
X5934D1*
X5901D1*
X5868D1*
X5836D1*
X5803D1*
X5771D1*
X5746Y6590D1*
X5722Y6582D1*
X5700Y6570D1*
X5680Y6554D1*
X5665Y6535D1*
X5653Y6513D1*
X5645Y6488D1*
X5643Y6463D1*
Y6435D1*
Y6408D1*
Y6380D1*
X5645Y6354D1*
X5653Y6330D1*
X5665Y6309D1*
X5680Y6290D1*
X5700Y6273D1*
X5722Y6262D1*
X5746Y6254D1*
X5771Y6252D1*
X5803D1*
X5836D1*
X5868D1*
X5901D1*
X5933D1*
X5966D1*
X5999D1*
X6031D1*
X6064D1*
X6096D1*
X6122Y6254D1*
X6147Y6262D1*
X6169Y6274D1*
X6187Y6290D1*
X6203Y6309D1*
X6216Y6330D1*
X6223Y6354D1*
X6225Y6380D1*
Y6402D1*
X6198D1*
X6172D1*
X6145D1*
X6118D1*
Y6380D1*
X6113Y6365D1*
X6096Y6359D1*
X6064D1*
X6031D1*
X5999D1*
X5966D1*
X5934D1*
X5901D1*
X5868D1*
X5836D1*
X5803D1*
X5771D1*
X5756Y6365D1*
X5749Y6380D1*
Y6408D1*
Y6435D1*
Y6463D1*
X5756Y6478D1*
X5771Y6485D1*
X5803D1*
X5836D1*
X5868D1*
X5901D1*
X5933D1*
X5966D1*
X5999D1*
X6031D1*
X6064D1*
X6096D1*
X6122Y6487D1*
X6147Y6495D1*
X6169Y6507D1*
X6187Y6523D1*
X6203Y6542D1*
X6216Y6563D1*
X6223Y6588D1*
X6225Y6613D1*
Y6641D1*
Y6668D1*
Y6697D1*
X6223Y6722D1*
X6216Y6745D1*
X6204Y6767D1*
X6187Y6787D1*
X6169Y6803D1*
X6147Y6815D1*
X6122Y6823D1*
X6096Y6825D1*
X6064D1*
X6031D1*
X5999D1*
X5966D1*
X5934D1*
X5901D1*
X5868D1*
X5836D1*
X5803D1*
X5771D1*
X5746Y6823D1*
X5722Y6815D1*
X5700Y6803D1*
X5680Y6787D1*
X5665Y6767D1*
X5653Y6745D1*
X5645Y6722D1*
X5643Y6697D1*
Y6675D1*
X15367Y12507D2*
D12*
X15652D1*
X15367Y12492D2*
X15654D1*
X15367Y12477D2*
X15658D1*
X15367Y12462D2*
X15662D1*
X15367Y12447D2*
X15665D1*
X15608Y12432D2*
X15666D1*
X15610Y12417D2*
X15667D1*
X15997D2*
X16057D1*
X15613Y12402D2*
X15669D1*
X15997D2*
X16057D1*
X15617Y12387D2*
X15673D1*
X15997D2*
X16057D1*
X15620Y12372D2*
X15677D1*
X15997D2*
X16057D1*
X14842Y12357D2*
X14902D1*
X15202D2*
X15262D1*
X15622D2*
X15680D1*
X15997D2*
X16057D1*
X14850Y12342D2*
X14910D1*
X15195D2*
X15255D1*
X15624D2*
X15682D1*
X15997D2*
X16057D1*
X14856Y12327D2*
X14916D1*
X15188D2*
X15248D1*
X15628D2*
X15684D1*
X15997D2*
X16057D1*
X14862Y12312D2*
X14922D1*
X15182D2*
X15242D1*
X15472D2*
X15547D1*
X15631D2*
X15688D1*
X15997D2*
X16057D1*
X14869Y12297D2*
X14929D1*
X15175D2*
X15235D1*
X15445D2*
X15580D1*
X15633D2*
X15692D1*
X15997D2*
X16057D1*
X14875Y12282D2*
X14935D1*
X15169D2*
X15229D1*
X15421D2*
X15615D1*
X15628D2*
X15695D1*
X15997D2*
X16057D1*
X14881Y12267D2*
X14941D1*
X15163D2*
X15223D1*
X15402D2*
X15697D1*
X15997D2*
X16057D1*
X14887Y12252D2*
X14947D1*
X15157D2*
X15217D1*
X15386D2*
X15699D1*
X15997D2*
X16057D1*
X14892Y12237D2*
X14952D1*
X15152D2*
X15212D1*
X15374D2*
X15475D1*
X15589D2*
X15703D1*
X15817D2*
X16237D1*
X14899Y12222D2*
X14959D1*
X15145D2*
X15205D1*
X15365D2*
X15452D1*
X15613D2*
X15708D1*
X15817D2*
X16237D1*
X14906Y12207D2*
X14966D1*
X15138D2*
X15198D1*
X15358D2*
X15434D1*
X15633D2*
X15712D1*
X15817D2*
X16237D1*
X14911Y12192D2*
X14971D1*
X15133D2*
X15193D1*
X15353D2*
X15420D1*
X15652D2*
X15667D1*
X15817D2*
X16237D1*
X14917Y12177D2*
X14977D1*
X15127D2*
X15187D1*
X15347D2*
X15411D1*
X15817D2*
X16237D1*
X14922Y12162D2*
X14982D1*
X15122D2*
X15182D1*
X15343D2*
X15404D1*
X15997D2*
X16057D1*
X14927Y12147D2*
X14987D1*
X15115D2*
X15177D1*
X15340D2*
X15400D1*
X15997D2*
X16057D1*
X14932Y12132D2*
X14992D1*
X15108D2*
X15172D1*
X15338D2*
X15398D1*
X15997D2*
X16057D1*
X14938Y12117D2*
X14998D1*
X15103D2*
X15166D1*
X15338D2*
X15398D1*
X15997D2*
X16057D1*
X14944Y12102D2*
X15004D1*
X15097D2*
X15160D1*
X15338D2*
X15397D1*
X15997D2*
X16057D1*
X14951Y12087D2*
X15011D1*
X15092D2*
X15153D1*
X15340D2*
X15398D1*
X15997D2*
X16057D1*
X14956Y12072D2*
X15016D1*
X15087D2*
X15148D1*
X15343D2*
X15400D1*
X15667D2*
X15727D1*
X15997D2*
X16057D1*
X14962Y12057D2*
X15022D1*
X15082D2*
X15142D1*
X15348D2*
X15404D1*
X15661D2*
X15722D1*
X15997D2*
X16057D1*
X14967Y12042D2*
X15028D1*
X15076D2*
X15137D1*
X15352D2*
X15410D1*
X15654D2*
X15717D1*
X15997D2*
X16057D1*
X14972Y12027D2*
X15034D1*
X15070D2*
X15130D1*
X15358D2*
X15420D1*
X15645D2*
X15712D1*
X15997D2*
X16057D1*
X14977Y12012D2*
X15043D1*
X15061D2*
X15123D1*
X15365D2*
X15433D1*
X15633D2*
X15706D1*
X15997D2*
X16057D1*
X14983Y11997D2*
X15118D1*
X15374D2*
X15475D1*
X15598D2*
X15699D1*
X15997D2*
X16057D1*
X14989Y11982D2*
X15112D1*
X15385D2*
X15541D1*
X15542D2*
X15690D1*
X14996Y11967D2*
X15107D1*
X15399D2*
X15678D1*
X15001Y11952D2*
X15102D1*
X15416D2*
X15662D1*
X15007Y11937D2*
X15097D1*
X15439D2*
X15639D1*
X15014Y11922D2*
X15090D1*
X15469D2*
X15610D1*
X15022Y11907D2*
X15082D1*
X15502D2*
X15577D1*
X15887Y11662D2*
X15992D1*
X14582Y11647D2*
X14882D1*
X15047D2*
X15122D1*
X15437D2*
X15527D1*
X15844D2*
X16036D1*
X14543Y11632D2*
X14882D1*
X15047D2*
X15122D1*
X15431D2*
X15527D1*
X15808D2*
X16074D1*
X14510Y11617D2*
X14882D1*
X15047D2*
X15122D1*
X15424D2*
X15527D1*
X15780D2*
X16106D1*
X14485Y11602D2*
X14882D1*
X15047D2*
X15122D1*
X15416D2*
X15527D1*
X15760D2*
X16131D1*
X14465Y11587D2*
X14882D1*
X15047D2*
X15122D1*
X15406D2*
X15527D1*
X15745D2*
X15878D1*
X16021D2*
X16150D1*
X14449Y11572D2*
X14570D1*
X14807D2*
X14882D1*
X15047D2*
X15122D1*
X15397D2*
X15527D1*
X15733D2*
X15845D1*
X16049D2*
X16164D1*
X14435Y11557D2*
X14546D1*
X14807D2*
X14882D1*
X15047D2*
X15122D1*
X15387D2*
X15527D1*
X15723D2*
X15821D1*
X16073D2*
X16176D1*
X14424Y11542D2*
X14526D1*
X14807D2*
X14882D1*
X15047D2*
X15122D1*
X15377D2*
X15527D1*
X15715D2*
X15803D1*
X16093D2*
X16187D1*
X14415Y11527D2*
X14509D1*
X14807D2*
X14882D1*
X15047D2*
X15122D1*
X15367D2*
X15527D1*
X15708D2*
X15790D1*
X16110D2*
X16196D1*
X14408Y11512D2*
X14495D1*
X14807D2*
X14882D1*
X15047D2*
X15122D1*
X15357D2*
X15527D1*
X15702D2*
X15780D1*
X16124D2*
X16204D1*
X14403Y11497D2*
X14484D1*
X14807D2*
X14882D1*
X15047D2*
X15122D1*
X15347D2*
X15527D1*
X15697D2*
X15771D1*
X16135D2*
X16211D1*
X14397Y11482D2*
X14475D1*
X14807D2*
X14882D1*
X15047D2*
X15122D1*
X15337D2*
X15419D1*
X15452D2*
X15527D1*
X15692D2*
X15762D1*
X16144D2*
X16216D1*
X14393Y11467D2*
X14466D1*
X14807D2*
X14882D1*
X15047D2*
X15122D1*
X15327D2*
X15413D1*
X15452D2*
X15527D1*
X15737D2*
X15752D1*
X16151D2*
X16222D1*
X14389Y11452D2*
X14459D1*
X14807D2*
X14882D1*
X15047D2*
X15122D1*
X15317D2*
X15405D1*
X15452D2*
X15527D1*
X16156D2*
X16227D1*
X14386Y11437D2*
X14453D1*
X14807D2*
X14882D1*
X15047D2*
X15122D1*
X15307D2*
X15396D1*
X15452D2*
X15527D1*
X16162D2*
X16230D1*
X14381Y11422D2*
X14450D1*
X14807D2*
X14882D1*
X15047D2*
X15122D1*
X15297D2*
X15387D1*
X15452D2*
X15527D1*
X16166D2*
X16233D1*
X14377Y11407D2*
X14448D1*
X14807D2*
X14882D1*
X15047D2*
X15122D1*
X15287D2*
X15377D1*
X15452D2*
X15527D1*
X16169D2*
X16238D1*
X14375Y11392D2*
X14447D1*
X14807D2*
X14882D1*
X15047D2*
X15122D1*
X15277D2*
X15367D1*
X15452D2*
X15527D1*
X16171D2*
X16242D1*
X14373Y11377D2*
X14447D1*
X14807D2*
X14882D1*
X15047D2*
X15122D1*
X15267D2*
X15357D1*
X15452D2*
X15527D1*
X16172D2*
X16245D1*
X14372Y11362D2*
X14447D1*
X14807D2*
X14882D1*
X15047D2*
X15122D1*
X15257D2*
X15347D1*
X15452D2*
X15527D1*
X16172D2*
X16246D1*
X14372Y11347D2*
X14447D1*
X14807D2*
X14882D1*
X15047D2*
X15122D1*
X15247D2*
X15337D1*
X15452D2*
X15527D1*
X16172D2*
X16247D1*
X14372Y11332D2*
X14447D1*
X14807D2*
X14882D1*
X15047D2*
X15122D1*
X15237D2*
X15327D1*
X15452D2*
X15527D1*
X15677D2*
X15932D1*
X16172D2*
X16247D1*
X14372Y11317D2*
X14447D1*
X14807D2*
X14882D1*
X15047D2*
X15122D1*
X15227D2*
X15317D1*
X15452D2*
X15527D1*
X15677D2*
X15932D1*
X16172D2*
X16246D1*
X14373Y11302D2*
X14447D1*
X14807D2*
X14882D1*
X15047D2*
X15122D1*
X15217D2*
X15307D1*
X15452D2*
X15527D1*
X15677D2*
X15932D1*
X16172D2*
X16244D1*
X14375Y11287D2*
X14448D1*
X14807D2*
X14882D1*
X15047D2*
X15122D1*
X15207D2*
X15297D1*
X15452D2*
X15527D1*
X15677D2*
X15932D1*
X16171D2*
X16241D1*
X14378Y11272D2*
X14450D1*
X14807D2*
X14882D1*
X15047D2*
X15122D1*
X15197D2*
X15287D1*
X15452D2*
X15527D1*
X15677D2*
X15932D1*
X16170D2*
X16237D1*
X14382Y11257D2*
X14453D1*
X14807D2*
X14882D1*
X15047D2*
X15122D1*
X15187D2*
X15277D1*
X15452D2*
X15527D1*
X15677D2*
X15752D1*
X16166D2*
X16234D1*
X14385Y11242D2*
X14458D1*
X14807D2*
X14882D1*
X15047D2*
X15122D1*
X15177D2*
X15267D1*
X15452D2*
X15527D1*
X15677D2*
X15752D1*
X16161D2*
X16232D1*
X14389Y11227D2*
X14462D1*
X14807D2*
X14882D1*
X15047D2*
X15123D1*
X15167D2*
X15257D1*
X15452D2*
X15527D1*
X15677D2*
X15752D1*
X16157D2*
X16230D1*
X14393Y11212D2*
X14468D1*
X14807D2*
X14882D1*
X15047D2*
X15125D1*
X15157D2*
X15247D1*
X15452D2*
X15527D1*
X15677D2*
X15752D1*
X16151D2*
X16225D1*
X14399Y11197D2*
X14474D1*
X14807D2*
X14882D1*
X15047D2*
X15130D1*
X15147D2*
X15237D1*
X15452D2*
X15527D1*
X15677D2*
X15752D1*
X16144D2*
X16220D1*
X14406Y11182D2*
X14481D1*
X14807D2*
X14882D1*
X15047D2*
X15227D1*
X15452D2*
X15527D1*
X15677D2*
X15753D1*
X16135D2*
X16213D1*
X14413Y11167D2*
X14490D1*
X14807D2*
X14882D1*
X15047D2*
X15217D1*
X15452D2*
X15527D1*
X15677D2*
X15755D1*
X16124D2*
X16205D1*
X14421Y11152D2*
X14501D1*
X14807D2*
X14882D1*
X15047D2*
X15207D1*
X15452D2*
X15527D1*
X15677D2*
X15760D1*
X16110D2*
X16196D1*
X14429Y11137D2*
X14519D1*
X14807D2*
X14882D1*
X15047D2*
X15197D1*
X15452D2*
X15527D1*
X15678D2*
X15775D1*
X16093D2*
X16186D1*
X14438Y11122D2*
X14542D1*
X14807D2*
X14882D1*
X15047D2*
X15187D1*
X15452D2*
X15527D1*
X15681D2*
X15795D1*
X16066D2*
X16174D1*
X14451Y11107D2*
X14569D1*
X14807D2*
X14882D1*
X15047D2*
X15177D1*
X15452D2*
X15527D1*
X15693D2*
X15854D1*
X16018D2*
X16160D1*
X14467Y11092D2*
X14882D1*
X15047D2*
X15167D1*
X15452D2*
X15527D1*
X15709D2*
X15943D1*
X15940D2*
X16144D1*
X14488Y11077D2*
X14882D1*
X15047D2*
X15158D1*
X15452D2*
X15527D1*
X15731D2*
X16125D1*
X14517Y11062D2*
X14882D1*
X15047D2*
X15149D1*
X15452D2*
X15527D1*
X15757D2*
X16102D1*
X14555Y11047D2*
X14882D1*
X15047D2*
X15143D1*
X15452D2*
X15527D1*
X15789D2*
X16072D1*
X14597Y11032D2*
X14882D1*
X15047D2*
X15137D1*
X15452D2*
X15527D1*
X15829D2*
X16034D1*
X15872Y11017D2*
X15992D1*
X15177Y9662D2*
X15282D1*
X15792D2*
X15882D1*
X15143Y9647D2*
X15323D1*
X15751D2*
X15925D1*
X15113Y9632D2*
X15355D1*
X15719D2*
X15961D1*
X15089Y9617D2*
X15380D1*
X15694D2*
X15990D1*
X15071Y9602D2*
X15398D1*
X15675D2*
X16012D1*
X15056Y9587D2*
X15165D1*
X15308D2*
X15413D1*
X15659D2*
X15778D1*
X15911D2*
X16029D1*
X15044Y9572D2*
X15142D1*
X15330D2*
X15423D1*
X15645D2*
X15753D1*
X15939D2*
X16044D1*
X15035Y9557D2*
X15124D1*
X15346D2*
X15430D1*
X15634D2*
X15732D1*
X15962D2*
X16056D1*
X15028Y9542D2*
X15110D1*
X15357D2*
X15436D1*
X15625D2*
X15717D1*
X15980D2*
X16066D1*
X15023Y9527D2*
X15101D1*
X15365D2*
X15441D1*
X15619D2*
X15704D1*
X15994D2*
X16076D1*
X15018Y9512D2*
X15094D1*
X15369D2*
X15444D1*
X15615D2*
X15693D1*
X16004D2*
X16084D1*
X15014Y9497D2*
X15090D1*
X15370D2*
X15445D1*
X15613D2*
X15683D1*
X16012D2*
X16091D1*
X15012Y9482D2*
X15087D1*
X15370D2*
X15444D1*
X15612D2*
X15672D1*
X16020D2*
X16097D1*
X15363Y9467D2*
X15441D1*
X16026D2*
X16101D1*
X15352Y9452D2*
X15436D1*
X16032D2*
X16105D1*
X15333Y9437D2*
X15431D1*
X16037D2*
X16108D1*
X15305Y9422D2*
X15424D1*
X16041D2*
X16113D1*
X15267Y9407D2*
X15413D1*
X16044D2*
X16117D1*
X15224Y9392D2*
X15397D1*
X16046D2*
X16120D1*
X15179Y9377D2*
X15377D1*
X16047D2*
X16121D1*
X15138Y9362D2*
X15351D1*
X16047D2*
X16122D1*
X15104Y9347D2*
X15320D1*
X16047D2*
X16122D1*
X15077Y9332D2*
X15281D1*
X16047D2*
X16122D1*
X15057Y9317D2*
X15238D1*
X16047D2*
X16121D1*
X15041Y9302D2*
X15196D1*
X16047D2*
X16120D1*
X15029Y9287D2*
X15158D1*
X16046D2*
X16116D1*
X15018Y9272D2*
X15127D1*
X16045D2*
X16112D1*
X15010Y9257D2*
X15105D1*
X16041D2*
X16109D1*
X15004Y9242D2*
X15090D1*
X16036D2*
X16107D1*
X15000Y9227D2*
X15079D1*
X15402D2*
X15477D1*
X15597D2*
X15657D1*
X16032D2*
X16105D1*
X14998Y9212D2*
X15075D1*
X15400D2*
X15475D1*
X15582D2*
X15663D1*
X16026D2*
X16100D1*
X14998Y9197D2*
X15074D1*
X15395D2*
X15471D1*
X15590D2*
X15669D1*
X16020D2*
X16095D1*
X15000Y9182D2*
X15073D1*
X15390D2*
X15467D1*
X15596D2*
X15676D1*
X16013D2*
X16088D1*
X15003Y9167D2*
X15075D1*
X15383D2*
X15462D1*
X15602D2*
X15684D1*
X16005D2*
X16081D1*
X15008Y9152D2*
X15080D1*
X15374D2*
X15456D1*
X15609D2*
X15694D1*
X15995D2*
X16073D1*
X15013Y9137D2*
X15092D1*
X15364D2*
X15449D1*
X15619D2*
X15709D1*
X15980D2*
X16065D1*
X15020Y9122D2*
X15107D1*
X15340D2*
X15441D1*
X15630D2*
X15733D1*
X15956D2*
X16056D1*
X15031Y9107D2*
X15152D1*
X15295D2*
X15431D1*
X15643D2*
X15775D1*
X15914D2*
X16044D1*
X15044Y9092D2*
X15223D1*
X15222D2*
X15419D1*
X15658D2*
X15843D1*
X15846D2*
X16031D1*
X15058Y9077D2*
X15405D1*
X15673D2*
X16015D1*
X15077Y9062D2*
X15385D1*
X15691D2*
X15996D1*
X15102Y9047D2*
X15358D1*
X15717D2*
X15969D1*
X15137Y9032D2*
X15323D1*
X15752D2*
X15934D1*
X15177Y9017D2*
X15282D1*
X15792D2*
X15897D1*
X15292Y10662D2*
X15382D1*
X15907D2*
X16012D1*
X14467Y10647D2*
X14572D1*
X14872D2*
X14947D1*
X15251D2*
X15425D1*
X15873D2*
X16053D1*
X14482Y10632D2*
X14587D1*
X14872D2*
X14947D1*
X15219D2*
X15461D1*
X15843D2*
X16085D1*
X14497Y10617D2*
X14602D1*
X14872D2*
X14947D1*
X15194D2*
X15490D1*
X15819D2*
X16110D1*
X14512Y10602D2*
X14617D1*
X14872D2*
X14947D1*
X15175D2*
X15512D1*
X15801D2*
X16128D1*
X14527Y10587D2*
X14632D1*
X14872D2*
X14947D1*
X15159D2*
X15278D1*
X15411D2*
X15529D1*
X15786D2*
X15895D1*
X16038D2*
X16143D1*
X14542Y10572D2*
X14647D1*
X14872D2*
X14947D1*
X15145D2*
X15253D1*
X15439D2*
X15544D1*
X15774D2*
X15872D1*
X16060D2*
X16153D1*
X14557Y10557D2*
X14662D1*
X14872D2*
X14947D1*
X15134D2*
X15232D1*
X15462D2*
X15556D1*
X15765D2*
X15854D1*
X16076D2*
X16160D1*
X14572Y10542D2*
X14677D1*
X14872D2*
X14947D1*
X15125D2*
X15217D1*
X15480D2*
X15566D1*
X15758D2*
X15840D1*
X16087D2*
X16166D1*
X14587Y10527D2*
X14692D1*
X14872D2*
X14947D1*
X15119D2*
X15204D1*
X15494D2*
X15576D1*
X15753D2*
X15831D1*
X16095D2*
X16171D1*
X14602Y10512D2*
X14707D1*
X14872D2*
X14947D1*
X15115D2*
X15193D1*
X15504D2*
X15584D1*
X15748D2*
X15824D1*
X16099D2*
X16174D1*
X14617Y10497D2*
X14722D1*
X14872D2*
X14947D1*
X15113D2*
X15183D1*
X15512D2*
X15591D1*
X15744D2*
X15820D1*
X16100D2*
X16175D1*
X14632Y10482D2*
X14737D1*
X14872D2*
X14947D1*
X15112D2*
X15172D1*
X15520D2*
X15597D1*
X15742D2*
X15817D1*
X16100D2*
X16174D1*
X14647Y10467D2*
X14752D1*
X14872D2*
X14947D1*
X15526D2*
X15601D1*
X16093D2*
X16171D1*
X14662Y10452D2*
X14767D1*
X14872D2*
X14947D1*
X15532D2*
X15605D1*
X16082D2*
X16166D1*
X14677Y10437D2*
X14782D1*
X14872D2*
X14947D1*
X15537D2*
X15608D1*
X16063D2*
X16161D1*
X14692Y10422D2*
X14797D1*
X14872D2*
X14947D1*
X15541D2*
X15613D1*
X16035D2*
X16154D1*
X14707Y10407D2*
X14813D1*
X14871D2*
X14947D1*
X15544D2*
X15617D1*
X15997D2*
X16143D1*
X14722Y10392D2*
X14830D1*
X14869D2*
X14947D1*
X15546D2*
X15620D1*
X15954D2*
X16127D1*
X14709Y10377D2*
X14850D1*
X14864D2*
X14947D1*
X15547D2*
X15621D1*
X15909D2*
X16107D1*
X14698Y10362D2*
X14947D1*
X15547D2*
X15622D1*
X15868D2*
X16081D1*
X14687Y10347D2*
X14947D1*
X15547D2*
X15622D1*
X15834D2*
X16050D1*
X14675Y10332D2*
X14947D1*
X15547D2*
X15622D1*
X15807D2*
X16011D1*
X14663Y10317D2*
X14754D1*
X14812D2*
X14947D1*
X15547D2*
X15621D1*
X15787D2*
X15968D1*
X14653Y10302D2*
X14743D1*
X14827D2*
X14947D1*
X15547D2*
X15620D1*
X15771D2*
X15926D1*
X14642Y10287D2*
X14732D1*
X14841D2*
X14947D1*
X15546D2*
X15616D1*
X15759D2*
X15888D1*
X14630Y10272D2*
X14720D1*
X14854D2*
X14947D1*
X15545D2*
X15612D1*
X15748D2*
X15857D1*
X14617Y10257D2*
X14707D1*
X14863D2*
X14947D1*
X15541D2*
X15609D1*
X15740D2*
X15835D1*
X14604Y10242D2*
X14694D1*
X14868D2*
X14947D1*
X15536D2*
X15607D1*
X15734D2*
X15820D1*
X14593Y10227D2*
X14683D1*
X14870D2*
X14947D1*
X15097D2*
X15157D1*
X15532D2*
X15605D1*
X15730D2*
X15809D1*
X16132D2*
X16207D1*
X14582Y10212D2*
X14672D1*
X14871D2*
X14947D1*
X15082D2*
X15163D1*
X15526D2*
X15600D1*
X15728D2*
X15805D1*
X16130D2*
X16205D1*
X14570Y10197D2*
X14660D1*
X14872D2*
X14947D1*
X15090D2*
X15169D1*
X15520D2*
X15595D1*
X15728D2*
X15804D1*
X16125D2*
X16201D1*
X14558Y10182D2*
X14648D1*
X14872D2*
X14947D1*
X15096D2*
X15176D1*
X15513D2*
X15588D1*
X15730D2*
X15803D1*
X16120D2*
X16197D1*
X14548Y10167D2*
X14638D1*
X14872D2*
X14947D1*
X15102D2*
X15184D1*
X15505D2*
X15581D1*
X15733D2*
X15805D1*
X16113D2*
X16192D1*
X14537Y10152D2*
X14627D1*
X14872D2*
X14947D1*
X15109D2*
X15194D1*
X15495D2*
X15573D1*
X15738D2*
X15810D1*
X16104D2*
X16186D1*
X14525Y10137D2*
X14615D1*
X14872D2*
X14947D1*
X15119D2*
X15209D1*
X15480D2*
X15565D1*
X15743D2*
X15822D1*
X16094D2*
X16179D1*
X14513Y10122D2*
X14603D1*
X14872D2*
X14947D1*
X15130D2*
X15233D1*
X15456D2*
X15556D1*
X15750D2*
X15837D1*
X16070D2*
X16171D1*
X14503Y10107D2*
X14593D1*
X14872D2*
X14947D1*
X15143D2*
X15275D1*
X15414D2*
X15544D1*
X15761D2*
X15882D1*
X16025D2*
X16161D1*
X14492Y10092D2*
X14582D1*
X14872D2*
X14947D1*
X15158D2*
X15343D1*
X15346D2*
X15531D1*
X15774D2*
X15953D1*
X15952D2*
X16149D1*
X14480Y10077D2*
X14570D1*
X14872D2*
X14947D1*
X15173D2*
X15515D1*
X15788D2*
X16135D1*
X14469Y10062D2*
X14559D1*
X14872D2*
X14947D1*
X15191D2*
X15496D1*
X15807D2*
X16115D1*
X14460Y10047D2*
X14550D1*
X14872D2*
X14947D1*
X15217D2*
X15469D1*
X15832D2*
X16088D1*
X14452Y10032D2*
X14542D1*
X14872D2*
X14947D1*
X15252D2*
X15434D1*
X15867D2*
X16053D1*
X15292Y10017D2*
X15397D1*
X15907D2*
X16012D1*
X14402Y8662D2*
X14507D1*
X15047D2*
X15152D1*
X14012Y8647D2*
X14087D1*
X14368D2*
X14548D1*
X15007D2*
X15193D1*
X15512D2*
X15632D1*
X15977D2*
X16112D1*
X14012Y8632D2*
X14087D1*
X14338D2*
X14580D1*
X14973D2*
X15228D1*
X15512D2*
X15640D1*
X15976D2*
X16112D1*
X14012Y8617D2*
X14087D1*
X14314D2*
X14605D1*
X14944D2*
X15256D1*
X15512D2*
X15646D1*
X15975D2*
X16112D1*
X14012Y8602D2*
X14087D1*
X14296D2*
X14623D1*
X14921D2*
X15278D1*
X15512D2*
X15652D1*
X15971D2*
X16112D1*
X14012Y8587D2*
X14087D1*
X14281D2*
X14390D1*
X14533D2*
X14638D1*
X14903D2*
X15038D1*
X15161D2*
X15296D1*
X15512D2*
X15657D1*
X15966D2*
X16112D1*
X14012Y8572D2*
X14087D1*
X14269D2*
X14367D1*
X14555D2*
X14648D1*
X14890D2*
X15005D1*
X15194D2*
X15309D1*
X15512D2*
X15662D1*
X15962D2*
X16112D1*
X14012Y8557D2*
X14087D1*
X14260D2*
X14349D1*
X14571D2*
X14655D1*
X14878D2*
X14980D1*
X15219D2*
X15321D1*
X15512D2*
X15587D1*
X15618D2*
X15667D1*
X15957D2*
X16006D1*
X16037D2*
X16112D1*
X14012Y8542D2*
X14087D1*
X14253D2*
X14335D1*
X14582D2*
X14661D1*
X14867D2*
X14960D1*
X15239D2*
X15332D1*
X15512D2*
X15587D1*
X15620D2*
X15672D1*
X15952D2*
X16005D1*
X16037D2*
X16112D1*
X14012Y8527D2*
X14087D1*
X14248D2*
X14326D1*
X14590D2*
X14666D1*
X14858D2*
X14944D1*
X15255D2*
X15341D1*
X15512D2*
X15587D1*
X15623D2*
X15677D1*
X15947D2*
X16001D1*
X16037D2*
X16112D1*
X14012Y8512D2*
X14087D1*
X14243D2*
X14319D1*
X14594D2*
X14669D1*
X14849D2*
X14930D1*
X15269D2*
X15350D1*
X15512D2*
X15587D1*
X15627D2*
X15682D1*
X15942D2*
X15997D1*
X16037D2*
X16112D1*
X14012Y8497D2*
X14087D1*
X14239D2*
X14315D1*
X14595D2*
X14670D1*
X14841D2*
X14919D1*
X15280D2*
X15358D1*
X15512D2*
X15587D1*
X15630D2*
X15687D1*
X15937D2*
X15994D1*
X16037D2*
X16112D1*
X14012Y8482D2*
X14087D1*
X14237D2*
X14312D1*
X14595D2*
X14669D1*
X14834D2*
X14910D1*
X15289D2*
X15365D1*
X15512D2*
X15587D1*
X15633D2*
X15690D1*
X15932D2*
X15991D1*
X16037D2*
X16112D1*
X14012Y8467D2*
X14087D1*
X14588D2*
X14666D1*
X14828D2*
X14903D1*
X15296D2*
X15371D1*
X15512D2*
X15587D1*
X15638D2*
X15693D1*
X15927D2*
X15986D1*
X16037D2*
X16112D1*
X14012Y8452D2*
X14087D1*
X14577D2*
X14661D1*
X14825D2*
X14898D1*
X15301D2*
X15374D1*
X15512D2*
X15587D1*
X15642D2*
X15698D1*
X15922D2*
X15982D1*
X16037D2*
X16112D1*
X14012Y8437D2*
X14087D1*
X14558D2*
X14656D1*
X14823D2*
X14892D1*
X15307D2*
X15376D1*
X15512D2*
X15587D1*
X15647D2*
X15702D1*
X15919D2*
X15977D1*
X16037D2*
X16112D1*
X14012Y8422D2*
X14087D1*
X14530D2*
X14649D1*
X14820D2*
X14888D1*
X15311D2*
X15379D1*
X15512D2*
X15587D1*
X15652D2*
X15707D1*
X15916D2*
X15972D1*
X16037D2*
X16112D1*
X14012Y8407D2*
X14087D1*
X14492D2*
X14638D1*
X14816D2*
X14885D1*
X15314D2*
X15383D1*
X15512D2*
X15587D1*
X15657D2*
X15712D1*
X15911D2*
X15967D1*
X16037D2*
X16112D1*
X14012Y8392D2*
X14087D1*
X14449D2*
X14622D1*
X14812D2*
X14883D1*
X15316D2*
X15387D1*
X15512D2*
X15587D1*
X15662D2*
X15717D1*
X15907D2*
X15962D1*
X16037D2*
X16112D1*
X14012Y8377D2*
X14087D1*
X14404D2*
X14602D1*
X14809D2*
X14882D1*
X15317D2*
X15390D1*
X15512D2*
X15587D1*
X15667D2*
X15722D1*
X15902D2*
X15957D1*
X16037D2*
X16112D1*
X14012Y8362D2*
X14087D1*
X14363D2*
X14576D1*
X14808D2*
X14882D1*
X15317D2*
X15391D1*
X15512D2*
X15587D1*
X15672D2*
X15727D1*
X15897D2*
X15952D1*
X16037D2*
X16112D1*
X14012Y8347D2*
X14087D1*
X14329D2*
X14545D1*
X14807D2*
X14882D1*
X15317D2*
X15392D1*
X15512D2*
X15587D1*
X15677D2*
X15732D1*
X15892D2*
X15949D1*
X16037D2*
X16112D1*
X14012Y8332D2*
X14087D1*
X14302D2*
X14506D1*
X14807D2*
X14882D1*
X15317D2*
X15392D1*
X15512D2*
X15587D1*
X15682D2*
X15737D1*
X15887D2*
X15946D1*
X16037D2*
X16112D1*
X14012Y8317D2*
X14087D1*
X14282D2*
X14463D1*
X14808D2*
X14882D1*
X15317D2*
X15392D1*
X15512D2*
X15587D1*
X15687D2*
X15742D1*
X15882D2*
X15941D1*
X16037D2*
X16112D1*
X14012Y8302D2*
X14087D1*
X14266D2*
X14421D1*
X14810D2*
X14882D1*
X15317D2*
X15391D1*
X15512D2*
X15587D1*
X15690D2*
X15747D1*
X15877D2*
X15937D1*
X16037D2*
X16112D1*
X14012Y8287D2*
X14087D1*
X14254D2*
X14383D1*
X14813D2*
X14883D1*
X15316D2*
X15390D1*
X15512D2*
X15587D1*
X15693D2*
X15750D1*
X15874D2*
X15932D1*
X16037D2*
X16112D1*
X14012Y8272D2*
X14087D1*
X14243D2*
X14352D1*
X14817D2*
X14885D1*
X15315D2*
X15386D1*
X15512D2*
X15587D1*
X15698D2*
X15753D1*
X15871D2*
X15927D1*
X16037D2*
X16112D1*
X14012Y8257D2*
X14087D1*
X14235D2*
X14330D1*
X14820D2*
X14888D1*
X15311D2*
X15382D1*
X15512D2*
X15587D1*
X15702D2*
X15758D1*
X15866D2*
X15922D1*
X16037D2*
X16112D1*
X14012Y8242D2*
X14087D1*
X14229D2*
X14315D1*
X14822D2*
X14893D1*
X15306D2*
X15379D1*
X15512D2*
X15587D1*
X15707D2*
X15762D1*
X15862D2*
X15917D1*
X16037D2*
X16112D1*
X14012Y8227D2*
X14087D1*
X14225D2*
X14304D1*
X14627D2*
X14702D1*
X14824D2*
X14897D1*
X15302D2*
X15376D1*
X15512D2*
X15587D1*
X15712D2*
X15767D1*
X15857D2*
X15912D1*
X16037D2*
X16112D1*
X14012Y8212D2*
X14087D1*
X14223D2*
X14300D1*
X14625D2*
X14700D1*
X14829D2*
X14903D1*
X15296D2*
X15371D1*
X15512D2*
X15587D1*
X15717D2*
X15772D1*
X15852D2*
X15907D1*
X16037D2*
X16112D1*
X14012Y8197D2*
X14087D1*
X14223D2*
X14299D1*
X14620D2*
X14696D1*
X14834D2*
X14910D1*
X15289D2*
X15365D1*
X15512D2*
X15587D1*
X15722D2*
X15777D1*
X15847D2*
X15902D1*
X16037D2*
X16112D1*
X14012Y8182D2*
X14087D1*
X14225D2*
X14298D1*
X14615D2*
X14692D1*
X14841D2*
X14919D1*
X15280D2*
X15358D1*
X15512D2*
X15587D1*
X15727D2*
X15782D1*
X15842D2*
X15897D1*
X16037D2*
X16112D1*
X14012Y8167D2*
X14087D1*
X14228D2*
X14300D1*
X14608D2*
X14687D1*
X14849D2*
X14930D1*
X15269D2*
X15350D1*
X15512D2*
X15587D1*
X15732D2*
X15787D1*
X15837D2*
X15892D1*
X16037D2*
X16112D1*
X14012Y8152D2*
X14087D1*
X14233D2*
X14305D1*
X14599D2*
X14681D1*
X14858D2*
X14943D1*
X15256D2*
X15341D1*
X15512D2*
X15587D1*
X15737D2*
X15792D1*
X15832D2*
X15889D1*
X16037D2*
X16112D1*
X14012Y8137D2*
X14087D1*
X14238D2*
X14317D1*
X14589D2*
X14674D1*
X14867D2*
X14959D1*
X15240D2*
X15332D1*
X15512D2*
X15587D1*
X15742D2*
X15797D1*
X15827D2*
X15886D1*
X16037D2*
X16112D1*
X14012Y8122D2*
X14087D1*
X14245D2*
X14332D1*
X14565D2*
X14666D1*
X14877D2*
X14978D1*
X15221D2*
X15322D1*
X15512D2*
X15587D1*
X15747D2*
X15804D1*
X15820D2*
X15881D1*
X16037D2*
X16112D1*
X14012Y8107D2*
X14087D1*
X14256D2*
X14377D1*
X14520D2*
X14656D1*
X14888D2*
X15028D1*
X15171D2*
X15311D1*
X15512D2*
X15587D1*
X15750D2*
X15877D1*
X16037D2*
X16112D1*
X14012Y8092D2*
X14087D1*
X14269D2*
X14448D1*
X14447D2*
X14644D1*
X14902D2*
X15104D1*
X15095D2*
X15297D1*
X15512D2*
X15587D1*
X15753D2*
X15872D1*
X16037D2*
X16112D1*
X14012Y8077D2*
X14087D1*
X14283D2*
X14630D1*
X14921D2*
X15279D1*
X15512D2*
X15587D1*
X15758D2*
X15867D1*
X16037D2*
X16112D1*
X14012Y8062D2*
X14087D1*
X14302D2*
X14610D1*
X14944D2*
X15255D1*
X15512D2*
X15587D1*
X15762D2*
X15862D1*
X16037D2*
X16112D1*
X14012Y8047D2*
X14087D1*
X14327D2*
X14583D1*
X14973D2*
X15226D1*
X15512D2*
X15587D1*
X15765D2*
X15859D1*
X16037D2*
X16112D1*
X14012Y8032D2*
X14087D1*
X14362D2*
X14548D1*
X15009D2*
X15190D1*
X15512D2*
X15587D1*
X15767D2*
X15857D1*
X16037D2*
X16112D1*
X14402Y8017D2*
X14507D1*
X15047D2*
X15152D1*
X15367Y12507D2*
Y12492D1*
Y12477D1*
Y12462D1*
Y12447D1*
X15652Y12507D2*
X15654Y12492D1*
X15658Y12477D1*
X15662Y12462D1*
X15665Y12447D1*
X15666Y12432D1*
X15667Y12417D1*
X15669Y12402D1*
X15673Y12387D1*
X15677Y12372D1*
X15680Y12357D1*
X15682Y12342D1*
X15684Y12327D1*
X15688Y12312D1*
X15692Y12297D1*
X15695Y12282D1*
X15697Y12267D1*
X15699Y12252D1*
X15703Y12237D1*
X15708Y12222D1*
X15712Y12207D1*
X15667Y12192D1*
X15607Y12447D2*
X15608Y12432D1*
X15610Y12417D1*
X15613Y12402D1*
X15617Y12387D1*
X15620Y12372D1*
X15622Y12357D1*
X15624Y12342D1*
X15628Y12327D1*
X15631Y12312D1*
X15633Y12297D1*
X15628Y12282D1*
X15622Y12267D1*
X15997Y12417D2*
Y12402D1*
Y12387D1*
Y12372D1*
Y12357D1*
Y12342D1*
Y12327D1*
Y12312D1*
Y12297D1*
Y12282D1*
Y12267D1*
Y12252D1*
Y12237D1*
X16057Y12417D2*
Y12402D1*
Y12387D1*
Y12372D1*
Y12357D1*
Y12342D1*
Y12327D1*
Y12312D1*
Y12297D1*
Y12282D1*
Y12267D1*
Y12252D1*
Y12237D1*
X14842Y12357D2*
X14850Y12342D1*
X14856Y12327D1*
X14862Y12312D1*
X14869Y12297D1*
X14875Y12282D1*
X14881Y12267D1*
X14887Y12252D1*
X14892Y12237D1*
X14899Y12222D1*
X14906Y12207D1*
X14911Y12192D1*
X14917Y12177D1*
X14922Y12162D1*
X14927Y12147D1*
X14932Y12132D1*
X14938Y12117D1*
X14944Y12102D1*
X14951Y12087D1*
X14956Y12072D1*
X14962Y12057D1*
X14967Y12042D1*
X14972Y12027D1*
X14977Y12012D1*
X14983Y11997D1*
X14989Y11982D1*
X14996Y11967D1*
X15001Y11952D1*
X15007Y11937D1*
X15014Y11922D1*
X15022Y11907D1*
X14902Y12357D2*
X14910Y12342D1*
X14916Y12327D1*
X14922Y12312D1*
X14929Y12297D1*
X14935Y12282D1*
X14941Y12267D1*
X14947Y12252D1*
X14952Y12237D1*
X14959Y12222D1*
X14966Y12207D1*
X14971Y12192D1*
X14977Y12177D1*
X14982Y12162D1*
X14987Y12147D1*
X14992Y12132D1*
X14998Y12117D1*
X15004Y12102D1*
X15011Y12087D1*
X15016Y12072D1*
X15022Y12057D1*
X15028Y12042D1*
X15034Y12027D1*
X15043Y12012D1*
X15052Y11997D1*
X15202Y12357D2*
X15195Y12342D1*
X15188Y12327D1*
X15182Y12312D1*
X15175Y12297D1*
X15169Y12282D1*
X15163Y12267D1*
X15157Y12252D1*
X15152Y12237D1*
X15145Y12222D1*
X15138Y12207D1*
X15133Y12192D1*
X15127Y12177D1*
X15122Y12162D1*
X15115Y12147D1*
X15108Y12132D1*
X15103Y12117D1*
X15097Y12102D1*
X15092Y12087D1*
X15087Y12072D1*
X15082Y12057D1*
X15076Y12042D1*
X15070Y12027D1*
X15061Y12012D1*
X15052Y11997D1*
X15262Y12357D2*
X15255Y12342D1*
X15248Y12327D1*
X15242Y12312D1*
X15235Y12297D1*
X15229Y12282D1*
X15223Y12267D1*
X15217Y12252D1*
X15212Y12237D1*
X15205Y12222D1*
X15198Y12207D1*
X15193Y12192D1*
X15187Y12177D1*
X15182Y12162D1*
X15177Y12147D1*
X15172Y12132D1*
X15166Y12117D1*
X15160Y12102D1*
X15153Y12087D1*
X15148Y12072D1*
X15142Y12057D1*
X15137Y12042D1*
X15130Y12027D1*
X15123Y12012D1*
X15118Y11997D1*
X15112Y11982D1*
X15107Y11967D1*
X15102Y11952D1*
X15097Y11937D1*
X15090Y11922D1*
X15082Y11907D1*
X15472Y12312D2*
X15445Y12297D1*
X15421Y12282D1*
X15402Y12267D1*
X15386Y12252D1*
X15374Y12237D1*
X15365Y12222D1*
X15358Y12207D1*
X15353Y12192D1*
X15347Y12177D1*
X15343Y12162D1*
X15340Y12147D1*
X15338Y12132D1*
Y12117D1*
Y12102D1*
X15340Y12087D1*
X15343Y12072D1*
X15348Y12057D1*
X15352Y12042D1*
X15358Y12027D1*
X15365Y12012D1*
X15374Y11997D1*
X15385Y11982D1*
X15399Y11967D1*
X15416Y11952D1*
X15439Y11937D1*
X15469Y11922D1*
X15502Y11907D1*
X15547Y12312D2*
X15580Y12297D1*
X15615Y12282D1*
X15652Y12267D1*
X15502Y12252D2*
X15475Y12237D1*
X15452Y12222D1*
X15434Y12207D1*
X15420Y12192D1*
X15411Y12177D1*
X15404Y12162D1*
X15400Y12147D1*
X15398Y12132D1*
Y12117D1*
X15397Y12102D1*
X15398Y12087D1*
X15400Y12072D1*
X15404Y12057D1*
X15410Y12042D1*
X15420Y12027D1*
X15433Y12012D1*
X15475Y11997D1*
X15541Y11982D1*
X15622Y11967D1*
X15562Y12252D2*
X15589Y12237D1*
X15613Y12222D1*
X15633Y12207D1*
X15652Y12192D1*
X15817Y12237D2*
Y12222D1*
Y12207D1*
Y12192D1*
Y12177D1*
X16237Y12237D2*
Y12222D1*
Y12207D1*
Y12192D1*
Y12177D1*
X15997D2*
Y12162D1*
Y12147D1*
Y12132D1*
Y12117D1*
Y12102D1*
Y12087D1*
Y12072D1*
Y12057D1*
Y12042D1*
Y12027D1*
Y12012D1*
Y11997D1*
X16057Y12177D2*
Y12162D1*
Y12147D1*
Y12132D1*
Y12117D1*
Y12102D1*
Y12087D1*
Y12072D1*
Y12057D1*
Y12042D1*
Y12027D1*
Y12012D1*
Y11997D1*
X15667Y12072D2*
X15661Y12057D1*
X15654Y12042D1*
X15645Y12027D1*
X15633Y12012D1*
X15598Y11997D1*
X15542Y11982D1*
X15472Y11967D1*
X15727Y12072D2*
X15722Y12057D1*
X15717Y12042D1*
X15712Y12027D1*
X15706Y12012D1*
X15699Y11997D1*
X15690Y11982D1*
X15678Y11967D1*
X15662Y11952D1*
X15639Y11937D1*
X15610Y11922D1*
X15577Y11907D1*
X15887Y11662D2*
X15844Y11647D1*
X15808Y11632D1*
X15780Y11617D1*
X15760Y11602D1*
X15745Y11587D1*
X15733Y11572D1*
X15723Y11557D1*
X15715Y11542D1*
X15708Y11527D1*
X15702Y11512D1*
X15697Y11497D1*
X15692Y11482D1*
X15737Y11467D1*
X15992Y11662D2*
X16036Y11647D1*
X16074Y11632D1*
X16106Y11617D1*
X16131Y11602D1*
X16150Y11587D1*
X16164Y11572D1*
X16176Y11557D1*
X16187Y11542D1*
X16196Y11527D1*
X16204Y11512D1*
X16211Y11497D1*
X16216Y11482D1*
X16222Y11467D1*
X16227Y11452D1*
X16230Y11437D1*
X16233Y11422D1*
X16238Y11407D1*
X16242Y11392D1*
X16245Y11377D1*
X16246Y11362D1*
X16247Y11347D1*
Y11332D1*
X16246Y11317D1*
X16244Y11302D1*
X16241Y11287D1*
X16237Y11272D1*
X16234Y11257D1*
X16232Y11242D1*
X16230Y11227D1*
X16225Y11212D1*
X16220Y11197D1*
X16213Y11182D1*
X16205Y11167D1*
X16196Y11152D1*
X16186Y11137D1*
X16174Y11122D1*
X16160Y11107D1*
X16144Y11092D1*
X16125Y11077D1*
X16102Y11062D1*
X16072Y11047D1*
X16034Y11032D1*
X15992Y11017D1*
X14582Y11647D2*
X14543Y11632D1*
X14510Y11617D1*
X14485Y11602D1*
X14465Y11587D1*
X14449Y11572D1*
X14435Y11557D1*
X14424Y11542D1*
X14415Y11527D1*
X14408Y11512D1*
X14403Y11497D1*
X14397Y11482D1*
X14393Y11467D1*
X14389Y11452D1*
X14386Y11437D1*
X14381Y11422D1*
X14377Y11407D1*
X14375Y11392D1*
X14373Y11377D1*
X14372Y11362D1*
Y11347D1*
Y11332D1*
Y11317D1*
X14373Y11302D1*
X14375Y11287D1*
X14378Y11272D1*
X14382Y11257D1*
X14385Y11242D1*
X14389Y11227D1*
X14393Y11212D1*
X14399Y11197D1*
X14406Y11182D1*
X14413Y11167D1*
X14421Y11152D1*
X14429Y11137D1*
X14438Y11122D1*
X14451Y11107D1*
X14467Y11092D1*
X14488Y11077D1*
X14517Y11062D1*
X14555Y11047D1*
X14597Y11032D1*
X14882Y11647D2*
Y11632D1*
Y11617D1*
Y11602D1*
Y11587D1*
Y11572D1*
Y11557D1*
Y11542D1*
Y11527D1*
Y11512D1*
Y11497D1*
Y11482D1*
Y11467D1*
Y11452D1*
Y11437D1*
Y11422D1*
Y11407D1*
Y11392D1*
Y11377D1*
Y11362D1*
Y11347D1*
Y11332D1*
Y11317D1*
Y11302D1*
Y11287D1*
Y11272D1*
Y11257D1*
Y11242D1*
Y11227D1*
Y11212D1*
Y11197D1*
Y11182D1*
Y11167D1*
Y11152D1*
Y11137D1*
Y11122D1*
Y11107D1*
Y11092D1*
Y11077D1*
Y11062D1*
Y11047D1*
Y11032D1*
X15047Y11647D2*
Y11632D1*
Y11617D1*
Y11602D1*
Y11587D1*
Y11572D1*
Y11557D1*
Y11542D1*
Y11527D1*
Y11512D1*
Y11497D1*
Y11482D1*
Y11467D1*
Y11452D1*
Y11437D1*
Y11422D1*
Y11407D1*
Y11392D1*
Y11377D1*
Y11362D1*
Y11347D1*
Y11332D1*
Y11317D1*
Y11302D1*
Y11287D1*
Y11272D1*
Y11257D1*
Y11242D1*
Y11227D1*
Y11212D1*
Y11197D1*
Y11182D1*
Y11167D1*
Y11152D1*
Y11137D1*
Y11122D1*
Y11107D1*
Y11092D1*
Y11077D1*
Y11062D1*
Y11047D1*
Y11032D1*
X15122Y11647D2*
Y11632D1*
Y11617D1*
Y11602D1*
Y11587D1*
Y11572D1*
Y11557D1*
Y11542D1*
Y11527D1*
Y11512D1*
Y11497D1*
Y11482D1*
Y11467D1*
Y11452D1*
Y11437D1*
Y11422D1*
Y11407D1*
Y11392D1*
Y11377D1*
Y11362D1*
Y11347D1*
Y11332D1*
Y11317D1*
Y11302D1*
Y11287D1*
Y11272D1*
Y11257D1*
Y11242D1*
X15123Y11227D1*
X15125Y11212D1*
X15130Y11197D1*
X15137Y11182D1*
X15437Y11647D2*
X15431Y11632D1*
X15424Y11617D1*
X15416Y11602D1*
X15406Y11587D1*
X15397Y11572D1*
X15387Y11557D1*
X15377Y11542D1*
X15367Y11527D1*
X15357Y11512D1*
X15347Y11497D1*
X15337Y11482D1*
X15327Y11467D1*
X15317Y11452D1*
X15307Y11437D1*
X15297Y11422D1*
X15287Y11407D1*
X15277Y11392D1*
X15267Y11377D1*
X15257Y11362D1*
X15247Y11347D1*
X15237Y11332D1*
X15227Y11317D1*
X15217Y11302D1*
X15207Y11287D1*
X15197Y11272D1*
X15187Y11257D1*
X15177Y11242D1*
X15167Y11227D1*
X15157Y11212D1*
X15147Y11197D1*
X15137Y11182D1*
X15527Y11647D2*
Y11632D1*
Y11617D1*
Y11602D1*
Y11587D1*
Y11572D1*
Y11557D1*
Y11542D1*
Y11527D1*
Y11512D1*
Y11497D1*
Y11482D1*
Y11467D1*
Y11452D1*
Y11437D1*
Y11422D1*
Y11407D1*
Y11392D1*
Y11377D1*
Y11362D1*
Y11347D1*
Y11332D1*
Y11317D1*
Y11302D1*
Y11287D1*
Y11272D1*
Y11257D1*
Y11242D1*
Y11227D1*
Y11212D1*
Y11197D1*
Y11182D1*
Y11167D1*
Y11152D1*
Y11137D1*
Y11122D1*
Y11107D1*
Y11092D1*
Y11077D1*
Y11062D1*
Y11047D1*
Y11032D1*
X15917Y11602D2*
X15878Y11587D1*
X15845Y11572D1*
X15821Y11557D1*
X15803Y11542D1*
X15790Y11527D1*
X15780Y11512D1*
X15771Y11497D1*
X15762Y11482D1*
X15752Y11467D1*
X15992Y11602D2*
X16021Y11587D1*
X16049Y11572D1*
X16073Y11557D1*
X16093Y11542D1*
X16110Y11527D1*
X16124Y11512D1*
X16135Y11497D1*
X16144Y11482D1*
X16151Y11467D1*
X16156Y11452D1*
X16162Y11437D1*
X16166Y11422D1*
X16169Y11407D1*
X16171Y11392D1*
X16172Y11377D1*
Y11362D1*
Y11347D1*
Y11332D1*
Y11317D1*
Y11302D1*
X16171Y11287D1*
X16170Y11272D1*
X16166Y11257D1*
X16161Y11242D1*
X16157Y11227D1*
X16151Y11212D1*
X16144Y11197D1*
X16135Y11182D1*
X16124Y11167D1*
X16110Y11152D1*
X16093Y11137D1*
X16066Y11122D1*
X16018Y11107D1*
X15940Y11092D1*
X15842Y11077D1*
X14597Y11587D2*
X14570Y11572D1*
X14546Y11557D1*
X14526Y11542D1*
X14509Y11527D1*
X14495Y11512D1*
X14484Y11497D1*
X14475Y11482D1*
X14466Y11467D1*
X14459Y11452D1*
X14453Y11437D1*
X14450Y11422D1*
X14448Y11407D1*
X14447Y11392D1*
Y11377D1*
Y11362D1*
Y11347D1*
Y11332D1*
Y11317D1*
Y11302D1*
X14448Y11287D1*
X14450Y11272D1*
X14453Y11257D1*
X14458Y11242D1*
X14462Y11227D1*
X14468Y11212D1*
X14474Y11197D1*
X14481Y11182D1*
X14490Y11167D1*
X14501Y11152D1*
X14519Y11137D1*
X14542Y11122D1*
X14569Y11107D1*
X14597Y11092D1*
X14807Y11587D2*
Y11572D1*
Y11557D1*
Y11542D1*
Y11527D1*
Y11512D1*
Y11497D1*
Y11482D1*
Y11467D1*
Y11452D1*
Y11437D1*
Y11422D1*
Y11407D1*
Y11392D1*
Y11377D1*
Y11362D1*
Y11347D1*
Y11332D1*
Y11317D1*
Y11302D1*
Y11287D1*
Y11272D1*
Y11257D1*
Y11242D1*
Y11227D1*
Y11212D1*
Y11197D1*
Y11182D1*
Y11167D1*
Y11152D1*
Y11137D1*
Y11122D1*
Y11107D1*
Y11092D1*
X15422Y11497D2*
X15419Y11482D1*
X15413Y11467D1*
X15405Y11452D1*
X15396Y11437D1*
X15387Y11422D1*
X15377Y11407D1*
X15367Y11392D1*
X15357Y11377D1*
X15347Y11362D1*
X15337Y11347D1*
X15327Y11332D1*
X15317Y11317D1*
X15307Y11302D1*
X15297Y11287D1*
X15287Y11272D1*
X15277Y11257D1*
X15267Y11242D1*
X15257Y11227D1*
X15247Y11212D1*
X15237Y11197D1*
X15227Y11182D1*
X15217Y11167D1*
X15207Y11152D1*
X15197Y11137D1*
X15187Y11122D1*
X15177Y11107D1*
X15167Y11092D1*
X15158Y11077D1*
X15149Y11062D1*
X15143Y11047D1*
X15137Y11032D1*
X15452Y11497D2*
Y11482D1*
Y11467D1*
Y11452D1*
Y11437D1*
Y11422D1*
Y11407D1*
Y11392D1*
Y11377D1*
Y11362D1*
Y11347D1*
Y11332D1*
Y11317D1*
Y11302D1*
Y11287D1*
Y11272D1*
Y11257D1*
Y11242D1*
Y11227D1*
Y11212D1*
Y11197D1*
Y11182D1*
Y11167D1*
Y11152D1*
Y11137D1*
Y11122D1*
Y11107D1*
Y11092D1*
Y11077D1*
Y11062D1*
Y11047D1*
Y11032D1*
X15677Y11332D2*
Y11317D1*
Y11302D1*
Y11287D1*
Y11272D1*
Y11257D1*
Y11242D1*
Y11227D1*
Y11212D1*
Y11197D1*
Y11182D1*
Y11167D1*
Y11152D1*
X15678Y11137D1*
X15681Y11122D1*
X15693Y11107D1*
X15709Y11092D1*
X15731Y11077D1*
X15757Y11062D1*
X15789Y11047D1*
X15829Y11032D1*
X15872Y11017D1*
X15932Y11332D2*
Y11317D1*
Y11302D1*
Y11287D1*
Y11272D1*
X15752D2*
Y11257D1*
Y11242D1*
Y11227D1*
Y11212D1*
Y11197D1*
X15753Y11182D1*
X15755Y11167D1*
X15760Y11152D1*
X15775Y11137D1*
X15795Y11122D1*
X15854Y11107D1*
X15943Y11092D1*
X16052Y11077D1*
X15177Y9662D2*
X15143Y9647D1*
X15113Y9632D1*
X15089Y9617D1*
X15071Y9602D1*
X15056Y9587D1*
X15044Y9572D1*
X15035Y9557D1*
X15028Y9542D1*
X15023Y9527D1*
X15018Y9512D1*
X15014Y9497D1*
X15012Y9482D1*
X15282Y9662D2*
X15323Y9647D1*
X15355Y9632D1*
X15380Y9617D1*
X15398Y9602D1*
X15413Y9587D1*
X15423Y9572D1*
X15430Y9557D1*
X15436Y9542D1*
X15441Y9527D1*
X15444Y9512D1*
X15445Y9497D1*
X15444Y9482D1*
X15441Y9467D1*
X15436Y9452D1*
X15431Y9437D1*
X15424Y9422D1*
X15413Y9407D1*
X15397Y9392D1*
X15377Y9377D1*
X15351Y9362D1*
X15320Y9347D1*
X15281Y9332D1*
X15238Y9317D1*
X15196Y9302D1*
X15158Y9287D1*
X15127Y9272D1*
X15105Y9257D1*
X15090Y9242D1*
X15079Y9227D1*
X15075Y9212D1*
X15074Y9197D1*
X15073Y9182D1*
X15075Y9167D1*
X15080Y9152D1*
X15092Y9137D1*
X15107Y9122D1*
X15152Y9107D1*
X15223Y9092D1*
X15312Y9077D1*
X15792Y9662D2*
X15751Y9647D1*
X15719Y9632D1*
X15694Y9617D1*
X15675Y9602D1*
X15659Y9587D1*
X15645Y9572D1*
X15634Y9557D1*
X15625Y9542D1*
X15619Y9527D1*
X15615Y9512D1*
X15613Y9497D1*
X15612Y9482D1*
X15882Y9662D2*
X15925Y9647D1*
X15961Y9632D1*
X15990Y9617D1*
X16012Y9602D1*
X16029Y9587D1*
X16044Y9572D1*
X16056Y9557D1*
X16066Y9542D1*
X16076Y9527D1*
X16084Y9512D1*
X16091Y9497D1*
X16097Y9482D1*
X16101Y9467D1*
X16105Y9452D1*
X16108Y9437D1*
X16113Y9422D1*
X16117Y9407D1*
X16120Y9392D1*
X16121Y9377D1*
X16122Y9362D1*
Y9347D1*
Y9332D1*
X16121Y9317D1*
X16120Y9302D1*
X16116Y9287D1*
X16112Y9272D1*
X16109Y9257D1*
X16107Y9242D1*
X16105Y9227D1*
X16100Y9212D1*
X16095Y9197D1*
X16088Y9182D1*
X16081Y9167D1*
X16073Y9152D1*
X16065Y9137D1*
X16056Y9122D1*
X16044Y9107D1*
X16031Y9092D1*
X16015Y9077D1*
X15996Y9062D1*
X15969Y9047D1*
X15934Y9032D1*
X15897Y9017D1*
X15192Y9602D2*
X15165Y9587D1*
X15142Y9572D1*
X15124Y9557D1*
X15110Y9542D1*
X15101Y9527D1*
X15094Y9512D1*
X15090Y9497D1*
X15087Y9482D1*
X15282Y9602D2*
X15308Y9587D1*
X15330Y9572D1*
X15346Y9557D1*
X15357Y9542D1*
X15365Y9527D1*
X15369Y9512D1*
X15370Y9497D1*
Y9482D1*
X15363Y9467D1*
X15352Y9452D1*
X15333Y9437D1*
X15305Y9422D1*
X15267Y9407D1*
X15224Y9392D1*
X15179Y9377D1*
X15138Y9362D1*
X15104Y9347D1*
X15077Y9332D1*
X15057Y9317D1*
X15041Y9302D1*
X15029Y9287D1*
X15018Y9272D1*
X15010Y9257D1*
X15004Y9242D1*
X15000Y9227D1*
X14998Y9212D1*
Y9197D1*
X15000Y9182D1*
X15003Y9167D1*
X15008Y9152D1*
X15013Y9137D1*
X15020Y9122D1*
X15031Y9107D1*
X15044Y9092D1*
X15058Y9077D1*
X15077Y9062D1*
X15102Y9047D1*
X15137Y9032D1*
X15177Y9017D1*
X15807Y9602D2*
X15778Y9587D1*
X15753Y9572D1*
X15732Y9557D1*
X15717Y9542D1*
X15704Y9527D1*
X15693Y9512D1*
X15683Y9497D1*
X15672Y9482D1*
X15882Y9602D2*
X15911Y9587D1*
X15939Y9572D1*
X15962Y9557D1*
X15980Y9542D1*
X15994Y9527D1*
X16004Y9512D1*
X16012Y9497D1*
X16020Y9482D1*
X16026Y9467D1*
X16032Y9452D1*
X16037Y9437D1*
X16041Y9422D1*
X16044Y9407D1*
X16046Y9392D1*
X16047Y9377D1*
Y9362D1*
Y9347D1*
Y9332D1*
Y9317D1*
Y9302D1*
X16046Y9287D1*
X16045Y9272D1*
X16041Y9257D1*
X16036Y9242D1*
X16032Y9227D1*
X16026Y9212D1*
X16020Y9197D1*
X16013Y9182D1*
X16005Y9167D1*
X15995Y9152D1*
X15980Y9137D1*
X15956Y9122D1*
X15914Y9107D1*
X15846Y9092D1*
X15762Y9077D1*
X15402Y9227D2*
X15400Y9212D1*
X15395Y9197D1*
X15390Y9182D1*
X15383Y9167D1*
X15374Y9152D1*
X15364Y9137D1*
X15340Y9122D1*
X15295Y9107D1*
X15222Y9092D1*
X15132Y9077D1*
X15477Y9227D2*
X15475Y9212D1*
X15471Y9197D1*
X15467Y9182D1*
X15462Y9167D1*
X15456Y9152D1*
X15449Y9137D1*
X15441Y9122D1*
X15431Y9107D1*
X15419Y9092D1*
X15405Y9077D1*
X15385Y9062D1*
X15358Y9047D1*
X15323Y9032D1*
X15282Y9017D1*
X15597Y9227D2*
X15582Y9212D1*
X15590Y9197D1*
X15596Y9182D1*
X15602Y9167D1*
X15609Y9152D1*
X15619Y9137D1*
X15630Y9122D1*
X15643Y9107D1*
X15658Y9092D1*
X15673Y9077D1*
X15691Y9062D1*
X15717Y9047D1*
X15752Y9032D1*
X15792Y9017D1*
X15657Y9227D2*
X15663Y9212D1*
X15669Y9197D1*
X15676Y9182D1*
X15684Y9167D1*
X15694Y9152D1*
X15709Y9137D1*
X15733Y9122D1*
X15775Y9107D1*
X15843Y9092D1*
X15927Y9077D1*
X15292Y10662D2*
X15251Y10647D1*
X15219Y10632D1*
X15194Y10617D1*
X15175Y10602D1*
X15159Y10587D1*
X15145Y10572D1*
X15134Y10557D1*
X15125Y10542D1*
X15119Y10527D1*
X15115Y10512D1*
X15113Y10497D1*
X15112Y10482D1*
X15382Y10662D2*
X15425Y10647D1*
X15461Y10632D1*
X15490Y10617D1*
X15512Y10602D1*
X15529Y10587D1*
X15544Y10572D1*
X15556Y10557D1*
X15566Y10542D1*
X15576Y10527D1*
X15584Y10512D1*
X15591Y10497D1*
X15597Y10482D1*
X15601Y10467D1*
X15605Y10452D1*
X15608Y10437D1*
X15613Y10422D1*
X15617Y10407D1*
X15620Y10392D1*
X15621Y10377D1*
X15622Y10362D1*
Y10347D1*
Y10332D1*
X15621Y10317D1*
X15620Y10302D1*
X15616Y10287D1*
X15612Y10272D1*
X15609Y10257D1*
X15607Y10242D1*
X15605Y10227D1*
X15600Y10212D1*
X15595Y10197D1*
X15588Y10182D1*
X15581Y10167D1*
X15573Y10152D1*
X15565Y10137D1*
X15556Y10122D1*
X15544Y10107D1*
X15531Y10092D1*
X15515Y10077D1*
X15496Y10062D1*
X15469Y10047D1*
X15434Y10032D1*
X15397Y10017D1*
X15907Y10662D2*
X15873Y10647D1*
X15843Y10632D1*
X15819Y10617D1*
X15801Y10602D1*
X15786Y10587D1*
X15774Y10572D1*
X15765Y10557D1*
X15758Y10542D1*
X15753Y10527D1*
X15748Y10512D1*
X15744Y10497D1*
X15742Y10482D1*
X16012Y10662D2*
X16053Y10647D1*
X16085Y10632D1*
X16110Y10617D1*
X16128Y10602D1*
X16143Y10587D1*
X16153Y10572D1*
X16160Y10557D1*
X16166Y10542D1*
X16171Y10527D1*
X16174Y10512D1*
X16175Y10497D1*
X16174Y10482D1*
X16171Y10467D1*
X16166Y10452D1*
X16161Y10437D1*
X16154Y10422D1*
X16143Y10407D1*
X16127Y10392D1*
X16107Y10377D1*
X16081Y10362D1*
X16050Y10347D1*
X16011Y10332D1*
X15968Y10317D1*
X15926Y10302D1*
X15888Y10287D1*
X15857Y10272D1*
X15835Y10257D1*
X15820Y10242D1*
X15809Y10227D1*
X15805Y10212D1*
X15804Y10197D1*
X15803Y10182D1*
X15805Y10167D1*
X15810Y10152D1*
X15822Y10137D1*
X15837Y10122D1*
X15882Y10107D1*
X15953Y10092D1*
X16042Y10077D1*
X14467Y10647D2*
X14482Y10632D1*
X14497Y10617D1*
X14512Y10602D1*
X14527Y10587D1*
X14542Y10572D1*
X14557Y10557D1*
X14572Y10542D1*
X14587Y10527D1*
X14602Y10512D1*
X14617Y10497D1*
X14632Y10482D1*
X14647Y10467D1*
X14662Y10452D1*
X14677Y10437D1*
X14692Y10422D1*
X14707Y10407D1*
X14722Y10392D1*
X14709Y10377D1*
X14698Y10362D1*
X14687Y10347D1*
X14675Y10332D1*
X14663Y10317D1*
X14653Y10302D1*
X14642Y10287D1*
X14630Y10272D1*
X14617Y10257D1*
X14604Y10242D1*
X14593Y10227D1*
X14582Y10212D1*
X14570Y10197D1*
X14558Y10182D1*
X14548Y10167D1*
X14537Y10152D1*
X14525Y10137D1*
X14513Y10122D1*
X14503Y10107D1*
X14492Y10092D1*
X14480Y10077D1*
X14469Y10062D1*
X14460Y10047D1*
X14452Y10032D1*
X14572Y10647D2*
X14587Y10632D1*
X14602Y10617D1*
X14617Y10602D1*
X14632Y10587D1*
X14647Y10572D1*
X14662Y10557D1*
X14677Y10542D1*
X14692Y10527D1*
X14707Y10512D1*
X14722Y10497D1*
X14737Y10482D1*
X14752Y10467D1*
X14767Y10452D1*
X14782Y10437D1*
X14797Y10422D1*
X14813Y10407D1*
X14830Y10392D1*
X14850Y10377D1*
X14872Y10362D1*
Y10647D2*
Y10632D1*
Y10617D1*
Y10602D1*
Y10587D1*
Y10572D1*
Y10557D1*
Y10542D1*
Y10527D1*
Y10512D1*
Y10497D1*
Y10482D1*
Y10467D1*
Y10452D1*
Y10437D1*
Y10422D1*
X14871Y10407D1*
X14869Y10392D1*
X14864Y10377D1*
X14857Y10362D1*
X14947Y10647D2*
Y10632D1*
Y10617D1*
Y10602D1*
Y10587D1*
Y10572D1*
Y10557D1*
Y10542D1*
Y10527D1*
Y10512D1*
Y10497D1*
Y10482D1*
Y10467D1*
Y10452D1*
Y10437D1*
Y10422D1*
Y10407D1*
Y10392D1*
Y10377D1*
Y10362D1*
Y10347D1*
Y10332D1*
Y10317D1*
Y10302D1*
Y10287D1*
Y10272D1*
Y10257D1*
Y10242D1*
Y10227D1*
Y10212D1*
Y10197D1*
Y10182D1*
Y10167D1*
Y10152D1*
Y10137D1*
Y10122D1*
Y10107D1*
Y10092D1*
Y10077D1*
Y10062D1*
Y10047D1*
Y10032D1*
X15307Y10602D2*
X15278Y10587D1*
X15253Y10572D1*
X15232Y10557D1*
X15217Y10542D1*
X15204Y10527D1*
X15193Y10512D1*
X15183Y10497D1*
X15172Y10482D1*
X15382Y10602D2*
X15411Y10587D1*
X15439Y10572D1*
X15462Y10557D1*
X15480Y10542D1*
X15494Y10527D1*
X15504Y10512D1*
X15512Y10497D1*
X15520Y10482D1*
X15526Y10467D1*
X15532Y10452D1*
X15537Y10437D1*
X15541Y10422D1*
X15544Y10407D1*
X15546Y10392D1*
X15547Y10377D1*
Y10362D1*
Y10347D1*
Y10332D1*
Y10317D1*
Y10302D1*
X15546Y10287D1*
X15545Y10272D1*
X15541Y10257D1*
X15536Y10242D1*
X15532Y10227D1*
X15526Y10212D1*
X15520Y10197D1*
X15513Y10182D1*
X15505Y10167D1*
X15495Y10152D1*
X15480Y10137D1*
X15456Y10122D1*
X15414Y10107D1*
X15346Y10092D1*
X15262Y10077D1*
X15922Y10602D2*
X15895Y10587D1*
X15872Y10572D1*
X15854Y10557D1*
X15840Y10542D1*
X15831Y10527D1*
X15824Y10512D1*
X15820Y10497D1*
X15817Y10482D1*
X16012Y10602D2*
X16038Y10587D1*
X16060Y10572D1*
X16076Y10557D1*
X16087Y10542D1*
X16095Y10527D1*
X16099Y10512D1*
X16100Y10497D1*
Y10482D1*
X16093Y10467D1*
X16082Y10452D1*
X16063Y10437D1*
X16035Y10422D1*
X15997Y10407D1*
X15954Y10392D1*
X15909Y10377D1*
X15868Y10362D1*
X15834Y10347D1*
X15807Y10332D1*
X15787Y10317D1*
X15771Y10302D1*
X15759Y10287D1*
X15748Y10272D1*
X15740Y10257D1*
X15734Y10242D1*
X15730Y10227D1*
X15728Y10212D1*
Y10197D1*
X15730Y10182D1*
X15733Y10167D1*
X15738Y10152D1*
X15743Y10137D1*
X15750Y10122D1*
X15761Y10107D1*
X15774Y10092D1*
X15788Y10077D1*
X15807Y10062D1*
X15832Y10047D1*
X15867Y10032D1*
X15907Y10017D1*
X14767Y10332D2*
X14754Y10317D1*
X14743Y10302D1*
X14732Y10287D1*
X14720Y10272D1*
X14707Y10257D1*
X14694Y10242D1*
X14683Y10227D1*
X14672Y10212D1*
X14660Y10197D1*
X14648Y10182D1*
X14638Y10167D1*
X14627Y10152D1*
X14615Y10137D1*
X14603Y10122D1*
X14593Y10107D1*
X14582Y10092D1*
X14570Y10077D1*
X14559Y10062D1*
X14550Y10047D1*
X14542Y10032D1*
X14797Y10332D2*
X14812Y10317D1*
X14827Y10302D1*
X14841Y10287D1*
X14854Y10272D1*
X14863Y10257D1*
X14868Y10242D1*
X14870Y10227D1*
X14871Y10212D1*
X14872Y10197D1*
Y10182D1*
Y10167D1*
Y10152D1*
Y10137D1*
Y10122D1*
Y10107D1*
Y10092D1*
Y10077D1*
Y10062D1*
Y10047D1*
Y10032D1*
X15097Y10227D2*
X15082Y10212D1*
X15090Y10197D1*
X15096Y10182D1*
X15102Y10167D1*
X15109Y10152D1*
X15119Y10137D1*
X15130Y10122D1*
X15143Y10107D1*
X15158Y10092D1*
X15173Y10077D1*
X15191Y10062D1*
X15217Y10047D1*
X15252Y10032D1*
X15292Y10017D1*
X15157Y10227D2*
X15163Y10212D1*
X15169Y10197D1*
X15176Y10182D1*
X15184Y10167D1*
X15194Y10152D1*
X15209Y10137D1*
X15233Y10122D1*
X15275Y10107D1*
X15343Y10092D1*
X15427Y10077D1*
X16132Y10227D2*
X16130Y10212D1*
X16125Y10197D1*
X16120Y10182D1*
X16113Y10167D1*
X16104Y10152D1*
X16094Y10137D1*
X16070Y10122D1*
X16025Y10107D1*
X15952Y10092D1*
X15862Y10077D1*
X16207Y10227D2*
X16205Y10212D1*
X16201Y10197D1*
X16197Y10182D1*
X16192Y10167D1*
X16186Y10152D1*
X16179Y10137D1*
X16171Y10122D1*
X16161Y10107D1*
X16149Y10092D1*
X16135Y10077D1*
X16115Y10062D1*
X16088Y10047D1*
X16053Y10032D1*
X16012Y10017D1*
X14402Y8662D2*
X14368Y8647D1*
X14338Y8632D1*
X14314Y8617D1*
X14296Y8602D1*
X14281Y8587D1*
X14269Y8572D1*
X14260Y8557D1*
X14253Y8542D1*
X14248Y8527D1*
X14243Y8512D1*
X14239Y8497D1*
X14237Y8482D1*
X14507Y8662D2*
X14548Y8647D1*
X14580Y8632D1*
X14605Y8617D1*
X14623Y8602D1*
X14638Y8587D1*
X14648Y8572D1*
X14655Y8557D1*
X14661Y8542D1*
X14666Y8527D1*
X14669Y8512D1*
X14670Y8497D1*
X14669Y8482D1*
X14666Y8467D1*
X14661Y8452D1*
X14656Y8437D1*
X14649Y8422D1*
X14638Y8407D1*
X14622Y8392D1*
X14602Y8377D1*
X14576Y8362D1*
X14545Y8347D1*
X14506Y8332D1*
X14463Y8317D1*
X14421Y8302D1*
X14383Y8287D1*
X14352Y8272D1*
X14330Y8257D1*
X14315Y8242D1*
X14304Y8227D1*
X14300Y8212D1*
X14299Y8197D1*
X14298Y8182D1*
X14300Y8167D1*
X14305Y8152D1*
X14317Y8137D1*
X14332Y8122D1*
X14377Y8107D1*
X14448Y8092D1*
X14537Y8077D1*
X15047Y8662D2*
X15007Y8647D1*
X14973Y8632D1*
X14944Y8617D1*
X14921Y8602D1*
X14903Y8587D1*
X14890Y8572D1*
X14878Y8557D1*
X14867Y8542D1*
X14858Y8527D1*
X14849Y8512D1*
X14841Y8497D1*
X14834Y8482D1*
X14828Y8467D1*
X14825Y8452D1*
X14823Y8437D1*
X14820Y8422D1*
X14816Y8407D1*
X14812Y8392D1*
X14809Y8377D1*
X14808Y8362D1*
X14807Y8347D1*
Y8332D1*
X14808Y8317D1*
X14810Y8302D1*
X14813Y8287D1*
X14817Y8272D1*
X14820Y8257D1*
X14822Y8242D1*
X14824Y8227D1*
X14829Y8212D1*
X14834Y8197D1*
X14841Y8182D1*
X14849Y8167D1*
X14858Y8152D1*
X14867Y8137D1*
X14877Y8122D1*
X14888Y8107D1*
X14902Y8092D1*
X14921Y8077D1*
X14944Y8062D1*
X14973Y8047D1*
X15009Y8032D1*
X15047Y8017D1*
X15152Y8662D2*
X15193Y8647D1*
X15228Y8632D1*
X15256Y8617D1*
X15278Y8602D1*
X15296Y8587D1*
X15309Y8572D1*
X15321Y8557D1*
X15332Y8542D1*
X15341Y8527D1*
X15350Y8512D1*
X15358Y8497D1*
X15365Y8482D1*
X15371Y8467D1*
X15374Y8452D1*
X15376Y8437D1*
X15379Y8422D1*
X15383Y8407D1*
X15387Y8392D1*
X15390Y8377D1*
X15391Y8362D1*
X15392Y8347D1*
Y8332D1*
Y8317D1*
X15391Y8302D1*
X15390Y8287D1*
X15386Y8272D1*
X15382Y8257D1*
X15379Y8242D1*
X15376Y8227D1*
X15371Y8212D1*
X15365Y8197D1*
X15358Y8182D1*
X15350Y8167D1*
X15341Y8152D1*
X15332Y8137D1*
X15322Y8122D1*
X15311Y8107D1*
X15297Y8092D1*
X15279Y8077D1*
X15255Y8062D1*
X15226Y8047D1*
X15190Y8032D1*
X15152Y8017D1*
X14012Y8647D2*
Y8632D1*
Y8617D1*
Y8602D1*
Y8587D1*
Y8572D1*
Y8557D1*
Y8542D1*
Y8527D1*
Y8512D1*
Y8497D1*
Y8482D1*
Y8467D1*
Y8452D1*
Y8437D1*
Y8422D1*
Y8407D1*
Y8392D1*
Y8377D1*
Y8362D1*
Y8347D1*
Y8332D1*
Y8317D1*
Y8302D1*
Y8287D1*
Y8272D1*
Y8257D1*
Y8242D1*
Y8227D1*
Y8212D1*
Y8197D1*
Y8182D1*
Y8167D1*
Y8152D1*
Y8137D1*
Y8122D1*
Y8107D1*
Y8092D1*
Y8077D1*
Y8062D1*
Y8047D1*
Y8032D1*
X14087Y8647D2*
Y8632D1*
Y8617D1*
Y8602D1*
Y8587D1*
Y8572D1*
Y8557D1*
Y8542D1*
Y8527D1*
Y8512D1*
Y8497D1*
Y8482D1*
Y8467D1*
Y8452D1*
Y8437D1*
Y8422D1*
Y8407D1*
Y8392D1*
Y8377D1*
Y8362D1*
Y8347D1*
Y8332D1*
Y8317D1*
Y8302D1*
Y8287D1*
Y8272D1*
Y8257D1*
Y8242D1*
Y8227D1*
Y8212D1*
Y8197D1*
Y8182D1*
Y8167D1*
Y8152D1*
Y8137D1*
Y8122D1*
Y8107D1*
Y8092D1*
Y8077D1*
Y8062D1*
Y8047D1*
Y8032D1*
X15512Y8647D2*
Y8632D1*
Y8617D1*
Y8602D1*
Y8587D1*
Y8572D1*
Y8557D1*
Y8542D1*
Y8527D1*
Y8512D1*
Y8497D1*
Y8482D1*
Y8467D1*
Y8452D1*
Y8437D1*
Y8422D1*
Y8407D1*
Y8392D1*
Y8377D1*
Y8362D1*
Y8347D1*
Y8332D1*
Y8317D1*
Y8302D1*
Y8287D1*
Y8272D1*
Y8257D1*
Y8242D1*
Y8227D1*
Y8212D1*
Y8197D1*
Y8182D1*
Y8167D1*
Y8152D1*
Y8137D1*
Y8122D1*
Y8107D1*
Y8092D1*
Y8077D1*
Y8062D1*
Y8047D1*
Y8032D1*
X15632Y8647D2*
X15640Y8632D1*
X15646Y8617D1*
X15652Y8602D1*
X15657Y8587D1*
X15662Y8572D1*
X15667Y8557D1*
X15672Y8542D1*
X15677Y8527D1*
X15682Y8512D1*
X15687Y8497D1*
X15690Y8482D1*
X15693Y8467D1*
X15698Y8452D1*
X15702Y8437D1*
X15707Y8422D1*
X15712Y8407D1*
X15717Y8392D1*
X15722Y8377D1*
X15727Y8362D1*
X15732Y8347D1*
X15737Y8332D1*
X15742Y8317D1*
X15747Y8302D1*
X15750Y8287D1*
X15753Y8272D1*
X15758Y8257D1*
X15762Y8242D1*
X15767Y8227D1*
X15772Y8212D1*
X15777Y8197D1*
X15782Y8182D1*
X15787Y8167D1*
X15792Y8152D1*
X15797Y8137D1*
X15804Y8122D1*
X15812Y8107D1*
X15977Y8647D2*
X15976Y8632D1*
X15975Y8617D1*
X15971Y8602D1*
X15966Y8587D1*
X15962Y8572D1*
X15957Y8557D1*
X15952Y8542D1*
X15947Y8527D1*
X15942Y8512D1*
X15937Y8497D1*
X15932Y8482D1*
X15927Y8467D1*
X15922Y8452D1*
X15919Y8437D1*
X15916Y8422D1*
X15911Y8407D1*
X15907Y8392D1*
X15902Y8377D1*
X15897Y8362D1*
X15892Y8347D1*
X15887Y8332D1*
X15882Y8317D1*
X15877Y8302D1*
X15874Y8287D1*
X15871Y8272D1*
X15866Y8257D1*
X15862Y8242D1*
X15857Y8227D1*
X15852Y8212D1*
X15847Y8197D1*
X15842Y8182D1*
X15837Y8167D1*
X15832Y8152D1*
X15827Y8137D1*
X15820Y8122D1*
X15812Y8107D1*
X16112Y8647D2*
Y8632D1*
Y8617D1*
Y8602D1*
Y8587D1*
Y8572D1*
Y8557D1*
Y8542D1*
Y8527D1*
Y8512D1*
Y8497D1*
Y8482D1*
Y8467D1*
Y8452D1*
Y8437D1*
Y8422D1*
Y8407D1*
Y8392D1*
Y8377D1*
Y8362D1*
Y8347D1*
Y8332D1*
Y8317D1*
Y8302D1*
Y8287D1*
Y8272D1*
Y8257D1*
Y8242D1*
Y8227D1*
Y8212D1*
Y8197D1*
Y8182D1*
Y8167D1*
Y8152D1*
Y8137D1*
Y8122D1*
Y8107D1*
Y8092D1*
Y8077D1*
Y8062D1*
Y8047D1*
Y8032D1*
X14417Y8602D2*
X14390Y8587D1*
X14367Y8572D1*
X14349Y8557D1*
X14335Y8542D1*
X14326Y8527D1*
X14319Y8512D1*
X14315Y8497D1*
X14312Y8482D1*
X14507Y8602D2*
X14533Y8587D1*
X14555Y8572D1*
X14571Y8557D1*
X14582Y8542D1*
X14590Y8527D1*
X14594Y8512D1*
X14595Y8497D1*
Y8482D1*
X14588Y8467D1*
X14577Y8452D1*
X14558Y8437D1*
X14530Y8422D1*
X14492Y8407D1*
X14449Y8392D1*
X14404Y8377D1*
X14363Y8362D1*
X14329Y8347D1*
X14302Y8332D1*
X14282Y8317D1*
X14266Y8302D1*
X14254Y8287D1*
X14243Y8272D1*
X14235Y8257D1*
X14229Y8242D1*
X14225Y8227D1*
X14223Y8212D1*
Y8197D1*
X14225Y8182D1*
X14228Y8167D1*
X14233Y8152D1*
X14238Y8137D1*
X14245Y8122D1*
X14256Y8107D1*
X14269Y8092D1*
X14283Y8077D1*
X14302Y8062D1*
X14327Y8047D1*
X14362Y8032D1*
X14402Y8017D1*
X15077Y8602D2*
X15038Y8587D1*
X15005Y8572D1*
X14980Y8557D1*
X14960Y8542D1*
X14944Y8527D1*
X14930Y8512D1*
X14919Y8497D1*
X14910Y8482D1*
X14903Y8467D1*
X14898Y8452D1*
X14892Y8437D1*
X14888Y8422D1*
X14885Y8407D1*
X14883Y8392D1*
X14882Y8377D1*
Y8362D1*
Y8347D1*
Y8332D1*
Y8317D1*
Y8302D1*
X14883Y8287D1*
X14885Y8272D1*
X14888Y8257D1*
X14893Y8242D1*
X14897Y8227D1*
X14903Y8212D1*
X14910Y8197D1*
X14919Y8182D1*
X14930Y8167D1*
X14943Y8152D1*
X14959Y8137D1*
X14978Y8122D1*
X15028Y8107D1*
X15104Y8092D1*
X15197Y8077D1*
X15122Y8602D2*
X15161Y8587D1*
X15194Y8572D1*
X15219Y8557D1*
X15239Y8542D1*
X15255Y8527D1*
X15269Y8512D1*
X15280Y8497D1*
X15289Y8482D1*
X15296Y8467D1*
X15301Y8452D1*
X15307Y8437D1*
X15311Y8422D1*
X15314Y8407D1*
X15316Y8392D1*
X15317Y8377D1*
Y8362D1*
Y8347D1*
Y8332D1*
Y8317D1*
Y8302D1*
X15316Y8287D1*
X15315Y8272D1*
X15311Y8257D1*
X15306Y8242D1*
X15302Y8227D1*
X15296Y8212D1*
X15289Y8197D1*
X15280Y8182D1*
X15269Y8167D1*
X15256Y8152D1*
X15240Y8137D1*
X15221Y8122D1*
X15171Y8107D1*
X15095Y8092D1*
X15002Y8077D1*
X15587Y8572D2*
Y8557D1*
Y8542D1*
Y8527D1*
Y8512D1*
Y8497D1*
Y8482D1*
Y8467D1*
Y8452D1*
Y8437D1*
Y8422D1*
Y8407D1*
Y8392D1*
Y8377D1*
Y8362D1*
Y8347D1*
Y8332D1*
Y8317D1*
Y8302D1*
Y8287D1*
Y8272D1*
Y8257D1*
Y8242D1*
Y8227D1*
Y8212D1*
Y8197D1*
Y8182D1*
Y8167D1*
Y8152D1*
Y8137D1*
Y8122D1*
Y8107D1*
Y8092D1*
Y8077D1*
Y8062D1*
Y8047D1*
Y8032D1*
X15617Y8572D2*
X15618Y8557D1*
X15620Y8542D1*
X15623Y8527D1*
X15627Y8512D1*
X15630Y8497D1*
X15633Y8482D1*
X15638Y8467D1*
X15642Y8452D1*
X15647Y8437D1*
X15652Y8422D1*
X15657Y8407D1*
X15662Y8392D1*
X15667Y8377D1*
X15672Y8362D1*
X15677Y8347D1*
X15682Y8332D1*
X15687Y8317D1*
X15690Y8302D1*
X15693Y8287D1*
X15698Y8272D1*
X15702Y8257D1*
X15707Y8242D1*
X15712Y8227D1*
X15717Y8212D1*
X15722Y8197D1*
X15727Y8182D1*
X15732Y8167D1*
X15737Y8152D1*
X15742Y8137D1*
X15747Y8122D1*
X15750Y8107D1*
X15753Y8092D1*
X15758Y8077D1*
X15762Y8062D1*
X15765Y8047D1*
X15767Y8032D1*
X16007Y8572D2*
X16006Y8557D1*
X16005Y8542D1*
X16001Y8527D1*
X15997Y8512D1*
X15994Y8497D1*
X15991Y8482D1*
X15986Y8467D1*
X15982Y8452D1*
X15977Y8437D1*
X15972Y8422D1*
X15967Y8407D1*
X15962Y8392D1*
X15957Y8377D1*
X15952Y8362D1*
X15949Y8347D1*
X15946Y8332D1*
X15941Y8317D1*
X15937Y8302D1*
X15932Y8287D1*
X15927Y8272D1*
X15922Y8257D1*
X15917Y8242D1*
X15912Y8227D1*
X15907Y8212D1*
X15902Y8197D1*
X15897Y8182D1*
X15892Y8167D1*
X15889Y8152D1*
X15886Y8137D1*
X15881Y8122D1*
X15877Y8107D1*
X15872Y8092D1*
X15867Y8077D1*
X15862Y8062D1*
X15859Y8047D1*
X15857Y8032D1*
X16037Y8572D2*
Y8557D1*
Y8542D1*
Y8527D1*
Y8512D1*
Y8497D1*
Y8482D1*
Y8467D1*
Y8452D1*
Y8437D1*
Y8422D1*
Y8407D1*
Y8392D1*
Y8377D1*
Y8362D1*
Y8347D1*
Y8332D1*
Y8317D1*
Y8302D1*
Y8287D1*
Y8272D1*
Y8257D1*
Y8242D1*
Y8227D1*
Y8212D1*
Y8197D1*
Y8182D1*
Y8167D1*
Y8152D1*
Y8137D1*
Y8122D1*
Y8107D1*
Y8092D1*
Y8077D1*
Y8062D1*
Y8047D1*
Y8032D1*
X14627Y8227D2*
X14625Y8212D1*
X14620Y8197D1*
X14615Y8182D1*
X14608Y8167D1*
X14599Y8152D1*
X14589Y8137D1*
X14565Y8122D1*
X14520Y8107D1*
X14447Y8092D1*
X14357Y8077D1*
X14702Y8227D2*
X14700Y8212D1*
X14696Y8197D1*
X14692Y8182D1*
X14687Y8167D1*
X14681Y8152D1*
X14674Y8137D1*
X14666Y8122D1*
X14656Y8107D1*
X14644Y8092D1*
X14630Y8077D1*
X14610Y8062D1*
X14583Y8047D1*
X14548Y8032D1*
X14507Y8017D1*
M02*
