G04 DipTrace 2.3.1.0*
%INinterface_BottomMask.gbs*%
%MOIN*%
%ADD31C,0.1*%
%ADD32C,0.126*%
%ADD40C,0.0879*%
%ADD46O,0.0689X0.0472*%
%ADD48O,0.0453X0.0571*%
%FSLAX44Y44*%
G04*
G70*
G90*
G75*
G01*
%LNBotMask*%
%LPD*%
D31*
X5512Y1575D3*
X52756D3*
Y56693D3*
X5512D3*
D48*
X5600Y11221D3*
Y9253D3*
D46*
X4537Y11713D3*
Y8761D3*
D40*
X12562Y12237D3*
Y11237D3*
Y10237D3*
Y9237D3*
Y8237D3*
G36*
X10002Y9507D2*
X9882Y9827D1*
X9162D1*
X9042Y9507D1*
X9122Y9347D1*
X9962D1*
D1*
X10002Y9507D1*
G37*
D32*
X15237Y15237D3*
X5237D3*
Y5237D3*
X15237D3*
D31*
X18112Y1575D3*
X65356D3*
Y56693D3*
X18112D3*
D48*
X18200Y11221D3*
Y9253D3*
D46*
X17137Y11713D3*
Y8761D3*
D40*
X25162Y12237D3*
Y11237D3*
Y10237D3*
Y9237D3*
Y8237D3*
G36*
X22602Y9507D2*
X22482Y9827D1*
X21762D1*
X21642Y9507D1*
X21722Y9347D1*
X22562D1*
D1*
X22602Y9507D1*
G37*
D32*
X27837Y15237D3*
X17837D3*
Y5237D3*
X27837D3*
D31*
X30712Y1575D3*
X77956D3*
Y56693D3*
X30712D3*
D48*
X30800Y11221D3*
Y9253D3*
D46*
X29737Y11713D3*
Y8761D3*
D40*
X37762Y12237D3*
Y11237D3*
Y10237D3*
Y9237D3*
Y8237D3*
G36*
X35202Y9507D2*
X35082Y9827D1*
X34362D1*
X34242Y9507D1*
X34322Y9347D1*
X35162D1*
D1*
X35202Y9507D1*
G37*
D32*
X40437Y15237D3*
X30437D3*
Y5237D3*
X40437D3*
D31*
X43312Y1575D3*
X90556D3*
Y56693D3*
X43312D3*
D48*
X43400Y11221D3*
Y9253D3*
D46*
X42337Y11713D3*
Y8761D3*
D40*
X50362Y12237D3*
Y11237D3*
Y10237D3*
Y9237D3*
Y8237D3*
G36*
X47802Y9507D2*
X47682Y9827D1*
X46962D1*
X46842Y9507D1*
X46922Y9347D1*
X47762D1*
D1*
X47802Y9507D1*
G37*
D32*
X53037Y15237D3*
X43037D3*
Y5237D3*
X53037D3*
D31*
X5512Y14175D3*
X52756D3*
Y69293D3*
X5512D3*
D48*
X5600Y23821D3*
Y21853D3*
D46*
X4537Y24313D3*
Y21361D3*
D40*
X12562Y24837D3*
Y23837D3*
Y22837D3*
Y21837D3*
Y20837D3*
G36*
X10002Y22107D2*
X9882Y22427D1*
X9162D1*
X9042Y22107D1*
X9122Y21947D1*
X9962D1*
D1*
X10002Y22107D1*
G37*
D32*
X15237Y27837D3*
X5237D3*
Y17837D3*
X15237D3*
D31*
X18112Y14175D3*
X65356D3*
Y69293D3*
X18112D3*
D48*
X18200Y23821D3*
Y21853D3*
D46*
X17137Y24313D3*
Y21361D3*
D40*
X25162Y24837D3*
Y23837D3*
Y22837D3*
Y21837D3*
Y20837D3*
G36*
X22602Y22107D2*
X22482Y22427D1*
X21762D1*
X21642Y22107D1*
X21722Y21947D1*
X22562D1*
D1*
X22602Y22107D1*
G37*
D32*
X27837Y27837D3*
X17837D3*
Y17837D3*
X27837D3*
D31*
X30712Y14175D3*
X77956D3*
Y69293D3*
X30712D3*
D48*
X30800Y23821D3*
Y21853D3*
D46*
X29737Y24313D3*
Y21361D3*
D40*
X37762Y24837D3*
Y23837D3*
Y22837D3*
Y21837D3*
Y20837D3*
G36*
X35202Y22107D2*
X35082Y22427D1*
X34362D1*
X34242Y22107D1*
X34322Y21947D1*
X35162D1*
D1*
X35202Y22107D1*
G37*
D32*
X40437Y27837D3*
X30437D3*
Y17837D3*
X40437D3*
D31*
X43312Y14175D3*
X90556D3*
Y69293D3*
X43312D3*
D48*
X43400Y23821D3*
Y21853D3*
D46*
X42337Y24313D3*
Y21361D3*
D40*
X50362Y24837D3*
Y23837D3*
Y22837D3*
Y21837D3*
Y20837D3*
G36*
X47802Y22107D2*
X47682Y22427D1*
X46962D1*
X46842Y22107D1*
X46922Y21947D1*
X47762D1*
D1*
X47802Y22107D1*
G37*
D32*
X53037Y27837D3*
X43037D3*
Y17837D3*
X53037D3*
D31*
X5512Y26775D3*
X52756D3*
Y81893D3*
X5512D3*
D48*
X5600Y36421D3*
Y34453D3*
D46*
X4537Y36913D3*
Y33961D3*
D40*
X12562Y37437D3*
Y36437D3*
Y35437D3*
Y34437D3*
Y33437D3*
G36*
X10002Y34707D2*
X9882Y35027D1*
X9162D1*
X9042Y34707D1*
X9122Y34547D1*
X9962D1*
D1*
X10002Y34707D1*
G37*
D32*
X15237Y40437D3*
X5237D3*
Y30437D3*
X15237D3*
D31*
X18112Y26775D3*
X65356D3*
Y81893D3*
X18112D3*
D48*
X18200Y36421D3*
Y34453D3*
D46*
X17137Y36913D3*
Y33961D3*
D40*
X25162Y37437D3*
Y36437D3*
Y35437D3*
Y34437D3*
Y33437D3*
G36*
X22602Y34707D2*
X22482Y35027D1*
X21762D1*
X21642Y34707D1*
X21722Y34547D1*
X22562D1*
D1*
X22602Y34707D1*
G37*
D32*
X27837Y40437D3*
X17837D3*
Y30437D3*
X27837D3*
D31*
X30712Y26775D3*
X77956D3*
Y81893D3*
X30712D3*
D48*
X30800Y36421D3*
Y34453D3*
D46*
X29737Y36913D3*
Y33961D3*
D40*
X37762Y37437D3*
Y36437D3*
Y35437D3*
Y34437D3*
Y33437D3*
G36*
X35202Y34707D2*
X35082Y35027D1*
X34362D1*
X34242Y34707D1*
X34322Y34547D1*
X35162D1*
D1*
X35202Y34707D1*
G37*
D32*
X40437Y40437D3*
X30437D3*
Y30437D3*
X40437D3*
D31*
X43312Y26775D3*
X90556D3*
Y81893D3*
X43312D3*
D48*
X43400Y36421D3*
Y34453D3*
D46*
X42337Y36913D3*
Y33961D3*
D40*
X50362Y37437D3*
Y36437D3*
Y35437D3*
Y34437D3*
Y33437D3*
G36*
X47802Y34707D2*
X47682Y35027D1*
X46962D1*
X46842Y34707D1*
X46922Y34547D1*
X47762D1*
D1*
X47802Y34707D1*
G37*
D32*
X53037Y40437D3*
X43037D3*
Y30437D3*
X53037D3*
D31*
X5512Y39375D3*
X52756D3*
Y94493D3*
X5512D3*
D48*
X5600Y49021D3*
Y47053D3*
D46*
X4537Y49513D3*
Y46561D3*
D40*
X12562Y50037D3*
Y49037D3*
Y48037D3*
Y47037D3*
Y46037D3*
G36*
X10002Y47307D2*
X9882Y47627D1*
X9162D1*
X9042Y47307D1*
X9122Y47147D1*
X9962D1*
D1*
X10002Y47307D1*
G37*
D32*
X15237Y53037D3*
X5237D3*
Y43037D3*
X15237D3*
D31*
X18112Y39375D3*
X65356D3*
Y94493D3*
X18112D3*
D48*
X18200Y49021D3*
Y47053D3*
D46*
X17137Y49513D3*
Y46561D3*
D40*
X25162Y50037D3*
Y49037D3*
Y48037D3*
Y47037D3*
Y46037D3*
G36*
X22602Y47307D2*
X22482Y47627D1*
X21762D1*
X21642Y47307D1*
X21722Y47147D1*
X22562D1*
D1*
X22602Y47307D1*
G37*
D32*
X27837Y53037D3*
X17837D3*
Y43037D3*
X27837D3*
D31*
X30712Y39375D3*
X77956D3*
Y94493D3*
X30712D3*
D48*
X30800Y49021D3*
Y47053D3*
D46*
X29737Y49513D3*
Y46561D3*
D40*
X37762Y50037D3*
Y49037D3*
Y48037D3*
Y47037D3*
Y46037D3*
G36*
X35202Y47307D2*
X35082Y47627D1*
X34362D1*
X34242Y47307D1*
X34322Y47147D1*
X35162D1*
D1*
X35202Y47307D1*
G37*
D32*
X40437Y53037D3*
X30437D3*
Y43037D3*
X40437D3*
D31*
X43312Y39375D3*
X90556D3*
Y94493D3*
X43312D3*
D48*
X43400Y49021D3*
Y47053D3*
D46*
X42337Y49513D3*
Y46561D3*
D40*
X50362Y50037D3*
Y49037D3*
Y48037D3*
Y47037D3*
Y46037D3*
G36*
X47802Y47307D2*
X47682Y47627D1*
X46962D1*
X46842Y47307D1*
X46922Y47147D1*
X47762D1*
D1*
X47802Y47307D1*
G37*
D32*
X53037Y53037D3*
X43037D3*
Y43037D3*
X53037D3*
M02*
