G04 DipTrace 2.4.0.1*
%INinterface.frontmask.gts*%
%MOIN*%
%ADD31C,0.126*%
%ADD38R,0.0492X0.0335*%
%ADD40C,0.0879*%
%ADD42R,0.0689X0.0669*%
%ADD44R,0.0689X0.065*%
%ADD46O,0.0689X0.0472*%
%ADD48O,0.0453X0.0571*%
%ADD50R,0.061X0.0236*%
%ADD52R,0.0512X0.0472*%
%ADD54R,0.0472X0.0512*%
%ADD56R,0.0866X0.0551*%
%ADD58R,0.0866X0.0315*%
%FSLAX44Y44*%
G04*
G70*
G90*
G75*
G01*
%LNTopMask*%
%LPD*%
D58*
X11138Y7987D3*
Y8487D3*
Y8987D3*
Y9487D3*
Y9987D3*
Y10487D3*
Y10987D3*
Y11487D3*
Y11987D3*
Y12487D3*
X7437D3*
Y11987D3*
Y11487D3*
Y10987D3*
Y10487D3*
Y9987D3*
Y9487D3*
Y8987D3*
Y8487D3*
Y7987D3*
D56*
X12857Y7223D3*
X11401D3*
Y6357D3*
X12857D3*
D54*
X10437Y7187D3*
Y6518D3*
X13812Y6437D3*
Y7106D3*
D52*
X8937Y7187D3*
X9606D3*
X8937Y13187D3*
X9606D3*
D50*
X5600Y10749D3*
Y10493D3*
Y10237D3*
Y9981D3*
Y9725D3*
D48*
Y11221D3*
Y9253D3*
D46*
X4537Y11713D3*
Y8761D3*
D44*
Y11428D3*
Y9046D3*
D42*
Y10631D3*
Y9843D3*
D52*
X9606Y13937D3*
X8937D3*
D40*
X12562Y12237D3*
Y11237D3*
Y10237D3*
Y9237D3*
Y8237D3*
D38*
X11437Y13937D3*
Y13189D3*
X12343Y13563D3*
D31*
X15237Y15237D3*
X5237D3*
Y5237D3*
X15237D3*
M02*
