G04 DipTrace 2.3.1.0*
%INinterface_Top.gtl*%
%MOIN*%
%ADD13C,0.02*%
%ADD14C,0.01*%
%ADD16R,0.0787X0.0236*%
%ADD17R,0.0787X0.0472*%
%ADD18R,0.0394X0.0433*%
%ADD19R,0.0433X0.0394*%
%ADD20R,0.0531X0.0157*%
%ADD21O,0.0374X0.0492*%
%ADD22O,0.061X0.0394*%
%ADD23R,0.061X0.0571*%
%ADD24R,0.061X0.0591*%
%ADD25C,0.08*%
%ADD27R,0.0413X0.0256*%
%ADD29C,0.0236*%
%FSLAX44Y44*%
G04*
G70*
G90*
G75*
G01*
%LNTop*%
%LPD*%
X5600Y10749D2*
D13*
X6937D1*
D14*
X7937D1*
D13*
X8937D1*
X9500D1*
X9812Y10437D1*
Y8187D1*
X10062Y7937D1*
X11088D1*
X11138Y7987D1*
X8937Y13937D2*
Y13187D1*
Y12237D1*
Y10749D1*
X12562Y12237D2*
X11687D1*
D14*
X10562D1*
D13*
X8937D1*
X11138Y9987D2*
D14*
X11812D1*
X12562Y9237D1*
X5650Y10187D2*
X5600Y10237D1*
X6137D1*
X6312Y10062D1*
Y9062D1*
X6887Y8487D1*
X7437D1*
X5600Y10493D2*
X6256D1*
X6562Y10187D1*
Y9312D1*
X6887Y8987D1*
X7437D1*
X11437Y13189D2*
D13*
X11064D1*
X6062Y9687D2*
X5638D1*
X5600Y9725D1*
X7437Y7987D2*
X7062D1*
X9606Y7187D2*
Y6812D1*
X9812D1*
X9606Y13187D2*
X10312Y13189D1*
X10437Y7187D2*
Y7562D1*
X13812Y6437D2*
Y5812D1*
X7437Y11487D2*
X6862D1*
X6812Y11437D1*
X11138Y11987D2*
D14*
X11762D1*
X11937Y11812D1*
X10437Y6518D2*
X11240D1*
X11401Y6357D1*
X11138Y8487D2*
X11637D1*
X11687Y8437D1*
Y7812D1*
X12062Y7437D1*
Y6437D1*
X11982Y6357D1*
X11401D1*
X13812Y7106D2*
X12974D1*
X12857Y7223D1*
X12651D1*
X11937Y7937D1*
Y8687D1*
X11687Y8937D1*
X11188D1*
X11138Y8987D1*
X7437Y9487D2*
X8762D1*
X9062Y9187D1*
Y7312D1*
X8937Y7187D1*
X11138Y9487D2*
X10637D1*
X10562Y9562D1*
Y11687D1*
Y12812D2*
Y13687D1*
X10312Y13937D1*
X9606D1*
X12562Y11237D2*
D13*
X13112D1*
X13187Y11312D1*
Y13437D1*
X13062Y13562D1*
X12344D1*
X12343Y13563D1*
X11437Y13937D2*
D14*
X10937D1*
X10812Y13812D1*
Y12562D1*
X10937Y12437D1*
X11088D1*
X11138Y12487D1*
X5600Y11221D2*
X4744D1*
X4537Y11428D1*
X5600Y9253D2*
X4744D1*
X4537Y9046D1*
Y11428D2*
Y10631D1*
Y9843D1*
Y9046D1*
Y8761D2*
Y9046D1*
Y11713D2*
Y11428D1*
X7437Y12487D2*
Y13812D1*
X7937Y14312D1*
X13437D1*
X13687Y14062D1*
Y10562D1*
X13437Y10312D1*
X12637D1*
X12562Y10237D1*
D29*
X11064Y13189D3*
X6062Y9687D3*
X7062Y7987D3*
X9812Y6812D3*
X7062Y7987D3*
X10312Y13189D3*
X10437Y7562D3*
X13812Y5812D3*
X9812Y6812D3*
X6812Y11437D3*
X11937Y11812D3*
X10562Y11687D3*
Y12812D3*
D16*
X11138Y7987D3*
Y8487D3*
Y8987D3*
Y9487D3*
Y9987D3*
Y10487D3*
Y10987D3*
Y11487D3*
Y11987D3*
Y12487D3*
X7437D3*
Y11987D3*
Y11487D3*
Y10987D3*
Y10487D3*
Y9987D3*
Y9487D3*
Y8987D3*
Y8487D3*
Y7987D3*
D17*
X12857Y7223D3*
X11401D3*
Y6357D3*
X12857D3*
D18*
X10437Y7187D3*
Y6518D3*
X13812Y6437D3*
Y7106D3*
D19*
X8937Y7187D3*
X9606D3*
X8937Y13187D3*
X9606D3*
D20*
X5600Y10749D3*
Y10493D3*
Y10237D3*
Y9981D3*
Y9725D3*
D21*
Y11221D3*
Y9253D3*
D22*
X4537Y11713D3*
Y8761D3*
D23*
Y11428D3*
Y9046D3*
D24*
Y10631D3*
Y9843D3*
D19*
X9606Y13937D3*
X8937D3*
D25*
X12562Y12237D3*
Y11237D3*
Y10237D3*
Y9237D3*
Y8237D3*
D27*
X11437Y13937D3*
Y13189D3*
X12343Y13563D3*
X18200Y10749D2*
D13*
X19537D1*
D14*
X20537D1*
D13*
X21537D1*
X22100D1*
X22412Y10437D1*
Y8187D1*
X22662Y7937D1*
X23688D1*
X23738Y7987D1*
X21537Y13937D2*
Y13187D1*
Y12237D1*
Y10749D1*
X25162Y12237D2*
X24287D1*
D14*
X23162D1*
D13*
X21537D1*
X23738Y9987D2*
D14*
X24412D1*
X25162Y9237D1*
X18250Y10187D2*
X18200Y10237D1*
X18737D1*
X18912Y10062D1*
Y9062D1*
X19487Y8487D1*
X20037D1*
X18200Y10493D2*
X18856D1*
X19162Y10187D1*
Y9312D1*
X19487Y8987D1*
X20037D1*
X24037Y13189D2*
D13*
X23664D1*
X18662Y9687D2*
X18238D1*
X18200Y9725D1*
X20037Y7987D2*
X19662D1*
X22206Y7187D2*
Y6812D1*
X22412D1*
X22206Y13187D2*
X22912Y13189D1*
X23037Y7187D2*
Y7562D1*
X26412Y6437D2*
Y5812D1*
X20037Y11487D2*
X19462D1*
X19412Y11437D1*
X23738Y11987D2*
D14*
X24362D1*
X24537Y11812D1*
X23037Y6518D2*
X23840D1*
X24001Y6357D1*
X23738Y8487D2*
X24237D1*
X24287Y8437D1*
Y7812D1*
X24662Y7437D1*
Y6437D1*
X24582Y6357D1*
X24001D1*
X26412Y7106D2*
X25574D1*
X25457Y7223D1*
X25251D1*
X24537Y7937D1*
Y8687D1*
X24287Y8937D1*
X23788D1*
X23738Y8987D1*
X20037Y9487D2*
X21362D1*
X21662Y9187D1*
Y7312D1*
X21537Y7187D1*
X23738Y9487D2*
X23237D1*
X23162Y9562D1*
Y11687D1*
Y12812D2*
Y13687D1*
X22912Y13937D1*
X22206D1*
X25162Y11237D2*
D13*
X25712D1*
X25787Y11312D1*
Y13437D1*
X25662Y13562D1*
X24944D1*
X24943Y13563D1*
X24037Y13937D2*
D14*
X23537D1*
X23412Y13812D1*
Y12562D1*
X23537Y12437D1*
X23688D1*
X23738Y12487D1*
X18200Y11221D2*
X17344D1*
X17137Y11428D1*
X18200Y9253D2*
X17344D1*
X17137Y9046D1*
Y11428D2*
Y10631D1*
Y9843D1*
Y9046D1*
Y8761D2*
Y9046D1*
Y11713D2*
Y11428D1*
X20037Y12487D2*
Y13812D1*
X20537Y14312D1*
X26037D1*
X26287Y14062D1*
Y10562D1*
X26037Y10312D1*
X25237D1*
X25162Y10237D1*
D29*
X23664Y13189D3*
X18662Y9687D3*
X19662Y7987D3*
X22412Y6812D3*
X19662Y7987D3*
X22912Y13189D3*
X23037Y7562D3*
X26412Y5812D3*
X22412Y6812D3*
X19412Y11437D3*
X24537Y11812D3*
X23162Y11687D3*
Y12812D3*
D16*
X23738Y7987D3*
Y8487D3*
Y8987D3*
Y9487D3*
Y9987D3*
Y10487D3*
Y10987D3*
Y11487D3*
Y11987D3*
Y12487D3*
X20037D3*
Y11987D3*
Y11487D3*
Y10987D3*
Y10487D3*
Y9987D3*
Y9487D3*
Y8987D3*
Y8487D3*
Y7987D3*
D17*
X25457Y7223D3*
X24001D3*
Y6357D3*
X25457D3*
D18*
X23037Y7187D3*
Y6518D3*
X26412Y6437D3*
Y7106D3*
D19*
X21537Y7187D3*
X22206D3*
X21537Y13187D3*
X22206D3*
D20*
X18200Y10749D3*
Y10493D3*
Y10237D3*
Y9981D3*
Y9725D3*
D21*
Y11221D3*
Y9253D3*
D22*
X17137Y11713D3*
Y8761D3*
D23*
Y11428D3*
Y9046D3*
D24*
Y10631D3*
Y9843D3*
D19*
X22206Y13937D3*
X21537D3*
D25*
X25162Y12237D3*
Y11237D3*
Y10237D3*
Y9237D3*
Y8237D3*
D27*
X24037Y13937D3*
Y13189D3*
X24943Y13563D3*
X30800Y10749D2*
D13*
X32137D1*
D14*
X33137D1*
D13*
X34137D1*
X34700D1*
X35012Y10437D1*
Y8187D1*
X35262Y7937D1*
X36288D1*
X36338Y7987D1*
X34137Y13937D2*
Y13187D1*
Y12237D1*
Y10749D1*
X37762Y12237D2*
X36887D1*
D14*
X35762D1*
D13*
X34137D1*
X36338Y9987D2*
D14*
X37012D1*
X37762Y9237D1*
X30850Y10187D2*
X30800Y10237D1*
X31337D1*
X31512Y10062D1*
Y9062D1*
X32087Y8487D1*
X32637D1*
X30800Y10493D2*
X31456D1*
X31762Y10187D1*
Y9312D1*
X32087Y8987D1*
X32637D1*
X36637Y13189D2*
D13*
X36264D1*
X31262Y9687D2*
X30838D1*
X30800Y9725D1*
X32637Y7987D2*
X32262D1*
X34806Y7187D2*
Y6812D1*
X35012D1*
X34806Y13187D2*
X35512Y13189D1*
X35637Y7187D2*
Y7562D1*
X39012Y6437D2*
Y5812D1*
X32637Y11487D2*
X32062D1*
X32012Y11437D1*
X36338Y11987D2*
D14*
X36962D1*
X37137Y11812D1*
X35637Y6518D2*
X36440D1*
X36601Y6357D1*
X36338Y8487D2*
X36837D1*
X36887Y8437D1*
Y7812D1*
X37262Y7437D1*
Y6437D1*
X37182Y6357D1*
X36601D1*
X39012Y7106D2*
X38174D1*
X38057Y7223D1*
X37851D1*
X37137Y7937D1*
Y8687D1*
X36887Y8937D1*
X36388D1*
X36338Y8987D1*
X32637Y9487D2*
X33962D1*
X34262Y9187D1*
Y7312D1*
X34137Y7187D1*
X36338Y9487D2*
X35837D1*
X35762Y9562D1*
Y11687D1*
Y12812D2*
Y13687D1*
X35512Y13937D1*
X34806D1*
X37762Y11237D2*
D13*
X38312D1*
X38387Y11312D1*
Y13437D1*
X38262Y13562D1*
X37544D1*
X37543Y13563D1*
X36637Y13937D2*
D14*
X36137D1*
X36012Y13812D1*
Y12562D1*
X36137Y12437D1*
X36288D1*
X36338Y12487D1*
X30800Y11221D2*
X29944D1*
X29737Y11428D1*
X30800Y9253D2*
X29944D1*
X29737Y9046D1*
Y11428D2*
Y10631D1*
Y9843D1*
Y9046D1*
Y8761D2*
Y9046D1*
Y11713D2*
Y11428D1*
X32637Y12487D2*
Y13812D1*
X33137Y14312D1*
X38637D1*
X38887Y14062D1*
Y10562D1*
X38637Y10312D1*
X37837D1*
X37762Y10237D1*
D29*
X36264Y13189D3*
X31262Y9687D3*
X32262Y7987D3*
X35012Y6812D3*
X32262Y7987D3*
X35512Y13189D3*
X35637Y7562D3*
X39012Y5812D3*
X35012Y6812D3*
X32012Y11437D3*
X37137Y11812D3*
X35762Y11687D3*
Y12812D3*
D16*
X36338Y7987D3*
Y8487D3*
Y8987D3*
Y9487D3*
Y9987D3*
Y10487D3*
Y10987D3*
Y11487D3*
Y11987D3*
Y12487D3*
X32637D3*
Y11987D3*
Y11487D3*
Y10987D3*
Y10487D3*
Y9987D3*
Y9487D3*
Y8987D3*
Y8487D3*
Y7987D3*
D17*
X38057Y7223D3*
X36601D3*
Y6357D3*
X38057D3*
D18*
X35637Y7187D3*
Y6518D3*
X39012Y6437D3*
Y7106D3*
D19*
X34137Y7187D3*
X34806D3*
X34137Y13187D3*
X34806D3*
D20*
X30800Y10749D3*
Y10493D3*
Y10237D3*
Y9981D3*
Y9725D3*
D21*
Y11221D3*
Y9253D3*
D22*
X29737Y11713D3*
Y8761D3*
D23*
Y11428D3*
Y9046D3*
D24*
Y10631D3*
Y9843D3*
D19*
X34806Y13937D3*
X34137D3*
D25*
X37762Y12237D3*
Y11237D3*
Y10237D3*
Y9237D3*
Y8237D3*
D27*
X36637Y13937D3*
Y13189D3*
X37543Y13563D3*
X43400Y10749D2*
D13*
X44737D1*
D14*
X45737D1*
D13*
X46737D1*
X47300D1*
X47612Y10437D1*
Y8187D1*
X47862Y7937D1*
X48888D1*
X48938Y7987D1*
X46737Y13937D2*
Y13187D1*
Y12237D1*
Y10749D1*
X50362Y12237D2*
X49487D1*
D14*
X48362D1*
D13*
X46737D1*
X48938Y9987D2*
D14*
X49612D1*
X50362Y9237D1*
X43450Y10187D2*
X43400Y10237D1*
X43937D1*
X44112Y10062D1*
Y9062D1*
X44687Y8487D1*
X45237D1*
X43400Y10493D2*
X44056D1*
X44362Y10187D1*
Y9312D1*
X44687Y8987D1*
X45237D1*
X49237Y13189D2*
D13*
X48864D1*
X43862Y9687D2*
X43438D1*
X43400Y9725D1*
X45237Y7987D2*
X44862D1*
X47406Y7187D2*
Y6812D1*
X47612D1*
X47406Y13187D2*
X48112Y13189D1*
X48237Y7187D2*
Y7562D1*
X51612Y6437D2*
Y5812D1*
X45237Y11487D2*
X44662D1*
X44612Y11437D1*
X48938Y11987D2*
D14*
X49562D1*
X49737Y11812D1*
X48237Y6518D2*
X49040D1*
X49201Y6357D1*
X48938Y8487D2*
X49437D1*
X49487Y8437D1*
Y7812D1*
X49862Y7437D1*
Y6437D1*
X49782Y6357D1*
X49201D1*
X51612Y7106D2*
X50774D1*
X50657Y7223D1*
X50451D1*
X49737Y7937D1*
Y8687D1*
X49487Y8937D1*
X48988D1*
X48938Y8987D1*
X45237Y9487D2*
X46562D1*
X46862Y9187D1*
Y7312D1*
X46737Y7187D1*
X48938Y9487D2*
X48437D1*
X48362Y9562D1*
Y11687D1*
Y12812D2*
Y13687D1*
X48112Y13937D1*
X47406D1*
X50362Y11237D2*
D13*
X50912D1*
X50987Y11312D1*
Y13437D1*
X50862Y13562D1*
X50144D1*
X50143Y13563D1*
X49237Y13937D2*
D14*
X48737D1*
X48612Y13812D1*
Y12562D1*
X48737Y12437D1*
X48888D1*
X48938Y12487D1*
X43400Y11221D2*
X42544D1*
X42337Y11428D1*
X43400Y9253D2*
X42544D1*
X42337Y9046D1*
Y11428D2*
Y10631D1*
Y9843D1*
Y9046D1*
Y8761D2*
Y9046D1*
Y11713D2*
Y11428D1*
X45237Y12487D2*
Y13812D1*
X45737Y14312D1*
X51237D1*
X51487Y14062D1*
Y10562D1*
X51237Y10312D1*
X50437D1*
X50362Y10237D1*
D29*
X48864Y13189D3*
X43862Y9687D3*
X44862Y7987D3*
X47612Y6812D3*
X44862Y7987D3*
X48112Y13189D3*
X48237Y7562D3*
X51612Y5812D3*
X47612Y6812D3*
X44612Y11437D3*
X49737Y11812D3*
X48362Y11687D3*
Y12812D3*
D16*
X48938Y7987D3*
Y8487D3*
Y8987D3*
Y9487D3*
Y9987D3*
Y10487D3*
Y10987D3*
Y11487D3*
Y11987D3*
Y12487D3*
X45237D3*
Y11987D3*
Y11487D3*
Y10987D3*
Y10487D3*
Y9987D3*
Y9487D3*
Y8987D3*
Y8487D3*
Y7987D3*
D17*
X50657Y7223D3*
X49201D3*
Y6357D3*
X50657D3*
D18*
X48237Y7187D3*
Y6518D3*
X51612Y6437D3*
Y7106D3*
D19*
X46737Y7187D3*
X47406D3*
X46737Y13187D3*
X47406D3*
D20*
X43400Y10749D3*
Y10493D3*
Y10237D3*
Y9981D3*
Y9725D3*
D21*
Y11221D3*
Y9253D3*
D22*
X42337Y11713D3*
Y8761D3*
D23*
Y11428D3*
Y9046D3*
D24*
Y10631D3*
Y9843D3*
D19*
X47406Y13937D3*
X46737D3*
D25*
X50362Y12237D3*
Y11237D3*
Y10237D3*
Y9237D3*
Y8237D3*
D27*
X49237Y13937D3*
Y13189D3*
X50143Y13563D3*
X5600Y23349D2*
D13*
X6937D1*
D14*
X7937D1*
D13*
X8937D1*
X9500D1*
X9812Y23037D1*
Y20787D1*
X10062Y20537D1*
X11088D1*
X11138Y20587D1*
X8937Y26537D2*
Y25787D1*
Y24837D1*
Y23349D1*
X12562Y24837D2*
X11687D1*
D14*
X10562D1*
D13*
X8937D1*
X11138Y22587D2*
D14*
X11812D1*
X12562Y21837D1*
X5650Y22787D2*
X5600Y22837D1*
X6137D1*
X6312Y22662D1*
Y21662D1*
X6887Y21087D1*
X7437D1*
X5600Y23093D2*
X6256D1*
X6562Y22787D1*
Y21912D1*
X6887Y21587D1*
X7437D1*
X11437Y25789D2*
D13*
X11064D1*
X6062Y22287D2*
X5638D1*
X5600Y22325D1*
X7437Y20587D2*
X7062D1*
X9606Y19787D2*
Y19412D1*
X9812D1*
X9606Y25787D2*
X10312Y25789D1*
X10437Y19787D2*
Y20162D1*
X13812Y19037D2*
Y18412D1*
X7437Y24087D2*
X6862D1*
X6812Y24037D1*
X11138Y24587D2*
D14*
X11762D1*
X11937Y24412D1*
X10437Y19118D2*
X11240D1*
X11401Y18957D1*
X11138Y21087D2*
X11637D1*
X11687Y21037D1*
Y20412D1*
X12062Y20037D1*
Y19037D1*
X11982Y18957D1*
X11401D1*
X13812Y19706D2*
X12974D1*
X12857Y19823D1*
X12651D1*
X11937Y20537D1*
Y21287D1*
X11687Y21537D1*
X11188D1*
X11138Y21587D1*
X7437Y22087D2*
X8762D1*
X9062Y21787D1*
Y19912D1*
X8937Y19787D1*
X11138Y22087D2*
X10637D1*
X10562Y22162D1*
Y24287D1*
Y25412D2*
Y26287D1*
X10312Y26537D1*
X9606D1*
X12562Y23837D2*
D13*
X13112D1*
X13187Y23912D1*
Y26037D1*
X13062Y26162D1*
X12344D1*
X12343Y26163D1*
X11437Y26537D2*
D14*
X10937D1*
X10812Y26412D1*
Y25162D1*
X10937Y25037D1*
X11088D1*
X11138Y25087D1*
X5600Y23821D2*
X4744D1*
X4537Y24028D1*
X5600Y21853D2*
X4744D1*
X4537Y21646D1*
Y24028D2*
Y23231D1*
Y22443D1*
Y21646D1*
Y21361D2*
Y21646D1*
Y24313D2*
Y24028D1*
X7437Y25087D2*
Y26412D1*
X7937Y26912D1*
X13437D1*
X13687Y26662D1*
Y23162D1*
X13437Y22912D1*
X12637D1*
X12562Y22837D1*
D29*
X11064Y25789D3*
X6062Y22287D3*
X7062Y20587D3*
X9812Y19412D3*
X7062Y20587D3*
X10312Y25789D3*
X10437Y20162D3*
X13812Y18412D3*
X9812Y19412D3*
X6812Y24037D3*
X11937Y24412D3*
X10562Y24287D3*
Y25412D3*
D16*
X11138Y20587D3*
Y21087D3*
Y21587D3*
Y22087D3*
Y22587D3*
Y23087D3*
Y23587D3*
Y24087D3*
Y24587D3*
Y25087D3*
X7437D3*
Y24587D3*
Y24087D3*
Y23587D3*
Y23087D3*
Y22587D3*
Y22087D3*
Y21587D3*
Y21087D3*
Y20587D3*
D17*
X12857Y19823D3*
X11401D3*
Y18957D3*
X12857D3*
D18*
X10437Y19787D3*
Y19118D3*
X13812Y19037D3*
Y19706D3*
D19*
X8937Y19787D3*
X9606D3*
X8937Y25787D3*
X9606D3*
D20*
X5600Y23349D3*
Y23093D3*
Y22837D3*
Y22581D3*
Y22325D3*
D21*
Y23821D3*
Y21853D3*
D22*
X4537Y24313D3*
Y21361D3*
D23*
Y24028D3*
Y21646D3*
D24*
Y23231D3*
Y22443D3*
D19*
X9606Y26537D3*
X8937D3*
D25*
X12562Y24837D3*
Y23837D3*
Y22837D3*
Y21837D3*
Y20837D3*
D27*
X11437Y26537D3*
Y25789D3*
X12343Y26163D3*
X18200Y23349D2*
D13*
X19537D1*
D14*
X20537D1*
D13*
X21537D1*
X22100D1*
X22412Y23037D1*
Y20787D1*
X22662Y20537D1*
X23688D1*
X23738Y20587D1*
X21537Y26537D2*
Y25787D1*
Y24837D1*
Y23349D1*
X25162Y24837D2*
X24287D1*
D14*
X23162D1*
D13*
X21537D1*
X23738Y22587D2*
D14*
X24412D1*
X25162Y21837D1*
X18250Y22787D2*
X18200Y22837D1*
X18737D1*
X18912Y22662D1*
Y21662D1*
X19487Y21087D1*
X20037D1*
X18200Y23093D2*
X18856D1*
X19162Y22787D1*
Y21912D1*
X19487Y21587D1*
X20037D1*
X24037Y25789D2*
D13*
X23664D1*
X18662Y22287D2*
X18238D1*
X18200Y22325D1*
X20037Y20587D2*
X19662D1*
X22206Y19787D2*
Y19412D1*
X22412D1*
X22206Y25787D2*
X22912Y25789D1*
X23037Y19787D2*
Y20162D1*
X26412Y19037D2*
Y18412D1*
X20037Y24087D2*
X19462D1*
X19412Y24037D1*
X23738Y24587D2*
D14*
X24362D1*
X24537Y24412D1*
X23037Y19118D2*
X23840D1*
X24001Y18957D1*
X23738Y21087D2*
X24237D1*
X24287Y21037D1*
Y20412D1*
X24662Y20037D1*
Y19037D1*
X24582Y18957D1*
X24001D1*
X26412Y19706D2*
X25574D1*
X25457Y19823D1*
X25251D1*
X24537Y20537D1*
Y21287D1*
X24287Y21537D1*
X23788D1*
X23738Y21587D1*
X20037Y22087D2*
X21362D1*
X21662Y21787D1*
Y19912D1*
X21537Y19787D1*
X23738Y22087D2*
X23237D1*
X23162Y22162D1*
Y24287D1*
Y25412D2*
Y26287D1*
X22912Y26537D1*
X22206D1*
X25162Y23837D2*
D13*
X25712D1*
X25787Y23912D1*
Y26037D1*
X25662Y26162D1*
X24944D1*
X24943Y26163D1*
X24037Y26537D2*
D14*
X23537D1*
X23412Y26412D1*
Y25162D1*
X23537Y25037D1*
X23688D1*
X23738Y25087D1*
X18200Y23821D2*
X17344D1*
X17137Y24028D1*
X18200Y21853D2*
X17344D1*
X17137Y21646D1*
Y24028D2*
Y23231D1*
Y22443D1*
Y21646D1*
Y21361D2*
Y21646D1*
Y24313D2*
Y24028D1*
X20037Y25087D2*
Y26412D1*
X20537Y26912D1*
X26037D1*
X26287Y26662D1*
Y23162D1*
X26037Y22912D1*
X25237D1*
X25162Y22837D1*
D29*
X23664Y25789D3*
X18662Y22287D3*
X19662Y20587D3*
X22412Y19412D3*
X19662Y20587D3*
X22912Y25789D3*
X23037Y20162D3*
X26412Y18412D3*
X22412Y19412D3*
X19412Y24037D3*
X24537Y24412D3*
X23162Y24287D3*
Y25412D3*
D16*
X23738Y20587D3*
Y21087D3*
Y21587D3*
Y22087D3*
Y22587D3*
Y23087D3*
Y23587D3*
Y24087D3*
Y24587D3*
Y25087D3*
X20037D3*
Y24587D3*
Y24087D3*
Y23587D3*
Y23087D3*
Y22587D3*
Y22087D3*
Y21587D3*
Y21087D3*
Y20587D3*
D17*
X25457Y19823D3*
X24001D3*
Y18957D3*
X25457D3*
D18*
X23037Y19787D3*
Y19118D3*
X26412Y19037D3*
Y19706D3*
D19*
X21537Y19787D3*
X22206D3*
X21537Y25787D3*
X22206D3*
D20*
X18200Y23349D3*
Y23093D3*
Y22837D3*
Y22581D3*
Y22325D3*
D21*
Y23821D3*
Y21853D3*
D22*
X17137Y24313D3*
Y21361D3*
D23*
Y24028D3*
Y21646D3*
D24*
Y23231D3*
Y22443D3*
D19*
X22206Y26537D3*
X21537D3*
D25*
X25162Y24837D3*
Y23837D3*
Y22837D3*
Y21837D3*
Y20837D3*
D27*
X24037Y26537D3*
Y25789D3*
X24943Y26163D3*
X30800Y23349D2*
D13*
X32137D1*
D14*
X33137D1*
D13*
X34137D1*
X34700D1*
X35012Y23037D1*
Y20787D1*
X35262Y20537D1*
X36288D1*
X36338Y20587D1*
X34137Y26537D2*
Y25787D1*
Y24837D1*
Y23349D1*
X37762Y24837D2*
X36887D1*
D14*
X35762D1*
D13*
X34137D1*
X36338Y22587D2*
D14*
X37012D1*
X37762Y21837D1*
X30850Y22787D2*
X30800Y22837D1*
X31337D1*
X31512Y22662D1*
Y21662D1*
X32087Y21087D1*
X32637D1*
X30800Y23093D2*
X31456D1*
X31762Y22787D1*
Y21912D1*
X32087Y21587D1*
X32637D1*
X36637Y25789D2*
D13*
X36264D1*
X31262Y22287D2*
X30838D1*
X30800Y22325D1*
X32637Y20587D2*
X32262D1*
X34806Y19787D2*
Y19412D1*
X35012D1*
X34806Y25787D2*
X35512Y25789D1*
X35637Y19787D2*
Y20162D1*
X39012Y19037D2*
Y18412D1*
X32637Y24087D2*
X32062D1*
X32012Y24037D1*
X36338Y24587D2*
D14*
X36962D1*
X37137Y24412D1*
X35637Y19118D2*
X36440D1*
X36601Y18957D1*
X36338Y21087D2*
X36837D1*
X36887Y21037D1*
Y20412D1*
X37262Y20037D1*
Y19037D1*
X37182Y18957D1*
X36601D1*
X39012Y19706D2*
X38174D1*
X38057Y19823D1*
X37851D1*
X37137Y20537D1*
Y21287D1*
X36887Y21537D1*
X36388D1*
X36338Y21587D1*
X32637Y22087D2*
X33962D1*
X34262Y21787D1*
Y19912D1*
X34137Y19787D1*
X36338Y22087D2*
X35837D1*
X35762Y22162D1*
Y24287D1*
Y25412D2*
Y26287D1*
X35512Y26537D1*
X34806D1*
X37762Y23837D2*
D13*
X38312D1*
X38387Y23912D1*
Y26037D1*
X38262Y26162D1*
X37544D1*
X37543Y26163D1*
X36637Y26537D2*
D14*
X36137D1*
X36012Y26412D1*
Y25162D1*
X36137Y25037D1*
X36288D1*
X36338Y25087D1*
X30800Y23821D2*
X29944D1*
X29737Y24028D1*
X30800Y21853D2*
X29944D1*
X29737Y21646D1*
Y24028D2*
Y23231D1*
Y22443D1*
Y21646D1*
Y21361D2*
Y21646D1*
Y24313D2*
Y24028D1*
X32637Y25087D2*
Y26412D1*
X33137Y26912D1*
X38637D1*
X38887Y26662D1*
Y23162D1*
X38637Y22912D1*
X37837D1*
X37762Y22837D1*
D29*
X36264Y25789D3*
X31262Y22287D3*
X32262Y20587D3*
X35012Y19412D3*
X32262Y20587D3*
X35512Y25789D3*
X35637Y20162D3*
X39012Y18412D3*
X35012Y19412D3*
X32012Y24037D3*
X37137Y24412D3*
X35762Y24287D3*
Y25412D3*
D16*
X36338Y20587D3*
Y21087D3*
Y21587D3*
Y22087D3*
Y22587D3*
Y23087D3*
Y23587D3*
Y24087D3*
Y24587D3*
Y25087D3*
X32637D3*
Y24587D3*
Y24087D3*
Y23587D3*
Y23087D3*
Y22587D3*
Y22087D3*
Y21587D3*
Y21087D3*
Y20587D3*
D17*
X38057Y19823D3*
X36601D3*
Y18957D3*
X38057D3*
D18*
X35637Y19787D3*
Y19118D3*
X39012Y19037D3*
Y19706D3*
D19*
X34137Y19787D3*
X34806D3*
X34137Y25787D3*
X34806D3*
D20*
X30800Y23349D3*
Y23093D3*
Y22837D3*
Y22581D3*
Y22325D3*
D21*
Y23821D3*
Y21853D3*
D22*
X29737Y24313D3*
Y21361D3*
D23*
Y24028D3*
Y21646D3*
D24*
Y23231D3*
Y22443D3*
D19*
X34806Y26537D3*
X34137D3*
D25*
X37762Y24837D3*
Y23837D3*
Y22837D3*
Y21837D3*
Y20837D3*
D27*
X36637Y26537D3*
Y25789D3*
X37543Y26163D3*
X43400Y23349D2*
D13*
X44737D1*
D14*
X45737D1*
D13*
X46737D1*
X47300D1*
X47612Y23037D1*
Y20787D1*
X47862Y20537D1*
X48888D1*
X48938Y20587D1*
X46737Y26537D2*
Y25787D1*
Y24837D1*
Y23349D1*
X50362Y24837D2*
X49487D1*
D14*
X48362D1*
D13*
X46737D1*
X48938Y22587D2*
D14*
X49612D1*
X50362Y21837D1*
X43450Y22787D2*
X43400Y22837D1*
X43937D1*
X44112Y22662D1*
Y21662D1*
X44687Y21087D1*
X45237D1*
X43400Y23093D2*
X44056D1*
X44362Y22787D1*
Y21912D1*
X44687Y21587D1*
X45237D1*
X49237Y25789D2*
D13*
X48864D1*
X43862Y22287D2*
X43438D1*
X43400Y22325D1*
X45237Y20587D2*
X44862D1*
X47406Y19787D2*
Y19412D1*
X47612D1*
X47406Y25787D2*
X48112Y25789D1*
X48237Y19787D2*
Y20162D1*
X51612Y19037D2*
Y18412D1*
X45237Y24087D2*
X44662D1*
X44612Y24037D1*
X48938Y24587D2*
D14*
X49562D1*
X49737Y24412D1*
X48237Y19118D2*
X49040D1*
X49201Y18957D1*
X48938Y21087D2*
X49437D1*
X49487Y21037D1*
Y20412D1*
X49862Y20037D1*
Y19037D1*
X49782Y18957D1*
X49201D1*
X51612Y19706D2*
X50774D1*
X50657Y19823D1*
X50451D1*
X49737Y20537D1*
Y21287D1*
X49487Y21537D1*
X48988D1*
X48938Y21587D1*
X45237Y22087D2*
X46562D1*
X46862Y21787D1*
Y19912D1*
X46737Y19787D1*
X48938Y22087D2*
X48437D1*
X48362Y22162D1*
Y24287D1*
Y25412D2*
Y26287D1*
X48112Y26537D1*
X47406D1*
X50362Y23837D2*
D13*
X50912D1*
X50987Y23912D1*
Y26037D1*
X50862Y26162D1*
X50144D1*
X50143Y26163D1*
X49237Y26537D2*
D14*
X48737D1*
X48612Y26412D1*
Y25162D1*
X48737Y25037D1*
X48888D1*
X48938Y25087D1*
X43400Y23821D2*
X42544D1*
X42337Y24028D1*
X43400Y21853D2*
X42544D1*
X42337Y21646D1*
Y24028D2*
Y23231D1*
Y22443D1*
Y21646D1*
Y21361D2*
Y21646D1*
Y24313D2*
Y24028D1*
X45237Y25087D2*
Y26412D1*
X45737Y26912D1*
X51237D1*
X51487Y26662D1*
Y23162D1*
X51237Y22912D1*
X50437D1*
X50362Y22837D1*
D29*
X48864Y25789D3*
X43862Y22287D3*
X44862Y20587D3*
X47612Y19412D3*
X44862Y20587D3*
X48112Y25789D3*
X48237Y20162D3*
X51612Y18412D3*
X47612Y19412D3*
X44612Y24037D3*
X49737Y24412D3*
X48362Y24287D3*
Y25412D3*
D16*
X48938Y20587D3*
Y21087D3*
Y21587D3*
Y22087D3*
Y22587D3*
Y23087D3*
Y23587D3*
Y24087D3*
Y24587D3*
Y25087D3*
X45237D3*
Y24587D3*
Y24087D3*
Y23587D3*
Y23087D3*
Y22587D3*
Y22087D3*
Y21587D3*
Y21087D3*
Y20587D3*
D17*
X50657Y19823D3*
X49201D3*
Y18957D3*
X50657D3*
D18*
X48237Y19787D3*
Y19118D3*
X51612Y19037D3*
Y19706D3*
D19*
X46737Y19787D3*
X47406D3*
X46737Y25787D3*
X47406D3*
D20*
X43400Y23349D3*
Y23093D3*
Y22837D3*
Y22581D3*
Y22325D3*
D21*
Y23821D3*
Y21853D3*
D22*
X42337Y24313D3*
Y21361D3*
D23*
Y24028D3*
Y21646D3*
D24*
Y23231D3*
Y22443D3*
D19*
X47406Y26537D3*
X46737D3*
D25*
X50362Y24837D3*
Y23837D3*
Y22837D3*
Y21837D3*
Y20837D3*
D27*
X49237Y26537D3*
Y25789D3*
X50143Y26163D3*
X5600Y35949D2*
D13*
X6937D1*
D14*
X7937D1*
D13*
X8937D1*
X9500D1*
X9812Y35637D1*
Y33387D1*
X10062Y33137D1*
X11088D1*
X11138Y33187D1*
X8937Y39137D2*
Y38387D1*
Y37437D1*
Y35949D1*
X12562Y37437D2*
X11687D1*
D14*
X10562D1*
D13*
X8937D1*
X11138Y35187D2*
D14*
X11812D1*
X12562Y34437D1*
X5650Y35387D2*
X5600Y35437D1*
X6137D1*
X6312Y35262D1*
Y34262D1*
X6887Y33687D1*
X7437D1*
X5600Y35693D2*
X6256D1*
X6562Y35387D1*
Y34512D1*
X6887Y34187D1*
X7437D1*
X11437Y38389D2*
D13*
X11064D1*
X6062Y34887D2*
X5638D1*
X5600Y34925D1*
X7437Y33187D2*
X7062D1*
X9606Y32387D2*
Y32012D1*
X9812D1*
X9606Y38387D2*
X10312Y38389D1*
X10437Y32387D2*
Y32762D1*
X13812Y31637D2*
Y31012D1*
X7437Y36687D2*
X6862D1*
X6812Y36637D1*
X11138Y37187D2*
D14*
X11762D1*
X11937Y37012D1*
X10437Y31718D2*
X11240D1*
X11401Y31557D1*
X11138Y33687D2*
X11637D1*
X11687Y33637D1*
Y33012D1*
X12062Y32637D1*
Y31637D1*
X11982Y31557D1*
X11401D1*
X13812Y32306D2*
X12974D1*
X12857Y32423D1*
X12651D1*
X11937Y33137D1*
Y33887D1*
X11687Y34137D1*
X11188D1*
X11138Y34187D1*
X7437Y34687D2*
X8762D1*
X9062Y34387D1*
Y32512D1*
X8937Y32387D1*
X11138Y34687D2*
X10637D1*
X10562Y34762D1*
Y36887D1*
Y38012D2*
Y38887D1*
X10312Y39137D1*
X9606D1*
X12562Y36437D2*
D13*
X13112D1*
X13187Y36512D1*
Y38637D1*
X13062Y38762D1*
X12344D1*
X12343Y38763D1*
X11437Y39137D2*
D14*
X10937D1*
X10812Y39012D1*
Y37762D1*
X10937Y37637D1*
X11088D1*
X11138Y37687D1*
X5600Y36421D2*
X4744D1*
X4537Y36628D1*
X5600Y34453D2*
X4744D1*
X4537Y34246D1*
Y36628D2*
Y35831D1*
Y35043D1*
Y34246D1*
Y33961D2*
Y34246D1*
Y36913D2*
Y36628D1*
X7437Y37687D2*
Y39012D1*
X7937Y39512D1*
X13437D1*
X13687Y39262D1*
Y35762D1*
X13437Y35512D1*
X12637D1*
X12562Y35437D1*
D29*
X11064Y38389D3*
X6062Y34887D3*
X7062Y33187D3*
X9812Y32012D3*
X7062Y33187D3*
X10312Y38389D3*
X10437Y32762D3*
X13812Y31012D3*
X9812Y32012D3*
X6812Y36637D3*
X11937Y37012D3*
X10562Y36887D3*
Y38012D3*
D16*
X11138Y33187D3*
Y33687D3*
Y34187D3*
Y34687D3*
Y35187D3*
Y35687D3*
Y36187D3*
Y36687D3*
Y37187D3*
Y37687D3*
X7437D3*
Y37187D3*
Y36687D3*
Y36187D3*
Y35687D3*
Y35187D3*
Y34687D3*
Y34187D3*
Y33687D3*
Y33187D3*
D17*
X12857Y32423D3*
X11401D3*
Y31557D3*
X12857D3*
D18*
X10437Y32387D3*
Y31718D3*
X13812Y31637D3*
Y32306D3*
D19*
X8937Y32387D3*
X9606D3*
X8937Y38387D3*
X9606D3*
D20*
X5600Y35949D3*
Y35693D3*
Y35437D3*
Y35181D3*
Y34925D3*
D21*
Y36421D3*
Y34453D3*
D22*
X4537Y36913D3*
Y33961D3*
D23*
Y36628D3*
Y34246D3*
D24*
Y35831D3*
Y35043D3*
D19*
X9606Y39137D3*
X8937D3*
D25*
X12562Y37437D3*
Y36437D3*
Y35437D3*
Y34437D3*
Y33437D3*
D27*
X11437Y39137D3*
Y38389D3*
X12343Y38763D3*
X18200Y35949D2*
D13*
X19537D1*
D14*
X20537D1*
D13*
X21537D1*
X22100D1*
X22412Y35637D1*
Y33387D1*
X22662Y33137D1*
X23688D1*
X23738Y33187D1*
X21537Y39137D2*
Y38387D1*
Y37437D1*
Y35949D1*
X25162Y37437D2*
X24287D1*
D14*
X23162D1*
D13*
X21537D1*
X23738Y35187D2*
D14*
X24412D1*
X25162Y34437D1*
X18250Y35387D2*
X18200Y35437D1*
X18737D1*
X18912Y35262D1*
Y34262D1*
X19487Y33687D1*
X20037D1*
X18200Y35693D2*
X18856D1*
X19162Y35387D1*
Y34512D1*
X19487Y34187D1*
X20037D1*
X24037Y38389D2*
D13*
X23664D1*
X18662Y34887D2*
X18238D1*
X18200Y34925D1*
X20037Y33187D2*
X19662D1*
X22206Y32387D2*
Y32012D1*
X22412D1*
X22206Y38387D2*
X22912Y38389D1*
X23037Y32387D2*
Y32762D1*
X26412Y31637D2*
Y31012D1*
X20037Y36687D2*
X19462D1*
X19412Y36637D1*
X23738Y37187D2*
D14*
X24362D1*
X24537Y37012D1*
X23037Y31718D2*
X23840D1*
X24001Y31557D1*
X23738Y33687D2*
X24237D1*
X24287Y33637D1*
Y33012D1*
X24662Y32637D1*
Y31637D1*
X24582Y31557D1*
X24001D1*
X26412Y32306D2*
X25574D1*
X25457Y32423D1*
X25251D1*
X24537Y33137D1*
Y33887D1*
X24287Y34137D1*
X23788D1*
X23738Y34187D1*
X20037Y34687D2*
X21362D1*
X21662Y34387D1*
Y32512D1*
X21537Y32387D1*
X23738Y34687D2*
X23237D1*
X23162Y34762D1*
Y36887D1*
Y38012D2*
Y38887D1*
X22912Y39137D1*
X22206D1*
X25162Y36437D2*
D13*
X25712D1*
X25787Y36512D1*
Y38637D1*
X25662Y38762D1*
X24944D1*
X24943Y38763D1*
X24037Y39137D2*
D14*
X23537D1*
X23412Y39012D1*
Y37762D1*
X23537Y37637D1*
X23688D1*
X23738Y37687D1*
X18200Y36421D2*
X17344D1*
X17137Y36628D1*
X18200Y34453D2*
X17344D1*
X17137Y34246D1*
Y36628D2*
Y35831D1*
Y35043D1*
Y34246D1*
Y33961D2*
Y34246D1*
Y36913D2*
Y36628D1*
X20037Y37687D2*
Y39012D1*
X20537Y39512D1*
X26037D1*
X26287Y39262D1*
Y35762D1*
X26037Y35512D1*
X25237D1*
X25162Y35437D1*
D29*
X23664Y38389D3*
X18662Y34887D3*
X19662Y33187D3*
X22412Y32012D3*
X19662Y33187D3*
X22912Y38389D3*
X23037Y32762D3*
X26412Y31012D3*
X22412Y32012D3*
X19412Y36637D3*
X24537Y37012D3*
X23162Y36887D3*
Y38012D3*
D16*
X23738Y33187D3*
Y33687D3*
Y34187D3*
Y34687D3*
Y35187D3*
Y35687D3*
Y36187D3*
Y36687D3*
Y37187D3*
Y37687D3*
X20037D3*
Y37187D3*
Y36687D3*
Y36187D3*
Y35687D3*
Y35187D3*
Y34687D3*
Y34187D3*
Y33687D3*
Y33187D3*
D17*
X25457Y32423D3*
X24001D3*
Y31557D3*
X25457D3*
D18*
X23037Y32387D3*
Y31718D3*
X26412Y31637D3*
Y32306D3*
D19*
X21537Y32387D3*
X22206D3*
X21537Y38387D3*
X22206D3*
D20*
X18200Y35949D3*
Y35693D3*
Y35437D3*
Y35181D3*
Y34925D3*
D21*
Y36421D3*
Y34453D3*
D22*
X17137Y36913D3*
Y33961D3*
D23*
Y36628D3*
Y34246D3*
D24*
Y35831D3*
Y35043D3*
D19*
X22206Y39137D3*
X21537D3*
D25*
X25162Y37437D3*
Y36437D3*
Y35437D3*
Y34437D3*
Y33437D3*
D27*
X24037Y39137D3*
Y38389D3*
X24943Y38763D3*
X30800Y35949D2*
D13*
X32137D1*
D14*
X33137D1*
D13*
X34137D1*
X34700D1*
X35012Y35637D1*
Y33387D1*
X35262Y33137D1*
X36288D1*
X36338Y33187D1*
X34137Y39137D2*
Y38387D1*
Y37437D1*
Y35949D1*
X37762Y37437D2*
X36887D1*
D14*
X35762D1*
D13*
X34137D1*
X36338Y35187D2*
D14*
X37012D1*
X37762Y34437D1*
X30850Y35387D2*
X30800Y35437D1*
X31337D1*
X31512Y35262D1*
Y34262D1*
X32087Y33687D1*
X32637D1*
X30800Y35693D2*
X31456D1*
X31762Y35387D1*
Y34512D1*
X32087Y34187D1*
X32637D1*
X36637Y38389D2*
D13*
X36264D1*
X31262Y34887D2*
X30838D1*
X30800Y34925D1*
X32637Y33187D2*
X32262D1*
X34806Y32387D2*
Y32012D1*
X35012D1*
X34806Y38387D2*
X35512Y38389D1*
X35637Y32387D2*
Y32762D1*
X39012Y31637D2*
Y31012D1*
X32637Y36687D2*
X32062D1*
X32012Y36637D1*
X36338Y37187D2*
D14*
X36962D1*
X37137Y37012D1*
X35637Y31718D2*
X36440D1*
X36601Y31557D1*
X36338Y33687D2*
X36837D1*
X36887Y33637D1*
Y33012D1*
X37262Y32637D1*
Y31637D1*
X37182Y31557D1*
X36601D1*
X39012Y32306D2*
X38174D1*
X38057Y32423D1*
X37851D1*
X37137Y33137D1*
Y33887D1*
X36887Y34137D1*
X36388D1*
X36338Y34187D1*
X32637Y34687D2*
X33962D1*
X34262Y34387D1*
Y32512D1*
X34137Y32387D1*
X36338Y34687D2*
X35837D1*
X35762Y34762D1*
Y36887D1*
Y38012D2*
Y38887D1*
X35512Y39137D1*
X34806D1*
X37762Y36437D2*
D13*
X38312D1*
X38387Y36512D1*
Y38637D1*
X38262Y38762D1*
X37544D1*
X37543Y38763D1*
X36637Y39137D2*
D14*
X36137D1*
X36012Y39012D1*
Y37762D1*
X36137Y37637D1*
X36288D1*
X36338Y37687D1*
X30800Y36421D2*
X29944D1*
X29737Y36628D1*
X30800Y34453D2*
X29944D1*
X29737Y34246D1*
Y36628D2*
Y35831D1*
Y35043D1*
Y34246D1*
Y33961D2*
Y34246D1*
Y36913D2*
Y36628D1*
X32637Y37687D2*
Y39012D1*
X33137Y39512D1*
X38637D1*
X38887Y39262D1*
Y35762D1*
X38637Y35512D1*
X37837D1*
X37762Y35437D1*
D29*
X36264Y38389D3*
X31262Y34887D3*
X32262Y33187D3*
X35012Y32012D3*
X32262Y33187D3*
X35512Y38389D3*
X35637Y32762D3*
X39012Y31012D3*
X35012Y32012D3*
X32012Y36637D3*
X37137Y37012D3*
X35762Y36887D3*
Y38012D3*
D16*
X36338Y33187D3*
Y33687D3*
Y34187D3*
Y34687D3*
Y35187D3*
Y35687D3*
Y36187D3*
Y36687D3*
Y37187D3*
Y37687D3*
X32637D3*
Y37187D3*
Y36687D3*
Y36187D3*
Y35687D3*
Y35187D3*
Y34687D3*
Y34187D3*
Y33687D3*
Y33187D3*
D17*
X38057Y32423D3*
X36601D3*
Y31557D3*
X38057D3*
D18*
X35637Y32387D3*
Y31718D3*
X39012Y31637D3*
Y32306D3*
D19*
X34137Y32387D3*
X34806D3*
X34137Y38387D3*
X34806D3*
D20*
X30800Y35949D3*
Y35693D3*
Y35437D3*
Y35181D3*
Y34925D3*
D21*
Y36421D3*
Y34453D3*
D22*
X29737Y36913D3*
Y33961D3*
D23*
Y36628D3*
Y34246D3*
D24*
Y35831D3*
Y35043D3*
D19*
X34806Y39137D3*
X34137D3*
D25*
X37762Y37437D3*
Y36437D3*
Y35437D3*
Y34437D3*
Y33437D3*
D27*
X36637Y39137D3*
Y38389D3*
X37543Y38763D3*
X43400Y35949D2*
D13*
X44737D1*
D14*
X45737D1*
D13*
X46737D1*
X47300D1*
X47612Y35637D1*
Y33387D1*
X47862Y33137D1*
X48888D1*
X48938Y33187D1*
X46737Y39137D2*
Y38387D1*
Y37437D1*
Y35949D1*
X50362Y37437D2*
X49487D1*
D14*
X48362D1*
D13*
X46737D1*
X48938Y35187D2*
D14*
X49612D1*
X50362Y34437D1*
X43450Y35387D2*
X43400Y35437D1*
X43937D1*
X44112Y35262D1*
Y34262D1*
X44687Y33687D1*
X45237D1*
X43400Y35693D2*
X44056D1*
X44362Y35387D1*
Y34512D1*
X44687Y34187D1*
X45237D1*
X49237Y38389D2*
D13*
X48864D1*
X43862Y34887D2*
X43438D1*
X43400Y34925D1*
X45237Y33187D2*
X44862D1*
X47406Y32387D2*
Y32012D1*
X47612D1*
X47406Y38387D2*
X48112Y38389D1*
X48237Y32387D2*
Y32762D1*
X51612Y31637D2*
Y31012D1*
X45237Y36687D2*
X44662D1*
X44612Y36637D1*
X48938Y37187D2*
D14*
X49562D1*
X49737Y37012D1*
X48237Y31718D2*
X49040D1*
X49201Y31557D1*
X48938Y33687D2*
X49437D1*
X49487Y33637D1*
Y33012D1*
X49862Y32637D1*
Y31637D1*
X49782Y31557D1*
X49201D1*
X51612Y32306D2*
X50774D1*
X50657Y32423D1*
X50451D1*
X49737Y33137D1*
Y33887D1*
X49487Y34137D1*
X48988D1*
X48938Y34187D1*
X45237Y34687D2*
X46562D1*
X46862Y34387D1*
Y32512D1*
X46737Y32387D1*
X48938Y34687D2*
X48437D1*
X48362Y34762D1*
Y36887D1*
Y38012D2*
Y38887D1*
X48112Y39137D1*
X47406D1*
X50362Y36437D2*
D13*
X50912D1*
X50987Y36512D1*
Y38637D1*
X50862Y38762D1*
X50144D1*
X50143Y38763D1*
X49237Y39137D2*
D14*
X48737D1*
X48612Y39012D1*
Y37762D1*
X48737Y37637D1*
X48888D1*
X48938Y37687D1*
X43400Y36421D2*
X42544D1*
X42337Y36628D1*
X43400Y34453D2*
X42544D1*
X42337Y34246D1*
Y36628D2*
Y35831D1*
Y35043D1*
Y34246D1*
Y33961D2*
Y34246D1*
Y36913D2*
Y36628D1*
X45237Y37687D2*
Y39012D1*
X45737Y39512D1*
X51237D1*
X51487Y39262D1*
Y35762D1*
X51237Y35512D1*
X50437D1*
X50362Y35437D1*
D29*
X48864Y38389D3*
X43862Y34887D3*
X44862Y33187D3*
X47612Y32012D3*
X44862Y33187D3*
X48112Y38389D3*
X48237Y32762D3*
X51612Y31012D3*
X47612Y32012D3*
X44612Y36637D3*
X49737Y37012D3*
X48362Y36887D3*
Y38012D3*
D16*
X48938Y33187D3*
Y33687D3*
Y34187D3*
Y34687D3*
Y35187D3*
Y35687D3*
Y36187D3*
Y36687D3*
Y37187D3*
Y37687D3*
X45237D3*
Y37187D3*
Y36687D3*
Y36187D3*
Y35687D3*
Y35187D3*
Y34687D3*
Y34187D3*
Y33687D3*
Y33187D3*
D17*
X50657Y32423D3*
X49201D3*
Y31557D3*
X50657D3*
D18*
X48237Y32387D3*
Y31718D3*
X51612Y31637D3*
Y32306D3*
D19*
X46737Y32387D3*
X47406D3*
X46737Y38387D3*
X47406D3*
D20*
X43400Y35949D3*
Y35693D3*
Y35437D3*
Y35181D3*
Y34925D3*
D21*
Y36421D3*
Y34453D3*
D22*
X42337Y36913D3*
Y33961D3*
D23*
Y36628D3*
Y34246D3*
D24*
Y35831D3*
Y35043D3*
D19*
X47406Y39137D3*
X46737D3*
D25*
X50362Y37437D3*
Y36437D3*
Y35437D3*
Y34437D3*
Y33437D3*
D27*
X49237Y39137D3*
Y38389D3*
X50143Y38763D3*
X5600Y48549D2*
D13*
X6937D1*
D14*
X7937D1*
D13*
X8937D1*
X9500D1*
X9812Y48237D1*
Y45987D1*
X10062Y45737D1*
X11088D1*
X11138Y45787D1*
X8937Y51737D2*
Y50987D1*
Y50037D1*
Y48549D1*
X12562Y50037D2*
X11687D1*
D14*
X10562D1*
D13*
X8937D1*
X11138Y47787D2*
D14*
X11812D1*
X12562Y47037D1*
X5650Y47987D2*
X5600Y48037D1*
X6137D1*
X6312Y47862D1*
Y46862D1*
X6887Y46287D1*
X7437D1*
X5600Y48293D2*
X6256D1*
X6562Y47987D1*
Y47112D1*
X6887Y46787D1*
X7437D1*
X11437Y50989D2*
D13*
X11064D1*
X6062Y47487D2*
X5638D1*
X5600Y47525D1*
X7437Y45787D2*
X7062D1*
X9606Y44987D2*
Y44612D1*
X9812D1*
X9606Y50987D2*
X10312Y50989D1*
X10437Y44987D2*
Y45362D1*
X13812Y44237D2*
Y43612D1*
X7437Y49287D2*
X6862D1*
X6812Y49237D1*
X11138Y49787D2*
D14*
X11762D1*
X11937Y49612D1*
X10437Y44318D2*
X11240D1*
X11401Y44157D1*
X11138Y46287D2*
X11637D1*
X11687Y46237D1*
Y45612D1*
X12062Y45237D1*
Y44237D1*
X11982Y44157D1*
X11401D1*
X13812Y44906D2*
X12974D1*
X12857Y45023D1*
X12651D1*
X11937Y45737D1*
Y46487D1*
X11687Y46737D1*
X11188D1*
X11138Y46787D1*
X7437Y47287D2*
X8762D1*
X9062Y46987D1*
Y45112D1*
X8937Y44987D1*
X11138Y47287D2*
X10637D1*
X10562Y47362D1*
Y49487D1*
Y50612D2*
Y51487D1*
X10312Y51737D1*
X9606D1*
X12562Y49037D2*
D13*
X13112D1*
X13187Y49112D1*
Y51237D1*
X13062Y51362D1*
X12344D1*
X12343Y51363D1*
X11437Y51737D2*
D14*
X10937D1*
X10812Y51612D1*
Y50362D1*
X10937Y50237D1*
X11088D1*
X11138Y50287D1*
X5600Y49021D2*
X4744D1*
X4537Y49228D1*
X5600Y47053D2*
X4744D1*
X4537Y46846D1*
Y49228D2*
Y48431D1*
Y47643D1*
Y46846D1*
Y46561D2*
Y46846D1*
Y49513D2*
Y49228D1*
X7437Y50287D2*
Y51612D1*
X7937Y52112D1*
X13437D1*
X13687Y51862D1*
Y48362D1*
X13437Y48112D1*
X12637D1*
X12562Y48037D1*
D29*
X11064Y50989D3*
X6062Y47487D3*
X7062Y45787D3*
X9812Y44612D3*
X7062Y45787D3*
X10312Y50989D3*
X10437Y45362D3*
X13812Y43612D3*
X9812Y44612D3*
X6812Y49237D3*
X11937Y49612D3*
X10562Y49487D3*
Y50612D3*
D16*
X11138Y45787D3*
Y46287D3*
Y46787D3*
Y47287D3*
Y47787D3*
Y48287D3*
Y48787D3*
Y49287D3*
Y49787D3*
Y50287D3*
X7437D3*
Y49787D3*
Y49287D3*
Y48787D3*
Y48287D3*
Y47787D3*
Y47287D3*
Y46787D3*
Y46287D3*
Y45787D3*
D17*
X12857Y45023D3*
X11401D3*
Y44157D3*
X12857D3*
D18*
X10437Y44987D3*
Y44318D3*
X13812Y44237D3*
Y44906D3*
D19*
X8937Y44987D3*
X9606D3*
X8937Y50987D3*
X9606D3*
D20*
X5600Y48549D3*
Y48293D3*
Y48037D3*
Y47781D3*
Y47525D3*
D21*
Y49021D3*
Y47053D3*
D22*
X4537Y49513D3*
Y46561D3*
D23*
Y49228D3*
Y46846D3*
D24*
Y48431D3*
Y47643D3*
D19*
X9606Y51737D3*
X8937D3*
D25*
X12562Y50037D3*
Y49037D3*
Y48037D3*
Y47037D3*
Y46037D3*
D27*
X11437Y51737D3*
Y50989D3*
X12343Y51363D3*
X18200Y48549D2*
D13*
X19537D1*
D14*
X20537D1*
D13*
X21537D1*
X22100D1*
X22412Y48237D1*
Y45987D1*
X22662Y45737D1*
X23688D1*
X23738Y45787D1*
X21537Y51737D2*
Y50987D1*
Y50037D1*
Y48549D1*
X25162Y50037D2*
X24287D1*
D14*
X23162D1*
D13*
X21537D1*
X23738Y47787D2*
D14*
X24412D1*
X25162Y47037D1*
X18250Y47987D2*
X18200Y48037D1*
X18737D1*
X18912Y47862D1*
Y46862D1*
X19487Y46287D1*
X20037D1*
X18200Y48293D2*
X18856D1*
X19162Y47987D1*
Y47112D1*
X19487Y46787D1*
X20037D1*
X24037Y50989D2*
D13*
X23664D1*
X18662Y47487D2*
X18238D1*
X18200Y47525D1*
X20037Y45787D2*
X19662D1*
X22206Y44987D2*
Y44612D1*
X22412D1*
X22206Y50987D2*
X22912Y50989D1*
X23037Y44987D2*
Y45362D1*
X26412Y44237D2*
Y43612D1*
X20037Y49287D2*
X19462D1*
X19412Y49237D1*
X23738Y49787D2*
D14*
X24362D1*
X24537Y49612D1*
X23037Y44318D2*
X23840D1*
X24001Y44157D1*
X23738Y46287D2*
X24237D1*
X24287Y46237D1*
Y45612D1*
X24662Y45237D1*
Y44237D1*
X24582Y44157D1*
X24001D1*
X26412Y44906D2*
X25574D1*
X25457Y45023D1*
X25251D1*
X24537Y45737D1*
Y46487D1*
X24287Y46737D1*
X23788D1*
X23738Y46787D1*
X20037Y47287D2*
X21362D1*
X21662Y46987D1*
Y45112D1*
X21537Y44987D1*
X23738Y47287D2*
X23237D1*
X23162Y47362D1*
Y49487D1*
Y50612D2*
Y51487D1*
X22912Y51737D1*
X22206D1*
X25162Y49037D2*
D13*
X25712D1*
X25787Y49112D1*
Y51237D1*
X25662Y51362D1*
X24944D1*
X24943Y51363D1*
X24037Y51737D2*
D14*
X23537D1*
X23412Y51612D1*
Y50362D1*
X23537Y50237D1*
X23688D1*
X23738Y50287D1*
X18200Y49021D2*
X17344D1*
X17137Y49228D1*
X18200Y47053D2*
X17344D1*
X17137Y46846D1*
Y49228D2*
Y48431D1*
Y47643D1*
Y46846D1*
Y46561D2*
Y46846D1*
Y49513D2*
Y49228D1*
X20037Y50287D2*
Y51612D1*
X20537Y52112D1*
X26037D1*
X26287Y51862D1*
Y48362D1*
X26037Y48112D1*
X25237D1*
X25162Y48037D1*
D29*
X23664Y50989D3*
X18662Y47487D3*
X19662Y45787D3*
X22412Y44612D3*
X19662Y45787D3*
X22912Y50989D3*
X23037Y45362D3*
X26412Y43612D3*
X22412Y44612D3*
X19412Y49237D3*
X24537Y49612D3*
X23162Y49487D3*
Y50612D3*
D16*
X23738Y45787D3*
Y46287D3*
Y46787D3*
Y47287D3*
Y47787D3*
Y48287D3*
Y48787D3*
Y49287D3*
Y49787D3*
Y50287D3*
X20037D3*
Y49787D3*
Y49287D3*
Y48787D3*
Y48287D3*
Y47787D3*
Y47287D3*
Y46787D3*
Y46287D3*
Y45787D3*
D17*
X25457Y45023D3*
X24001D3*
Y44157D3*
X25457D3*
D18*
X23037Y44987D3*
Y44318D3*
X26412Y44237D3*
Y44906D3*
D19*
X21537Y44987D3*
X22206D3*
X21537Y50987D3*
X22206D3*
D20*
X18200Y48549D3*
Y48293D3*
Y48037D3*
Y47781D3*
Y47525D3*
D21*
Y49021D3*
Y47053D3*
D22*
X17137Y49513D3*
Y46561D3*
D23*
Y49228D3*
Y46846D3*
D24*
Y48431D3*
Y47643D3*
D19*
X22206Y51737D3*
X21537D3*
D25*
X25162Y50037D3*
Y49037D3*
Y48037D3*
Y47037D3*
Y46037D3*
D27*
X24037Y51737D3*
Y50989D3*
X24943Y51363D3*
X30800Y48549D2*
D13*
X32137D1*
D14*
X33137D1*
D13*
X34137D1*
X34700D1*
X35012Y48237D1*
Y45987D1*
X35262Y45737D1*
X36288D1*
X36338Y45787D1*
X34137Y51737D2*
Y50987D1*
Y50037D1*
Y48549D1*
X37762Y50037D2*
X36887D1*
D14*
X35762D1*
D13*
X34137D1*
X36338Y47787D2*
D14*
X37012D1*
X37762Y47037D1*
X30850Y47987D2*
X30800Y48037D1*
X31337D1*
X31512Y47862D1*
Y46862D1*
X32087Y46287D1*
X32637D1*
X30800Y48293D2*
X31456D1*
X31762Y47987D1*
Y47112D1*
X32087Y46787D1*
X32637D1*
X36637Y50989D2*
D13*
X36264D1*
X31262Y47487D2*
X30838D1*
X30800Y47525D1*
X32637Y45787D2*
X32262D1*
X34806Y44987D2*
Y44612D1*
X35012D1*
X34806Y50987D2*
X35512Y50989D1*
X35637Y44987D2*
Y45362D1*
X39012Y44237D2*
Y43612D1*
X32637Y49287D2*
X32062D1*
X32012Y49237D1*
X36338Y49787D2*
D14*
X36962D1*
X37137Y49612D1*
X35637Y44318D2*
X36440D1*
X36601Y44157D1*
X36338Y46287D2*
X36837D1*
X36887Y46237D1*
Y45612D1*
X37262Y45237D1*
Y44237D1*
X37182Y44157D1*
X36601D1*
X39012Y44906D2*
X38174D1*
X38057Y45023D1*
X37851D1*
X37137Y45737D1*
Y46487D1*
X36887Y46737D1*
X36388D1*
X36338Y46787D1*
X32637Y47287D2*
X33962D1*
X34262Y46987D1*
Y45112D1*
X34137Y44987D1*
X36338Y47287D2*
X35837D1*
X35762Y47362D1*
Y49487D1*
Y50612D2*
Y51487D1*
X35512Y51737D1*
X34806D1*
X37762Y49037D2*
D13*
X38312D1*
X38387Y49112D1*
Y51237D1*
X38262Y51362D1*
X37544D1*
X37543Y51363D1*
X36637Y51737D2*
D14*
X36137D1*
X36012Y51612D1*
Y50362D1*
X36137Y50237D1*
X36288D1*
X36338Y50287D1*
X30800Y49021D2*
X29944D1*
X29737Y49228D1*
X30800Y47053D2*
X29944D1*
X29737Y46846D1*
Y49228D2*
Y48431D1*
Y47643D1*
Y46846D1*
Y46561D2*
Y46846D1*
Y49513D2*
Y49228D1*
X32637Y50287D2*
Y51612D1*
X33137Y52112D1*
X38637D1*
X38887Y51862D1*
Y48362D1*
X38637Y48112D1*
X37837D1*
X37762Y48037D1*
D29*
X36264Y50989D3*
X31262Y47487D3*
X32262Y45787D3*
X35012Y44612D3*
X32262Y45787D3*
X35512Y50989D3*
X35637Y45362D3*
X39012Y43612D3*
X35012Y44612D3*
X32012Y49237D3*
X37137Y49612D3*
X35762Y49487D3*
Y50612D3*
D16*
X36338Y45787D3*
Y46287D3*
Y46787D3*
Y47287D3*
Y47787D3*
Y48287D3*
Y48787D3*
Y49287D3*
Y49787D3*
Y50287D3*
X32637D3*
Y49787D3*
Y49287D3*
Y48787D3*
Y48287D3*
Y47787D3*
Y47287D3*
Y46787D3*
Y46287D3*
Y45787D3*
D17*
X38057Y45023D3*
X36601D3*
Y44157D3*
X38057D3*
D18*
X35637Y44987D3*
Y44318D3*
X39012Y44237D3*
Y44906D3*
D19*
X34137Y44987D3*
X34806D3*
X34137Y50987D3*
X34806D3*
D20*
X30800Y48549D3*
Y48293D3*
Y48037D3*
Y47781D3*
Y47525D3*
D21*
Y49021D3*
Y47053D3*
D22*
X29737Y49513D3*
Y46561D3*
D23*
Y49228D3*
Y46846D3*
D24*
Y48431D3*
Y47643D3*
D19*
X34806Y51737D3*
X34137D3*
D25*
X37762Y50037D3*
Y49037D3*
Y48037D3*
Y47037D3*
Y46037D3*
D27*
X36637Y51737D3*
Y50989D3*
X37543Y51363D3*
X43400Y48549D2*
D13*
X44737D1*
D14*
X45737D1*
D13*
X46737D1*
X47300D1*
X47612Y48237D1*
Y45987D1*
X47862Y45737D1*
X48888D1*
X48938Y45787D1*
X46737Y51737D2*
Y50987D1*
Y50037D1*
Y48549D1*
X50362Y50037D2*
X49487D1*
D14*
X48362D1*
D13*
X46737D1*
X48938Y47787D2*
D14*
X49612D1*
X50362Y47037D1*
X43450Y47987D2*
X43400Y48037D1*
X43937D1*
X44112Y47862D1*
Y46862D1*
X44687Y46287D1*
X45237D1*
X43400Y48293D2*
X44056D1*
X44362Y47987D1*
Y47112D1*
X44687Y46787D1*
X45237D1*
X49237Y50989D2*
D13*
X48864D1*
X43862Y47487D2*
X43438D1*
X43400Y47525D1*
X45237Y45787D2*
X44862D1*
X47406Y44987D2*
Y44612D1*
X47612D1*
X47406Y50987D2*
X48112Y50989D1*
X48237Y44987D2*
Y45362D1*
X51612Y44237D2*
Y43612D1*
X45237Y49287D2*
X44662D1*
X44612Y49237D1*
X48938Y49787D2*
D14*
X49562D1*
X49737Y49612D1*
X48237Y44318D2*
X49040D1*
X49201Y44157D1*
X48938Y46287D2*
X49437D1*
X49487Y46237D1*
Y45612D1*
X49862Y45237D1*
Y44237D1*
X49782Y44157D1*
X49201D1*
X51612Y44906D2*
X50774D1*
X50657Y45023D1*
X50451D1*
X49737Y45737D1*
Y46487D1*
X49487Y46737D1*
X48988D1*
X48938Y46787D1*
X45237Y47287D2*
X46562D1*
X46862Y46987D1*
Y45112D1*
X46737Y44987D1*
X48938Y47287D2*
X48437D1*
X48362Y47362D1*
Y49487D1*
Y50612D2*
Y51487D1*
X48112Y51737D1*
X47406D1*
X50362Y49037D2*
D13*
X50912D1*
X50987Y49112D1*
Y51237D1*
X50862Y51362D1*
X50144D1*
X50143Y51363D1*
X49237Y51737D2*
D14*
X48737D1*
X48612Y51612D1*
Y50362D1*
X48737Y50237D1*
X48888D1*
X48938Y50287D1*
X43400Y49021D2*
X42544D1*
X42337Y49228D1*
X43400Y47053D2*
X42544D1*
X42337Y46846D1*
Y49228D2*
Y48431D1*
Y47643D1*
Y46846D1*
Y46561D2*
Y46846D1*
Y49513D2*
Y49228D1*
X45237Y50287D2*
Y51612D1*
X45737Y52112D1*
X51237D1*
X51487Y51862D1*
Y48362D1*
X51237Y48112D1*
X50437D1*
X50362Y48037D1*
D29*
X48864Y50989D3*
X43862Y47487D3*
X44862Y45787D3*
X47612Y44612D3*
X44862Y45787D3*
X48112Y50989D3*
X48237Y45362D3*
X51612Y43612D3*
X47612Y44612D3*
X44612Y49237D3*
X49737Y49612D3*
X48362Y49487D3*
Y50612D3*
D16*
X48938Y45787D3*
Y46287D3*
Y46787D3*
Y47287D3*
Y47787D3*
Y48287D3*
Y48787D3*
Y49287D3*
Y49787D3*
Y50287D3*
X45237D3*
Y49787D3*
Y49287D3*
Y48787D3*
Y48287D3*
Y47787D3*
Y47287D3*
Y46787D3*
Y46287D3*
Y45787D3*
D17*
X50657Y45023D3*
X49201D3*
Y44157D3*
X50657D3*
D18*
X48237Y44987D3*
Y44318D3*
X51612Y44237D3*
Y44906D3*
D19*
X46737Y44987D3*
X47406D3*
X46737Y50987D3*
X47406D3*
D20*
X43400Y48549D3*
Y48293D3*
Y48037D3*
Y47781D3*
Y47525D3*
D21*
Y49021D3*
Y47053D3*
D22*
X42337Y49513D3*
Y46561D3*
D23*
Y49228D3*
Y46846D3*
D24*
Y48431D3*
Y47643D3*
D19*
X47406Y51737D3*
X46737D3*
D25*
X50362Y50037D3*
Y49037D3*
Y48037D3*
Y47037D3*
Y46037D3*
D27*
X49237Y51737D3*
Y50989D3*
X50143Y51363D3*
M02*
