G04 DipTrace 2.3.1.0*
%INinterface_BoardOutline.gbr*%
%MOIN*%
%ADD11C,0.0055*%
%FSLAX44Y44*%
G04*
G70*
G90*
G75*
G01*
%LNBoardOutline*%
%LPD*%
X3937Y3937D2*
D11*
X16537D1*
Y16537D1*
X3937D1*
Y3937D1*
X16537D2*
X29137D1*
Y16537D1*
X16537D1*
Y3937D1*
X29137D2*
X41737D1*
Y16537D1*
X29137D1*
Y3937D1*
X41737D2*
X54337D1*
Y16537D1*
X41737D1*
Y3937D1*
X3937Y16537D2*
X16537D1*
Y29137D1*
X3937D1*
Y16537D1*
X16537D2*
X29137D1*
Y29137D1*
X16537D1*
Y16537D1*
X29137D2*
X41737D1*
Y29137D1*
X29137D1*
Y16537D1*
X41737D2*
X54337D1*
Y29137D1*
X41737D1*
Y16537D1*
X3937Y29137D2*
X16537D1*
Y41737D1*
X3937D1*
Y29137D1*
X16537D2*
X29137D1*
Y41737D1*
X16537D1*
Y29137D1*
X29137D2*
X41737D1*
Y41737D1*
X29137D1*
Y29137D1*
X41737D2*
X54337D1*
Y41737D1*
X41737D1*
Y29137D1*
X3937Y41737D2*
X16537D1*
Y54337D1*
X3937D1*
Y41737D1*
X16537D2*
X29137D1*
Y54337D1*
X16537D1*
Y41737D1*
X29137D2*
X41737D1*
Y54337D1*
X29137D1*
Y41737D1*
X41737D2*
X54337D1*
Y54337D1*
X41737D1*
Y41737D1*
X3937Y58337D2*
X54337D1*
Y-63D1*
X3937D1*
Y58337D1*
M02*
