G04 DipTrace 2.3.1.0*
%INminishiftmaster_TopMask.gts*%
%MOIN*%
%ADD36C,0.126*%
%ADD37C,0.04*%
%ADD44C,0.0389*%
%ADD46C,0.0472*%
%ADD50R,0.0787X0.0787*%
%ADD56C,0.0787*%
%ADD58R,0.0689X0.0669*%
%ADD60R,0.0689X0.065*%
%ADD62O,0.0689X0.0472*%
%ADD64O,0.0453X0.0571*%
%ADD66R,0.061X0.0236*%
%FSLAX44Y44*%
G04*
G70*
G90*
G75*
G01*
%LNTopMask*%
%LPD*%
D66*
X5549Y10748D3*
Y10492D3*
Y10236D3*
Y9980D3*
Y9724D3*
D64*
Y11220D3*
Y9252D3*
D62*
X4486Y11713D3*
Y8760D3*
D60*
Y11427D3*
Y9045D3*
D58*
Y10630D3*
Y9843D3*
D56*
X12486Y12236D3*
Y11236D3*
Y10236D3*
Y9236D3*
Y8236D3*
D36*
X5236Y15236D3*
X15236D3*
Y5236D3*
X5236D3*
D50*
X13736Y5512D3*
D56*
X12736D3*
X11736D3*
X10736D3*
X9736D3*
X8736D3*
X7736D3*
X6736D3*
Y14961D3*
X7736D3*
X8736D3*
X9736D3*
X10736D3*
X11736D3*
X12736D3*
X13736D3*
D46*
X12486Y13236D3*
X5486Y8236D3*
Y12236D3*
D44*
X15111Y13486D3*
X14611D3*
X14111D3*
Y13986D3*
X14611D3*
X15111D3*
D37*
X15611Y13736D3*
X13611Y13336D3*
Y14136D3*
G36*
X9296Y9431D2*
X9416Y9752D1*
X10136D1*
X10256Y9431D1*
X10176Y9271D1*
X9336D1*
D1*
X9296Y9431D1*
G37*
M02*
