G04 DipTrace 2.3.1.0*
%INminishift_TopSilk.gto*%
%MOIN*%
%ADD10C,0.0098*%
%ADD12C,0.003*%
%ADD29C,0.004*%
%ADD53C,0.0087*%
%ADD54C,0.0066*%
%FSLAX44Y44*%
G04*
G70*
G90*
G75*
G01*
%LNTopSilk*%
%LPD*%
X5486Y7736D2*
D10*
X3951D1*
Y12736D1*
X5486D1*
Y7736D1*
X16463Y12736D2*
X12486D1*
Y7736D1*
X16463D1*
Y12736D1*
X8874Y14546D2*
D29*
X8841Y14543D1*
X8809Y14533D1*
X8779Y14517D1*
X8752Y14496D1*
X8731Y14469D1*
X8715Y14439D1*
X8705Y14407D1*
X8701Y14373D1*
X8704Y14343D1*
X8712Y14314D1*
X8725Y14287D1*
X8700Y14263D1*
X8677Y14239D1*
X8653Y14214D1*
X8628Y14190D1*
X8605Y14165D1*
X8580Y14141D1*
X8556Y14117D1*
X8533Y14092D1*
X8508Y14068D1*
X8484Y14043D1*
X8460Y14019D1*
X8436Y13995D1*
X8412Y13971D1*
X8388Y13947D1*
X8364Y13922D1*
X8340Y13898D1*
X8316Y13873D1*
X8292Y13849D1*
X8268Y13825D1*
X8243Y13800D1*
X8220Y13776D1*
X8196Y13751D1*
X8171Y13727D1*
X8148Y13703D1*
X8123Y13678D1*
X8099Y13654D1*
X8076Y13629D1*
X8051Y13605D1*
Y13570D1*
Y13537D1*
Y13502D1*
Y13467D1*
Y13433D1*
Y13398D1*
Y13364D1*
Y13330D1*
Y13295D1*
Y13260D1*
Y13226D1*
Y13191D1*
Y13157D1*
Y13123D1*
Y13088D1*
Y13053D1*
Y13019D1*
Y12985D1*
Y12950D1*
Y12916D1*
Y12881D1*
Y12846D1*
Y12812D1*
Y12778D1*
Y12743D1*
Y12709D1*
Y12674D1*
Y12639D1*
Y12605D1*
Y12571D1*
Y12536D1*
Y12502D1*
Y12467D1*
Y12432D1*
X8073Y12406D1*
X8096Y12380D1*
X8118Y12354D1*
X8141Y12328D1*
X8163Y12302D1*
X8185Y12277D1*
X8207Y12250D1*
X8229Y12224D1*
X8252Y12198D1*
X8274Y12172D1*
X8296Y12146D1*
X8319Y12120D1*
X8341Y12093D1*
X8363Y12067D1*
X8385Y12041D1*
X8407Y12015D1*
X8430Y11989D1*
X8452Y11963D1*
X8475Y11937D1*
X8497Y11911D1*
X8519Y11885D1*
X8541Y11859D1*
X8563Y11833D1*
X8586Y11807D1*
X8608Y11781D1*
X8631Y11755D1*
X8653Y11728D1*
X8675Y11702D1*
X8697Y11676D1*
X8719Y11650D1*
X8742Y11624D1*
X8764Y11598D1*
X8786Y11571D1*
X8809Y11545D1*
X8791Y11519D1*
X8774Y11492D1*
X8757Y11465D1*
X8729Y11486D1*
X8700Y11508D1*
X8672Y11528D1*
X8644Y11549D1*
X8616Y11571D1*
X8588Y11592D1*
X8560Y11612D1*
X8532Y11634D1*
X8504Y11655D1*
X8475Y11676D1*
X8447Y11697D1*
X8420Y11718D1*
X8392Y11739D1*
X8363Y11760D1*
X8335Y11781D1*
X8307Y11802D1*
X8279Y11823D1*
X8250Y11844D1*
X8223Y11866D1*
X8195Y11886D1*
X8167Y11907D1*
X8138Y11929D1*
X8110Y11950D1*
X8082Y11971D1*
X8055Y11992D1*
X8026Y12013D1*
X7998Y12034D1*
X7970Y12055D1*
X7942Y12076D1*
X7913Y12097D1*
X7885Y12118D1*
X7858Y12140D1*
X7830Y12160D1*
X7801Y12181D1*
X7792Y12215D1*
X7782Y12248D1*
X7772Y12281D1*
X7763Y12314D1*
X7753Y12348D1*
X7744Y12381D1*
X7735Y12414D1*
X7725Y12448D1*
X7716Y12481D1*
X7706Y12514D1*
X7696Y12548D1*
X7687Y12581D1*
X7677Y12614D1*
X7668Y12648D1*
X7659Y12681D1*
X7648Y12714D1*
X7639Y12748D1*
X7630Y12781D1*
X7620Y12814D1*
X7611Y12848D1*
X7601Y12881D1*
X7591Y12914D1*
X7582Y12948D1*
X7572Y12981D1*
X7563Y13014D1*
X7554Y13048D1*
X7544Y13081D1*
X7534Y13114D1*
X7525Y13148D1*
X7515Y13181D1*
X7506Y13214D1*
X7496Y13248D1*
X7487Y13281D1*
X7477Y13314D1*
X7467Y13348D1*
X7458Y13381D1*
X7449Y13414D1*
X7439Y13448D1*
X7430Y13481D1*
X7420Y13514D1*
X7410Y13548D1*
X7401Y13581D1*
X7391Y13614D1*
X7408Y13644D1*
X7423Y13675D1*
X7440Y13706D1*
X7456Y13736D1*
X7472Y13767D1*
X7489Y13798D1*
X7504Y13828D1*
X7521Y13859D1*
X7536Y13890D1*
X7553Y13921D1*
X7568Y13951D1*
X7585Y13982D1*
X7601Y14013D1*
X7617Y14043D1*
X7634Y14074D1*
X7649Y14105D1*
X7666Y14135D1*
X7692Y14128D1*
X7718Y14126D1*
X7752Y14130D1*
X7785Y14139D1*
X7815Y14156D1*
X7841Y14177D1*
X7862Y14203D1*
X7877Y14233D1*
X7888Y14266D1*
X7891Y14299D1*
X7888Y14333D1*
X7877Y14365D1*
X7862Y14395D1*
X7841Y14422D1*
X7815Y14443D1*
X7785Y14459D1*
X7752Y14469D1*
X7718Y14472D1*
X7685Y14469D1*
X7652Y14459D1*
X7623Y14443D1*
X7596Y14422D1*
X7575Y14395D1*
X7559Y14365D1*
X7549Y14333D1*
X7546Y14299D1*
X7548Y14268D1*
X7558Y14237D1*
X7572Y14209D1*
X7590Y14183D1*
X7570Y14157D1*
X7550Y14129D1*
X7529Y14102D1*
X7508Y14074D1*
X7487Y14046D1*
X7467Y14020D1*
X7446Y13992D1*
X7425Y13965D1*
X7405Y13937D1*
X7384Y13910D1*
X7363Y13883D1*
X7342Y13855D1*
X7322Y13828D1*
X7301Y13800D1*
X7280Y13773D1*
X7260Y13746D1*
X7238Y13718D1*
X7218Y13691D1*
X7198Y13663D1*
X7205Y13630D1*
X7213Y13596D1*
X7220Y13562D1*
X7228Y13529D1*
X7235Y13495D1*
X7242Y13461D1*
X7250Y13428D1*
X7258Y13394D1*
X7265Y13360D1*
X7273Y13326D1*
X7281Y13293D1*
X7288Y13259D1*
X7296Y13225D1*
X7303Y13192D1*
X7311Y13158D1*
X7318Y13124D1*
X7325Y13090D1*
X7333Y13056D1*
X7341Y13023D1*
X7348Y12990D1*
X7356Y12956D1*
X7363Y12922D1*
X7371Y12888D1*
X7379Y12854D1*
X7386Y12820D1*
X7394Y12787D1*
X7402Y12753D1*
X7409Y12720D1*
X7416Y12686D1*
X7423Y12652D1*
X7431Y12618D1*
X7439Y12585D1*
X7446Y12551D1*
X7454Y12517D1*
X7462Y12483D1*
X7469Y12450D1*
X7477Y12416D1*
X7485Y12383D1*
X7492Y12349D1*
X7500Y12315D1*
X7507Y12281D1*
X7514Y12247D1*
X7522Y12214D1*
X7529Y12181D1*
X7537Y12147D1*
X7545Y12113D1*
X7552Y12079D1*
X7579Y12056D1*
X7605Y12034D1*
X7632Y12011D1*
X7659Y11988D1*
X7685Y11966D1*
X7711Y11944D1*
X7738Y11921D1*
X7764Y11898D1*
X7791Y11876D1*
X7817Y11853D1*
X7844Y11830D1*
X7870Y11807D1*
X7897Y11785D1*
X7924Y11763D1*
X7949Y11740D1*
X7976Y11717D1*
X8003Y11695D1*
X8029Y11672D1*
X8056Y11649D1*
X8082Y11627D1*
X8109Y11604D1*
X8135Y11582D1*
X8162Y11559D1*
X8189Y11537D1*
X8214Y11514D1*
X8241Y11491D1*
X8268Y11469D1*
X8294Y11446D1*
X8321Y11423D1*
X8348Y11401D1*
X8374Y11379D1*
X8400Y11356D1*
X8427Y11333D1*
X8453Y11310D1*
X8480Y11288D1*
X8506Y11265D1*
X8533Y11242D1*
X8559Y11220D1*
X8586Y11198D1*
X8578Y11187D1*
X8544Y11190D1*
X8510Y11194D1*
X8475Y11197D1*
X8442Y11201D1*
X8407Y11205D1*
X8374Y11208D1*
X8339Y11212D1*
X8305Y11215D1*
X8271Y11219D1*
X8237Y11222D1*
X8203Y11226D1*
X8169Y11229D1*
X8134Y11233D1*
X8101Y11236D1*
X8066Y11240D1*
X8033Y11243D1*
X7998Y11247D1*
X7964Y11251D1*
X7930Y11254D1*
X7896Y11258D1*
X7862Y11261D1*
X7828Y11265D1*
X7793Y11268D1*
X7759Y11272D1*
X7725Y11275D1*
X7703Y11249D1*
X7680Y11223D1*
X7657Y11196D1*
X7634Y11170D1*
X7612Y11143D1*
X7589Y11116D1*
X7566Y11091D1*
X7543Y11064D1*
X7521Y11037D1*
X7498Y11010D1*
X7475Y10984D1*
X7452Y10958D1*
X7430Y10931D1*
X7407Y10905D1*
X7384Y10878D1*
X7362Y10851D1*
X7339Y10825D1*
X7316Y10799D1*
X7293Y10772D1*
X7271Y10746D1*
X7248Y10719D1*
X7225Y10692D1*
X7202Y10666D1*
X7180Y10640D1*
X7157Y10613D1*
X7134Y10587D1*
X7112Y10560D1*
X7089Y10533D1*
X7066Y10507D1*
X7043Y10481D1*
X7021Y10454D1*
X6997Y10427D1*
X6974Y10401D1*
X6952Y10374D1*
X6929Y10348D1*
X6906Y10322D1*
X6908Y10289D1*
X6910Y10256D1*
X6919Y10223D1*
X6928Y10190D1*
X6937Y10158D1*
X6946Y10125D1*
X6955Y10092D1*
X6964Y10059D1*
X6973Y10026D1*
X6982Y9993D1*
X6991Y9960D1*
X7000Y9927D1*
X7009Y9894D1*
X7018Y9861D1*
X7027Y9828D1*
X7036Y9795D1*
X7045Y9762D1*
X7054Y9729D1*
X7063Y9696D1*
X7072Y9663D1*
X7081Y9630D1*
X7090Y9597D1*
X7099Y9565D1*
X7108Y9531D1*
X7117Y9498D1*
X7086Y9483D1*
X7060Y9461D1*
X7037Y9435D1*
X7021Y9405D1*
X7010Y9372D1*
X7006Y9337D1*
X7010Y9303D1*
X7020Y9271D1*
X7036Y9241D1*
X7057Y9215D1*
X7084Y9194D1*
X7114Y9177D1*
X7146Y9168D1*
X7180Y9165D1*
X7213Y9168D1*
X7246Y9177D1*
X7276Y9194D1*
X7302Y9215D1*
X7324Y9241D1*
X7340Y9271D1*
X7350Y9304D1*
X7353Y9337D1*
X7350Y9370D1*
X7340Y9402D1*
X7325Y9431D1*
X7305Y9456D1*
X7280Y9477D1*
X7252Y9494D1*
X7221Y9505D1*
X7188Y9509D1*
X7184Y9543D1*
X7180Y9576D1*
X7177Y9610D1*
X7173Y9643D1*
X7169Y9677D1*
X7165Y9711D1*
X7161Y9744D1*
X7156Y9778D1*
X7152Y9812D1*
X7148Y9845D1*
X7144Y9879D1*
X7141Y9912D1*
X7137Y9945D1*
X7133Y9979D1*
X7129Y10012D1*
X7125Y10046D1*
X7120Y10080D1*
X7116Y10113D1*
X7112Y10147D1*
X7108Y10181D1*
X7104Y10214D1*
X7101Y10248D1*
X7123Y10274D1*
X7147Y10299D1*
X7170Y10325D1*
X7193Y10351D1*
X7216Y10377D1*
X7239Y10403D1*
X7262Y10428D1*
X7286Y10454D1*
X7308Y10480D1*
X7332Y10506D1*
X7355Y10531D1*
X7378Y10557D1*
X7401Y10583D1*
X7424Y10609D1*
X7447Y10634D1*
X7470Y10660D1*
X7493Y10686D1*
X7516Y10712D1*
X7539Y10738D1*
X7562Y10763D1*
X7586Y10789D1*
X7608Y10815D1*
X7632Y10841D1*
X7655Y10866D1*
X7678Y10892D1*
X7701Y10918D1*
X7724Y10944D1*
X7747Y10969D1*
X7771Y10995D1*
X7793Y11021D1*
X7828Y11015D1*
X7862Y11009D1*
X7896Y11002D1*
X7931Y10996D1*
X7965Y10990D1*
X7999Y10984D1*
X8033Y10978D1*
X8068Y10972D1*
X8102Y10965D1*
X8136Y10959D1*
X8171Y10953D1*
X8205Y10946D1*
X8239Y10940D1*
X8273Y10934D1*
X8308Y10928D1*
X8342Y10922D1*
X8376Y10916D1*
X8410Y10909D1*
X8445Y10903D1*
X8439Y10873D1*
X8432Y10842D1*
X8405Y10821D1*
X8377Y10800D1*
X8349Y10780D1*
X8321Y10759D1*
X8293Y10738D1*
X8265Y10717D1*
X8237Y10697D1*
X8209Y10677D1*
X8181Y10656D1*
X8153Y10635D1*
X8126Y10614D1*
X8098Y10594D1*
X8069Y10573D1*
X8042Y10552D1*
X8014Y10532D1*
X7986Y10511D1*
X7958Y10491D1*
X7930Y10470D1*
X7902Y10449D1*
X7874Y10429D1*
X7847Y10408D1*
X7819Y10388D1*
X7790Y10366D1*
X7763Y10346D1*
X7735Y10326D1*
X7707Y10305D1*
X7679Y10284D1*
X7651Y10263D1*
X7623Y10243D1*
X7595Y10222D1*
X7599Y10187D1*
X7603Y10152D1*
X7607Y10118D1*
X7611Y10082D1*
X7615Y10048D1*
X7618Y10013D1*
X7622Y9978D1*
X7626Y9943D1*
X7630Y9908D1*
X7634Y9873D1*
X7637Y9838D1*
X7641Y9804D1*
X7645Y9768D1*
X7649Y9734D1*
X7653Y9699D1*
X7657Y9664D1*
X7660Y9629D1*
X7664Y9594D1*
X7668Y9559D1*
X7672Y9524D1*
X7676Y9490D1*
X7680Y9454D1*
X7684Y9420D1*
X7688Y9385D1*
X7692Y9350D1*
X7695Y9315D1*
X7699Y9280D1*
X7703Y9246D1*
X7706Y9210D1*
X7710Y9176D1*
X7714Y9141D1*
X7718Y9106D1*
X7722Y9071D1*
X7726Y9036D1*
X7730Y9001D1*
X7734Y8966D1*
X7737Y8932D1*
X7741Y8896D1*
X7745Y8862D1*
X7749Y8827D1*
X7753Y8792D1*
X7777Y8766D1*
X7801Y8741D1*
X7826Y8716D1*
X7849Y8691D1*
X7873Y8665D1*
X7898Y8640D1*
X7922Y8615D1*
X7946Y8589D1*
X7971Y8563D1*
X7995Y8538D1*
X8019Y8513D1*
X8043Y8488D1*
X8067Y8463D1*
X8091Y8437D1*
X8116Y8412D1*
X8140Y8386D1*
X8164Y8361D1*
X8188Y8336D1*
X8212Y8310D1*
X8236Y8285D1*
X8222Y8257D1*
X8213Y8227D1*
X8210Y8194D1*
X8214Y8161D1*
X8223Y8128D1*
X8239Y8098D1*
X8261Y8072D1*
X8287Y8051D1*
X8317Y8035D1*
X8349Y8025D1*
X8383Y8022D1*
X8417Y8025D1*
X8450Y8035D1*
X8479Y8051D1*
X8505Y8072D1*
X8527Y8098D1*
X8543Y8128D1*
X8553Y8161D1*
X8556Y8194D1*
X8553Y8228D1*
X8543Y8260D1*
X8527Y8290D1*
X8505Y8316D1*
X8479Y8338D1*
X8449Y8353D1*
X8417Y8364D1*
X8383Y8367D1*
X8354Y8364D1*
X8326Y8356D1*
X8299Y8345D1*
X8280Y8372D1*
X8261Y8400D1*
X8242Y8428D1*
X8223Y8456D1*
X8203Y8483D1*
X8185Y8512D1*
X8165Y8539D1*
X8146Y8567D1*
X8127Y8595D1*
X8108Y8622D1*
X8089Y8650D1*
X8069Y8678D1*
X8051Y8706D1*
X8032Y8733D1*
X8012Y8761D1*
X7993Y8789D1*
X7974Y8817D1*
X7955Y8844D1*
X7935Y8873D1*
X7934Y8907D1*
X7932Y8941D1*
X7930Y8976D1*
X7928Y9010D1*
X7926Y9044D1*
X7924Y9079D1*
X7922Y9114D1*
X7920Y9147D1*
X7919Y9182D1*
X7917Y9217D1*
X7915Y9250D1*
X7913Y9285D1*
X7911Y9320D1*
X7909Y9354D1*
X7907Y9388D1*
X7906Y9423D1*
X7903Y9457D1*
X7902Y9491D1*
X7899Y9526D1*
X7898Y9561D1*
X7896Y9595D1*
X7894Y9629D1*
X7892Y9664D1*
X7890Y9698D1*
X7888Y9732D1*
X7886Y9767D1*
X7884Y9801D1*
X7883Y9836D1*
X7880Y9870D1*
X7879Y9904D1*
X7877Y9939D1*
X7875Y9973D1*
X7873Y10008D1*
X7871Y10042D1*
X7870Y10077D1*
X7867Y10111D1*
X7899Y10120D1*
X7931Y10129D1*
X7964Y10137D1*
X7996Y10146D1*
X8028Y10155D1*
X8059Y10164D1*
X8091Y10173D1*
X8123Y10182D1*
X8156Y10190D1*
X8188Y10199D1*
X8220Y10208D1*
X8252Y10217D1*
X8284Y10226D1*
X8316Y10234D1*
X8331Y10204D1*
X8347Y10172D1*
X8363Y10141D1*
X8378Y10111D1*
X8393Y10079D1*
X8409Y10049D1*
X8424Y10017D1*
X8440Y9986D1*
X8456Y9955D1*
X8471Y9924D1*
X8486Y9893D1*
X8502Y9862D1*
X8518Y9831D1*
X8533Y9800D1*
X8549Y9769D1*
X8564Y9738D1*
X8580Y9707D1*
X8595Y9676D1*
X8611Y9645D1*
X8627Y9614D1*
X8642Y9583D1*
X8657Y9552D1*
X8673Y9521D1*
X8689Y9490D1*
X8704Y9459D1*
X8719Y9428D1*
X8735Y9397D1*
X8751Y9366D1*
X8766Y9335D1*
X8782Y9304D1*
X8797Y9273D1*
X8813Y9242D1*
X8828Y9210D1*
X8860Y9197D1*
X8891Y9183D1*
X8922Y9169D1*
X8954Y9155D1*
X8985Y9142D1*
X9016Y9128D1*
X9047Y9114D1*
X9078Y9100D1*
X9110Y9086D1*
X9141Y9073D1*
X9172Y9058D1*
X9204Y9044D1*
X9235Y9031D1*
X9266Y9017D1*
X9298Y9003D1*
X9329Y8989D1*
X9360Y8976D1*
X9391Y8962D1*
X9422Y8976D1*
X9454Y8989D1*
X9485Y9003D1*
X9516Y9017D1*
X9548Y9031D1*
X9578Y9044D1*
X9610Y9058D1*
X9641Y9073D1*
X9672Y9086D1*
X9704Y9100D1*
X9734Y9114D1*
X9766Y9128D1*
X9797Y9142D1*
X9828Y9155D1*
X9860Y9169D1*
X9891Y9183D1*
X9922Y9197D1*
X9953Y9210D1*
X9969Y9242D1*
X9984Y9273D1*
X10000Y9304D1*
X10016Y9335D1*
X10031Y9365D1*
X10046Y9397D1*
X10062Y9428D1*
X10078Y9459D1*
X10093Y9490D1*
X10108Y9521D1*
X10124Y9552D1*
X10140Y9583D1*
X10155Y9614D1*
X10171Y9645D1*
X10186Y9676D1*
X10202Y9707D1*
X10217Y9738D1*
X10233Y9769D1*
X10249Y9800D1*
X10263Y9831D1*
X10279Y9862D1*
X10295Y9893D1*
X10310Y9924D1*
X10326Y9955D1*
X10342Y9986D1*
X10357Y10017D1*
X10372Y10049D1*
X10388Y10079D1*
X10404Y10110D1*
X10419Y10141D1*
X10434Y10172D1*
X10450Y10204D1*
X10466Y10234D1*
X10349Y10843D2*
X10343Y10873D1*
X10337Y10903D1*
X10371Y10909D1*
X10405Y10916D1*
X10440Y10922D1*
X10474Y10928D1*
X10508Y10934D1*
X10543Y10940D1*
X10577Y10946D1*
X10612Y10953D1*
X10646Y10959D1*
X10680Y10965D1*
X10714Y10972D1*
X10749Y10978D1*
X10783Y10984D1*
X10818Y10990D1*
X10852Y10996D1*
X10886Y11002D1*
X10920Y11009D1*
X10955Y11015D1*
X10989Y11021D1*
X11012Y10995D1*
X11036Y10969D1*
X11058Y10944D1*
X11082Y10918D1*
X11105Y10892D1*
X11128Y10866D1*
X11151Y10840D1*
X11174Y10815D1*
X11197Y10789D1*
X11220Y10763D1*
X11243Y10737D1*
X11266Y10712D1*
X11290Y10686D1*
X11312Y10660D1*
X11336Y10634D1*
X11359Y10609D1*
X11382Y10583D1*
X11405Y10557D1*
X11428Y10531D1*
X11451Y10506D1*
X11475Y10480D1*
X11497Y10454D1*
X11521Y10428D1*
X11544Y10403D1*
X11567Y10377D1*
X11590Y10351D1*
X11613Y10325D1*
X11636Y10299D1*
X11659Y10274D1*
X11682Y10248D1*
X11678Y10214D1*
X11674Y10181D1*
X11671Y10147D1*
X11666Y10113D1*
X11662Y10080D1*
X11658Y10046D1*
X11654Y10012D1*
X11650Y9979D1*
X11646Y9945D1*
X11642Y9912D1*
X11638Y9879D1*
X11634Y9845D1*
X11630Y9812D1*
X11626Y9778D1*
X11622Y9744D1*
X11618Y9711D1*
X11614Y9677D1*
X11610Y9643D1*
X11606Y9610D1*
X11602Y9576D1*
X11598Y9543D1*
X11594Y9509D1*
X11562Y9505D1*
X11531Y9494D1*
X11502Y9478D1*
X11478Y9456D1*
X11457Y9431D1*
X11442Y9402D1*
X11433Y9370D1*
X11430Y9337D1*
X11433Y9304D1*
X11443Y9271D1*
X11459Y9241D1*
X11481Y9215D1*
X11507Y9194D1*
X11536Y9177D1*
X11569Y9168D1*
X11603Y9165D1*
X11637Y9168D1*
X11669Y9177D1*
X11699Y9194D1*
X11725Y9215D1*
X11746Y9242D1*
X11762Y9272D1*
X11772Y9304D1*
X11775Y9337D1*
X11772Y9372D1*
X11761Y9405D1*
X11745Y9435D1*
X11723Y9461D1*
X11696Y9483D1*
X11666Y9498D1*
X11674Y9531D1*
X11684Y9565D1*
X11692Y9597D1*
X11702Y9630D1*
X11710Y9663D1*
X11720Y9696D1*
X11729Y9729D1*
X11738Y9762D1*
X11747Y9795D1*
X11756Y9828D1*
X11765Y9860D1*
X11774Y9893D1*
X11783Y9927D1*
X11792Y9960D1*
X11801Y9993D1*
X11810Y10026D1*
X11819Y10059D1*
X11828Y10092D1*
X11837Y10125D1*
X11846Y10158D1*
X11855Y10190D1*
X11864Y10223D1*
X11873Y10256D1*
X11874Y10289D1*
X11876Y10322D1*
X11853Y10348D1*
X11830Y10374D1*
X11808Y10401D1*
X11785Y10428D1*
X11762Y10454D1*
X11740Y10481D1*
X11717Y10507D1*
X11694Y10533D1*
X11671Y10560D1*
X11649Y10587D1*
X11626Y10613D1*
X11603Y10640D1*
X11580Y10666D1*
X11558Y10692D1*
X11535Y10719D1*
X11512Y10746D1*
X11489Y10772D1*
X11467Y10799D1*
X11444Y10825D1*
X11421Y10851D1*
X11399Y10878D1*
X11376Y10905D1*
X11353Y10931D1*
X11330Y10958D1*
X11308Y10984D1*
X11285Y11010D1*
X11262Y11037D1*
X11239Y11064D1*
X11217Y11091D1*
X11194Y11116D1*
X11171Y11143D1*
X11148Y11170D1*
X11126Y11196D1*
X11103Y11223D1*
X11080Y11249D1*
X11058Y11275D1*
X11023Y11272D1*
X10989Y11268D1*
X10955Y11265D1*
X10921Y11261D1*
X10887Y11258D1*
X10852Y11254D1*
X10818Y11251D1*
X10784Y11247D1*
X10750Y11243D1*
X10716Y11240D1*
X10681Y11236D1*
X10648Y11233D1*
X10613Y11229D1*
X10579Y11226D1*
X10545Y11222D1*
X10511Y11219D1*
X10477Y11215D1*
X10442Y11212D1*
X10408Y11208D1*
X10374Y11205D1*
X10340Y11201D1*
X10306Y11198D1*
X10272Y11194D1*
X10238Y11190D1*
X10203Y11187D1*
X10197Y11198D1*
X10223Y11220D1*
X10250Y11242D1*
X10276Y11265D1*
X10303Y11288D1*
X10329Y11311D1*
X10356Y11333D1*
X10383Y11356D1*
X10408Y11379D1*
X10435Y11401D1*
X10462Y11423D1*
X10488Y11446D1*
X10515Y11469D1*
X10541Y11491D1*
X10568Y11514D1*
X10594Y11537D1*
X10621Y11559D1*
X10648Y11582D1*
X10673Y11604D1*
X10700Y11627D1*
X10727Y11649D1*
X10753Y11672D1*
X10780Y11695D1*
X10807Y11717D1*
X10833Y11740D1*
X10859Y11763D1*
X10886Y11785D1*
X10913Y11807D1*
X10939Y11830D1*
X10965Y11853D1*
X10992Y11876D1*
X11018Y11898D1*
X11045Y11921D1*
X11072Y11944D1*
X11098Y11966D1*
X11124Y11988D1*
X11151Y12011D1*
X11177Y12034D1*
X11204Y12056D1*
X11231Y12079D1*
X11238Y12113D1*
X11246Y12147D1*
X11253Y12181D1*
X11261Y12214D1*
X11268Y12247D1*
X11275Y12281D1*
X11283Y12315D1*
X11291Y12349D1*
X11298Y12383D1*
X11306Y12416D1*
X11314Y12450D1*
X11321Y12483D1*
X11329Y12517D1*
X11336Y12551D1*
X11344Y12585D1*
X11351Y12619D1*
X11359Y12652D1*
X11366Y12686D1*
X11374Y12720D1*
X11381Y12753D1*
X11389Y12787D1*
X11396Y12821D1*
X11404Y12854D1*
X11412Y12888D1*
X11419Y12922D1*
X11427Y12956D1*
X11435Y12990D1*
X11442Y13023D1*
X11449Y13056D1*
X11457Y13090D1*
X11464Y13124D1*
X11472Y13158D1*
X11479Y13192D1*
X11487Y13225D1*
X11495Y13259D1*
X11502Y13293D1*
X11510Y13326D1*
X11518Y13360D1*
X11525Y13394D1*
X11533Y13428D1*
X11540Y13461D1*
X11547Y13495D1*
X11555Y13529D1*
X11562Y13562D1*
X11570Y13596D1*
X11578Y13630D1*
X11585Y13663D1*
X11565Y13691D1*
X11544Y13718D1*
X11523Y13746D1*
X11503Y13773D1*
X11482Y13800D1*
X11461Y13828D1*
X11440Y13855D1*
X11420Y13883D1*
X11399Y13910D1*
X11378Y13937D1*
X11358Y13965D1*
X11337Y13992D1*
X11316Y14020D1*
X11295Y14046D1*
X11275Y14074D1*
X11254Y14102D1*
X11233Y14129D1*
X11213Y14157D1*
X11192Y14183D1*
X11211Y14209D1*
X11225Y14237D1*
X11234Y14268D1*
X11237Y14299D1*
X11234Y14333D1*
X11224Y14365D1*
X11208Y14395D1*
X11186Y14422D1*
X11160Y14443D1*
X11130Y14460D1*
X11098Y14469D1*
X11064Y14472D1*
X11030Y14469D1*
X10998Y14459D1*
X10968Y14443D1*
X10942Y14422D1*
X10921Y14395D1*
X10905Y14365D1*
X10895Y14333D1*
X10892Y14299D1*
X10895Y14266D1*
X10905Y14233D1*
X10921Y14203D1*
X10942Y14177D1*
X10968Y14156D1*
X10998Y14139D1*
X11030Y14130D1*
X11064Y14127D1*
X11090Y14129D1*
X11117Y14135D1*
X11133Y14105D1*
X11149Y14074D1*
X11166Y14043D1*
X11181Y14013D1*
X11198Y13982D1*
X11214Y13951D1*
X11230Y13921D1*
X11246Y13890D1*
X11262Y13859D1*
X11279Y13828D1*
X11294Y13798D1*
X11311Y13767D1*
X11326Y13736D1*
X11343Y13706D1*
X11359Y13675D1*
X11375Y13644D1*
X11391Y13614D1*
X11382Y13581D1*
X11373Y13548D1*
X11362Y13514D1*
X11353Y13481D1*
X11344Y13448D1*
X11334Y13415D1*
X11325Y13381D1*
X11315Y13348D1*
X11305Y13315D1*
X11296Y13281D1*
X11286Y13248D1*
X11277Y13215D1*
X11268Y13181D1*
X11258Y13148D1*
X11248Y13115D1*
X11239Y13081D1*
X11229Y13048D1*
X11220Y13015D1*
X11210Y12981D1*
X11201Y12948D1*
X11191Y12915D1*
X11181Y12881D1*
X11172Y12848D1*
X11163Y12815D1*
X11153Y12781D1*
X11144Y12748D1*
X11134Y12715D1*
X11124Y12681D1*
X11115Y12648D1*
X11105Y12615D1*
X11096Y12581D1*
X11087Y12548D1*
X11076Y12515D1*
X11067Y12481D1*
X11058Y12448D1*
X11048Y12415D1*
X11039Y12381D1*
X11029Y12348D1*
X11020Y12315D1*
X11010Y12281D1*
X11000Y12248D1*
X10991Y12215D1*
X10981Y12181D1*
X10953Y12161D1*
X10925Y12140D1*
X10897Y12118D1*
X10869Y12097D1*
X10840Y12076D1*
X10813Y12055D1*
X10785Y12034D1*
X10757Y12013D1*
X10728Y11992D1*
X10700Y11971D1*
X10672Y11950D1*
X10644Y11929D1*
X10615Y11907D1*
X10587Y11886D1*
X10560Y11866D1*
X10532Y11844D1*
X10503Y11823D1*
X10475Y11802D1*
X10447Y11781D1*
X10419Y11760D1*
X10390Y11739D1*
X10362Y11718D1*
X10335Y11697D1*
X10307Y11676D1*
X10278Y11655D1*
X10250Y11634D1*
X10222Y11613D1*
X10194Y11592D1*
X10165Y11571D1*
X10137Y11549D1*
X10109Y11528D1*
X10081Y11508D1*
X10053Y11486D1*
X10025Y11465D1*
X10008Y11492D1*
X9991Y11519D1*
X9974Y11545D1*
X9996Y11571D1*
X10019Y11598D1*
X10041Y11624D1*
X10064Y11650D1*
X10086Y11676D1*
X10107Y11702D1*
X10130Y11728D1*
X10152Y11755D1*
X10175Y11781D1*
X10197Y11807D1*
X10219Y11833D1*
X10242Y11859D1*
X10263Y11885D1*
X10286Y11911D1*
X10308Y11937D1*
X10331Y11963D1*
X10353Y11989D1*
X10375Y12015D1*
X10398Y12041D1*
X10419Y12067D1*
X10442Y12093D1*
X10464Y12120D1*
X10486Y12146D1*
X10509Y12172D1*
X10531Y12198D1*
X10553Y12224D1*
X10575Y12250D1*
X10597Y12277D1*
X10620Y12302D1*
X10642Y12328D1*
X10665Y12354D1*
X10687Y12380D1*
X10709Y12406D1*
X10731Y12432D1*
Y12467D1*
Y12502D1*
Y12536D1*
Y12571D1*
Y12605D1*
Y12639D1*
Y12674D1*
Y12709D1*
Y12743D1*
Y12778D1*
Y12812D1*
Y12846D1*
Y12881D1*
Y12916D1*
Y12950D1*
Y12985D1*
Y13019D1*
Y13053D1*
Y13088D1*
Y13123D1*
Y13157D1*
Y13191D1*
Y13226D1*
Y13260D1*
Y13295D1*
Y13330D1*
Y13364D1*
Y13398D1*
Y13433D1*
Y13467D1*
Y13502D1*
Y13537D1*
Y13570D1*
Y13605D1*
X10707Y13629D1*
X10683Y13654D1*
X10659Y13678D1*
X10635Y13703D1*
X10611Y13727D1*
X10587Y13751D1*
X10563Y13776D1*
X10539Y13800D1*
X10515Y13825D1*
X10491Y13849D1*
X10466Y13873D1*
X10443Y13898D1*
X10419Y13922D1*
X10394Y13947D1*
X10371Y13971D1*
X10347Y13995D1*
X10322Y14019D1*
X10299Y14043D1*
X10274Y14068D1*
X10250Y14092D1*
X10227Y14117D1*
X10202Y14141D1*
X10178Y14165D1*
X10155Y14190D1*
X10130Y14214D1*
X10106Y14239D1*
X10082Y14263D1*
X10058Y14287D1*
X10071Y14314D1*
X10078Y14343D1*
X10081Y14373D1*
X10078Y14407D1*
X10068Y14439D1*
X10052Y14469D1*
X10031Y14496D1*
X10004Y14517D1*
X9974Y14533D1*
X9942Y14543D1*
X9908Y14546D1*
X9875Y14543D1*
X9842Y14533D1*
X9812Y14517D1*
X9786Y14495D1*
X9765Y14469D1*
X9749Y14439D1*
X9740Y14407D1*
X9736Y14373D1*
X9740Y14339D1*
X9749Y14307D1*
X9765Y14277D1*
X9786Y14251D1*
X9813Y14229D1*
X9843Y14213D1*
X9875Y14204D1*
X9908Y14200D1*
X9935Y14202D1*
X9961Y14209D1*
X9985Y14219D1*
X10006Y14191D1*
X10025Y14163D1*
X10046Y14135D1*
X10066Y14107D1*
X10086Y14079D1*
X10106Y14051D1*
X10126Y14023D1*
X10146Y13995D1*
X10165Y13967D1*
X10186Y13939D1*
X10206Y13911D1*
X10226Y13884D1*
X10246Y13855D1*
X10266Y13828D1*
X10286Y13799D1*
X10307Y13772D1*
X10326Y13743D1*
X10347Y13716D1*
X10366Y13688D1*
X10387Y13660D1*
X10407Y13632D1*
X10427Y13603D1*
X10447Y13576D1*
X10466Y13548D1*
X10465Y13513D1*
X10463Y13477D1*
X10461Y13442D1*
X10459Y13407D1*
X10458Y13372D1*
X10456Y13337D1*
X10454Y13302D1*
X10452Y13267D1*
X10450Y13231D1*
X10448Y13197D1*
X10446Y13161D1*
X10445Y13126D1*
X10443Y13091D1*
X10441Y13056D1*
X10439Y13020D1*
X10437Y12986D1*
X10435Y12950D1*
X10434Y12915D1*
X10432Y12880D1*
X10430Y12845D1*
X10428Y12809D1*
X10427Y12775D1*
X10424Y12739D1*
X10423Y12704D1*
X10420Y12669D1*
X10419Y12634D1*
X10417Y12598D1*
X10415Y12564D1*
X10413Y12528D1*
X10412Y12493D1*
X10409Y12458D1*
X10386Y12432D1*
X10361Y12406D1*
X10338Y12381D1*
X10314Y12355D1*
X10290Y12330D1*
X10266Y12304D1*
X10242Y12278D1*
X10218Y12253D1*
X10194Y12227D1*
X10170Y12202D1*
X10147Y12176D1*
X10122Y12150D1*
X10099Y12125D1*
X10075Y12099D1*
X10051Y12073D1*
X10027Y12047D1*
X10003Y12022D1*
X9987Y12051D1*
X9970Y12081D1*
X9955Y12111D1*
X9938Y12141D1*
X9922Y12171D1*
X9906Y12201D1*
X9890Y12231D1*
X9874Y12262D1*
X9857Y12291D1*
X9841Y12321D1*
X9825Y12351D1*
X9809Y12381D1*
X9808Y12387D1*
X9774D1*
X9738D1*
X9704D1*
X9669D1*
X9635D1*
X9600D1*
X9566D1*
X9531D1*
X9496D1*
X9462D1*
X9427D1*
X9393D1*
X9358D1*
X9323D1*
X9288D1*
X9254D1*
X9219D1*
X9185D1*
X9150D1*
X9115D1*
X9081D1*
X9046D1*
X9012D1*
X8977D1*
X8961Y12357D1*
X8944Y12326D1*
X8928Y12296D1*
X8911Y12265D1*
X8895Y12235D1*
X8878Y12204D1*
X8862Y12173D1*
X8845Y12143D1*
X8829Y12112D1*
X8813Y12082D1*
X8796Y12051D1*
X8780Y12021D1*
X8756Y12047D1*
X8732Y12072D1*
X8708Y12098D1*
X8684Y12124D1*
X8660Y12149D1*
X8636Y12175D1*
X8613Y12201D1*
X8588Y12226D1*
X8565Y12252D1*
X8541Y12278D1*
X8517Y12303D1*
X8493Y12329D1*
X8469Y12355D1*
X8445Y12381D1*
X8421Y12406D1*
X8397Y12432D1*
X8373Y12458D1*
X8371Y12493D1*
X8370Y12528D1*
X8367Y12564D1*
X8366Y12598D1*
X8364Y12634D1*
X8362Y12669D1*
X8360Y12704D1*
X8359Y12739D1*
X8356Y12775D1*
X8355Y12809D1*
X8353Y12845D1*
X8351Y12880D1*
X8349Y12915D1*
X8347Y12950D1*
X8345Y12986D1*
X8344Y13020D1*
X8341Y13056D1*
X8340Y13091D1*
X8338Y13126D1*
X8336Y13161D1*
X8334Y13197D1*
X8333Y13231D1*
X8330Y13267D1*
X8329Y13302D1*
X8327Y13337D1*
X8325Y13372D1*
X8323Y13407D1*
X8321Y13442D1*
X8319Y13477D1*
X8318Y13513D1*
X8316Y13548D1*
X8336Y13576D1*
X8356Y13604D1*
X8376Y13632D1*
X8396Y13660D1*
X8416Y13688D1*
X8436Y13716D1*
X8457Y13743D1*
X8476Y13772D1*
X8497Y13799D1*
X8516Y13828D1*
X8537Y13855D1*
X8557Y13884D1*
X8577Y13911D1*
X8597Y13939D1*
X8617Y13967D1*
X8637Y13995D1*
X8657Y14024D1*
X8677Y14051D1*
X8697Y14080D1*
X8717Y14107D1*
X8737Y14135D1*
X8758Y14163D1*
X8777Y14191D1*
X8798Y14219D1*
X8822Y14209D1*
X8848Y14202D1*
X8874Y14200D1*
X8908Y14204D1*
X8940Y14213D1*
X8970Y14229D1*
X8997Y14251D1*
X9018Y14277D1*
X9034Y14307D1*
X9043Y14339D1*
X9046Y14373D1*
X9043Y14407D1*
X9034Y14439D1*
X9018Y14469D1*
X8997Y14496D1*
X8970Y14517D1*
X8940Y14533D1*
X8908Y14543D1*
X8874Y14546D1*
X10459Y10234D2*
X10492Y10226D1*
X10524Y10217D1*
X10557Y10208D1*
X10590Y10199D1*
X10622Y10190D1*
X10655Y10182D1*
X10688Y10173D1*
X10720Y10164D1*
X10753Y10155D1*
X10785Y10146D1*
X10818Y10137D1*
X10851Y10129D1*
X10883Y10120D1*
X10916Y10111D1*
X10913Y10077D1*
X10912Y10042D1*
X10909Y10008D1*
X10908Y9973D1*
X10905Y9939D1*
X10904Y9904D1*
X10902Y9870D1*
X10900Y9836D1*
X10898Y9801D1*
X10896Y9767D1*
X10894Y9732D1*
X10892Y9698D1*
X10891Y9664D1*
X10889Y9629D1*
X10887Y9595D1*
X10885Y9561D1*
X10883Y9526D1*
X10881Y9491D1*
X10880Y9457D1*
X10877Y9423D1*
X10876Y9388D1*
X10873Y9354D1*
X10872Y9320D1*
X10869Y9285D1*
X10868Y9251D1*
X10866Y9217D1*
X10864Y9182D1*
X10862Y9147D1*
X10860Y9114D1*
X10858Y9079D1*
X10856Y9044D1*
X10855Y9010D1*
X10853Y8976D1*
X10851Y8941D1*
X10849Y8907D1*
X10847Y8873D1*
X10828Y8844D1*
X10809Y8817D1*
X10789Y8789D1*
X10771Y8761D1*
X10751Y8733D1*
X10732Y8706D1*
X10713Y8678D1*
X10694Y8650D1*
X10675Y8622D1*
X10655Y8595D1*
X10637Y8567D1*
X10617Y8539D1*
X10598Y8512D1*
X10579Y8483D1*
X10560Y8456D1*
X10541Y8428D1*
X10521Y8401D1*
X10503Y8372D1*
X10483Y8345D1*
X10457Y8356D1*
X10429Y8364D1*
X10400Y8367D1*
X10366Y8364D1*
X10333Y8354D1*
X10303Y8338D1*
X10278Y8316D1*
X10256Y8290D1*
X10240Y8260D1*
X10230Y8228D1*
X10227Y8194D1*
X10230Y8161D1*
X10240Y8128D1*
X10256Y8098D1*
X10278Y8072D1*
X10303Y8051D1*
X10333Y8035D1*
X10366Y8025D1*
X10400Y8022D1*
X10434Y8025D1*
X10466Y8035D1*
X10495Y8051D1*
X10521Y8072D1*
X10543Y8099D1*
X10558Y8129D1*
X10568Y8161D1*
X10572Y8194D1*
X10568Y8227D1*
X10561Y8257D1*
X10546Y8285D1*
X10570Y8311D1*
X10594Y8336D1*
X10619Y8361D1*
X10643Y8386D1*
X10667Y8412D1*
X10691Y8438D1*
X10716Y8463D1*
X10740Y8488D1*
X10764Y8513D1*
X10788Y8538D1*
X10812Y8564D1*
X10836Y8589D1*
X10861Y8615D1*
X10885Y8640D1*
X10909Y8665D1*
X10933Y8691D1*
X10957Y8716D1*
X10981Y8741D1*
X11006Y8766D1*
X11030Y8792D1*
X11034Y8827D1*
X11038Y8862D1*
X11041Y8896D1*
X11045Y8932D1*
X11049Y8966D1*
X11053Y9001D1*
X11057Y9036D1*
X11061Y9071D1*
X11065Y9106D1*
X11069Y9141D1*
X11072Y9176D1*
X11076Y9210D1*
X11079Y9246D1*
X11083Y9280D1*
X11087Y9315D1*
X11091Y9350D1*
X11095Y9385D1*
X11099Y9420D1*
X11103Y9455D1*
X11107Y9490D1*
X11111Y9524D1*
X11115Y9560D1*
X11119Y9594D1*
X11122Y9629D1*
X11126Y9664D1*
X11130Y9699D1*
X11134Y9734D1*
X11137Y9769D1*
X11141Y9804D1*
X11145Y9838D1*
X11149Y9874D1*
X11153Y9908D1*
X11157Y9943D1*
X11160Y9978D1*
X11164Y10013D1*
X11168Y10048D1*
X11172Y10082D1*
X11176Y10118D1*
X11180Y10152D1*
X11184Y10187D1*
X11188Y10222D1*
X11159Y10243D1*
X11131Y10263D1*
X11104Y10285D1*
X11076Y10305D1*
X11047Y10326D1*
X11020Y10346D1*
X10992Y10367D1*
X10963Y10388D1*
X10936Y10408D1*
X10908Y10429D1*
X10880Y10450D1*
X10852Y10470D1*
X10824Y10491D1*
X10796Y10512D1*
X10768Y10533D1*
X10740Y10553D1*
X10713Y10573D1*
X10684Y10595D1*
X10656Y10615D1*
X10629Y10636D1*
X10601Y10657D1*
X10572Y10677D1*
X10545Y10698D1*
X10517Y10718D1*
X10488Y10740D1*
X10461Y10760D1*
X10433Y10780D1*
X10405Y10802D1*
X10377Y10822D1*
X10349Y10843D1*
X8874Y14472D2*
X8904Y14468D1*
X8932Y14453D1*
X8954Y14431D1*
X8969Y14404D1*
X8974Y14373D1*
X8969Y14342D1*
X8954Y14314D1*
X8932Y14292D1*
X8904Y14278D1*
X8874Y14273D1*
X8842Y14278D1*
X8815Y14292D1*
X8793Y14315D1*
X8779Y14342D1*
X8774Y14373D1*
X8779Y14404D1*
X8793Y14431D1*
X8815Y14453D1*
X8843Y14468D1*
X8874Y14472D1*
X9908D2*
X9939Y14468D1*
X9967Y14453D1*
X9989Y14431D1*
X10003Y14404D1*
X10009Y14373D1*
X10003Y14342D1*
X9989Y14314D1*
X9967Y14292D1*
X9939Y14278D1*
X9908Y14273D1*
X9877Y14278D1*
X9850Y14292D1*
X9828Y14315D1*
X9814Y14342D1*
X9809Y14373D1*
X9814Y14404D1*
X9828Y14431D1*
X9850Y14453D1*
X9878Y14468D1*
X9908Y14472D1*
X7718Y14398D2*
X7750Y14394D1*
X7777Y14379D1*
X7799Y14357D1*
X7813Y14330D1*
X7818Y14299D1*
X7813Y14268D1*
X7799Y14241D1*
X7777Y14219D1*
X7750Y14205D1*
X7718Y14200D1*
X7688Y14205D1*
X7660Y14219D1*
X7637Y14241D1*
X7623Y14268D1*
X7619Y14299D1*
X7623Y14330D1*
X7637Y14358D1*
X7660Y14379D1*
X7688Y14394D1*
X7718Y14398D1*
X11064D2*
X11095Y14394D1*
X11123Y14379D1*
X11145Y14358D1*
X11159Y14330D1*
X11164Y14299D1*
X11159Y14268D1*
X11145Y14241D1*
X11123Y14219D1*
X11095Y14205D1*
X11064Y14200D1*
X11033Y14205D1*
X11006Y14219D1*
X10984Y14241D1*
X10970Y14268D1*
X10965Y14299D1*
X10970Y14330D1*
X10984Y14357D1*
X11006Y14379D1*
X11033Y14394D1*
X11064Y14398D1*
X9174Y11310D2*
X9199D1*
X9224D1*
X9257D1*
X9291D1*
X9324D1*
X9358D1*
X9391D1*
X9425D1*
X9458D1*
X9492D1*
X9525D1*
X9559D1*
X9584D1*
X9608D1*
Y11281D1*
Y11253D1*
Y11224D1*
X9584D1*
X9559D1*
Y11192D1*
Y11161D1*
X9560Y11128D1*
Y11097D1*
Y11065D1*
Y11033D1*
Y11001D1*
Y10969D1*
Y10937D1*
X9573Y10905D1*
X9585Y10872D1*
X9598Y10839D1*
X9610Y10806D1*
X9624Y10773D1*
X9636Y10741D1*
X9649Y10708D1*
X9661Y10675D1*
X9675Y10643D1*
X9687Y10610D1*
X9700Y10577D1*
X9712Y10544D1*
X9725Y10511D1*
X9738Y10478D1*
X9751Y10446D1*
X9763Y10413D1*
X9776Y10381D1*
X9789Y10348D1*
X9802Y10315D1*
X9814Y10282D1*
X9827Y10249D1*
X9840Y10216D1*
X9853Y10184D1*
X9865Y10151D1*
X9878Y10118D1*
X9891Y10086D1*
X9904Y10052D1*
X9916Y10020D1*
X9929Y9987D1*
X9941Y9954D1*
X9955Y9921D1*
X9940Y9890D1*
X9926Y9858D1*
X9911Y9827D1*
X9897Y9795D1*
X9882Y9763D1*
X9868Y9731D1*
X9853Y9700D1*
X9819D1*
X9785D1*
X9751D1*
X9716D1*
X9682D1*
X9648D1*
X9614D1*
X9579D1*
X9545D1*
X9511D1*
X9476D1*
X9443D1*
X9408D1*
X9375D1*
X9340D1*
X9306D1*
X9272D1*
X9237D1*
X9203D1*
X9169D1*
X9135D1*
X9101D1*
X9066D1*
X9032D1*
X8998D1*
X8964D1*
X8929D1*
X8915Y9731D1*
X8900Y9763D1*
X8886Y9795D1*
X8872Y9827D1*
X8857Y9858D1*
X8843Y9890D1*
X8828Y9921D1*
X8841Y9954D1*
X8854Y9987D1*
X8867Y10019D1*
X8879Y10052D1*
X8892Y10086D1*
X8904Y10118D1*
X8918Y10151D1*
X8930Y10184D1*
X8943Y10216D1*
X8955Y10249D1*
X8969Y10281D1*
X8981Y10315D1*
X8994Y10348D1*
X9006Y10380D1*
X9019Y10413D1*
X9032Y10446D1*
X9045Y10478D1*
X9057Y10511D1*
X9070Y10544D1*
X9083Y10577D1*
X9095Y10610D1*
X9108Y10643D1*
X9121Y10675D1*
X9134Y10708D1*
X9146Y10740D1*
X9159Y10773D1*
X9172Y10806D1*
X9185Y10839D1*
X9197Y10872D1*
X9210Y10905D1*
X9222Y10937D1*
Y10969D1*
Y11001D1*
Y11033D1*
Y11065D1*
Y11097D1*
Y11128D1*
Y11161D1*
Y11192D1*
Y11224D1*
X9198D1*
X9174D1*
Y11253D1*
Y11281D1*
Y11310D1*
X7180Y9436D2*
X7210Y9432D1*
X7238Y9417D1*
X7260Y9396D1*
X7275Y9369D1*
X7280Y9337D1*
X7275Y9306D1*
X7260Y9279D1*
X7238Y9257D1*
X7210Y9243D1*
X7180Y9238D1*
X7149Y9243D1*
X7122Y9257D1*
X7100Y9279D1*
X7086Y9306D1*
X7081Y9337D1*
X7086Y9368D1*
X7100Y9396D1*
X7122Y9417D1*
X7149Y9432D1*
X7180Y9436D1*
X11603D2*
X11634Y9432D1*
X11661Y9417D1*
X11683Y9396D1*
X11697Y9368D1*
X11702Y9337D1*
X11697Y9306D1*
X11683Y9279D1*
X11661Y9257D1*
X11634Y9243D1*
X11603Y9238D1*
X11572Y9243D1*
X11544Y9257D1*
X11522Y9279D1*
X11507Y9306D1*
X11503Y9337D1*
X11507Y9369D1*
X11522Y9396D1*
X11544Y9418D1*
X11572Y9432D1*
X11603Y9436D1*
X8383Y8294D2*
X8414Y8289D1*
X8442Y8275D1*
X8464Y8253D1*
X8479Y8226D1*
X8483Y8194D1*
X8479Y8164D1*
X8464Y8136D1*
X8442Y8114D1*
X8414Y8099D1*
X8383Y8094D1*
X8352Y8099D1*
X8325Y8114D1*
X8303Y8136D1*
X8289Y8164D1*
X8284Y8194D1*
X8289Y8225D1*
X8303Y8253D1*
X8325Y8275D1*
X8352Y8289D1*
X8383Y8294D1*
X10400D2*
X10430Y8289D1*
X10458Y8275D1*
X10480Y8253D1*
X10494Y8225D1*
X10499Y8194D1*
X10494Y8164D1*
X10480Y8136D1*
X10458Y8114D1*
X10430Y8099D1*
X10400Y8094D1*
X10369Y8099D1*
X10341Y8114D1*
X10318Y8136D1*
X10304Y8164D1*
X10300Y8194D1*
X10304Y8226D1*
X10318Y8253D1*
X10341Y8275D1*
X10369Y8289D1*
X10400Y8294D1*
X6024Y7387D2*
X6049Y7385D1*
X6074Y7377D1*
X6096Y7366D1*
X6115Y7350D1*
X6131Y7330D1*
X6143Y7308D1*
X6150Y7284D1*
X6153Y7259D1*
Y7225D1*
Y7190D1*
Y7156D1*
Y7122D1*
Y7087D1*
Y7053D1*
Y7019D1*
Y6985D1*
Y6950D1*
Y6916D1*
Y6882D1*
Y6848D1*
Y6813D1*
Y6779D1*
Y6745D1*
Y6711D1*
Y6676D1*
X6126D1*
X6100D1*
X6073D1*
X6046D1*
Y6708D1*
Y6738D1*
Y6770D1*
Y6801D1*
Y6832D1*
Y6863D1*
Y6894D1*
Y6925D1*
X6013D1*
X5980D1*
X5947D1*
X5914D1*
X5880D1*
X5847D1*
X5814D1*
X5780D1*
X5748D1*
X5715D1*
X5681D1*
X5648D1*
X5615D1*
X5581D1*
X5548D1*
Y6894D1*
Y6863D1*
Y6832D1*
Y6801D1*
Y6770D1*
Y6738D1*
Y6708D1*
Y6676D1*
X5522D1*
X5495D1*
X5468D1*
X5442D1*
Y6711D1*
Y6745D1*
Y6779D1*
Y6813D1*
Y6848D1*
Y6882D1*
Y6916D1*
Y6950D1*
Y6985D1*
Y7019D1*
Y7053D1*
Y7087D1*
Y7122D1*
Y7156D1*
Y7190D1*
Y7225D1*
Y7259D1*
X5444Y7284D1*
X5452Y7308D1*
X5464Y7330D1*
X5479Y7350D1*
X5498Y7366D1*
X5520Y7377D1*
X5545Y7385D1*
X5570Y7387D1*
X5605D1*
X5640D1*
X5675D1*
X5710D1*
X5744D1*
X5780D1*
X5815D1*
X5849D1*
X5885D1*
X5919D1*
X5955D1*
X5990D1*
X6024D1*
X6046Y7032D2*
Y7064D1*
Y7096D1*
Y7129D1*
Y7161D1*
Y7194D1*
Y7226D1*
Y7259D1*
X6039Y7274D1*
X6024Y7281D1*
X5990D1*
X5955D1*
X5919D1*
X5885D1*
X5849D1*
X5815D1*
X5780D1*
X5745D1*
X5710D1*
X5675D1*
X5640D1*
X5605D1*
X5570D1*
X5555Y7274D1*
X5548Y7259D1*
Y7226D1*
Y7194D1*
Y7162D1*
Y7129D1*
Y7096D1*
Y7064D1*
Y7032D1*
X5581D1*
X5615D1*
X5648D1*
X5681D1*
X5715D1*
X5748D1*
X5780D1*
X5814D1*
X5847D1*
X5880D1*
X5914D1*
X5947D1*
X5980D1*
X6013D1*
X6046D1*
X6709Y7249D2*
Y7222D1*
Y7196D1*
Y7169D1*
Y7142D1*
X6677D1*
X6646D1*
X6614D1*
X6582D1*
X6549D1*
X6517D1*
X6486D1*
X6454D1*
X6422D1*
X6390D1*
X6374Y7135D1*
X6368Y7121D1*
Y7086D1*
Y7052D1*
Y7018D1*
Y6984D1*
Y6950D1*
Y6915D1*
Y6882D1*
Y6847D1*
Y6813D1*
Y6779D1*
Y6745D1*
Y6710D1*
Y6676D1*
X6341D1*
X6314D1*
X6288D1*
X6261D1*
Y6708D1*
Y6741D1*
Y6772D1*
Y6804D1*
Y6840D1*
Y6875D1*
Y6910D1*
Y6945D1*
Y6980D1*
Y7015D1*
Y7050D1*
Y7085D1*
Y7121D1*
X6263Y7146D1*
X6271Y7170D1*
X6283Y7192D1*
X6299Y7211D1*
X6317Y7227D1*
X6339Y7239D1*
X6364Y7247D1*
X6390Y7249D1*
X6422D1*
X6454D1*
X6485D1*
X6517D1*
X6549D1*
X6582D1*
X6614D1*
X6646D1*
X6677D1*
X6709D1*
X7227D2*
X7252Y7247D1*
X7276Y7239D1*
X7298Y7227D1*
X7318Y7211D1*
X7333Y7192D1*
X7345Y7170D1*
X7352Y7146D1*
X7355Y7121D1*
Y7086D1*
Y7052D1*
Y7018D1*
Y6984D1*
Y6949D1*
Y6915D1*
Y6882D1*
Y6847D1*
Y6813D1*
Y6779D1*
Y6745D1*
Y6710D1*
Y6676D1*
X7320D1*
X7285D1*
X7250D1*
X7215D1*
X7180D1*
X7145D1*
X7110D1*
X7075D1*
X7040D1*
X7006D1*
X6970D1*
X6936D1*
X6901D1*
X6875Y6679D1*
X6850Y6686D1*
X6829Y6698D1*
X6810Y6714D1*
X6794Y6733D1*
X6782Y6754D1*
X6774Y6779D1*
X6772Y6804D1*
Y6840D1*
Y6875D1*
Y6910D1*
Y6945D1*
Y6981D1*
Y7016D1*
X6807D1*
X6840D1*
X6874D1*
X6908D1*
X6942D1*
X6976D1*
X7010D1*
X7044D1*
X7079D1*
X7112D1*
X7146D1*
X7180D1*
X7214D1*
X7248D1*
Y7051D1*
Y7085D1*
Y7121D1*
X7242Y7135D1*
X7227Y7142D1*
X7191D1*
X7157D1*
X7122D1*
X7086D1*
X7052D1*
X7017D1*
X6982D1*
X6947D1*
X6912D1*
X6877D1*
X6842D1*
X6807D1*
X6772D1*
Y7169D1*
Y7196D1*
Y7222D1*
Y7249D1*
X6807D1*
X6842D1*
X6877D1*
X6912D1*
X6947D1*
X6982D1*
X7017D1*
X7052D1*
X7086D1*
X7122D1*
X7156D1*
X7191D1*
X7227D1*
X7248Y6909D2*
X7215D1*
X7181D1*
X7148D1*
X7114D1*
X7080D1*
X7046D1*
X7014D1*
X6980D1*
X6946D1*
X6912D1*
X6879D1*
Y6875D1*
Y6839D1*
Y6804D1*
X6885Y6789D1*
X6901Y6782D1*
X6935D1*
X6970D1*
X7005D1*
X7039D1*
X7075D1*
X7109D1*
X7144D1*
X7179D1*
X7213D1*
X7248D1*
Y6815D1*
Y6846D1*
Y6878D1*
Y6909D1*
X8023Y6782D2*
Y6756D1*
Y6730D1*
Y6703D1*
Y6676D1*
X7988D1*
X7953D1*
X7918D1*
X7884D1*
X7848D1*
X7813D1*
X7779D1*
X7743D1*
X7709D1*
X7674D1*
X7639D1*
X7604D1*
X7568D1*
X7543Y6679D1*
X7518Y6686D1*
X7497Y6698D1*
X7478Y6714D1*
X7462Y6733D1*
X7450Y6754D1*
X7443Y6779D1*
X7441Y6804D1*
Y6840D1*
Y6875D1*
Y6910D1*
Y6945D1*
Y6980D1*
Y7015D1*
Y7050D1*
Y7085D1*
Y7121D1*
X7443Y7146D1*
X7450Y7170D1*
X7462Y7192D1*
X7478Y7211D1*
X7497Y7227D1*
X7518Y7239D1*
X7543Y7247D1*
X7568Y7249D1*
X7604D1*
X7638D1*
X7673D1*
X7708D1*
X7743D1*
X7778D1*
X7812D1*
X7847D1*
X7882D1*
X7917D1*
X7951D1*
X7986D1*
X8021D1*
Y7222D1*
Y7196D1*
Y7169D1*
Y7142D1*
X7986D1*
X7951D1*
X7917D1*
X7882D1*
X7847D1*
X7812D1*
X7778D1*
X7743D1*
X7708D1*
X7674D1*
X7638D1*
X7604D1*
X7568D1*
X7553Y7135D1*
X7547Y7121D1*
Y7085D1*
Y7050D1*
Y7015D1*
Y6980D1*
Y6945D1*
Y6910D1*
Y6875D1*
Y6840D1*
Y6804D1*
X7553Y6789D1*
X7568Y6783D1*
X7604D1*
X7639D1*
X7674D1*
X7709D1*
X7743D1*
X7779D1*
X7813D1*
X7848D1*
X7883D1*
X7918D1*
X7953D1*
X7988D1*
X8023D1*
X8569Y7249D2*
X8594Y7247D1*
X8618Y7239D1*
X8640Y7227D1*
X8659Y7211D1*
X8675Y7192D1*
X8686Y7170D1*
X8694Y7146D1*
X8697Y7121D1*
Y7086D1*
Y7052D1*
Y7018D1*
Y6984D1*
Y6949D1*
Y6915D1*
Y6882D1*
Y6847D1*
Y6813D1*
Y6779D1*
Y6745D1*
Y6710D1*
Y6676D1*
X8671D1*
X8644D1*
X8617D1*
X8591D1*
Y6710D1*
Y6745D1*
Y6779D1*
Y6813D1*
Y6847D1*
Y6881D1*
Y6915D1*
Y6949D1*
Y6984D1*
Y7018D1*
Y7052D1*
Y7086D1*
Y7121D1*
X8584Y7135D1*
X8569Y7142D1*
X8536D1*
X8504D1*
X8471D1*
X8439D1*
X8406D1*
X8374D1*
X8341D1*
X8308D1*
X8276D1*
X8243D1*
X8227Y7135D1*
X8221Y7121D1*
Y7086D1*
Y7052D1*
Y7018D1*
Y6984D1*
Y6949D1*
Y6915D1*
Y6882D1*
Y6847D1*
Y6813D1*
Y6779D1*
Y6745D1*
Y6710D1*
Y6676D1*
X8195D1*
X8168D1*
X8141D1*
X8115D1*
Y6711D1*
Y6745D1*
Y6780D1*
Y6815D1*
Y6849D1*
Y6884D1*
Y6918D1*
Y6952D1*
Y6987D1*
Y7022D1*
Y7056D1*
Y7091D1*
Y7126D1*
Y7160D1*
Y7195D1*
Y7229D1*
Y7263D1*
Y7298D1*
Y7333D1*
Y7367D1*
Y7402D1*
Y7436D1*
X8141D1*
X8168D1*
X8195D1*
X8221D1*
Y7405D1*
Y7374D1*
Y7343D1*
Y7311D1*
Y7280D1*
Y7249D1*
X8256D1*
X8290D1*
X8325D1*
X8360D1*
X8395D1*
X8430D1*
X8464D1*
X8499D1*
X8534D1*
X8569D1*
X9226D2*
X9251Y7247D1*
X9276Y7239D1*
X9298Y7227D1*
X9317Y7211D1*
X9333Y7192D1*
X9345Y7170D1*
X9352Y7146D1*
X9355Y7121D1*
Y7086D1*
Y7052D1*
Y7018D1*
Y6984D1*
Y6949D1*
Y6915D1*
Y6882D1*
Y6847D1*
Y6813D1*
Y6779D1*
Y6745D1*
Y6710D1*
Y6676D1*
X9328D1*
X9302D1*
X9274D1*
X9248D1*
Y6710D1*
Y6745D1*
Y6779D1*
Y6813D1*
Y6847D1*
Y6881D1*
Y6915D1*
Y6949D1*
Y6984D1*
Y7018D1*
Y7052D1*
Y7086D1*
Y7121D1*
X9241Y7135D1*
X9226Y7142D1*
X9193D1*
X9161D1*
X9128D1*
X9096D1*
X9063D1*
X9030D1*
X8998D1*
X8965D1*
X8933D1*
X8900D1*
X8885Y7135D1*
X8878Y7121D1*
Y7086D1*
Y7052D1*
Y7018D1*
Y6984D1*
Y6949D1*
Y6915D1*
Y6882D1*
Y6847D1*
Y6813D1*
Y6779D1*
Y6745D1*
Y6710D1*
Y6676D1*
X8852D1*
X8825D1*
X8798D1*
X8772D1*
Y6710D1*
Y6744D1*
Y6777D1*
Y6811D1*
Y6845D1*
Y6878D1*
Y6912D1*
Y6945D1*
Y6979D1*
Y7013D1*
Y7047D1*
Y7081D1*
Y7114D1*
Y7148D1*
Y7181D1*
Y7215D1*
Y7249D1*
X8807D1*
X8842D1*
X8877D1*
X8912D1*
X8947D1*
X8982D1*
X9016D1*
X9052D1*
X9086D1*
X9121D1*
X9157D1*
X9191D1*
X9226D1*
X9457D2*
X9484D1*
X9510D1*
X9537D1*
X9563D1*
Y7215D1*
Y7181D1*
Y7148D1*
Y7114D1*
Y7081D1*
Y7047D1*
Y7013D1*
Y6979D1*
Y6945D1*
Y6912D1*
Y6878D1*
Y6845D1*
Y6811D1*
Y6777D1*
Y6744D1*
Y6710D1*
Y6676D1*
X9537D1*
X9510D1*
X9484D1*
X9457D1*
Y6710D1*
Y6744D1*
Y6777D1*
Y6811D1*
Y6845D1*
Y6878D1*
Y6912D1*
Y6945D1*
Y6979D1*
Y7013D1*
Y7047D1*
Y7081D1*
Y7114D1*
Y7148D1*
Y7181D1*
Y7215D1*
Y7249D1*
X9563Y7436D2*
Y7410D1*
Y7383D1*
Y7356D1*
Y7330D1*
X9537D1*
X9510D1*
X9484D1*
X9457D1*
Y7356D1*
Y7383D1*
Y7410D1*
Y7436D1*
X9484D1*
X9510D1*
X9537D1*
X9563D1*
X10216D2*
Y7402D1*
Y7367D1*
Y7333D1*
Y7298D1*
Y7263D1*
Y7229D1*
Y7195D1*
Y7160D1*
Y7126D1*
Y7091D1*
Y7056D1*
Y7022D1*
Y6987D1*
Y6952D1*
Y6918D1*
Y6883D1*
Y6849D1*
Y6815D1*
Y6780D1*
Y6745D1*
Y6711D1*
Y6676D1*
X10182D1*
X10147D1*
X10112D1*
X10077D1*
X10042D1*
X10007D1*
X9973D1*
X9937D1*
X9902D1*
X9868D1*
X9832D1*
X9798D1*
X9763D1*
X9737Y6679D1*
X9712Y6686D1*
X9690Y6698D1*
X9672Y6714D1*
X9656Y6733D1*
X9644Y6754D1*
X9636Y6779D1*
X9634Y6804D1*
Y6840D1*
Y6875D1*
Y6910D1*
Y6945D1*
Y6980D1*
Y7015D1*
Y7050D1*
Y7085D1*
Y7121D1*
X9636Y7146D1*
X9644Y7170D1*
X9656Y7192D1*
X9672Y7211D1*
X9690Y7227D1*
X9712Y7239D1*
X9737Y7247D1*
X9763Y7249D1*
X9797D1*
X9832D1*
X9867D1*
X9901D1*
X9937D1*
X9971D1*
X10006D1*
X10041D1*
X10075D1*
X10110D1*
Y7280D1*
Y7311D1*
Y7343D1*
Y7374D1*
Y7405D1*
Y7436D1*
X10136D1*
X10163D1*
X10190D1*
X10216D1*
X10089Y6783D2*
X10104Y6789D1*
X10110Y6804D1*
Y6840D1*
Y6875D1*
Y6910D1*
Y6945D1*
Y6980D1*
Y7015D1*
Y7050D1*
Y7085D1*
Y7121D1*
X10104Y7135D1*
X10089Y7142D1*
X10056D1*
X10024D1*
X9991D1*
X9959D1*
X9926D1*
X9893D1*
X9861D1*
X9828D1*
X9795D1*
X9763D1*
X9747Y7135D1*
X9741Y7121D1*
Y7085D1*
Y7050D1*
Y7015D1*
Y6980D1*
Y6945D1*
Y6910D1*
Y6875D1*
Y6840D1*
Y6804D1*
X9747Y6789D1*
X9763Y6783D1*
X9795D1*
X9828D1*
X9861D1*
X9893D1*
X9926D1*
X9958D1*
X9991D1*
X10024D1*
X10056D1*
X10089D1*
X10613Y7388D2*
X10640D1*
X10666D1*
X10693D1*
X10720D1*
Y7355D1*
Y7321D1*
Y7287D1*
Y7254D1*
Y7220D1*
Y7186D1*
Y7153D1*
Y7119D1*
Y7085D1*
Y7052D1*
Y7019D1*
Y6985D1*
Y6951D1*
Y6917D1*
Y6884D1*
Y6850D1*
Y6816D1*
Y6782D1*
X10753D1*
X10786D1*
X10820D1*
X10854D1*
X10887D1*
X10921D1*
X10954D1*
X10988D1*
X11021D1*
X11055D1*
X11089D1*
X11123D1*
X11156D1*
X11189D1*
X11223D1*
X11257D1*
X11290D1*
X11323D1*
Y6756D1*
Y6730D1*
Y6703D1*
Y6676D1*
X11290D1*
X11256D1*
X11222D1*
X11188D1*
X11155D1*
X11120D1*
X11087D1*
X11053D1*
X11019D1*
X10985D1*
X10951D1*
X10917D1*
X10884D1*
X10850D1*
X10816D1*
X10782D1*
X10748D1*
X10714D1*
X10680D1*
X10647D1*
X10613D1*
Y6710D1*
Y6744D1*
Y6778D1*
Y6812D1*
Y6845D1*
Y6880D1*
Y6914D1*
Y6948D1*
Y6982D1*
Y7015D1*
Y7049D1*
Y7083D1*
Y7117D1*
Y7151D1*
Y7185D1*
Y7218D1*
Y7252D1*
Y7286D1*
Y7320D1*
Y7355D1*
Y7388D1*
X11831Y7249D2*
X11856Y7247D1*
X11881Y7239D1*
X11903Y7227D1*
X11922Y7211D1*
X11938Y7192D1*
X11950Y7170D1*
X11957Y7146D1*
X11960Y7121D1*
Y7086D1*
Y7052D1*
Y7018D1*
Y6984D1*
Y6949D1*
Y6915D1*
Y6882D1*
Y6847D1*
Y6813D1*
Y6779D1*
Y6745D1*
Y6710D1*
Y6676D1*
X11924D1*
X11890D1*
X11855D1*
X11820D1*
X11785D1*
X11750D1*
X11715D1*
X11680D1*
X11645D1*
X11610D1*
X11576D1*
X11540D1*
X11506D1*
X11480Y6679D1*
X11455Y6686D1*
X11434Y6698D1*
X11415Y6714D1*
X11399Y6733D1*
X11387Y6754D1*
X11380Y6779D1*
X11377Y6804D1*
Y6840D1*
Y6875D1*
Y6910D1*
Y6945D1*
Y6981D1*
Y7016D1*
X11411D1*
X11446D1*
X11479D1*
X11513D1*
X11547D1*
X11581D1*
X11615D1*
X11649D1*
X11683D1*
X11717D1*
X11751D1*
X11785D1*
X11819D1*
X11853D1*
Y7051D1*
Y7085D1*
Y7121D1*
X11846Y7135D1*
X11831Y7142D1*
X11797D1*
X11761D1*
X11727D1*
X11692D1*
X11656D1*
X11622D1*
X11587D1*
X11552D1*
X11517D1*
X11482D1*
X11447D1*
X11412D1*
X11377D1*
Y7169D1*
Y7196D1*
Y7222D1*
Y7249D1*
X11412D1*
X11447D1*
X11482D1*
X11517D1*
X11552D1*
X11587D1*
X11622D1*
X11656D1*
X11692D1*
X11726D1*
X11761D1*
X11797D1*
X11831D1*
X11853Y6909D2*
X11819D1*
X11786D1*
X11752D1*
X11719D1*
X11685D1*
X11652D1*
X11618D1*
X11584D1*
X11551D1*
X11518D1*
X11484D1*
Y6875D1*
Y6839D1*
Y6804D1*
X11489Y6789D1*
X11506Y6782D1*
X11540D1*
X11575D1*
X11610D1*
X11645D1*
X11679D1*
X11714D1*
X11749D1*
X11783D1*
X11819D1*
X11853D1*
Y6815D1*
Y6846D1*
Y6878D1*
Y6909D1*
X12501Y7249D2*
X12526Y7247D1*
X12550Y7239D1*
X12572Y7227D1*
X12592Y7211D1*
X12607Y7192D1*
X12619Y7170D1*
X12627Y7146D1*
X12629Y7121D1*
Y7085D1*
Y7050D1*
Y7015D1*
Y6980D1*
Y6945D1*
Y6910D1*
Y6875D1*
Y6840D1*
Y6804D1*
X12627Y6779D1*
X12619Y6754D1*
X12607Y6733D1*
X12592Y6714D1*
X12572Y6697D1*
X12550Y6686D1*
X12526Y6679D1*
X12501Y6676D1*
X12465D1*
X12431D1*
X12396D1*
X12361D1*
X12326D1*
X12291D1*
X12256D1*
X12221D1*
X12186D1*
X12151D1*
X12117D1*
X12081D1*
X12047D1*
Y6711D1*
Y6745D1*
Y6780D1*
Y6815D1*
Y6849D1*
Y6884D1*
Y6918D1*
Y6952D1*
Y6987D1*
Y7022D1*
Y7056D1*
Y7091D1*
Y7126D1*
Y7160D1*
Y7195D1*
Y7229D1*
Y7263D1*
Y7298D1*
Y7333D1*
Y7367D1*
Y7402D1*
Y7436D1*
X12073D1*
X12100D1*
X12127D1*
X12153D1*
Y7405D1*
Y7374D1*
Y7343D1*
Y7311D1*
Y7280D1*
Y7249D1*
X12188D1*
X12222D1*
X12258D1*
X12292D1*
X12327D1*
X12362D1*
X12396D1*
X12431D1*
X12466D1*
X12501D1*
X12523Y7121D2*
X12516Y7135D1*
X12501Y7142D1*
X12468D1*
X12436D1*
X12403D1*
X12371D1*
X12338D1*
X12305D1*
X12273D1*
X12240D1*
X12207D1*
X12175D1*
X12159Y7135D1*
X12153Y7121D1*
Y7085D1*
Y7050D1*
Y7015D1*
Y6980D1*
Y6945D1*
Y6910D1*
Y6875D1*
Y6840D1*
Y6804D1*
X12159Y6789D1*
X12175Y6783D1*
X12207D1*
X12240D1*
X12273D1*
X12305D1*
X12338D1*
X12371D1*
X12403D1*
X12436D1*
X12468D1*
X12501D1*
X12516Y6789D1*
X12523Y6804D1*
Y6840D1*
Y6875D1*
Y6910D1*
Y6945D1*
Y6980D1*
Y7015D1*
Y7050D1*
Y7085D1*
Y7121D1*
X13281Y7099D2*
X13254D1*
X13227D1*
X13201D1*
X13174D1*
Y7121D1*
X13167Y7135D1*
X13152Y7142D1*
X13120D1*
X13087D1*
X13055D1*
X13022D1*
X12990D1*
X12957D1*
X12924D1*
X12892D1*
X12859D1*
X12827D1*
X12810Y7135D1*
X12805Y7121D1*
Y7093D1*
Y7065D1*
Y7037D1*
X12810Y7022D1*
X12827Y7016D1*
X12859D1*
X12892D1*
X12924D1*
X12957D1*
X12989D1*
X13022D1*
X13055D1*
X13087D1*
X13120D1*
X13152D1*
X13177Y7014D1*
X13201Y7006D1*
X13223Y6994D1*
X13243Y6978D1*
X13259Y6959D1*
X13270Y6937D1*
X13278Y6912D1*
X13281Y6887D1*
Y6860D1*
Y6832D1*
Y6804D1*
X13278Y6779D1*
X13270Y6754D1*
X13259Y6733D1*
X13243Y6714D1*
X13223Y6697D1*
X13201Y6686D1*
X13177Y6679D1*
X13152Y6676D1*
X13120D1*
X13087D1*
X13055D1*
X13022D1*
X12990D1*
X12957D1*
X12924D1*
X12892D1*
X12859D1*
X12827D1*
X12801Y6679D1*
X12776Y6686D1*
X12755Y6698D1*
X12736Y6714D1*
X12720Y6733D1*
X12708Y6754D1*
X12701Y6779D1*
X12698Y6804D1*
Y6827D1*
X12725D1*
X12751D1*
X12778D1*
X12805D1*
Y6804D1*
X12810Y6789D1*
X12827Y6783D1*
X12859D1*
X12892D1*
X12924D1*
X12957D1*
X12989D1*
X13022D1*
X13055D1*
X13087D1*
X13120D1*
X13152D1*
X13167Y6789D1*
X13174Y6804D1*
Y6832D1*
Y6860D1*
Y6887D1*
X13167Y6902D1*
X13152Y6909D1*
X13120D1*
X13087D1*
X13055D1*
X13022D1*
X12990D1*
X12957D1*
X12924D1*
X12892D1*
X12859D1*
X12827D1*
X12801Y6912D1*
X12776Y6919D1*
X12755Y6931D1*
X12736Y6947D1*
X12720Y6966D1*
X12708Y6987D1*
X12701Y7012D1*
X12698Y7037D1*
Y7065D1*
Y7093D1*
Y7121D1*
X12701Y7146D1*
X12708Y7170D1*
X12719Y7192D1*
X12736Y7211D1*
X12755Y7227D1*
X12776Y7239D1*
X12801Y7247D1*
X12827Y7249D1*
X12859D1*
X12892D1*
X12924D1*
X12957D1*
X12989D1*
X13022D1*
X13055D1*
X13087D1*
X13120D1*
X13152D1*
X13177Y7247D1*
X13201Y7239D1*
X13223Y7227D1*
X13243Y7211D1*
X13259Y7192D1*
X13270Y7170D1*
X13278Y7146D1*
X13281Y7121D1*
Y7099D1*
X10933Y16087D2*
D12*
X10963D1*
X8046Y16072D2*
X8166D1*
X8540D2*
X8630D1*
X8779D2*
X8839D1*
X9467D2*
X9527D1*
X10111D2*
X10170D1*
X10604D2*
X10664D1*
X10898D2*
X10984D1*
X11756D2*
X11801D1*
X12384D2*
X12489D1*
X8046Y16057D2*
X8168D1*
X8532D2*
X8630D1*
X8779D2*
X8839D1*
X9467D2*
X9527D1*
X10111D2*
X10170D1*
X10604D2*
X10664D1*
X10870D2*
X10999D1*
X11748D2*
X11801D1*
X12356D2*
X12511D1*
X8046Y16042D2*
X8172D1*
X8526D2*
X8630D1*
X8779D2*
X8839D1*
X9467D2*
X9527D1*
X10111D2*
X10170D1*
X10604D2*
X10664D1*
X10851D2*
X11004D1*
X11128D2*
X11143D1*
X11737D2*
X11801D1*
X12332D2*
X12530D1*
X8046Y16027D2*
X8176D1*
X8520D2*
X8630D1*
X8779D2*
X8839D1*
X9467D2*
X9527D1*
X10111D2*
X10170D1*
X10604D2*
X10664D1*
X10838D2*
X11008D1*
X11109D2*
X11143D1*
X11725D2*
X11801D1*
X12313D2*
X12547D1*
X8046Y16012D2*
X8181D1*
X8513D2*
X8630D1*
X8779D2*
X8839D1*
X9467D2*
X9527D1*
X10111D2*
X10170D1*
X10604D2*
X10664D1*
X10833D2*
X10959D1*
X11094D2*
X11143D1*
X11711D2*
X11801D1*
X12298D2*
X12402D1*
X12458D2*
X12563D1*
X8046Y15997D2*
X8186D1*
X8506D2*
X8630D1*
X8779D2*
X8839D1*
X9467D2*
X9527D1*
X10111D2*
X10170D1*
X10604D2*
X10664D1*
X10830D2*
X10925D1*
X11088D2*
X11143D1*
X11695D2*
X11801D1*
X12287D2*
X12379D1*
X12484D2*
X12576D1*
X8046Y15982D2*
X8191D1*
X8500D2*
X8630D1*
X10111D2*
X10170D1*
X10829D2*
X10902D1*
X11085D2*
X11143D1*
X11678D2*
X11801D1*
X12277D2*
X12359D1*
X12503D2*
X12587D1*
X8046Y15967D2*
X8196D1*
X8495D2*
X8630D1*
X10111D2*
X10170D1*
X10829D2*
X10895D1*
X11084D2*
X11143D1*
X11658D2*
X11801D1*
X12269D2*
X12344D1*
X12517D2*
X12596D1*
X8046Y15952D2*
X8106D1*
X8138D2*
X8201D1*
X8490D2*
X8630D1*
X10111D2*
X10170D1*
X10829D2*
X10891D1*
X11083D2*
X11143D1*
X11635D2*
X11801D1*
X12262D2*
X12334D1*
X12528D2*
X12603D1*
X8046Y15937D2*
X8106D1*
X8142D2*
X8206D1*
X8485D2*
X8537D1*
X8570D2*
X8630D1*
X10111D2*
X10170D1*
X10829D2*
X10889D1*
X11083D2*
X11143D1*
X11615D2*
X11801D1*
X12256D2*
X12327D1*
X12536D2*
X12608D1*
X8046Y15922D2*
X8106D1*
X8146D2*
X8211D1*
X8480D2*
X8534D1*
X8570D2*
X8630D1*
X10111D2*
X10170D1*
X10829D2*
X10889D1*
X11083D2*
X11143D1*
X11598D2*
X11714D1*
X11741D2*
X11801D1*
X12252D2*
X12320D1*
X12542D2*
X12614D1*
X8046Y15907D2*
X8106D1*
X8151D2*
X8216D1*
X8475D2*
X8529D1*
X8570D2*
X8630D1*
X9168D2*
X9198D1*
X9781D2*
X9826D1*
X10111D2*
X10170D1*
X10305D2*
X10335D1*
X10829D2*
X10889D1*
X11083D2*
X11143D1*
X11585D2*
X11687D1*
X11741D2*
X11801D1*
X12249D2*
X12315D1*
X12547D2*
X12618D1*
X8046Y15892D2*
X8106D1*
X8156D2*
X8221D1*
X8470D2*
X8525D1*
X8570D2*
X8630D1*
X8779D2*
X8839D1*
X8974D2*
X9033D1*
X9127D2*
X9238D1*
X9467D2*
X9527D1*
X9741D2*
X9874D1*
X10111D2*
X10171D1*
X10264D2*
X10375D1*
X10604D2*
X10664D1*
X10754D2*
X10978D1*
X11023D2*
X11218D1*
X11581D2*
X11661D1*
X11741D2*
X11801D1*
X12244D2*
X12312D1*
X12550D2*
X12621D1*
X8046Y15877D2*
X8106D1*
X8161D2*
X8225D1*
X8465D2*
X8520D1*
X8570D2*
X8630D1*
X8779D2*
X8839D1*
X8974D2*
X9036D1*
X9092D2*
X9269D1*
X9467D2*
X9527D1*
X9709D2*
X9910D1*
X10111D2*
X10173D1*
X10229D2*
X10405D1*
X10604D2*
X10664D1*
X10755D2*
X10978D1*
X11025D2*
X11218D1*
X11578D2*
X11634D1*
X11741D2*
X11801D1*
X12240D2*
X12311D1*
X12555D2*
X12623D1*
X8046Y15862D2*
X8106D1*
X8166D2*
X8231D1*
X8460D2*
X8515D1*
X8570D2*
X8630D1*
X8779D2*
X8839D1*
X8974D2*
X9041D1*
X9062D2*
X9289D1*
X9467D2*
X9527D1*
X9687D2*
X9935D1*
X10111D2*
X10178D1*
X10199D2*
X10426D1*
X10604D2*
X10664D1*
X10761D2*
X10978D1*
X11029D2*
X11218D1*
X11577D2*
X11607D1*
X11741D2*
X11801D1*
X12237D2*
X12310D1*
X12559D2*
X12623D1*
X8046Y15847D2*
X8106D1*
X8171D2*
X8236D1*
X8455D2*
X8510D1*
X8570D2*
X8630D1*
X8779D2*
X8839D1*
X8974D2*
X9302D1*
X9467D2*
X9527D1*
X9671D2*
X9951D1*
X10111D2*
X10439D1*
X10604D2*
X10664D1*
X10780D2*
X10978D1*
X11043D2*
X11218D1*
X11741D2*
X11801D1*
X12236D2*
X12309D1*
X12561D2*
X12624D1*
X8046Y15832D2*
X8106D1*
X8176D2*
X8240D1*
X8450D2*
X8505D1*
X8570D2*
X8630D1*
X8779D2*
X8839D1*
X8974D2*
X9112D1*
X9209D2*
X9312D1*
X9467D2*
X9527D1*
X9661D2*
X9757D1*
X9866D2*
X9962D1*
X10111D2*
X10249D1*
X10346D2*
X10449D1*
X10604D2*
X10664D1*
X10799D2*
X10888D1*
X11059D2*
X11143D1*
X11741D2*
X11801D1*
X12235D2*
X12307D1*
X12563D2*
X12624D1*
X8046Y15817D2*
X8106D1*
X8181D2*
X8246D1*
X8445D2*
X8500D1*
X8570D2*
X8630D1*
X8779D2*
X8839D1*
X8974D2*
X9090D1*
X9231D2*
X9320D1*
X9467D2*
X9527D1*
X9654D2*
X9737D1*
X9886D2*
X9969D1*
X10111D2*
X10227D1*
X10368D2*
X10457D1*
X10604D2*
X10664D1*
X10816D2*
X10888D1*
X11072D2*
X11143D1*
X11741D2*
X11801D1*
X12235D2*
X12304D1*
X12564D2*
X12624D1*
X8046Y15802D2*
X8106D1*
X8186D2*
X8251D1*
X8440D2*
X8495D1*
X8570D2*
X8630D1*
X8779D2*
X8839D1*
X8974D2*
X9074D1*
X9247D2*
X9326D1*
X9467D2*
X9527D1*
X9650D2*
X9721D1*
X9902D2*
X9973D1*
X10111D2*
X10211D1*
X10384D2*
X10463D1*
X10604D2*
X10664D1*
X10823D2*
X10888D1*
X11078D2*
X11143D1*
X11741D2*
X11801D1*
X12235D2*
X12300D1*
X12564D2*
X12624D1*
X8046Y15787D2*
X8106D1*
X8191D2*
X8255D1*
X8435D2*
X8490D1*
X8570D2*
X8630D1*
X8779D2*
X8839D1*
X8974D2*
X9063D1*
X9253D2*
X9330D1*
X9467D2*
X9527D1*
X9648D2*
X9707D1*
X9916D2*
X9976D1*
X10111D2*
X10200D1*
X10390D2*
X10467D1*
X10604D2*
X10664D1*
X10826D2*
X10888D1*
X11081D2*
X11143D1*
X11741D2*
X11801D1*
X12235D2*
X12297D1*
X12564D2*
X12624D1*
X8046Y15772D2*
X8106D1*
X8196D2*
X8261D1*
X8430D2*
X8485D1*
X8570D2*
X8630D1*
X8779D2*
X8839D1*
X8974D2*
X9056D1*
X9258D2*
X9331D1*
X9467D2*
X9527D1*
X9648D2*
X9720D1*
X10111D2*
X10193D1*
X10395D2*
X10468D1*
X10604D2*
X10664D1*
X10828D2*
X10888D1*
X11082D2*
X11143D1*
X11741D2*
X11801D1*
X12235D2*
X12296D1*
X12564D2*
X12624D1*
X8046Y15758D2*
X8106D1*
X8201D2*
X8266D1*
X8425D2*
X8480D1*
X8570D2*
X8630D1*
X8779D2*
X8839D1*
X8974D2*
X9051D1*
X9263D2*
X9332D1*
X9467D2*
X9527D1*
X9650D2*
X9740D1*
X10111D2*
X10188D1*
X10400D2*
X10469D1*
X10604D2*
X10664D1*
X10828D2*
X10888D1*
X11083D2*
X11143D1*
X11741D2*
X11801D1*
X12235D2*
X12296D1*
X12564D2*
X12624D1*
X8046Y15743D2*
X8106D1*
X8206D2*
X8270D1*
X8420D2*
X8475D1*
X8570D2*
X8630D1*
X8779D2*
X8839D1*
X8974D2*
X9047D1*
X9267D2*
X9332D1*
X9467D2*
X9527D1*
X9654D2*
X9770D1*
X10111D2*
X10184D1*
X10404D2*
X10469D1*
X10604D2*
X10664D1*
X10828D2*
X10888D1*
X11083D2*
X11143D1*
X11741D2*
X11801D1*
X12235D2*
X12297D1*
X12564D2*
X12624D1*
X8046Y15728D2*
X8106D1*
X8211D2*
X8275D1*
X8415D2*
X8470D1*
X8570D2*
X8630D1*
X8779D2*
X8839D1*
X8974D2*
X9043D1*
X9270D2*
X9333D1*
X9467D2*
X9527D1*
X9660D2*
X9809D1*
X10111D2*
X10180D1*
X10407D2*
X10470D1*
X10604D2*
X10664D1*
X10829D2*
X10888D1*
X11083D2*
X11143D1*
X11741D2*
X11801D1*
X12235D2*
X12301D1*
X12564D2*
X12624D1*
X8046Y15713D2*
X8106D1*
X8216D2*
X8281D1*
X8410D2*
X8465D1*
X8570D2*
X8630D1*
X8779D2*
X8839D1*
X8974D2*
X9039D1*
X9272D2*
X9333D1*
X9467D2*
X9527D1*
X9672D2*
X9851D1*
X10111D2*
X10176D1*
X10409D2*
X10470D1*
X10604D2*
X10664D1*
X10829D2*
X10888D1*
X11083D2*
X11143D1*
X11741D2*
X11801D1*
X12235D2*
X12305D1*
X12564D2*
X12624D1*
X8046Y15698D2*
X8106D1*
X8223D2*
X8285D1*
X8405D2*
X8460D1*
X8570D2*
X8630D1*
X8779D2*
X8839D1*
X8974D2*
X9036D1*
X9272D2*
X9333D1*
X9467D2*
X9527D1*
X9690D2*
X9890D1*
X10111D2*
X10173D1*
X10409D2*
X10470D1*
X10604D2*
X10664D1*
X10829D2*
X10888D1*
X11083D2*
X11143D1*
X11741D2*
X11801D1*
X12235D2*
X12307D1*
X12563D2*
X12624D1*
X8046Y15683D2*
X8106D1*
X8229D2*
X8290D1*
X8400D2*
X8455D1*
X8570D2*
X8630D1*
X8779D2*
X8839D1*
X8974D2*
X9035D1*
X9273D2*
X9333D1*
X9467D2*
X9527D1*
X9716D2*
X9923D1*
X10111D2*
X10171D1*
X10410D2*
X10470D1*
X10604D2*
X10664D1*
X10829D2*
X10888D1*
X11083D2*
X11143D1*
X11741D2*
X11801D1*
X12235D2*
X12309D1*
X12561D2*
X12624D1*
X8046Y15668D2*
X8106D1*
X8235D2*
X8295D1*
X8395D2*
X8450D1*
X8570D2*
X8630D1*
X8779D2*
X8839D1*
X8974D2*
X9034D1*
X9273D2*
X9333D1*
X9467D2*
X9527D1*
X9750D2*
X9949D1*
X10111D2*
X10171D1*
X10410D2*
X10470D1*
X10604D2*
X10664D1*
X10829D2*
X10888D1*
X11083D2*
X11143D1*
X11741D2*
X11801D1*
X12237D2*
X12309D1*
X12558D2*
X12624D1*
X8046Y15653D2*
X8106D1*
X8240D2*
X8300D1*
X8390D2*
X8444D1*
X8570D2*
X8630D1*
X8779D2*
X8839D1*
X8974D2*
X9034D1*
X9273D2*
X9333D1*
X9467D2*
X9527D1*
X9792D2*
X9968D1*
X10111D2*
X10171D1*
X10410D2*
X10470D1*
X10604D2*
X10664D1*
X10829D2*
X10888D1*
X11083D2*
X11143D1*
X11741D2*
X11801D1*
X12241D2*
X12310D1*
X12554D2*
X12623D1*
X8046Y15638D2*
X8106D1*
X8245D2*
X8305D1*
X8385D2*
X8438D1*
X8570D2*
X8630D1*
X8779D2*
X8839D1*
X8974D2*
X9033D1*
X9273D2*
X9333D1*
X9467D2*
X9527D1*
X9834D2*
X9982D1*
X10111D2*
X10170D1*
X10410D2*
X10470D1*
X10604D2*
X10664D1*
X10829D2*
X10888D1*
X11083D2*
X11143D1*
X11741D2*
X11801D1*
X12245D2*
X12310D1*
X12551D2*
X12621D1*
X8046Y15623D2*
X8106D1*
X8251D2*
X8310D1*
X8378D2*
X8431D1*
X8570D2*
X8630D1*
X8779D2*
X8839D1*
X8974D2*
X9033D1*
X9273D2*
X9333D1*
X9467D2*
X9527D1*
X9871D2*
X9986D1*
X10111D2*
X10170D1*
X10410D2*
X10470D1*
X10604D2*
X10664D1*
X10829D2*
X10888D1*
X11083D2*
X11143D1*
X11741D2*
X11801D1*
X12248D2*
X12312D1*
X12549D2*
X12618D1*
X8046Y15608D2*
X8106D1*
X8255D2*
X8315D1*
X8372D2*
X8426D1*
X8570D2*
X8630D1*
X8779D2*
X8839D1*
X8974D2*
X9033D1*
X9273D2*
X9333D1*
X9467D2*
X9527D1*
X9899D2*
X9989D1*
X10111D2*
X10170D1*
X10410D2*
X10470D1*
X10604D2*
X10664D1*
X10829D2*
X10888D1*
X11083D2*
X11143D1*
X11741D2*
X11801D1*
X12251D2*
X12316D1*
X12547D2*
X12613D1*
X8046Y15593D2*
X8106D1*
X8261D2*
X8321D1*
X8366D2*
X8420D1*
X8570D2*
X8630D1*
X8779D2*
X8839D1*
X8974D2*
X9033D1*
X9273D2*
X9333D1*
X9467D2*
X9527D1*
X9662D2*
X9707D1*
X9918D2*
X9990D1*
X10111D2*
X10170D1*
X10410D2*
X10470D1*
X10604D2*
X10664D1*
X10829D2*
X10888D1*
X11083D2*
X11143D1*
X11741D2*
X11801D1*
X12256D2*
X12322D1*
X12542D2*
X12609D1*
X8046Y15578D2*
X8106D1*
X8266D2*
X8328D1*
X8360D2*
X8415D1*
X8570D2*
X8630D1*
X8779D2*
X8839D1*
X8974D2*
X9033D1*
X9273D2*
X9333D1*
X9467D2*
X9527D1*
X9648D2*
X9710D1*
X9924D2*
X9991D1*
X10111D2*
X10170D1*
X10410D2*
X10470D1*
X10604D2*
X10664D1*
X10829D2*
X10888D1*
X11083D2*
X11143D1*
X11741D2*
X11801D1*
X12260D2*
X12329D1*
X12536D2*
X12603D1*
X8046Y15563D2*
X8106D1*
X8270D2*
X8336D1*
X8353D2*
X8410D1*
X8570D2*
X8630D1*
X8779D2*
X8839D1*
X8974D2*
X9033D1*
X9273D2*
X9333D1*
X9467D2*
X9527D1*
X9644D2*
X9714D1*
X9923D2*
X9990D1*
X10111D2*
X10170D1*
X10410D2*
X10470D1*
X10604D2*
X10664D1*
X10829D2*
X10888D1*
X11083D2*
X11144D1*
X11741D2*
X11801D1*
X12265D2*
X12338D1*
X12526D2*
X12597D1*
X8046Y15548D2*
X8106D1*
X8275D2*
X8405D1*
X8570D2*
X8630D1*
X8779D2*
X8839D1*
X8974D2*
X9033D1*
X9273D2*
X9333D1*
X9467D2*
X9527D1*
X9647D2*
X9727D1*
X9914D2*
X9988D1*
X10111D2*
X10170D1*
X10410D2*
X10470D1*
X10604D2*
X10664D1*
X10829D2*
X10888D1*
X11083D2*
X11146D1*
X11741D2*
X11801D1*
X12272D2*
X12348D1*
X12514D2*
X12590D1*
X8046Y15533D2*
X8106D1*
X8281D2*
X8400D1*
X8570D2*
X8630D1*
X8779D2*
X8839D1*
X8974D2*
X9033D1*
X9273D2*
X9333D1*
X9467D2*
X9527D1*
X9652D2*
X9761D1*
X9878D2*
X9982D1*
X10111D2*
X10170D1*
X10410D2*
X10470D1*
X10604D2*
X10664D1*
X10829D2*
X10888D1*
X11083D2*
X11156D1*
X11741D2*
X11801D1*
X12055D2*
X12115D1*
X12281D2*
X12380D1*
X12480D2*
X12582D1*
X8046Y15518D2*
X8106D1*
X8285D2*
X8395D1*
X8570D2*
X8630D1*
X8779D2*
X8839D1*
X8974D2*
X9033D1*
X9273D2*
X9333D1*
X9467D2*
X9527D1*
X9660D2*
X9816D1*
X9815D2*
X9972D1*
X10111D2*
X10170D1*
X10410D2*
X10470D1*
X10604D2*
X10664D1*
X10829D2*
X10888D1*
X11084D2*
X11177D1*
X11741D2*
X11801D1*
X12055D2*
X12115D1*
X12290D2*
X12429D1*
X12430D2*
X12573D1*
X8046Y15503D2*
X8106D1*
X8290D2*
X8390D1*
X8570D2*
X8630D1*
X8779D2*
X8839D1*
X8974D2*
X9033D1*
X9273D2*
X9333D1*
X9467D2*
X9527D1*
X9671D2*
X9958D1*
X10111D2*
X10170D1*
X10410D2*
X10470D1*
X10604D2*
X10664D1*
X10829D2*
X10888D1*
X11086D2*
X11197D1*
X11741D2*
X11801D1*
X12055D2*
X12115D1*
X12301D2*
X12560D1*
X8046Y15488D2*
X8106D1*
X8295D2*
X8385D1*
X8570D2*
X8630D1*
X8779D2*
X8839D1*
X8974D2*
X9033D1*
X9273D2*
X9333D1*
X9467D2*
X9527D1*
X9688D2*
X9941D1*
X10111D2*
X10170D1*
X10410D2*
X10470D1*
X10604D2*
X10664D1*
X10829D2*
X10888D1*
X11091D2*
X11213D1*
X11741D2*
X11801D1*
X12055D2*
X12115D1*
X12317D2*
X12543D1*
X8046Y15473D2*
X8106D1*
X8298D2*
X8380D1*
X8570D2*
X8630D1*
X8779D2*
X8839D1*
X8974D2*
X9033D1*
X9273D2*
X9333D1*
X9467D2*
X9527D1*
X9715D2*
X9916D1*
X10111D2*
X10170D1*
X10410D2*
X10470D1*
X10604D2*
X10664D1*
X10829D2*
X10888D1*
X11107D2*
X11225D1*
X11741D2*
X11801D1*
X12055D2*
X12115D1*
X12341D2*
X12519D1*
X8046Y15458D2*
X8106D1*
X8300D2*
X8375D1*
X8570D2*
X8630D1*
X8779D2*
X8839D1*
X8974D2*
X9033D1*
X9273D2*
X9333D1*
X9467D2*
X9527D1*
X9752D2*
X9881D1*
X10111D2*
X10170D1*
X10410D2*
X10470D1*
X10604D2*
X10664D1*
X10829D2*
X10888D1*
X11130D2*
X11215D1*
X11741D2*
X11801D1*
X12055D2*
X12115D1*
X12375D2*
X12484D1*
X9796Y15443D2*
X9841D1*
X11158D2*
X11203D1*
X12414D2*
X12444D1*
X10933Y16087D2*
X10898Y16072D1*
X10870Y16057D1*
X10851Y16042D1*
X10838Y16027D1*
X10833Y16012D1*
X10830Y15997D1*
X10829Y15982D1*
Y15967D1*
Y15952D1*
Y15937D1*
Y15922D1*
Y15907D1*
Y15892D1*
X10754D1*
X10755Y15877D1*
X10761Y15862D1*
X10780Y15847D1*
X10799Y15832D1*
X10816Y15817D1*
X10823Y15802D1*
X10826Y15787D1*
X10828Y15772D1*
Y15758D1*
Y15743D1*
X10829Y15728D1*
Y15713D1*
Y15698D1*
Y15683D1*
Y15668D1*
Y15653D1*
Y15638D1*
Y15623D1*
Y15608D1*
Y15593D1*
Y15578D1*
Y15563D1*
Y15548D1*
Y15533D1*
Y15518D1*
Y15503D1*
Y15488D1*
Y15473D1*
Y15458D1*
X10963Y16087D2*
X10984Y16072D1*
X10999Y16057D1*
X11004Y16042D1*
X11008Y16027D1*
X10959Y16012D1*
X10925Y15997D1*
X10902Y15982D1*
X10895Y15967D1*
X10891Y15952D1*
X10889Y15937D1*
Y15922D1*
Y15907D1*
X10888Y15892D1*
X10978D1*
Y15877D1*
Y15862D1*
Y15847D1*
Y15832D1*
X10888D1*
Y15817D1*
Y15802D1*
Y15787D1*
Y15772D1*
Y15758D1*
Y15743D1*
Y15728D1*
Y15713D1*
Y15698D1*
Y15683D1*
Y15668D1*
Y15653D1*
Y15638D1*
Y15623D1*
Y15608D1*
Y15593D1*
Y15578D1*
Y15563D1*
Y15548D1*
Y15533D1*
Y15518D1*
Y15503D1*
Y15488D1*
Y15473D1*
Y15458D1*
X8046Y16072D2*
Y16057D1*
Y16042D1*
Y16027D1*
Y16012D1*
Y15997D1*
Y15982D1*
Y15967D1*
Y15952D1*
Y15937D1*
Y15922D1*
Y15907D1*
Y15892D1*
Y15877D1*
Y15862D1*
Y15847D1*
Y15832D1*
Y15817D1*
Y15802D1*
Y15787D1*
Y15772D1*
Y15758D1*
Y15743D1*
Y15728D1*
Y15713D1*
Y15698D1*
Y15683D1*
Y15668D1*
Y15653D1*
Y15638D1*
Y15623D1*
Y15608D1*
Y15593D1*
Y15578D1*
Y15563D1*
Y15548D1*
Y15533D1*
Y15518D1*
Y15503D1*
Y15488D1*
Y15473D1*
Y15458D1*
X8166Y16072D2*
X8168Y16057D1*
X8172Y16042D1*
X8176Y16027D1*
X8181Y16012D1*
X8186Y15997D1*
X8191Y15982D1*
X8196Y15967D1*
X8201Y15952D1*
X8206Y15937D1*
X8211Y15922D1*
X8216Y15907D1*
X8221Y15892D1*
X8225Y15877D1*
X8231Y15862D1*
X8236Y15847D1*
X8240Y15832D1*
X8246Y15817D1*
X8251Y15802D1*
X8255Y15787D1*
X8261Y15772D1*
X8266Y15758D1*
X8270Y15743D1*
X8275Y15728D1*
X8281Y15713D1*
X8285Y15698D1*
X8290Y15683D1*
X8295Y15668D1*
X8300Y15653D1*
X8305Y15638D1*
X8310Y15623D1*
X8315Y15608D1*
X8321Y15593D1*
X8328Y15578D1*
X8336Y15563D1*
X8345Y15548D1*
X8540Y16072D2*
X8532Y16057D1*
X8526Y16042D1*
X8520Y16027D1*
X8513Y16012D1*
X8506Y15997D1*
X8500Y15982D1*
X8495Y15967D1*
X8490Y15952D1*
X8485Y15937D1*
X8480Y15922D1*
X8475Y15907D1*
X8470Y15892D1*
X8465Y15877D1*
X8460Y15862D1*
X8455Y15847D1*
X8450Y15832D1*
X8445Y15817D1*
X8440Y15802D1*
X8435Y15787D1*
X8430Y15772D1*
X8425Y15758D1*
X8420Y15743D1*
X8415Y15728D1*
X8410Y15713D1*
X8405Y15698D1*
X8400Y15683D1*
X8395Y15668D1*
X8390Y15653D1*
X8385Y15638D1*
X8378Y15623D1*
X8372Y15608D1*
X8366Y15593D1*
X8360Y15578D1*
X8353Y15563D1*
X8345Y15548D1*
X8630Y16072D2*
Y16057D1*
Y16042D1*
Y16027D1*
Y16012D1*
Y15997D1*
Y15982D1*
Y15967D1*
Y15952D1*
Y15937D1*
Y15922D1*
Y15907D1*
Y15892D1*
Y15877D1*
Y15862D1*
Y15847D1*
Y15832D1*
Y15817D1*
Y15802D1*
Y15787D1*
Y15772D1*
Y15758D1*
Y15743D1*
Y15728D1*
Y15713D1*
Y15698D1*
Y15683D1*
Y15668D1*
Y15653D1*
Y15638D1*
Y15623D1*
Y15608D1*
Y15593D1*
Y15578D1*
Y15563D1*
Y15548D1*
Y15533D1*
Y15518D1*
Y15503D1*
Y15488D1*
Y15473D1*
Y15458D1*
X8779Y16072D2*
Y16057D1*
Y16042D1*
Y16027D1*
Y16012D1*
Y15997D1*
X8839Y16072D2*
Y16057D1*
Y16042D1*
Y16027D1*
Y16012D1*
Y15997D1*
X9467Y16072D2*
Y16057D1*
Y16042D1*
Y16027D1*
Y16012D1*
Y15997D1*
X9527Y16072D2*
Y16057D1*
Y16042D1*
Y16027D1*
Y16012D1*
Y15997D1*
X10111Y16072D2*
Y16057D1*
Y16042D1*
Y16027D1*
Y16012D1*
Y15997D1*
Y15982D1*
Y15967D1*
Y15952D1*
Y15937D1*
Y15922D1*
Y15907D1*
Y15892D1*
Y15877D1*
Y15862D1*
Y15847D1*
Y15832D1*
Y15817D1*
Y15802D1*
Y15787D1*
Y15772D1*
Y15758D1*
Y15743D1*
Y15728D1*
Y15713D1*
Y15698D1*
Y15683D1*
Y15668D1*
Y15653D1*
Y15638D1*
Y15623D1*
Y15608D1*
Y15593D1*
Y15578D1*
Y15563D1*
Y15548D1*
Y15533D1*
Y15518D1*
Y15503D1*
Y15488D1*
Y15473D1*
Y15458D1*
X10170Y16072D2*
Y16057D1*
Y16042D1*
Y16027D1*
Y16012D1*
Y15997D1*
Y15982D1*
Y15967D1*
Y15952D1*
Y15937D1*
Y15922D1*
Y15907D1*
X10171Y15892D1*
X10173Y15877D1*
X10178Y15862D1*
X10185Y15847D1*
X10604Y16072D2*
Y16057D1*
Y16042D1*
Y16027D1*
Y16012D1*
Y15997D1*
X10664Y16072D2*
Y16057D1*
Y16042D1*
Y16027D1*
Y16012D1*
Y15997D1*
X11756Y16072D2*
X11748Y16057D1*
X11737Y16042D1*
X11725Y16027D1*
X11711Y16012D1*
X11695Y15997D1*
X11678Y15982D1*
X11658Y15967D1*
X11635Y15952D1*
X11615Y15937D1*
X11598Y15922D1*
X11585Y15907D1*
X11581Y15892D1*
X11578Y15877D1*
X11577Y15862D1*
X11801Y16072D2*
Y16057D1*
Y16042D1*
Y16027D1*
Y16012D1*
Y15997D1*
Y15982D1*
Y15967D1*
Y15952D1*
Y15937D1*
Y15922D1*
Y15907D1*
Y15892D1*
Y15877D1*
Y15862D1*
Y15847D1*
Y15832D1*
Y15817D1*
Y15802D1*
Y15787D1*
Y15772D1*
Y15758D1*
Y15743D1*
Y15728D1*
Y15713D1*
Y15698D1*
Y15683D1*
Y15668D1*
Y15653D1*
Y15638D1*
Y15623D1*
Y15608D1*
Y15593D1*
Y15578D1*
Y15563D1*
Y15548D1*
Y15533D1*
Y15518D1*
Y15503D1*
Y15488D1*
Y15473D1*
Y15458D1*
X12384Y16072D2*
X12356Y16057D1*
X12332Y16042D1*
X12313Y16027D1*
X12298Y16012D1*
X12287Y15997D1*
X12277Y15982D1*
X12269Y15967D1*
X12262Y15952D1*
X12256Y15937D1*
X12252Y15922D1*
X12249Y15907D1*
X12244Y15892D1*
X12240Y15877D1*
X12237Y15862D1*
X12236Y15847D1*
X12235Y15832D1*
Y15817D1*
Y15802D1*
Y15787D1*
Y15772D1*
Y15758D1*
Y15743D1*
Y15728D1*
Y15713D1*
Y15698D1*
Y15683D1*
X12237Y15668D1*
X12241Y15653D1*
X12245Y15638D1*
X12248Y15623D1*
X12251Y15608D1*
X12256Y15593D1*
X12260Y15578D1*
X12265Y15563D1*
X12272Y15548D1*
X12281Y15533D1*
X12290Y15518D1*
X12301Y15503D1*
X12317Y15488D1*
X12341Y15473D1*
X12375Y15458D1*
X12414Y15443D1*
X12489Y16072D2*
X12511Y16057D1*
X12530Y16042D1*
X12547Y16027D1*
X12563Y16012D1*
X12576Y15997D1*
X12587Y15982D1*
X12596Y15967D1*
X12603Y15952D1*
X12608Y15937D1*
X12614Y15922D1*
X12618Y15907D1*
X12621Y15892D1*
X12623Y15877D1*
Y15862D1*
X12624Y15847D1*
Y15832D1*
Y15817D1*
Y15802D1*
Y15787D1*
Y15772D1*
Y15758D1*
Y15743D1*
Y15728D1*
Y15713D1*
Y15698D1*
Y15683D1*
Y15668D1*
X12623Y15653D1*
X12621Y15638D1*
X12618Y15623D1*
X12613Y15608D1*
X12609Y15593D1*
X12603Y15578D1*
X12597Y15563D1*
X12590Y15548D1*
X12582Y15533D1*
X12573Y15518D1*
X12560Y15503D1*
X12543Y15488D1*
X12519Y15473D1*
X12484Y15458D1*
X12444Y15443D1*
X11128Y16042D2*
X11109Y16027D1*
X11094Y16012D1*
X11088Y15997D1*
X11085Y15982D1*
X11084Y15967D1*
X11083Y15952D1*
Y15937D1*
Y15922D1*
Y15907D1*
Y15892D1*
X11023D1*
X11025Y15877D1*
X11029Y15862D1*
X11043Y15847D1*
X11059Y15832D1*
X11072Y15817D1*
X11078Y15802D1*
X11081Y15787D1*
X11082Y15772D1*
X11083Y15758D1*
Y15743D1*
Y15728D1*
Y15713D1*
Y15698D1*
Y15683D1*
Y15668D1*
Y15653D1*
Y15638D1*
Y15623D1*
Y15608D1*
Y15593D1*
Y15578D1*
Y15563D1*
Y15548D1*
Y15533D1*
X11084Y15518D1*
X11086Y15503D1*
X11091Y15488D1*
X11107Y15473D1*
X11130Y15458D1*
X11158Y15443D1*
X11143Y16042D2*
Y16027D1*
Y16012D1*
Y15997D1*
Y15982D1*
Y15967D1*
Y15952D1*
Y15937D1*
Y15922D1*
Y15907D1*
Y15892D1*
X11218D1*
Y15877D1*
Y15862D1*
Y15847D1*
Y15832D1*
X11143D1*
Y15817D1*
Y15802D1*
Y15787D1*
Y15772D1*
Y15758D1*
Y15743D1*
Y15728D1*
Y15713D1*
Y15698D1*
Y15683D1*
Y15668D1*
Y15653D1*
Y15638D1*
Y15623D1*
Y15608D1*
Y15593D1*
Y15578D1*
X11144Y15563D1*
X11146Y15548D1*
X11156Y15533D1*
X11177Y15518D1*
X11197Y15503D1*
X11213Y15488D1*
X11225Y15473D1*
X11215Y15458D1*
X11203Y15443D1*
X12429Y16027D2*
X12402Y16012D1*
X12379Y15997D1*
X12359Y15982D1*
X12344Y15967D1*
X12334Y15952D1*
X12327Y15937D1*
X12320Y15922D1*
X12315Y15907D1*
X12312Y15892D1*
X12311Y15877D1*
X12310Y15862D1*
X12309Y15847D1*
X12307Y15832D1*
X12304Y15817D1*
X12300Y15802D1*
X12297Y15787D1*
X12296Y15772D1*
Y15758D1*
X12297Y15743D1*
X12301Y15728D1*
X12305Y15713D1*
X12307Y15698D1*
X12309Y15683D1*
Y15668D1*
X12310Y15653D1*
Y15638D1*
X12312Y15623D1*
X12316Y15608D1*
X12322Y15593D1*
X12329Y15578D1*
X12338Y15563D1*
X12348Y15548D1*
X12380Y15533D1*
X12429Y15518D1*
X12489Y15503D1*
X12429Y16027D2*
X12458Y16012D1*
X12484Y15997D1*
X12503Y15982D1*
X12517Y15967D1*
X12528Y15952D1*
X12536Y15937D1*
X12542Y15922D1*
X12547Y15907D1*
X12550Y15892D1*
X12555Y15877D1*
X12559Y15862D1*
X12561Y15847D1*
X12563Y15832D1*
X12564Y15817D1*
Y15802D1*
Y15787D1*
Y15772D1*
Y15758D1*
Y15743D1*
Y15728D1*
Y15713D1*
X12563Y15698D1*
X12561Y15683D1*
X12558Y15668D1*
X12554Y15653D1*
X12551Y15638D1*
X12549Y15623D1*
X12547Y15608D1*
X12542Y15593D1*
X12536Y15578D1*
X12526Y15563D1*
X12514Y15548D1*
X12480Y15533D1*
X12430Y15518D1*
X12370Y15503D1*
X8106Y15967D2*
Y15952D1*
Y15937D1*
Y15922D1*
Y15907D1*
Y15892D1*
Y15877D1*
Y15862D1*
Y15847D1*
Y15832D1*
Y15817D1*
Y15802D1*
Y15787D1*
Y15772D1*
Y15758D1*
Y15743D1*
Y15728D1*
Y15713D1*
Y15698D1*
Y15683D1*
Y15668D1*
Y15653D1*
Y15638D1*
Y15623D1*
Y15608D1*
Y15593D1*
Y15578D1*
Y15563D1*
Y15548D1*
Y15533D1*
Y15518D1*
Y15503D1*
Y15488D1*
Y15473D1*
Y15458D1*
X8136Y15967D2*
X8138Y15952D1*
X8142Y15937D1*
X8146Y15922D1*
X8151Y15907D1*
X8156Y15892D1*
X8161Y15877D1*
X8166Y15862D1*
X8171Y15847D1*
X8176Y15832D1*
X8181Y15817D1*
X8186Y15802D1*
X8191Y15787D1*
X8196Y15772D1*
X8201Y15758D1*
X8206Y15743D1*
X8211Y15728D1*
X8216Y15713D1*
X8223Y15698D1*
X8229Y15683D1*
X8235Y15668D1*
X8240Y15653D1*
X8245Y15638D1*
X8251Y15623D1*
X8255Y15608D1*
X8261Y15593D1*
X8266Y15578D1*
X8270Y15563D1*
X8275Y15548D1*
X8281Y15533D1*
X8285Y15518D1*
X8290Y15503D1*
X8295Y15488D1*
X8298Y15473D1*
X8300Y15458D1*
X8540Y15952D2*
X8537Y15937D1*
X8534Y15922D1*
X8529Y15907D1*
X8525Y15892D1*
X8520Y15877D1*
X8515Y15862D1*
X8510Y15847D1*
X8505Y15832D1*
X8500Y15817D1*
X8495Y15802D1*
X8490Y15787D1*
X8485Y15772D1*
X8480Y15758D1*
X8475Y15743D1*
X8470Y15728D1*
X8465Y15713D1*
X8460Y15698D1*
X8455Y15683D1*
X8450Y15668D1*
X8444Y15653D1*
X8438Y15638D1*
X8431Y15623D1*
X8426Y15608D1*
X8420Y15593D1*
X8415Y15578D1*
X8410Y15563D1*
X8405Y15548D1*
X8400Y15533D1*
X8395Y15518D1*
X8390Y15503D1*
X8385Y15488D1*
X8380Y15473D1*
X8375Y15458D1*
X8570Y15952D2*
Y15937D1*
Y15922D1*
Y15907D1*
Y15892D1*
Y15877D1*
Y15862D1*
Y15847D1*
Y15832D1*
Y15817D1*
Y15802D1*
Y15787D1*
Y15772D1*
Y15758D1*
Y15743D1*
Y15728D1*
Y15713D1*
Y15698D1*
Y15683D1*
Y15668D1*
Y15653D1*
Y15638D1*
Y15623D1*
Y15608D1*
Y15593D1*
Y15578D1*
Y15563D1*
Y15548D1*
Y15533D1*
Y15518D1*
Y15503D1*
Y15488D1*
Y15473D1*
Y15458D1*
X11741Y15937D2*
X11714Y15922D1*
X11687Y15907D1*
X11661Y15892D1*
X11634Y15877D1*
X11607Y15862D1*
X11741Y15937D2*
Y15922D1*
Y15907D1*
Y15892D1*
Y15877D1*
Y15862D1*
Y15847D1*
Y15832D1*
Y15817D1*
Y15802D1*
Y15787D1*
Y15772D1*
Y15758D1*
Y15743D1*
Y15728D1*
Y15713D1*
Y15698D1*
Y15683D1*
Y15668D1*
Y15653D1*
Y15638D1*
Y15623D1*
Y15608D1*
Y15593D1*
Y15578D1*
Y15563D1*
Y15548D1*
Y15533D1*
Y15518D1*
Y15503D1*
Y15488D1*
Y15473D1*
Y15458D1*
X9168Y15907D2*
X9127Y15892D1*
X9092Y15877D1*
X9062Y15862D1*
X9033Y15847D1*
X9198Y15907D2*
X9238Y15892D1*
X9269Y15877D1*
X9289Y15862D1*
X9302Y15847D1*
X9312Y15832D1*
X9320Y15817D1*
X9326Y15802D1*
X9330Y15787D1*
X9331Y15772D1*
X9332Y15758D1*
Y15743D1*
X9333Y15728D1*
Y15713D1*
Y15698D1*
Y15683D1*
Y15668D1*
Y15653D1*
Y15638D1*
Y15623D1*
Y15608D1*
Y15593D1*
Y15578D1*
Y15563D1*
Y15548D1*
Y15533D1*
Y15518D1*
Y15503D1*
Y15488D1*
Y15473D1*
Y15458D1*
X9781Y15907D2*
X9741Y15892D1*
X9709Y15877D1*
X9687Y15862D1*
X9671Y15847D1*
X9661Y15832D1*
X9654Y15817D1*
X9650Y15802D1*
X9648Y15787D1*
Y15772D1*
X9650Y15758D1*
X9654Y15743D1*
X9660Y15728D1*
X9672Y15713D1*
X9690Y15698D1*
X9716Y15683D1*
X9750Y15668D1*
X9792Y15653D1*
X9834Y15638D1*
X9871Y15623D1*
X9899Y15608D1*
X9918Y15593D1*
X9924Y15578D1*
X9923Y15563D1*
X9914Y15548D1*
X9878Y15533D1*
X9815Y15518D1*
X9737Y15503D1*
X9826Y15907D2*
X9874Y15892D1*
X9910Y15877D1*
X9935Y15862D1*
X9951Y15847D1*
X9962Y15832D1*
X9969Y15817D1*
X9973Y15802D1*
X9976Y15787D1*
X10305Y15907D2*
X10264Y15892D1*
X10229Y15877D1*
X10199Y15862D1*
X10170Y15847D1*
X10335Y15907D2*
X10375Y15892D1*
X10405Y15877D1*
X10426Y15862D1*
X10439Y15847D1*
X10449Y15832D1*
X10457Y15817D1*
X10463Y15802D1*
X10467Y15787D1*
X10468Y15772D1*
X10469Y15758D1*
Y15743D1*
X10470Y15728D1*
Y15713D1*
Y15698D1*
Y15683D1*
Y15668D1*
Y15653D1*
Y15638D1*
Y15623D1*
Y15608D1*
Y15593D1*
Y15578D1*
Y15563D1*
Y15548D1*
Y15533D1*
Y15518D1*
Y15503D1*
Y15488D1*
Y15473D1*
Y15458D1*
X8779Y15892D2*
Y15877D1*
Y15862D1*
Y15847D1*
Y15832D1*
Y15817D1*
Y15802D1*
Y15787D1*
Y15772D1*
Y15758D1*
Y15743D1*
Y15728D1*
Y15713D1*
Y15698D1*
Y15683D1*
Y15668D1*
Y15653D1*
Y15638D1*
Y15623D1*
Y15608D1*
Y15593D1*
Y15578D1*
Y15563D1*
Y15548D1*
Y15533D1*
Y15518D1*
Y15503D1*
Y15488D1*
Y15473D1*
Y15458D1*
X8839Y15892D2*
Y15877D1*
Y15862D1*
Y15847D1*
Y15832D1*
Y15817D1*
Y15802D1*
Y15787D1*
Y15772D1*
Y15758D1*
Y15743D1*
Y15728D1*
Y15713D1*
Y15698D1*
Y15683D1*
Y15668D1*
Y15653D1*
Y15638D1*
Y15623D1*
Y15608D1*
Y15593D1*
Y15578D1*
Y15563D1*
Y15548D1*
Y15533D1*
Y15518D1*
Y15503D1*
Y15488D1*
Y15473D1*
Y15458D1*
X8974Y15892D2*
Y15877D1*
Y15862D1*
Y15847D1*
Y15832D1*
Y15817D1*
Y15802D1*
Y15787D1*
Y15772D1*
Y15758D1*
Y15743D1*
Y15728D1*
Y15713D1*
Y15698D1*
Y15683D1*
Y15668D1*
Y15653D1*
Y15638D1*
Y15623D1*
Y15608D1*
Y15593D1*
Y15578D1*
Y15563D1*
Y15548D1*
Y15533D1*
Y15518D1*
Y15503D1*
Y15488D1*
Y15473D1*
Y15458D1*
X9033Y15892D2*
X9036Y15877D1*
X9041Y15862D1*
X9048Y15847D1*
X9467Y15892D2*
Y15877D1*
Y15862D1*
Y15847D1*
Y15832D1*
Y15817D1*
Y15802D1*
Y15787D1*
Y15772D1*
Y15758D1*
Y15743D1*
Y15728D1*
Y15713D1*
Y15698D1*
Y15683D1*
Y15668D1*
Y15653D1*
Y15638D1*
Y15623D1*
Y15608D1*
Y15593D1*
Y15578D1*
Y15563D1*
Y15548D1*
Y15533D1*
Y15518D1*
Y15503D1*
Y15488D1*
Y15473D1*
Y15458D1*
X9527Y15892D2*
Y15877D1*
Y15862D1*
Y15847D1*
Y15832D1*
Y15817D1*
Y15802D1*
Y15787D1*
Y15772D1*
Y15758D1*
Y15743D1*
Y15728D1*
Y15713D1*
Y15698D1*
Y15683D1*
Y15668D1*
Y15653D1*
Y15638D1*
Y15623D1*
Y15608D1*
Y15593D1*
Y15578D1*
Y15563D1*
Y15548D1*
Y15533D1*
Y15518D1*
Y15503D1*
Y15488D1*
Y15473D1*
Y15458D1*
X10604Y15892D2*
Y15877D1*
Y15862D1*
Y15847D1*
Y15832D1*
Y15817D1*
Y15802D1*
Y15787D1*
Y15772D1*
Y15758D1*
Y15743D1*
Y15728D1*
Y15713D1*
Y15698D1*
Y15683D1*
Y15668D1*
Y15653D1*
Y15638D1*
Y15623D1*
Y15608D1*
Y15593D1*
Y15578D1*
Y15563D1*
Y15548D1*
Y15533D1*
Y15518D1*
Y15503D1*
Y15488D1*
Y15473D1*
Y15458D1*
X10664Y15892D2*
Y15877D1*
Y15862D1*
Y15847D1*
Y15832D1*
Y15817D1*
Y15802D1*
Y15787D1*
Y15772D1*
Y15758D1*
Y15743D1*
Y15728D1*
Y15713D1*
Y15698D1*
Y15683D1*
Y15668D1*
Y15653D1*
Y15638D1*
Y15623D1*
Y15608D1*
Y15593D1*
Y15578D1*
Y15563D1*
Y15548D1*
Y15533D1*
Y15518D1*
Y15503D1*
Y15488D1*
Y15473D1*
Y15458D1*
X9138Y15847D2*
X9112Y15832D1*
X9090Y15817D1*
X9074Y15802D1*
X9063Y15787D1*
X9056Y15772D1*
X9051Y15758D1*
X9047Y15743D1*
X9043Y15728D1*
X9039Y15713D1*
X9036Y15698D1*
X9035Y15683D1*
X9034Y15668D1*
Y15653D1*
X9033Y15638D1*
Y15623D1*
Y15608D1*
Y15593D1*
Y15578D1*
Y15563D1*
Y15548D1*
Y15533D1*
Y15518D1*
Y15503D1*
Y15488D1*
Y15473D1*
Y15458D1*
X9183Y15847D2*
X9209Y15832D1*
X9231Y15817D1*
X9247Y15802D1*
X9253Y15787D1*
X9258Y15772D1*
X9263Y15758D1*
X9267Y15743D1*
X9270Y15728D1*
X9272Y15713D1*
Y15698D1*
X9273Y15683D1*
Y15668D1*
Y15653D1*
Y15638D1*
Y15623D1*
Y15608D1*
Y15593D1*
Y15578D1*
Y15563D1*
Y15548D1*
Y15533D1*
Y15518D1*
Y15503D1*
Y15488D1*
Y15473D1*
Y15458D1*
X9781Y15847D2*
X9757Y15832D1*
X9737Y15817D1*
X9721Y15802D1*
X9707Y15787D1*
X9720Y15772D1*
X9740Y15758D1*
X9770Y15743D1*
X9809Y15728D1*
X9851Y15713D1*
X9890Y15698D1*
X9923Y15683D1*
X9949Y15668D1*
X9968Y15653D1*
X9982Y15638D1*
X9986Y15623D1*
X9989Y15608D1*
X9990Y15593D1*
X9991Y15578D1*
X9990Y15563D1*
X9988Y15548D1*
X9982Y15533D1*
X9972Y15518D1*
X9958Y15503D1*
X9941Y15488D1*
X9916Y15473D1*
X9881Y15458D1*
X9841Y15443D1*
Y15847D2*
X9866Y15832D1*
X9886Y15817D1*
X9902Y15802D1*
X9916Y15787D1*
X10275Y15847D2*
X10249Y15832D1*
X10227Y15817D1*
X10211Y15802D1*
X10200Y15787D1*
X10193Y15772D1*
X10188Y15758D1*
X10184Y15743D1*
X10180Y15728D1*
X10176Y15713D1*
X10173Y15698D1*
X10171Y15683D1*
Y15668D1*
Y15653D1*
X10170Y15638D1*
Y15623D1*
Y15608D1*
Y15593D1*
Y15578D1*
Y15563D1*
Y15548D1*
Y15533D1*
Y15518D1*
Y15503D1*
Y15488D1*
Y15473D1*
Y15458D1*
X10320Y15847D2*
X10346Y15832D1*
X10368Y15817D1*
X10384Y15802D1*
X10390Y15787D1*
X10395Y15772D1*
X10400Y15758D1*
X10404Y15743D1*
X10407Y15728D1*
X10409Y15713D1*
Y15698D1*
X10410Y15683D1*
Y15668D1*
Y15653D1*
Y15638D1*
Y15623D1*
Y15608D1*
Y15593D1*
Y15578D1*
Y15563D1*
Y15548D1*
Y15533D1*
Y15518D1*
Y15503D1*
Y15488D1*
Y15473D1*
Y15458D1*
X9662Y15593D2*
X9648Y15578D1*
X9644Y15563D1*
X9647Y15548D1*
X9652Y15533D1*
X9660Y15518D1*
X9671Y15503D1*
X9688Y15488D1*
X9715Y15473D1*
X9752Y15458D1*
X9796Y15443D1*
X9707Y15593D2*
X9710Y15578D1*
X9714Y15563D1*
X9727Y15548D1*
X9761Y15533D1*
X9816Y15518D1*
X9886Y15503D1*
X12055Y15533D2*
Y15518D1*
Y15503D1*
Y15488D1*
Y15473D1*
Y15458D1*
X12115Y15533D2*
Y15518D1*
Y15503D1*
Y15488D1*
Y15473D1*
Y15458D1*
X4530Y6329D2*
D53*
X4606Y6061D1*
X4683Y6329D1*
X4759Y6061D1*
X4836Y6329D1*
X5011D2*
X5087Y6061D1*
X5164Y6329D1*
X5240Y6061D1*
X5317Y6329D1*
X5492D2*
X5568Y6061D1*
X5645Y6329D1*
X5721Y6061D1*
X5798Y6329D1*
X5992Y6099D2*
X5973Y6080D1*
X5992Y6061D1*
X6011Y6080D1*
X5992Y6099D1*
X6416Y6329D2*
Y6061D1*
Y6271D2*
X6378Y6310D1*
X6339Y6329D1*
X6282D1*
X6244Y6310D1*
X6206Y6271D1*
X6186Y6214D1*
Y6176D1*
X6206Y6118D1*
X6244Y6080D1*
X6282Y6061D1*
X6339D1*
X6378Y6080D1*
X6416Y6118D1*
X6591Y6329D2*
Y6061D1*
Y6214D2*
X6610Y6271D1*
X6648Y6310D1*
X6687Y6329D1*
X6744D1*
X7149D2*
Y6061D1*
Y6271D2*
X7111Y6310D1*
X7072Y6329D1*
X7015D1*
X6977Y6310D1*
X6939Y6271D1*
X6919Y6214D1*
Y6176D1*
X6939Y6118D1*
X6977Y6080D1*
X7015Y6061D1*
X7072D1*
X7111Y6080D1*
X7149Y6118D1*
X7554Y6271D2*
X7515Y6310D1*
X7477Y6329D1*
X7420D1*
X7381Y6310D1*
X7343Y6271D1*
X7324Y6214D1*
Y6176D1*
X7343Y6118D1*
X7381Y6080D1*
X7420Y6061D1*
X7477D1*
X7515Y6080D1*
X7554Y6118D1*
X7728Y6463D2*
Y6061D1*
Y6252D2*
X7786Y6310D1*
X7824Y6329D1*
X7882D1*
X7920Y6310D1*
X7939Y6252D1*
Y6061D1*
X8114Y6329D2*
Y6061D1*
Y6252D2*
X8171Y6310D1*
X8210Y6329D1*
X8267D1*
X8305Y6310D1*
X8324Y6252D1*
Y6061D1*
X8499Y6463D2*
X8518Y6444D1*
X8538Y6463D1*
X8518Y6482D1*
X8499Y6463D1*
X8518Y6329D2*
Y6061D1*
X8942Y6463D2*
Y6061D1*
Y6271D2*
X8904Y6310D1*
X8866Y6329D1*
X8808D1*
X8770Y6310D1*
X8732Y6271D1*
X8713Y6214D1*
Y6176D1*
X8732Y6118D1*
X8770Y6080D1*
X8808Y6061D1*
X8866D1*
X8904Y6080D1*
X8942Y6118D1*
X9117Y6463D2*
Y6061D1*
X9522Y6329D2*
Y6061D1*
Y6271D2*
X9484Y6310D1*
X9445Y6329D1*
X9388D1*
X9350Y6310D1*
X9312Y6271D1*
X9292Y6214D1*
Y6176D1*
X9312Y6118D1*
X9350Y6080D1*
X9388Y6061D1*
X9445D1*
X9484Y6080D1*
X9522Y6118D1*
X9697Y6463D2*
Y6061D1*
Y6271D2*
X9735Y6310D1*
X9773Y6329D1*
X9831D1*
X9869Y6310D1*
X9907Y6271D1*
X9926Y6214D1*
Y6176D1*
X9907Y6118D1*
X9869Y6080D1*
X9831Y6061D1*
X9773D1*
X9735Y6080D1*
X9697Y6118D1*
X10312Y6271D2*
X10293Y6310D1*
X10235Y6329D1*
X10178D1*
X10120Y6310D1*
X10101Y6271D1*
X10120Y6233D1*
X10159Y6214D1*
X10254Y6195D1*
X10293Y6176D1*
X10312Y6137D1*
Y6118D1*
X10293Y6080D1*
X10235Y6061D1*
X10178D1*
X10120Y6080D1*
X10101Y6118D1*
X10506Y6099D2*
X10487Y6080D1*
X10506Y6061D1*
X10525Y6080D1*
X10506Y6099D1*
X10930Y6271D2*
X10892Y6310D1*
X10853Y6329D1*
X10796D1*
X10758Y6310D1*
X10720Y6271D1*
X10700Y6214D1*
Y6176D1*
X10720Y6118D1*
X10758Y6080D1*
X10796Y6061D1*
X10853D1*
X10892Y6080D1*
X10930Y6118D1*
X11200Y6329D2*
X11162Y6310D1*
X11124Y6271D1*
X11105Y6214D1*
Y6176D1*
X11124Y6118D1*
X11162Y6080D1*
X11200Y6061D1*
X11258D1*
X11296Y6080D1*
X11334Y6118D1*
X11354Y6176D1*
Y6214D1*
X11334Y6271D1*
X11296Y6310D1*
X11258Y6329D1*
X11200D1*
X11529D2*
Y6061D1*
Y6252D2*
X11586Y6310D1*
X11625Y6329D1*
X11682D1*
X11720Y6310D1*
X11739Y6252D1*
Y6061D1*
Y6252D2*
X11797Y6310D1*
X11835Y6329D1*
X11892D1*
X11931Y6310D1*
X11950Y6252D1*
Y6061D1*
X12125D2*
X12393Y6462D1*
X12568Y6329D2*
Y6061D1*
Y6252D2*
X12626Y6310D1*
X12664Y6329D1*
X12721D1*
X12760Y6310D1*
X12779Y6252D1*
Y6061D1*
Y6252D2*
X12836Y6310D1*
X12875Y6329D1*
X12932D1*
X12970Y6310D1*
X12990Y6252D1*
Y6061D1*
X13165Y6463D2*
X13184Y6444D1*
X13203Y6463D1*
X13184Y6482D1*
X13165Y6463D1*
X13184Y6329D2*
Y6061D1*
X13378Y6329D2*
Y6061D1*
Y6252D2*
X13435Y6310D1*
X13474Y6329D1*
X13531D1*
X13569Y6310D1*
X13588Y6252D1*
Y6061D1*
X13763Y6463D2*
X13782Y6444D1*
X13802Y6463D1*
X13782Y6482D1*
X13763Y6463D1*
X13782Y6329D2*
Y6061D1*
X14187Y6271D2*
X14168Y6310D1*
X14111Y6329D1*
X14053D1*
X13996Y6310D1*
X13977Y6271D1*
X13996Y6233D1*
X14034Y6214D1*
X14130Y6195D1*
X14168Y6176D1*
X14187Y6137D1*
Y6118D1*
X14168Y6080D1*
X14111Y6061D1*
X14053D1*
X13996Y6080D1*
X13977Y6118D1*
X14362Y6463D2*
Y6061D1*
Y6252D2*
X14420Y6310D1*
X14458Y6329D1*
X14516D1*
X14554Y6310D1*
X14573Y6252D1*
Y6061D1*
X14748Y6463D2*
X14767Y6444D1*
X14786Y6463D1*
X14767Y6482D1*
X14748Y6463D1*
X14767Y6329D2*
Y6061D1*
X15114Y6463D2*
X15076D1*
X15038Y6444D1*
X15019Y6386D1*
Y6061D1*
X14961Y6329D2*
X15095D1*
X15347Y6463D2*
Y6137D1*
X15366Y6080D1*
X15404Y6061D1*
X15442D1*
X15289Y6329D2*
X15423D1*
X15617Y6061D2*
X15885Y6462D1*
X14047Y8086D2*
D54*
X14018Y8057D1*
X14004Y8014D1*
Y7957D1*
X14018Y7914D1*
X14047Y7885D1*
X14076D1*
X14105Y7899D1*
X14119Y7914D1*
X14133Y7942D1*
X14162Y8028D1*
X14176Y8057D1*
X14191Y8072D1*
X14219Y8086D1*
X14262D1*
X14291Y8057D1*
X14306Y8014D1*
Y7957D1*
X14291Y7914D1*
X14262Y7885D1*
X14105Y8289D2*
X14119Y8260D1*
X14148Y8231D1*
X14191Y8217D1*
X14219D1*
X14262Y8231D1*
X14291Y8260D1*
X14306Y8289D1*
Y8332D1*
X14291Y8361D1*
X14262Y8389D1*
X14219Y8404D1*
X14191D1*
X14148Y8389D1*
X14119Y8361D1*
X14105Y8332D1*
Y8289D1*
X14004Y8535D2*
X14306D1*
X14004Y8838D2*
X14306D1*
X14148D2*
X14119Y8810D1*
X14105Y8781D1*
Y8738D1*
X14119Y8709D1*
X14148Y8680D1*
X14191Y8666D1*
X14219D1*
X14262Y8680D1*
X14291Y8709D1*
X14306Y8738D1*
Y8781D1*
X14291Y8810D1*
X14262Y8838D1*
X14191Y8970D2*
Y9142D1*
X14162D1*
X14133Y9127D1*
X14119Y9113D1*
X14105Y9084D1*
Y9041D1*
X14119Y9013D1*
X14148Y8984D1*
X14191Y8970D1*
X14219D1*
X14262Y8984D1*
X14291Y9013D1*
X14306Y9041D1*
Y9084D1*
X14291Y9113D1*
X14262Y9142D1*
X14105Y9273D2*
X14306D1*
X14191D2*
X14148Y9287D1*
X14119Y9316D1*
X14105Y9345D1*
Y9388D1*
X14148Y10022D2*
X14119Y9993D1*
X14105Y9964D1*
Y9921D1*
X14119Y9893D1*
X14148Y9864D1*
X14191Y9849D1*
X14219D1*
X14262Y9864D1*
X14291Y9893D1*
X14306Y9921D1*
Y9964D1*
X14291Y9993D1*
X14262Y10022D1*
X14105Y10225D2*
X14119Y10196D1*
X14148Y10167D1*
X14191Y10153D1*
X14219D1*
X14262Y10167D1*
X14291Y10196D1*
X14306Y10225D1*
Y10268D1*
X14291Y10297D1*
X14262Y10325D1*
X14219Y10340D1*
X14191D1*
X14148Y10325D1*
X14119Y10297D1*
X14105Y10268D1*
Y10225D1*
Y10471D2*
X14306D1*
X14162D2*
X14119Y10514D1*
X14105Y10543D1*
Y10586D1*
X14119Y10615D1*
X14162Y10629D1*
X14306D1*
X14105Y10760D2*
X14306D1*
X14162D2*
X14119Y10803D1*
X14105Y10832D1*
Y10875D1*
X14119Y10904D1*
X14162Y10918D1*
X14306D1*
X14191Y11049D2*
Y11221D1*
X14162D1*
X14133Y11207D1*
X14119Y11193D1*
X14105Y11164D1*
Y11121D1*
X14119Y11092D1*
X14148Y11063D1*
X14191Y11049D1*
X14219D1*
X14262Y11063D1*
X14291Y11092D1*
X14306Y11121D1*
Y11164D1*
X14291Y11193D1*
X14262Y11221D1*
X14148Y11525D2*
X14119Y11496D1*
X14105Y11467D1*
Y11424D1*
X14119Y11396D1*
X14148Y11367D1*
X14191Y11353D1*
X14219D1*
X14262Y11367D1*
X14291Y11396D1*
X14306Y11424D1*
Y11467D1*
X14291Y11496D1*
X14262Y11525D1*
X14004Y11699D2*
X14248D1*
X14291Y11714D1*
X14306Y11742D1*
Y11771D1*
X14105Y11656D2*
Y11757D1*
Y11974D2*
X14119Y11945D1*
X14148Y11916D1*
X14191Y11902D1*
X14219D1*
X14262Y11916D1*
X14291Y11945D1*
X14306Y11974D1*
Y12017D1*
X14291Y12046D1*
X14262Y12074D1*
X14219Y12089D1*
X14191D1*
X14148Y12074D1*
X14119Y12046D1*
X14105Y12017D1*
Y11974D1*
Y12220D2*
X14306D1*
X14191D2*
X14148Y12235D1*
X14119Y12263D1*
X14105Y12292D1*
Y12335D1*
X14148Y12624D2*
X14119Y12610D1*
X14105Y12567D1*
Y12524D1*
X14119Y12481D1*
X14148Y12466D1*
X14176Y12481D1*
X14191Y12510D1*
X14205Y12581D1*
X14219Y12610D1*
X14248Y12624D1*
X14262D1*
X14291Y12610D1*
X14306Y12567D1*
Y12524D1*
X14291Y12481D1*
X14262Y12466D1*
X14578Y8311D2*
X14880D1*
X14722D2*
X14693Y8340D1*
X14679Y8368D1*
Y8411D1*
X14693Y8440D1*
X14722Y8469D1*
X14765Y8483D1*
X14793D1*
X14837Y8469D1*
X14865Y8440D1*
X14880Y8411D1*
Y8368D1*
X14865Y8340D1*
X14837Y8311D1*
X14765Y8614D2*
Y8786D1*
X14736D1*
X14707Y8772D1*
X14693Y8758D1*
X14679Y8729D1*
Y8686D1*
X14693Y8657D1*
X14722Y8628D1*
X14765Y8614D1*
X14793D1*
X14837Y8628D1*
X14865Y8657D1*
X14880Y8686D1*
Y8729D1*
X14865Y8758D1*
X14837Y8786D1*
X14578Y9032D2*
Y9004D1*
X14593Y8975D1*
X14636Y8960D1*
X14880D1*
X14679Y8917D2*
Y9018D1*
Y9235D2*
X14693Y9206D1*
X14722Y9178D1*
X14765Y9163D1*
X14793D1*
X14837Y9178D1*
X14865Y9206D1*
X14880Y9235D1*
Y9278D1*
X14865Y9307D1*
X14837Y9335D1*
X14793Y9350D1*
X14765D1*
X14722Y9335D1*
X14693Y9307D1*
X14679Y9278D1*
Y9235D1*
Y9481D2*
X14880D1*
X14765D2*
X14722Y9496D1*
X14693Y9524D1*
X14679Y9553D1*
Y9596D1*
X14765Y9728D2*
Y9900D1*
X14736D1*
X14707Y9885D1*
X14693Y9871D1*
X14679Y9842D1*
Y9799D1*
X14693Y9771D1*
X14722Y9742D1*
X14765Y9728D1*
X14793D1*
X14837Y9742D1*
X14865Y9771D1*
X14880Y9799D1*
Y9842D1*
X14865Y9871D1*
X14837Y9900D1*
X14578Y10533D2*
X14880D1*
X14722D2*
X14693Y10505D1*
X14679Y10476D1*
Y10433D1*
X14693Y10404D1*
X14722Y10375D1*
X14765Y10361D1*
X14793D1*
X14837Y10375D1*
X14865Y10404D1*
X14880Y10433D1*
Y10476D1*
X14865Y10505D1*
X14837Y10533D1*
X14578Y10664D2*
X14593Y10679D1*
X14578Y10693D1*
X14564Y10679D1*
X14578Y10664D1*
X14679Y10679D2*
X14880D1*
X14722Y10982D2*
X14693Y10968D1*
X14679Y10925D1*
Y10882D1*
X14693Y10839D1*
X14722Y10825D1*
X14750Y10839D1*
X14765Y10868D1*
X14779Y10939D1*
X14793Y10968D1*
X14822Y10982D1*
X14837D1*
X14865Y10968D1*
X14880Y10925D1*
Y10882D1*
X14865Y10839D1*
X14837Y10825D1*
X14679Y11114D2*
X14980D1*
X14722D2*
X14693Y11143D1*
X14679Y11171D1*
Y11214D1*
X14693Y11243D1*
X14722Y11272D1*
X14765Y11286D1*
X14794D1*
X14837Y11272D1*
X14865Y11243D1*
X14880Y11214D1*
Y11171D1*
X14865Y11143D1*
X14837Y11114D1*
X14578Y11417D2*
X14880D1*
X14679Y11721D2*
X14880D1*
X14722D2*
X14693Y11692D1*
X14679Y11663D1*
Y11621D1*
X14693Y11592D1*
X14722Y11563D1*
X14765Y11549D1*
X14793D1*
X14837Y11563D1*
X14865Y11592D1*
X14880Y11621D1*
Y11663D1*
X14865Y11692D1*
X14837Y11721D1*
X14679Y11866D2*
X14880Y11952D1*
X14937Y11924D1*
X14966Y11895D1*
X14980Y11866D1*
Y11852D1*
X14679Y12039D2*
X14880Y11952D1*
X14579Y12184D2*
X14779D1*
X14851D2*
X14865Y12170D1*
X14880Y12184D1*
X14865Y12199D1*
X14851Y12184D1*
M02*
