G04 DipTrace 2.3.1.0*
%INminishiftmaster_BottomPaste.gbp*%
%MOIN*%
%ADD43R,0.0394X0.0709*%
%ADD49R,0.0138X0.0295*%
%ADD53R,0.0118X0.063*%
%ADD55R,0.063X0.0118*%
%ADD69R,0.0354X0.0315*%
%ADD71R,0.0315X0.0354*%
%FSLAX44Y44*%
G04*
G70*
G90*
G75*
G01*
%LNBotPaste*%
%LPD*%
D71*
X9401Y12776D3*
Y13446D3*
X7236D3*
Y12777D3*
D69*
X5406Y12236D3*
X4736D3*
X5406Y12861D3*
X4736D3*
Y8236D3*
X5405D3*
D55*
X6242Y7161D3*
Y7476D3*
Y7791D3*
Y8106D3*
Y8421D3*
Y8736D3*
Y9051D3*
Y9366D3*
Y9681D3*
Y9996D3*
Y10311D3*
D53*
X6911Y10980D3*
X7226D3*
X7541D3*
X7856D3*
X8171D3*
X8486D3*
X8801D3*
X9116D3*
X9431D3*
X9746D3*
X10061D3*
D55*
X10730Y10311D3*
Y9996D3*
Y9681D3*
Y9366D3*
Y9051D3*
Y8736D3*
Y8421D3*
Y8106D3*
Y7791D3*
Y7476D3*
Y7161D3*
D53*
X10061Y6492D3*
X9746D3*
X9431D3*
X9116D3*
X8801D3*
X8486D3*
X8171D3*
X7856D3*
X7541D3*
X7226D3*
X6911D3*
D69*
X4736Y6986D3*
X5406D3*
X4736Y7611D3*
X5406D3*
D49*
X10986Y12736D3*
X10671D3*
X10356D3*
X10041D3*
Y13445D3*
X10356D3*
X10671D3*
X10986D3*
X11361Y7111D3*
X11676D3*
X11991D3*
X12306D3*
Y6403D3*
X11991D3*
X11676D3*
X11361D3*
D43*
X7861Y12361D3*
Y13818D3*
X8727D3*
Y12361D3*
M02*
