G04 DipTrace 2.3.1.0*
%INminishiftmaster_Top.gtl*%
%MOIN*%
%ADD13C,0.01*%
%ADD14C,0.0157*%
%ADD15C,0.016*%
%ADD16C,0.025*%
%ADD17C,0.013*%
%ADD20R,0.0531X0.0157*%
%ADD21O,0.0374X0.0492*%
%ADD22O,0.061X0.0394*%
%ADD23R,0.061X0.0571*%
%ADD24R,0.061X0.0591*%
%ADD25C,0.0709*%
%ADD26C,0.0236*%
%ADD29R,0.0709X0.0709*%
%ADD32C,0.0394*%
%ADD33C,0.031*%
%FSLAX44Y44*%
G04*
G70*
G90*
G75*
G01*
%LNTop*%
%LPD*%
X4361Y7611D2*
D13*
Y6611D1*
X4611Y6361D1*
X4861D1*
X6236Y7736D1*
Y9986D1*
X5986Y10236D1*
X5549D1*
X4736Y6611D2*
X5986Y7861D1*
Y9861D1*
X5867Y9980D1*
X5549D1*
X12486Y11236D2*
X13861D1*
X14111Y11486D1*
Y13486D1*
X5549Y10748D2*
D14*
X5748D1*
D15*
X5986Y10986D1*
Y11361D1*
X6486Y11861D1*
X7861D1*
X7986Y11986D1*
X11736D1*
X12486Y11236D1*
X7861Y10491D2*
Y11861D1*
X11361Y10361D2*
X11611D1*
X12486Y11236D1*
X6861Y13486D2*
X6111D1*
X5861Y13236D1*
X8986Y13111D2*
X8486Y12611D1*
X6486D1*
X5861Y13236D1*
X7861Y10491D2*
Y8361D1*
Y7486D1*
X6736Y8361D2*
X7861D1*
X5486Y12236D2*
Y12861D1*
X5861Y13236D1*
X12486Y9236D2*
D13*
X10611D1*
X10236Y8861D1*
Y8736D1*
X15111Y13986D2*
X15236D1*
X15361Y14111D1*
X5486Y8236D2*
X5111Y8611D1*
Y9486D1*
X12486Y8236D2*
X14361D1*
X14611Y8486D1*
Y13486D1*
X9111Y10236D2*
Y8361D1*
X9236Y8236D1*
X12486D1*
X11236Y9736D2*
X11986D1*
X10736Y10861D2*
X9111D1*
X8861Y10611D1*
Y7486D1*
X9361Y6986D1*
X4486Y11427D2*
Y10630D1*
Y9843D1*
Y9045D1*
Y8760D1*
Y11713D2*
Y11427D1*
X11486Y11486D2*
X11111Y11111D1*
X8861D1*
X8611Y10861D1*
Y7236D1*
X8736Y7111D1*
X8361D2*
Y11111D1*
X8611Y11361D1*
X10986D1*
X11111Y11486D1*
X12736Y13986D2*
Y14961D1*
X10486Y11611D2*
X8236D1*
X8111Y11486D1*
Y7236D1*
X7986Y7111D1*
X6861D1*
X6736Y6986D1*
Y5512D1*
X9736D2*
X9887D1*
X10736Y6361D1*
X13736Y14961D2*
X13762D1*
X14236Y14486D1*
X15861D1*
X15986Y14361D1*
Y12986D1*
X14861Y11861D1*
Y8486D1*
X13236Y6861D1*
X10736D1*
X14111Y13986D2*
X13861Y13736D1*
X12986D1*
X12486Y13236D1*
X12986Y13736D2*
X7486D1*
X6736Y12986D1*
X12486Y10236D2*
X14111D1*
X14361Y10486D1*
Y13236D1*
Y14236D2*
X14611Y13986D1*
X9986Y9986D2*
X12236D1*
X12486Y10236D1*
X14861Y12236D2*
Y13361D1*
X14986Y13486D1*
X15111D1*
X5549Y9724D2*
D14*
X5248D1*
D15*
X5111Y9861D1*
Y11361D1*
X5361Y11611D1*
X5736D1*
X6361Y12236D1*
X7361D1*
X12486D1*
X7486Y10486D2*
Y9611D1*
D26*
X4361Y7611D3*
X4736Y6611D3*
X7861Y10491D3*
X5986Y10986D3*
X11361Y10361D3*
X6861Y13486D3*
X5861Y13236D3*
X8986Y13111D3*
X5861Y13236D3*
X7861Y10491D3*
Y7486D3*
X6736Y8361D3*
X5861Y13236D3*
X10236Y8736D3*
X15361Y14111D3*
X5111Y9486D3*
X9111Y10236D3*
X11236Y9736D3*
X11986D3*
X10736Y10861D3*
X9361Y6986D3*
X11486Y11486D3*
X8736Y7111D3*
X8361D3*
X11111Y11486D3*
X12736Y13986D3*
X10486Y11611D3*
X10736Y6361D3*
Y6861D3*
X6736Y12986D3*
X14361Y13236D3*
Y14236D3*
X9986Y9986D3*
X14861Y12236D3*
X5361Y11611D3*
X7361Y12236D3*
X7486Y10486D3*
Y9611D3*
X9236Y7486D3*
X4347Y15902D2*
D16*
X4658D1*
X5814D2*
X14658D1*
X15814D2*
X16127D1*
X6021Y15653D2*
X14455D1*
X6111Y15405D2*
X6322D1*
X7150D2*
X7322D1*
X8150D2*
X8322D1*
X9150D2*
X9322D1*
X10150D2*
X10322D1*
X11150D2*
X11322D1*
X12150D2*
X12322D1*
X13150D2*
X13322D1*
X14150D2*
X14361D1*
X4347Y14658D2*
X4568D1*
X5903D2*
X6205D1*
X4347Y14410D2*
X4955D1*
X5517D2*
X6502D1*
X6970D2*
X7502D1*
X7970D2*
X8502D1*
X8970D2*
X9502D1*
X9970D2*
X10502D1*
X10970D2*
X11502D1*
X11970D2*
X12428D1*
X4347Y14161D2*
X12404D1*
X4347Y13912D2*
X7236D1*
X4347Y13664D2*
X6986D1*
X4347Y13415D2*
X6736D1*
X7591D2*
X12068D1*
X4347Y13166D2*
X6408D1*
X7345D2*
X12037D1*
X12939D2*
X13186D1*
X4347Y12918D2*
X6365D1*
X7107D2*
X12170D1*
X12802D2*
X13467D1*
X13755D2*
X14053D1*
X4347Y12669D2*
X6557D1*
X6915D2*
X12061D1*
X12911D2*
X14053D1*
X4347Y12420D2*
X5072D1*
X5903D2*
X6076D1*
X13071D2*
X14053D1*
X15849D2*
X16127D1*
X4347Y12172D2*
X5033D1*
X13099D2*
X14053D1*
X15599D2*
X16127D1*
X13009Y11923D2*
X14053D1*
X15353D2*
X16127D1*
X6271Y11674D2*
X7873D1*
X11810D2*
X12068D1*
X12903D2*
X14053D1*
X15173D2*
X16127D1*
X6021Y11426D2*
X7803D1*
X13068D2*
X14053D1*
X15173D2*
X16127D1*
X5997Y11177D2*
X7803D1*
X11681D2*
X11877D1*
X13099D2*
X14053D1*
X15173D2*
X16127D1*
X6075Y10928D2*
X7803D1*
X11357D2*
X11959D1*
X13013D2*
X14053D1*
X15173D2*
X16127D1*
X6075Y10679D2*
X7166D1*
X11064D2*
X12072D1*
X12900D2*
X14053D1*
X15173D2*
X16127D1*
X6220Y10431D2*
X7111D1*
X9431D2*
X11904D1*
X15173D2*
X16127D1*
X6470Y10182D2*
X7146D1*
X9486D2*
X9668D1*
X15173D2*
X16127D1*
X6548Y9933D2*
X7146D1*
X15173D2*
X16127D1*
X6548Y9685D2*
X7115D1*
X15173D2*
X16127D1*
X6548Y9436D2*
X7154D1*
X15173D2*
X16127D1*
X6548Y9187D2*
X7803D1*
X15173D2*
X16127D1*
X6548Y8939D2*
X7803D1*
X15173D2*
X16127D1*
X6548Y8690D2*
X7803D1*
X15173D2*
X16127D1*
X6548Y8441D2*
X7803D1*
X15169D2*
X16127D1*
X6548Y8193D2*
X7803D1*
X14997D2*
X16127D1*
X6548Y7944D2*
X7803D1*
X9173D2*
X11951D1*
X13025D2*
X13893D1*
X14747D2*
X16127D1*
X6544Y7695D2*
X7803D1*
X9173D2*
X12228D1*
X12743D2*
X13643D1*
X14497D2*
X16127D1*
X6376Y7447D2*
X7803D1*
X9329D2*
X13393D1*
X14251D2*
X16127D1*
X6126Y7198D2*
X6521D1*
X9669D2*
X10603D1*
X10868D2*
X13146D1*
X14001D2*
X16127D1*
X5876Y6949D2*
X6428D1*
X9736D2*
X10369D1*
X13751D2*
X16127D1*
X5630Y6700D2*
X6428D1*
X7048D2*
X9131D1*
X9595D2*
X10396D1*
X13505D2*
X16127D1*
X5380Y6452D2*
X6428D1*
X7048D2*
X10369D1*
X11103D2*
X16127D1*
X5130Y6203D2*
X6428D1*
X7048D2*
X10150D1*
X11075D2*
X16127D1*
X4347Y5954D2*
X4728D1*
X5743D2*
X6322D1*
X7150D2*
X7322D1*
X8150D2*
X8322D1*
X9150D2*
X9322D1*
X11150D2*
X11322D1*
X12150D2*
X12322D1*
X14349D2*
X14728D1*
X15743D2*
X16127D1*
X4347Y5706D2*
X4486D1*
X5989D2*
X6154D1*
X14349D2*
X14489D1*
X15989D2*
X16125D1*
X6079Y4960D2*
X6506D1*
X6966D2*
X7506D1*
X7966D2*
X8506D1*
X8966D2*
X9506D1*
X9966D2*
X10506D1*
X10966D2*
X11506D1*
X11966D2*
X12506D1*
X12966D2*
X13123D1*
X4347Y4711D2*
X4525D1*
X5946D2*
X14525D1*
X15946D2*
X16127D1*
X4347Y4462D2*
X4826D1*
X5646D2*
X14826D1*
X15646D2*
X16127D1*
X5959Y11062D2*
X6050D1*
Y10514D1*
X6173Y10452D1*
X6438Y10188D1*
X6505Y10079D1*
X6485Y10125D1*
X6521Y9986D1*
Y7736D1*
X6492Y7612D1*
X6510Y7659D1*
X6438Y7535D1*
X5063Y6160D1*
X4954Y6093D1*
X5000Y6112D1*
X4861Y6076D1*
X4611D1*
X4487Y6106D1*
X4534Y6087D1*
X4410Y6160D1*
X4324Y6245D1*
X4322Y4322D1*
X16151D1*
Y12748D1*
X15146Y11736D1*
Y8486D1*
X15117Y8362D1*
X15135Y8409D1*
X15063Y8285D1*
X13438Y6660D1*
X13329Y6593D1*
X13375Y6612D1*
X13236Y6576D1*
X11014D1*
X11077Y6454D1*
X11089Y6361D1*
X11067Y6239D1*
X11004Y6132D1*
X10929Y6070D1*
X11064Y6001D1*
X11160Y5921D1*
X11234Y5826D1*
X11365Y5969D1*
X11469Y6037D1*
X11586Y6082D1*
X11709Y6101D1*
X11834Y6093D1*
X11954Y6060D1*
X12064Y6001D1*
X12160Y5921D1*
X12234Y5826D1*
X12365Y5969D1*
X12469Y6037D1*
X12586Y6082D1*
X12709Y6101D1*
X12834Y6093D1*
X12954Y6060D1*
X13064Y6001D1*
X13145Y5934D1*
X13147Y6101D1*
X14326D1*
Y4922D1*
X13147D1*
Y5090D1*
X13024Y4998D1*
X12909Y4948D1*
X12787Y4925D1*
X12662Y4927D1*
X12541Y4956D1*
X12428Y5009D1*
X12329Y5086D1*
X12236Y5205D1*
X12210Y5162D1*
X12126Y5070D1*
X12024Y4998D1*
X11909Y4948D1*
X11787Y4925D1*
X11662Y4927D1*
X11541Y4956D1*
X11428Y5009D1*
X11329Y5086D1*
X11236Y5205D1*
X11210Y5162D1*
X11126Y5070D1*
X11024Y4998D1*
X10909Y4948D1*
X10787Y4925D1*
X10662Y4927D1*
X10541Y4956D1*
X10428Y5009D1*
X10329Y5086D1*
X10236Y5205D1*
X10210Y5162D1*
X10126Y5070D1*
X10024Y4998D1*
X9909Y4948D1*
X9787Y4925D1*
X9662Y4927D1*
X9541Y4956D1*
X9428Y5009D1*
X9329Y5086D1*
X9236Y5205D1*
X9210Y5162D1*
X9126Y5070D1*
X9024Y4998D1*
X8909Y4948D1*
X8787Y4925D1*
X8662Y4927D1*
X8541Y4956D1*
X8428Y5009D1*
X8329Y5086D1*
X8236Y5205D1*
X8210Y5162D1*
X8126Y5070D1*
X8024Y4998D1*
X7909Y4948D1*
X7787Y4925D1*
X7662Y4927D1*
X7541Y4956D1*
X7428Y5009D1*
X7329Y5086D1*
X7236Y5205D1*
X7210Y5162D1*
X7126Y5070D1*
X7024Y4998D1*
X6909Y4948D1*
X6787Y4925D1*
X6662Y4927D1*
X6541Y4956D1*
X6428Y5009D1*
X6329Y5086D1*
X6249Y5181D1*
X6190Y5291D1*
X6156Y5411D1*
X6147Y5535D1*
X6166Y5659D1*
X6209Y5776D1*
X6277Y5881D1*
X6365Y5969D1*
X6453Y6027D1*
X6451Y6986D1*
X6481Y7110D1*
X6535Y7188D1*
X6660Y7313D1*
X6761Y7377D1*
X6722Y7360D1*
X6861Y7396D1*
X7826D1*
Y9514D1*
X7754Y9382D1*
X7658Y9303D1*
X7541Y9262D1*
X7416Y9265D1*
X7301Y9311D1*
X7208Y9394D1*
X7150Y9504D1*
X7133Y9627D1*
X7171Y9765D1*
Y10326D1*
X7150Y10379D1*
X7133Y10502D1*
X7161Y10623D1*
X7228Y10728D1*
X7328Y10802D1*
X7447Y10837D1*
X7571Y10829D1*
X7685Y10778D1*
X7774Y10691D1*
X7825Y10582D1*
X7826Y11486D1*
X7856Y11610D1*
X7910Y11688D1*
X8035Y11813D1*
X8136Y11877D1*
X8097Y11860D1*
X8236Y11896D1*
X10279D1*
X10236Y11921D1*
X7521D1*
X7416Y11887D1*
X7291Y11890D1*
X7215Y11920D1*
X6490Y11921D1*
X5956Y11386D1*
X5971Y11280D1*
X5967Y11161D1*
X5957Y11065D1*
X4324Y12139D2*
X4378Y12141D1*
X4594Y12144D1*
X4684Y12135D1*
X4801Y12092D1*
X4900Y12017D1*
X4954Y11946D1*
X5026Y11948D1*
Y11725D1*
X5103Y11853D1*
X5194Y11920D1*
X5128Y11994D1*
X5082Y12083D1*
X5058Y12180D1*
X5057Y12279D1*
X5078Y12377D1*
X5121Y12467D1*
X5184Y12544D1*
X5263Y12606D1*
X5353Y12647D1*
X5451Y12667D1*
X5551Y12663D1*
X5647Y12637D1*
X5735Y12589D1*
X5809Y12523D1*
X5866Y12441D1*
X5903Y12348D1*
X5918Y12238D1*
X6138Y12459D1*
X6242Y12528D1*
X6361Y12551D1*
X7203Y12552D1*
X7322Y12587D1*
X7446Y12579D1*
X7507Y12552D1*
X11990Y12551D1*
X12027Y12605D1*
X12115Y12694D1*
X12219Y12762D1*
X12336Y12806D1*
X12394Y12815D1*
X12296Y12848D1*
X12193Y12919D1*
X12115Y13015D1*
X12067Y13131D1*
X12055Y13255D1*
X12078Y13377D1*
X12111Y13451D1*
X7599Y13446D1*
X7083Y12930D1*
X7067Y12864D1*
X7004Y12757D1*
X6908Y12678D1*
X6791Y12637D1*
X6666Y12640D1*
X6551Y12686D1*
X6458Y12769D1*
X6400Y12879D1*
X6383Y13002D1*
X6411Y13123D1*
X6478Y13228D1*
X6578Y13302D1*
X6679Y13332D1*
X7285Y13938D1*
X7393Y14005D1*
X7347Y13985D1*
X7486Y14021D1*
X12389D1*
X12411Y14123D1*
X12451Y14185D1*
Y14443D1*
X12329Y14534D1*
X12236Y14654D1*
X12210Y14610D1*
X12126Y14518D1*
X12024Y14446D1*
X11909Y14397D1*
X11787Y14373D1*
X11662Y14376D1*
X11541Y14405D1*
X11428Y14458D1*
X11329Y14534D1*
X11236Y14654D1*
X11210Y14610D1*
X11126Y14518D1*
X11024Y14446D1*
X10909Y14397D1*
X10787Y14373D1*
X10662Y14376D1*
X10541Y14405D1*
X10428Y14458D1*
X10329Y14534D1*
X10236Y14654D1*
X10210Y14610D1*
X10126Y14518D1*
X10024Y14446D1*
X9909Y14397D1*
X9787Y14373D1*
X9662Y14376D1*
X9541Y14405D1*
X9428Y14458D1*
X9329Y14534D1*
X9236Y14654D1*
X9210Y14610D1*
X9126Y14518D1*
X9024Y14446D1*
X8909Y14397D1*
X8787Y14373D1*
X8662Y14376D1*
X8541Y14405D1*
X8428Y14458D1*
X8329Y14534D1*
X8236Y14654D1*
X8210Y14610D1*
X8126Y14518D1*
X8024Y14446D1*
X7909Y14397D1*
X7787Y14373D1*
X7662Y14376D1*
X7541Y14405D1*
X7428Y14458D1*
X7329Y14534D1*
X7236Y14654D1*
X7210Y14610D1*
X7126Y14518D1*
X7024Y14446D1*
X6909Y14397D1*
X6787Y14373D1*
X6662Y14376D1*
X6541Y14405D1*
X6428Y14458D1*
X6329Y14534D1*
X6249Y14630D1*
X6190Y14740D1*
X6156Y14860D1*
X6147Y14984D1*
X6166Y15108D1*
X6209Y15224D1*
X6277Y15330D1*
X6365Y15418D1*
X6469Y15486D1*
X6586Y15530D1*
X6709Y15549D1*
X6834Y15542D1*
X6954Y15508D1*
X7064Y15450D1*
X7160Y15370D1*
X7234Y15275D1*
X7365Y15418D1*
X7469Y15486D1*
X7586Y15530D1*
X7709Y15549D1*
X7834Y15542D1*
X7954Y15508D1*
X8064Y15450D1*
X8160Y15370D1*
X8234Y15275D1*
X8365Y15418D1*
X8469Y15486D1*
X8586Y15530D1*
X8709Y15549D1*
X8834Y15542D1*
X8954Y15508D1*
X9064Y15450D1*
X9160Y15370D1*
X9234Y15275D1*
X9365Y15418D1*
X9469Y15486D1*
X9586Y15530D1*
X9709Y15549D1*
X9834Y15542D1*
X9954Y15508D1*
X10064Y15450D1*
X10160Y15370D1*
X10234Y15275D1*
X10365Y15418D1*
X10469Y15486D1*
X10586Y15530D1*
X10709Y15549D1*
X10834Y15542D1*
X10954Y15508D1*
X11064Y15450D1*
X11160Y15370D1*
X11234Y15275D1*
X11365Y15418D1*
X11469Y15486D1*
X11586Y15530D1*
X11709Y15549D1*
X11834Y15542D1*
X11954Y15508D1*
X12064Y15450D1*
X12160Y15370D1*
X12234Y15275D1*
X12365Y15418D1*
X12469Y15486D1*
X12586Y15530D1*
X12709Y15549D1*
X12834Y15542D1*
X12954Y15508D1*
X13064Y15450D1*
X13160Y15370D1*
X13234Y15275D1*
X13365Y15418D1*
X13469Y15486D1*
X13586Y15530D1*
X13709Y15549D1*
X13834Y15542D1*
X13954Y15508D1*
X14064Y15450D1*
X14160Y15370D1*
X14237Y15272D1*
X14291Y15160D1*
X14320Y15038D1*
X14326Y14961D1*
X14306Y14818D1*
X14361Y14771D1*
X14506D1*
X14438Y14903D1*
X14398Y15021D1*
X14376Y15144D1*
X14372Y15269D1*
X14386Y15393D1*
X14417Y15514D1*
X14465Y15629D1*
X14530Y15736D1*
X14609Y15832D1*
X14702Y15916D1*
X14805Y15986D1*
X14918Y16040D1*
X15037Y16078D1*
X15160Y16098D1*
X15285Y16100D1*
X15409Y16084D1*
X15529Y16050D1*
X15643Y15999D1*
X15749Y15933D1*
X15844Y15852D1*
X15926Y15758D1*
X15994Y15653D1*
X16046Y15540D1*
X16082Y15420D1*
X16101Y15236D1*
X16092Y15112D1*
X16065Y14990D1*
X16021Y14873D1*
X15954Y14754D1*
X16007Y14731D1*
X16150Y14601D1*
X16151Y16151D1*
X4322D1*
Y12139D1*
X13062Y12112D2*
X13023Y11994D1*
X12960Y11886D1*
X12876Y11794D1*
X12796Y11738D1*
X12892Y11663D1*
X12973Y11568D1*
X13032Y11458D1*
X13067Y11339D1*
X13075Y11211D1*
X13057Y11088D1*
X13013Y10971D1*
X12945Y10866D1*
X12857Y10778D1*
X12798Y10736D1*
X12910Y10646D1*
X12999Y10523D1*
X13990Y10521D1*
X14078Y10606D1*
X14076Y12236D1*
Y13029D1*
X14025Y13106D1*
X13986Y13117D1*
X13894Y13006D1*
X13789Y12939D1*
X13669Y12905D1*
X13545Y12906D1*
X13426Y12943D1*
X13322Y13012D1*
X13242Y13107D1*
X13192Y13221D1*
X13176Y13345D1*
X13193Y13448D1*
X13099Y13446D1*
X12914Y13261D1*
X12900Y13113D1*
X12848Y13000D1*
X12765Y12907D1*
X12660Y12841D1*
X12581Y12819D1*
X12704Y12784D1*
X12814Y12726D1*
X12910Y12646D1*
X12987Y12547D1*
X13041Y12435D1*
X13070Y12314D1*
X13076Y12236D1*
X13062Y12112D1*
X12175Y11736D2*
X12079Y11810D1*
X11989Y11922D1*
X10654Y11921D1*
X10685Y11903D1*
X10774Y11816D1*
X10828Y11695D1*
X10853Y11728D1*
X10953Y11802D1*
X11072Y11837D1*
X11196Y11829D1*
X11299Y11783D1*
X11328Y11802D1*
X11447Y11837D1*
X11571Y11829D1*
X11685Y11778D1*
X11774Y11691D1*
X11827Y11579D1*
X11839Y11486D1*
X11817Y11364D1*
X11754Y11257D1*
X11658Y11178D1*
X11537Y11137D1*
X11313Y10910D1*
X11204Y10843D1*
X11250Y10862D1*
X11111Y10826D1*
X11084D1*
X11067Y10739D1*
X11004Y10632D1*
X10908Y10553D1*
X10791Y10512D1*
X10666Y10515D1*
X10551Y10561D1*
X10530Y10579D1*
X9486Y10576D1*
X9224Y10571D1*
X9310Y10528D1*
X9399Y10441D1*
X9452Y10329D1*
X9464Y10236D1*
X9442Y10114D1*
X9397Y10037D1*
X9396Y9982D1*
X9631Y9987D1*
X9661Y10123D1*
X9728Y10228D1*
X9828Y10302D1*
X9947Y10337D1*
X10071Y10329D1*
X10193Y10270D1*
X11896Y10271D1*
X11916Y10383D1*
X11959Y10500D1*
X12027Y10605D1*
X12115Y10694D1*
X12177Y10734D1*
X12079Y10810D1*
X11999Y10905D1*
X11940Y11015D1*
X11906Y11135D1*
X11897Y11260D1*
X11916Y11383D1*
X11959Y11500D1*
X12027Y11605D1*
X12115Y11694D1*
X12175Y11737D1*
X12998Y7950D2*
X12960Y7886D1*
X12876Y7794D1*
X12774Y7722D1*
X12659Y7673D1*
X12537Y7649D1*
X12412Y7652D1*
X12291Y7680D1*
X12178Y7734D1*
X12079Y7810D1*
X11999Y7905D1*
X11975Y7950D1*
X9201Y7953D1*
X9146Y7861D1*
X9151Y7599D1*
X9414Y7337D1*
X9560Y7278D1*
X9649Y7191D1*
X9702Y7079D1*
X9714Y6986D1*
X9692Y6864D1*
X9629Y6757D1*
X9533Y6678D1*
X9416Y6637D1*
X9291Y6640D1*
X9176Y6686D1*
X9083Y6769D1*
X9025Y6879D1*
X9021Y6906D1*
X9004Y6882D1*
X8908Y6803D1*
X8791Y6762D1*
X8666Y6765D1*
X8548Y6813D1*
X8416Y6762D1*
X8291Y6765D1*
X8176Y6811D1*
X8121Y6860D1*
X8007Y6827D1*
X7021Y6826D1*
Y6029D1*
X7160Y5921D1*
X7234Y5826D1*
X7365Y5969D1*
X7469Y6037D1*
X7586Y6082D1*
X7709Y6101D1*
X7834Y6093D1*
X7954Y6060D1*
X8064Y6001D1*
X8160Y5921D1*
X8234Y5826D1*
X8365Y5969D1*
X8469Y6037D1*
X8586Y6082D1*
X8709Y6101D1*
X8834Y6093D1*
X8954Y6060D1*
X9064Y6001D1*
X9160Y5921D1*
X9234Y5826D1*
X9365Y5969D1*
X9469Y6037D1*
X9586Y6082D1*
X9709Y6101D1*
X9834Y6093D1*
X9954Y6060D1*
X10006Y6032D1*
X10390Y6418D1*
X10411Y6498D1*
X10488Y6610D1*
X10458Y6644D1*
X10400Y6754D1*
X10383Y6877D1*
X10411Y6998D1*
X10478Y7103D1*
X10578Y7177D1*
X10697Y7212D1*
X10821Y7204D1*
X10943Y7145D1*
X13115Y7146D1*
X13921Y7949D1*
X13006Y7951D1*
X6092Y15112D2*
X6065Y14990D1*
X6021Y14873D1*
X5961Y14764D1*
X5885Y14664D1*
X5796Y14577D1*
X5695Y14503D1*
X5585Y14445D1*
X5467Y14403D1*
X5345Y14378D1*
X5220Y14371D1*
X5096Y14383D1*
X4974Y14412D1*
X4858Y14458D1*
X4750Y14521D1*
X4652Y14598D1*
X4566Y14689D1*
X4495Y14791D1*
X4438Y14903D1*
X4398Y15021D1*
X4376Y15144D1*
X4372Y15269D1*
X4386Y15393D1*
X4417Y15514D1*
X4465Y15629D1*
X4530Y15736D1*
X4609Y15832D1*
X4702Y15916D1*
X4805Y15986D1*
X4918Y16040D1*
X5037Y16078D1*
X5160Y16098D1*
X5285Y16100D1*
X5409Y16084D1*
X5529Y16050D1*
X5643Y15999D1*
X5749Y15933D1*
X5844Y15852D1*
X5926Y15758D1*
X5994Y15653D1*
X6046Y15540D1*
X6082Y15420D1*
X6101Y15236D1*
X6092Y15112D1*
X16092Y5112D2*
X16065Y4990D1*
X16021Y4873D1*
X15961Y4764D1*
X15885Y4664D1*
X15796Y4577D1*
X15695Y4503D1*
X15585Y4445D1*
X15467Y4403D1*
X15345Y4378D1*
X15220Y4371D1*
X15096Y4383D1*
X14974Y4412D1*
X14858Y4458D1*
X14750Y4521D1*
X14652Y4598D1*
X14566Y4689D1*
X14495Y4791D1*
X14438Y4903D1*
X14398Y5021D1*
X14376Y5144D1*
X14372Y5269D1*
X14386Y5393D1*
X14417Y5514D1*
X14465Y5629D1*
X14530Y5736D1*
X14609Y5832D1*
X14702Y5916D1*
X14805Y5986D1*
X14918Y6040D1*
X15037Y6078D1*
X15160Y6098D1*
X15285Y6100D1*
X15409Y6084D1*
X15529Y6050D1*
X15643Y5999D1*
X15749Y5933D1*
X15844Y5852D1*
X15926Y5758D1*
X15994Y5653D1*
X16046Y5540D1*
X16082Y5420D1*
X16101Y5236D1*
X16092Y5112D1*
X6092D2*
X6065Y4990D1*
X6021Y4873D1*
X5961Y4764D1*
X5885Y4664D1*
X5796Y4577D1*
X5695Y4503D1*
X5585Y4445D1*
X5467Y4403D1*
X5345Y4378D1*
X5220Y4371D1*
X5096Y4383D1*
X4974Y4412D1*
X4858Y4458D1*
X4750Y4521D1*
X4652Y4598D1*
X4566Y4689D1*
X4495Y4791D1*
X4438Y4903D1*
X4398Y5021D1*
X4376Y5144D1*
X4372Y5269D1*
X4386Y5393D1*
X4417Y5514D1*
X4465Y5629D1*
X4530Y5736D1*
X4609Y5832D1*
X4702Y5916D1*
X4805Y5986D1*
X4918Y6040D1*
X5037Y6078D1*
X5160Y6098D1*
X5285Y6100D1*
X5409Y6084D1*
X5529Y6050D1*
X5643Y5999D1*
X5749Y5933D1*
X5844Y5852D1*
X5926Y5758D1*
X5994Y5653D1*
X6046Y5540D1*
X6082Y5420D1*
X6101Y5236D1*
X6092Y5112D1*
X5549Y10748D2*
D17*
X6049D1*
X11897Y11236D2*
X13075D1*
X5486Y12668D2*
Y12236D1*
X5055D2*
X5918D1*
X14111Y13486D2*
Y13097D1*
D20*
X5549Y10748D3*
Y10492D3*
Y10236D3*
Y9980D3*
Y9724D3*
D21*
Y11220D3*
Y9252D3*
D22*
X4486Y11713D3*
Y8760D3*
D23*
Y11427D3*
Y9045D3*
D24*
Y10630D3*
Y9843D3*
D25*
X12486Y12236D3*
Y11236D3*
Y10236D3*
Y9236D3*
Y8236D3*
D29*
X13736Y5512D3*
D25*
X12736D3*
X11736D3*
X10736D3*
X9736D3*
X8736D3*
X7736D3*
X6736D3*
Y14961D3*
X7736D3*
X8736D3*
X9736D3*
X10736D3*
X11736D3*
X12736D3*
X13736D3*
D32*
X12486Y13236D3*
X5486Y8236D3*
Y12236D3*
D33*
X15111Y13486D3*
X14611D3*
X14111D3*
Y13986D3*
X14611D3*
X15111D3*
G36*
X9296Y9431D2*
X9416Y9752D1*
X10136D1*
X10256Y9431D1*
X10176Y9271D1*
X9336D1*
D1*
X9296Y9431D1*
G37*
M02*
