G04 DipTrace 2.3.1.0*
%INminishiftmaster_BottomMask.gbs*%
%MOIN*%
%ADD36C,0.126*%
%ADD37C,0.04*%
%ADD42R,0.0551X0.0866*%
%ADD48R,0.0295X0.0453*%
%ADD50R,0.0787X0.0787*%
%ADD52R,0.0276X0.0787*%
%ADD54R,0.0787X0.0276*%
%ADD56C,0.0787*%
%ADD62O,0.0689X0.0472*%
%ADD64O,0.0453X0.0571*%
%ADD68R,0.0512X0.0472*%
%ADD70R,0.0472X0.0512*%
%FSLAX44Y44*%
G04*
G70*
G90*
G75*
G01*
%LNBotMask*%
%LPD*%
D70*
X9401Y12776D3*
Y13446D3*
X7236D3*
Y12777D3*
D68*
X5406Y12236D3*
X4736D3*
X5406Y12861D3*
X4736D3*
Y8236D3*
X5405D3*
D64*
X5549Y11220D3*
Y9252D3*
D62*
X4486Y11713D3*
Y8760D3*
D56*
X12486Y12236D3*
Y11236D3*
Y10236D3*
Y9236D3*
Y8236D3*
D36*
X5236Y15236D3*
X15236D3*
Y5236D3*
X5236D3*
D54*
X6242Y7161D3*
Y7476D3*
Y7791D3*
Y8106D3*
Y8421D3*
Y8736D3*
Y9051D3*
Y9366D3*
Y9681D3*
Y9996D3*
Y10311D3*
D52*
X6911Y10980D3*
X7226D3*
X7541D3*
X7856D3*
X8171D3*
X8486D3*
X8801D3*
X9116D3*
X9431D3*
X9746D3*
X10061D3*
D54*
X10730Y10311D3*
Y9996D3*
Y9681D3*
Y9366D3*
Y9051D3*
Y8736D3*
Y8421D3*
Y8106D3*
Y7791D3*
Y7476D3*
Y7161D3*
D52*
X10061Y6492D3*
X9746D3*
X9431D3*
X9116D3*
X8801D3*
X8486D3*
X8171D3*
X7856D3*
X7541D3*
X7226D3*
X6911D3*
D50*
X13736Y5512D3*
D56*
X12736D3*
X11736D3*
X10736D3*
X9736D3*
X8736D3*
X7736D3*
X6736D3*
Y14961D3*
X7736D3*
X8736D3*
X9736D3*
X10736D3*
X11736D3*
X12736D3*
X13736D3*
D68*
X4736Y6986D3*
X5406D3*
X4736Y7611D3*
X5406D3*
D48*
X10986Y12736D3*
X10671D3*
X10356D3*
X10041D3*
Y13445D3*
X10356D3*
X10671D3*
X10986D3*
X11361Y7111D3*
X11676D3*
X11991D3*
X12306D3*
Y6403D3*
X11991D3*
X11676D3*
X11361D3*
D37*
X15611Y13736D3*
X13611Y13336D3*
Y14136D3*
D42*
X7861Y12361D3*
Y13818D3*
X8727D3*
Y12361D3*
M02*
