G04 DipTrace 2.3.1.0*
%INminishiftjig_TopMask.gts*%
%MOIN*%
%ADD21C,0.126*%
%ADD27R,0.0866X0.0315*%
%ADD29R,0.0512X0.0472*%
%ADD31C,0.0899*%
%ADD33C,0.0719*%
%FSLAX44Y44*%
G04*
G70*
G90*
G75*
G01*
%LNTopMask*%
%LPD*%
D33*
X8187Y4937D3*
X9187D3*
X10187D3*
X11187D3*
X12187D3*
X13187D3*
X14187D3*
X15187D3*
X17187D3*
X18187D3*
X19187D3*
X20187D3*
X21187D3*
X22187D3*
Y23937D3*
X21187D3*
X20187D3*
X19187D3*
X18187D3*
X17187D3*
X16187D3*
X15187D3*
X13587D3*
X12587D3*
X11587D3*
X10587D3*
X9587D3*
X8587D3*
X7587D3*
X6587D3*
X5587D3*
X4587D3*
D31*
X12187Y7713D3*
X13187D3*
X14187D3*
X15187D3*
X16187D3*
X17187D3*
X18187D3*
X19187D3*
Y17161D3*
X18187D3*
X17187D3*
X16187D3*
X15187D3*
X14187D3*
X13187D3*
X12187D3*
X17937Y14437D3*
Y13437D3*
D29*
X22937Y9937D3*
X23606D3*
X22937Y11437D3*
X23606D3*
X22937Y12937D3*
X23606D3*
D21*
X23187Y17937D3*
Y6937D3*
X8187Y17937D3*
Y6937D3*
D29*
X22937Y8437D3*
X23606D3*
D31*
X17937Y15437D3*
X10937Y10437D3*
X17937D3*
Y12437D3*
X10937Y13437D3*
Y12437D3*
X17937Y11437D3*
X10937D3*
D27*
X15750Y8437D3*
Y8937D3*
Y9437D3*
Y9937D3*
Y10437D3*
Y10937D3*
Y11437D3*
Y11937D3*
X13624D3*
Y11437D3*
Y10937D3*
Y10437D3*
Y9937D3*
Y9437D3*
Y8937D3*
Y8437D3*
Y16437D3*
Y15937D3*
Y15437D3*
Y14937D3*
Y14437D3*
Y13937D3*
Y13437D3*
Y12937D3*
X15750D3*
Y13437D3*
Y13937D3*
Y14437D3*
Y14937D3*
Y15437D3*
Y15937D3*
Y16437D3*
M02*
