M48
INCH
T01C0.0118
T02C0.032
T03C0.041
T04C0.126
%
T01
X+012937Y+012937
X+014437Y+012937
X+014437Y+011437
X+016437Y+011937
X+019937Y+012187
X+020187Y+011937
X+022437Y+008437
X+012937Y+008437
X+012937Y+008937
X+012937Y+015937
X+012937Y+016437
X+012187Y+015937
X+011937Y+016437
X+015187Y+015937
T02
X+008187Y+004937
X+009187Y+004937
X+010187Y+004937
X+011187Y+004937
X+012187Y+004937
X+013187Y+004937
X+014187Y+004937
X+015187Y+004937
X+017187Y+004937
X+018187Y+004937
X+019187Y+004937
X+020187Y+004937
X+021187Y+004937
X+022187Y+004937
X+022187Y+023937
X+021187Y+023937
X+020187Y+023937
X+019187Y+023937
X+018187Y+023937
X+017187Y+023937
X+016187Y+023937
X+015187Y+023937
X+013587Y+023937
X+012587Y+023937
X+011587Y+023937
X+010587Y+023937
X+009587Y+023937
X+008587Y+023937
X+007587Y+023937
X+006587Y+023937
X+005587Y+023937
X+004587Y+023937
T03
X+012187Y+007713
X+013187Y+007713
X+014187Y+007713
X+015187Y+007713
X+016187Y+007713
X+017187Y+007713
X+018187Y+007713
X+019187Y+007713
X+017937Y+010437
X+017937Y+011437
X+017937Y+012437
X+017937Y+013437
X+017937Y+014437
X+017937Y+015437
X+018187Y+017161
X+017187Y+017161
X+016187Y+017161
X+015187Y+017161
X+014187Y+017161
X+013187Y+017161
X+012187Y+017161
X+010937Y+013437
X+010937Y+012437
X+010937Y+011437
X+010937Y+010437
X+019187Y+017161
T04
X+023187Y+017937
X+023187Y+006937
X+008187Y+006937
X+008187Y+017937
T00
M30
