G04 DipTrace 2.3.1.0*
%INminishiftjig_Bottom.gbl*%
%MOIN*%
%ADD13C,0.01*%
%ADD15C,0.064*%
%ADD16C,0.082*%
%ADD19C,0.0236*%
%FSLAX44Y44*%
G04*
G70*
G90*
G75*
G01*
%LNBottom*%
%LPD*%
X12937Y12937D2*
D13*
X13437Y13437D1*
X17937D1*
X16437Y11937D2*
X17937Y13437D1*
X18691Y12683D1*
X19937Y11437D1*
Y8937D1*
Y8437D1*
Y5687D1*
X19687Y5437D1*
X13687D1*
X13187Y4937D1*
X15187Y15937D2*
X15437Y16187D1*
X18187D1*
X18691Y15683D1*
Y12683D1*
X12937Y8937D2*
X19937D1*
X22437Y8437D2*
X19937D1*
X20187Y23937D2*
X19687Y24437D1*
X18937D1*
X18687Y24187D1*
Y23687D1*
X19937Y22437D1*
Y12187D1*
X20187Y11937D2*
Y22937D1*
X19187Y23937D1*
X14437Y11437D2*
Y12937D1*
X17937Y10437D2*
X17187Y9687D1*
X10687D1*
X10187Y10187D1*
Y23337D1*
X9587Y23937D1*
X10587D2*
Y14787D1*
X11687Y13687D1*
Y11187D1*
X10937Y10437D1*
X12937Y15937D2*
X12187D1*
X11437D1*
X11187Y16187D1*
Y19937D1*
X15187Y23937D1*
X12937Y16437D2*
X11937D1*
X11437Y16937D1*
Y19187D1*
X16187Y23937D1*
X17937Y15437D2*
X11437D1*
X10937Y15937D1*
Y23287D1*
X11587Y23937D1*
X17937Y12437D2*
X18687Y11687D1*
Y10187D1*
X17937Y9437D1*
X10437D1*
X9687Y10187D1*
Y22837D1*
X8587Y23937D1*
X12937Y8437D2*
X11937D1*
X11437Y7937D1*
Y5687D1*
X12187Y4937D1*
D19*
X12937Y12937D3*
X16437Y11937D3*
X15187Y15937D3*
X12937Y8937D3*
X22437Y8437D3*
X19937Y12187D3*
X20187Y11937D3*
X14437Y11437D3*
Y12937D3*
X12937Y15937D3*
X12187D3*
X12937Y16437D3*
X11937D3*
X12937Y8437D3*
D15*
X8187Y4937D3*
X9187D3*
X10187D3*
X11187D3*
X12187D3*
X13187D3*
X14187D3*
X15187D3*
X17187D3*
X18187D3*
X19187D3*
X20187D3*
X21187D3*
X22187D3*
Y23937D3*
X21187D3*
X20187D3*
X19187D3*
X18187D3*
X17187D3*
X16187D3*
X15187D3*
X13587D3*
X12587D3*
X11587D3*
X10587D3*
X9587D3*
X8587D3*
X7587D3*
X6587D3*
X5587D3*
X4587D3*
D16*
X12187Y7713D3*
X13187D3*
X14187D3*
X15187D3*
X16187D3*
X17187D3*
X18187D3*
X19187D3*
Y17161D3*
X18187D3*
X17187D3*
X16187D3*
X15187D3*
X14187D3*
X13187D3*
X12187D3*
X17937Y14437D3*
Y13437D3*
Y15437D3*
X10937Y10437D3*
X17937D3*
Y12437D3*
X10937Y13437D3*
Y12437D3*
X17937Y11437D3*
X10937D3*
M02*
