M48
INCH
T01C0.0118
T02C0.04
T03C0.041
T04C0.126
%
T01
X+009891Y+006425
X+009187Y+006653
X+011415Y+008301
X+011415Y+008641
X+011824Y+008937
X+012052Y+009437
X+011187Y+009937
X+010957Y+009165
X+010957Y+010937
X+009415Y+010437
X+009415Y+012917
X+011345Y+013937
X+011573Y+014937
X+012052Y+015437
X+014178Y+014437
X+013584Y+013165
X+015643Y+014209
X+016187Y+014665
X+015415Y+016437
X+018187Y+011437
X+017437Y+009849
X+017957Y+009349
X+019187Y+009937
X+015322Y+010437
X+014178Y+009937
X+013356Y+009437
X+010587Y+022190
X+008199Y+022864
X+016867Y+023199
T02
X+005187Y+004937
X+006187Y+004937
X+007187Y+004937
X+008187Y+004937
X+009187Y+004937
X+010187Y+004937
X+011187Y+004937
X+012187Y+004937
X+014187Y+004937
X+015187Y+004937
X+016187Y+004937
X+017187Y+004937
X+018187Y+004937
X+019187Y+004937
X+019187Y+023937
X+018187Y+023937
X+017187Y+023937
X+016187Y+023937
X+015187Y+023937
X+014187Y+023937
X+013187Y+023937
X+012187Y+023937
X+010587Y+023937
X+009587Y+023937
X+008587Y+023937
X+007587Y+023937
X+006587Y+023937
X+005587Y+023937
X+004587Y+023937
T03
X+009187Y+007713
X+010187Y+007713
X+011187Y+007713
X+012187Y+007713
X+013187Y+007713
X+014187Y+007713
X+015187Y+007713
X+016187Y+007713
X+017437Y+010437
X+017437Y+011437
X+017437Y+012437
X+017437Y+013437
X+017437Y+014437
X+016187Y+017161
X+015187Y+017161
X+014187Y+017161
X+013187Y+017161
X+012187Y+017161
X+011187Y+017161
X+010187Y+017161
X+009187Y+017161
X+010437Y+015437
X+010437Y+013437
X+010437Y+012437
X+010437Y+011437
X+010437Y+010437
T04
X+020187Y+017937
X+020187Y+006937
X+005187Y+006937
X+005187Y+017937
T00
M30
