G04 DipTrace 2.3.1.0*
%INinterface_Bottom.gbl*%
%MOIN*%
%ADD13C,0.02*%
%ADD14C,0.01*%
%ADD15C,0.025*%
%ADD21O,0.0374X0.0492*%
%ADD22O,0.061X0.0394*%
%ADD25C,0.08*%
%ADD29C,0.0236*%
%FSLAX44Y44*%
G04*
G70*
G90*
G75*
G01*
%LNBottom*%
%LPD*%
X11064Y13189D2*
D13*
X10312D1*
X9564D1*
X6062Y9687D1*
X7062Y7987D2*
Y8687D1*
X6062Y9687D1*
X9812Y6812D2*
Y7187D1*
X7812D1*
X7037Y7962D1*
X7062Y7987D1*
X10437Y7562D2*
X10152D1*
X9812Y7222D1*
Y7187D1*
X13812Y5812D2*
X10812D1*
X9812Y6812D1*
X6812Y11437D2*
Y10491D1*
X6062Y9687D1*
X11937Y11812D2*
D14*
Y8862D1*
X12562Y8237D1*
X10562Y11687D2*
Y12812D1*
D29*
X11064Y13189D3*
X6062Y9687D3*
X7062Y7987D3*
X9812Y6812D3*
X7062Y7987D3*
X10312Y13189D3*
X10437Y7562D3*
X13812Y5812D3*
X9812Y6812D3*
X6812Y11437D3*
X11937Y11812D3*
X10562Y11687D3*
Y12812D3*
X4347Y15903D2*
D15*
X4662D1*
X5814D2*
X14662D1*
X15814D2*
X16127D1*
X4347Y15655D2*
X4455D1*
X6021D2*
X14455D1*
X16021D2*
X16125D1*
X6111Y15406D2*
X14365D1*
X6122Y15157D2*
X14350D1*
X6064Y14909D2*
X14412D1*
X4347Y14660D2*
X4568D1*
X5907D2*
X14568D1*
X15907D2*
X16127D1*
X4347Y14411D2*
X4955D1*
X5521D2*
X14955D1*
X15521D2*
X16127D1*
X4347Y14163D2*
X16127D1*
X4347Y13914D2*
X16127D1*
X4347Y13665D2*
X16127D1*
X4347Y13417D2*
X16127D1*
X4347Y13168D2*
X16127D1*
X4347Y12919D2*
X10201D1*
X10923D2*
X16127D1*
X4347Y12671D2*
X10213D1*
X10911D2*
X12072D1*
X13052D2*
X16127D1*
X4347Y12422D2*
X10252D1*
X10872D2*
X11928D1*
X13193D2*
X16127D1*
X4347Y12173D2*
X10252D1*
X10872D2*
X11904D1*
X13220D2*
X16127D1*
X5048Y11924D2*
X10252D1*
X10872D2*
X11576D1*
X13138D2*
X16127D1*
X5099Y11676D2*
X5428D1*
X5771D2*
X10186D1*
X10939D2*
X11588D1*
X13044D2*
X16127D1*
X4993Y11427D2*
X5178D1*
X6021D2*
X10299D1*
X10825D2*
X11627D1*
X13193D2*
X16127D1*
X4347Y11178D2*
X5154D1*
X6048D2*
X11627D1*
X13220D2*
X16127D1*
X4347Y10930D2*
X5225D1*
X5978D2*
X11627D1*
X13142D2*
X16127D1*
X4347Y10681D2*
X11627D1*
X13040D2*
X16127D1*
X4347Y10432D2*
X11627D1*
X13193D2*
X16127D1*
X4347Y10184D2*
X11627D1*
X13220D2*
X16127D1*
X4347Y9935D2*
X8928D1*
X10114D2*
X11627D1*
X13146D2*
X16127D1*
X4347Y9686D2*
X5381D1*
X5818D2*
X8834D1*
X10212D2*
X11627D1*
X13036D2*
X16127D1*
X4347Y9438D2*
X5174D1*
X6028D2*
X8791D1*
X10251D2*
X11627D1*
X13189D2*
X16127D1*
X4724Y9189D2*
X5154D1*
X6048D2*
X8924D1*
X10161D2*
X11627D1*
X13220D2*
X16127D1*
X5064Y8940D2*
X5236D1*
X5962D2*
X11627D1*
X13150D2*
X16127D1*
X5095Y8692D2*
X11686D1*
X13028D2*
X16127D1*
X4962Y8443D2*
X11928D1*
X13189D2*
X16127D1*
X4347Y8194D2*
X11904D1*
X13220D2*
X16127D1*
X4347Y7945D2*
X11975D1*
X13150D2*
X16127D1*
X4347Y7697D2*
X12205D1*
X12919D2*
X16127D1*
X4347Y7448D2*
X16127D1*
X4347Y7199D2*
X16127D1*
X4347Y6951D2*
X16127D1*
X4347Y6702D2*
X16127D1*
X4347Y6453D2*
X16127D1*
X4347Y6205D2*
X16127D1*
X4347Y5956D2*
X4732D1*
X5743D2*
X14732D1*
X15743D2*
X16127D1*
X4347Y5707D2*
X4486D1*
X5989D2*
X14486D1*
X15989D2*
X16125D1*
X6099Y5459D2*
X14377D1*
X6126Y5210D2*
X14346D1*
X6083Y4961D2*
X14393D1*
X4347Y4713D2*
X4525D1*
X5950D2*
X14525D1*
X15950D2*
X16127D1*
X4347Y4464D2*
X4826D1*
X5650D2*
X14826D1*
X15650D2*
X16127D1*
X5182Y11279D2*
X5181Y11329D1*
X5213Y11450D1*
X5280Y11555D1*
X5374Y11637D1*
X5488Y11687D1*
X5611Y11702D1*
X5734Y11680D1*
X5845Y11624D1*
X5935Y11537D1*
X5995Y11429D1*
X6021Y11276D1*
X6018Y11162D1*
X6004Y11039D1*
X5950Y10927D1*
X5866Y10835D1*
X5759Y10771D1*
X5638Y10742D1*
X5514Y10749D1*
X5397Y10792D1*
X5298Y10868D1*
X5225Y10969D1*
X5185Y11087D1*
X5178Y11162D1*
X5182Y11280D1*
Y9310D2*
X5181Y9361D1*
X5213Y9481D1*
X5280Y9587D1*
X5374Y9668D1*
X5488Y9719D1*
X5611Y9734D1*
X5734Y9712D1*
X5845Y9655D1*
X5935Y9569D1*
X5995Y9460D1*
X6021Y9308D1*
X6018Y9194D1*
X6004Y9071D1*
X5950Y8958D1*
X5866Y8866D1*
X5759Y8803D1*
X5638Y8773D1*
X5514Y8781D1*
X5397Y8824D1*
X5298Y8899D1*
X5225Y9000D1*
X5185Y9118D1*
X5178Y9194D1*
X5182Y9312D1*
X4431Y11286D2*
X4357Y11287D1*
X4324Y11298D1*
X4322Y9902D1*
Y9180D1*
X4429Y9189D1*
X4645Y9192D1*
X4735Y9183D1*
X4851Y9140D1*
X4951Y9065D1*
X5025Y8965D1*
X5068Y8848D1*
X5077Y8761D1*
X5059Y8637D1*
X5007Y8524D1*
X4924Y8431D1*
X4819Y8365D1*
X4698Y8332D1*
X4645Y8329D1*
X4357Y8335D1*
X4324Y8345D1*
X4322Y6152D1*
Y4322D1*
X16152D1*
Y16152D1*
X4322D1*
Y12133D1*
X4429Y12142D1*
X4645Y12145D1*
X4735Y12136D1*
X4851Y12093D1*
X4951Y12018D1*
X5025Y11918D1*
X5068Y11801D1*
X5077Y11713D1*
X5059Y11590D1*
X5007Y11477D1*
X4924Y11384D1*
X4819Y11318D1*
X4698Y11285D1*
X4645Y11282D1*
X4429Y11285D1*
X13185Y12113D2*
X13148Y11993D1*
X13089Y11883D1*
X13010Y11787D1*
X12953Y11740D1*
X13017Y11680D1*
X13095Y11582D1*
X13152Y11471D1*
X13187Y11351D1*
X13197Y11237D1*
X13185Y11113D1*
X13148Y10993D1*
X13089Y10883D1*
X13010Y10787D1*
X12953Y10740D1*
X13017Y10680D1*
X13095Y10582D1*
X13152Y10471D1*
X13187Y10351D1*
X13197Y10237D1*
X13185Y10113D1*
X13148Y9993D1*
X13089Y9883D1*
X13010Y9787D1*
X12953Y9740D1*
X13017Y9680D1*
X13095Y9582D1*
X13152Y9471D1*
X13187Y9351D1*
X13197Y9237D1*
X13185Y9113D1*
X13148Y8993D1*
X13089Y8883D1*
X13010Y8787D1*
X12953Y8740D1*
X13017Y8680D1*
X13095Y8582D1*
X13152Y8471D1*
X13187Y8351D1*
X13197Y8237D1*
X13185Y8113D1*
X13148Y7993D1*
X13089Y7883D1*
X13010Y7787D1*
X12913Y7708D1*
X12803Y7650D1*
X12684Y7614D1*
X12559Y7602D1*
X12435Y7615D1*
X12316Y7652D1*
X12206Y7711D1*
X12110Y7791D1*
X12032Y7888D1*
X11974Y7998D1*
X11938Y8118D1*
X11927Y8242D1*
X11940Y8366D1*
X11962Y8437D1*
X11735Y8660D1*
X11668Y8769D1*
X11688Y8723D1*
X11652Y8862D1*
Y11600D1*
X11601Y11704D1*
X11584Y11828D1*
X11612Y11949D1*
X11679Y12053D1*
X11779Y12128D1*
X11898Y12163D1*
X11933Y12161D1*
X11927Y12242D1*
X11940Y12366D1*
X11978Y12485D1*
X12037Y12595D1*
X12118Y12690D1*
X12215Y12769D1*
X12325Y12826D1*
X12445Y12861D1*
X12570Y12872D1*
X12694Y12858D1*
X12813Y12820D1*
X12922Y12760D1*
X13017Y12680D1*
X13095Y12582D1*
X13152Y12471D1*
X13187Y12351D1*
X13197Y12237D1*
X13185Y12113D1*
X16093Y15112D2*
X16066Y14990D1*
X16022Y14874D1*
X15961Y14764D1*
X15886Y14665D1*
X15797Y14578D1*
X15696Y14504D1*
X15586Y14445D1*
X15468Y14403D1*
X15345Y14379D1*
X15221Y14372D1*
X15096Y14384D1*
X14975Y14413D1*
X14859Y14459D1*
X14751Y14522D1*
X14653Y14599D1*
X14567Y14690D1*
X14495Y14792D1*
X14439Y14903D1*
X14399Y15022D1*
X14377Y15145D1*
X14373Y15270D1*
X14386Y15394D1*
X14418Y15515D1*
X14466Y15630D1*
X14531Y15737D1*
X14610Y15833D1*
X14702Y15917D1*
X14806Y15987D1*
X14918Y16041D1*
X15038Y16079D1*
X15161Y16099D1*
X15286Y16101D1*
X15410Y16085D1*
X15530Y16051D1*
X15644Y16000D1*
X15750Y15934D1*
X15845Y15853D1*
X15927Y15759D1*
X15995Y15654D1*
X16047Y15540D1*
X16082Y15421D1*
X16102Y15237D1*
X16093Y15112D1*
X6093D2*
X6066Y14990D1*
X6022Y14874D1*
X5961Y14764D1*
X5886Y14665D1*
X5797Y14578D1*
X5696Y14504D1*
X5586Y14445D1*
X5468Y14403D1*
X5345Y14379D1*
X5221Y14372D1*
X5096Y14384D1*
X4975Y14413D1*
X4859Y14459D1*
X4751Y14522D1*
X4653Y14599D1*
X4567Y14690D1*
X4495Y14792D1*
X4439Y14903D1*
X4399Y15022D1*
X4377Y15145D1*
X4373Y15270D1*
X4386Y15394D1*
X4418Y15515D1*
X4466Y15630D1*
X4531Y15737D1*
X4610Y15833D1*
X4702Y15917D1*
X4806Y15987D1*
X4918Y16041D1*
X5038Y16079D1*
X5161Y16099D1*
X5286Y16101D1*
X5410Y16085D1*
X5530Y16051D1*
X5644Y16000D1*
X5750Y15934D1*
X5845Y15853D1*
X5927Y15759D1*
X5995Y15654D1*
X6047Y15540D1*
X6082Y15421D1*
X6102Y15237D1*
X6093Y15112D1*
Y5112D2*
X6066Y4990D1*
X6022Y4874D1*
X5961Y4764D1*
X5886Y4665D1*
X5797Y4578D1*
X5696Y4504D1*
X5586Y4445D1*
X5468Y4403D1*
X5345Y4379D1*
X5221Y4372D1*
X5096Y4384D1*
X4975Y4413D1*
X4859Y4459D1*
X4751Y4522D1*
X4653Y4599D1*
X4567Y4690D1*
X4495Y4792D1*
X4439Y4903D1*
X4399Y5022D1*
X4377Y5145D1*
X4373Y5270D1*
X4386Y5394D1*
X4418Y5515D1*
X4466Y5630D1*
X4531Y5737D1*
X4610Y5833D1*
X4702Y5917D1*
X4806Y5987D1*
X4918Y6041D1*
X5038Y6079D1*
X5161Y6099D1*
X5286Y6101D1*
X5410Y6085D1*
X5530Y6051D1*
X5644Y6000D1*
X5750Y5934D1*
X5845Y5853D1*
X5927Y5759D1*
X5995Y5654D1*
X6047Y5540D1*
X6082Y5421D1*
X6102Y5237D1*
X6093Y5112D1*
X16093D2*
X16066Y4990D1*
X16022Y4874D1*
X15961Y4764D1*
X15886Y4665D1*
X15797Y4578D1*
X15696Y4504D1*
X15586Y4445D1*
X15468Y4403D1*
X15345Y4379D1*
X15221Y4372D1*
X15096Y4384D1*
X14975Y4413D1*
X14859Y4459D1*
X14751Y4522D1*
X14653Y4599D1*
X14567Y4690D1*
X14495Y4792D1*
X14439Y4903D1*
X14399Y5022D1*
X14377Y5145D1*
X14373Y5270D1*
X14386Y5394D1*
X14418Y5515D1*
X14466Y5630D1*
X14531Y5737D1*
X14610Y5833D1*
X14702Y5917D1*
X14806Y5987D1*
X14918Y6041D1*
X15038Y6079D1*
X15161Y6099D1*
X15286Y6101D1*
X15410Y6085D1*
X15530Y6051D1*
X15644Y6000D1*
X15750Y5934D1*
X15845Y5853D1*
X15927Y5759D1*
X15995Y5654D1*
X16047Y5540D1*
X16082Y5421D1*
X16102Y5237D1*
X16093Y5112D1*
X10146Y9793D2*
X10222Y9589D1*
X10230Y9450D1*
X10190Y9290D1*
X10140Y9194D1*
X10048Y9129D1*
X9962Y9112D1*
X9122D1*
X9003Y9145D1*
X8912Y9242D1*
X8832Y9402D1*
X8809Y9521D1*
Y9478D1*
X8822Y9589D1*
X8942Y9910D1*
X9014Y10010D1*
X9131Y10059D1*
X9787Y10062D1*
X9882D1*
X10001Y10030D1*
X10088Y9938D1*
X10146Y9793D1*
X10277Y11894D2*
Y12605D1*
X10226Y12704D1*
X10209Y12828D1*
X10237Y12949D1*
X10304Y13053D1*
X10404Y13128D1*
X10523Y13163D1*
X10647Y13155D1*
X10761Y13104D1*
X10850Y13017D1*
X10903Y12905D1*
X10915Y12812D1*
X10893Y12690D1*
X10848Y12613D1*
X10850Y11892D1*
X10903Y11780D1*
X10915Y11687D1*
X10893Y11565D1*
X10830Y11457D1*
X10734Y11379D1*
X10616Y11338D1*
X10492Y11341D1*
X10376Y11387D1*
X10284Y11470D1*
X10226Y11579D1*
X10209Y11703D1*
X10237Y11824D1*
X10277Y11886D1*
D21*
X5600Y11221D3*
Y9253D3*
D22*
X4537Y11713D3*
Y8761D3*
D25*
X12562Y12237D3*
Y11237D3*
Y10237D3*
Y9237D3*
Y8237D3*
G36*
X10002Y9507D2*
X9882Y9827D1*
X9162D1*
X9042Y9507D1*
X9122Y9347D1*
X9962D1*
D1*
X10002Y9507D1*
G37*
X23664Y13189D2*
D13*
X22912D1*
X22164D1*
X18662Y9687D1*
X19662Y7987D2*
Y8687D1*
X18662Y9687D1*
X22412Y6812D2*
Y7187D1*
X20412D1*
X19637Y7962D1*
X19662Y7987D1*
X23037Y7562D2*
X22752D1*
X22412Y7222D1*
Y7187D1*
X26412Y5812D2*
X23412D1*
X22412Y6812D1*
X19412Y11437D2*
Y10491D1*
X18662Y9687D1*
X24537Y11812D2*
D14*
Y8862D1*
X25162Y8237D1*
X23162Y11687D2*
Y12812D1*
D29*
X23664Y13189D3*
X18662Y9687D3*
X19662Y7987D3*
X22412Y6812D3*
X19662Y7987D3*
X22912Y13189D3*
X23037Y7562D3*
X26412Y5812D3*
X22412Y6812D3*
X19412Y11437D3*
X24537Y11812D3*
X23162Y11687D3*
Y12812D3*
X16947Y15903D2*
D15*
X17262D1*
X18414D2*
X27262D1*
X28414D2*
X28727D1*
X16947Y15655D2*
X17055D1*
X18621D2*
X27055D1*
X28621D2*
X28725D1*
X18711Y15406D2*
X26965D1*
X18722Y15157D2*
X26950D1*
X18664Y14909D2*
X27012D1*
X16947Y14660D2*
X17168D1*
X18507D2*
X27168D1*
X28507D2*
X28727D1*
X16947Y14411D2*
X17555D1*
X18121D2*
X27555D1*
X28121D2*
X28727D1*
X16947Y14163D2*
X28727D1*
X16947Y13914D2*
X28727D1*
X16947Y13665D2*
X28727D1*
X16947Y13417D2*
X28727D1*
X16947Y13168D2*
X28727D1*
X16947Y12919D2*
X22801D1*
X23523D2*
X28727D1*
X16947Y12671D2*
X22813D1*
X23511D2*
X24672D1*
X25652D2*
X28727D1*
X16947Y12422D2*
X22852D1*
X23472D2*
X24528D1*
X25793D2*
X28727D1*
X16947Y12173D2*
X22852D1*
X23472D2*
X24504D1*
X25820D2*
X28727D1*
X17648Y11924D2*
X22852D1*
X23472D2*
X24176D1*
X25738D2*
X28727D1*
X17699Y11676D2*
X18028D1*
X18371D2*
X22786D1*
X23539D2*
X24188D1*
X25644D2*
X28727D1*
X17593Y11427D2*
X17778D1*
X18621D2*
X22899D1*
X23425D2*
X24227D1*
X25793D2*
X28727D1*
X16947Y11178D2*
X17754D1*
X18648D2*
X24227D1*
X25820D2*
X28727D1*
X16947Y10930D2*
X17825D1*
X18578D2*
X24227D1*
X25742D2*
X28727D1*
X16947Y10681D2*
X24227D1*
X25640D2*
X28727D1*
X16947Y10432D2*
X24227D1*
X25793D2*
X28727D1*
X16947Y10184D2*
X24227D1*
X25820D2*
X28727D1*
X16947Y9935D2*
X21528D1*
X22714D2*
X24227D1*
X25746D2*
X28727D1*
X16947Y9686D2*
X17981D1*
X18418D2*
X21434D1*
X22812D2*
X24227D1*
X25636D2*
X28727D1*
X16947Y9438D2*
X17774D1*
X18628D2*
X21391D1*
X22851D2*
X24227D1*
X25789D2*
X28727D1*
X17324Y9189D2*
X17754D1*
X18648D2*
X21524D1*
X22761D2*
X24227D1*
X25820D2*
X28727D1*
X17664Y8940D2*
X17836D1*
X18562D2*
X24227D1*
X25750D2*
X28727D1*
X17695Y8692D2*
X24286D1*
X25628D2*
X28727D1*
X17562Y8443D2*
X24528D1*
X25789D2*
X28727D1*
X16947Y8194D2*
X24504D1*
X25820D2*
X28727D1*
X16947Y7945D2*
X24575D1*
X25750D2*
X28727D1*
X16947Y7697D2*
X24805D1*
X25519D2*
X28727D1*
X16947Y7448D2*
X28727D1*
X16947Y7199D2*
X28727D1*
X16947Y6951D2*
X28727D1*
X16947Y6702D2*
X28727D1*
X16947Y6453D2*
X28727D1*
X16947Y6205D2*
X28727D1*
X16947Y5956D2*
X17332D1*
X18343D2*
X27332D1*
X28343D2*
X28727D1*
X16947Y5707D2*
X17086D1*
X18589D2*
X27086D1*
X28589D2*
X28725D1*
X18699Y5459D2*
X26977D1*
X18726Y5210D2*
X26946D1*
X18683Y4961D2*
X26993D1*
X16947Y4713D2*
X17125D1*
X18550D2*
X27125D1*
X28550D2*
X28727D1*
X16947Y4464D2*
X17426D1*
X18250D2*
X27426D1*
X28250D2*
X28727D1*
X17782Y11279D2*
X17781Y11329D1*
X17813Y11450D1*
X17880Y11555D1*
X17974Y11637D1*
X18088Y11687D1*
X18211Y11702D1*
X18334Y11680D1*
X18445Y11624D1*
X18535Y11537D1*
X18595Y11429D1*
X18621Y11276D1*
X18618Y11162D1*
X18604Y11039D1*
X18550Y10927D1*
X18466Y10835D1*
X18359Y10771D1*
X18238Y10742D1*
X18114Y10749D1*
X17997Y10792D1*
X17898Y10868D1*
X17825Y10969D1*
X17785Y11087D1*
X17778Y11162D1*
X17782Y11280D1*
Y9310D2*
X17781Y9361D1*
X17813Y9481D1*
X17880Y9587D1*
X17974Y9668D1*
X18088Y9719D1*
X18211Y9734D1*
X18334Y9712D1*
X18445Y9655D1*
X18535Y9569D1*
X18595Y9460D1*
X18621Y9308D1*
X18618Y9194D1*
X18604Y9071D1*
X18550Y8958D1*
X18466Y8866D1*
X18359Y8803D1*
X18238Y8773D1*
X18114Y8781D1*
X17997Y8824D1*
X17898Y8899D1*
X17825Y9000D1*
X17785Y9118D1*
X17778Y9194D1*
X17782Y9312D1*
X17031Y11286D2*
X16957Y11287D1*
X16924Y11298D1*
X16922Y9902D1*
Y9180D1*
X17029Y9189D1*
X17245Y9192D1*
X17335Y9183D1*
X17451Y9140D1*
X17551Y9065D1*
X17625Y8965D1*
X17668Y8848D1*
X17677Y8761D1*
X17659Y8637D1*
X17607Y8524D1*
X17524Y8431D1*
X17419Y8365D1*
X17298Y8332D1*
X17245Y8329D1*
X16957Y8335D1*
X16924Y8345D1*
X16922Y6152D1*
Y4322D1*
X28752D1*
Y16152D1*
X16922D1*
Y12133D1*
X17029Y12142D1*
X17245Y12145D1*
X17335Y12136D1*
X17451Y12093D1*
X17551Y12018D1*
X17625Y11918D1*
X17668Y11801D1*
X17677Y11713D1*
X17659Y11590D1*
X17607Y11477D1*
X17524Y11384D1*
X17419Y11318D1*
X17298Y11285D1*
X17245Y11282D1*
X17029Y11285D1*
X25785Y12113D2*
X25748Y11993D1*
X25689Y11883D1*
X25610Y11787D1*
X25553Y11740D1*
X25617Y11680D1*
X25695Y11582D1*
X25752Y11471D1*
X25787Y11351D1*
X25797Y11237D1*
X25785Y11113D1*
X25748Y10993D1*
X25689Y10883D1*
X25610Y10787D1*
X25553Y10740D1*
X25617Y10680D1*
X25695Y10582D1*
X25752Y10471D1*
X25787Y10351D1*
X25797Y10237D1*
X25785Y10113D1*
X25748Y9993D1*
X25689Y9883D1*
X25610Y9787D1*
X25553Y9740D1*
X25617Y9680D1*
X25695Y9582D1*
X25752Y9471D1*
X25787Y9351D1*
X25797Y9237D1*
X25785Y9113D1*
X25748Y8993D1*
X25689Y8883D1*
X25610Y8787D1*
X25553Y8740D1*
X25617Y8680D1*
X25695Y8582D1*
X25752Y8471D1*
X25787Y8351D1*
X25797Y8237D1*
X25785Y8113D1*
X25748Y7993D1*
X25689Y7883D1*
X25610Y7787D1*
X25513Y7708D1*
X25403Y7650D1*
X25284Y7614D1*
X25159Y7602D1*
X25035Y7615D1*
X24916Y7652D1*
X24806Y7711D1*
X24710Y7791D1*
X24632Y7888D1*
X24574Y7998D1*
X24538Y8118D1*
X24527Y8242D1*
X24540Y8366D1*
X24562Y8437D1*
X24335Y8660D1*
X24268Y8769D1*
X24288Y8723D1*
X24252Y8862D1*
Y11600D1*
X24201Y11704D1*
X24184Y11828D1*
X24212Y11949D1*
X24279Y12053D1*
X24379Y12128D1*
X24498Y12163D1*
X24533Y12161D1*
X24527Y12242D1*
X24540Y12366D1*
X24578Y12485D1*
X24637Y12595D1*
X24718Y12690D1*
X24815Y12769D1*
X24925Y12826D1*
X25045Y12861D1*
X25170Y12872D1*
X25294Y12858D1*
X25413Y12820D1*
X25522Y12760D1*
X25617Y12680D1*
X25695Y12582D1*
X25752Y12471D1*
X25787Y12351D1*
X25797Y12237D1*
X25785Y12113D1*
X28693Y15112D2*
X28666Y14990D1*
X28622Y14874D1*
X28561Y14764D1*
X28486Y14665D1*
X28397Y14578D1*
X28296Y14504D1*
X28186Y14445D1*
X28068Y14403D1*
X27945Y14379D1*
X27821Y14372D1*
X27696Y14384D1*
X27575Y14413D1*
X27459Y14459D1*
X27351Y14522D1*
X27253Y14599D1*
X27167Y14690D1*
X27095Y14792D1*
X27039Y14903D1*
X26999Y15022D1*
X26977Y15145D1*
X26973Y15270D1*
X26986Y15394D1*
X27018Y15515D1*
X27066Y15630D1*
X27131Y15737D1*
X27210Y15833D1*
X27302Y15917D1*
X27406Y15987D1*
X27518Y16041D1*
X27638Y16079D1*
X27761Y16099D1*
X27886Y16101D1*
X28010Y16085D1*
X28130Y16051D1*
X28244Y16000D1*
X28350Y15934D1*
X28445Y15853D1*
X28527Y15759D1*
X28595Y15654D1*
X28647Y15540D1*
X28682Y15421D1*
X28702Y15237D1*
X28693Y15112D1*
X18693D2*
X18666Y14990D1*
X18622Y14874D1*
X18561Y14764D1*
X18486Y14665D1*
X18397Y14578D1*
X18296Y14504D1*
X18186Y14445D1*
X18068Y14403D1*
X17945Y14379D1*
X17821Y14372D1*
X17696Y14384D1*
X17575Y14413D1*
X17459Y14459D1*
X17351Y14522D1*
X17253Y14599D1*
X17167Y14690D1*
X17095Y14792D1*
X17039Y14903D1*
X16999Y15022D1*
X16977Y15145D1*
X16973Y15270D1*
X16986Y15394D1*
X17018Y15515D1*
X17066Y15630D1*
X17131Y15737D1*
X17210Y15833D1*
X17302Y15917D1*
X17406Y15987D1*
X17518Y16041D1*
X17638Y16079D1*
X17761Y16099D1*
X17886Y16101D1*
X18010Y16085D1*
X18130Y16051D1*
X18244Y16000D1*
X18350Y15934D1*
X18445Y15853D1*
X18527Y15759D1*
X18595Y15654D1*
X18647Y15540D1*
X18682Y15421D1*
X18702Y15237D1*
X18693Y15112D1*
Y5112D2*
X18666Y4990D1*
X18622Y4874D1*
X18561Y4764D1*
X18486Y4665D1*
X18397Y4578D1*
X18296Y4504D1*
X18186Y4445D1*
X18068Y4403D1*
X17945Y4379D1*
X17821Y4372D1*
X17696Y4384D1*
X17575Y4413D1*
X17459Y4459D1*
X17351Y4522D1*
X17253Y4599D1*
X17167Y4690D1*
X17095Y4792D1*
X17039Y4903D1*
X16999Y5022D1*
X16977Y5145D1*
X16973Y5270D1*
X16986Y5394D1*
X17018Y5515D1*
X17066Y5630D1*
X17131Y5737D1*
X17210Y5833D1*
X17302Y5917D1*
X17406Y5987D1*
X17518Y6041D1*
X17638Y6079D1*
X17761Y6099D1*
X17886Y6101D1*
X18010Y6085D1*
X18130Y6051D1*
X18244Y6000D1*
X18350Y5934D1*
X18445Y5853D1*
X18527Y5759D1*
X18595Y5654D1*
X18647Y5540D1*
X18682Y5421D1*
X18702Y5237D1*
X18693Y5112D1*
X28693D2*
X28666Y4990D1*
X28622Y4874D1*
X28561Y4764D1*
X28486Y4665D1*
X28397Y4578D1*
X28296Y4504D1*
X28186Y4445D1*
X28068Y4403D1*
X27945Y4379D1*
X27821Y4372D1*
X27696Y4384D1*
X27575Y4413D1*
X27459Y4459D1*
X27351Y4522D1*
X27253Y4599D1*
X27167Y4690D1*
X27095Y4792D1*
X27039Y4903D1*
X26999Y5022D1*
X26977Y5145D1*
X26973Y5270D1*
X26986Y5394D1*
X27018Y5515D1*
X27066Y5630D1*
X27131Y5737D1*
X27210Y5833D1*
X27302Y5917D1*
X27406Y5987D1*
X27518Y6041D1*
X27638Y6079D1*
X27761Y6099D1*
X27886Y6101D1*
X28010Y6085D1*
X28130Y6051D1*
X28244Y6000D1*
X28350Y5934D1*
X28445Y5853D1*
X28527Y5759D1*
X28595Y5654D1*
X28647Y5540D1*
X28682Y5421D1*
X28702Y5237D1*
X28693Y5112D1*
X22746Y9793D2*
X22822Y9589D1*
X22830Y9450D1*
X22790Y9290D1*
X22740Y9194D1*
X22648Y9129D1*
X22562Y9112D1*
X21722D1*
X21603Y9145D1*
X21512Y9242D1*
X21432Y9402D1*
X21409Y9521D1*
Y9478D1*
X21422Y9589D1*
X21542Y9910D1*
X21614Y10010D1*
X21731Y10059D1*
X22387Y10062D1*
X22482D1*
X22601Y10030D1*
X22688Y9938D1*
X22746Y9793D1*
X22877Y11894D2*
Y12605D1*
X22826Y12704D1*
X22809Y12828D1*
X22837Y12949D1*
X22904Y13053D1*
X23004Y13128D1*
X23123Y13163D1*
X23247Y13155D1*
X23361Y13104D1*
X23450Y13017D1*
X23503Y12905D1*
X23515Y12812D1*
X23493Y12690D1*
X23448Y12613D1*
X23450Y11892D1*
X23503Y11780D1*
X23515Y11687D1*
X23493Y11565D1*
X23430Y11457D1*
X23334Y11379D1*
X23216Y11338D1*
X23092Y11341D1*
X22976Y11387D1*
X22884Y11470D1*
X22826Y11579D1*
X22809Y11703D1*
X22837Y11824D1*
X22877Y11886D1*
D21*
X18200Y11221D3*
Y9253D3*
D22*
X17137Y11713D3*
Y8761D3*
D25*
X25162Y12237D3*
Y11237D3*
Y10237D3*
Y9237D3*
Y8237D3*
G36*
X22602Y9507D2*
X22482Y9827D1*
X21762D1*
X21642Y9507D1*
X21722Y9347D1*
X22562D1*
D1*
X22602Y9507D1*
G37*
X36264Y13189D2*
D13*
X35512D1*
X34764D1*
X31262Y9687D1*
X32262Y7987D2*
Y8687D1*
X31262Y9687D1*
X35012Y6812D2*
Y7187D1*
X33012D1*
X32237Y7962D1*
X32262Y7987D1*
X35637Y7562D2*
X35352D1*
X35012Y7222D1*
Y7187D1*
X39012Y5812D2*
X36012D1*
X35012Y6812D1*
X32012Y11437D2*
Y10491D1*
X31262Y9687D1*
X37137Y11812D2*
D14*
Y8862D1*
X37762Y8237D1*
X35762Y11687D2*
Y12812D1*
D29*
X36264Y13189D3*
X31262Y9687D3*
X32262Y7987D3*
X35012Y6812D3*
X32262Y7987D3*
X35512Y13189D3*
X35637Y7562D3*
X39012Y5812D3*
X35012Y6812D3*
X32012Y11437D3*
X37137Y11812D3*
X35762Y11687D3*
Y12812D3*
X29547Y15903D2*
D15*
X29862D1*
X31014D2*
X39862D1*
X41014D2*
X41327D1*
X29547Y15655D2*
X29655D1*
X31221D2*
X39655D1*
X41221D2*
X41325D1*
X31311Y15406D2*
X39565D1*
X31322Y15157D2*
X39550D1*
X31264Y14909D2*
X39612D1*
X29547Y14660D2*
X29768D1*
X31107D2*
X39768D1*
X41107D2*
X41327D1*
X29547Y14411D2*
X30155D1*
X30721D2*
X40155D1*
X40721D2*
X41327D1*
X29547Y14163D2*
X41327D1*
X29547Y13914D2*
X41327D1*
X29547Y13665D2*
X41327D1*
X29547Y13417D2*
X41327D1*
X29547Y13168D2*
X41327D1*
X29547Y12919D2*
X35401D1*
X36123D2*
X41327D1*
X29547Y12671D2*
X35413D1*
X36111D2*
X37272D1*
X38252D2*
X41327D1*
X29547Y12422D2*
X35452D1*
X36072D2*
X37128D1*
X38393D2*
X41327D1*
X29547Y12173D2*
X35452D1*
X36072D2*
X37104D1*
X38420D2*
X41327D1*
X30248Y11924D2*
X35452D1*
X36072D2*
X36776D1*
X38338D2*
X41327D1*
X30299Y11676D2*
X30628D1*
X30971D2*
X35386D1*
X36139D2*
X36788D1*
X38244D2*
X41327D1*
X30193Y11427D2*
X30378D1*
X31221D2*
X35499D1*
X36025D2*
X36827D1*
X38393D2*
X41327D1*
X29547Y11178D2*
X30354D1*
X31248D2*
X36827D1*
X38420D2*
X41327D1*
X29547Y10930D2*
X30425D1*
X31178D2*
X36827D1*
X38342D2*
X41327D1*
X29547Y10681D2*
X36827D1*
X38240D2*
X41327D1*
X29547Y10432D2*
X36827D1*
X38393D2*
X41327D1*
X29547Y10184D2*
X36827D1*
X38420D2*
X41327D1*
X29547Y9935D2*
X34128D1*
X35314D2*
X36827D1*
X38346D2*
X41327D1*
X29547Y9686D2*
X30581D1*
X31018D2*
X34034D1*
X35412D2*
X36827D1*
X38236D2*
X41327D1*
X29547Y9438D2*
X30374D1*
X31228D2*
X33991D1*
X35451D2*
X36827D1*
X38389D2*
X41327D1*
X29924Y9189D2*
X30354D1*
X31248D2*
X34124D1*
X35361D2*
X36827D1*
X38420D2*
X41327D1*
X30264Y8940D2*
X30436D1*
X31162D2*
X36827D1*
X38350D2*
X41327D1*
X30295Y8692D2*
X36886D1*
X38228D2*
X41327D1*
X30162Y8443D2*
X37128D1*
X38389D2*
X41327D1*
X29547Y8194D2*
X37104D1*
X38420D2*
X41327D1*
X29547Y7945D2*
X37175D1*
X38350D2*
X41327D1*
X29547Y7697D2*
X37405D1*
X38119D2*
X41327D1*
X29547Y7448D2*
X41327D1*
X29547Y7199D2*
X41327D1*
X29547Y6951D2*
X41327D1*
X29547Y6702D2*
X41327D1*
X29547Y6453D2*
X41327D1*
X29547Y6205D2*
X41327D1*
X29547Y5956D2*
X29932D1*
X30943D2*
X39932D1*
X40943D2*
X41327D1*
X29547Y5707D2*
X29686D1*
X31189D2*
X39686D1*
X41189D2*
X41325D1*
X31299Y5459D2*
X39577D1*
X31326Y5210D2*
X39546D1*
X31283Y4961D2*
X39593D1*
X29547Y4713D2*
X29725D1*
X31150D2*
X39725D1*
X41150D2*
X41327D1*
X29547Y4464D2*
X30026D1*
X30850D2*
X40026D1*
X40850D2*
X41327D1*
X30382Y11279D2*
X30381Y11329D1*
X30413Y11450D1*
X30480Y11555D1*
X30574Y11637D1*
X30688Y11687D1*
X30811Y11702D1*
X30934Y11680D1*
X31045Y11624D1*
X31135Y11537D1*
X31195Y11429D1*
X31221Y11276D1*
X31218Y11162D1*
X31204Y11039D1*
X31150Y10927D1*
X31066Y10835D1*
X30959Y10771D1*
X30838Y10742D1*
X30714Y10749D1*
X30597Y10792D1*
X30498Y10868D1*
X30425Y10969D1*
X30385Y11087D1*
X30378Y11162D1*
X30382Y11280D1*
Y9310D2*
X30381Y9361D1*
X30413Y9481D1*
X30480Y9587D1*
X30574Y9668D1*
X30688Y9719D1*
X30811Y9734D1*
X30934Y9712D1*
X31045Y9655D1*
X31135Y9569D1*
X31195Y9460D1*
X31221Y9308D1*
X31218Y9194D1*
X31204Y9071D1*
X31150Y8958D1*
X31066Y8866D1*
X30959Y8803D1*
X30838Y8773D1*
X30714Y8781D1*
X30597Y8824D1*
X30498Y8899D1*
X30425Y9000D1*
X30385Y9118D1*
X30378Y9194D1*
X30382Y9312D1*
X29631Y11286D2*
X29557Y11287D1*
X29524Y11298D1*
X29522Y9902D1*
Y9180D1*
X29629Y9189D1*
X29845Y9192D1*
X29935Y9183D1*
X30051Y9140D1*
X30151Y9065D1*
X30225Y8965D1*
X30268Y8848D1*
X30277Y8761D1*
X30259Y8637D1*
X30207Y8524D1*
X30124Y8431D1*
X30019Y8365D1*
X29898Y8332D1*
X29845Y8329D1*
X29557Y8335D1*
X29524Y8345D1*
X29522Y6152D1*
Y4322D1*
X41352D1*
Y16152D1*
X29522D1*
Y12133D1*
X29629Y12142D1*
X29845Y12145D1*
X29935Y12136D1*
X30051Y12093D1*
X30151Y12018D1*
X30225Y11918D1*
X30268Y11801D1*
X30277Y11713D1*
X30259Y11590D1*
X30207Y11477D1*
X30124Y11384D1*
X30019Y11318D1*
X29898Y11285D1*
X29845Y11282D1*
X29629Y11285D1*
X38385Y12113D2*
X38348Y11993D1*
X38289Y11883D1*
X38210Y11787D1*
X38153Y11740D1*
X38217Y11680D1*
X38295Y11582D1*
X38352Y11471D1*
X38387Y11351D1*
X38397Y11237D1*
X38385Y11113D1*
X38348Y10993D1*
X38289Y10883D1*
X38210Y10787D1*
X38153Y10740D1*
X38217Y10680D1*
X38295Y10582D1*
X38352Y10471D1*
X38387Y10351D1*
X38397Y10237D1*
X38385Y10113D1*
X38348Y9993D1*
X38289Y9883D1*
X38210Y9787D1*
X38153Y9740D1*
X38217Y9680D1*
X38295Y9582D1*
X38352Y9471D1*
X38387Y9351D1*
X38397Y9237D1*
X38385Y9113D1*
X38348Y8993D1*
X38289Y8883D1*
X38210Y8787D1*
X38153Y8740D1*
X38217Y8680D1*
X38295Y8582D1*
X38352Y8471D1*
X38387Y8351D1*
X38397Y8237D1*
X38385Y8113D1*
X38348Y7993D1*
X38289Y7883D1*
X38210Y7787D1*
X38113Y7708D1*
X38003Y7650D1*
X37884Y7614D1*
X37759Y7602D1*
X37635Y7615D1*
X37516Y7652D1*
X37406Y7711D1*
X37310Y7791D1*
X37232Y7888D1*
X37174Y7998D1*
X37138Y8118D1*
X37127Y8242D1*
X37140Y8366D1*
X37162Y8437D1*
X36935Y8660D1*
X36868Y8769D1*
X36888Y8723D1*
X36852Y8862D1*
Y11600D1*
X36801Y11704D1*
X36784Y11828D1*
X36812Y11949D1*
X36879Y12053D1*
X36979Y12128D1*
X37098Y12163D1*
X37133Y12161D1*
X37127Y12242D1*
X37140Y12366D1*
X37178Y12485D1*
X37237Y12595D1*
X37318Y12690D1*
X37415Y12769D1*
X37525Y12826D1*
X37645Y12861D1*
X37770Y12872D1*
X37894Y12858D1*
X38013Y12820D1*
X38122Y12760D1*
X38217Y12680D1*
X38295Y12582D1*
X38352Y12471D1*
X38387Y12351D1*
X38397Y12237D1*
X38385Y12113D1*
X41293Y15112D2*
X41266Y14990D1*
X41222Y14874D1*
X41161Y14764D1*
X41086Y14665D1*
X40997Y14578D1*
X40896Y14504D1*
X40786Y14445D1*
X40668Y14403D1*
X40545Y14379D1*
X40421Y14372D1*
X40296Y14384D1*
X40175Y14413D1*
X40059Y14459D1*
X39951Y14522D1*
X39853Y14599D1*
X39767Y14690D1*
X39695Y14792D1*
X39639Y14903D1*
X39599Y15022D1*
X39577Y15145D1*
X39573Y15270D1*
X39586Y15394D1*
X39618Y15515D1*
X39666Y15630D1*
X39731Y15737D1*
X39810Y15833D1*
X39902Y15917D1*
X40006Y15987D1*
X40118Y16041D1*
X40238Y16079D1*
X40361Y16099D1*
X40486Y16101D1*
X40610Y16085D1*
X40730Y16051D1*
X40844Y16000D1*
X40950Y15934D1*
X41045Y15853D1*
X41127Y15759D1*
X41195Y15654D1*
X41247Y15540D1*
X41282Y15421D1*
X41302Y15237D1*
X41293Y15112D1*
X31293D2*
X31266Y14990D1*
X31222Y14874D1*
X31161Y14764D1*
X31086Y14665D1*
X30997Y14578D1*
X30896Y14504D1*
X30786Y14445D1*
X30668Y14403D1*
X30545Y14379D1*
X30421Y14372D1*
X30296Y14384D1*
X30175Y14413D1*
X30059Y14459D1*
X29951Y14522D1*
X29853Y14599D1*
X29767Y14690D1*
X29695Y14792D1*
X29639Y14903D1*
X29599Y15022D1*
X29577Y15145D1*
X29573Y15270D1*
X29586Y15394D1*
X29618Y15515D1*
X29666Y15630D1*
X29731Y15737D1*
X29810Y15833D1*
X29902Y15917D1*
X30006Y15987D1*
X30118Y16041D1*
X30238Y16079D1*
X30361Y16099D1*
X30486Y16101D1*
X30610Y16085D1*
X30730Y16051D1*
X30844Y16000D1*
X30950Y15934D1*
X31045Y15853D1*
X31127Y15759D1*
X31195Y15654D1*
X31247Y15540D1*
X31282Y15421D1*
X31302Y15237D1*
X31293Y15112D1*
Y5112D2*
X31266Y4990D1*
X31222Y4874D1*
X31161Y4764D1*
X31086Y4665D1*
X30997Y4578D1*
X30896Y4504D1*
X30786Y4445D1*
X30668Y4403D1*
X30545Y4379D1*
X30421Y4372D1*
X30296Y4384D1*
X30175Y4413D1*
X30059Y4459D1*
X29951Y4522D1*
X29853Y4599D1*
X29767Y4690D1*
X29695Y4792D1*
X29639Y4903D1*
X29599Y5022D1*
X29577Y5145D1*
X29573Y5270D1*
X29586Y5394D1*
X29618Y5515D1*
X29666Y5630D1*
X29731Y5737D1*
X29810Y5833D1*
X29902Y5917D1*
X30006Y5987D1*
X30118Y6041D1*
X30238Y6079D1*
X30361Y6099D1*
X30486Y6101D1*
X30610Y6085D1*
X30730Y6051D1*
X30844Y6000D1*
X30950Y5934D1*
X31045Y5853D1*
X31127Y5759D1*
X31195Y5654D1*
X31247Y5540D1*
X31282Y5421D1*
X31302Y5237D1*
X31293Y5112D1*
X41293D2*
X41266Y4990D1*
X41222Y4874D1*
X41161Y4764D1*
X41086Y4665D1*
X40997Y4578D1*
X40896Y4504D1*
X40786Y4445D1*
X40668Y4403D1*
X40545Y4379D1*
X40421Y4372D1*
X40296Y4384D1*
X40175Y4413D1*
X40059Y4459D1*
X39951Y4522D1*
X39853Y4599D1*
X39767Y4690D1*
X39695Y4792D1*
X39639Y4903D1*
X39599Y5022D1*
X39577Y5145D1*
X39573Y5270D1*
X39586Y5394D1*
X39618Y5515D1*
X39666Y5630D1*
X39731Y5737D1*
X39810Y5833D1*
X39902Y5917D1*
X40006Y5987D1*
X40118Y6041D1*
X40238Y6079D1*
X40361Y6099D1*
X40486Y6101D1*
X40610Y6085D1*
X40730Y6051D1*
X40844Y6000D1*
X40950Y5934D1*
X41045Y5853D1*
X41127Y5759D1*
X41195Y5654D1*
X41247Y5540D1*
X41282Y5421D1*
X41302Y5237D1*
X41293Y5112D1*
X35346Y9793D2*
X35422Y9589D1*
X35430Y9450D1*
X35390Y9290D1*
X35340Y9194D1*
X35248Y9129D1*
X35162Y9112D1*
X34322D1*
X34203Y9145D1*
X34112Y9242D1*
X34032Y9402D1*
X34009Y9521D1*
Y9478D1*
X34022Y9589D1*
X34142Y9910D1*
X34214Y10010D1*
X34331Y10059D1*
X34987Y10062D1*
X35082D1*
X35201Y10030D1*
X35288Y9938D1*
X35346Y9793D1*
X35477Y11894D2*
Y12605D1*
X35426Y12704D1*
X35409Y12828D1*
X35437Y12949D1*
X35504Y13053D1*
X35604Y13128D1*
X35723Y13163D1*
X35847Y13155D1*
X35961Y13104D1*
X36050Y13017D1*
X36103Y12905D1*
X36115Y12812D1*
X36093Y12690D1*
X36048Y12613D1*
X36050Y11892D1*
X36103Y11780D1*
X36115Y11687D1*
X36093Y11565D1*
X36030Y11457D1*
X35934Y11379D1*
X35816Y11338D1*
X35692Y11341D1*
X35576Y11387D1*
X35484Y11470D1*
X35426Y11579D1*
X35409Y11703D1*
X35437Y11824D1*
X35477Y11886D1*
D21*
X30800Y11221D3*
Y9253D3*
D22*
X29737Y11713D3*
Y8761D3*
D25*
X37762Y12237D3*
Y11237D3*
Y10237D3*
Y9237D3*
Y8237D3*
G36*
X35202Y9507D2*
X35082Y9827D1*
X34362D1*
X34242Y9507D1*
X34322Y9347D1*
X35162D1*
D1*
X35202Y9507D1*
G37*
X48864Y13189D2*
D13*
X48112D1*
X47364D1*
X43862Y9687D1*
X44862Y7987D2*
Y8687D1*
X43862Y9687D1*
X47612Y6812D2*
Y7187D1*
X45612D1*
X44837Y7962D1*
X44862Y7987D1*
X48237Y7562D2*
X47952D1*
X47612Y7222D1*
Y7187D1*
X51612Y5812D2*
X48612D1*
X47612Y6812D1*
X44612Y11437D2*
Y10491D1*
X43862Y9687D1*
X49737Y11812D2*
D14*
Y8862D1*
X50362Y8237D1*
X48362Y11687D2*
Y12812D1*
D29*
X48864Y13189D3*
X43862Y9687D3*
X44862Y7987D3*
X47612Y6812D3*
X44862Y7987D3*
X48112Y13189D3*
X48237Y7562D3*
X51612Y5812D3*
X47612Y6812D3*
X44612Y11437D3*
X49737Y11812D3*
X48362Y11687D3*
Y12812D3*
X42147Y15903D2*
D15*
X42462D1*
X43614D2*
X52462D1*
X53614D2*
X53927D1*
X42147Y15655D2*
X42255D1*
X43821D2*
X52255D1*
X53821D2*
X53925D1*
X43911Y15406D2*
X52165D1*
X43922Y15157D2*
X52150D1*
X43864Y14909D2*
X52212D1*
X42147Y14660D2*
X42368D1*
X43707D2*
X52368D1*
X53707D2*
X53927D1*
X42147Y14411D2*
X42755D1*
X43321D2*
X52755D1*
X53321D2*
X53927D1*
X42147Y14163D2*
X53927D1*
X42147Y13914D2*
X53927D1*
X42147Y13665D2*
X53927D1*
X42147Y13417D2*
X53927D1*
X42147Y13168D2*
X53927D1*
X42147Y12919D2*
X48001D1*
X48723D2*
X53927D1*
X42147Y12671D2*
X48013D1*
X48711D2*
X49872D1*
X50852D2*
X53927D1*
X42147Y12422D2*
X48052D1*
X48672D2*
X49728D1*
X50993D2*
X53927D1*
X42147Y12173D2*
X48052D1*
X48672D2*
X49704D1*
X51020D2*
X53927D1*
X42848Y11924D2*
X48052D1*
X48672D2*
X49376D1*
X50938D2*
X53927D1*
X42899Y11676D2*
X43228D1*
X43571D2*
X47986D1*
X48739D2*
X49388D1*
X50844D2*
X53927D1*
X42793Y11427D2*
X42978D1*
X43821D2*
X48099D1*
X48625D2*
X49427D1*
X50993D2*
X53927D1*
X42147Y11178D2*
X42954D1*
X43848D2*
X49427D1*
X51020D2*
X53927D1*
X42147Y10930D2*
X43025D1*
X43778D2*
X49427D1*
X50942D2*
X53927D1*
X42147Y10681D2*
X49427D1*
X50840D2*
X53927D1*
X42147Y10432D2*
X49427D1*
X50993D2*
X53927D1*
X42147Y10184D2*
X49427D1*
X51020D2*
X53927D1*
X42147Y9935D2*
X46728D1*
X47914D2*
X49427D1*
X50946D2*
X53927D1*
X42147Y9686D2*
X43181D1*
X43618D2*
X46634D1*
X48012D2*
X49427D1*
X50836D2*
X53927D1*
X42147Y9438D2*
X42974D1*
X43828D2*
X46591D1*
X48051D2*
X49427D1*
X50989D2*
X53927D1*
X42524Y9189D2*
X42954D1*
X43848D2*
X46724D1*
X47961D2*
X49427D1*
X51020D2*
X53927D1*
X42864Y8940D2*
X43036D1*
X43762D2*
X49427D1*
X50950D2*
X53927D1*
X42895Y8692D2*
X49486D1*
X50828D2*
X53927D1*
X42762Y8443D2*
X49728D1*
X50989D2*
X53927D1*
X42147Y8194D2*
X49704D1*
X51020D2*
X53927D1*
X42147Y7945D2*
X49775D1*
X50950D2*
X53927D1*
X42147Y7697D2*
X50005D1*
X50719D2*
X53927D1*
X42147Y7448D2*
X53927D1*
X42147Y7199D2*
X53927D1*
X42147Y6951D2*
X53927D1*
X42147Y6702D2*
X53927D1*
X42147Y6453D2*
X53927D1*
X42147Y6205D2*
X53927D1*
X42147Y5956D2*
X42532D1*
X43543D2*
X52532D1*
X53543D2*
X53927D1*
X42147Y5707D2*
X42286D1*
X43789D2*
X52286D1*
X53789D2*
X53925D1*
X43899Y5459D2*
X52177D1*
X43926Y5210D2*
X52146D1*
X43883Y4961D2*
X52193D1*
X42147Y4713D2*
X42325D1*
X43750D2*
X52325D1*
X53750D2*
X53927D1*
X42147Y4464D2*
X42626D1*
X43450D2*
X52626D1*
X53450D2*
X53927D1*
X42982Y11279D2*
X42981Y11329D1*
X43013Y11450D1*
X43080Y11555D1*
X43174Y11637D1*
X43288Y11687D1*
X43411Y11702D1*
X43534Y11680D1*
X43645Y11624D1*
X43735Y11537D1*
X43795Y11429D1*
X43821Y11276D1*
X43818Y11162D1*
X43804Y11039D1*
X43750Y10927D1*
X43666Y10835D1*
X43559Y10771D1*
X43438Y10742D1*
X43314Y10749D1*
X43197Y10792D1*
X43098Y10868D1*
X43025Y10969D1*
X42985Y11087D1*
X42978Y11162D1*
X42982Y11280D1*
Y9310D2*
X42981Y9361D1*
X43013Y9481D1*
X43080Y9587D1*
X43174Y9668D1*
X43288Y9719D1*
X43411Y9734D1*
X43534Y9712D1*
X43645Y9655D1*
X43735Y9569D1*
X43795Y9460D1*
X43821Y9308D1*
X43818Y9194D1*
X43804Y9071D1*
X43750Y8958D1*
X43666Y8866D1*
X43559Y8803D1*
X43438Y8773D1*
X43314Y8781D1*
X43197Y8824D1*
X43098Y8899D1*
X43025Y9000D1*
X42985Y9118D1*
X42978Y9194D1*
X42982Y9312D1*
X42231Y11286D2*
X42157Y11287D1*
X42124Y11298D1*
X42122Y9902D1*
Y9180D1*
X42229Y9189D1*
X42445Y9192D1*
X42535Y9183D1*
X42651Y9140D1*
X42751Y9065D1*
X42825Y8965D1*
X42868Y8848D1*
X42877Y8761D1*
X42859Y8637D1*
X42807Y8524D1*
X42724Y8431D1*
X42619Y8365D1*
X42498Y8332D1*
X42445Y8329D1*
X42157Y8335D1*
X42124Y8345D1*
X42122Y6152D1*
Y4322D1*
X53952D1*
Y16152D1*
X42122D1*
Y12133D1*
X42229Y12142D1*
X42445Y12145D1*
X42535Y12136D1*
X42651Y12093D1*
X42751Y12018D1*
X42825Y11918D1*
X42868Y11801D1*
X42877Y11713D1*
X42859Y11590D1*
X42807Y11477D1*
X42724Y11384D1*
X42619Y11318D1*
X42498Y11285D1*
X42445Y11282D1*
X42229Y11285D1*
X50985Y12113D2*
X50948Y11993D1*
X50889Y11883D1*
X50810Y11787D1*
X50753Y11740D1*
X50817Y11680D1*
X50895Y11582D1*
X50952Y11471D1*
X50987Y11351D1*
X50997Y11237D1*
X50985Y11113D1*
X50948Y10993D1*
X50889Y10883D1*
X50810Y10787D1*
X50753Y10740D1*
X50817Y10680D1*
X50895Y10582D1*
X50952Y10471D1*
X50987Y10351D1*
X50997Y10237D1*
X50985Y10113D1*
X50948Y9993D1*
X50889Y9883D1*
X50810Y9787D1*
X50753Y9740D1*
X50817Y9680D1*
X50895Y9582D1*
X50952Y9471D1*
X50987Y9351D1*
X50997Y9237D1*
X50985Y9113D1*
X50948Y8993D1*
X50889Y8883D1*
X50810Y8787D1*
X50753Y8740D1*
X50817Y8680D1*
X50895Y8582D1*
X50952Y8471D1*
X50987Y8351D1*
X50997Y8237D1*
X50985Y8113D1*
X50948Y7993D1*
X50889Y7883D1*
X50810Y7787D1*
X50713Y7708D1*
X50603Y7650D1*
X50484Y7614D1*
X50359Y7602D1*
X50235Y7615D1*
X50116Y7652D1*
X50006Y7711D1*
X49910Y7791D1*
X49832Y7888D1*
X49774Y7998D1*
X49738Y8118D1*
X49727Y8242D1*
X49740Y8366D1*
X49762Y8437D1*
X49535Y8660D1*
X49468Y8769D1*
X49488Y8723D1*
X49452Y8862D1*
Y11600D1*
X49401Y11704D1*
X49384Y11828D1*
X49412Y11949D1*
X49479Y12053D1*
X49579Y12128D1*
X49698Y12163D1*
X49733Y12161D1*
X49727Y12242D1*
X49740Y12366D1*
X49778Y12485D1*
X49837Y12595D1*
X49918Y12690D1*
X50015Y12769D1*
X50125Y12826D1*
X50245Y12861D1*
X50370Y12872D1*
X50494Y12858D1*
X50613Y12820D1*
X50722Y12760D1*
X50817Y12680D1*
X50895Y12582D1*
X50952Y12471D1*
X50987Y12351D1*
X50997Y12237D1*
X50985Y12113D1*
X53893Y15112D2*
X53866Y14990D1*
X53822Y14874D1*
X53761Y14764D1*
X53686Y14665D1*
X53597Y14578D1*
X53496Y14504D1*
X53386Y14445D1*
X53268Y14403D1*
X53145Y14379D1*
X53021Y14372D1*
X52896Y14384D1*
X52775Y14413D1*
X52659Y14459D1*
X52551Y14522D1*
X52453Y14599D1*
X52367Y14690D1*
X52295Y14792D1*
X52239Y14903D1*
X52199Y15022D1*
X52177Y15145D1*
X52173Y15270D1*
X52186Y15394D1*
X52218Y15515D1*
X52266Y15630D1*
X52331Y15737D1*
X52410Y15833D1*
X52502Y15917D1*
X52606Y15987D1*
X52718Y16041D1*
X52838Y16079D1*
X52961Y16099D1*
X53086Y16101D1*
X53210Y16085D1*
X53330Y16051D1*
X53444Y16000D1*
X53550Y15934D1*
X53645Y15853D1*
X53727Y15759D1*
X53795Y15654D1*
X53847Y15540D1*
X53882Y15421D1*
X53902Y15237D1*
X53893Y15112D1*
X43893D2*
X43866Y14990D1*
X43822Y14874D1*
X43761Y14764D1*
X43686Y14665D1*
X43597Y14578D1*
X43496Y14504D1*
X43386Y14445D1*
X43268Y14403D1*
X43145Y14379D1*
X43021Y14372D1*
X42896Y14384D1*
X42775Y14413D1*
X42659Y14459D1*
X42551Y14522D1*
X42453Y14599D1*
X42367Y14690D1*
X42295Y14792D1*
X42239Y14903D1*
X42199Y15022D1*
X42177Y15145D1*
X42173Y15270D1*
X42186Y15394D1*
X42218Y15515D1*
X42266Y15630D1*
X42331Y15737D1*
X42410Y15833D1*
X42502Y15917D1*
X42606Y15987D1*
X42718Y16041D1*
X42838Y16079D1*
X42961Y16099D1*
X43086Y16101D1*
X43210Y16085D1*
X43330Y16051D1*
X43444Y16000D1*
X43550Y15934D1*
X43645Y15853D1*
X43727Y15759D1*
X43795Y15654D1*
X43847Y15540D1*
X43882Y15421D1*
X43902Y15237D1*
X43893Y15112D1*
Y5112D2*
X43866Y4990D1*
X43822Y4874D1*
X43761Y4764D1*
X43686Y4665D1*
X43597Y4578D1*
X43496Y4504D1*
X43386Y4445D1*
X43268Y4403D1*
X43145Y4379D1*
X43021Y4372D1*
X42896Y4384D1*
X42775Y4413D1*
X42659Y4459D1*
X42551Y4522D1*
X42453Y4599D1*
X42367Y4690D1*
X42295Y4792D1*
X42239Y4903D1*
X42199Y5022D1*
X42177Y5145D1*
X42173Y5270D1*
X42186Y5394D1*
X42218Y5515D1*
X42266Y5630D1*
X42331Y5737D1*
X42410Y5833D1*
X42502Y5917D1*
X42606Y5987D1*
X42718Y6041D1*
X42838Y6079D1*
X42961Y6099D1*
X43086Y6101D1*
X43210Y6085D1*
X43330Y6051D1*
X43444Y6000D1*
X43550Y5934D1*
X43645Y5853D1*
X43727Y5759D1*
X43795Y5654D1*
X43847Y5540D1*
X43882Y5421D1*
X43902Y5237D1*
X43893Y5112D1*
X53893D2*
X53866Y4990D1*
X53822Y4874D1*
X53761Y4764D1*
X53686Y4665D1*
X53597Y4578D1*
X53496Y4504D1*
X53386Y4445D1*
X53268Y4403D1*
X53145Y4379D1*
X53021Y4372D1*
X52896Y4384D1*
X52775Y4413D1*
X52659Y4459D1*
X52551Y4522D1*
X52453Y4599D1*
X52367Y4690D1*
X52295Y4792D1*
X52239Y4903D1*
X52199Y5022D1*
X52177Y5145D1*
X52173Y5270D1*
X52186Y5394D1*
X52218Y5515D1*
X52266Y5630D1*
X52331Y5737D1*
X52410Y5833D1*
X52502Y5917D1*
X52606Y5987D1*
X52718Y6041D1*
X52838Y6079D1*
X52961Y6099D1*
X53086Y6101D1*
X53210Y6085D1*
X53330Y6051D1*
X53444Y6000D1*
X53550Y5934D1*
X53645Y5853D1*
X53727Y5759D1*
X53795Y5654D1*
X53847Y5540D1*
X53882Y5421D1*
X53902Y5237D1*
X53893Y5112D1*
X47946Y9793D2*
X48022Y9589D1*
X48030Y9450D1*
X47990Y9290D1*
X47940Y9194D1*
X47848Y9129D1*
X47762Y9112D1*
X46922D1*
X46803Y9145D1*
X46712Y9242D1*
X46632Y9402D1*
X46609Y9521D1*
Y9478D1*
X46622Y9589D1*
X46742Y9910D1*
X46814Y10010D1*
X46931Y10059D1*
X47587Y10062D1*
X47682D1*
X47801Y10030D1*
X47888Y9938D1*
X47946Y9793D1*
X48077Y11894D2*
Y12605D1*
X48026Y12704D1*
X48009Y12828D1*
X48037Y12949D1*
X48104Y13053D1*
X48204Y13128D1*
X48323Y13163D1*
X48447Y13155D1*
X48561Y13104D1*
X48650Y13017D1*
X48703Y12905D1*
X48715Y12812D1*
X48693Y12690D1*
X48648Y12613D1*
X48650Y11892D1*
X48703Y11780D1*
X48715Y11687D1*
X48693Y11565D1*
X48630Y11457D1*
X48534Y11379D1*
X48416Y11338D1*
X48292Y11341D1*
X48176Y11387D1*
X48084Y11470D1*
X48026Y11579D1*
X48009Y11703D1*
X48037Y11824D1*
X48077Y11886D1*
D21*
X43400Y11221D3*
Y9253D3*
D22*
X42337Y11713D3*
Y8761D3*
D25*
X50362Y12237D3*
Y11237D3*
Y10237D3*
Y9237D3*
Y8237D3*
G36*
X47802Y9507D2*
X47682Y9827D1*
X46962D1*
X46842Y9507D1*
X46922Y9347D1*
X47762D1*
D1*
X47802Y9507D1*
G37*
X11064Y25789D2*
D13*
X10312D1*
X9564D1*
X6062Y22287D1*
X7062Y20587D2*
Y21287D1*
X6062Y22287D1*
X9812Y19412D2*
Y19787D1*
X7812D1*
X7037Y20562D1*
X7062Y20587D1*
X10437Y20162D2*
X10152D1*
X9812Y19822D1*
Y19787D1*
X13812Y18412D2*
X10812D1*
X9812Y19412D1*
X6812Y24037D2*
Y23091D1*
X6062Y22287D1*
X11937Y24412D2*
D14*
Y21462D1*
X12562Y20837D1*
X10562Y24287D2*
Y25412D1*
D29*
X11064Y25789D3*
X6062Y22287D3*
X7062Y20587D3*
X9812Y19412D3*
X7062Y20587D3*
X10312Y25789D3*
X10437Y20162D3*
X13812Y18412D3*
X9812Y19412D3*
X6812Y24037D3*
X11937Y24412D3*
X10562Y24287D3*
Y25412D3*
X4347Y28503D2*
D15*
X4662D1*
X5814D2*
X14662D1*
X15814D2*
X16127D1*
X4347Y28255D2*
X4455D1*
X6021D2*
X14455D1*
X16021D2*
X16125D1*
X6111Y28006D2*
X14365D1*
X6122Y27757D2*
X14350D1*
X6064Y27509D2*
X14412D1*
X4347Y27260D2*
X4568D1*
X5907D2*
X14568D1*
X15907D2*
X16127D1*
X4347Y27011D2*
X4955D1*
X5521D2*
X14955D1*
X15521D2*
X16127D1*
X4347Y26763D2*
X16127D1*
X4347Y26514D2*
X16127D1*
X4347Y26265D2*
X16127D1*
X4347Y26017D2*
X16127D1*
X4347Y25768D2*
X16127D1*
X4347Y25519D2*
X10201D1*
X10923D2*
X16127D1*
X4347Y25271D2*
X10213D1*
X10911D2*
X12072D1*
X13052D2*
X16127D1*
X4347Y25022D2*
X10252D1*
X10872D2*
X11928D1*
X13193D2*
X16127D1*
X4347Y24773D2*
X10252D1*
X10872D2*
X11904D1*
X13220D2*
X16127D1*
X5048Y24524D2*
X10252D1*
X10872D2*
X11576D1*
X13138D2*
X16127D1*
X5099Y24276D2*
X5428D1*
X5771D2*
X10186D1*
X10939D2*
X11588D1*
X13044D2*
X16127D1*
X4993Y24027D2*
X5178D1*
X6021D2*
X10299D1*
X10825D2*
X11627D1*
X13193D2*
X16127D1*
X4347Y23778D2*
X5154D1*
X6048D2*
X11627D1*
X13220D2*
X16127D1*
X4347Y23530D2*
X5225D1*
X5978D2*
X11627D1*
X13142D2*
X16127D1*
X4347Y23281D2*
X11627D1*
X13040D2*
X16127D1*
X4347Y23032D2*
X11627D1*
X13193D2*
X16127D1*
X4347Y22784D2*
X11627D1*
X13220D2*
X16127D1*
X4347Y22535D2*
X8928D1*
X10114D2*
X11627D1*
X13146D2*
X16127D1*
X4347Y22286D2*
X5381D1*
X5818D2*
X8834D1*
X10212D2*
X11627D1*
X13036D2*
X16127D1*
X4347Y22038D2*
X5174D1*
X6028D2*
X8791D1*
X10251D2*
X11627D1*
X13189D2*
X16127D1*
X4724Y21789D2*
X5154D1*
X6048D2*
X8924D1*
X10161D2*
X11627D1*
X13220D2*
X16127D1*
X5064Y21540D2*
X5236D1*
X5962D2*
X11627D1*
X13150D2*
X16127D1*
X5095Y21292D2*
X11686D1*
X13028D2*
X16127D1*
X4962Y21043D2*
X11928D1*
X13189D2*
X16127D1*
X4347Y20794D2*
X11904D1*
X13220D2*
X16127D1*
X4347Y20545D2*
X11975D1*
X13150D2*
X16127D1*
X4347Y20297D2*
X12205D1*
X12919D2*
X16127D1*
X4347Y20048D2*
X16127D1*
X4347Y19799D2*
X16127D1*
X4347Y19551D2*
X16127D1*
X4347Y19302D2*
X16127D1*
X4347Y19053D2*
X16127D1*
X4347Y18805D2*
X16127D1*
X4347Y18556D2*
X4732D1*
X5743D2*
X14732D1*
X15743D2*
X16127D1*
X4347Y18307D2*
X4486D1*
X5989D2*
X14486D1*
X15989D2*
X16125D1*
X6099Y18059D2*
X14377D1*
X6126Y17810D2*
X14346D1*
X6083Y17561D2*
X14393D1*
X4347Y17313D2*
X4525D1*
X5950D2*
X14525D1*
X15950D2*
X16127D1*
X4347Y17064D2*
X4826D1*
X5650D2*
X14826D1*
X15650D2*
X16127D1*
X5182Y23879D2*
X5181Y23929D1*
X5213Y24050D1*
X5280Y24155D1*
X5374Y24237D1*
X5488Y24287D1*
X5611Y24302D1*
X5734Y24280D1*
X5845Y24224D1*
X5935Y24137D1*
X5995Y24029D1*
X6021Y23876D1*
X6018Y23762D1*
X6004Y23639D1*
X5950Y23527D1*
X5866Y23435D1*
X5759Y23371D1*
X5638Y23342D1*
X5514Y23349D1*
X5397Y23392D1*
X5298Y23468D1*
X5225Y23569D1*
X5185Y23687D1*
X5178Y23762D1*
X5182Y23880D1*
Y21910D2*
X5181Y21961D1*
X5213Y22081D1*
X5280Y22187D1*
X5374Y22268D1*
X5488Y22319D1*
X5611Y22334D1*
X5734Y22312D1*
X5845Y22255D1*
X5935Y22169D1*
X5995Y22060D1*
X6021Y21908D1*
X6018Y21794D1*
X6004Y21671D1*
X5950Y21558D1*
X5866Y21466D1*
X5759Y21403D1*
X5638Y21373D1*
X5514Y21381D1*
X5397Y21424D1*
X5298Y21499D1*
X5225Y21600D1*
X5185Y21718D1*
X5178Y21794D1*
X5182Y21912D1*
X4431Y23886D2*
X4357Y23887D1*
X4324Y23898D1*
X4322Y22502D1*
Y21780D1*
X4429Y21789D1*
X4645Y21792D1*
X4735Y21783D1*
X4851Y21740D1*
X4951Y21665D1*
X5025Y21565D1*
X5068Y21448D1*
X5077Y21361D1*
X5059Y21237D1*
X5007Y21124D1*
X4924Y21031D1*
X4819Y20965D1*
X4698Y20932D1*
X4645Y20929D1*
X4357Y20935D1*
X4324Y20945D1*
X4322Y18752D1*
Y16922D1*
X16152D1*
Y28752D1*
X4322D1*
Y24733D1*
X4429Y24742D1*
X4645Y24745D1*
X4735Y24736D1*
X4851Y24693D1*
X4951Y24618D1*
X5025Y24518D1*
X5068Y24401D1*
X5077Y24313D1*
X5059Y24190D1*
X5007Y24077D1*
X4924Y23984D1*
X4819Y23918D1*
X4698Y23885D1*
X4645Y23882D1*
X4429Y23885D1*
X13185Y24713D2*
X13148Y24593D1*
X13089Y24483D1*
X13010Y24387D1*
X12953Y24340D1*
X13017Y24280D1*
X13095Y24182D1*
X13152Y24071D1*
X13187Y23951D1*
X13197Y23837D1*
X13185Y23713D1*
X13148Y23593D1*
X13089Y23483D1*
X13010Y23387D1*
X12953Y23340D1*
X13017Y23280D1*
X13095Y23182D1*
X13152Y23071D1*
X13187Y22951D1*
X13197Y22837D1*
X13185Y22713D1*
X13148Y22593D1*
X13089Y22483D1*
X13010Y22387D1*
X12953Y22340D1*
X13017Y22280D1*
X13095Y22182D1*
X13152Y22071D1*
X13187Y21951D1*
X13197Y21837D1*
X13185Y21713D1*
X13148Y21593D1*
X13089Y21483D1*
X13010Y21387D1*
X12953Y21340D1*
X13017Y21280D1*
X13095Y21182D1*
X13152Y21071D1*
X13187Y20951D1*
X13197Y20837D1*
X13185Y20713D1*
X13148Y20593D1*
X13089Y20483D1*
X13010Y20387D1*
X12913Y20308D1*
X12803Y20250D1*
X12684Y20214D1*
X12559Y20202D1*
X12435Y20215D1*
X12316Y20252D1*
X12206Y20311D1*
X12110Y20391D1*
X12032Y20488D1*
X11974Y20598D1*
X11938Y20718D1*
X11927Y20842D1*
X11940Y20966D1*
X11962Y21037D1*
X11735Y21260D1*
X11668Y21369D1*
X11688Y21323D1*
X11652Y21462D1*
Y24200D1*
X11601Y24304D1*
X11584Y24428D1*
X11612Y24549D1*
X11679Y24653D1*
X11779Y24728D1*
X11898Y24763D1*
X11933Y24761D1*
X11927Y24842D1*
X11940Y24966D1*
X11978Y25085D1*
X12037Y25195D1*
X12118Y25290D1*
X12215Y25369D1*
X12325Y25426D1*
X12445Y25461D1*
X12570Y25472D1*
X12694Y25458D1*
X12813Y25420D1*
X12922Y25360D1*
X13017Y25280D1*
X13095Y25182D1*
X13152Y25071D1*
X13187Y24951D1*
X13197Y24837D1*
X13185Y24713D1*
X16093Y27712D2*
X16066Y27590D1*
X16022Y27474D1*
X15961Y27364D1*
X15886Y27265D1*
X15797Y27178D1*
X15696Y27104D1*
X15586Y27045D1*
X15468Y27003D1*
X15345Y26979D1*
X15221Y26972D1*
X15096Y26984D1*
X14975Y27013D1*
X14859Y27059D1*
X14751Y27122D1*
X14653Y27199D1*
X14567Y27290D1*
X14495Y27392D1*
X14439Y27503D1*
X14399Y27622D1*
X14377Y27745D1*
X14373Y27870D1*
X14386Y27994D1*
X14418Y28115D1*
X14466Y28230D1*
X14531Y28337D1*
X14610Y28433D1*
X14702Y28517D1*
X14806Y28587D1*
X14918Y28641D1*
X15038Y28679D1*
X15161Y28699D1*
X15286Y28701D1*
X15410Y28685D1*
X15530Y28651D1*
X15644Y28600D1*
X15750Y28534D1*
X15845Y28453D1*
X15927Y28359D1*
X15995Y28254D1*
X16047Y28140D1*
X16082Y28021D1*
X16102Y27837D1*
X16093Y27712D1*
X6093D2*
X6066Y27590D1*
X6022Y27474D1*
X5961Y27364D1*
X5886Y27265D1*
X5797Y27178D1*
X5696Y27104D1*
X5586Y27045D1*
X5468Y27003D1*
X5345Y26979D1*
X5221Y26972D1*
X5096Y26984D1*
X4975Y27013D1*
X4859Y27059D1*
X4751Y27122D1*
X4653Y27199D1*
X4567Y27290D1*
X4495Y27392D1*
X4439Y27503D1*
X4399Y27622D1*
X4377Y27745D1*
X4373Y27870D1*
X4386Y27994D1*
X4418Y28115D1*
X4466Y28230D1*
X4531Y28337D1*
X4610Y28433D1*
X4702Y28517D1*
X4806Y28587D1*
X4918Y28641D1*
X5038Y28679D1*
X5161Y28699D1*
X5286Y28701D1*
X5410Y28685D1*
X5530Y28651D1*
X5644Y28600D1*
X5750Y28534D1*
X5845Y28453D1*
X5927Y28359D1*
X5995Y28254D1*
X6047Y28140D1*
X6082Y28021D1*
X6102Y27837D1*
X6093Y27712D1*
Y17712D2*
X6066Y17590D1*
X6022Y17474D1*
X5961Y17364D1*
X5886Y17265D1*
X5797Y17178D1*
X5696Y17104D1*
X5586Y17045D1*
X5468Y17003D1*
X5345Y16979D1*
X5221Y16972D1*
X5096Y16984D1*
X4975Y17013D1*
X4859Y17059D1*
X4751Y17122D1*
X4653Y17199D1*
X4567Y17290D1*
X4495Y17392D1*
X4439Y17503D1*
X4399Y17622D1*
X4377Y17745D1*
X4373Y17870D1*
X4386Y17994D1*
X4418Y18115D1*
X4466Y18230D1*
X4531Y18337D1*
X4610Y18433D1*
X4702Y18517D1*
X4806Y18587D1*
X4918Y18641D1*
X5038Y18679D1*
X5161Y18699D1*
X5286Y18701D1*
X5410Y18685D1*
X5530Y18651D1*
X5644Y18600D1*
X5750Y18534D1*
X5845Y18453D1*
X5927Y18359D1*
X5995Y18254D1*
X6047Y18140D1*
X6082Y18021D1*
X6102Y17837D1*
X6093Y17712D1*
X16093D2*
X16066Y17590D1*
X16022Y17474D1*
X15961Y17364D1*
X15886Y17265D1*
X15797Y17178D1*
X15696Y17104D1*
X15586Y17045D1*
X15468Y17003D1*
X15345Y16979D1*
X15221Y16972D1*
X15096Y16984D1*
X14975Y17013D1*
X14859Y17059D1*
X14751Y17122D1*
X14653Y17199D1*
X14567Y17290D1*
X14495Y17392D1*
X14439Y17503D1*
X14399Y17622D1*
X14377Y17745D1*
X14373Y17870D1*
X14386Y17994D1*
X14418Y18115D1*
X14466Y18230D1*
X14531Y18337D1*
X14610Y18433D1*
X14702Y18517D1*
X14806Y18587D1*
X14918Y18641D1*
X15038Y18679D1*
X15161Y18699D1*
X15286Y18701D1*
X15410Y18685D1*
X15530Y18651D1*
X15644Y18600D1*
X15750Y18534D1*
X15845Y18453D1*
X15927Y18359D1*
X15995Y18254D1*
X16047Y18140D1*
X16082Y18021D1*
X16102Y17837D1*
X16093Y17712D1*
X10146Y22393D2*
X10222Y22189D1*
X10230Y22050D1*
X10190Y21890D1*
X10140Y21794D1*
X10048Y21729D1*
X9962Y21712D1*
X9122D1*
X9003Y21745D1*
X8912Y21842D1*
X8832Y22002D1*
X8809Y22121D1*
Y22078D1*
X8822Y22189D1*
X8942Y22510D1*
X9014Y22610D1*
X9131Y22659D1*
X9787Y22662D1*
X9882D1*
X10001Y22630D1*
X10088Y22538D1*
X10146Y22393D1*
X10277Y24494D2*
Y25205D1*
X10226Y25304D1*
X10209Y25428D1*
X10237Y25549D1*
X10304Y25653D1*
X10404Y25728D1*
X10523Y25763D1*
X10647Y25755D1*
X10761Y25704D1*
X10850Y25617D1*
X10903Y25505D1*
X10915Y25412D1*
X10893Y25290D1*
X10848Y25213D1*
X10850Y24492D1*
X10903Y24380D1*
X10915Y24287D1*
X10893Y24165D1*
X10830Y24057D1*
X10734Y23979D1*
X10616Y23938D1*
X10492Y23941D1*
X10376Y23987D1*
X10284Y24070D1*
X10226Y24179D1*
X10209Y24303D1*
X10237Y24424D1*
X10277Y24486D1*
D21*
X5600Y23821D3*
Y21853D3*
D22*
X4537Y24313D3*
Y21361D3*
D25*
X12562Y24837D3*
Y23837D3*
Y22837D3*
Y21837D3*
Y20837D3*
G36*
X10002Y22107D2*
X9882Y22427D1*
X9162D1*
X9042Y22107D1*
X9122Y21947D1*
X9962D1*
D1*
X10002Y22107D1*
G37*
X23664Y25789D2*
D13*
X22912D1*
X22164D1*
X18662Y22287D1*
X19662Y20587D2*
Y21287D1*
X18662Y22287D1*
X22412Y19412D2*
Y19787D1*
X20412D1*
X19637Y20562D1*
X19662Y20587D1*
X23037Y20162D2*
X22752D1*
X22412Y19822D1*
Y19787D1*
X26412Y18412D2*
X23412D1*
X22412Y19412D1*
X19412Y24037D2*
Y23091D1*
X18662Y22287D1*
X24537Y24412D2*
D14*
Y21462D1*
X25162Y20837D1*
X23162Y24287D2*
Y25412D1*
D29*
X23664Y25789D3*
X18662Y22287D3*
X19662Y20587D3*
X22412Y19412D3*
X19662Y20587D3*
X22912Y25789D3*
X23037Y20162D3*
X26412Y18412D3*
X22412Y19412D3*
X19412Y24037D3*
X24537Y24412D3*
X23162Y24287D3*
Y25412D3*
X16947Y28503D2*
D15*
X17262D1*
X18414D2*
X27262D1*
X28414D2*
X28727D1*
X16947Y28255D2*
X17055D1*
X18621D2*
X27055D1*
X28621D2*
X28725D1*
X18711Y28006D2*
X26965D1*
X18722Y27757D2*
X26950D1*
X18664Y27509D2*
X27012D1*
X16947Y27260D2*
X17168D1*
X18507D2*
X27168D1*
X28507D2*
X28727D1*
X16947Y27011D2*
X17555D1*
X18121D2*
X27555D1*
X28121D2*
X28727D1*
X16947Y26763D2*
X28727D1*
X16947Y26514D2*
X28727D1*
X16947Y26265D2*
X28727D1*
X16947Y26017D2*
X28727D1*
X16947Y25768D2*
X28727D1*
X16947Y25519D2*
X22801D1*
X23523D2*
X28727D1*
X16947Y25271D2*
X22813D1*
X23511D2*
X24672D1*
X25652D2*
X28727D1*
X16947Y25022D2*
X22852D1*
X23472D2*
X24528D1*
X25793D2*
X28727D1*
X16947Y24773D2*
X22852D1*
X23472D2*
X24504D1*
X25820D2*
X28727D1*
X17648Y24524D2*
X22852D1*
X23472D2*
X24176D1*
X25738D2*
X28727D1*
X17699Y24276D2*
X18028D1*
X18371D2*
X22786D1*
X23539D2*
X24188D1*
X25644D2*
X28727D1*
X17593Y24027D2*
X17778D1*
X18621D2*
X22899D1*
X23425D2*
X24227D1*
X25793D2*
X28727D1*
X16947Y23778D2*
X17754D1*
X18648D2*
X24227D1*
X25820D2*
X28727D1*
X16947Y23530D2*
X17825D1*
X18578D2*
X24227D1*
X25742D2*
X28727D1*
X16947Y23281D2*
X24227D1*
X25640D2*
X28727D1*
X16947Y23032D2*
X24227D1*
X25793D2*
X28727D1*
X16947Y22784D2*
X24227D1*
X25820D2*
X28727D1*
X16947Y22535D2*
X21528D1*
X22714D2*
X24227D1*
X25746D2*
X28727D1*
X16947Y22286D2*
X17981D1*
X18418D2*
X21434D1*
X22812D2*
X24227D1*
X25636D2*
X28727D1*
X16947Y22038D2*
X17774D1*
X18628D2*
X21391D1*
X22851D2*
X24227D1*
X25789D2*
X28727D1*
X17324Y21789D2*
X17754D1*
X18648D2*
X21524D1*
X22761D2*
X24227D1*
X25820D2*
X28727D1*
X17664Y21540D2*
X17836D1*
X18562D2*
X24227D1*
X25750D2*
X28727D1*
X17695Y21292D2*
X24286D1*
X25628D2*
X28727D1*
X17562Y21043D2*
X24528D1*
X25789D2*
X28727D1*
X16947Y20794D2*
X24504D1*
X25820D2*
X28727D1*
X16947Y20545D2*
X24575D1*
X25750D2*
X28727D1*
X16947Y20297D2*
X24805D1*
X25519D2*
X28727D1*
X16947Y20048D2*
X28727D1*
X16947Y19799D2*
X28727D1*
X16947Y19551D2*
X28727D1*
X16947Y19302D2*
X28727D1*
X16947Y19053D2*
X28727D1*
X16947Y18805D2*
X28727D1*
X16947Y18556D2*
X17332D1*
X18343D2*
X27332D1*
X28343D2*
X28727D1*
X16947Y18307D2*
X17086D1*
X18589D2*
X27086D1*
X28589D2*
X28725D1*
X18699Y18059D2*
X26977D1*
X18726Y17810D2*
X26946D1*
X18683Y17561D2*
X26993D1*
X16947Y17313D2*
X17125D1*
X18550D2*
X27125D1*
X28550D2*
X28727D1*
X16947Y17064D2*
X17426D1*
X18250D2*
X27426D1*
X28250D2*
X28727D1*
X17782Y23879D2*
X17781Y23929D1*
X17813Y24050D1*
X17880Y24155D1*
X17974Y24237D1*
X18088Y24287D1*
X18211Y24302D1*
X18334Y24280D1*
X18445Y24224D1*
X18535Y24137D1*
X18595Y24029D1*
X18621Y23876D1*
X18618Y23762D1*
X18604Y23639D1*
X18550Y23527D1*
X18466Y23435D1*
X18359Y23371D1*
X18238Y23342D1*
X18114Y23349D1*
X17997Y23392D1*
X17898Y23468D1*
X17825Y23569D1*
X17785Y23687D1*
X17778Y23762D1*
X17782Y23880D1*
Y21910D2*
X17781Y21961D1*
X17813Y22081D1*
X17880Y22187D1*
X17974Y22268D1*
X18088Y22319D1*
X18211Y22334D1*
X18334Y22312D1*
X18445Y22255D1*
X18535Y22169D1*
X18595Y22060D1*
X18621Y21908D1*
X18618Y21794D1*
X18604Y21671D1*
X18550Y21558D1*
X18466Y21466D1*
X18359Y21403D1*
X18238Y21373D1*
X18114Y21381D1*
X17997Y21424D1*
X17898Y21499D1*
X17825Y21600D1*
X17785Y21718D1*
X17778Y21794D1*
X17782Y21912D1*
X17031Y23886D2*
X16957Y23887D1*
X16924Y23898D1*
X16922Y22502D1*
Y21780D1*
X17029Y21789D1*
X17245Y21792D1*
X17335Y21783D1*
X17451Y21740D1*
X17551Y21665D1*
X17625Y21565D1*
X17668Y21448D1*
X17677Y21361D1*
X17659Y21237D1*
X17607Y21124D1*
X17524Y21031D1*
X17419Y20965D1*
X17298Y20932D1*
X17245Y20929D1*
X16957Y20935D1*
X16924Y20945D1*
X16922Y18752D1*
Y16922D1*
X28752D1*
Y28752D1*
X16922D1*
Y24733D1*
X17029Y24742D1*
X17245Y24745D1*
X17335Y24736D1*
X17451Y24693D1*
X17551Y24618D1*
X17625Y24518D1*
X17668Y24401D1*
X17677Y24313D1*
X17659Y24190D1*
X17607Y24077D1*
X17524Y23984D1*
X17419Y23918D1*
X17298Y23885D1*
X17245Y23882D1*
X17029Y23885D1*
X25785Y24713D2*
X25748Y24593D1*
X25689Y24483D1*
X25610Y24387D1*
X25553Y24340D1*
X25617Y24280D1*
X25695Y24182D1*
X25752Y24071D1*
X25787Y23951D1*
X25797Y23837D1*
X25785Y23713D1*
X25748Y23593D1*
X25689Y23483D1*
X25610Y23387D1*
X25553Y23340D1*
X25617Y23280D1*
X25695Y23182D1*
X25752Y23071D1*
X25787Y22951D1*
X25797Y22837D1*
X25785Y22713D1*
X25748Y22593D1*
X25689Y22483D1*
X25610Y22387D1*
X25553Y22340D1*
X25617Y22280D1*
X25695Y22182D1*
X25752Y22071D1*
X25787Y21951D1*
X25797Y21837D1*
X25785Y21713D1*
X25748Y21593D1*
X25689Y21483D1*
X25610Y21387D1*
X25553Y21340D1*
X25617Y21280D1*
X25695Y21182D1*
X25752Y21071D1*
X25787Y20951D1*
X25797Y20837D1*
X25785Y20713D1*
X25748Y20593D1*
X25689Y20483D1*
X25610Y20387D1*
X25513Y20308D1*
X25403Y20250D1*
X25284Y20214D1*
X25159Y20202D1*
X25035Y20215D1*
X24916Y20252D1*
X24806Y20311D1*
X24710Y20391D1*
X24632Y20488D1*
X24574Y20598D1*
X24538Y20718D1*
X24527Y20842D1*
X24540Y20966D1*
X24562Y21037D1*
X24335Y21260D1*
X24268Y21369D1*
X24288Y21323D1*
X24252Y21462D1*
Y24200D1*
X24201Y24304D1*
X24184Y24428D1*
X24212Y24549D1*
X24279Y24653D1*
X24379Y24728D1*
X24498Y24763D1*
X24533Y24761D1*
X24527Y24842D1*
X24540Y24966D1*
X24578Y25085D1*
X24637Y25195D1*
X24718Y25290D1*
X24815Y25369D1*
X24925Y25426D1*
X25045Y25461D1*
X25170Y25472D1*
X25294Y25458D1*
X25413Y25420D1*
X25522Y25360D1*
X25617Y25280D1*
X25695Y25182D1*
X25752Y25071D1*
X25787Y24951D1*
X25797Y24837D1*
X25785Y24713D1*
X28693Y27712D2*
X28666Y27590D1*
X28622Y27474D1*
X28561Y27364D1*
X28486Y27265D1*
X28397Y27178D1*
X28296Y27104D1*
X28186Y27045D1*
X28068Y27003D1*
X27945Y26979D1*
X27821Y26972D1*
X27696Y26984D1*
X27575Y27013D1*
X27459Y27059D1*
X27351Y27122D1*
X27253Y27199D1*
X27167Y27290D1*
X27095Y27392D1*
X27039Y27503D1*
X26999Y27622D1*
X26977Y27745D1*
X26973Y27870D1*
X26986Y27994D1*
X27018Y28115D1*
X27066Y28230D1*
X27131Y28337D1*
X27210Y28433D1*
X27302Y28517D1*
X27406Y28587D1*
X27518Y28641D1*
X27638Y28679D1*
X27761Y28699D1*
X27886Y28701D1*
X28010Y28685D1*
X28130Y28651D1*
X28244Y28600D1*
X28350Y28534D1*
X28445Y28453D1*
X28527Y28359D1*
X28595Y28254D1*
X28647Y28140D1*
X28682Y28021D1*
X28702Y27837D1*
X28693Y27712D1*
X18693D2*
X18666Y27590D1*
X18622Y27474D1*
X18561Y27364D1*
X18486Y27265D1*
X18397Y27178D1*
X18296Y27104D1*
X18186Y27045D1*
X18068Y27003D1*
X17945Y26979D1*
X17821Y26972D1*
X17696Y26984D1*
X17575Y27013D1*
X17459Y27059D1*
X17351Y27122D1*
X17253Y27199D1*
X17167Y27290D1*
X17095Y27392D1*
X17039Y27503D1*
X16999Y27622D1*
X16977Y27745D1*
X16973Y27870D1*
X16986Y27994D1*
X17018Y28115D1*
X17066Y28230D1*
X17131Y28337D1*
X17210Y28433D1*
X17302Y28517D1*
X17406Y28587D1*
X17518Y28641D1*
X17638Y28679D1*
X17761Y28699D1*
X17886Y28701D1*
X18010Y28685D1*
X18130Y28651D1*
X18244Y28600D1*
X18350Y28534D1*
X18445Y28453D1*
X18527Y28359D1*
X18595Y28254D1*
X18647Y28140D1*
X18682Y28021D1*
X18702Y27837D1*
X18693Y27712D1*
Y17712D2*
X18666Y17590D1*
X18622Y17474D1*
X18561Y17364D1*
X18486Y17265D1*
X18397Y17178D1*
X18296Y17104D1*
X18186Y17045D1*
X18068Y17003D1*
X17945Y16979D1*
X17821Y16972D1*
X17696Y16984D1*
X17575Y17013D1*
X17459Y17059D1*
X17351Y17122D1*
X17253Y17199D1*
X17167Y17290D1*
X17095Y17392D1*
X17039Y17503D1*
X16999Y17622D1*
X16977Y17745D1*
X16973Y17870D1*
X16986Y17994D1*
X17018Y18115D1*
X17066Y18230D1*
X17131Y18337D1*
X17210Y18433D1*
X17302Y18517D1*
X17406Y18587D1*
X17518Y18641D1*
X17638Y18679D1*
X17761Y18699D1*
X17886Y18701D1*
X18010Y18685D1*
X18130Y18651D1*
X18244Y18600D1*
X18350Y18534D1*
X18445Y18453D1*
X18527Y18359D1*
X18595Y18254D1*
X18647Y18140D1*
X18682Y18021D1*
X18702Y17837D1*
X18693Y17712D1*
X28693D2*
X28666Y17590D1*
X28622Y17474D1*
X28561Y17364D1*
X28486Y17265D1*
X28397Y17178D1*
X28296Y17104D1*
X28186Y17045D1*
X28068Y17003D1*
X27945Y16979D1*
X27821Y16972D1*
X27696Y16984D1*
X27575Y17013D1*
X27459Y17059D1*
X27351Y17122D1*
X27253Y17199D1*
X27167Y17290D1*
X27095Y17392D1*
X27039Y17503D1*
X26999Y17622D1*
X26977Y17745D1*
X26973Y17870D1*
X26986Y17994D1*
X27018Y18115D1*
X27066Y18230D1*
X27131Y18337D1*
X27210Y18433D1*
X27302Y18517D1*
X27406Y18587D1*
X27518Y18641D1*
X27638Y18679D1*
X27761Y18699D1*
X27886Y18701D1*
X28010Y18685D1*
X28130Y18651D1*
X28244Y18600D1*
X28350Y18534D1*
X28445Y18453D1*
X28527Y18359D1*
X28595Y18254D1*
X28647Y18140D1*
X28682Y18021D1*
X28702Y17837D1*
X28693Y17712D1*
X22746Y22393D2*
X22822Y22189D1*
X22830Y22050D1*
X22790Y21890D1*
X22740Y21794D1*
X22648Y21729D1*
X22562Y21712D1*
X21722D1*
X21603Y21745D1*
X21512Y21842D1*
X21432Y22002D1*
X21409Y22121D1*
Y22078D1*
X21422Y22189D1*
X21542Y22510D1*
X21614Y22610D1*
X21731Y22659D1*
X22387Y22662D1*
X22482D1*
X22601Y22630D1*
X22688Y22538D1*
X22746Y22393D1*
X22877Y24494D2*
Y25205D1*
X22826Y25304D1*
X22809Y25428D1*
X22837Y25549D1*
X22904Y25653D1*
X23004Y25728D1*
X23123Y25763D1*
X23247Y25755D1*
X23361Y25704D1*
X23450Y25617D1*
X23503Y25505D1*
X23515Y25412D1*
X23493Y25290D1*
X23448Y25213D1*
X23450Y24492D1*
X23503Y24380D1*
X23515Y24287D1*
X23493Y24165D1*
X23430Y24057D1*
X23334Y23979D1*
X23216Y23938D1*
X23092Y23941D1*
X22976Y23987D1*
X22884Y24070D1*
X22826Y24179D1*
X22809Y24303D1*
X22837Y24424D1*
X22877Y24486D1*
D21*
X18200Y23821D3*
Y21853D3*
D22*
X17137Y24313D3*
Y21361D3*
D25*
X25162Y24837D3*
Y23837D3*
Y22837D3*
Y21837D3*
Y20837D3*
G36*
X22602Y22107D2*
X22482Y22427D1*
X21762D1*
X21642Y22107D1*
X21722Y21947D1*
X22562D1*
D1*
X22602Y22107D1*
G37*
X36264Y25789D2*
D13*
X35512D1*
X34764D1*
X31262Y22287D1*
X32262Y20587D2*
Y21287D1*
X31262Y22287D1*
X35012Y19412D2*
Y19787D1*
X33012D1*
X32237Y20562D1*
X32262Y20587D1*
X35637Y20162D2*
X35352D1*
X35012Y19822D1*
Y19787D1*
X39012Y18412D2*
X36012D1*
X35012Y19412D1*
X32012Y24037D2*
Y23091D1*
X31262Y22287D1*
X37137Y24412D2*
D14*
Y21462D1*
X37762Y20837D1*
X35762Y24287D2*
Y25412D1*
D29*
X36264Y25789D3*
X31262Y22287D3*
X32262Y20587D3*
X35012Y19412D3*
X32262Y20587D3*
X35512Y25789D3*
X35637Y20162D3*
X39012Y18412D3*
X35012Y19412D3*
X32012Y24037D3*
X37137Y24412D3*
X35762Y24287D3*
Y25412D3*
X29547Y28503D2*
D15*
X29862D1*
X31014D2*
X39862D1*
X41014D2*
X41327D1*
X29547Y28255D2*
X29655D1*
X31221D2*
X39655D1*
X41221D2*
X41325D1*
X31311Y28006D2*
X39565D1*
X31322Y27757D2*
X39550D1*
X31264Y27509D2*
X39612D1*
X29547Y27260D2*
X29768D1*
X31107D2*
X39768D1*
X41107D2*
X41327D1*
X29547Y27011D2*
X30155D1*
X30721D2*
X40155D1*
X40721D2*
X41327D1*
X29547Y26763D2*
X41327D1*
X29547Y26514D2*
X41327D1*
X29547Y26265D2*
X41327D1*
X29547Y26017D2*
X41327D1*
X29547Y25768D2*
X41327D1*
X29547Y25519D2*
X35401D1*
X36123D2*
X41327D1*
X29547Y25271D2*
X35413D1*
X36111D2*
X37272D1*
X38252D2*
X41327D1*
X29547Y25022D2*
X35452D1*
X36072D2*
X37128D1*
X38393D2*
X41327D1*
X29547Y24773D2*
X35452D1*
X36072D2*
X37104D1*
X38420D2*
X41327D1*
X30248Y24524D2*
X35452D1*
X36072D2*
X36776D1*
X38338D2*
X41327D1*
X30299Y24276D2*
X30628D1*
X30971D2*
X35386D1*
X36139D2*
X36788D1*
X38244D2*
X41327D1*
X30193Y24027D2*
X30378D1*
X31221D2*
X35499D1*
X36025D2*
X36827D1*
X38393D2*
X41327D1*
X29547Y23778D2*
X30354D1*
X31248D2*
X36827D1*
X38420D2*
X41327D1*
X29547Y23530D2*
X30425D1*
X31178D2*
X36827D1*
X38342D2*
X41327D1*
X29547Y23281D2*
X36827D1*
X38240D2*
X41327D1*
X29547Y23032D2*
X36827D1*
X38393D2*
X41327D1*
X29547Y22784D2*
X36827D1*
X38420D2*
X41327D1*
X29547Y22535D2*
X34128D1*
X35314D2*
X36827D1*
X38346D2*
X41327D1*
X29547Y22286D2*
X30581D1*
X31018D2*
X34034D1*
X35412D2*
X36827D1*
X38236D2*
X41327D1*
X29547Y22038D2*
X30374D1*
X31228D2*
X33991D1*
X35451D2*
X36827D1*
X38389D2*
X41327D1*
X29924Y21789D2*
X30354D1*
X31248D2*
X34124D1*
X35361D2*
X36827D1*
X38420D2*
X41327D1*
X30264Y21540D2*
X30436D1*
X31162D2*
X36827D1*
X38350D2*
X41327D1*
X30295Y21292D2*
X36886D1*
X38228D2*
X41327D1*
X30162Y21043D2*
X37128D1*
X38389D2*
X41327D1*
X29547Y20794D2*
X37104D1*
X38420D2*
X41327D1*
X29547Y20545D2*
X37175D1*
X38350D2*
X41327D1*
X29547Y20297D2*
X37405D1*
X38119D2*
X41327D1*
X29547Y20048D2*
X41327D1*
X29547Y19799D2*
X41327D1*
X29547Y19551D2*
X41327D1*
X29547Y19302D2*
X41327D1*
X29547Y19053D2*
X41327D1*
X29547Y18805D2*
X41327D1*
X29547Y18556D2*
X29932D1*
X30943D2*
X39932D1*
X40943D2*
X41327D1*
X29547Y18307D2*
X29686D1*
X31189D2*
X39686D1*
X41189D2*
X41325D1*
X31299Y18059D2*
X39577D1*
X31326Y17810D2*
X39546D1*
X31283Y17561D2*
X39593D1*
X29547Y17313D2*
X29725D1*
X31150D2*
X39725D1*
X41150D2*
X41327D1*
X29547Y17064D2*
X30026D1*
X30850D2*
X40026D1*
X40850D2*
X41327D1*
X30382Y23879D2*
X30381Y23929D1*
X30413Y24050D1*
X30480Y24155D1*
X30574Y24237D1*
X30688Y24287D1*
X30811Y24302D1*
X30934Y24280D1*
X31045Y24224D1*
X31135Y24137D1*
X31195Y24029D1*
X31221Y23876D1*
X31218Y23762D1*
X31204Y23639D1*
X31150Y23527D1*
X31066Y23435D1*
X30959Y23371D1*
X30838Y23342D1*
X30714Y23349D1*
X30597Y23392D1*
X30498Y23468D1*
X30425Y23569D1*
X30385Y23687D1*
X30378Y23762D1*
X30382Y23880D1*
Y21910D2*
X30381Y21961D1*
X30413Y22081D1*
X30480Y22187D1*
X30574Y22268D1*
X30688Y22319D1*
X30811Y22334D1*
X30934Y22312D1*
X31045Y22255D1*
X31135Y22169D1*
X31195Y22060D1*
X31221Y21908D1*
X31218Y21794D1*
X31204Y21671D1*
X31150Y21558D1*
X31066Y21466D1*
X30959Y21403D1*
X30838Y21373D1*
X30714Y21381D1*
X30597Y21424D1*
X30498Y21499D1*
X30425Y21600D1*
X30385Y21718D1*
X30378Y21794D1*
X30382Y21912D1*
X29631Y23886D2*
X29557Y23887D1*
X29524Y23898D1*
X29522Y22502D1*
Y21780D1*
X29629Y21789D1*
X29845Y21792D1*
X29935Y21783D1*
X30051Y21740D1*
X30151Y21665D1*
X30225Y21565D1*
X30268Y21448D1*
X30277Y21361D1*
X30259Y21237D1*
X30207Y21124D1*
X30124Y21031D1*
X30019Y20965D1*
X29898Y20932D1*
X29845Y20929D1*
X29557Y20935D1*
X29524Y20945D1*
X29522Y18752D1*
Y16922D1*
X41352D1*
Y28752D1*
X29522D1*
Y24733D1*
X29629Y24742D1*
X29845Y24745D1*
X29935Y24736D1*
X30051Y24693D1*
X30151Y24618D1*
X30225Y24518D1*
X30268Y24401D1*
X30277Y24313D1*
X30259Y24190D1*
X30207Y24077D1*
X30124Y23984D1*
X30019Y23918D1*
X29898Y23885D1*
X29845Y23882D1*
X29629Y23885D1*
X38385Y24713D2*
X38348Y24593D1*
X38289Y24483D1*
X38210Y24387D1*
X38153Y24340D1*
X38217Y24280D1*
X38295Y24182D1*
X38352Y24071D1*
X38387Y23951D1*
X38397Y23837D1*
X38385Y23713D1*
X38348Y23593D1*
X38289Y23483D1*
X38210Y23387D1*
X38153Y23340D1*
X38217Y23280D1*
X38295Y23182D1*
X38352Y23071D1*
X38387Y22951D1*
X38397Y22837D1*
X38385Y22713D1*
X38348Y22593D1*
X38289Y22483D1*
X38210Y22387D1*
X38153Y22340D1*
X38217Y22280D1*
X38295Y22182D1*
X38352Y22071D1*
X38387Y21951D1*
X38397Y21837D1*
X38385Y21713D1*
X38348Y21593D1*
X38289Y21483D1*
X38210Y21387D1*
X38153Y21340D1*
X38217Y21280D1*
X38295Y21182D1*
X38352Y21071D1*
X38387Y20951D1*
X38397Y20837D1*
X38385Y20713D1*
X38348Y20593D1*
X38289Y20483D1*
X38210Y20387D1*
X38113Y20308D1*
X38003Y20250D1*
X37884Y20214D1*
X37759Y20202D1*
X37635Y20215D1*
X37516Y20252D1*
X37406Y20311D1*
X37310Y20391D1*
X37232Y20488D1*
X37174Y20598D1*
X37138Y20718D1*
X37127Y20842D1*
X37140Y20966D1*
X37162Y21037D1*
X36935Y21260D1*
X36868Y21369D1*
X36888Y21323D1*
X36852Y21462D1*
Y24200D1*
X36801Y24304D1*
X36784Y24428D1*
X36812Y24549D1*
X36879Y24653D1*
X36979Y24728D1*
X37098Y24763D1*
X37133Y24761D1*
X37127Y24842D1*
X37140Y24966D1*
X37178Y25085D1*
X37237Y25195D1*
X37318Y25290D1*
X37415Y25369D1*
X37525Y25426D1*
X37645Y25461D1*
X37770Y25472D1*
X37894Y25458D1*
X38013Y25420D1*
X38122Y25360D1*
X38217Y25280D1*
X38295Y25182D1*
X38352Y25071D1*
X38387Y24951D1*
X38397Y24837D1*
X38385Y24713D1*
X41293Y27712D2*
X41266Y27590D1*
X41222Y27474D1*
X41161Y27364D1*
X41086Y27265D1*
X40997Y27178D1*
X40896Y27104D1*
X40786Y27045D1*
X40668Y27003D1*
X40545Y26979D1*
X40421Y26972D1*
X40296Y26984D1*
X40175Y27013D1*
X40059Y27059D1*
X39951Y27122D1*
X39853Y27199D1*
X39767Y27290D1*
X39695Y27392D1*
X39639Y27503D1*
X39599Y27622D1*
X39577Y27745D1*
X39573Y27870D1*
X39586Y27994D1*
X39618Y28115D1*
X39666Y28230D1*
X39731Y28337D1*
X39810Y28433D1*
X39902Y28517D1*
X40006Y28587D1*
X40118Y28641D1*
X40238Y28679D1*
X40361Y28699D1*
X40486Y28701D1*
X40610Y28685D1*
X40730Y28651D1*
X40844Y28600D1*
X40950Y28534D1*
X41045Y28453D1*
X41127Y28359D1*
X41195Y28254D1*
X41247Y28140D1*
X41282Y28021D1*
X41302Y27837D1*
X41293Y27712D1*
X31293D2*
X31266Y27590D1*
X31222Y27474D1*
X31161Y27364D1*
X31086Y27265D1*
X30997Y27178D1*
X30896Y27104D1*
X30786Y27045D1*
X30668Y27003D1*
X30545Y26979D1*
X30421Y26972D1*
X30296Y26984D1*
X30175Y27013D1*
X30059Y27059D1*
X29951Y27122D1*
X29853Y27199D1*
X29767Y27290D1*
X29695Y27392D1*
X29639Y27503D1*
X29599Y27622D1*
X29577Y27745D1*
X29573Y27870D1*
X29586Y27994D1*
X29618Y28115D1*
X29666Y28230D1*
X29731Y28337D1*
X29810Y28433D1*
X29902Y28517D1*
X30006Y28587D1*
X30118Y28641D1*
X30238Y28679D1*
X30361Y28699D1*
X30486Y28701D1*
X30610Y28685D1*
X30730Y28651D1*
X30844Y28600D1*
X30950Y28534D1*
X31045Y28453D1*
X31127Y28359D1*
X31195Y28254D1*
X31247Y28140D1*
X31282Y28021D1*
X31302Y27837D1*
X31293Y27712D1*
Y17712D2*
X31266Y17590D1*
X31222Y17474D1*
X31161Y17364D1*
X31086Y17265D1*
X30997Y17178D1*
X30896Y17104D1*
X30786Y17045D1*
X30668Y17003D1*
X30545Y16979D1*
X30421Y16972D1*
X30296Y16984D1*
X30175Y17013D1*
X30059Y17059D1*
X29951Y17122D1*
X29853Y17199D1*
X29767Y17290D1*
X29695Y17392D1*
X29639Y17503D1*
X29599Y17622D1*
X29577Y17745D1*
X29573Y17870D1*
X29586Y17994D1*
X29618Y18115D1*
X29666Y18230D1*
X29731Y18337D1*
X29810Y18433D1*
X29902Y18517D1*
X30006Y18587D1*
X30118Y18641D1*
X30238Y18679D1*
X30361Y18699D1*
X30486Y18701D1*
X30610Y18685D1*
X30730Y18651D1*
X30844Y18600D1*
X30950Y18534D1*
X31045Y18453D1*
X31127Y18359D1*
X31195Y18254D1*
X31247Y18140D1*
X31282Y18021D1*
X31302Y17837D1*
X31293Y17712D1*
X41293D2*
X41266Y17590D1*
X41222Y17474D1*
X41161Y17364D1*
X41086Y17265D1*
X40997Y17178D1*
X40896Y17104D1*
X40786Y17045D1*
X40668Y17003D1*
X40545Y16979D1*
X40421Y16972D1*
X40296Y16984D1*
X40175Y17013D1*
X40059Y17059D1*
X39951Y17122D1*
X39853Y17199D1*
X39767Y17290D1*
X39695Y17392D1*
X39639Y17503D1*
X39599Y17622D1*
X39577Y17745D1*
X39573Y17870D1*
X39586Y17994D1*
X39618Y18115D1*
X39666Y18230D1*
X39731Y18337D1*
X39810Y18433D1*
X39902Y18517D1*
X40006Y18587D1*
X40118Y18641D1*
X40238Y18679D1*
X40361Y18699D1*
X40486Y18701D1*
X40610Y18685D1*
X40730Y18651D1*
X40844Y18600D1*
X40950Y18534D1*
X41045Y18453D1*
X41127Y18359D1*
X41195Y18254D1*
X41247Y18140D1*
X41282Y18021D1*
X41302Y17837D1*
X41293Y17712D1*
X35346Y22393D2*
X35422Y22189D1*
X35430Y22050D1*
X35390Y21890D1*
X35340Y21794D1*
X35248Y21729D1*
X35162Y21712D1*
X34322D1*
X34203Y21745D1*
X34112Y21842D1*
X34032Y22002D1*
X34009Y22121D1*
Y22078D1*
X34022Y22189D1*
X34142Y22510D1*
X34214Y22610D1*
X34331Y22659D1*
X34987Y22662D1*
X35082D1*
X35201Y22630D1*
X35288Y22538D1*
X35346Y22393D1*
X35477Y24494D2*
Y25205D1*
X35426Y25304D1*
X35409Y25428D1*
X35437Y25549D1*
X35504Y25653D1*
X35604Y25728D1*
X35723Y25763D1*
X35847Y25755D1*
X35961Y25704D1*
X36050Y25617D1*
X36103Y25505D1*
X36115Y25412D1*
X36093Y25290D1*
X36048Y25213D1*
X36050Y24492D1*
X36103Y24380D1*
X36115Y24287D1*
X36093Y24165D1*
X36030Y24057D1*
X35934Y23979D1*
X35816Y23938D1*
X35692Y23941D1*
X35576Y23987D1*
X35484Y24070D1*
X35426Y24179D1*
X35409Y24303D1*
X35437Y24424D1*
X35477Y24486D1*
D21*
X30800Y23821D3*
Y21853D3*
D22*
X29737Y24313D3*
Y21361D3*
D25*
X37762Y24837D3*
Y23837D3*
Y22837D3*
Y21837D3*
Y20837D3*
G36*
X35202Y22107D2*
X35082Y22427D1*
X34362D1*
X34242Y22107D1*
X34322Y21947D1*
X35162D1*
D1*
X35202Y22107D1*
G37*
X48864Y25789D2*
D13*
X48112D1*
X47364D1*
X43862Y22287D1*
X44862Y20587D2*
Y21287D1*
X43862Y22287D1*
X47612Y19412D2*
Y19787D1*
X45612D1*
X44837Y20562D1*
X44862Y20587D1*
X48237Y20162D2*
X47952D1*
X47612Y19822D1*
Y19787D1*
X51612Y18412D2*
X48612D1*
X47612Y19412D1*
X44612Y24037D2*
Y23091D1*
X43862Y22287D1*
X49737Y24412D2*
D14*
Y21462D1*
X50362Y20837D1*
X48362Y24287D2*
Y25412D1*
D29*
X48864Y25789D3*
X43862Y22287D3*
X44862Y20587D3*
X47612Y19412D3*
X44862Y20587D3*
X48112Y25789D3*
X48237Y20162D3*
X51612Y18412D3*
X47612Y19412D3*
X44612Y24037D3*
X49737Y24412D3*
X48362Y24287D3*
Y25412D3*
X42147Y28503D2*
D15*
X42462D1*
X43614D2*
X52462D1*
X53614D2*
X53927D1*
X42147Y28255D2*
X42255D1*
X43821D2*
X52255D1*
X53821D2*
X53925D1*
X43911Y28006D2*
X52165D1*
X43922Y27757D2*
X52150D1*
X43864Y27509D2*
X52212D1*
X42147Y27260D2*
X42368D1*
X43707D2*
X52368D1*
X53707D2*
X53927D1*
X42147Y27011D2*
X42755D1*
X43321D2*
X52755D1*
X53321D2*
X53927D1*
X42147Y26763D2*
X53927D1*
X42147Y26514D2*
X53927D1*
X42147Y26265D2*
X53927D1*
X42147Y26017D2*
X53927D1*
X42147Y25768D2*
X53927D1*
X42147Y25519D2*
X48001D1*
X48723D2*
X53927D1*
X42147Y25271D2*
X48013D1*
X48711D2*
X49872D1*
X50852D2*
X53927D1*
X42147Y25022D2*
X48052D1*
X48672D2*
X49728D1*
X50993D2*
X53927D1*
X42147Y24773D2*
X48052D1*
X48672D2*
X49704D1*
X51020D2*
X53927D1*
X42848Y24524D2*
X48052D1*
X48672D2*
X49376D1*
X50938D2*
X53927D1*
X42899Y24276D2*
X43228D1*
X43571D2*
X47986D1*
X48739D2*
X49388D1*
X50844D2*
X53927D1*
X42793Y24027D2*
X42978D1*
X43821D2*
X48099D1*
X48625D2*
X49427D1*
X50993D2*
X53927D1*
X42147Y23778D2*
X42954D1*
X43848D2*
X49427D1*
X51020D2*
X53927D1*
X42147Y23530D2*
X43025D1*
X43778D2*
X49427D1*
X50942D2*
X53927D1*
X42147Y23281D2*
X49427D1*
X50840D2*
X53927D1*
X42147Y23032D2*
X49427D1*
X50993D2*
X53927D1*
X42147Y22784D2*
X49427D1*
X51020D2*
X53927D1*
X42147Y22535D2*
X46728D1*
X47914D2*
X49427D1*
X50946D2*
X53927D1*
X42147Y22286D2*
X43181D1*
X43618D2*
X46634D1*
X48012D2*
X49427D1*
X50836D2*
X53927D1*
X42147Y22038D2*
X42974D1*
X43828D2*
X46591D1*
X48051D2*
X49427D1*
X50989D2*
X53927D1*
X42524Y21789D2*
X42954D1*
X43848D2*
X46724D1*
X47961D2*
X49427D1*
X51020D2*
X53927D1*
X42864Y21540D2*
X43036D1*
X43762D2*
X49427D1*
X50950D2*
X53927D1*
X42895Y21292D2*
X49486D1*
X50828D2*
X53927D1*
X42762Y21043D2*
X49728D1*
X50989D2*
X53927D1*
X42147Y20794D2*
X49704D1*
X51020D2*
X53927D1*
X42147Y20545D2*
X49775D1*
X50950D2*
X53927D1*
X42147Y20297D2*
X50005D1*
X50719D2*
X53927D1*
X42147Y20048D2*
X53927D1*
X42147Y19799D2*
X53927D1*
X42147Y19551D2*
X53927D1*
X42147Y19302D2*
X53927D1*
X42147Y19053D2*
X53927D1*
X42147Y18805D2*
X53927D1*
X42147Y18556D2*
X42532D1*
X43543D2*
X52532D1*
X53543D2*
X53927D1*
X42147Y18307D2*
X42286D1*
X43789D2*
X52286D1*
X53789D2*
X53925D1*
X43899Y18059D2*
X52177D1*
X43926Y17810D2*
X52146D1*
X43883Y17561D2*
X52193D1*
X42147Y17313D2*
X42325D1*
X43750D2*
X52325D1*
X53750D2*
X53927D1*
X42147Y17064D2*
X42626D1*
X43450D2*
X52626D1*
X53450D2*
X53927D1*
X42982Y23879D2*
X42981Y23929D1*
X43013Y24050D1*
X43080Y24155D1*
X43174Y24237D1*
X43288Y24287D1*
X43411Y24302D1*
X43534Y24280D1*
X43645Y24224D1*
X43735Y24137D1*
X43795Y24029D1*
X43821Y23876D1*
X43818Y23762D1*
X43804Y23639D1*
X43750Y23527D1*
X43666Y23435D1*
X43559Y23371D1*
X43438Y23342D1*
X43314Y23349D1*
X43197Y23392D1*
X43098Y23468D1*
X43025Y23569D1*
X42985Y23687D1*
X42978Y23762D1*
X42982Y23880D1*
Y21910D2*
X42981Y21961D1*
X43013Y22081D1*
X43080Y22187D1*
X43174Y22268D1*
X43288Y22319D1*
X43411Y22334D1*
X43534Y22312D1*
X43645Y22255D1*
X43735Y22169D1*
X43795Y22060D1*
X43821Y21908D1*
X43818Y21794D1*
X43804Y21671D1*
X43750Y21558D1*
X43666Y21466D1*
X43559Y21403D1*
X43438Y21373D1*
X43314Y21381D1*
X43197Y21424D1*
X43098Y21499D1*
X43025Y21600D1*
X42985Y21718D1*
X42978Y21794D1*
X42982Y21912D1*
X42231Y23886D2*
X42157Y23887D1*
X42124Y23898D1*
X42122Y22502D1*
Y21780D1*
X42229Y21789D1*
X42445Y21792D1*
X42535Y21783D1*
X42651Y21740D1*
X42751Y21665D1*
X42825Y21565D1*
X42868Y21448D1*
X42877Y21361D1*
X42859Y21237D1*
X42807Y21124D1*
X42724Y21031D1*
X42619Y20965D1*
X42498Y20932D1*
X42445Y20929D1*
X42157Y20935D1*
X42124Y20945D1*
X42122Y18752D1*
Y16922D1*
X53952D1*
Y28752D1*
X42122D1*
Y24733D1*
X42229Y24742D1*
X42445Y24745D1*
X42535Y24736D1*
X42651Y24693D1*
X42751Y24618D1*
X42825Y24518D1*
X42868Y24401D1*
X42877Y24313D1*
X42859Y24190D1*
X42807Y24077D1*
X42724Y23984D1*
X42619Y23918D1*
X42498Y23885D1*
X42445Y23882D1*
X42229Y23885D1*
X50985Y24713D2*
X50948Y24593D1*
X50889Y24483D1*
X50810Y24387D1*
X50753Y24340D1*
X50817Y24280D1*
X50895Y24182D1*
X50952Y24071D1*
X50987Y23951D1*
X50997Y23837D1*
X50985Y23713D1*
X50948Y23593D1*
X50889Y23483D1*
X50810Y23387D1*
X50753Y23340D1*
X50817Y23280D1*
X50895Y23182D1*
X50952Y23071D1*
X50987Y22951D1*
X50997Y22837D1*
X50985Y22713D1*
X50948Y22593D1*
X50889Y22483D1*
X50810Y22387D1*
X50753Y22340D1*
X50817Y22280D1*
X50895Y22182D1*
X50952Y22071D1*
X50987Y21951D1*
X50997Y21837D1*
X50985Y21713D1*
X50948Y21593D1*
X50889Y21483D1*
X50810Y21387D1*
X50753Y21340D1*
X50817Y21280D1*
X50895Y21182D1*
X50952Y21071D1*
X50987Y20951D1*
X50997Y20837D1*
X50985Y20713D1*
X50948Y20593D1*
X50889Y20483D1*
X50810Y20387D1*
X50713Y20308D1*
X50603Y20250D1*
X50484Y20214D1*
X50359Y20202D1*
X50235Y20215D1*
X50116Y20252D1*
X50006Y20311D1*
X49910Y20391D1*
X49832Y20488D1*
X49774Y20598D1*
X49738Y20718D1*
X49727Y20842D1*
X49740Y20966D1*
X49762Y21037D1*
X49535Y21260D1*
X49468Y21369D1*
X49488Y21323D1*
X49452Y21462D1*
Y24200D1*
X49401Y24304D1*
X49384Y24428D1*
X49412Y24549D1*
X49479Y24653D1*
X49579Y24728D1*
X49698Y24763D1*
X49733Y24761D1*
X49727Y24842D1*
X49740Y24966D1*
X49778Y25085D1*
X49837Y25195D1*
X49918Y25290D1*
X50015Y25369D1*
X50125Y25426D1*
X50245Y25461D1*
X50370Y25472D1*
X50494Y25458D1*
X50613Y25420D1*
X50722Y25360D1*
X50817Y25280D1*
X50895Y25182D1*
X50952Y25071D1*
X50987Y24951D1*
X50997Y24837D1*
X50985Y24713D1*
X53893Y27712D2*
X53866Y27590D1*
X53822Y27474D1*
X53761Y27364D1*
X53686Y27265D1*
X53597Y27178D1*
X53496Y27104D1*
X53386Y27045D1*
X53268Y27003D1*
X53145Y26979D1*
X53021Y26972D1*
X52896Y26984D1*
X52775Y27013D1*
X52659Y27059D1*
X52551Y27122D1*
X52453Y27199D1*
X52367Y27290D1*
X52295Y27392D1*
X52239Y27503D1*
X52199Y27622D1*
X52177Y27745D1*
X52173Y27870D1*
X52186Y27994D1*
X52218Y28115D1*
X52266Y28230D1*
X52331Y28337D1*
X52410Y28433D1*
X52502Y28517D1*
X52606Y28587D1*
X52718Y28641D1*
X52838Y28679D1*
X52961Y28699D1*
X53086Y28701D1*
X53210Y28685D1*
X53330Y28651D1*
X53444Y28600D1*
X53550Y28534D1*
X53645Y28453D1*
X53727Y28359D1*
X53795Y28254D1*
X53847Y28140D1*
X53882Y28021D1*
X53902Y27837D1*
X53893Y27712D1*
X43893D2*
X43866Y27590D1*
X43822Y27474D1*
X43761Y27364D1*
X43686Y27265D1*
X43597Y27178D1*
X43496Y27104D1*
X43386Y27045D1*
X43268Y27003D1*
X43145Y26979D1*
X43021Y26972D1*
X42896Y26984D1*
X42775Y27013D1*
X42659Y27059D1*
X42551Y27122D1*
X42453Y27199D1*
X42367Y27290D1*
X42295Y27392D1*
X42239Y27503D1*
X42199Y27622D1*
X42177Y27745D1*
X42173Y27870D1*
X42186Y27994D1*
X42218Y28115D1*
X42266Y28230D1*
X42331Y28337D1*
X42410Y28433D1*
X42502Y28517D1*
X42606Y28587D1*
X42718Y28641D1*
X42838Y28679D1*
X42961Y28699D1*
X43086Y28701D1*
X43210Y28685D1*
X43330Y28651D1*
X43444Y28600D1*
X43550Y28534D1*
X43645Y28453D1*
X43727Y28359D1*
X43795Y28254D1*
X43847Y28140D1*
X43882Y28021D1*
X43902Y27837D1*
X43893Y27712D1*
Y17712D2*
X43866Y17590D1*
X43822Y17474D1*
X43761Y17364D1*
X43686Y17265D1*
X43597Y17178D1*
X43496Y17104D1*
X43386Y17045D1*
X43268Y17003D1*
X43145Y16979D1*
X43021Y16972D1*
X42896Y16984D1*
X42775Y17013D1*
X42659Y17059D1*
X42551Y17122D1*
X42453Y17199D1*
X42367Y17290D1*
X42295Y17392D1*
X42239Y17503D1*
X42199Y17622D1*
X42177Y17745D1*
X42173Y17870D1*
X42186Y17994D1*
X42218Y18115D1*
X42266Y18230D1*
X42331Y18337D1*
X42410Y18433D1*
X42502Y18517D1*
X42606Y18587D1*
X42718Y18641D1*
X42838Y18679D1*
X42961Y18699D1*
X43086Y18701D1*
X43210Y18685D1*
X43330Y18651D1*
X43444Y18600D1*
X43550Y18534D1*
X43645Y18453D1*
X43727Y18359D1*
X43795Y18254D1*
X43847Y18140D1*
X43882Y18021D1*
X43902Y17837D1*
X43893Y17712D1*
X53893D2*
X53866Y17590D1*
X53822Y17474D1*
X53761Y17364D1*
X53686Y17265D1*
X53597Y17178D1*
X53496Y17104D1*
X53386Y17045D1*
X53268Y17003D1*
X53145Y16979D1*
X53021Y16972D1*
X52896Y16984D1*
X52775Y17013D1*
X52659Y17059D1*
X52551Y17122D1*
X52453Y17199D1*
X52367Y17290D1*
X52295Y17392D1*
X52239Y17503D1*
X52199Y17622D1*
X52177Y17745D1*
X52173Y17870D1*
X52186Y17994D1*
X52218Y18115D1*
X52266Y18230D1*
X52331Y18337D1*
X52410Y18433D1*
X52502Y18517D1*
X52606Y18587D1*
X52718Y18641D1*
X52838Y18679D1*
X52961Y18699D1*
X53086Y18701D1*
X53210Y18685D1*
X53330Y18651D1*
X53444Y18600D1*
X53550Y18534D1*
X53645Y18453D1*
X53727Y18359D1*
X53795Y18254D1*
X53847Y18140D1*
X53882Y18021D1*
X53902Y17837D1*
X53893Y17712D1*
X47946Y22393D2*
X48022Y22189D1*
X48030Y22050D1*
X47990Y21890D1*
X47940Y21794D1*
X47848Y21729D1*
X47762Y21712D1*
X46922D1*
X46803Y21745D1*
X46712Y21842D1*
X46632Y22002D1*
X46609Y22121D1*
Y22078D1*
X46622Y22189D1*
X46742Y22510D1*
X46814Y22610D1*
X46931Y22659D1*
X47587Y22662D1*
X47682D1*
X47801Y22630D1*
X47888Y22538D1*
X47946Y22393D1*
X48077Y24494D2*
Y25205D1*
X48026Y25304D1*
X48009Y25428D1*
X48037Y25549D1*
X48104Y25653D1*
X48204Y25728D1*
X48323Y25763D1*
X48447Y25755D1*
X48561Y25704D1*
X48650Y25617D1*
X48703Y25505D1*
X48715Y25412D1*
X48693Y25290D1*
X48648Y25213D1*
X48650Y24492D1*
X48703Y24380D1*
X48715Y24287D1*
X48693Y24165D1*
X48630Y24057D1*
X48534Y23979D1*
X48416Y23938D1*
X48292Y23941D1*
X48176Y23987D1*
X48084Y24070D1*
X48026Y24179D1*
X48009Y24303D1*
X48037Y24424D1*
X48077Y24486D1*
D21*
X43400Y23821D3*
Y21853D3*
D22*
X42337Y24313D3*
Y21361D3*
D25*
X50362Y24837D3*
Y23837D3*
Y22837D3*
Y21837D3*
Y20837D3*
G36*
X47802Y22107D2*
X47682Y22427D1*
X46962D1*
X46842Y22107D1*
X46922Y21947D1*
X47762D1*
D1*
X47802Y22107D1*
G37*
X11064Y38389D2*
D13*
X10312D1*
X9564D1*
X6062Y34887D1*
X7062Y33187D2*
Y33887D1*
X6062Y34887D1*
X9812Y32012D2*
Y32387D1*
X7812D1*
X7037Y33162D1*
X7062Y33187D1*
X10437Y32762D2*
X10152D1*
X9812Y32422D1*
Y32387D1*
X13812Y31012D2*
X10812D1*
X9812Y32012D1*
X6812Y36637D2*
Y35691D1*
X6062Y34887D1*
X11937Y37012D2*
D14*
Y34062D1*
X12562Y33437D1*
X10562Y36887D2*
Y38012D1*
D29*
X11064Y38389D3*
X6062Y34887D3*
X7062Y33187D3*
X9812Y32012D3*
X7062Y33187D3*
X10312Y38389D3*
X10437Y32762D3*
X13812Y31012D3*
X9812Y32012D3*
X6812Y36637D3*
X11937Y37012D3*
X10562Y36887D3*
Y38012D3*
X4347Y41103D2*
D15*
X4662D1*
X5814D2*
X14662D1*
X15814D2*
X16127D1*
X4347Y40855D2*
X4455D1*
X6021D2*
X14455D1*
X16021D2*
X16125D1*
X6111Y40606D2*
X14365D1*
X6122Y40357D2*
X14350D1*
X6064Y40109D2*
X14412D1*
X4347Y39860D2*
X4568D1*
X5907D2*
X14568D1*
X15907D2*
X16127D1*
X4347Y39611D2*
X4955D1*
X5521D2*
X14955D1*
X15521D2*
X16127D1*
X4347Y39363D2*
X16127D1*
X4347Y39114D2*
X16127D1*
X4347Y38865D2*
X16127D1*
X4347Y38617D2*
X16127D1*
X4347Y38368D2*
X16127D1*
X4347Y38119D2*
X10201D1*
X10923D2*
X16127D1*
X4347Y37871D2*
X10213D1*
X10911D2*
X12072D1*
X13052D2*
X16127D1*
X4347Y37622D2*
X10252D1*
X10872D2*
X11928D1*
X13193D2*
X16127D1*
X4347Y37373D2*
X10252D1*
X10872D2*
X11904D1*
X13220D2*
X16127D1*
X5048Y37124D2*
X10252D1*
X10872D2*
X11576D1*
X13138D2*
X16127D1*
X5099Y36876D2*
X5428D1*
X5771D2*
X10186D1*
X10939D2*
X11588D1*
X13044D2*
X16127D1*
X4993Y36627D2*
X5178D1*
X6021D2*
X10299D1*
X10825D2*
X11627D1*
X13193D2*
X16127D1*
X4347Y36378D2*
X5154D1*
X6048D2*
X11627D1*
X13220D2*
X16127D1*
X4347Y36130D2*
X5225D1*
X5978D2*
X11627D1*
X13142D2*
X16127D1*
X4347Y35881D2*
X11627D1*
X13040D2*
X16127D1*
X4347Y35632D2*
X11627D1*
X13193D2*
X16127D1*
X4347Y35384D2*
X11627D1*
X13220D2*
X16127D1*
X4347Y35135D2*
X8928D1*
X10114D2*
X11627D1*
X13146D2*
X16127D1*
X4347Y34886D2*
X5381D1*
X5818D2*
X8834D1*
X10212D2*
X11627D1*
X13036D2*
X16127D1*
X4347Y34638D2*
X5174D1*
X6028D2*
X8791D1*
X10251D2*
X11627D1*
X13189D2*
X16127D1*
X4724Y34389D2*
X5154D1*
X6048D2*
X8924D1*
X10161D2*
X11627D1*
X13220D2*
X16127D1*
X5064Y34140D2*
X5236D1*
X5962D2*
X11627D1*
X13150D2*
X16127D1*
X5095Y33892D2*
X11686D1*
X13028D2*
X16127D1*
X4962Y33643D2*
X11928D1*
X13189D2*
X16127D1*
X4347Y33394D2*
X11904D1*
X13220D2*
X16127D1*
X4347Y33145D2*
X11975D1*
X13150D2*
X16127D1*
X4347Y32897D2*
X12205D1*
X12919D2*
X16127D1*
X4347Y32648D2*
X16127D1*
X4347Y32399D2*
X16127D1*
X4347Y32151D2*
X16127D1*
X4347Y31902D2*
X16127D1*
X4347Y31653D2*
X16127D1*
X4347Y31405D2*
X16127D1*
X4347Y31156D2*
X4732D1*
X5743D2*
X14732D1*
X15743D2*
X16127D1*
X4347Y30907D2*
X4486D1*
X5989D2*
X14486D1*
X15989D2*
X16125D1*
X6099Y30659D2*
X14377D1*
X6126Y30410D2*
X14346D1*
X6083Y30161D2*
X14393D1*
X4347Y29913D2*
X4525D1*
X5950D2*
X14525D1*
X15950D2*
X16127D1*
X4347Y29664D2*
X4826D1*
X5650D2*
X14826D1*
X15650D2*
X16127D1*
X5182Y36479D2*
X5181Y36529D1*
X5213Y36650D1*
X5280Y36755D1*
X5374Y36837D1*
X5488Y36887D1*
X5611Y36902D1*
X5734Y36880D1*
X5845Y36824D1*
X5935Y36737D1*
X5995Y36629D1*
X6021Y36476D1*
X6018Y36362D1*
X6004Y36239D1*
X5950Y36127D1*
X5866Y36035D1*
X5759Y35971D1*
X5638Y35942D1*
X5514Y35949D1*
X5397Y35992D1*
X5298Y36068D1*
X5225Y36169D1*
X5185Y36287D1*
X5178Y36362D1*
X5182Y36480D1*
Y34510D2*
X5181Y34561D1*
X5213Y34681D1*
X5280Y34787D1*
X5374Y34868D1*
X5488Y34919D1*
X5611Y34934D1*
X5734Y34912D1*
X5845Y34855D1*
X5935Y34769D1*
X5995Y34660D1*
X6021Y34508D1*
X6018Y34394D1*
X6004Y34271D1*
X5950Y34158D1*
X5866Y34066D1*
X5759Y34003D1*
X5638Y33973D1*
X5514Y33981D1*
X5397Y34024D1*
X5298Y34099D1*
X5225Y34200D1*
X5185Y34318D1*
X5178Y34394D1*
X5182Y34512D1*
X4431Y36486D2*
X4357Y36487D1*
X4324Y36498D1*
X4322Y35102D1*
Y34380D1*
X4429Y34389D1*
X4645Y34392D1*
X4735Y34383D1*
X4851Y34340D1*
X4951Y34265D1*
X5025Y34165D1*
X5068Y34048D1*
X5077Y33961D1*
X5059Y33837D1*
X5007Y33724D1*
X4924Y33631D1*
X4819Y33565D1*
X4698Y33532D1*
X4645Y33529D1*
X4357Y33535D1*
X4324Y33545D1*
X4322Y31352D1*
Y29522D1*
X16152D1*
Y41352D1*
X4322D1*
Y37333D1*
X4429Y37342D1*
X4645Y37345D1*
X4735Y37336D1*
X4851Y37293D1*
X4951Y37218D1*
X5025Y37118D1*
X5068Y37001D1*
X5077Y36913D1*
X5059Y36790D1*
X5007Y36677D1*
X4924Y36584D1*
X4819Y36518D1*
X4698Y36485D1*
X4645Y36482D1*
X4429Y36485D1*
X13185Y37313D2*
X13148Y37193D1*
X13089Y37083D1*
X13010Y36987D1*
X12953Y36940D1*
X13017Y36880D1*
X13095Y36782D1*
X13152Y36671D1*
X13187Y36551D1*
X13197Y36437D1*
X13185Y36313D1*
X13148Y36193D1*
X13089Y36083D1*
X13010Y35987D1*
X12953Y35940D1*
X13017Y35880D1*
X13095Y35782D1*
X13152Y35671D1*
X13187Y35551D1*
X13197Y35437D1*
X13185Y35313D1*
X13148Y35193D1*
X13089Y35083D1*
X13010Y34987D1*
X12953Y34940D1*
X13017Y34880D1*
X13095Y34782D1*
X13152Y34671D1*
X13187Y34551D1*
X13197Y34437D1*
X13185Y34313D1*
X13148Y34193D1*
X13089Y34083D1*
X13010Y33987D1*
X12953Y33940D1*
X13017Y33880D1*
X13095Y33782D1*
X13152Y33671D1*
X13187Y33551D1*
X13197Y33437D1*
X13185Y33313D1*
X13148Y33193D1*
X13089Y33083D1*
X13010Y32987D1*
X12913Y32908D1*
X12803Y32850D1*
X12684Y32814D1*
X12559Y32802D1*
X12435Y32815D1*
X12316Y32852D1*
X12206Y32911D1*
X12110Y32991D1*
X12032Y33088D1*
X11974Y33198D1*
X11938Y33318D1*
X11927Y33442D1*
X11940Y33566D1*
X11962Y33637D1*
X11735Y33860D1*
X11668Y33969D1*
X11688Y33923D1*
X11652Y34062D1*
Y36800D1*
X11601Y36904D1*
X11584Y37028D1*
X11612Y37149D1*
X11679Y37253D1*
X11779Y37328D1*
X11898Y37363D1*
X11933Y37361D1*
X11927Y37442D1*
X11940Y37566D1*
X11978Y37685D1*
X12037Y37795D1*
X12118Y37890D1*
X12215Y37969D1*
X12325Y38026D1*
X12445Y38061D1*
X12570Y38072D1*
X12694Y38058D1*
X12813Y38020D1*
X12922Y37960D1*
X13017Y37880D1*
X13095Y37782D1*
X13152Y37671D1*
X13187Y37551D1*
X13197Y37437D1*
X13185Y37313D1*
X16093Y40312D2*
X16066Y40190D1*
X16022Y40074D1*
X15961Y39964D1*
X15886Y39865D1*
X15797Y39778D1*
X15696Y39704D1*
X15586Y39645D1*
X15468Y39603D1*
X15345Y39579D1*
X15221Y39572D1*
X15096Y39584D1*
X14975Y39613D1*
X14859Y39659D1*
X14751Y39722D1*
X14653Y39799D1*
X14567Y39890D1*
X14495Y39992D1*
X14439Y40103D1*
X14399Y40222D1*
X14377Y40345D1*
X14373Y40470D1*
X14386Y40594D1*
X14418Y40715D1*
X14466Y40830D1*
X14531Y40937D1*
X14610Y41033D1*
X14702Y41117D1*
X14806Y41187D1*
X14918Y41241D1*
X15038Y41279D1*
X15161Y41299D1*
X15286Y41301D1*
X15410Y41285D1*
X15530Y41251D1*
X15644Y41200D1*
X15750Y41134D1*
X15845Y41053D1*
X15927Y40959D1*
X15995Y40854D1*
X16047Y40740D1*
X16082Y40621D1*
X16102Y40437D1*
X16093Y40312D1*
X6093D2*
X6066Y40190D1*
X6022Y40074D1*
X5961Y39964D1*
X5886Y39865D1*
X5797Y39778D1*
X5696Y39704D1*
X5586Y39645D1*
X5468Y39603D1*
X5345Y39579D1*
X5221Y39572D1*
X5096Y39584D1*
X4975Y39613D1*
X4859Y39659D1*
X4751Y39722D1*
X4653Y39799D1*
X4567Y39890D1*
X4495Y39992D1*
X4439Y40103D1*
X4399Y40222D1*
X4377Y40345D1*
X4373Y40470D1*
X4386Y40594D1*
X4418Y40715D1*
X4466Y40830D1*
X4531Y40937D1*
X4610Y41033D1*
X4702Y41117D1*
X4806Y41187D1*
X4918Y41241D1*
X5038Y41279D1*
X5161Y41299D1*
X5286Y41301D1*
X5410Y41285D1*
X5530Y41251D1*
X5644Y41200D1*
X5750Y41134D1*
X5845Y41053D1*
X5927Y40959D1*
X5995Y40854D1*
X6047Y40740D1*
X6082Y40621D1*
X6102Y40437D1*
X6093Y40312D1*
Y30312D2*
X6066Y30190D1*
X6022Y30074D1*
X5961Y29964D1*
X5886Y29865D1*
X5797Y29778D1*
X5696Y29704D1*
X5586Y29645D1*
X5468Y29603D1*
X5345Y29579D1*
X5221Y29572D1*
X5096Y29584D1*
X4975Y29613D1*
X4859Y29659D1*
X4751Y29722D1*
X4653Y29799D1*
X4567Y29890D1*
X4495Y29992D1*
X4439Y30103D1*
X4399Y30222D1*
X4377Y30345D1*
X4373Y30470D1*
X4386Y30594D1*
X4418Y30715D1*
X4466Y30830D1*
X4531Y30937D1*
X4610Y31033D1*
X4702Y31117D1*
X4806Y31187D1*
X4918Y31241D1*
X5038Y31279D1*
X5161Y31299D1*
X5286Y31301D1*
X5410Y31285D1*
X5530Y31251D1*
X5644Y31200D1*
X5750Y31134D1*
X5845Y31053D1*
X5927Y30959D1*
X5995Y30854D1*
X6047Y30740D1*
X6082Y30621D1*
X6102Y30437D1*
X6093Y30312D1*
X16093D2*
X16066Y30190D1*
X16022Y30074D1*
X15961Y29964D1*
X15886Y29865D1*
X15797Y29778D1*
X15696Y29704D1*
X15586Y29645D1*
X15468Y29603D1*
X15345Y29579D1*
X15221Y29572D1*
X15096Y29584D1*
X14975Y29613D1*
X14859Y29659D1*
X14751Y29722D1*
X14653Y29799D1*
X14567Y29890D1*
X14495Y29992D1*
X14439Y30103D1*
X14399Y30222D1*
X14377Y30345D1*
X14373Y30470D1*
X14386Y30594D1*
X14418Y30715D1*
X14466Y30830D1*
X14531Y30937D1*
X14610Y31033D1*
X14702Y31117D1*
X14806Y31187D1*
X14918Y31241D1*
X15038Y31279D1*
X15161Y31299D1*
X15286Y31301D1*
X15410Y31285D1*
X15530Y31251D1*
X15644Y31200D1*
X15750Y31134D1*
X15845Y31053D1*
X15927Y30959D1*
X15995Y30854D1*
X16047Y30740D1*
X16082Y30621D1*
X16102Y30437D1*
X16093Y30312D1*
X10146Y34993D2*
X10222Y34789D1*
X10230Y34650D1*
X10190Y34490D1*
X10140Y34394D1*
X10048Y34329D1*
X9962Y34312D1*
X9122D1*
X9003Y34345D1*
X8912Y34442D1*
X8832Y34602D1*
X8809Y34721D1*
Y34678D1*
X8822Y34789D1*
X8942Y35110D1*
X9014Y35210D1*
X9131Y35259D1*
X9787Y35262D1*
X9882D1*
X10001Y35230D1*
X10088Y35138D1*
X10146Y34993D1*
X10277Y37094D2*
Y37805D1*
X10226Y37904D1*
X10209Y38028D1*
X10237Y38149D1*
X10304Y38253D1*
X10404Y38328D1*
X10523Y38363D1*
X10647Y38355D1*
X10761Y38304D1*
X10850Y38217D1*
X10903Y38105D1*
X10915Y38012D1*
X10893Y37890D1*
X10848Y37813D1*
X10850Y37092D1*
X10903Y36980D1*
X10915Y36887D1*
X10893Y36765D1*
X10830Y36657D1*
X10734Y36579D1*
X10616Y36538D1*
X10492Y36541D1*
X10376Y36587D1*
X10284Y36670D1*
X10226Y36779D1*
X10209Y36903D1*
X10237Y37024D1*
X10277Y37086D1*
D21*
X5600Y36421D3*
Y34453D3*
D22*
X4537Y36913D3*
Y33961D3*
D25*
X12562Y37437D3*
Y36437D3*
Y35437D3*
Y34437D3*
Y33437D3*
G36*
X10002Y34707D2*
X9882Y35027D1*
X9162D1*
X9042Y34707D1*
X9122Y34547D1*
X9962D1*
D1*
X10002Y34707D1*
G37*
X23664Y38389D2*
D13*
X22912D1*
X22164D1*
X18662Y34887D1*
X19662Y33187D2*
Y33887D1*
X18662Y34887D1*
X22412Y32012D2*
Y32387D1*
X20412D1*
X19637Y33162D1*
X19662Y33187D1*
X23037Y32762D2*
X22752D1*
X22412Y32422D1*
Y32387D1*
X26412Y31012D2*
X23412D1*
X22412Y32012D1*
X19412Y36637D2*
Y35691D1*
X18662Y34887D1*
X24537Y37012D2*
D14*
Y34062D1*
X25162Y33437D1*
X23162Y36887D2*
Y38012D1*
D29*
X23664Y38389D3*
X18662Y34887D3*
X19662Y33187D3*
X22412Y32012D3*
X19662Y33187D3*
X22912Y38389D3*
X23037Y32762D3*
X26412Y31012D3*
X22412Y32012D3*
X19412Y36637D3*
X24537Y37012D3*
X23162Y36887D3*
Y38012D3*
X16947Y41103D2*
D15*
X17262D1*
X18414D2*
X27262D1*
X28414D2*
X28727D1*
X16947Y40855D2*
X17055D1*
X18621D2*
X27055D1*
X28621D2*
X28725D1*
X18711Y40606D2*
X26965D1*
X18722Y40357D2*
X26950D1*
X18664Y40109D2*
X27012D1*
X16947Y39860D2*
X17168D1*
X18507D2*
X27168D1*
X28507D2*
X28727D1*
X16947Y39611D2*
X17555D1*
X18121D2*
X27555D1*
X28121D2*
X28727D1*
X16947Y39363D2*
X28727D1*
X16947Y39114D2*
X28727D1*
X16947Y38865D2*
X28727D1*
X16947Y38617D2*
X28727D1*
X16947Y38368D2*
X28727D1*
X16947Y38119D2*
X22801D1*
X23523D2*
X28727D1*
X16947Y37871D2*
X22813D1*
X23511D2*
X24672D1*
X25652D2*
X28727D1*
X16947Y37622D2*
X22852D1*
X23472D2*
X24528D1*
X25793D2*
X28727D1*
X16947Y37373D2*
X22852D1*
X23472D2*
X24504D1*
X25820D2*
X28727D1*
X17648Y37124D2*
X22852D1*
X23472D2*
X24176D1*
X25738D2*
X28727D1*
X17699Y36876D2*
X18028D1*
X18371D2*
X22786D1*
X23539D2*
X24188D1*
X25644D2*
X28727D1*
X17593Y36627D2*
X17778D1*
X18621D2*
X22899D1*
X23425D2*
X24227D1*
X25793D2*
X28727D1*
X16947Y36378D2*
X17754D1*
X18648D2*
X24227D1*
X25820D2*
X28727D1*
X16947Y36130D2*
X17825D1*
X18578D2*
X24227D1*
X25742D2*
X28727D1*
X16947Y35881D2*
X24227D1*
X25640D2*
X28727D1*
X16947Y35632D2*
X24227D1*
X25793D2*
X28727D1*
X16947Y35384D2*
X24227D1*
X25820D2*
X28727D1*
X16947Y35135D2*
X21528D1*
X22714D2*
X24227D1*
X25746D2*
X28727D1*
X16947Y34886D2*
X17981D1*
X18418D2*
X21434D1*
X22812D2*
X24227D1*
X25636D2*
X28727D1*
X16947Y34638D2*
X17774D1*
X18628D2*
X21391D1*
X22851D2*
X24227D1*
X25789D2*
X28727D1*
X17324Y34389D2*
X17754D1*
X18648D2*
X21524D1*
X22761D2*
X24227D1*
X25820D2*
X28727D1*
X17664Y34140D2*
X17836D1*
X18562D2*
X24227D1*
X25750D2*
X28727D1*
X17695Y33892D2*
X24286D1*
X25628D2*
X28727D1*
X17562Y33643D2*
X24528D1*
X25789D2*
X28727D1*
X16947Y33394D2*
X24504D1*
X25820D2*
X28727D1*
X16947Y33145D2*
X24575D1*
X25750D2*
X28727D1*
X16947Y32897D2*
X24805D1*
X25519D2*
X28727D1*
X16947Y32648D2*
X28727D1*
X16947Y32399D2*
X28727D1*
X16947Y32151D2*
X28727D1*
X16947Y31902D2*
X28727D1*
X16947Y31653D2*
X28727D1*
X16947Y31405D2*
X28727D1*
X16947Y31156D2*
X17332D1*
X18343D2*
X27332D1*
X28343D2*
X28727D1*
X16947Y30907D2*
X17086D1*
X18589D2*
X27086D1*
X28589D2*
X28725D1*
X18699Y30659D2*
X26977D1*
X18726Y30410D2*
X26946D1*
X18683Y30161D2*
X26993D1*
X16947Y29913D2*
X17125D1*
X18550D2*
X27125D1*
X28550D2*
X28727D1*
X16947Y29664D2*
X17426D1*
X18250D2*
X27426D1*
X28250D2*
X28727D1*
X17782Y36479D2*
X17781Y36529D1*
X17813Y36650D1*
X17880Y36755D1*
X17974Y36837D1*
X18088Y36887D1*
X18211Y36902D1*
X18334Y36880D1*
X18445Y36824D1*
X18535Y36737D1*
X18595Y36629D1*
X18621Y36476D1*
X18618Y36362D1*
X18604Y36239D1*
X18550Y36127D1*
X18466Y36035D1*
X18359Y35971D1*
X18238Y35942D1*
X18114Y35949D1*
X17997Y35992D1*
X17898Y36068D1*
X17825Y36169D1*
X17785Y36287D1*
X17778Y36362D1*
X17782Y36480D1*
Y34510D2*
X17781Y34561D1*
X17813Y34681D1*
X17880Y34787D1*
X17974Y34868D1*
X18088Y34919D1*
X18211Y34934D1*
X18334Y34912D1*
X18445Y34855D1*
X18535Y34769D1*
X18595Y34660D1*
X18621Y34508D1*
X18618Y34394D1*
X18604Y34271D1*
X18550Y34158D1*
X18466Y34066D1*
X18359Y34003D1*
X18238Y33973D1*
X18114Y33981D1*
X17997Y34024D1*
X17898Y34099D1*
X17825Y34200D1*
X17785Y34318D1*
X17778Y34394D1*
X17782Y34512D1*
X17031Y36486D2*
X16957Y36487D1*
X16924Y36498D1*
X16922Y35102D1*
Y34380D1*
X17029Y34389D1*
X17245Y34392D1*
X17335Y34383D1*
X17451Y34340D1*
X17551Y34265D1*
X17625Y34165D1*
X17668Y34048D1*
X17677Y33961D1*
X17659Y33837D1*
X17607Y33724D1*
X17524Y33631D1*
X17419Y33565D1*
X17298Y33532D1*
X17245Y33529D1*
X16957Y33535D1*
X16924Y33545D1*
X16922Y31352D1*
Y29522D1*
X28752D1*
Y41352D1*
X16922D1*
Y37333D1*
X17029Y37342D1*
X17245Y37345D1*
X17335Y37336D1*
X17451Y37293D1*
X17551Y37218D1*
X17625Y37118D1*
X17668Y37001D1*
X17677Y36913D1*
X17659Y36790D1*
X17607Y36677D1*
X17524Y36584D1*
X17419Y36518D1*
X17298Y36485D1*
X17245Y36482D1*
X17029Y36485D1*
X25785Y37313D2*
X25748Y37193D1*
X25689Y37083D1*
X25610Y36987D1*
X25553Y36940D1*
X25617Y36880D1*
X25695Y36782D1*
X25752Y36671D1*
X25787Y36551D1*
X25797Y36437D1*
X25785Y36313D1*
X25748Y36193D1*
X25689Y36083D1*
X25610Y35987D1*
X25553Y35940D1*
X25617Y35880D1*
X25695Y35782D1*
X25752Y35671D1*
X25787Y35551D1*
X25797Y35437D1*
X25785Y35313D1*
X25748Y35193D1*
X25689Y35083D1*
X25610Y34987D1*
X25553Y34940D1*
X25617Y34880D1*
X25695Y34782D1*
X25752Y34671D1*
X25787Y34551D1*
X25797Y34437D1*
X25785Y34313D1*
X25748Y34193D1*
X25689Y34083D1*
X25610Y33987D1*
X25553Y33940D1*
X25617Y33880D1*
X25695Y33782D1*
X25752Y33671D1*
X25787Y33551D1*
X25797Y33437D1*
X25785Y33313D1*
X25748Y33193D1*
X25689Y33083D1*
X25610Y32987D1*
X25513Y32908D1*
X25403Y32850D1*
X25284Y32814D1*
X25159Y32802D1*
X25035Y32815D1*
X24916Y32852D1*
X24806Y32911D1*
X24710Y32991D1*
X24632Y33088D1*
X24574Y33198D1*
X24538Y33318D1*
X24527Y33442D1*
X24540Y33566D1*
X24562Y33637D1*
X24335Y33860D1*
X24268Y33969D1*
X24288Y33923D1*
X24252Y34062D1*
Y36800D1*
X24201Y36904D1*
X24184Y37028D1*
X24212Y37149D1*
X24279Y37253D1*
X24379Y37328D1*
X24498Y37363D1*
X24533Y37361D1*
X24527Y37442D1*
X24540Y37566D1*
X24578Y37685D1*
X24637Y37795D1*
X24718Y37890D1*
X24815Y37969D1*
X24925Y38026D1*
X25045Y38061D1*
X25170Y38072D1*
X25294Y38058D1*
X25413Y38020D1*
X25522Y37960D1*
X25617Y37880D1*
X25695Y37782D1*
X25752Y37671D1*
X25787Y37551D1*
X25797Y37437D1*
X25785Y37313D1*
X28693Y40312D2*
X28666Y40190D1*
X28622Y40074D1*
X28561Y39964D1*
X28486Y39865D1*
X28397Y39778D1*
X28296Y39704D1*
X28186Y39645D1*
X28068Y39603D1*
X27945Y39579D1*
X27821Y39572D1*
X27696Y39584D1*
X27575Y39613D1*
X27459Y39659D1*
X27351Y39722D1*
X27253Y39799D1*
X27167Y39890D1*
X27095Y39992D1*
X27039Y40103D1*
X26999Y40222D1*
X26977Y40345D1*
X26973Y40470D1*
X26986Y40594D1*
X27018Y40715D1*
X27066Y40830D1*
X27131Y40937D1*
X27210Y41033D1*
X27302Y41117D1*
X27406Y41187D1*
X27518Y41241D1*
X27638Y41279D1*
X27761Y41299D1*
X27886Y41301D1*
X28010Y41285D1*
X28130Y41251D1*
X28244Y41200D1*
X28350Y41134D1*
X28445Y41053D1*
X28527Y40959D1*
X28595Y40854D1*
X28647Y40740D1*
X28682Y40621D1*
X28702Y40437D1*
X28693Y40312D1*
X18693D2*
X18666Y40190D1*
X18622Y40074D1*
X18561Y39964D1*
X18486Y39865D1*
X18397Y39778D1*
X18296Y39704D1*
X18186Y39645D1*
X18068Y39603D1*
X17945Y39579D1*
X17821Y39572D1*
X17696Y39584D1*
X17575Y39613D1*
X17459Y39659D1*
X17351Y39722D1*
X17253Y39799D1*
X17167Y39890D1*
X17095Y39992D1*
X17039Y40103D1*
X16999Y40222D1*
X16977Y40345D1*
X16973Y40470D1*
X16986Y40594D1*
X17018Y40715D1*
X17066Y40830D1*
X17131Y40937D1*
X17210Y41033D1*
X17302Y41117D1*
X17406Y41187D1*
X17518Y41241D1*
X17638Y41279D1*
X17761Y41299D1*
X17886Y41301D1*
X18010Y41285D1*
X18130Y41251D1*
X18244Y41200D1*
X18350Y41134D1*
X18445Y41053D1*
X18527Y40959D1*
X18595Y40854D1*
X18647Y40740D1*
X18682Y40621D1*
X18702Y40437D1*
X18693Y40312D1*
Y30312D2*
X18666Y30190D1*
X18622Y30074D1*
X18561Y29964D1*
X18486Y29865D1*
X18397Y29778D1*
X18296Y29704D1*
X18186Y29645D1*
X18068Y29603D1*
X17945Y29579D1*
X17821Y29572D1*
X17696Y29584D1*
X17575Y29613D1*
X17459Y29659D1*
X17351Y29722D1*
X17253Y29799D1*
X17167Y29890D1*
X17095Y29992D1*
X17039Y30103D1*
X16999Y30222D1*
X16977Y30345D1*
X16973Y30470D1*
X16986Y30594D1*
X17018Y30715D1*
X17066Y30830D1*
X17131Y30937D1*
X17210Y31033D1*
X17302Y31117D1*
X17406Y31187D1*
X17518Y31241D1*
X17638Y31279D1*
X17761Y31299D1*
X17886Y31301D1*
X18010Y31285D1*
X18130Y31251D1*
X18244Y31200D1*
X18350Y31134D1*
X18445Y31053D1*
X18527Y30959D1*
X18595Y30854D1*
X18647Y30740D1*
X18682Y30621D1*
X18702Y30437D1*
X18693Y30312D1*
X28693D2*
X28666Y30190D1*
X28622Y30074D1*
X28561Y29964D1*
X28486Y29865D1*
X28397Y29778D1*
X28296Y29704D1*
X28186Y29645D1*
X28068Y29603D1*
X27945Y29579D1*
X27821Y29572D1*
X27696Y29584D1*
X27575Y29613D1*
X27459Y29659D1*
X27351Y29722D1*
X27253Y29799D1*
X27167Y29890D1*
X27095Y29992D1*
X27039Y30103D1*
X26999Y30222D1*
X26977Y30345D1*
X26973Y30470D1*
X26986Y30594D1*
X27018Y30715D1*
X27066Y30830D1*
X27131Y30937D1*
X27210Y31033D1*
X27302Y31117D1*
X27406Y31187D1*
X27518Y31241D1*
X27638Y31279D1*
X27761Y31299D1*
X27886Y31301D1*
X28010Y31285D1*
X28130Y31251D1*
X28244Y31200D1*
X28350Y31134D1*
X28445Y31053D1*
X28527Y30959D1*
X28595Y30854D1*
X28647Y30740D1*
X28682Y30621D1*
X28702Y30437D1*
X28693Y30312D1*
X22746Y34993D2*
X22822Y34789D1*
X22830Y34650D1*
X22790Y34490D1*
X22740Y34394D1*
X22648Y34329D1*
X22562Y34312D1*
X21722D1*
X21603Y34345D1*
X21512Y34442D1*
X21432Y34602D1*
X21409Y34721D1*
Y34678D1*
X21422Y34789D1*
X21542Y35110D1*
X21614Y35210D1*
X21731Y35259D1*
X22387Y35262D1*
X22482D1*
X22601Y35230D1*
X22688Y35138D1*
X22746Y34993D1*
X22877Y37094D2*
Y37805D1*
X22826Y37904D1*
X22809Y38028D1*
X22837Y38149D1*
X22904Y38253D1*
X23004Y38328D1*
X23123Y38363D1*
X23247Y38355D1*
X23361Y38304D1*
X23450Y38217D1*
X23503Y38105D1*
X23515Y38012D1*
X23493Y37890D1*
X23448Y37813D1*
X23450Y37092D1*
X23503Y36980D1*
X23515Y36887D1*
X23493Y36765D1*
X23430Y36657D1*
X23334Y36579D1*
X23216Y36538D1*
X23092Y36541D1*
X22976Y36587D1*
X22884Y36670D1*
X22826Y36779D1*
X22809Y36903D1*
X22837Y37024D1*
X22877Y37086D1*
D21*
X18200Y36421D3*
Y34453D3*
D22*
X17137Y36913D3*
Y33961D3*
D25*
X25162Y37437D3*
Y36437D3*
Y35437D3*
Y34437D3*
Y33437D3*
G36*
X22602Y34707D2*
X22482Y35027D1*
X21762D1*
X21642Y34707D1*
X21722Y34547D1*
X22562D1*
D1*
X22602Y34707D1*
G37*
X36264Y38389D2*
D13*
X35512D1*
X34764D1*
X31262Y34887D1*
X32262Y33187D2*
Y33887D1*
X31262Y34887D1*
X35012Y32012D2*
Y32387D1*
X33012D1*
X32237Y33162D1*
X32262Y33187D1*
X35637Y32762D2*
X35352D1*
X35012Y32422D1*
Y32387D1*
X39012Y31012D2*
X36012D1*
X35012Y32012D1*
X32012Y36637D2*
Y35691D1*
X31262Y34887D1*
X37137Y37012D2*
D14*
Y34062D1*
X37762Y33437D1*
X35762Y36887D2*
Y38012D1*
D29*
X36264Y38389D3*
X31262Y34887D3*
X32262Y33187D3*
X35012Y32012D3*
X32262Y33187D3*
X35512Y38389D3*
X35637Y32762D3*
X39012Y31012D3*
X35012Y32012D3*
X32012Y36637D3*
X37137Y37012D3*
X35762Y36887D3*
Y38012D3*
X29547Y41103D2*
D15*
X29862D1*
X31014D2*
X39862D1*
X41014D2*
X41327D1*
X29547Y40855D2*
X29655D1*
X31221D2*
X39655D1*
X41221D2*
X41325D1*
X31311Y40606D2*
X39565D1*
X31322Y40357D2*
X39550D1*
X31264Y40109D2*
X39612D1*
X29547Y39860D2*
X29768D1*
X31107D2*
X39768D1*
X41107D2*
X41327D1*
X29547Y39611D2*
X30155D1*
X30721D2*
X40155D1*
X40721D2*
X41327D1*
X29547Y39363D2*
X41327D1*
X29547Y39114D2*
X41327D1*
X29547Y38865D2*
X41327D1*
X29547Y38617D2*
X41327D1*
X29547Y38368D2*
X41327D1*
X29547Y38119D2*
X35401D1*
X36123D2*
X41327D1*
X29547Y37871D2*
X35413D1*
X36111D2*
X37272D1*
X38252D2*
X41327D1*
X29547Y37622D2*
X35452D1*
X36072D2*
X37128D1*
X38393D2*
X41327D1*
X29547Y37373D2*
X35452D1*
X36072D2*
X37104D1*
X38420D2*
X41327D1*
X30248Y37124D2*
X35452D1*
X36072D2*
X36776D1*
X38338D2*
X41327D1*
X30299Y36876D2*
X30628D1*
X30971D2*
X35386D1*
X36139D2*
X36788D1*
X38244D2*
X41327D1*
X30193Y36627D2*
X30378D1*
X31221D2*
X35499D1*
X36025D2*
X36827D1*
X38393D2*
X41327D1*
X29547Y36378D2*
X30354D1*
X31248D2*
X36827D1*
X38420D2*
X41327D1*
X29547Y36130D2*
X30425D1*
X31178D2*
X36827D1*
X38342D2*
X41327D1*
X29547Y35881D2*
X36827D1*
X38240D2*
X41327D1*
X29547Y35632D2*
X36827D1*
X38393D2*
X41327D1*
X29547Y35384D2*
X36827D1*
X38420D2*
X41327D1*
X29547Y35135D2*
X34128D1*
X35314D2*
X36827D1*
X38346D2*
X41327D1*
X29547Y34886D2*
X30581D1*
X31018D2*
X34034D1*
X35412D2*
X36827D1*
X38236D2*
X41327D1*
X29547Y34638D2*
X30374D1*
X31228D2*
X33991D1*
X35451D2*
X36827D1*
X38389D2*
X41327D1*
X29924Y34389D2*
X30354D1*
X31248D2*
X34124D1*
X35361D2*
X36827D1*
X38420D2*
X41327D1*
X30264Y34140D2*
X30436D1*
X31162D2*
X36827D1*
X38350D2*
X41327D1*
X30295Y33892D2*
X36886D1*
X38228D2*
X41327D1*
X30162Y33643D2*
X37128D1*
X38389D2*
X41327D1*
X29547Y33394D2*
X37104D1*
X38420D2*
X41327D1*
X29547Y33145D2*
X37175D1*
X38350D2*
X41327D1*
X29547Y32897D2*
X37405D1*
X38119D2*
X41327D1*
X29547Y32648D2*
X41327D1*
X29547Y32399D2*
X41327D1*
X29547Y32151D2*
X41327D1*
X29547Y31902D2*
X41327D1*
X29547Y31653D2*
X41327D1*
X29547Y31405D2*
X41327D1*
X29547Y31156D2*
X29932D1*
X30943D2*
X39932D1*
X40943D2*
X41327D1*
X29547Y30907D2*
X29686D1*
X31189D2*
X39686D1*
X41189D2*
X41325D1*
X31299Y30659D2*
X39577D1*
X31326Y30410D2*
X39546D1*
X31283Y30161D2*
X39593D1*
X29547Y29913D2*
X29725D1*
X31150D2*
X39725D1*
X41150D2*
X41327D1*
X29547Y29664D2*
X30026D1*
X30850D2*
X40026D1*
X40850D2*
X41327D1*
X30382Y36479D2*
X30381Y36529D1*
X30413Y36650D1*
X30480Y36755D1*
X30574Y36837D1*
X30688Y36887D1*
X30811Y36902D1*
X30934Y36880D1*
X31045Y36824D1*
X31135Y36737D1*
X31195Y36629D1*
X31221Y36476D1*
X31218Y36362D1*
X31204Y36239D1*
X31150Y36127D1*
X31066Y36035D1*
X30959Y35971D1*
X30838Y35942D1*
X30714Y35949D1*
X30597Y35992D1*
X30498Y36068D1*
X30425Y36169D1*
X30385Y36287D1*
X30378Y36362D1*
X30382Y36480D1*
Y34510D2*
X30381Y34561D1*
X30413Y34681D1*
X30480Y34787D1*
X30574Y34868D1*
X30688Y34919D1*
X30811Y34934D1*
X30934Y34912D1*
X31045Y34855D1*
X31135Y34769D1*
X31195Y34660D1*
X31221Y34508D1*
X31218Y34394D1*
X31204Y34271D1*
X31150Y34158D1*
X31066Y34066D1*
X30959Y34003D1*
X30838Y33973D1*
X30714Y33981D1*
X30597Y34024D1*
X30498Y34099D1*
X30425Y34200D1*
X30385Y34318D1*
X30378Y34394D1*
X30382Y34512D1*
X29631Y36486D2*
X29557Y36487D1*
X29524Y36498D1*
X29522Y35102D1*
Y34380D1*
X29629Y34389D1*
X29845Y34392D1*
X29935Y34383D1*
X30051Y34340D1*
X30151Y34265D1*
X30225Y34165D1*
X30268Y34048D1*
X30277Y33961D1*
X30259Y33837D1*
X30207Y33724D1*
X30124Y33631D1*
X30019Y33565D1*
X29898Y33532D1*
X29845Y33529D1*
X29557Y33535D1*
X29524Y33545D1*
X29522Y31352D1*
Y29522D1*
X41352D1*
Y41352D1*
X29522D1*
Y37333D1*
X29629Y37342D1*
X29845Y37345D1*
X29935Y37336D1*
X30051Y37293D1*
X30151Y37218D1*
X30225Y37118D1*
X30268Y37001D1*
X30277Y36913D1*
X30259Y36790D1*
X30207Y36677D1*
X30124Y36584D1*
X30019Y36518D1*
X29898Y36485D1*
X29845Y36482D1*
X29629Y36485D1*
X38385Y37313D2*
X38348Y37193D1*
X38289Y37083D1*
X38210Y36987D1*
X38153Y36940D1*
X38217Y36880D1*
X38295Y36782D1*
X38352Y36671D1*
X38387Y36551D1*
X38397Y36437D1*
X38385Y36313D1*
X38348Y36193D1*
X38289Y36083D1*
X38210Y35987D1*
X38153Y35940D1*
X38217Y35880D1*
X38295Y35782D1*
X38352Y35671D1*
X38387Y35551D1*
X38397Y35437D1*
X38385Y35313D1*
X38348Y35193D1*
X38289Y35083D1*
X38210Y34987D1*
X38153Y34940D1*
X38217Y34880D1*
X38295Y34782D1*
X38352Y34671D1*
X38387Y34551D1*
X38397Y34437D1*
X38385Y34313D1*
X38348Y34193D1*
X38289Y34083D1*
X38210Y33987D1*
X38153Y33940D1*
X38217Y33880D1*
X38295Y33782D1*
X38352Y33671D1*
X38387Y33551D1*
X38397Y33437D1*
X38385Y33313D1*
X38348Y33193D1*
X38289Y33083D1*
X38210Y32987D1*
X38113Y32908D1*
X38003Y32850D1*
X37884Y32814D1*
X37759Y32802D1*
X37635Y32815D1*
X37516Y32852D1*
X37406Y32911D1*
X37310Y32991D1*
X37232Y33088D1*
X37174Y33198D1*
X37138Y33318D1*
X37127Y33442D1*
X37140Y33566D1*
X37162Y33637D1*
X36935Y33860D1*
X36868Y33969D1*
X36888Y33923D1*
X36852Y34062D1*
Y36800D1*
X36801Y36904D1*
X36784Y37028D1*
X36812Y37149D1*
X36879Y37253D1*
X36979Y37328D1*
X37098Y37363D1*
X37133Y37361D1*
X37127Y37442D1*
X37140Y37566D1*
X37178Y37685D1*
X37237Y37795D1*
X37318Y37890D1*
X37415Y37969D1*
X37525Y38026D1*
X37645Y38061D1*
X37770Y38072D1*
X37894Y38058D1*
X38013Y38020D1*
X38122Y37960D1*
X38217Y37880D1*
X38295Y37782D1*
X38352Y37671D1*
X38387Y37551D1*
X38397Y37437D1*
X38385Y37313D1*
X41293Y40312D2*
X41266Y40190D1*
X41222Y40074D1*
X41161Y39964D1*
X41086Y39865D1*
X40997Y39778D1*
X40896Y39704D1*
X40786Y39645D1*
X40668Y39603D1*
X40545Y39579D1*
X40421Y39572D1*
X40296Y39584D1*
X40175Y39613D1*
X40059Y39659D1*
X39951Y39722D1*
X39853Y39799D1*
X39767Y39890D1*
X39695Y39992D1*
X39639Y40103D1*
X39599Y40222D1*
X39577Y40345D1*
X39573Y40470D1*
X39586Y40594D1*
X39618Y40715D1*
X39666Y40830D1*
X39731Y40937D1*
X39810Y41033D1*
X39902Y41117D1*
X40006Y41187D1*
X40118Y41241D1*
X40238Y41279D1*
X40361Y41299D1*
X40486Y41301D1*
X40610Y41285D1*
X40730Y41251D1*
X40844Y41200D1*
X40950Y41134D1*
X41045Y41053D1*
X41127Y40959D1*
X41195Y40854D1*
X41247Y40740D1*
X41282Y40621D1*
X41302Y40437D1*
X41293Y40312D1*
X31293D2*
X31266Y40190D1*
X31222Y40074D1*
X31161Y39964D1*
X31086Y39865D1*
X30997Y39778D1*
X30896Y39704D1*
X30786Y39645D1*
X30668Y39603D1*
X30545Y39579D1*
X30421Y39572D1*
X30296Y39584D1*
X30175Y39613D1*
X30059Y39659D1*
X29951Y39722D1*
X29853Y39799D1*
X29767Y39890D1*
X29695Y39992D1*
X29639Y40103D1*
X29599Y40222D1*
X29577Y40345D1*
X29573Y40470D1*
X29586Y40594D1*
X29618Y40715D1*
X29666Y40830D1*
X29731Y40937D1*
X29810Y41033D1*
X29902Y41117D1*
X30006Y41187D1*
X30118Y41241D1*
X30238Y41279D1*
X30361Y41299D1*
X30486Y41301D1*
X30610Y41285D1*
X30730Y41251D1*
X30844Y41200D1*
X30950Y41134D1*
X31045Y41053D1*
X31127Y40959D1*
X31195Y40854D1*
X31247Y40740D1*
X31282Y40621D1*
X31302Y40437D1*
X31293Y40312D1*
Y30312D2*
X31266Y30190D1*
X31222Y30074D1*
X31161Y29964D1*
X31086Y29865D1*
X30997Y29778D1*
X30896Y29704D1*
X30786Y29645D1*
X30668Y29603D1*
X30545Y29579D1*
X30421Y29572D1*
X30296Y29584D1*
X30175Y29613D1*
X30059Y29659D1*
X29951Y29722D1*
X29853Y29799D1*
X29767Y29890D1*
X29695Y29992D1*
X29639Y30103D1*
X29599Y30222D1*
X29577Y30345D1*
X29573Y30470D1*
X29586Y30594D1*
X29618Y30715D1*
X29666Y30830D1*
X29731Y30937D1*
X29810Y31033D1*
X29902Y31117D1*
X30006Y31187D1*
X30118Y31241D1*
X30238Y31279D1*
X30361Y31299D1*
X30486Y31301D1*
X30610Y31285D1*
X30730Y31251D1*
X30844Y31200D1*
X30950Y31134D1*
X31045Y31053D1*
X31127Y30959D1*
X31195Y30854D1*
X31247Y30740D1*
X31282Y30621D1*
X31302Y30437D1*
X31293Y30312D1*
X41293D2*
X41266Y30190D1*
X41222Y30074D1*
X41161Y29964D1*
X41086Y29865D1*
X40997Y29778D1*
X40896Y29704D1*
X40786Y29645D1*
X40668Y29603D1*
X40545Y29579D1*
X40421Y29572D1*
X40296Y29584D1*
X40175Y29613D1*
X40059Y29659D1*
X39951Y29722D1*
X39853Y29799D1*
X39767Y29890D1*
X39695Y29992D1*
X39639Y30103D1*
X39599Y30222D1*
X39577Y30345D1*
X39573Y30470D1*
X39586Y30594D1*
X39618Y30715D1*
X39666Y30830D1*
X39731Y30937D1*
X39810Y31033D1*
X39902Y31117D1*
X40006Y31187D1*
X40118Y31241D1*
X40238Y31279D1*
X40361Y31299D1*
X40486Y31301D1*
X40610Y31285D1*
X40730Y31251D1*
X40844Y31200D1*
X40950Y31134D1*
X41045Y31053D1*
X41127Y30959D1*
X41195Y30854D1*
X41247Y30740D1*
X41282Y30621D1*
X41302Y30437D1*
X41293Y30312D1*
X35346Y34993D2*
X35422Y34789D1*
X35430Y34650D1*
X35390Y34490D1*
X35340Y34394D1*
X35248Y34329D1*
X35162Y34312D1*
X34322D1*
X34203Y34345D1*
X34112Y34442D1*
X34032Y34602D1*
X34009Y34721D1*
Y34678D1*
X34022Y34789D1*
X34142Y35110D1*
X34214Y35210D1*
X34331Y35259D1*
X34987Y35262D1*
X35082D1*
X35201Y35230D1*
X35288Y35138D1*
X35346Y34993D1*
X35477Y37094D2*
Y37805D1*
X35426Y37904D1*
X35409Y38028D1*
X35437Y38149D1*
X35504Y38253D1*
X35604Y38328D1*
X35723Y38363D1*
X35847Y38355D1*
X35961Y38304D1*
X36050Y38217D1*
X36103Y38105D1*
X36115Y38012D1*
X36093Y37890D1*
X36048Y37813D1*
X36050Y37092D1*
X36103Y36980D1*
X36115Y36887D1*
X36093Y36765D1*
X36030Y36657D1*
X35934Y36579D1*
X35816Y36538D1*
X35692Y36541D1*
X35576Y36587D1*
X35484Y36670D1*
X35426Y36779D1*
X35409Y36903D1*
X35437Y37024D1*
X35477Y37086D1*
D21*
X30800Y36421D3*
Y34453D3*
D22*
X29737Y36913D3*
Y33961D3*
D25*
X37762Y37437D3*
Y36437D3*
Y35437D3*
Y34437D3*
Y33437D3*
G36*
X35202Y34707D2*
X35082Y35027D1*
X34362D1*
X34242Y34707D1*
X34322Y34547D1*
X35162D1*
D1*
X35202Y34707D1*
G37*
X48864Y38389D2*
D13*
X48112D1*
X47364D1*
X43862Y34887D1*
X44862Y33187D2*
Y33887D1*
X43862Y34887D1*
X47612Y32012D2*
Y32387D1*
X45612D1*
X44837Y33162D1*
X44862Y33187D1*
X48237Y32762D2*
X47952D1*
X47612Y32422D1*
Y32387D1*
X51612Y31012D2*
X48612D1*
X47612Y32012D1*
X44612Y36637D2*
Y35691D1*
X43862Y34887D1*
X49737Y37012D2*
D14*
Y34062D1*
X50362Y33437D1*
X48362Y36887D2*
Y38012D1*
D29*
X48864Y38389D3*
X43862Y34887D3*
X44862Y33187D3*
X47612Y32012D3*
X44862Y33187D3*
X48112Y38389D3*
X48237Y32762D3*
X51612Y31012D3*
X47612Y32012D3*
X44612Y36637D3*
X49737Y37012D3*
X48362Y36887D3*
Y38012D3*
X42147Y41103D2*
D15*
X42462D1*
X43614D2*
X52462D1*
X53614D2*
X53927D1*
X42147Y40855D2*
X42255D1*
X43821D2*
X52255D1*
X53821D2*
X53925D1*
X43911Y40606D2*
X52165D1*
X43922Y40357D2*
X52150D1*
X43864Y40109D2*
X52212D1*
X42147Y39860D2*
X42368D1*
X43707D2*
X52368D1*
X53707D2*
X53927D1*
X42147Y39611D2*
X42755D1*
X43321D2*
X52755D1*
X53321D2*
X53927D1*
X42147Y39363D2*
X53927D1*
X42147Y39114D2*
X53927D1*
X42147Y38865D2*
X53927D1*
X42147Y38617D2*
X53927D1*
X42147Y38368D2*
X53927D1*
X42147Y38119D2*
X48001D1*
X48723D2*
X53927D1*
X42147Y37871D2*
X48013D1*
X48711D2*
X49872D1*
X50852D2*
X53927D1*
X42147Y37622D2*
X48052D1*
X48672D2*
X49728D1*
X50993D2*
X53927D1*
X42147Y37373D2*
X48052D1*
X48672D2*
X49704D1*
X51020D2*
X53927D1*
X42848Y37124D2*
X48052D1*
X48672D2*
X49376D1*
X50938D2*
X53927D1*
X42899Y36876D2*
X43228D1*
X43571D2*
X47986D1*
X48739D2*
X49388D1*
X50844D2*
X53927D1*
X42793Y36627D2*
X42978D1*
X43821D2*
X48099D1*
X48625D2*
X49427D1*
X50993D2*
X53927D1*
X42147Y36378D2*
X42954D1*
X43848D2*
X49427D1*
X51020D2*
X53927D1*
X42147Y36130D2*
X43025D1*
X43778D2*
X49427D1*
X50942D2*
X53927D1*
X42147Y35881D2*
X49427D1*
X50840D2*
X53927D1*
X42147Y35632D2*
X49427D1*
X50993D2*
X53927D1*
X42147Y35384D2*
X49427D1*
X51020D2*
X53927D1*
X42147Y35135D2*
X46728D1*
X47914D2*
X49427D1*
X50946D2*
X53927D1*
X42147Y34886D2*
X43181D1*
X43618D2*
X46634D1*
X48012D2*
X49427D1*
X50836D2*
X53927D1*
X42147Y34638D2*
X42974D1*
X43828D2*
X46591D1*
X48051D2*
X49427D1*
X50989D2*
X53927D1*
X42524Y34389D2*
X42954D1*
X43848D2*
X46724D1*
X47961D2*
X49427D1*
X51020D2*
X53927D1*
X42864Y34140D2*
X43036D1*
X43762D2*
X49427D1*
X50950D2*
X53927D1*
X42895Y33892D2*
X49486D1*
X50828D2*
X53927D1*
X42762Y33643D2*
X49728D1*
X50989D2*
X53927D1*
X42147Y33394D2*
X49704D1*
X51020D2*
X53927D1*
X42147Y33145D2*
X49775D1*
X50950D2*
X53927D1*
X42147Y32897D2*
X50005D1*
X50719D2*
X53927D1*
X42147Y32648D2*
X53927D1*
X42147Y32399D2*
X53927D1*
X42147Y32151D2*
X53927D1*
X42147Y31902D2*
X53927D1*
X42147Y31653D2*
X53927D1*
X42147Y31405D2*
X53927D1*
X42147Y31156D2*
X42532D1*
X43543D2*
X52532D1*
X53543D2*
X53927D1*
X42147Y30907D2*
X42286D1*
X43789D2*
X52286D1*
X53789D2*
X53925D1*
X43899Y30659D2*
X52177D1*
X43926Y30410D2*
X52146D1*
X43883Y30161D2*
X52193D1*
X42147Y29913D2*
X42325D1*
X43750D2*
X52325D1*
X53750D2*
X53927D1*
X42147Y29664D2*
X42626D1*
X43450D2*
X52626D1*
X53450D2*
X53927D1*
X42982Y36479D2*
X42981Y36529D1*
X43013Y36650D1*
X43080Y36755D1*
X43174Y36837D1*
X43288Y36887D1*
X43411Y36902D1*
X43534Y36880D1*
X43645Y36824D1*
X43735Y36737D1*
X43795Y36629D1*
X43821Y36476D1*
X43818Y36362D1*
X43804Y36239D1*
X43750Y36127D1*
X43666Y36035D1*
X43559Y35971D1*
X43438Y35942D1*
X43314Y35949D1*
X43197Y35992D1*
X43098Y36068D1*
X43025Y36169D1*
X42985Y36287D1*
X42978Y36362D1*
X42982Y36480D1*
Y34510D2*
X42981Y34561D1*
X43013Y34681D1*
X43080Y34787D1*
X43174Y34868D1*
X43288Y34919D1*
X43411Y34934D1*
X43534Y34912D1*
X43645Y34855D1*
X43735Y34769D1*
X43795Y34660D1*
X43821Y34508D1*
X43818Y34394D1*
X43804Y34271D1*
X43750Y34158D1*
X43666Y34066D1*
X43559Y34003D1*
X43438Y33973D1*
X43314Y33981D1*
X43197Y34024D1*
X43098Y34099D1*
X43025Y34200D1*
X42985Y34318D1*
X42978Y34394D1*
X42982Y34512D1*
X42231Y36486D2*
X42157Y36487D1*
X42124Y36498D1*
X42122Y35102D1*
Y34380D1*
X42229Y34389D1*
X42445Y34392D1*
X42535Y34383D1*
X42651Y34340D1*
X42751Y34265D1*
X42825Y34165D1*
X42868Y34048D1*
X42877Y33961D1*
X42859Y33837D1*
X42807Y33724D1*
X42724Y33631D1*
X42619Y33565D1*
X42498Y33532D1*
X42445Y33529D1*
X42157Y33535D1*
X42124Y33545D1*
X42122Y31352D1*
Y29522D1*
X53952D1*
Y41352D1*
X42122D1*
Y37333D1*
X42229Y37342D1*
X42445Y37345D1*
X42535Y37336D1*
X42651Y37293D1*
X42751Y37218D1*
X42825Y37118D1*
X42868Y37001D1*
X42877Y36913D1*
X42859Y36790D1*
X42807Y36677D1*
X42724Y36584D1*
X42619Y36518D1*
X42498Y36485D1*
X42445Y36482D1*
X42229Y36485D1*
X50985Y37313D2*
X50948Y37193D1*
X50889Y37083D1*
X50810Y36987D1*
X50753Y36940D1*
X50817Y36880D1*
X50895Y36782D1*
X50952Y36671D1*
X50987Y36551D1*
X50997Y36437D1*
X50985Y36313D1*
X50948Y36193D1*
X50889Y36083D1*
X50810Y35987D1*
X50753Y35940D1*
X50817Y35880D1*
X50895Y35782D1*
X50952Y35671D1*
X50987Y35551D1*
X50997Y35437D1*
X50985Y35313D1*
X50948Y35193D1*
X50889Y35083D1*
X50810Y34987D1*
X50753Y34940D1*
X50817Y34880D1*
X50895Y34782D1*
X50952Y34671D1*
X50987Y34551D1*
X50997Y34437D1*
X50985Y34313D1*
X50948Y34193D1*
X50889Y34083D1*
X50810Y33987D1*
X50753Y33940D1*
X50817Y33880D1*
X50895Y33782D1*
X50952Y33671D1*
X50987Y33551D1*
X50997Y33437D1*
X50985Y33313D1*
X50948Y33193D1*
X50889Y33083D1*
X50810Y32987D1*
X50713Y32908D1*
X50603Y32850D1*
X50484Y32814D1*
X50359Y32802D1*
X50235Y32815D1*
X50116Y32852D1*
X50006Y32911D1*
X49910Y32991D1*
X49832Y33088D1*
X49774Y33198D1*
X49738Y33318D1*
X49727Y33442D1*
X49740Y33566D1*
X49762Y33637D1*
X49535Y33860D1*
X49468Y33969D1*
X49488Y33923D1*
X49452Y34062D1*
Y36800D1*
X49401Y36904D1*
X49384Y37028D1*
X49412Y37149D1*
X49479Y37253D1*
X49579Y37328D1*
X49698Y37363D1*
X49733Y37361D1*
X49727Y37442D1*
X49740Y37566D1*
X49778Y37685D1*
X49837Y37795D1*
X49918Y37890D1*
X50015Y37969D1*
X50125Y38026D1*
X50245Y38061D1*
X50370Y38072D1*
X50494Y38058D1*
X50613Y38020D1*
X50722Y37960D1*
X50817Y37880D1*
X50895Y37782D1*
X50952Y37671D1*
X50987Y37551D1*
X50997Y37437D1*
X50985Y37313D1*
X53893Y40312D2*
X53866Y40190D1*
X53822Y40074D1*
X53761Y39964D1*
X53686Y39865D1*
X53597Y39778D1*
X53496Y39704D1*
X53386Y39645D1*
X53268Y39603D1*
X53145Y39579D1*
X53021Y39572D1*
X52896Y39584D1*
X52775Y39613D1*
X52659Y39659D1*
X52551Y39722D1*
X52453Y39799D1*
X52367Y39890D1*
X52295Y39992D1*
X52239Y40103D1*
X52199Y40222D1*
X52177Y40345D1*
X52173Y40470D1*
X52186Y40594D1*
X52218Y40715D1*
X52266Y40830D1*
X52331Y40937D1*
X52410Y41033D1*
X52502Y41117D1*
X52606Y41187D1*
X52718Y41241D1*
X52838Y41279D1*
X52961Y41299D1*
X53086Y41301D1*
X53210Y41285D1*
X53330Y41251D1*
X53444Y41200D1*
X53550Y41134D1*
X53645Y41053D1*
X53727Y40959D1*
X53795Y40854D1*
X53847Y40740D1*
X53882Y40621D1*
X53902Y40437D1*
X53893Y40312D1*
X43893D2*
X43866Y40190D1*
X43822Y40074D1*
X43761Y39964D1*
X43686Y39865D1*
X43597Y39778D1*
X43496Y39704D1*
X43386Y39645D1*
X43268Y39603D1*
X43145Y39579D1*
X43021Y39572D1*
X42896Y39584D1*
X42775Y39613D1*
X42659Y39659D1*
X42551Y39722D1*
X42453Y39799D1*
X42367Y39890D1*
X42295Y39992D1*
X42239Y40103D1*
X42199Y40222D1*
X42177Y40345D1*
X42173Y40470D1*
X42186Y40594D1*
X42218Y40715D1*
X42266Y40830D1*
X42331Y40937D1*
X42410Y41033D1*
X42502Y41117D1*
X42606Y41187D1*
X42718Y41241D1*
X42838Y41279D1*
X42961Y41299D1*
X43086Y41301D1*
X43210Y41285D1*
X43330Y41251D1*
X43444Y41200D1*
X43550Y41134D1*
X43645Y41053D1*
X43727Y40959D1*
X43795Y40854D1*
X43847Y40740D1*
X43882Y40621D1*
X43902Y40437D1*
X43893Y40312D1*
Y30312D2*
X43866Y30190D1*
X43822Y30074D1*
X43761Y29964D1*
X43686Y29865D1*
X43597Y29778D1*
X43496Y29704D1*
X43386Y29645D1*
X43268Y29603D1*
X43145Y29579D1*
X43021Y29572D1*
X42896Y29584D1*
X42775Y29613D1*
X42659Y29659D1*
X42551Y29722D1*
X42453Y29799D1*
X42367Y29890D1*
X42295Y29992D1*
X42239Y30103D1*
X42199Y30222D1*
X42177Y30345D1*
X42173Y30470D1*
X42186Y30594D1*
X42218Y30715D1*
X42266Y30830D1*
X42331Y30937D1*
X42410Y31033D1*
X42502Y31117D1*
X42606Y31187D1*
X42718Y31241D1*
X42838Y31279D1*
X42961Y31299D1*
X43086Y31301D1*
X43210Y31285D1*
X43330Y31251D1*
X43444Y31200D1*
X43550Y31134D1*
X43645Y31053D1*
X43727Y30959D1*
X43795Y30854D1*
X43847Y30740D1*
X43882Y30621D1*
X43902Y30437D1*
X43893Y30312D1*
X53893D2*
X53866Y30190D1*
X53822Y30074D1*
X53761Y29964D1*
X53686Y29865D1*
X53597Y29778D1*
X53496Y29704D1*
X53386Y29645D1*
X53268Y29603D1*
X53145Y29579D1*
X53021Y29572D1*
X52896Y29584D1*
X52775Y29613D1*
X52659Y29659D1*
X52551Y29722D1*
X52453Y29799D1*
X52367Y29890D1*
X52295Y29992D1*
X52239Y30103D1*
X52199Y30222D1*
X52177Y30345D1*
X52173Y30470D1*
X52186Y30594D1*
X52218Y30715D1*
X52266Y30830D1*
X52331Y30937D1*
X52410Y31033D1*
X52502Y31117D1*
X52606Y31187D1*
X52718Y31241D1*
X52838Y31279D1*
X52961Y31299D1*
X53086Y31301D1*
X53210Y31285D1*
X53330Y31251D1*
X53444Y31200D1*
X53550Y31134D1*
X53645Y31053D1*
X53727Y30959D1*
X53795Y30854D1*
X53847Y30740D1*
X53882Y30621D1*
X53902Y30437D1*
X53893Y30312D1*
X47946Y34993D2*
X48022Y34789D1*
X48030Y34650D1*
X47990Y34490D1*
X47940Y34394D1*
X47848Y34329D1*
X47762Y34312D1*
X46922D1*
X46803Y34345D1*
X46712Y34442D1*
X46632Y34602D1*
X46609Y34721D1*
Y34678D1*
X46622Y34789D1*
X46742Y35110D1*
X46814Y35210D1*
X46931Y35259D1*
X47587Y35262D1*
X47682D1*
X47801Y35230D1*
X47888Y35138D1*
X47946Y34993D1*
X48077Y37094D2*
Y37805D1*
X48026Y37904D1*
X48009Y38028D1*
X48037Y38149D1*
X48104Y38253D1*
X48204Y38328D1*
X48323Y38363D1*
X48447Y38355D1*
X48561Y38304D1*
X48650Y38217D1*
X48703Y38105D1*
X48715Y38012D1*
X48693Y37890D1*
X48648Y37813D1*
X48650Y37092D1*
X48703Y36980D1*
X48715Y36887D1*
X48693Y36765D1*
X48630Y36657D1*
X48534Y36579D1*
X48416Y36538D1*
X48292Y36541D1*
X48176Y36587D1*
X48084Y36670D1*
X48026Y36779D1*
X48009Y36903D1*
X48037Y37024D1*
X48077Y37086D1*
D21*
X43400Y36421D3*
Y34453D3*
D22*
X42337Y36913D3*
Y33961D3*
D25*
X50362Y37437D3*
Y36437D3*
Y35437D3*
Y34437D3*
Y33437D3*
G36*
X47802Y34707D2*
X47682Y35027D1*
X46962D1*
X46842Y34707D1*
X46922Y34547D1*
X47762D1*
D1*
X47802Y34707D1*
G37*
X11064Y50989D2*
D13*
X10312D1*
X9564D1*
X6062Y47487D1*
X7062Y45787D2*
Y46487D1*
X6062Y47487D1*
X9812Y44612D2*
Y44987D1*
X7812D1*
X7037Y45762D1*
X7062Y45787D1*
X10437Y45362D2*
X10152D1*
X9812Y45022D1*
Y44987D1*
X13812Y43612D2*
X10812D1*
X9812Y44612D1*
X6812Y49237D2*
Y48291D1*
X6062Y47487D1*
X11937Y49612D2*
D14*
Y46662D1*
X12562Y46037D1*
X10562Y49487D2*
Y50612D1*
D29*
X11064Y50989D3*
X6062Y47487D3*
X7062Y45787D3*
X9812Y44612D3*
X7062Y45787D3*
X10312Y50989D3*
X10437Y45362D3*
X13812Y43612D3*
X9812Y44612D3*
X6812Y49237D3*
X11937Y49612D3*
X10562Y49487D3*
Y50612D3*
X4347Y53703D2*
D15*
X4662D1*
X5814D2*
X14662D1*
X15814D2*
X16127D1*
X4347Y53455D2*
X4455D1*
X6021D2*
X14455D1*
X16021D2*
X16125D1*
X6111Y53206D2*
X14365D1*
X6122Y52957D2*
X14350D1*
X6064Y52709D2*
X14412D1*
X4347Y52460D2*
X4568D1*
X5907D2*
X14568D1*
X15907D2*
X16127D1*
X4347Y52211D2*
X4955D1*
X5521D2*
X14955D1*
X15521D2*
X16127D1*
X4347Y51963D2*
X16127D1*
X4347Y51714D2*
X16127D1*
X4347Y51465D2*
X16127D1*
X4347Y51217D2*
X16127D1*
X4347Y50968D2*
X16127D1*
X4347Y50719D2*
X10201D1*
X10923D2*
X16127D1*
X4347Y50471D2*
X10213D1*
X10911D2*
X12072D1*
X13052D2*
X16127D1*
X4347Y50222D2*
X10252D1*
X10872D2*
X11928D1*
X13193D2*
X16127D1*
X4347Y49973D2*
X10252D1*
X10872D2*
X11904D1*
X13220D2*
X16127D1*
X5048Y49724D2*
X10252D1*
X10872D2*
X11576D1*
X13138D2*
X16127D1*
X5099Y49476D2*
X5428D1*
X5771D2*
X10186D1*
X10939D2*
X11588D1*
X13044D2*
X16127D1*
X4993Y49227D2*
X5178D1*
X6021D2*
X10299D1*
X10825D2*
X11627D1*
X13193D2*
X16127D1*
X4347Y48978D2*
X5154D1*
X6048D2*
X11627D1*
X13220D2*
X16127D1*
X4347Y48730D2*
X5225D1*
X5978D2*
X11627D1*
X13142D2*
X16127D1*
X4347Y48481D2*
X11627D1*
X13040D2*
X16127D1*
X4347Y48232D2*
X11627D1*
X13193D2*
X16127D1*
X4347Y47984D2*
X11627D1*
X13220D2*
X16127D1*
X4347Y47735D2*
X8928D1*
X10114D2*
X11627D1*
X13146D2*
X16127D1*
X4347Y47486D2*
X5381D1*
X5818D2*
X8834D1*
X10212D2*
X11627D1*
X13036D2*
X16127D1*
X4347Y47238D2*
X5174D1*
X6028D2*
X8791D1*
X10251D2*
X11627D1*
X13189D2*
X16127D1*
X4724Y46989D2*
X5154D1*
X6048D2*
X8924D1*
X10161D2*
X11627D1*
X13220D2*
X16127D1*
X5064Y46740D2*
X5236D1*
X5962D2*
X11627D1*
X13150D2*
X16127D1*
X5095Y46492D2*
X11686D1*
X13028D2*
X16127D1*
X4962Y46243D2*
X11928D1*
X13189D2*
X16127D1*
X4347Y45994D2*
X11904D1*
X13220D2*
X16127D1*
X4347Y45745D2*
X11975D1*
X13150D2*
X16127D1*
X4347Y45497D2*
X12205D1*
X12919D2*
X16127D1*
X4347Y45248D2*
X16127D1*
X4347Y44999D2*
X16127D1*
X4347Y44751D2*
X16127D1*
X4347Y44502D2*
X16127D1*
X4347Y44253D2*
X16127D1*
X4347Y44005D2*
X16127D1*
X4347Y43756D2*
X4732D1*
X5743D2*
X14732D1*
X15743D2*
X16127D1*
X4347Y43507D2*
X4486D1*
X5989D2*
X14486D1*
X15989D2*
X16125D1*
X6099Y43259D2*
X14377D1*
X6126Y43010D2*
X14346D1*
X6083Y42761D2*
X14393D1*
X4347Y42513D2*
X4525D1*
X5950D2*
X14525D1*
X15950D2*
X16127D1*
X4347Y42264D2*
X4826D1*
X5650D2*
X14826D1*
X15650D2*
X16127D1*
X5182Y49079D2*
X5181Y49129D1*
X5213Y49250D1*
X5280Y49355D1*
X5374Y49437D1*
X5488Y49487D1*
X5611Y49502D1*
X5734Y49480D1*
X5845Y49424D1*
X5935Y49337D1*
X5995Y49229D1*
X6021Y49076D1*
X6018Y48962D1*
X6004Y48839D1*
X5950Y48727D1*
X5866Y48635D1*
X5759Y48571D1*
X5638Y48542D1*
X5514Y48549D1*
X5397Y48592D1*
X5298Y48668D1*
X5225Y48769D1*
X5185Y48887D1*
X5178Y48962D1*
X5182Y49080D1*
Y47110D2*
X5181Y47161D1*
X5213Y47281D1*
X5280Y47387D1*
X5374Y47468D1*
X5488Y47519D1*
X5611Y47534D1*
X5734Y47512D1*
X5845Y47455D1*
X5935Y47369D1*
X5995Y47260D1*
X6021Y47108D1*
X6018Y46994D1*
X6004Y46871D1*
X5950Y46758D1*
X5866Y46666D1*
X5759Y46603D1*
X5638Y46573D1*
X5514Y46581D1*
X5397Y46624D1*
X5298Y46699D1*
X5225Y46800D1*
X5185Y46918D1*
X5178Y46994D1*
X5182Y47112D1*
X4431Y49086D2*
X4357Y49087D1*
X4324Y49098D1*
X4322Y47702D1*
Y46980D1*
X4429Y46989D1*
X4645Y46992D1*
X4735Y46983D1*
X4851Y46940D1*
X4951Y46865D1*
X5025Y46765D1*
X5068Y46648D1*
X5077Y46561D1*
X5059Y46437D1*
X5007Y46324D1*
X4924Y46231D1*
X4819Y46165D1*
X4698Y46132D1*
X4645Y46129D1*
X4357Y46135D1*
X4324Y46145D1*
X4322Y43952D1*
Y42122D1*
X16152D1*
Y53952D1*
X4322D1*
Y49933D1*
X4429Y49942D1*
X4645Y49945D1*
X4735Y49936D1*
X4851Y49893D1*
X4951Y49818D1*
X5025Y49718D1*
X5068Y49601D1*
X5077Y49513D1*
X5059Y49390D1*
X5007Y49277D1*
X4924Y49184D1*
X4819Y49118D1*
X4698Y49085D1*
X4645Y49082D1*
X4429Y49085D1*
X13185Y49913D2*
X13148Y49793D1*
X13089Y49683D1*
X13010Y49587D1*
X12953Y49540D1*
X13017Y49480D1*
X13095Y49382D1*
X13152Y49271D1*
X13187Y49151D1*
X13197Y49037D1*
X13185Y48913D1*
X13148Y48793D1*
X13089Y48683D1*
X13010Y48587D1*
X12953Y48540D1*
X13017Y48480D1*
X13095Y48382D1*
X13152Y48271D1*
X13187Y48151D1*
X13197Y48037D1*
X13185Y47913D1*
X13148Y47793D1*
X13089Y47683D1*
X13010Y47587D1*
X12953Y47540D1*
X13017Y47480D1*
X13095Y47382D1*
X13152Y47271D1*
X13187Y47151D1*
X13197Y47037D1*
X13185Y46913D1*
X13148Y46793D1*
X13089Y46683D1*
X13010Y46587D1*
X12953Y46540D1*
X13017Y46480D1*
X13095Y46382D1*
X13152Y46271D1*
X13187Y46151D1*
X13197Y46037D1*
X13185Y45913D1*
X13148Y45793D1*
X13089Y45683D1*
X13010Y45587D1*
X12913Y45508D1*
X12803Y45450D1*
X12684Y45414D1*
X12559Y45402D1*
X12435Y45415D1*
X12316Y45452D1*
X12206Y45511D1*
X12110Y45591D1*
X12032Y45688D1*
X11974Y45798D1*
X11938Y45918D1*
X11927Y46042D1*
X11940Y46166D1*
X11962Y46237D1*
X11735Y46460D1*
X11668Y46569D1*
X11688Y46523D1*
X11652Y46662D1*
Y49400D1*
X11601Y49504D1*
X11584Y49628D1*
X11612Y49749D1*
X11679Y49853D1*
X11779Y49928D1*
X11898Y49963D1*
X11933Y49961D1*
X11927Y50042D1*
X11940Y50166D1*
X11978Y50285D1*
X12037Y50395D1*
X12118Y50490D1*
X12215Y50569D1*
X12325Y50626D1*
X12445Y50661D1*
X12570Y50672D1*
X12694Y50658D1*
X12813Y50620D1*
X12922Y50560D1*
X13017Y50480D1*
X13095Y50382D1*
X13152Y50271D1*
X13187Y50151D1*
X13197Y50037D1*
X13185Y49913D1*
X16093Y52912D2*
X16066Y52790D1*
X16022Y52674D1*
X15961Y52564D1*
X15886Y52465D1*
X15797Y52378D1*
X15696Y52304D1*
X15586Y52245D1*
X15468Y52203D1*
X15345Y52179D1*
X15221Y52172D1*
X15096Y52184D1*
X14975Y52213D1*
X14859Y52259D1*
X14751Y52322D1*
X14653Y52399D1*
X14567Y52490D1*
X14495Y52592D1*
X14439Y52703D1*
X14399Y52822D1*
X14377Y52945D1*
X14373Y53070D1*
X14386Y53194D1*
X14418Y53315D1*
X14466Y53430D1*
X14531Y53537D1*
X14610Y53633D1*
X14702Y53717D1*
X14806Y53787D1*
X14918Y53841D1*
X15038Y53879D1*
X15161Y53899D1*
X15286Y53901D1*
X15410Y53885D1*
X15530Y53851D1*
X15644Y53800D1*
X15750Y53734D1*
X15845Y53653D1*
X15927Y53559D1*
X15995Y53454D1*
X16047Y53340D1*
X16082Y53221D1*
X16102Y53037D1*
X16093Y52912D1*
X6093D2*
X6066Y52790D1*
X6022Y52674D1*
X5961Y52564D1*
X5886Y52465D1*
X5797Y52378D1*
X5696Y52304D1*
X5586Y52245D1*
X5468Y52203D1*
X5345Y52179D1*
X5221Y52172D1*
X5096Y52184D1*
X4975Y52213D1*
X4859Y52259D1*
X4751Y52322D1*
X4653Y52399D1*
X4567Y52490D1*
X4495Y52592D1*
X4439Y52703D1*
X4399Y52822D1*
X4377Y52945D1*
X4373Y53070D1*
X4386Y53194D1*
X4418Y53315D1*
X4466Y53430D1*
X4531Y53537D1*
X4610Y53633D1*
X4702Y53717D1*
X4806Y53787D1*
X4918Y53841D1*
X5038Y53879D1*
X5161Y53899D1*
X5286Y53901D1*
X5410Y53885D1*
X5530Y53851D1*
X5644Y53800D1*
X5750Y53734D1*
X5845Y53653D1*
X5927Y53559D1*
X5995Y53454D1*
X6047Y53340D1*
X6082Y53221D1*
X6102Y53037D1*
X6093Y52912D1*
Y42912D2*
X6066Y42790D1*
X6022Y42674D1*
X5961Y42564D1*
X5886Y42465D1*
X5797Y42378D1*
X5696Y42304D1*
X5586Y42245D1*
X5468Y42203D1*
X5345Y42179D1*
X5221Y42172D1*
X5096Y42184D1*
X4975Y42213D1*
X4859Y42259D1*
X4751Y42322D1*
X4653Y42399D1*
X4567Y42490D1*
X4495Y42592D1*
X4439Y42703D1*
X4399Y42822D1*
X4377Y42945D1*
X4373Y43070D1*
X4386Y43194D1*
X4418Y43315D1*
X4466Y43430D1*
X4531Y43537D1*
X4610Y43633D1*
X4702Y43717D1*
X4806Y43787D1*
X4918Y43841D1*
X5038Y43879D1*
X5161Y43899D1*
X5286Y43901D1*
X5410Y43885D1*
X5530Y43851D1*
X5644Y43800D1*
X5750Y43734D1*
X5845Y43653D1*
X5927Y43559D1*
X5995Y43454D1*
X6047Y43340D1*
X6082Y43221D1*
X6102Y43037D1*
X6093Y42912D1*
X16093D2*
X16066Y42790D1*
X16022Y42674D1*
X15961Y42564D1*
X15886Y42465D1*
X15797Y42378D1*
X15696Y42304D1*
X15586Y42245D1*
X15468Y42203D1*
X15345Y42179D1*
X15221Y42172D1*
X15096Y42184D1*
X14975Y42213D1*
X14859Y42259D1*
X14751Y42322D1*
X14653Y42399D1*
X14567Y42490D1*
X14495Y42592D1*
X14439Y42703D1*
X14399Y42822D1*
X14377Y42945D1*
X14373Y43070D1*
X14386Y43194D1*
X14418Y43315D1*
X14466Y43430D1*
X14531Y43537D1*
X14610Y43633D1*
X14702Y43717D1*
X14806Y43787D1*
X14918Y43841D1*
X15038Y43879D1*
X15161Y43899D1*
X15286Y43901D1*
X15410Y43885D1*
X15530Y43851D1*
X15644Y43800D1*
X15750Y43734D1*
X15845Y43653D1*
X15927Y43559D1*
X15995Y43454D1*
X16047Y43340D1*
X16082Y43221D1*
X16102Y43037D1*
X16093Y42912D1*
X10146Y47593D2*
X10222Y47389D1*
X10230Y47250D1*
X10190Y47090D1*
X10140Y46994D1*
X10048Y46929D1*
X9962Y46912D1*
X9122D1*
X9003Y46945D1*
X8912Y47042D1*
X8832Y47202D1*
X8809Y47321D1*
Y47278D1*
X8822Y47389D1*
X8942Y47710D1*
X9014Y47810D1*
X9131Y47859D1*
X9787Y47862D1*
X9882D1*
X10001Y47830D1*
X10088Y47738D1*
X10146Y47593D1*
X10277Y49694D2*
Y50405D1*
X10226Y50504D1*
X10209Y50628D1*
X10237Y50749D1*
X10304Y50853D1*
X10404Y50928D1*
X10523Y50963D1*
X10647Y50955D1*
X10761Y50904D1*
X10850Y50817D1*
X10903Y50705D1*
X10915Y50612D1*
X10893Y50490D1*
X10848Y50413D1*
X10850Y49692D1*
X10903Y49580D1*
X10915Y49487D1*
X10893Y49365D1*
X10830Y49257D1*
X10734Y49179D1*
X10616Y49138D1*
X10492Y49141D1*
X10376Y49187D1*
X10284Y49270D1*
X10226Y49379D1*
X10209Y49503D1*
X10237Y49624D1*
X10277Y49686D1*
D21*
X5600Y49021D3*
Y47053D3*
D22*
X4537Y49513D3*
Y46561D3*
D25*
X12562Y50037D3*
Y49037D3*
Y48037D3*
Y47037D3*
Y46037D3*
G36*
X10002Y47307D2*
X9882Y47627D1*
X9162D1*
X9042Y47307D1*
X9122Y47147D1*
X9962D1*
D1*
X10002Y47307D1*
G37*
X23664Y50989D2*
D13*
X22912D1*
X22164D1*
X18662Y47487D1*
X19662Y45787D2*
Y46487D1*
X18662Y47487D1*
X22412Y44612D2*
Y44987D1*
X20412D1*
X19637Y45762D1*
X19662Y45787D1*
X23037Y45362D2*
X22752D1*
X22412Y45022D1*
Y44987D1*
X26412Y43612D2*
X23412D1*
X22412Y44612D1*
X19412Y49237D2*
Y48291D1*
X18662Y47487D1*
X24537Y49612D2*
D14*
Y46662D1*
X25162Y46037D1*
X23162Y49487D2*
Y50612D1*
D29*
X23664Y50989D3*
X18662Y47487D3*
X19662Y45787D3*
X22412Y44612D3*
X19662Y45787D3*
X22912Y50989D3*
X23037Y45362D3*
X26412Y43612D3*
X22412Y44612D3*
X19412Y49237D3*
X24537Y49612D3*
X23162Y49487D3*
Y50612D3*
X16947Y53703D2*
D15*
X17262D1*
X18414D2*
X27262D1*
X28414D2*
X28727D1*
X16947Y53455D2*
X17055D1*
X18621D2*
X27055D1*
X28621D2*
X28725D1*
X18711Y53206D2*
X26965D1*
X18722Y52957D2*
X26950D1*
X18664Y52709D2*
X27012D1*
X16947Y52460D2*
X17168D1*
X18507D2*
X27168D1*
X28507D2*
X28727D1*
X16947Y52211D2*
X17555D1*
X18121D2*
X27555D1*
X28121D2*
X28727D1*
X16947Y51963D2*
X28727D1*
X16947Y51714D2*
X28727D1*
X16947Y51465D2*
X28727D1*
X16947Y51217D2*
X28727D1*
X16947Y50968D2*
X28727D1*
X16947Y50719D2*
X22801D1*
X23523D2*
X28727D1*
X16947Y50471D2*
X22813D1*
X23511D2*
X24672D1*
X25652D2*
X28727D1*
X16947Y50222D2*
X22852D1*
X23472D2*
X24528D1*
X25793D2*
X28727D1*
X16947Y49973D2*
X22852D1*
X23472D2*
X24504D1*
X25820D2*
X28727D1*
X17648Y49724D2*
X22852D1*
X23472D2*
X24176D1*
X25738D2*
X28727D1*
X17699Y49476D2*
X18028D1*
X18371D2*
X22786D1*
X23539D2*
X24188D1*
X25644D2*
X28727D1*
X17593Y49227D2*
X17778D1*
X18621D2*
X22899D1*
X23425D2*
X24227D1*
X25793D2*
X28727D1*
X16947Y48978D2*
X17754D1*
X18648D2*
X24227D1*
X25820D2*
X28727D1*
X16947Y48730D2*
X17825D1*
X18578D2*
X24227D1*
X25742D2*
X28727D1*
X16947Y48481D2*
X24227D1*
X25640D2*
X28727D1*
X16947Y48232D2*
X24227D1*
X25793D2*
X28727D1*
X16947Y47984D2*
X24227D1*
X25820D2*
X28727D1*
X16947Y47735D2*
X21528D1*
X22714D2*
X24227D1*
X25746D2*
X28727D1*
X16947Y47486D2*
X17981D1*
X18418D2*
X21434D1*
X22812D2*
X24227D1*
X25636D2*
X28727D1*
X16947Y47238D2*
X17774D1*
X18628D2*
X21391D1*
X22851D2*
X24227D1*
X25789D2*
X28727D1*
X17324Y46989D2*
X17754D1*
X18648D2*
X21524D1*
X22761D2*
X24227D1*
X25820D2*
X28727D1*
X17664Y46740D2*
X17836D1*
X18562D2*
X24227D1*
X25750D2*
X28727D1*
X17695Y46492D2*
X24286D1*
X25628D2*
X28727D1*
X17562Y46243D2*
X24528D1*
X25789D2*
X28727D1*
X16947Y45994D2*
X24504D1*
X25820D2*
X28727D1*
X16947Y45745D2*
X24575D1*
X25750D2*
X28727D1*
X16947Y45497D2*
X24805D1*
X25519D2*
X28727D1*
X16947Y45248D2*
X28727D1*
X16947Y44999D2*
X28727D1*
X16947Y44751D2*
X28727D1*
X16947Y44502D2*
X28727D1*
X16947Y44253D2*
X28727D1*
X16947Y44005D2*
X28727D1*
X16947Y43756D2*
X17332D1*
X18343D2*
X27332D1*
X28343D2*
X28727D1*
X16947Y43507D2*
X17086D1*
X18589D2*
X27086D1*
X28589D2*
X28725D1*
X18699Y43259D2*
X26977D1*
X18726Y43010D2*
X26946D1*
X18683Y42761D2*
X26993D1*
X16947Y42513D2*
X17125D1*
X18550D2*
X27125D1*
X28550D2*
X28727D1*
X16947Y42264D2*
X17426D1*
X18250D2*
X27426D1*
X28250D2*
X28727D1*
X17782Y49079D2*
X17781Y49129D1*
X17813Y49250D1*
X17880Y49355D1*
X17974Y49437D1*
X18088Y49487D1*
X18211Y49502D1*
X18334Y49480D1*
X18445Y49424D1*
X18535Y49337D1*
X18595Y49229D1*
X18621Y49076D1*
X18618Y48962D1*
X18604Y48839D1*
X18550Y48727D1*
X18466Y48635D1*
X18359Y48571D1*
X18238Y48542D1*
X18114Y48549D1*
X17997Y48592D1*
X17898Y48668D1*
X17825Y48769D1*
X17785Y48887D1*
X17778Y48962D1*
X17782Y49080D1*
Y47110D2*
X17781Y47161D1*
X17813Y47281D1*
X17880Y47387D1*
X17974Y47468D1*
X18088Y47519D1*
X18211Y47534D1*
X18334Y47512D1*
X18445Y47455D1*
X18535Y47369D1*
X18595Y47260D1*
X18621Y47108D1*
X18618Y46994D1*
X18604Y46871D1*
X18550Y46758D1*
X18466Y46666D1*
X18359Y46603D1*
X18238Y46573D1*
X18114Y46581D1*
X17997Y46624D1*
X17898Y46699D1*
X17825Y46800D1*
X17785Y46918D1*
X17778Y46994D1*
X17782Y47112D1*
X17031Y49086D2*
X16957Y49087D1*
X16924Y49098D1*
X16922Y47702D1*
Y46980D1*
X17029Y46989D1*
X17245Y46992D1*
X17335Y46983D1*
X17451Y46940D1*
X17551Y46865D1*
X17625Y46765D1*
X17668Y46648D1*
X17677Y46561D1*
X17659Y46437D1*
X17607Y46324D1*
X17524Y46231D1*
X17419Y46165D1*
X17298Y46132D1*
X17245Y46129D1*
X16957Y46135D1*
X16924Y46145D1*
X16922Y43952D1*
Y42122D1*
X28752D1*
Y53952D1*
X16922D1*
Y49933D1*
X17029Y49942D1*
X17245Y49945D1*
X17335Y49936D1*
X17451Y49893D1*
X17551Y49818D1*
X17625Y49718D1*
X17668Y49601D1*
X17677Y49513D1*
X17659Y49390D1*
X17607Y49277D1*
X17524Y49184D1*
X17419Y49118D1*
X17298Y49085D1*
X17245Y49082D1*
X17029Y49085D1*
X25785Y49913D2*
X25748Y49793D1*
X25689Y49683D1*
X25610Y49587D1*
X25553Y49540D1*
X25617Y49480D1*
X25695Y49382D1*
X25752Y49271D1*
X25787Y49151D1*
X25797Y49037D1*
X25785Y48913D1*
X25748Y48793D1*
X25689Y48683D1*
X25610Y48587D1*
X25553Y48540D1*
X25617Y48480D1*
X25695Y48382D1*
X25752Y48271D1*
X25787Y48151D1*
X25797Y48037D1*
X25785Y47913D1*
X25748Y47793D1*
X25689Y47683D1*
X25610Y47587D1*
X25553Y47540D1*
X25617Y47480D1*
X25695Y47382D1*
X25752Y47271D1*
X25787Y47151D1*
X25797Y47037D1*
X25785Y46913D1*
X25748Y46793D1*
X25689Y46683D1*
X25610Y46587D1*
X25553Y46540D1*
X25617Y46480D1*
X25695Y46382D1*
X25752Y46271D1*
X25787Y46151D1*
X25797Y46037D1*
X25785Y45913D1*
X25748Y45793D1*
X25689Y45683D1*
X25610Y45587D1*
X25513Y45508D1*
X25403Y45450D1*
X25284Y45414D1*
X25159Y45402D1*
X25035Y45415D1*
X24916Y45452D1*
X24806Y45511D1*
X24710Y45591D1*
X24632Y45688D1*
X24574Y45798D1*
X24538Y45918D1*
X24527Y46042D1*
X24540Y46166D1*
X24562Y46237D1*
X24335Y46460D1*
X24268Y46569D1*
X24288Y46523D1*
X24252Y46662D1*
Y49400D1*
X24201Y49504D1*
X24184Y49628D1*
X24212Y49749D1*
X24279Y49853D1*
X24379Y49928D1*
X24498Y49963D1*
X24533Y49961D1*
X24527Y50042D1*
X24540Y50166D1*
X24578Y50285D1*
X24637Y50395D1*
X24718Y50490D1*
X24815Y50569D1*
X24925Y50626D1*
X25045Y50661D1*
X25170Y50672D1*
X25294Y50658D1*
X25413Y50620D1*
X25522Y50560D1*
X25617Y50480D1*
X25695Y50382D1*
X25752Y50271D1*
X25787Y50151D1*
X25797Y50037D1*
X25785Y49913D1*
X28693Y52912D2*
X28666Y52790D1*
X28622Y52674D1*
X28561Y52564D1*
X28486Y52465D1*
X28397Y52378D1*
X28296Y52304D1*
X28186Y52245D1*
X28068Y52203D1*
X27945Y52179D1*
X27821Y52172D1*
X27696Y52184D1*
X27575Y52213D1*
X27459Y52259D1*
X27351Y52322D1*
X27253Y52399D1*
X27167Y52490D1*
X27095Y52592D1*
X27039Y52703D1*
X26999Y52822D1*
X26977Y52945D1*
X26973Y53070D1*
X26986Y53194D1*
X27018Y53315D1*
X27066Y53430D1*
X27131Y53537D1*
X27210Y53633D1*
X27302Y53717D1*
X27406Y53787D1*
X27518Y53841D1*
X27638Y53879D1*
X27761Y53899D1*
X27886Y53901D1*
X28010Y53885D1*
X28130Y53851D1*
X28244Y53800D1*
X28350Y53734D1*
X28445Y53653D1*
X28527Y53559D1*
X28595Y53454D1*
X28647Y53340D1*
X28682Y53221D1*
X28702Y53037D1*
X28693Y52912D1*
X18693D2*
X18666Y52790D1*
X18622Y52674D1*
X18561Y52564D1*
X18486Y52465D1*
X18397Y52378D1*
X18296Y52304D1*
X18186Y52245D1*
X18068Y52203D1*
X17945Y52179D1*
X17821Y52172D1*
X17696Y52184D1*
X17575Y52213D1*
X17459Y52259D1*
X17351Y52322D1*
X17253Y52399D1*
X17167Y52490D1*
X17095Y52592D1*
X17039Y52703D1*
X16999Y52822D1*
X16977Y52945D1*
X16973Y53070D1*
X16986Y53194D1*
X17018Y53315D1*
X17066Y53430D1*
X17131Y53537D1*
X17210Y53633D1*
X17302Y53717D1*
X17406Y53787D1*
X17518Y53841D1*
X17638Y53879D1*
X17761Y53899D1*
X17886Y53901D1*
X18010Y53885D1*
X18130Y53851D1*
X18244Y53800D1*
X18350Y53734D1*
X18445Y53653D1*
X18527Y53559D1*
X18595Y53454D1*
X18647Y53340D1*
X18682Y53221D1*
X18702Y53037D1*
X18693Y52912D1*
Y42912D2*
X18666Y42790D1*
X18622Y42674D1*
X18561Y42564D1*
X18486Y42465D1*
X18397Y42378D1*
X18296Y42304D1*
X18186Y42245D1*
X18068Y42203D1*
X17945Y42179D1*
X17821Y42172D1*
X17696Y42184D1*
X17575Y42213D1*
X17459Y42259D1*
X17351Y42322D1*
X17253Y42399D1*
X17167Y42490D1*
X17095Y42592D1*
X17039Y42703D1*
X16999Y42822D1*
X16977Y42945D1*
X16973Y43070D1*
X16986Y43194D1*
X17018Y43315D1*
X17066Y43430D1*
X17131Y43537D1*
X17210Y43633D1*
X17302Y43717D1*
X17406Y43787D1*
X17518Y43841D1*
X17638Y43879D1*
X17761Y43899D1*
X17886Y43901D1*
X18010Y43885D1*
X18130Y43851D1*
X18244Y43800D1*
X18350Y43734D1*
X18445Y43653D1*
X18527Y43559D1*
X18595Y43454D1*
X18647Y43340D1*
X18682Y43221D1*
X18702Y43037D1*
X18693Y42912D1*
X28693D2*
X28666Y42790D1*
X28622Y42674D1*
X28561Y42564D1*
X28486Y42465D1*
X28397Y42378D1*
X28296Y42304D1*
X28186Y42245D1*
X28068Y42203D1*
X27945Y42179D1*
X27821Y42172D1*
X27696Y42184D1*
X27575Y42213D1*
X27459Y42259D1*
X27351Y42322D1*
X27253Y42399D1*
X27167Y42490D1*
X27095Y42592D1*
X27039Y42703D1*
X26999Y42822D1*
X26977Y42945D1*
X26973Y43070D1*
X26986Y43194D1*
X27018Y43315D1*
X27066Y43430D1*
X27131Y43537D1*
X27210Y43633D1*
X27302Y43717D1*
X27406Y43787D1*
X27518Y43841D1*
X27638Y43879D1*
X27761Y43899D1*
X27886Y43901D1*
X28010Y43885D1*
X28130Y43851D1*
X28244Y43800D1*
X28350Y43734D1*
X28445Y43653D1*
X28527Y43559D1*
X28595Y43454D1*
X28647Y43340D1*
X28682Y43221D1*
X28702Y43037D1*
X28693Y42912D1*
X22746Y47593D2*
X22822Y47389D1*
X22830Y47250D1*
X22790Y47090D1*
X22740Y46994D1*
X22648Y46929D1*
X22562Y46912D1*
X21722D1*
X21603Y46945D1*
X21512Y47042D1*
X21432Y47202D1*
X21409Y47321D1*
Y47278D1*
X21422Y47389D1*
X21542Y47710D1*
X21614Y47810D1*
X21731Y47859D1*
X22387Y47862D1*
X22482D1*
X22601Y47830D1*
X22688Y47738D1*
X22746Y47593D1*
X22877Y49694D2*
Y50405D1*
X22826Y50504D1*
X22809Y50628D1*
X22837Y50749D1*
X22904Y50853D1*
X23004Y50928D1*
X23123Y50963D1*
X23247Y50955D1*
X23361Y50904D1*
X23450Y50817D1*
X23503Y50705D1*
X23515Y50612D1*
X23493Y50490D1*
X23448Y50413D1*
X23450Y49692D1*
X23503Y49580D1*
X23515Y49487D1*
X23493Y49365D1*
X23430Y49257D1*
X23334Y49179D1*
X23216Y49138D1*
X23092Y49141D1*
X22976Y49187D1*
X22884Y49270D1*
X22826Y49379D1*
X22809Y49503D1*
X22837Y49624D1*
X22877Y49686D1*
D21*
X18200Y49021D3*
Y47053D3*
D22*
X17137Y49513D3*
Y46561D3*
D25*
X25162Y50037D3*
Y49037D3*
Y48037D3*
Y47037D3*
Y46037D3*
G36*
X22602Y47307D2*
X22482Y47627D1*
X21762D1*
X21642Y47307D1*
X21722Y47147D1*
X22562D1*
D1*
X22602Y47307D1*
G37*
X36264Y50989D2*
D13*
X35512D1*
X34764D1*
X31262Y47487D1*
X32262Y45787D2*
Y46487D1*
X31262Y47487D1*
X35012Y44612D2*
Y44987D1*
X33012D1*
X32237Y45762D1*
X32262Y45787D1*
X35637Y45362D2*
X35352D1*
X35012Y45022D1*
Y44987D1*
X39012Y43612D2*
X36012D1*
X35012Y44612D1*
X32012Y49237D2*
Y48291D1*
X31262Y47487D1*
X37137Y49612D2*
D14*
Y46662D1*
X37762Y46037D1*
X35762Y49487D2*
Y50612D1*
D29*
X36264Y50989D3*
X31262Y47487D3*
X32262Y45787D3*
X35012Y44612D3*
X32262Y45787D3*
X35512Y50989D3*
X35637Y45362D3*
X39012Y43612D3*
X35012Y44612D3*
X32012Y49237D3*
X37137Y49612D3*
X35762Y49487D3*
Y50612D3*
X29547Y53703D2*
D15*
X29862D1*
X31014D2*
X39862D1*
X41014D2*
X41327D1*
X29547Y53455D2*
X29655D1*
X31221D2*
X39655D1*
X41221D2*
X41325D1*
X31311Y53206D2*
X39565D1*
X31322Y52957D2*
X39550D1*
X31264Y52709D2*
X39612D1*
X29547Y52460D2*
X29768D1*
X31107D2*
X39768D1*
X41107D2*
X41327D1*
X29547Y52211D2*
X30155D1*
X30721D2*
X40155D1*
X40721D2*
X41327D1*
X29547Y51963D2*
X41327D1*
X29547Y51714D2*
X41327D1*
X29547Y51465D2*
X41327D1*
X29547Y51217D2*
X41327D1*
X29547Y50968D2*
X41327D1*
X29547Y50719D2*
X35401D1*
X36123D2*
X41327D1*
X29547Y50471D2*
X35413D1*
X36111D2*
X37272D1*
X38252D2*
X41327D1*
X29547Y50222D2*
X35452D1*
X36072D2*
X37128D1*
X38393D2*
X41327D1*
X29547Y49973D2*
X35452D1*
X36072D2*
X37104D1*
X38420D2*
X41327D1*
X30248Y49724D2*
X35452D1*
X36072D2*
X36776D1*
X38338D2*
X41327D1*
X30299Y49476D2*
X30628D1*
X30971D2*
X35386D1*
X36139D2*
X36788D1*
X38244D2*
X41327D1*
X30193Y49227D2*
X30378D1*
X31221D2*
X35499D1*
X36025D2*
X36827D1*
X38393D2*
X41327D1*
X29547Y48978D2*
X30354D1*
X31248D2*
X36827D1*
X38420D2*
X41327D1*
X29547Y48730D2*
X30425D1*
X31178D2*
X36827D1*
X38342D2*
X41327D1*
X29547Y48481D2*
X36827D1*
X38240D2*
X41327D1*
X29547Y48232D2*
X36827D1*
X38393D2*
X41327D1*
X29547Y47984D2*
X36827D1*
X38420D2*
X41327D1*
X29547Y47735D2*
X34128D1*
X35314D2*
X36827D1*
X38346D2*
X41327D1*
X29547Y47486D2*
X30581D1*
X31018D2*
X34034D1*
X35412D2*
X36827D1*
X38236D2*
X41327D1*
X29547Y47238D2*
X30374D1*
X31228D2*
X33991D1*
X35451D2*
X36827D1*
X38389D2*
X41327D1*
X29924Y46989D2*
X30354D1*
X31248D2*
X34124D1*
X35361D2*
X36827D1*
X38420D2*
X41327D1*
X30264Y46740D2*
X30436D1*
X31162D2*
X36827D1*
X38350D2*
X41327D1*
X30295Y46492D2*
X36886D1*
X38228D2*
X41327D1*
X30162Y46243D2*
X37128D1*
X38389D2*
X41327D1*
X29547Y45994D2*
X37104D1*
X38420D2*
X41327D1*
X29547Y45745D2*
X37175D1*
X38350D2*
X41327D1*
X29547Y45497D2*
X37405D1*
X38119D2*
X41327D1*
X29547Y45248D2*
X41327D1*
X29547Y44999D2*
X41327D1*
X29547Y44751D2*
X41327D1*
X29547Y44502D2*
X41327D1*
X29547Y44253D2*
X41327D1*
X29547Y44005D2*
X41327D1*
X29547Y43756D2*
X29932D1*
X30943D2*
X39932D1*
X40943D2*
X41327D1*
X29547Y43507D2*
X29686D1*
X31189D2*
X39686D1*
X41189D2*
X41325D1*
X31299Y43259D2*
X39577D1*
X31326Y43010D2*
X39546D1*
X31283Y42761D2*
X39593D1*
X29547Y42513D2*
X29725D1*
X31150D2*
X39725D1*
X41150D2*
X41327D1*
X29547Y42264D2*
X30026D1*
X30850D2*
X40026D1*
X40850D2*
X41327D1*
X30382Y49079D2*
X30381Y49129D1*
X30413Y49250D1*
X30480Y49355D1*
X30574Y49437D1*
X30688Y49487D1*
X30811Y49502D1*
X30934Y49480D1*
X31045Y49424D1*
X31135Y49337D1*
X31195Y49229D1*
X31221Y49076D1*
X31218Y48962D1*
X31204Y48839D1*
X31150Y48727D1*
X31066Y48635D1*
X30959Y48571D1*
X30838Y48542D1*
X30714Y48549D1*
X30597Y48592D1*
X30498Y48668D1*
X30425Y48769D1*
X30385Y48887D1*
X30378Y48962D1*
X30382Y49080D1*
Y47110D2*
X30381Y47161D1*
X30413Y47281D1*
X30480Y47387D1*
X30574Y47468D1*
X30688Y47519D1*
X30811Y47534D1*
X30934Y47512D1*
X31045Y47455D1*
X31135Y47369D1*
X31195Y47260D1*
X31221Y47108D1*
X31218Y46994D1*
X31204Y46871D1*
X31150Y46758D1*
X31066Y46666D1*
X30959Y46603D1*
X30838Y46573D1*
X30714Y46581D1*
X30597Y46624D1*
X30498Y46699D1*
X30425Y46800D1*
X30385Y46918D1*
X30378Y46994D1*
X30382Y47112D1*
X29631Y49086D2*
X29557Y49087D1*
X29524Y49098D1*
X29522Y47702D1*
Y46980D1*
X29629Y46989D1*
X29845Y46992D1*
X29935Y46983D1*
X30051Y46940D1*
X30151Y46865D1*
X30225Y46765D1*
X30268Y46648D1*
X30277Y46561D1*
X30259Y46437D1*
X30207Y46324D1*
X30124Y46231D1*
X30019Y46165D1*
X29898Y46132D1*
X29845Y46129D1*
X29557Y46135D1*
X29524Y46145D1*
X29522Y43952D1*
Y42122D1*
X41352D1*
Y53952D1*
X29522D1*
Y49933D1*
X29629Y49942D1*
X29845Y49945D1*
X29935Y49936D1*
X30051Y49893D1*
X30151Y49818D1*
X30225Y49718D1*
X30268Y49601D1*
X30277Y49513D1*
X30259Y49390D1*
X30207Y49277D1*
X30124Y49184D1*
X30019Y49118D1*
X29898Y49085D1*
X29845Y49082D1*
X29629Y49085D1*
X38385Y49913D2*
X38348Y49793D1*
X38289Y49683D1*
X38210Y49587D1*
X38153Y49540D1*
X38217Y49480D1*
X38295Y49382D1*
X38352Y49271D1*
X38387Y49151D1*
X38397Y49037D1*
X38385Y48913D1*
X38348Y48793D1*
X38289Y48683D1*
X38210Y48587D1*
X38153Y48540D1*
X38217Y48480D1*
X38295Y48382D1*
X38352Y48271D1*
X38387Y48151D1*
X38397Y48037D1*
X38385Y47913D1*
X38348Y47793D1*
X38289Y47683D1*
X38210Y47587D1*
X38153Y47540D1*
X38217Y47480D1*
X38295Y47382D1*
X38352Y47271D1*
X38387Y47151D1*
X38397Y47037D1*
X38385Y46913D1*
X38348Y46793D1*
X38289Y46683D1*
X38210Y46587D1*
X38153Y46540D1*
X38217Y46480D1*
X38295Y46382D1*
X38352Y46271D1*
X38387Y46151D1*
X38397Y46037D1*
X38385Y45913D1*
X38348Y45793D1*
X38289Y45683D1*
X38210Y45587D1*
X38113Y45508D1*
X38003Y45450D1*
X37884Y45414D1*
X37759Y45402D1*
X37635Y45415D1*
X37516Y45452D1*
X37406Y45511D1*
X37310Y45591D1*
X37232Y45688D1*
X37174Y45798D1*
X37138Y45918D1*
X37127Y46042D1*
X37140Y46166D1*
X37162Y46237D1*
X36935Y46460D1*
X36868Y46569D1*
X36888Y46523D1*
X36852Y46662D1*
Y49400D1*
X36801Y49504D1*
X36784Y49628D1*
X36812Y49749D1*
X36879Y49853D1*
X36979Y49928D1*
X37098Y49963D1*
X37133Y49961D1*
X37127Y50042D1*
X37140Y50166D1*
X37178Y50285D1*
X37237Y50395D1*
X37318Y50490D1*
X37415Y50569D1*
X37525Y50626D1*
X37645Y50661D1*
X37770Y50672D1*
X37894Y50658D1*
X38013Y50620D1*
X38122Y50560D1*
X38217Y50480D1*
X38295Y50382D1*
X38352Y50271D1*
X38387Y50151D1*
X38397Y50037D1*
X38385Y49913D1*
X41293Y52912D2*
X41266Y52790D1*
X41222Y52674D1*
X41161Y52564D1*
X41086Y52465D1*
X40997Y52378D1*
X40896Y52304D1*
X40786Y52245D1*
X40668Y52203D1*
X40545Y52179D1*
X40421Y52172D1*
X40296Y52184D1*
X40175Y52213D1*
X40059Y52259D1*
X39951Y52322D1*
X39853Y52399D1*
X39767Y52490D1*
X39695Y52592D1*
X39639Y52703D1*
X39599Y52822D1*
X39577Y52945D1*
X39573Y53070D1*
X39586Y53194D1*
X39618Y53315D1*
X39666Y53430D1*
X39731Y53537D1*
X39810Y53633D1*
X39902Y53717D1*
X40006Y53787D1*
X40118Y53841D1*
X40238Y53879D1*
X40361Y53899D1*
X40486Y53901D1*
X40610Y53885D1*
X40730Y53851D1*
X40844Y53800D1*
X40950Y53734D1*
X41045Y53653D1*
X41127Y53559D1*
X41195Y53454D1*
X41247Y53340D1*
X41282Y53221D1*
X41302Y53037D1*
X41293Y52912D1*
X31293D2*
X31266Y52790D1*
X31222Y52674D1*
X31161Y52564D1*
X31086Y52465D1*
X30997Y52378D1*
X30896Y52304D1*
X30786Y52245D1*
X30668Y52203D1*
X30545Y52179D1*
X30421Y52172D1*
X30296Y52184D1*
X30175Y52213D1*
X30059Y52259D1*
X29951Y52322D1*
X29853Y52399D1*
X29767Y52490D1*
X29695Y52592D1*
X29639Y52703D1*
X29599Y52822D1*
X29577Y52945D1*
X29573Y53070D1*
X29586Y53194D1*
X29618Y53315D1*
X29666Y53430D1*
X29731Y53537D1*
X29810Y53633D1*
X29902Y53717D1*
X30006Y53787D1*
X30118Y53841D1*
X30238Y53879D1*
X30361Y53899D1*
X30486Y53901D1*
X30610Y53885D1*
X30730Y53851D1*
X30844Y53800D1*
X30950Y53734D1*
X31045Y53653D1*
X31127Y53559D1*
X31195Y53454D1*
X31247Y53340D1*
X31282Y53221D1*
X31302Y53037D1*
X31293Y52912D1*
Y42912D2*
X31266Y42790D1*
X31222Y42674D1*
X31161Y42564D1*
X31086Y42465D1*
X30997Y42378D1*
X30896Y42304D1*
X30786Y42245D1*
X30668Y42203D1*
X30545Y42179D1*
X30421Y42172D1*
X30296Y42184D1*
X30175Y42213D1*
X30059Y42259D1*
X29951Y42322D1*
X29853Y42399D1*
X29767Y42490D1*
X29695Y42592D1*
X29639Y42703D1*
X29599Y42822D1*
X29577Y42945D1*
X29573Y43070D1*
X29586Y43194D1*
X29618Y43315D1*
X29666Y43430D1*
X29731Y43537D1*
X29810Y43633D1*
X29902Y43717D1*
X30006Y43787D1*
X30118Y43841D1*
X30238Y43879D1*
X30361Y43899D1*
X30486Y43901D1*
X30610Y43885D1*
X30730Y43851D1*
X30844Y43800D1*
X30950Y43734D1*
X31045Y43653D1*
X31127Y43559D1*
X31195Y43454D1*
X31247Y43340D1*
X31282Y43221D1*
X31302Y43037D1*
X31293Y42912D1*
X41293D2*
X41266Y42790D1*
X41222Y42674D1*
X41161Y42564D1*
X41086Y42465D1*
X40997Y42378D1*
X40896Y42304D1*
X40786Y42245D1*
X40668Y42203D1*
X40545Y42179D1*
X40421Y42172D1*
X40296Y42184D1*
X40175Y42213D1*
X40059Y42259D1*
X39951Y42322D1*
X39853Y42399D1*
X39767Y42490D1*
X39695Y42592D1*
X39639Y42703D1*
X39599Y42822D1*
X39577Y42945D1*
X39573Y43070D1*
X39586Y43194D1*
X39618Y43315D1*
X39666Y43430D1*
X39731Y43537D1*
X39810Y43633D1*
X39902Y43717D1*
X40006Y43787D1*
X40118Y43841D1*
X40238Y43879D1*
X40361Y43899D1*
X40486Y43901D1*
X40610Y43885D1*
X40730Y43851D1*
X40844Y43800D1*
X40950Y43734D1*
X41045Y43653D1*
X41127Y43559D1*
X41195Y43454D1*
X41247Y43340D1*
X41282Y43221D1*
X41302Y43037D1*
X41293Y42912D1*
X35346Y47593D2*
X35422Y47389D1*
X35430Y47250D1*
X35390Y47090D1*
X35340Y46994D1*
X35248Y46929D1*
X35162Y46912D1*
X34322D1*
X34203Y46945D1*
X34112Y47042D1*
X34032Y47202D1*
X34009Y47321D1*
Y47278D1*
X34022Y47389D1*
X34142Y47710D1*
X34214Y47810D1*
X34331Y47859D1*
X34987Y47862D1*
X35082D1*
X35201Y47830D1*
X35288Y47738D1*
X35346Y47593D1*
X35477Y49694D2*
Y50405D1*
X35426Y50504D1*
X35409Y50628D1*
X35437Y50749D1*
X35504Y50853D1*
X35604Y50928D1*
X35723Y50963D1*
X35847Y50955D1*
X35961Y50904D1*
X36050Y50817D1*
X36103Y50705D1*
X36115Y50612D1*
X36093Y50490D1*
X36048Y50413D1*
X36050Y49692D1*
X36103Y49580D1*
X36115Y49487D1*
X36093Y49365D1*
X36030Y49257D1*
X35934Y49179D1*
X35816Y49138D1*
X35692Y49141D1*
X35576Y49187D1*
X35484Y49270D1*
X35426Y49379D1*
X35409Y49503D1*
X35437Y49624D1*
X35477Y49686D1*
D21*
X30800Y49021D3*
Y47053D3*
D22*
X29737Y49513D3*
Y46561D3*
D25*
X37762Y50037D3*
Y49037D3*
Y48037D3*
Y47037D3*
Y46037D3*
G36*
X35202Y47307D2*
X35082Y47627D1*
X34362D1*
X34242Y47307D1*
X34322Y47147D1*
X35162D1*
D1*
X35202Y47307D1*
G37*
X48864Y50989D2*
D13*
X48112D1*
X47364D1*
X43862Y47487D1*
X44862Y45787D2*
Y46487D1*
X43862Y47487D1*
X47612Y44612D2*
Y44987D1*
X45612D1*
X44837Y45762D1*
X44862Y45787D1*
X48237Y45362D2*
X47952D1*
X47612Y45022D1*
Y44987D1*
X51612Y43612D2*
X48612D1*
X47612Y44612D1*
X44612Y49237D2*
Y48291D1*
X43862Y47487D1*
X49737Y49612D2*
D14*
Y46662D1*
X50362Y46037D1*
X48362Y49487D2*
Y50612D1*
D29*
X48864Y50989D3*
X43862Y47487D3*
X44862Y45787D3*
X47612Y44612D3*
X44862Y45787D3*
X48112Y50989D3*
X48237Y45362D3*
X51612Y43612D3*
X47612Y44612D3*
X44612Y49237D3*
X49737Y49612D3*
X48362Y49487D3*
Y50612D3*
X42147Y53703D2*
D15*
X42462D1*
X43614D2*
X52462D1*
X53614D2*
X53927D1*
X42147Y53455D2*
X42255D1*
X43821D2*
X52255D1*
X53821D2*
X53925D1*
X43911Y53206D2*
X52165D1*
X43922Y52957D2*
X52150D1*
X43864Y52709D2*
X52212D1*
X42147Y52460D2*
X42368D1*
X43707D2*
X52368D1*
X53707D2*
X53927D1*
X42147Y52211D2*
X42755D1*
X43321D2*
X52755D1*
X53321D2*
X53927D1*
X42147Y51963D2*
X53927D1*
X42147Y51714D2*
X53927D1*
X42147Y51465D2*
X53927D1*
X42147Y51217D2*
X53927D1*
X42147Y50968D2*
X53927D1*
X42147Y50719D2*
X48001D1*
X48723D2*
X53927D1*
X42147Y50471D2*
X48013D1*
X48711D2*
X49872D1*
X50852D2*
X53927D1*
X42147Y50222D2*
X48052D1*
X48672D2*
X49728D1*
X50993D2*
X53927D1*
X42147Y49973D2*
X48052D1*
X48672D2*
X49704D1*
X51020D2*
X53927D1*
X42848Y49724D2*
X48052D1*
X48672D2*
X49376D1*
X50938D2*
X53927D1*
X42899Y49476D2*
X43228D1*
X43571D2*
X47986D1*
X48739D2*
X49388D1*
X50844D2*
X53927D1*
X42793Y49227D2*
X42978D1*
X43821D2*
X48099D1*
X48625D2*
X49427D1*
X50993D2*
X53927D1*
X42147Y48978D2*
X42954D1*
X43848D2*
X49427D1*
X51020D2*
X53927D1*
X42147Y48730D2*
X43025D1*
X43778D2*
X49427D1*
X50942D2*
X53927D1*
X42147Y48481D2*
X49427D1*
X50840D2*
X53927D1*
X42147Y48232D2*
X49427D1*
X50993D2*
X53927D1*
X42147Y47984D2*
X49427D1*
X51020D2*
X53927D1*
X42147Y47735D2*
X46728D1*
X47914D2*
X49427D1*
X50946D2*
X53927D1*
X42147Y47486D2*
X43181D1*
X43618D2*
X46634D1*
X48012D2*
X49427D1*
X50836D2*
X53927D1*
X42147Y47238D2*
X42974D1*
X43828D2*
X46591D1*
X48051D2*
X49427D1*
X50989D2*
X53927D1*
X42524Y46989D2*
X42954D1*
X43848D2*
X46724D1*
X47961D2*
X49427D1*
X51020D2*
X53927D1*
X42864Y46740D2*
X43036D1*
X43762D2*
X49427D1*
X50950D2*
X53927D1*
X42895Y46492D2*
X49486D1*
X50828D2*
X53927D1*
X42762Y46243D2*
X49728D1*
X50989D2*
X53927D1*
X42147Y45994D2*
X49704D1*
X51020D2*
X53927D1*
X42147Y45745D2*
X49775D1*
X50950D2*
X53927D1*
X42147Y45497D2*
X50005D1*
X50719D2*
X53927D1*
X42147Y45248D2*
X53927D1*
X42147Y44999D2*
X53927D1*
X42147Y44751D2*
X53927D1*
X42147Y44502D2*
X53927D1*
X42147Y44253D2*
X53927D1*
X42147Y44005D2*
X53927D1*
X42147Y43756D2*
X42532D1*
X43543D2*
X52532D1*
X53543D2*
X53927D1*
X42147Y43507D2*
X42286D1*
X43789D2*
X52286D1*
X53789D2*
X53925D1*
X43899Y43259D2*
X52177D1*
X43926Y43010D2*
X52146D1*
X43883Y42761D2*
X52193D1*
X42147Y42513D2*
X42325D1*
X43750D2*
X52325D1*
X53750D2*
X53927D1*
X42147Y42264D2*
X42626D1*
X43450D2*
X52626D1*
X53450D2*
X53927D1*
X42982Y49079D2*
X42981Y49129D1*
X43013Y49250D1*
X43080Y49355D1*
X43174Y49437D1*
X43288Y49487D1*
X43411Y49502D1*
X43534Y49480D1*
X43645Y49424D1*
X43735Y49337D1*
X43795Y49229D1*
X43821Y49076D1*
X43818Y48962D1*
X43804Y48839D1*
X43750Y48727D1*
X43666Y48635D1*
X43559Y48571D1*
X43438Y48542D1*
X43314Y48549D1*
X43197Y48592D1*
X43098Y48668D1*
X43025Y48769D1*
X42985Y48887D1*
X42978Y48962D1*
X42982Y49080D1*
Y47110D2*
X42981Y47161D1*
X43013Y47281D1*
X43080Y47387D1*
X43174Y47468D1*
X43288Y47519D1*
X43411Y47534D1*
X43534Y47512D1*
X43645Y47455D1*
X43735Y47369D1*
X43795Y47260D1*
X43821Y47108D1*
X43818Y46994D1*
X43804Y46871D1*
X43750Y46758D1*
X43666Y46666D1*
X43559Y46603D1*
X43438Y46573D1*
X43314Y46581D1*
X43197Y46624D1*
X43098Y46699D1*
X43025Y46800D1*
X42985Y46918D1*
X42978Y46994D1*
X42982Y47112D1*
X42231Y49086D2*
X42157Y49087D1*
X42124Y49098D1*
X42122Y47702D1*
Y46980D1*
X42229Y46989D1*
X42445Y46992D1*
X42535Y46983D1*
X42651Y46940D1*
X42751Y46865D1*
X42825Y46765D1*
X42868Y46648D1*
X42877Y46561D1*
X42859Y46437D1*
X42807Y46324D1*
X42724Y46231D1*
X42619Y46165D1*
X42498Y46132D1*
X42445Y46129D1*
X42157Y46135D1*
X42124Y46145D1*
X42122Y43952D1*
Y42122D1*
X53952D1*
Y53952D1*
X42122D1*
Y49933D1*
X42229Y49942D1*
X42445Y49945D1*
X42535Y49936D1*
X42651Y49893D1*
X42751Y49818D1*
X42825Y49718D1*
X42868Y49601D1*
X42877Y49513D1*
X42859Y49390D1*
X42807Y49277D1*
X42724Y49184D1*
X42619Y49118D1*
X42498Y49085D1*
X42445Y49082D1*
X42229Y49085D1*
X50985Y49913D2*
X50948Y49793D1*
X50889Y49683D1*
X50810Y49587D1*
X50753Y49540D1*
X50817Y49480D1*
X50895Y49382D1*
X50952Y49271D1*
X50987Y49151D1*
X50997Y49037D1*
X50985Y48913D1*
X50948Y48793D1*
X50889Y48683D1*
X50810Y48587D1*
X50753Y48540D1*
X50817Y48480D1*
X50895Y48382D1*
X50952Y48271D1*
X50987Y48151D1*
X50997Y48037D1*
X50985Y47913D1*
X50948Y47793D1*
X50889Y47683D1*
X50810Y47587D1*
X50753Y47540D1*
X50817Y47480D1*
X50895Y47382D1*
X50952Y47271D1*
X50987Y47151D1*
X50997Y47037D1*
X50985Y46913D1*
X50948Y46793D1*
X50889Y46683D1*
X50810Y46587D1*
X50753Y46540D1*
X50817Y46480D1*
X50895Y46382D1*
X50952Y46271D1*
X50987Y46151D1*
X50997Y46037D1*
X50985Y45913D1*
X50948Y45793D1*
X50889Y45683D1*
X50810Y45587D1*
X50713Y45508D1*
X50603Y45450D1*
X50484Y45414D1*
X50359Y45402D1*
X50235Y45415D1*
X50116Y45452D1*
X50006Y45511D1*
X49910Y45591D1*
X49832Y45688D1*
X49774Y45798D1*
X49738Y45918D1*
X49727Y46042D1*
X49740Y46166D1*
X49762Y46237D1*
X49535Y46460D1*
X49468Y46569D1*
X49488Y46523D1*
X49452Y46662D1*
Y49400D1*
X49401Y49504D1*
X49384Y49628D1*
X49412Y49749D1*
X49479Y49853D1*
X49579Y49928D1*
X49698Y49963D1*
X49733Y49961D1*
X49727Y50042D1*
X49740Y50166D1*
X49778Y50285D1*
X49837Y50395D1*
X49918Y50490D1*
X50015Y50569D1*
X50125Y50626D1*
X50245Y50661D1*
X50370Y50672D1*
X50494Y50658D1*
X50613Y50620D1*
X50722Y50560D1*
X50817Y50480D1*
X50895Y50382D1*
X50952Y50271D1*
X50987Y50151D1*
X50997Y50037D1*
X50985Y49913D1*
X53893Y52912D2*
X53866Y52790D1*
X53822Y52674D1*
X53761Y52564D1*
X53686Y52465D1*
X53597Y52378D1*
X53496Y52304D1*
X53386Y52245D1*
X53268Y52203D1*
X53145Y52179D1*
X53021Y52172D1*
X52896Y52184D1*
X52775Y52213D1*
X52659Y52259D1*
X52551Y52322D1*
X52453Y52399D1*
X52367Y52490D1*
X52295Y52592D1*
X52239Y52703D1*
X52199Y52822D1*
X52177Y52945D1*
X52173Y53070D1*
X52186Y53194D1*
X52218Y53315D1*
X52266Y53430D1*
X52331Y53537D1*
X52410Y53633D1*
X52502Y53717D1*
X52606Y53787D1*
X52718Y53841D1*
X52838Y53879D1*
X52961Y53899D1*
X53086Y53901D1*
X53210Y53885D1*
X53330Y53851D1*
X53444Y53800D1*
X53550Y53734D1*
X53645Y53653D1*
X53727Y53559D1*
X53795Y53454D1*
X53847Y53340D1*
X53882Y53221D1*
X53902Y53037D1*
X53893Y52912D1*
X43893D2*
X43866Y52790D1*
X43822Y52674D1*
X43761Y52564D1*
X43686Y52465D1*
X43597Y52378D1*
X43496Y52304D1*
X43386Y52245D1*
X43268Y52203D1*
X43145Y52179D1*
X43021Y52172D1*
X42896Y52184D1*
X42775Y52213D1*
X42659Y52259D1*
X42551Y52322D1*
X42453Y52399D1*
X42367Y52490D1*
X42295Y52592D1*
X42239Y52703D1*
X42199Y52822D1*
X42177Y52945D1*
X42173Y53070D1*
X42186Y53194D1*
X42218Y53315D1*
X42266Y53430D1*
X42331Y53537D1*
X42410Y53633D1*
X42502Y53717D1*
X42606Y53787D1*
X42718Y53841D1*
X42838Y53879D1*
X42961Y53899D1*
X43086Y53901D1*
X43210Y53885D1*
X43330Y53851D1*
X43444Y53800D1*
X43550Y53734D1*
X43645Y53653D1*
X43727Y53559D1*
X43795Y53454D1*
X43847Y53340D1*
X43882Y53221D1*
X43902Y53037D1*
X43893Y52912D1*
Y42912D2*
X43866Y42790D1*
X43822Y42674D1*
X43761Y42564D1*
X43686Y42465D1*
X43597Y42378D1*
X43496Y42304D1*
X43386Y42245D1*
X43268Y42203D1*
X43145Y42179D1*
X43021Y42172D1*
X42896Y42184D1*
X42775Y42213D1*
X42659Y42259D1*
X42551Y42322D1*
X42453Y42399D1*
X42367Y42490D1*
X42295Y42592D1*
X42239Y42703D1*
X42199Y42822D1*
X42177Y42945D1*
X42173Y43070D1*
X42186Y43194D1*
X42218Y43315D1*
X42266Y43430D1*
X42331Y43537D1*
X42410Y43633D1*
X42502Y43717D1*
X42606Y43787D1*
X42718Y43841D1*
X42838Y43879D1*
X42961Y43899D1*
X43086Y43901D1*
X43210Y43885D1*
X43330Y43851D1*
X43444Y43800D1*
X43550Y43734D1*
X43645Y43653D1*
X43727Y43559D1*
X43795Y43454D1*
X43847Y43340D1*
X43882Y43221D1*
X43902Y43037D1*
X43893Y42912D1*
X53893D2*
X53866Y42790D1*
X53822Y42674D1*
X53761Y42564D1*
X53686Y42465D1*
X53597Y42378D1*
X53496Y42304D1*
X53386Y42245D1*
X53268Y42203D1*
X53145Y42179D1*
X53021Y42172D1*
X52896Y42184D1*
X52775Y42213D1*
X52659Y42259D1*
X52551Y42322D1*
X52453Y42399D1*
X52367Y42490D1*
X52295Y42592D1*
X52239Y42703D1*
X52199Y42822D1*
X52177Y42945D1*
X52173Y43070D1*
X52186Y43194D1*
X52218Y43315D1*
X52266Y43430D1*
X52331Y43537D1*
X52410Y43633D1*
X52502Y43717D1*
X52606Y43787D1*
X52718Y43841D1*
X52838Y43879D1*
X52961Y43899D1*
X53086Y43901D1*
X53210Y43885D1*
X53330Y43851D1*
X53444Y43800D1*
X53550Y43734D1*
X53645Y43653D1*
X53727Y43559D1*
X53795Y43454D1*
X53847Y43340D1*
X53882Y43221D1*
X53902Y43037D1*
X53893Y42912D1*
X47946Y47593D2*
X48022Y47389D1*
X48030Y47250D1*
X47990Y47090D1*
X47940Y46994D1*
X47848Y46929D1*
X47762Y46912D1*
X46922D1*
X46803Y46945D1*
X46712Y47042D1*
X46632Y47202D1*
X46609Y47321D1*
Y47278D1*
X46622Y47389D1*
X46742Y47710D1*
X46814Y47810D1*
X46931Y47859D1*
X47587Y47862D1*
X47682D1*
X47801Y47830D1*
X47888Y47738D1*
X47946Y47593D1*
X48077Y49694D2*
Y50405D1*
X48026Y50504D1*
X48009Y50628D1*
X48037Y50749D1*
X48104Y50853D1*
X48204Y50928D1*
X48323Y50963D1*
X48447Y50955D1*
X48561Y50904D1*
X48650Y50817D1*
X48703Y50705D1*
X48715Y50612D1*
X48693Y50490D1*
X48648Y50413D1*
X48650Y49692D1*
X48703Y49580D1*
X48715Y49487D1*
X48693Y49365D1*
X48630Y49257D1*
X48534Y49179D1*
X48416Y49138D1*
X48292Y49141D1*
X48176Y49187D1*
X48084Y49270D1*
X48026Y49379D1*
X48009Y49503D1*
X48037Y49624D1*
X48077Y49686D1*
D21*
X43400Y49021D3*
Y47053D3*
D22*
X42337Y49513D3*
Y46561D3*
D25*
X50362Y50037D3*
Y49037D3*
Y48037D3*
Y47037D3*
Y46037D3*
G36*
X47802Y47307D2*
X47682Y47627D1*
X46962D1*
X46842Y47307D1*
X46922Y47147D1*
X47762D1*
D1*
X47802Y47307D1*
G37*
M02*
