M48
INCH
T01C0.0118
T02C0.0197
T03C0.0217
T04C0.04
T05C0.126
%
T01
X+011064Y+013189
X+010562Y+012812
X+010312Y+013189
X+010562Y+011687
X+011937Y+011812
X+010437Y+007562
X+009812Y+006812
X+007062Y+007987
X+006062Y+009687
X+006812Y+011437
X+013812Y+005812
T02
X+004665Y+011713G85X+004409Y+011713
X+004665Y+008761G85X+004409Y+008761
T03
X+005600Y+011162G85X+005600Y+011280
X+005600Y+009194G85X+005600Y+009312
T04
X+012562Y+012237
X+012562Y+011237
X+012562Y+010237
X+012562Y+009237
X+012562Y+008237
T05
X+015237Y+015237
X+005237Y+015237
X+005237Y+005237
X+015237Y+005237
T00
M30
