M48
INCH
T01C0.0118
T02C0.0197
T03C0.0217
T04C0.0236
T05C0.04
T06C0.126
%
T01
X+009236Y+007486
X+009361Y+006986
X+008736Y+007111
X+008361Y+007111
X+007861Y+007486
X+006736Y+008361
X+007486Y+009611
X+007486Y+010486
X+007861Y+010491
X+009111Y+010236
X+009986Y+009986
X+010736Y+010861
X+011111Y+011486
X+011486Y+011486
X+010486Y+011611
X+011361Y+010361
X+011236Y+009736
X+011986Y+009736
X+010236Y+008736
X+010736Y+006861
X+010736Y+006361
X+004736Y+006611
X+004361Y+007611
X+005111Y+009486
X+005986Y+010986
X+005361Y+011611
X+005861Y+013236
X+006736Y+012986
X+006861Y+013486
X+007361Y+012236
X+008986Y+013111
X+012736Y+013986
X+014361Y+014236
X+014361Y+013236
X+014861Y+012236
X+015361Y+014111
T02
X+004614Y+011713G85X+004358Y+011713
X+004614Y+008760G85X+004358Y+008760
T03
X+005549Y+011161G85X+005549Y+011280
X+005549Y+009193G85X+005549Y+009311
T04
X+012486Y+012236
X+012486Y+011236
X+012486Y+010236
X+012486Y+009236
X+012486Y+008236
X+012736Y+005512
X+011736Y+005512
X+010736Y+005512
X+009736Y+005512
X+008736Y+005512
X+007736Y+005512
X+006736Y+005512
X+013736Y+005512
X+013736Y+014961
X+012736Y+014961
X+011736Y+014961
X+010736Y+014961
X+009736Y+014961
X+008736Y+014961
X+007736Y+014961
X+006736Y+014961
T05
X+015611Y+013736
X+013611Y+013336
X+013611Y+014136
T06
X+005236Y+015236
X+015236Y+015236
X+015236Y+005236
X+005236Y+005236
T00
M30
