G04 DipTrace 2.3.1.0*
%INminishiftmaster_BottomSilk.gbo*%
%MOIN*%
%ADD10C,0.0098*%
%ADD26C,0.0236*%
%ADD30C,0.0118*%
%ADD72C,0.0062*%
%FSLAX44Y44*%
G04*
G70*
G90*
G75*
G01*
%LNBotSilk*%
%LPD*%
X9244Y12403D2*
D10*
X9559D1*
X7394Y13820D2*
X7079D1*
X5779Y12079D2*
Y12394D1*
Y12704D2*
Y13019D1*
X4363Y8394D2*
Y8079D1*
X6774Y7024D2*
X10199D1*
Y10449D1*
X6774D1*
Y7024D1*
D26*
X6124Y6846D3*
G36*
X6782Y7039D2*
X7155Y7047D1*
X6782Y7039D1*
G37*
G36*
X6833Y7004D2*
X7305D1*
X6754Y7555D1*
X6833Y7004D1*
G37*
X16535Y3937D2*
D10*
X3937D1*
Y16535D1*
X16535D1*
Y3937D1*
X11183Y12776D2*
Y13406D1*
X9844Y12776D2*
Y13406D1*
D30*
X10986Y12406D3*
X11164Y7072D2*
D10*
Y6442D1*
X12503Y7072D2*
Y6442D1*
D30*
X11361Y7441D3*
X8964Y11968D2*
D10*
X7625D1*
Y14212D1*
X8964D1*
Y11968D1*
X9339Y14249D2*
D72*
X9301Y14268D1*
X9263Y14306D1*
X9244Y14344D1*
Y14421D1*
X9263Y14459D1*
X9301Y14497D1*
X9339Y14517D1*
X9397Y14536D1*
X9493D1*
X9550Y14517D1*
X9588Y14497D1*
X9626Y14459D1*
X9646Y14421D1*
Y14344D1*
X9626Y14306D1*
X9588Y14268D1*
X9550Y14249D1*
X9321Y14125D2*
X9301Y14087D1*
X9244Y14029D1*
X9646D1*
X7174Y14367D2*
X7136Y14386D1*
X7098Y14425D1*
X7079Y14463D1*
Y14539D1*
X7098Y14578D1*
X7136Y14616D1*
X7174Y14635D1*
X7232Y14654D1*
X7328D1*
X7385Y14635D1*
X7423Y14616D1*
X7461Y14578D1*
X7481Y14539D1*
Y14463D1*
X7461Y14425D1*
X7423Y14386D1*
X7385Y14367D1*
X7175Y14224D2*
X7156D1*
X7117Y14205D1*
X7098Y14186D1*
X7079Y14148D1*
Y14071D1*
X7098Y14033D1*
X7117Y14014D1*
X7156Y13995D1*
X7194D1*
X7232Y14014D1*
X7289Y14052D1*
X7481Y14244D1*
Y13976D1*
X6452Y12298D2*
X6471Y12336D1*
X6509Y12375D1*
X6547Y12394D1*
X6624D1*
X6662Y12375D1*
X6700Y12336D1*
X6720Y12298D1*
X6739Y12241D1*
Y12145D1*
X6720Y12088D1*
X6700Y12049D1*
X6662Y12011D1*
X6624Y11992D1*
X6547D1*
X6509Y12011D1*
X6471Y12049D1*
X6452Y12088D1*
X6290Y12393D2*
X6080D1*
X6194Y12240D1*
X6137D1*
X6099Y12221D1*
X6080Y12202D1*
X6060Y12145D1*
Y12107D1*
X6080Y12049D1*
X6118Y12011D1*
X6175Y11992D1*
X6233D1*
X6290Y12011D1*
X6309Y12030D1*
X6328Y12068D1*
X6461Y12923D2*
X6480Y12961D1*
X6519Y13000D1*
X6557Y13019D1*
X6633D1*
X6672Y13000D1*
X6710Y12961D1*
X6729Y12923D1*
X6748Y12866D1*
Y12770D1*
X6729Y12713D1*
X6710Y12674D1*
X6672Y12636D1*
X6633Y12617D1*
X6557D1*
X6519Y12636D1*
X6480Y12674D1*
X6461Y12713D1*
X6146Y12617D2*
Y13018D1*
X6338Y12751D1*
X6051D1*
X5169Y8923D2*
X5188Y8961D1*
X5227Y9000D1*
X5265Y9019D1*
X5341D1*
X5380Y9000D1*
X5418Y8961D1*
X5437Y8923D1*
X5456Y8866D1*
Y8770D1*
X5437Y8713D1*
X5418Y8674D1*
X5380Y8636D1*
X5341Y8617D1*
X5265D1*
X5227Y8636D1*
X5188Y8674D1*
X5169Y8713D1*
X4816Y9018D2*
X5007D1*
X5026Y8846D1*
X5007Y8865D1*
X4950Y8885D1*
X4893D1*
X4835Y8865D1*
X4797Y8827D1*
X4778Y8770D1*
Y8732D1*
X4797Y8674D1*
X4835Y8636D1*
X4893Y8617D1*
X4950D1*
X5007Y8636D1*
X5026Y8655D1*
X5046Y8693D1*
X8801Y8920D2*
Y8519D1*
X8391Y8825D2*
X8410Y8863D1*
X8448Y8901D1*
X8486Y8920D1*
X8563D1*
X8601Y8901D1*
X8639Y8863D1*
X8659Y8825D1*
X8678Y8767D1*
Y8671D1*
X8659Y8614D1*
X8639Y8576D1*
X8601Y8538D1*
X8563Y8519D1*
X8486D1*
X8448Y8538D1*
X8410Y8576D1*
X8391Y8614D1*
X8267Y8843D2*
X8229Y8863D1*
X8171Y8920D1*
Y8519D1*
X5440Y6452D2*
X5268D1*
X5210Y6472D1*
X5191Y6491D1*
X5172Y6529D1*
Y6567D1*
X5191Y6605D1*
X5210Y6625D1*
X5268Y6644D1*
X5440D1*
Y6242D1*
X5306Y6452D2*
X5172Y6242D1*
X5048Y6567D2*
X5010Y6586D1*
X4952Y6643D1*
Y6242D1*
X4177Y7888D2*
Y7716D1*
X4157Y7658D1*
X4138Y7639D1*
X4100Y7620D1*
X4062D1*
X4024Y7639D1*
X4004Y7658D1*
X3985Y7716D1*
Y7888D1*
X4387D1*
X4177Y7754D2*
X4387Y7620D1*
X4081Y7477D2*
X4062D1*
X4024Y7458D1*
X4005Y7439D1*
X3986Y7400D1*
Y7324D1*
X4005Y7286D1*
X4024Y7267D1*
X4062Y7247D1*
X4100D1*
X4139Y7267D1*
X4196Y7305D1*
X4387Y7496D1*
Y7228D1*
X11968Y13026D2*
X11796D1*
X11739Y13046D1*
X11720Y13065D1*
X11701Y13103D1*
Y13141D1*
X11720Y13179D1*
X11739Y13199D1*
X11796Y13218D1*
X11968D1*
Y12816D1*
X11835Y13026D2*
X11701Y12816D1*
X11539Y13217D2*
X11329D1*
X11443Y13064D1*
X11386D1*
X11348Y13045D1*
X11329Y13026D1*
X11309Y12969D1*
Y12931D1*
X11329Y12873D1*
X11367Y12835D1*
X11424Y12816D1*
X11482D1*
X11539Y12835D1*
X11558Y12854D1*
X11577Y12892D1*
X13298Y6769D2*
X13126D1*
X13068Y6789D1*
X13049Y6808D1*
X13030Y6846D1*
Y6884D1*
X13049Y6922D1*
X13068Y6942D1*
X13126Y6961D1*
X13298D1*
Y6559D1*
X13164Y6769D2*
X13030Y6559D1*
X12715D2*
Y6960D1*
X12906Y6693D1*
X12619D1*
X8557Y14672D2*
X8404Y14481D1*
Y14270D1*
X8251Y14672D2*
X8404Y14481D1*
X8128Y14595D2*
X8089Y14615D1*
X8032Y14672D1*
Y14270D1*
M02*
