G04 DipTrace 2.4.0.1*
%INminishift.frontsilk.gto*%
%MOIN*%
%ADD10C,0.0098*%
%ADD12C,0.003*%
%ADD28C,0.004*%
%ADD52C,0.0087*%
%ADD53C,0.0066*%
%FSLAX44Y44*%
G04*
G70*
G90*
G75*
G01*
%LNTopSilk*%
%LPD*%
X5500Y7750D2*
D10*
X3965D1*
Y12750D1*
X5500D1*
Y7750D1*
X16477Y12750D2*
X12500D1*
Y7750D1*
X16477D1*
Y12750D1*
X8888Y14560D2*
D28*
X8855Y14557D1*
X8823Y14547D1*
X8793Y14531D1*
X8766Y14510D1*
X8745Y14483D1*
X8728Y14453D1*
X8719Y14421D1*
X8715Y14387D1*
X8718Y14357D1*
X8726Y14328D1*
X8739Y14301D1*
X8714Y14277D1*
X8691Y14252D1*
X8667Y14228D1*
X8642Y14204D1*
X8619Y14179D1*
X8594Y14155D1*
X8570Y14130D1*
X8547Y14106D1*
X8522Y14082D1*
X8498Y14057D1*
X8474Y14033D1*
X8450Y14008D1*
X8426Y13985D1*
X8402Y13960D1*
X8378Y13936D1*
X8354Y13912D1*
X8329Y13887D1*
X8306Y13863D1*
X8282Y13838D1*
X8257Y13814D1*
X8234Y13790D1*
X8210Y13765D1*
X8185Y13741D1*
X8162Y13717D1*
X8137Y13692D1*
X8113Y13668D1*
X8090Y13643D1*
X8065Y13619D1*
Y13584D1*
Y13550D1*
Y13516D1*
Y13481D1*
Y13447D1*
Y13412D1*
Y13378D1*
Y13343D1*
Y13309D1*
Y13274D1*
Y13240D1*
Y13205D1*
Y13171D1*
Y13136D1*
Y13102D1*
Y13067D1*
Y13033D1*
Y12999D1*
Y12964D1*
Y12930D1*
Y12895D1*
Y12860D1*
Y12826D1*
Y12792D1*
Y12757D1*
Y12723D1*
Y12688D1*
Y12653D1*
Y12619D1*
Y12585D1*
Y12550D1*
Y12516D1*
Y12481D1*
Y12446D1*
X8087Y12420D1*
X8110Y12394D1*
X8132Y12368D1*
X8155Y12342D1*
X8177Y12316D1*
X8199Y12290D1*
X8221Y12264D1*
X8243Y12238D1*
X8266Y12212D1*
X8288Y12186D1*
X8310Y12160D1*
X8333Y12134D1*
X8355Y12107D1*
X8377Y12081D1*
X8399Y12055D1*
X8421Y12029D1*
X8444Y12003D1*
X8466Y11977D1*
X8489Y11951D1*
X8511Y11925D1*
X8533Y11899D1*
X8555Y11873D1*
X8577Y11847D1*
X8600Y11821D1*
X8622Y11795D1*
X8645Y11769D1*
X8667Y11742D1*
X8688Y11716D1*
X8711Y11690D1*
X8733Y11664D1*
X8756Y11638D1*
X8778Y11612D1*
X8800Y11585D1*
X8823Y11559D1*
X8805Y11533D1*
X8788Y11506D1*
X8771Y11479D1*
X8743Y11500D1*
X8714Y11522D1*
X8686Y11542D1*
X8658Y11563D1*
X8630Y11585D1*
X8602Y11606D1*
X8574Y11626D1*
X8546Y11647D1*
X8518Y11669D1*
X8489Y11690D1*
X8461Y11711D1*
X8434Y11732D1*
X8406Y11753D1*
X8377Y11774D1*
X8349Y11795D1*
X8321Y11816D1*
X8293Y11837D1*
X8264Y11858D1*
X8237Y11880D1*
X8209Y11900D1*
X8181Y11921D1*
X8152Y11943D1*
X8124Y11964D1*
X8096Y11985D1*
X8068Y12006D1*
X8040Y12027D1*
X8012Y12048D1*
X7984Y12069D1*
X7956Y12090D1*
X7927Y12111D1*
X7899Y12132D1*
X7872Y12154D1*
X7843Y12174D1*
X7815Y12195D1*
X7806Y12229D1*
X7796Y12262D1*
X7786Y12295D1*
X7777Y12328D1*
X7767Y12362D1*
X7758Y12395D1*
X7749Y12428D1*
X7739Y12462D1*
X7730Y12495D1*
X7720Y12528D1*
X7710Y12562D1*
X7701Y12595D1*
X7691Y12628D1*
X7682Y12662D1*
X7673Y12695D1*
X7662Y12728D1*
X7653Y12762D1*
X7644Y12795D1*
X7634Y12828D1*
X7625Y12862D1*
X7615Y12895D1*
X7605Y12928D1*
X7596Y12962D1*
X7586Y12995D1*
X7577Y13028D1*
X7568Y13062D1*
X7558Y13095D1*
X7548Y13128D1*
X7539Y13162D1*
X7529Y13195D1*
X7520Y13228D1*
X7510Y13262D1*
X7501Y13295D1*
X7491Y13328D1*
X7481Y13362D1*
X7472Y13395D1*
X7463Y13428D1*
X7453Y13462D1*
X7444Y13495D1*
X7434Y13528D1*
X7424Y13561D1*
X7415Y13595D1*
X7405Y13628D1*
X7422Y13658D1*
X7437Y13689D1*
X7454Y13720D1*
X7470Y13750D1*
X7486Y13781D1*
X7502Y13812D1*
X7518Y13842D1*
X7535Y13873D1*
X7550Y13904D1*
X7567Y13935D1*
X7582Y13965D1*
X7599Y13996D1*
X7615Y14027D1*
X7631Y14057D1*
X7648Y14088D1*
X7663Y14119D1*
X7680Y14149D1*
X7706Y14142D1*
X7732Y14140D1*
X7766Y14144D1*
X7799Y14153D1*
X7829Y14170D1*
X7854Y14191D1*
X7876Y14217D1*
X7891Y14247D1*
X7901Y14280D1*
X7905Y14313D1*
X7901Y14347D1*
X7891Y14379D1*
X7876Y14409D1*
X7854Y14436D1*
X7829Y14457D1*
X7799Y14473D1*
X7766Y14483D1*
X7732Y14486D1*
X7698Y14483D1*
X7666Y14473D1*
X7637Y14457D1*
X7610Y14436D1*
X7589Y14409D1*
X7573Y14379D1*
X7563Y14347D1*
X7560Y14313D1*
X7562Y14282D1*
X7571Y14251D1*
X7586Y14223D1*
X7604Y14197D1*
X7584Y14171D1*
X7564Y14143D1*
X7542Y14116D1*
X7522Y14088D1*
X7501Y14060D1*
X7481Y14034D1*
X7460Y14006D1*
X7439Y13979D1*
X7419Y13951D1*
X7397Y13923D1*
X7377Y13897D1*
X7356Y13869D1*
X7336Y13842D1*
X7315Y13814D1*
X7294Y13787D1*
X7274Y13760D1*
X7252Y13732D1*
X7232Y13705D1*
X7212Y13677D1*
X7219Y13644D1*
X7227Y13610D1*
X7234Y13576D1*
X7241Y13543D1*
X7249Y13509D1*
X7256Y13475D1*
X7264Y13442D1*
X7272Y13408D1*
X7279Y13374D1*
X7287Y13340D1*
X7295Y13306D1*
X7302Y13273D1*
X7310Y13239D1*
X7317Y13206D1*
X7325Y13172D1*
X7332Y13138D1*
X7339Y13104D1*
X7347Y13070D1*
X7355Y13037D1*
X7362Y13003D1*
X7370Y12970D1*
X7377Y12936D1*
X7385Y12902D1*
X7393Y12868D1*
X7400Y12834D1*
X7408Y12801D1*
X7415Y12767D1*
X7423Y12734D1*
X7430Y12700D1*
X7437Y12666D1*
X7445Y12632D1*
X7453Y12599D1*
X7460Y12565D1*
X7468Y12531D1*
X7476Y12497D1*
X7483Y12464D1*
X7491Y12430D1*
X7499Y12397D1*
X7506Y12363D1*
X7513Y12329D1*
X7521Y12295D1*
X7528Y12261D1*
X7536Y12228D1*
X7543Y12194D1*
X7551Y12161D1*
X7559Y12127D1*
X7566Y12093D1*
X7593Y12070D1*
X7619Y12048D1*
X7646Y12025D1*
X7673Y12002D1*
X7698Y11980D1*
X7725Y11958D1*
X7752Y11935D1*
X7778Y11912D1*
X7805Y11890D1*
X7831Y11867D1*
X7858Y11844D1*
X7884Y11821D1*
X7911Y11799D1*
X7938Y11777D1*
X7963Y11754D1*
X7990Y11731D1*
X8017Y11709D1*
X8043Y11686D1*
X8070Y11663D1*
X8096Y11641D1*
X8123Y11618D1*
X8149Y11596D1*
X8176Y11573D1*
X8202Y11551D1*
X8228Y11528D1*
X8255Y11505D1*
X8282Y11483D1*
X8308Y11460D1*
X8335Y11437D1*
X8362Y11415D1*
X8387Y11392D1*
X8414Y11370D1*
X8441Y11347D1*
X8467Y11324D1*
X8494Y11302D1*
X8520Y11279D1*
X8547Y11256D1*
X8573Y11234D1*
X8600Y11211D1*
X8592Y11200D1*
X8558Y11204D1*
X8524Y11208D1*
X8489Y11211D1*
X8456Y11215D1*
X8421Y11219D1*
X8387Y11222D1*
X8353Y11226D1*
X8319Y11229D1*
X8285Y11233D1*
X8251Y11236D1*
X8217Y11240D1*
X8183Y11243D1*
X8148Y11247D1*
X8115Y11250D1*
X8080Y11254D1*
X8047Y11257D1*
X8012Y11261D1*
X7978Y11265D1*
X7944Y11268D1*
X7910Y11272D1*
X7876Y11275D1*
X7842Y11279D1*
X7807Y11282D1*
X7773Y11286D1*
X7739Y11289D1*
X7716Y11263D1*
X7694Y11237D1*
X7671Y11210D1*
X7648Y11184D1*
X7626Y11157D1*
X7603Y11130D1*
X7580Y11104D1*
X7557Y11078D1*
X7535Y11051D1*
X7512Y11024D1*
X7489Y10998D1*
X7466Y10971D1*
X7444Y10945D1*
X7421Y10919D1*
X7398Y10892D1*
X7376Y10865D1*
X7353Y10839D1*
X7330Y10812D1*
X7307Y10786D1*
X7285Y10760D1*
X7262Y10733D1*
X7239Y10706D1*
X7216Y10680D1*
X7194Y10654D1*
X7171Y10627D1*
X7148Y10601D1*
X7125Y10574D1*
X7103Y10547D1*
X7080Y10521D1*
X7057Y10495D1*
X7035Y10468D1*
X7011Y10441D1*
X6988Y10415D1*
X6966Y10388D1*
X6943Y10362D1*
X6920Y10336D1*
X6922Y10303D1*
X6924Y10270D1*
X6933Y10237D1*
X6942Y10204D1*
X6951Y10172D1*
X6960Y10139D1*
X6969Y10106D1*
X6978Y10073D1*
X6987Y10040D1*
X6996Y10007D1*
X7005Y9974D1*
X7014Y9940D1*
X7023Y9908D1*
X7032Y9875D1*
X7041Y9842D1*
X7050Y9809D1*
X7059Y9776D1*
X7068Y9743D1*
X7077Y9710D1*
X7085Y9677D1*
X7095Y9644D1*
X7104Y9611D1*
X7113Y9578D1*
X7122Y9545D1*
X7131Y9512D1*
X7100Y9497D1*
X7074Y9475D1*
X7051Y9449D1*
X7035Y9419D1*
X7024Y9386D1*
X7020Y9351D1*
X7024Y9317D1*
X7034Y9285D1*
X7050Y9255D1*
X7071Y9229D1*
X7098Y9208D1*
X7128Y9191D1*
X7160Y9182D1*
X7194Y9179D1*
X7227Y9182D1*
X7259Y9191D1*
X7290Y9208D1*
X7316Y9229D1*
X7338Y9255D1*
X7354Y9285D1*
X7364Y9318D1*
X7367Y9351D1*
X7364Y9384D1*
X7354Y9416D1*
X7339Y9445D1*
X7319Y9470D1*
X7294Y9491D1*
X7266Y9508D1*
X7235Y9519D1*
X7202Y9523D1*
X7198Y9557D1*
X7194Y9590D1*
X7191Y9624D1*
X7187Y9657D1*
X7183Y9691D1*
X7179Y9725D1*
X7175Y9758D1*
X7170Y9792D1*
X7166Y9826D1*
X7162Y9859D1*
X7158Y9892D1*
X7154Y9926D1*
X7151Y9959D1*
X7147Y9993D1*
X7143Y10026D1*
X7139Y10060D1*
X7134Y10094D1*
X7130Y10127D1*
X7126Y10161D1*
X7122Y10195D1*
X7118Y10228D1*
X7114Y10262D1*
X7137Y10288D1*
X7161Y10313D1*
X7183Y10339D1*
X7207Y10365D1*
X7230Y10391D1*
X7253Y10417D1*
X7276Y10442D1*
X7299Y10468D1*
X7322Y10494D1*
X7346Y10520D1*
X7368Y10545D1*
X7392Y10571D1*
X7415Y10597D1*
X7438Y10623D1*
X7461Y10648D1*
X7484Y10674D1*
X7507Y10700D1*
X7530Y10726D1*
X7553Y10752D1*
X7576Y10777D1*
X7600Y10803D1*
X7622Y10829D1*
X7646Y10855D1*
X7669Y10880D1*
X7692Y10906D1*
X7715Y10932D1*
X7738Y10958D1*
X7761Y10983D1*
X7785Y11009D1*
X7807Y11035D1*
X7842Y11029D1*
X7876Y11023D1*
X7910Y11016D1*
X7945Y11010D1*
X7979Y11004D1*
X8013Y10998D1*
X8047Y10992D1*
X8082Y10986D1*
X8116Y10979D1*
X8150Y10973D1*
X8184Y10967D1*
X8219Y10960D1*
X8253Y10954D1*
X8287Y10948D1*
X8322Y10942D1*
X8356Y10936D1*
X8390Y10930D1*
X8424Y10923D1*
X8459Y10917D1*
X8453Y10886D1*
X8446Y10856D1*
X8419Y10835D1*
X8391Y10814D1*
X8363Y10794D1*
X8335Y10773D1*
X8307Y10752D1*
X8279Y10731D1*
X8251Y10711D1*
X8223Y10690D1*
X8195Y10670D1*
X8167Y10649D1*
X8140Y10628D1*
X8112Y10608D1*
X8083Y10587D1*
X8056Y10566D1*
X8028Y10546D1*
X8000Y10525D1*
X7972Y10505D1*
X7944Y10484D1*
X7916Y10463D1*
X7888Y10443D1*
X7861Y10422D1*
X7833Y10402D1*
X7804Y10380D1*
X7777Y10360D1*
X7749Y10339D1*
X7721Y10319D1*
X7693Y10298D1*
X7665Y10277D1*
X7637Y10257D1*
X7609Y10236D1*
X7613Y10201D1*
X7617Y10166D1*
X7621Y10132D1*
X7625Y10096D1*
X7629Y10062D1*
X7632Y10027D1*
X7636Y9992D1*
X7640Y9957D1*
X7644Y9922D1*
X7648Y9887D1*
X7651Y9852D1*
X7655Y9818D1*
X7659Y9782D1*
X7663Y9748D1*
X7667Y9713D1*
X7671Y9678D1*
X7674Y9643D1*
X7678Y9608D1*
X7682Y9573D1*
X7686Y9538D1*
X7690Y9504D1*
X7694Y9468D1*
X7698Y9434D1*
X7702Y9399D1*
X7706Y9364D1*
X7709Y9329D1*
X7713Y9294D1*
X7716Y9260D1*
X7720Y9224D1*
X7724Y9190D1*
X7728Y9155D1*
X7732Y9120D1*
X7736Y9085D1*
X7740Y9050D1*
X7744Y9015D1*
X7748Y8980D1*
X7751Y8946D1*
X7755Y8910D1*
X7759Y8876D1*
X7763Y8841D1*
X7767Y8806D1*
X7791Y8780D1*
X7815Y8755D1*
X7840Y8730D1*
X7863Y8705D1*
X7887Y8679D1*
X7912Y8654D1*
X7936Y8629D1*
X7960Y8603D1*
X7985Y8577D1*
X8009Y8552D1*
X8033Y8527D1*
X8057Y8502D1*
X8081Y8477D1*
X8105Y8451D1*
X8130Y8426D1*
X8154Y8400D1*
X8178Y8375D1*
X8202Y8350D1*
X8226Y8324D1*
X8250Y8299D1*
X8236Y8270D1*
X8227Y8241D1*
X8224Y8208D1*
X8228Y8175D1*
X8237Y8142D1*
X8253Y8112D1*
X8275Y8086D1*
X8301Y8065D1*
X8331Y8049D1*
X8363Y8039D1*
X8397Y8036D1*
X8431Y8039D1*
X8464Y8049D1*
X8493Y8065D1*
X8519Y8086D1*
X8541Y8112D1*
X8557Y8142D1*
X8567Y8175D1*
X8570Y8208D1*
X8567Y8242D1*
X8557Y8274D1*
X8541Y8304D1*
X8519Y8330D1*
X8493Y8352D1*
X8463Y8367D1*
X8431Y8377D1*
X8397Y8381D1*
X8368Y8378D1*
X8340Y8370D1*
X8313Y8359D1*
X8294Y8386D1*
X8275Y8414D1*
X8256Y8442D1*
X8237Y8470D1*
X8217Y8497D1*
X8199Y8525D1*
X8179Y8553D1*
X8160Y8581D1*
X8141Y8609D1*
X8122Y8636D1*
X8103Y8664D1*
X8083Y8692D1*
X8065Y8720D1*
X8046Y8747D1*
X8026Y8775D1*
X8007Y8803D1*
X7988Y8831D1*
X7969Y8858D1*
X7949Y8887D1*
X7948Y8921D1*
X7946Y8955D1*
X7944Y8990D1*
X7942Y9024D1*
X7940Y9058D1*
X7938Y9093D1*
X7936Y9128D1*
X7934Y9161D1*
X7933Y9196D1*
X7930Y9231D1*
X7929Y9264D1*
X7927Y9299D1*
X7925Y9334D1*
X7923Y9368D1*
X7921Y9402D1*
X7920Y9437D1*
X7917Y9471D1*
X7916Y9505D1*
X7913Y9540D1*
X7912Y9575D1*
X7910Y9609D1*
X7908Y9643D1*
X7906Y9678D1*
X7904Y9712D1*
X7902Y9746D1*
X7900Y9781D1*
X7898Y9815D1*
X7897Y9850D1*
X7894Y9884D1*
X7893Y9918D1*
X7891Y9953D1*
X7889Y9987D1*
X7887Y10022D1*
X7885Y10056D1*
X7883Y10091D1*
X7881Y10125D1*
X7913Y10134D1*
X7945Y10143D1*
X7978Y10151D1*
X8010Y10160D1*
X8042Y10169D1*
X8073Y10178D1*
X8105Y10187D1*
X8137Y10195D1*
X8170Y10204D1*
X8202Y10213D1*
X8234Y10222D1*
X8266Y10231D1*
X8298Y10240D1*
X8329Y10248D1*
X8345Y10218D1*
X8361Y10186D1*
X8377Y10155D1*
X8392Y10125D1*
X8407Y10093D1*
X8423Y10062D1*
X8438Y10031D1*
X8454Y10000D1*
X8470Y9969D1*
X8485Y9938D1*
X8500Y9907D1*
X8516Y9876D1*
X8532Y9845D1*
X8547Y9814D1*
X8563Y9783D1*
X8578Y9752D1*
X8594Y9721D1*
X8609Y9690D1*
X8625Y9659D1*
X8641Y9628D1*
X8656Y9597D1*
X8671Y9566D1*
X8687Y9535D1*
X8703Y9504D1*
X8718Y9473D1*
X8733Y9442D1*
X8749Y9411D1*
X8765Y9380D1*
X8780Y9349D1*
X8796Y9318D1*
X8811Y9286D1*
X8826Y9256D1*
X8842Y9224D1*
X8873Y9211D1*
X8905Y9197D1*
X8936Y9183D1*
X8968Y9169D1*
X8999Y9156D1*
X9029Y9142D1*
X9061Y9128D1*
X9092Y9114D1*
X9124Y9100D1*
X9155Y9087D1*
X9186Y9072D1*
X9218Y9058D1*
X9249Y9045D1*
X9280Y9031D1*
X9312Y9017D1*
X9343Y9003D1*
X9374Y8990D1*
X9405Y8976D1*
X9436Y8990D1*
X9468Y9003D1*
X9499Y9017D1*
X9530Y9031D1*
X9562Y9045D1*
X9592Y9058D1*
X9624Y9072D1*
X9655Y9087D1*
X9686Y9100D1*
X9718Y9114D1*
X9748Y9128D1*
X9780Y9142D1*
X9811Y9156D1*
X9842Y9169D1*
X9874Y9183D1*
X9905Y9197D1*
X9936Y9211D1*
X9967Y9224D1*
X9983Y9256D1*
X9998Y9286D1*
X10014Y9318D1*
X10030Y9349D1*
X10045Y9379D1*
X10060Y9411D1*
X10076Y9442D1*
X10092Y9473D1*
X10107Y9504D1*
X10122Y9535D1*
X10138Y9566D1*
X10154Y9597D1*
X10169Y9628D1*
X10185Y9659D1*
X10200Y9690D1*
X10215Y9721D1*
X10231Y9752D1*
X10247Y9783D1*
X10263Y9814D1*
X10277Y9845D1*
X10293Y9876D1*
X10309Y9907D1*
X10324Y9938D1*
X10340Y9969D1*
X10356Y10000D1*
X10371Y10031D1*
X10386Y10062D1*
X10402Y10093D1*
X10418Y10124D1*
X10433Y10155D1*
X10448Y10186D1*
X10464Y10218D1*
X10480Y10248D1*
X10363Y10857D2*
X10357Y10887D1*
X10351Y10917D1*
X10385Y10923D1*
X10419Y10930D1*
X10454Y10936D1*
X10488Y10942D1*
X10522Y10948D1*
X10556Y10954D1*
X10591Y10960D1*
X10625Y10967D1*
X10660Y10973D1*
X10694Y10979D1*
X10728Y10986D1*
X10763Y10992D1*
X10797Y10998D1*
X10832Y11004D1*
X10866Y11010D1*
X10900Y11016D1*
X10934Y11023D1*
X10969Y11029D1*
X11003Y11035D1*
X11026Y11009D1*
X11050Y10983D1*
X11072Y10958D1*
X11096Y10932D1*
X11119Y10906D1*
X11142Y10880D1*
X11165Y10854D1*
X11188Y10829D1*
X11211Y10803D1*
X11234Y10777D1*
X11257Y10751D1*
X11280Y10726D1*
X11304Y10700D1*
X11326Y10674D1*
X11350Y10648D1*
X11372Y10623D1*
X11396Y10597D1*
X11419Y10571D1*
X11442Y10545D1*
X11465Y10520D1*
X11489Y10494D1*
X11511Y10468D1*
X11535Y10442D1*
X11557Y10417D1*
X11581Y10391D1*
X11604Y10365D1*
X11626Y10339D1*
X11650Y10313D1*
X11673Y10288D1*
X11696Y10262D1*
X11692Y10228D1*
X11688Y10195D1*
X11684Y10161D1*
X11680Y10127D1*
X11676Y10094D1*
X11672Y10060D1*
X11668Y10026D1*
X11664Y9993D1*
X11660Y9959D1*
X11656Y9926D1*
X11652Y9892D1*
X11648Y9859D1*
X11644Y9826D1*
X11640Y9792D1*
X11636Y9758D1*
X11632Y9725D1*
X11628Y9691D1*
X11624Y9657D1*
X11620Y9624D1*
X11616Y9590D1*
X11612Y9557D1*
X11608Y9523D1*
X11576Y9519D1*
X11545Y9508D1*
X11516Y9492D1*
X11492Y9470D1*
X11471Y9445D1*
X11456Y9416D1*
X11447Y9384D1*
X11444Y9351D1*
X11447Y9318D1*
X11457Y9285D1*
X11473Y9255D1*
X11495Y9229D1*
X11521Y9208D1*
X11550Y9191D1*
X11583Y9182D1*
X11617Y9179D1*
X11651Y9182D1*
X11683Y9191D1*
X11713Y9208D1*
X11739Y9229D1*
X11760Y9256D1*
X11776Y9286D1*
X11786Y9318D1*
X11789Y9351D1*
X11786Y9386D1*
X11775Y9419D1*
X11759Y9449D1*
X11737Y9475D1*
X11710Y9497D1*
X11680Y9512D1*
X11688Y9545D1*
X11698Y9578D1*
X11706Y9611D1*
X11716Y9644D1*
X11724Y9677D1*
X11734Y9710D1*
X11742Y9743D1*
X11752Y9776D1*
X11761Y9809D1*
X11770Y9842D1*
X11779Y9874D1*
X11788Y9907D1*
X11797Y9940D1*
X11806Y9974D1*
X11815Y10007D1*
X11824Y10040D1*
X11833Y10073D1*
X11842Y10106D1*
X11851Y10139D1*
X11860Y10172D1*
X11869Y10204D1*
X11878Y10237D1*
X11887Y10270D1*
X11888Y10303D1*
X11890Y10336D1*
X11867Y10362D1*
X11844Y10388D1*
X11822Y10415D1*
X11799Y10442D1*
X11776Y10468D1*
X11753Y10495D1*
X11731Y10521D1*
X11708Y10547D1*
X11685Y10574D1*
X11663Y10601D1*
X11640Y10627D1*
X11617Y10654D1*
X11594Y10680D1*
X11572Y10706D1*
X11549Y10733D1*
X11526Y10760D1*
X11503Y10786D1*
X11481Y10812D1*
X11458Y10839D1*
X11435Y10865D1*
X11412Y10892D1*
X11390Y10919D1*
X11367Y10945D1*
X11344Y10971D1*
X11322Y10998D1*
X11299Y11024D1*
X11276Y11051D1*
X11253Y11078D1*
X11231Y11104D1*
X11208Y11130D1*
X11185Y11157D1*
X11162Y11184D1*
X11140Y11210D1*
X11117Y11237D1*
X11094Y11263D1*
X11071Y11289D1*
X11037Y11286D1*
X11003Y11282D1*
X10969Y11279D1*
X10935Y11275D1*
X10901Y11272D1*
X10866Y11268D1*
X10832Y11265D1*
X10798Y11261D1*
X10764Y11257D1*
X10730Y11254D1*
X10695Y11250D1*
X10662Y11247D1*
X10627Y11243D1*
X10593Y11240D1*
X10559Y11236D1*
X10525Y11233D1*
X10491Y11229D1*
X10456Y11226D1*
X10422Y11222D1*
X10388Y11219D1*
X10354Y11215D1*
X10320Y11211D1*
X10286Y11208D1*
X10252Y11204D1*
X10217Y11200D1*
X10211Y11211D1*
X10237Y11234D1*
X10264Y11256D1*
X10290Y11279D1*
X10317Y11302D1*
X10343Y11325D1*
X10370Y11347D1*
X10397Y11370D1*
X10422Y11392D1*
X10449Y11415D1*
X10476Y11437D1*
X10502Y11460D1*
X10529Y11483D1*
X10555Y11505D1*
X10582Y11528D1*
X10608Y11551D1*
X10635Y11573D1*
X10662Y11596D1*
X10687Y11618D1*
X10714Y11641D1*
X10741Y11663D1*
X10767Y11686D1*
X10794Y11709D1*
X10821Y11731D1*
X10847Y11754D1*
X10873Y11777D1*
X10900Y11799D1*
X10926Y11821D1*
X10953Y11844D1*
X10979Y11867D1*
X11006Y11890D1*
X11032Y11912D1*
X11059Y11935D1*
X11086Y11958D1*
X11112Y11980D1*
X11138Y12002D1*
X11165Y12025D1*
X11191Y12048D1*
X11218Y12070D1*
X11245Y12093D1*
X11252Y12127D1*
X11260Y12161D1*
X11267Y12194D1*
X11275Y12228D1*
X11282Y12261D1*
X11289Y12295D1*
X11297Y12329D1*
X11305Y12363D1*
X11312Y12397D1*
X11320Y12430D1*
X11328Y12464D1*
X11335Y12497D1*
X11343Y12531D1*
X11350Y12565D1*
X11358Y12599D1*
X11365Y12633D1*
X11372Y12666D1*
X11380Y12700D1*
X11388Y12734D1*
X11395Y12767D1*
X11403Y12801D1*
X11410Y12835D1*
X11418Y12868D1*
X11426Y12902D1*
X11433Y12936D1*
X11441Y12970D1*
X11449Y13003D1*
X11456Y13037D1*
X11463Y13070D1*
X11470Y13104D1*
X11478Y13138D1*
X11486Y13172D1*
X11493Y13206D1*
X11501Y13239D1*
X11509Y13273D1*
X11516Y13306D1*
X11524Y13340D1*
X11532Y13374D1*
X11539Y13408D1*
X11547Y13442D1*
X11554Y13475D1*
X11561Y13509D1*
X11569Y13543D1*
X11576Y13576D1*
X11584Y13610D1*
X11592Y13644D1*
X11599Y13677D1*
X11579Y13705D1*
X11557Y13732D1*
X11537Y13760D1*
X11517Y13787D1*
X11496Y13814D1*
X11475Y13842D1*
X11454Y13869D1*
X11434Y13897D1*
X11412Y13924D1*
X11392Y13951D1*
X11372Y13979D1*
X11351Y14006D1*
X11330Y14034D1*
X11309Y14060D1*
X11289Y14088D1*
X11268Y14116D1*
X11247Y14143D1*
X11227Y14171D1*
X11206Y14197D1*
X11225Y14223D1*
X11239Y14251D1*
X11248Y14282D1*
X11251Y14313D1*
X11248Y14347D1*
X11238Y14379D1*
X11222Y14409D1*
X11200Y14436D1*
X11174Y14457D1*
X11144Y14474D1*
X11111Y14483D1*
X11078Y14486D1*
X11044Y14483D1*
X11012Y14473D1*
X10982Y14457D1*
X10956Y14436D1*
X10935Y14409D1*
X10919Y14379D1*
X10909Y14347D1*
X10906Y14313D1*
X10909Y14280D1*
X10919Y14247D1*
X10935Y14217D1*
X10956Y14191D1*
X10982Y14170D1*
X11012Y14153D1*
X11044Y14144D1*
X11078Y14141D1*
X11104Y14143D1*
X11131Y14149D1*
X11147Y14119D1*
X11163Y14088D1*
X11180Y14057D1*
X11195Y14027D1*
X11212Y13996D1*
X11227Y13965D1*
X11244Y13935D1*
X11260Y13904D1*
X11276Y13873D1*
X11293Y13842D1*
X11308Y13812D1*
X11325Y13781D1*
X11340Y13750D1*
X11357Y13720D1*
X11373Y13689D1*
X11389Y13658D1*
X11405Y13628D1*
X11396Y13595D1*
X11387Y13561D1*
X11376Y13528D1*
X11367Y13495D1*
X11358Y13462D1*
X11348Y13428D1*
X11339Y13395D1*
X11329Y13362D1*
X11319Y13329D1*
X11310Y13295D1*
X11300Y13262D1*
X11291Y13229D1*
X11282Y13195D1*
X11272Y13162D1*
X11262Y13129D1*
X11253Y13095D1*
X11243Y13062D1*
X11234Y13029D1*
X11224Y12995D1*
X11215Y12962D1*
X11205Y12929D1*
X11195Y12895D1*
X11186Y12862D1*
X11177Y12829D1*
X11167Y12795D1*
X11158Y12762D1*
X11148Y12729D1*
X11138Y12695D1*
X11129Y12662D1*
X11119Y12629D1*
X11110Y12595D1*
X11100Y12562D1*
X11090Y12529D1*
X11081Y12495D1*
X11071Y12462D1*
X11062Y12429D1*
X11053Y12395D1*
X11043Y12362D1*
X11034Y12329D1*
X11024Y12295D1*
X11014Y12262D1*
X11005Y12229D1*
X10995Y12195D1*
X10967Y12175D1*
X10939Y12154D1*
X10911Y12132D1*
X10883Y12111D1*
X10854Y12090D1*
X10827Y12069D1*
X10799Y12048D1*
X10770Y12027D1*
X10742Y12006D1*
X10714Y11985D1*
X10686Y11964D1*
X10658Y11943D1*
X10629Y11921D1*
X10601Y11900D1*
X10574Y11880D1*
X10545Y11858D1*
X10517Y11837D1*
X10489Y11816D1*
X10461Y11795D1*
X10433Y11774D1*
X10404Y11753D1*
X10376Y11732D1*
X10349Y11711D1*
X10321Y11690D1*
X10292Y11669D1*
X10264Y11647D1*
X10236Y11627D1*
X10208Y11606D1*
X10179Y11585D1*
X10151Y11563D1*
X10123Y11542D1*
X10095Y11522D1*
X10067Y11500D1*
X10039Y11479D1*
X10022Y11506D1*
X10005Y11533D1*
X9988Y11559D1*
X10010Y11585D1*
X10033Y11612D1*
X10055Y11638D1*
X10078Y11664D1*
X10099Y11690D1*
X10121Y11716D1*
X10144Y11742D1*
X10166Y11769D1*
X10189Y11795D1*
X10211Y11821D1*
X10233Y11847D1*
X10255Y11873D1*
X10277Y11899D1*
X10300Y11925D1*
X10322Y11951D1*
X10345Y11977D1*
X10367Y12003D1*
X10389Y12029D1*
X10411Y12055D1*
X10433Y12081D1*
X10456Y12107D1*
X10478Y12134D1*
X10500Y12160D1*
X10523Y12186D1*
X10545Y12212D1*
X10567Y12238D1*
X10589Y12264D1*
X10611Y12290D1*
X10634Y12316D1*
X10656Y12342D1*
X10679Y12368D1*
X10701Y12394D1*
X10723Y12420D1*
X10745Y12446D1*
Y12481D1*
Y12516D1*
Y12550D1*
Y12585D1*
Y12619D1*
Y12653D1*
Y12688D1*
Y12723D1*
Y12757D1*
Y12792D1*
Y12826D1*
Y12860D1*
Y12895D1*
Y12930D1*
Y12964D1*
Y12999D1*
Y13033D1*
Y13067D1*
Y13102D1*
Y13136D1*
Y13171D1*
Y13205D1*
Y13240D1*
Y13274D1*
Y13309D1*
Y13343D1*
Y13378D1*
Y13412D1*
Y13447D1*
Y13481D1*
Y13516D1*
Y13550D1*
Y13584D1*
Y13619D1*
X10721Y13643D1*
X10697Y13668D1*
X10673Y13692D1*
X10649Y13717D1*
X10625Y13741D1*
X10601Y13765D1*
X10577Y13790D1*
X10553Y13814D1*
X10529Y13838D1*
X10505Y13863D1*
X10480Y13887D1*
X10457Y13912D1*
X10433Y13936D1*
X10408Y13960D1*
X10385Y13985D1*
X10361Y14009D1*
X10336Y14033D1*
X10313Y14057D1*
X10288Y14082D1*
X10264Y14106D1*
X10241Y14130D1*
X10216Y14155D1*
X10192Y14179D1*
X10168Y14204D1*
X10144Y14228D1*
X10120Y14252D1*
X10096Y14277D1*
X10072Y14301D1*
X10085Y14328D1*
X10092Y14357D1*
X10095Y14387D1*
X10092Y14421D1*
X10082Y14453D1*
X10066Y14483D1*
X10045Y14510D1*
X10018Y14531D1*
X9988Y14547D1*
X9956Y14557D1*
X9922Y14560D1*
X9889Y14557D1*
X9856Y14547D1*
X9826Y14531D1*
X9800Y14509D1*
X9779Y14483D1*
X9763Y14453D1*
X9754Y14421D1*
X9750Y14387D1*
X9754Y14353D1*
X9763Y14321D1*
X9779Y14291D1*
X9800Y14265D1*
X9827Y14243D1*
X9856Y14227D1*
X9889Y14218D1*
X9922Y14214D1*
X9949Y14216D1*
X9975Y14223D1*
X9999Y14233D1*
X10020Y14205D1*
X10039Y14177D1*
X10059Y14149D1*
X10080Y14121D1*
X10099Y14093D1*
X10120Y14065D1*
X10139Y14037D1*
X10160Y14009D1*
X10179Y13981D1*
X10200Y13953D1*
X10220Y13925D1*
X10240Y13898D1*
X10260Y13869D1*
X10280Y13842D1*
X10300Y13813D1*
X10321Y13786D1*
X10340Y13757D1*
X10361Y13730D1*
X10380Y13702D1*
X10400Y13674D1*
X10421Y13646D1*
X10440Y13617D1*
X10461Y13590D1*
X10480Y13561D1*
X10479Y13527D1*
X10477Y13491D1*
X10475Y13456D1*
X10473Y13421D1*
X10472Y13386D1*
X10469Y13351D1*
X10468Y13316D1*
X10466Y13281D1*
X10464Y13245D1*
X10462Y13210D1*
X10460Y13175D1*
X10458Y13140D1*
X10457Y13105D1*
X10455Y13070D1*
X10453Y13034D1*
X10451Y13000D1*
X10449Y12964D1*
X10448Y12929D1*
X10446Y12894D1*
X10444Y12859D1*
X10442Y12823D1*
X10440Y12789D1*
X10438Y12753D1*
X10437Y12718D1*
X10434Y12683D1*
X10433Y12648D1*
X10431Y12612D1*
X10429Y12578D1*
X10427Y12542D1*
X10426Y12507D1*
X10423Y12472D1*
X10400Y12446D1*
X10375Y12420D1*
X10352Y12395D1*
X10328Y12369D1*
X10304Y12344D1*
X10280Y12318D1*
X10256Y12292D1*
X10232Y12267D1*
X10208Y12241D1*
X10184Y12216D1*
X10161Y12190D1*
X10136Y12164D1*
X10113Y12139D1*
X10088Y12113D1*
X10065Y12087D1*
X10041Y12061D1*
X10017Y12035D1*
X10001Y12065D1*
X9984Y12095D1*
X9969Y12125D1*
X9952Y12155D1*
X9936Y12185D1*
X9920Y12215D1*
X9904Y12245D1*
X9888Y12276D1*
X9871Y12305D1*
X9855Y12335D1*
X9839Y12365D1*
X9823Y12395D1*
X9822Y12401D1*
X9787D1*
X9752D1*
X9718D1*
X9683D1*
X9649D1*
X9614D1*
X9580D1*
X9544D1*
X9510D1*
X9476D1*
X9441D1*
X9407D1*
X9372D1*
X9337D1*
X9302D1*
X9268D1*
X9233D1*
X9199D1*
X9164D1*
X9129D1*
X9095D1*
X9060D1*
X9026D1*
X8991D1*
X8975Y12371D1*
X8958Y12340D1*
X8942Y12310D1*
X8925Y12279D1*
X8909Y12249D1*
X8892Y12218D1*
X8876Y12187D1*
X8859Y12157D1*
X8843Y12126D1*
X8826Y12096D1*
X8810Y12065D1*
X8794Y12035D1*
X8770Y12061D1*
X8746Y12086D1*
X8722Y12112D1*
X8698Y12138D1*
X8674Y12163D1*
X8650Y12189D1*
X8627Y12215D1*
X8602Y12240D1*
X8579Y12266D1*
X8554Y12292D1*
X8531Y12317D1*
X8507Y12343D1*
X8483Y12369D1*
X8459Y12395D1*
X8435Y12420D1*
X8411Y12446D1*
X8387Y12472D1*
X8385Y12507D1*
X8384Y12542D1*
X8381Y12578D1*
X8380Y12612D1*
X8378Y12648D1*
X8376Y12683D1*
X8374Y12718D1*
X8373Y12753D1*
X8370Y12789D1*
X8369Y12823D1*
X8367Y12859D1*
X8365Y12894D1*
X8363Y12929D1*
X8361Y12964D1*
X8359Y13000D1*
X8358Y13034D1*
X8355Y13070D1*
X8354Y13105D1*
X8352Y13140D1*
X8350Y13175D1*
X8348Y13210D1*
X8347Y13245D1*
X8344Y13281D1*
X8343Y13316D1*
X8341Y13351D1*
X8339Y13386D1*
X8337Y13421D1*
X8335Y13456D1*
X8333Y13491D1*
X8332Y13527D1*
X8329Y13561D1*
X8350Y13590D1*
X8370Y13618D1*
X8390Y13646D1*
X8410Y13674D1*
X8430Y13702D1*
X8450Y13730D1*
X8471Y13757D1*
X8490Y13786D1*
X8511Y13813D1*
X8530Y13842D1*
X8551Y13869D1*
X8571Y13898D1*
X8591Y13925D1*
X8611Y13953D1*
X8630Y13981D1*
X8651Y14009D1*
X8671Y14038D1*
X8691Y14065D1*
X8711Y14093D1*
X8731Y14121D1*
X8751Y14149D1*
X8772Y14177D1*
X8791Y14205D1*
X8812Y14233D1*
X8836Y14223D1*
X8862Y14216D1*
X8888Y14214D1*
X8922Y14218D1*
X8954Y14227D1*
X8984Y14243D1*
X9011Y14265D1*
X9032Y14291D1*
X9048Y14321D1*
X9057Y14353D1*
X9060Y14387D1*
X9057Y14421D1*
X9048Y14453D1*
X9032Y14483D1*
X9011Y14510D1*
X8984Y14531D1*
X8954Y14547D1*
X8922Y14557D1*
X8888Y14560D1*
X10473Y10248D2*
X10506Y10240D1*
X10538Y10231D1*
X10571Y10222D1*
X10604Y10213D1*
X10636Y10204D1*
X10669Y10195D1*
X10701Y10187D1*
X10734Y10178D1*
X10767Y10169D1*
X10799Y10160D1*
X10832Y10151D1*
X10865Y10143D1*
X10897Y10134D1*
X10930Y10125D1*
X10927Y10091D1*
X10926Y10056D1*
X10923Y10022D1*
X10922Y9987D1*
X10919Y9953D1*
X10918Y9918D1*
X10916Y9884D1*
X10914Y9850D1*
X10912Y9815D1*
X10910Y9781D1*
X10908Y9746D1*
X10906Y9712D1*
X10905Y9678D1*
X10903Y9643D1*
X10901Y9609D1*
X10899Y9575D1*
X10897Y9540D1*
X10895Y9505D1*
X10894Y9471D1*
X10891Y9437D1*
X10890Y9402D1*
X10887Y9368D1*
X10886Y9334D1*
X10883Y9299D1*
X10882Y9265D1*
X10880Y9231D1*
X10878Y9196D1*
X10876Y9161D1*
X10874Y9128D1*
X10872Y9093D1*
X10870Y9058D1*
X10868Y9024D1*
X10867Y8990D1*
X10865Y8955D1*
X10863Y8921D1*
X10861Y8887D1*
X10842Y8858D1*
X10823Y8831D1*
X10803Y8803D1*
X10785Y8775D1*
X10765Y8747D1*
X10746Y8720D1*
X10727Y8692D1*
X10708Y8664D1*
X10689Y8636D1*
X10669Y8609D1*
X10651Y8581D1*
X10631Y8553D1*
X10612Y8525D1*
X10593Y8497D1*
X10574Y8470D1*
X10555Y8442D1*
X10535Y8414D1*
X10516Y8386D1*
X10497Y8359D1*
X10471Y8370D1*
X10443Y8378D1*
X10414Y8381D1*
X10380Y8377D1*
X10347Y8368D1*
X10317Y8352D1*
X10292Y8330D1*
X10270Y8304D1*
X10254Y8274D1*
X10244Y8242D1*
X10241Y8208D1*
X10244Y8175D1*
X10254Y8142D1*
X10270Y8112D1*
X10292Y8086D1*
X10317Y8065D1*
X10347Y8049D1*
X10380Y8039D1*
X10414Y8036D1*
X10448Y8039D1*
X10480Y8049D1*
X10509Y8065D1*
X10535Y8086D1*
X10556Y8113D1*
X10572Y8143D1*
X10582Y8175D1*
X10585Y8208D1*
X10582Y8241D1*
X10575Y8270D1*
X10560Y8299D1*
X10584Y8325D1*
X10608Y8350D1*
X10633Y8375D1*
X10657Y8400D1*
X10681Y8426D1*
X10705Y8451D1*
X10730Y8477D1*
X10754Y8502D1*
X10778Y8527D1*
X10802Y8552D1*
X10826Y8578D1*
X10850Y8603D1*
X10875Y8629D1*
X10899Y8654D1*
X10923Y8679D1*
X10947Y8705D1*
X10971Y8730D1*
X10995Y8755D1*
X11020Y8780D1*
X11044Y8806D1*
X11048Y8841D1*
X11052Y8876D1*
X11055Y8910D1*
X11059Y8946D1*
X11063Y8980D1*
X11067Y9015D1*
X11071Y9050D1*
X11075Y9085D1*
X11079Y9120D1*
X11082Y9155D1*
X11086Y9190D1*
X11090Y9224D1*
X11093Y9260D1*
X11097Y9294D1*
X11101Y9329D1*
X11105Y9364D1*
X11109Y9399D1*
X11113Y9434D1*
X11117Y9469D1*
X11121Y9504D1*
X11125Y9538D1*
X11129Y9574D1*
X11133Y9608D1*
X11136Y9643D1*
X11140Y9678D1*
X11144Y9713D1*
X11148Y9748D1*
X11151Y9783D1*
X11155Y9818D1*
X11159Y9852D1*
X11163Y9888D1*
X11167Y9922D1*
X11171Y9957D1*
X11174Y9992D1*
X11178Y10027D1*
X11182Y10062D1*
X11186Y10096D1*
X11190Y10132D1*
X11194Y10166D1*
X11198Y10201D1*
X11202Y10236D1*
X11173Y10257D1*
X11145Y10277D1*
X11118Y10299D1*
X11090Y10319D1*
X11061Y10339D1*
X11034Y10360D1*
X11006Y10381D1*
X10977Y10402D1*
X10950Y10422D1*
X10922Y10443D1*
X10894Y10464D1*
X10866Y10484D1*
X10838Y10505D1*
X10810Y10526D1*
X10782Y10546D1*
X10754Y10567D1*
X10727Y10587D1*
X10698Y10609D1*
X10670Y10629D1*
X10643Y10650D1*
X10614Y10671D1*
X10586Y10691D1*
X10559Y10712D1*
X10531Y10732D1*
X10502Y10753D1*
X10475Y10774D1*
X10447Y10794D1*
X10419Y10816D1*
X10391Y10836D1*
X10363Y10857D1*
X8888Y14486D2*
X8918Y14481D1*
X8946Y14467D1*
X8968Y14445D1*
X8982Y14418D1*
X8988Y14387D1*
X8982Y14356D1*
X8968Y14328D1*
X8946Y14306D1*
X8918Y14292D1*
X8888Y14287D1*
X8856Y14292D1*
X8829Y14306D1*
X8807Y14329D1*
X8793Y14356D1*
X8788Y14387D1*
X8793Y14418D1*
X8807Y14445D1*
X8829Y14467D1*
X8857Y14481D1*
X8888Y14486D1*
X9922D2*
X9953Y14481D1*
X9981Y14467D1*
X10003Y14445D1*
X10017Y14418D1*
X10023Y14387D1*
X10017Y14356D1*
X10003Y14328D1*
X9981Y14306D1*
X9953Y14292D1*
X9922Y14287D1*
X9891Y14292D1*
X9864Y14306D1*
X9842Y14329D1*
X9827Y14356D1*
X9823Y14387D1*
X9827Y14418D1*
X9842Y14445D1*
X9864Y14467D1*
X9892Y14481D1*
X9922Y14486D1*
X7732Y14412D2*
X7764Y14408D1*
X7791Y14393D1*
X7813Y14371D1*
X7827Y14344D1*
X7832Y14313D1*
X7827Y14282D1*
X7813Y14255D1*
X7791Y14233D1*
X7764Y14219D1*
X7732Y14214D1*
X7702Y14219D1*
X7674Y14233D1*
X7651Y14255D1*
X7637Y14282D1*
X7633Y14313D1*
X7637Y14344D1*
X7651Y14372D1*
X7674Y14393D1*
X7702Y14408D1*
X7732Y14412D1*
X11078D2*
X11109Y14408D1*
X11137Y14393D1*
X11159Y14372D1*
X11173Y14344D1*
X11178Y14313D1*
X11173Y14282D1*
X11159Y14255D1*
X11137Y14233D1*
X11109Y14219D1*
X11078Y14214D1*
X11047Y14219D1*
X11020Y14233D1*
X10998Y14255D1*
X10984Y14282D1*
X10979Y14313D1*
X10984Y14344D1*
X10998Y14371D1*
X11020Y14393D1*
X11047Y14408D1*
X11078Y14412D1*
X9188Y11324D2*
X9213D1*
X9238D1*
X9271D1*
X9305D1*
X9338D1*
X9372D1*
X9405D1*
X9439D1*
X9472D1*
X9506D1*
X9539D1*
X9573D1*
X9598D1*
X9622D1*
Y11295D1*
Y11267D1*
Y11237D1*
X9598D1*
X9573D1*
Y11206D1*
Y11174D1*
Y11142D1*
Y11111D1*
Y11078D1*
Y11047D1*
Y11015D1*
Y10983D1*
Y10951D1*
X9587Y10919D1*
X9599Y10886D1*
X9612Y10853D1*
X9624Y10820D1*
X9638Y10787D1*
X9650Y10755D1*
X9663Y10722D1*
X9675Y10689D1*
X9689Y10657D1*
X9701Y10624D1*
X9714Y10591D1*
X9726Y10558D1*
X9739Y10525D1*
X9752Y10492D1*
X9765Y10460D1*
X9777Y10427D1*
X9790Y10395D1*
X9803Y10362D1*
X9816Y10328D1*
X9828Y10296D1*
X9841Y10263D1*
X9854Y10230D1*
X9867Y10198D1*
X9879Y10165D1*
X9892Y10132D1*
X9905Y10099D1*
X9918Y10066D1*
X9930Y10034D1*
X9943Y10001D1*
X9955Y9968D1*
X9969Y9935D1*
X9954Y9903D1*
X9940Y9872D1*
X9925Y9841D1*
X9911Y9809D1*
X9896Y9777D1*
X9882Y9745D1*
X9867Y9714D1*
X9833D1*
X9798D1*
X9765D1*
X9730D1*
X9696D1*
X9662D1*
X9628D1*
X9593D1*
X9559D1*
X9525D1*
X9490D1*
X9457D1*
X9422D1*
X9388D1*
X9354D1*
X9320D1*
X9286D1*
X9251D1*
X9217D1*
X9183D1*
X9149D1*
X9115D1*
X9080D1*
X9046D1*
X9012D1*
X8978D1*
X8943D1*
X8929Y9745D1*
X8914Y9777D1*
X8900Y9809D1*
X8886Y9841D1*
X8871Y9872D1*
X8857Y9903D1*
X8842Y9935D1*
X8855Y9968D1*
X8868Y10001D1*
X8881Y10033D1*
X8893Y10066D1*
X8906Y10099D1*
X8918Y10132D1*
X8931Y10165D1*
X8944Y10198D1*
X8957Y10230D1*
X8969Y10263D1*
X8982Y10295D1*
X8995Y10328D1*
X9008Y10362D1*
X9020Y10394D1*
X9033Y10427D1*
X9046Y10460D1*
X9058Y10492D1*
X9071Y10525D1*
X9084Y10558D1*
X9097Y10591D1*
X9109Y10624D1*
X9122Y10657D1*
X9135Y10689D1*
X9148Y10722D1*
X9160Y10754D1*
X9173Y10787D1*
X9185Y10820D1*
X9199Y10853D1*
X9211Y10886D1*
X9224Y10919D1*
X9236Y10951D1*
Y10983D1*
Y11015D1*
Y11047D1*
Y11078D1*
Y11111D1*
Y11142D1*
Y11174D1*
Y11206D1*
Y11237D1*
X9212D1*
X9188D1*
Y11267D1*
Y11295D1*
Y11324D1*
X7194Y9450D2*
X7224Y9445D1*
X7252Y9431D1*
X7274Y9410D1*
X7289Y9382D1*
X7294Y9351D1*
X7289Y9320D1*
X7274Y9293D1*
X7252Y9271D1*
X7224Y9257D1*
X7194Y9252D1*
X7163Y9257D1*
X7136Y9271D1*
X7114Y9293D1*
X7100Y9320D1*
X7095Y9351D1*
X7100Y9382D1*
X7114Y9410D1*
X7136Y9431D1*
X7163Y9445D1*
X7194Y9450D1*
X11617D2*
X11648Y9445D1*
X11675Y9431D1*
X11697Y9410D1*
X11711Y9382D1*
X11716Y9351D1*
X11711Y9320D1*
X11697Y9293D1*
X11675Y9271D1*
X11648Y9257D1*
X11617Y9252D1*
X11586Y9257D1*
X11558Y9271D1*
X11536Y9293D1*
X11521Y9320D1*
X11517Y9351D1*
X11521Y9382D1*
X11536Y9410D1*
X11558Y9432D1*
X11586Y9445D1*
X11617Y9450D1*
X8397Y8307D2*
X8427Y8303D1*
X8456Y8289D1*
X8478Y8267D1*
X8493Y8240D1*
X8497Y8208D1*
X8493Y8178D1*
X8478Y8150D1*
X8456Y8128D1*
X8428Y8113D1*
X8397Y8108D1*
X8366Y8113D1*
X8339Y8128D1*
X8317Y8150D1*
X8303Y8178D1*
X8298Y8208D1*
X8303Y8239D1*
X8317Y8267D1*
X8339Y8289D1*
X8366Y8303D1*
X8397Y8307D1*
X10414D2*
X10444Y8303D1*
X10472Y8289D1*
X10494Y8267D1*
X10508Y8239D1*
X10513Y8208D1*
X10508Y8178D1*
X10494Y8150D1*
X10472Y8128D1*
X10444Y8113D1*
X10414Y8108D1*
X10382Y8113D1*
X10355Y8128D1*
X10332Y8150D1*
X10318Y8178D1*
X10313Y8208D1*
X10318Y8240D1*
X10332Y8267D1*
X10355Y8289D1*
X10382Y8303D1*
X10414Y8307D1*
X6038Y7401D2*
X6063Y7398D1*
X6088Y7391D1*
X6110Y7380D1*
X6129Y7364D1*
X6145Y7344D1*
X6157Y7322D1*
X6164Y7298D1*
X6167Y7273D1*
Y7239D1*
Y7204D1*
Y7170D1*
Y7136D1*
Y7101D1*
Y7067D1*
Y7033D1*
Y6999D1*
Y6964D1*
Y6930D1*
Y6896D1*
Y6862D1*
Y6827D1*
Y6793D1*
Y6759D1*
Y6725D1*
Y6690D1*
X6140D1*
X6113D1*
X6087D1*
X6060D1*
Y6722D1*
Y6752D1*
Y6784D1*
Y6815D1*
Y6846D1*
Y6877D1*
Y6908D1*
Y6939D1*
X6027D1*
X5994D1*
X5961D1*
X5928D1*
X5894D1*
X5861D1*
X5828D1*
X5794D1*
X5762D1*
X5729D1*
X5695D1*
X5662D1*
X5629D1*
X5595D1*
X5562D1*
Y6908D1*
Y6877D1*
Y6846D1*
Y6815D1*
Y6784D1*
Y6752D1*
Y6722D1*
Y6690D1*
X5536D1*
X5509D1*
X5482D1*
X5456D1*
Y6725D1*
Y6759D1*
Y6793D1*
Y6827D1*
Y6862D1*
Y6896D1*
Y6930D1*
Y6964D1*
Y6999D1*
Y7033D1*
Y7067D1*
Y7101D1*
Y7136D1*
Y7170D1*
Y7204D1*
Y7239D1*
Y7273D1*
X5458Y7298D1*
X5466Y7322D1*
X5478Y7344D1*
X5493Y7364D1*
X5512Y7380D1*
X5534Y7391D1*
X5558Y7398D1*
X5584Y7401D1*
X5619D1*
X5654D1*
X5689D1*
X5724D1*
X5758D1*
X5794D1*
X5829D1*
X5863D1*
X5899D1*
X5933D1*
X5968D1*
X6004D1*
X6038D1*
X6060Y7046D2*
Y7078D1*
Y7110D1*
Y7143D1*
Y7175D1*
Y7208D1*
Y7240D1*
Y7273D1*
X6053Y7288D1*
X6038Y7295D1*
X6004D1*
X5968D1*
X5933D1*
X5899D1*
X5863D1*
X5829D1*
X5794D1*
X5759D1*
X5724D1*
X5689D1*
X5654D1*
X5619D1*
X5584D1*
X5569Y7288D1*
X5562Y7273D1*
Y7240D1*
Y7208D1*
Y7176D1*
Y7143D1*
Y7110D1*
Y7078D1*
Y7046D1*
X5595D1*
X5629D1*
X5662D1*
X5695D1*
X5729D1*
X5762D1*
X5794D1*
X5828D1*
X5861D1*
X5894D1*
X5928D1*
X5961D1*
X5994D1*
X6027D1*
X6060D1*
X6723Y7263D2*
Y7236D1*
Y7210D1*
Y7183D1*
Y7156D1*
X6691D1*
X6660D1*
X6628D1*
X6596D1*
X6563D1*
X6531D1*
X6500D1*
X6468D1*
X6436D1*
X6404D1*
X6388Y7149D1*
X6382Y7135D1*
Y7100D1*
Y7066D1*
Y7032D1*
Y6998D1*
Y6964D1*
Y6929D1*
Y6896D1*
Y6861D1*
Y6827D1*
Y6792D1*
Y6759D1*
Y6724D1*
Y6690D1*
X6355D1*
X6328D1*
X6302D1*
X6275D1*
Y6722D1*
Y6755D1*
Y6786D1*
Y6818D1*
Y6854D1*
Y6888D1*
Y6924D1*
Y6959D1*
Y6994D1*
Y7029D1*
Y7064D1*
Y7099D1*
Y7135D1*
X6277Y7160D1*
X6285Y7184D1*
X6297Y7206D1*
X6313Y7225D1*
X6331Y7241D1*
X6353Y7253D1*
X6378Y7261D1*
X6404Y7263D1*
X6436D1*
X6468D1*
X6499D1*
X6531D1*
X6563D1*
X6596D1*
X6628D1*
X6660D1*
X6691D1*
X6723D1*
X7241D2*
X7266Y7261D1*
X7290Y7253D1*
X7312Y7241D1*
X7332Y7225D1*
X7347Y7206D1*
X7359Y7184D1*
X7366Y7160D1*
X7368Y7135D1*
Y7100D1*
Y7066D1*
Y7032D1*
Y6998D1*
Y6963D1*
Y6929D1*
Y6896D1*
Y6861D1*
Y6827D1*
Y6792D1*
Y6759D1*
Y6724D1*
Y6690D1*
X7334D1*
X7299D1*
X7264D1*
X7229D1*
X7194D1*
X7159D1*
X7124D1*
X7089D1*
X7054D1*
X7020D1*
X6984D1*
X6950D1*
X6915D1*
X6889Y6693D1*
X6864Y6700D1*
X6842Y6712D1*
X6824Y6728D1*
X6808Y6747D1*
X6796Y6768D1*
X6788Y6792D1*
X6786Y6818D1*
Y6854D1*
Y6889D1*
Y6924D1*
Y6959D1*
Y6995D1*
Y7030D1*
X6821D1*
X6854D1*
X6888D1*
X6922D1*
X6956D1*
X6990D1*
X7024D1*
X7058D1*
X7093D1*
X7126D1*
X7160D1*
X7194D1*
X7228D1*
X7262D1*
Y7065D1*
Y7099D1*
Y7135D1*
X7256Y7149D1*
X7241Y7156D1*
X7205D1*
X7171D1*
X7136D1*
X7100D1*
X7066D1*
X7031D1*
X6996D1*
X6961D1*
X6926D1*
X6891D1*
X6856D1*
X6821D1*
X6786D1*
Y7183D1*
Y7210D1*
Y7236D1*
Y7263D1*
X6821D1*
X6856D1*
X6891D1*
X6926D1*
X6961D1*
X6996D1*
X7031D1*
X7066D1*
X7100D1*
X7136D1*
X7170D1*
X7205D1*
X7241D1*
X7262Y6923D2*
X7229D1*
X7195D1*
X7162D1*
X7128D1*
X7094D1*
X7060D1*
X7027D1*
X6994D1*
X6960D1*
X6926D1*
X6893D1*
Y6888D1*
Y6853D1*
Y6818D1*
X6899Y6803D1*
X6915Y6796D1*
X6949D1*
X6984D1*
X7019D1*
X7053D1*
X7089D1*
X7123D1*
X7158D1*
X7193D1*
X7227D1*
X7262D1*
Y6829D1*
Y6860D1*
Y6892D1*
Y6923D1*
X8037Y6796D2*
Y6770D1*
Y6744D1*
Y6717D1*
Y6690D1*
X8002D1*
X7967D1*
X7932D1*
X7898D1*
X7862D1*
X7827D1*
X7793D1*
X7757D1*
X7723D1*
X7687D1*
X7653D1*
X7618D1*
X7582D1*
X7557Y6693D1*
X7532Y6700D1*
X7511Y6712D1*
X7492Y6728D1*
X7476Y6747D1*
X7464Y6768D1*
X7457Y6792D1*
X7455Y6818D1*
Y6854D1*
Y6888D1*
Y6924D1*
Y6959D1*
Y6994D1*
Y7029D1*
Y7064D1*
Y7099D1*
Y7135D1*
X7457Y7160D1*
X7464Y7184D1*
X7476Y7206D1*
X7492Y7225D1*
X7511Y7241D1*
X7532Y7253D1*
X7557Y7261D1*
X7582Y7263D1*
X7618D1*
X7652D1*
X7687D1*
X7722D1*
X7756D1*
X7792D1*
X7826D1*
X7861D1*
X7896D1*
X7930D1*
X7965D1*
X8000D1*
X8035D1*
Y7236D1*
Y7210D1*
Y7183D1*
Y7156D1*
X8000D1*
X7965D1*
X7930D1*
X7896D1*
X7861D1*
X7826D1*
X7792D1*
X7756D1*
X7722D1*
X7687D1*
X7652D1*
X7618D1*
X7582D1*
X7567Y7149D1*
X7561Y7135D1*
Y7099D1*
Y7064D1*
Y7029D1*
Y6994D1*
Y6959D1*
Y6924D1*
Y6888D1*
Y6854D1*
Y6818D1*
X7567Y6803D1*
X7582Y6797D1*
X7618D1*
X7653D1*
X7687D1*
X7723D1*
X7757D1*
X7793D1*
X7827D1*
X7862D1*
X7897D1*
X7932D1*
X7967D1*
X8002D1*
X8037D1*
X8583Y7263D2*
X8608Y7261D1*
X8632Y7253D1*
X8654Y7241D1*
X8673Y7225D1*
X8688Y7206D1*
X8700Y7184D1*
X8708Y7160D1*
X8711Y7135D1*
Y7100D1*
Y7066D1*
Y7032D1*
Y6998D1*
Y6963D1*
Y6929D1*
Y6896D1*
Y6861D1*
Y6827D1*
Y6792D1*
Y6759D1*
Y6724D1*
Y6690D1*
X8685D1*
X8658D1*
X8631D1*
X8605D1*
Y6724D1*
Y6759D1*
Y6792D1*
Y6827D1*
Y6861D1*
Y6895D1*
Y6929D1*
Y6963D1*
Y6998D1*
Y7032D1*
Y7066D1*
Y7100D1*
Y7135D1*
X8598Y7149D1*
X8583Y7156D1*
X8550D1*
X8518D1*
X8485D1*
X8453D1*
X8420D1*
X8387D1*
X8355D1*
X8322D1*
X8290D1*
X8257D1*
X8241Y7149D1*
X8235Y7135D1*
Y7100D1*
Y7066D1*
Y7032D1*
Y6998D1*
Y6963D1*
Y6929D1*
Y6896D1*
Y6861D1*
Y6827D1*
Y6792D1*
Y6759D1*
Y6724D1*
Y6690D1*
X8209D1*
X8182D1*
X8155D1*
X8129D1*
Y6725D1*
Y6759D1*
Y6794D1*
Y6829D1*
Y6863D1*
Y6898D1*
Y6932D1*
Y6966D1*
Y7001D1*
Y7036D1*
Y7070D1*
Y7105D1*
Y7140D1*
Y7174D1*
Y7209D1*
Y7243D1*
Y7277D1*
Y7312D1*
Y7347D1*
Y7381D1*
Y7416D1*
Y7450D1*
X8155D1*
X8182D1*
X8209D1*
X8235D1*
Y7419D1*
Y7388D1*
Y7357D1*
Y7325D1*
Y7294D1*
Y7263D1*
X8270D1*
X8304D1*
X8339D1*
X8374D1*
X8409D1*
X8444D1*
X8478D1*
X8513D1*
X8548D1*
X8583D1*
X9240D2*
X9265Y7261D1*
X9290Y7253D1*
X9312Y7241D1*
X9331Y7225D1*
X9347Y7206D1*
X9359Y7184D1*
X9366Y7160D1*
X9369Y7135D1*
Y7100D1*
Y7066D1*
Y7032D1*
Y6998D1*
Y6963D1*
Y6929D1*
Y6896D1*
Y6861D1*
Y6827D1*
Y6792D1*
Y6759D1*
Y6724D1*
Y6690D1*
X9342D1*
X9316D1*
X9288D1*
X9262D1*
Y6724D1*
Y6759D1*
Y6792D1*
Y6827D1*
Y6861D1*
Y6895D1*
Y6929D1*
Y6963D1*
Y6998D1*
Y7032D1*
Y7066D1*
Y7100D1*
Y7135D1*
X9255Y7149D1*
X9240Y7156D1*
X9207D1*
X9175D1*
X9142D1*
X9110D1*
X9077D1*
X9044D1*
X9012D1*
X8979D1*
X8947D1*
X8914D1*
X8899Y7149D1*
X8892Y7135D1*
Y7100D1*
Y7066D1*
Y7032D1*
Y6998D1*
Y6963D1*
Y6929D1*
Y6896D1*
Y6861D1*
Y6827D1*
Y6792D1*
Y6759D1*
Y6724D1*
Y6690D1*
X8866D1*
X8839D1*
X8812D1*
X8786D1*
Y6724D1*
Y6758D1*
Y6791D1*
Y6825D1*
Y6859D1*
Y6892D1*
Y6926D1*
Y6959D1*
Y6993D1*
Y7027D1*
Y7061D1*
Y7095D1*
Y7128D1*
Y7162D1*
Y7195D1*
Y7229D1*
Y7263D1*
X8821D1*
X8856D1*
X8891D1*
X8926D1*
X8961D1*
X8996D1*
X9030D1*
X9066D1*
X9100D1*
X9135D1*
X9171D1*
X9205D1*
X9240D1*
X9471D2*
X9497D1*
X9524D1*
X9551D1*
X9577D1*
Y7229D1*
Y7195D1*
Y7162D1*
Y7128D1*
Y7095D1*
Y7061D1*
Y7027D1*
Y6993D1*
Y6959D1*
Y6926D1*
Y6892D1*
Y6859D1*
Y6825D1*
Y6791D1*
Y6758D1*
Y6724D1*
Y6690D1*
X9551D1*
X9524D1*
X9497D1*
X9471D1*
Y6724D1*
Y6758D1*
Y6791D1*
Y6825D1*
Y6859D1*
Y6892D1*
Y6926D1*
Y6959D1*
Y6993D1*
Y7027D1*
Y7061D1*
Y7095D1*
Y7128D1*
Y7162D1*
Y7195D1*
Y7229D1*
Y7263D1*
X9577Y7450D2*
Y7424D1*
Y7397D1*
Y7370D1*
Y7344D1*
X9551D1*
X9524D1*
X9497D1*
X9471D1*
Y7370D1*
Y7397D1*
Y7424D1*
Y7450D1*
X9497D1*
X9524D1*
X9551D1*
X9577D1*
X10230D2*
Y7416D1*
Y7381D1*
Y7347D1*
Y7312D1*
Y7277D1*
Y7243D1*
Y7209D1*
Y7174D1*
Y7140D1*
Y7105D1*
Y7070D1*
Y7036D1*
Y7001D1*
Y6966D1*
Y6932D1*
Y6897D1*
Y6863D1*
Y6829D1*
Y6794D1*
Y6759D1*
Y6725D1*
Y6690D1*
X10196D1*
X10161D1*
X10126D1*
X10091D1*
X10056D1*
X10021D1*
X9987D1*
X9951D1*
X9916D1*
X9882D1*
X9846D1*
X9812D1*
X9777D1*
X9751Y6693D1*
X9726Y6700D1*
X9704Y6712D1*
X9686Y6728D1*
X9670Y6747D1*
X9658Y6768D1*
X9650Y6792D1*
X9648Y6818D1*
Y6854D1*
Y6888D1*
Y6924D1*
Y6959D1*
Y6994D1*
Y7029D1*
Y7064D1*
Y7099D1*
Y7135D1*
X9650Y7160D1*
X9658Y7184D1*
X9670Y7206D1*
X9686Y7225D1*
X9704Y7241D1*
X9726Y7253D1*
X9751Y7261D1*
X9777Y7263D1*
X9811D1*
X9846D1*
X9881D1*
X9915D1*
X9951D1*
X9985D1*
X10020D1*
X10055D1*
X10089D1*
X10124D1*
Y7294D1*
Y7325D1*
Y7357D1*
Y7388D1*
Y7419D1*
Y7450D1*
X10150D1*
X10177D1*
X10204D1*
X10230D1*
X10103Y6797D2*
X10118Y6803D1*
X10124Y6818D1*
Y6854D1*
Y6888D1*
Y6924D1*
Y6959D1*
Y6994D1*
Y7029D1*
Y7064D1*
Y7099D1*
Y7135D1*
X10118Y7149D1*
X10103Y7156D1*
X10070D1*
X10038D1*
X10005D1*
X9972D1*
X9940D1*
X9907D1*
X9875D1*
X9842D1*
X9809D1*
X9777D1*
X9761Y7149D1*
X9755Y7135D1*
Y7099D1*
Y7064D1*
Y7029D1*
Y6994D1*
Y6959D1*
Y6924D1*
Y6888D1*
Y6854D1*
Y6818D1*
X9761Y6803D1*
X9777Y6797D1*
X9809D1*
X9842D1*
X9875D1*
X9907D1*
X9940D1*
X9972D1*
X10005D1*
X10038D1*
X10070D1*
X10103D1*
X10627Y7402D2*
X10654D1*
X10680D1*
X10707D1*
X10734D1*
Y7369D1*
Y7335D1*
Y7301D1*
Y7268D1*
Y7234D1*
Y7200D1*
Y7167D1*
Y7133D1*
Y7099D1*
Y7066D1*
Y7033D1*
Y6999D1*
Y6965D1*
Y6931D1*
Y6898D1*
Y6864D1*
Y6830D1*
Y6796D1*
X10767D1*
X10800D1*
X10834D1*
X10868D1*
X10901D1*
X10935D1*
X10968D1*
X11002D1*
X11035D1*
X11069D1*
X11103D1*
X11137D1*
X11169D1*
X11203D1*
X11237D1*
X11271D1*
X11304D1*
X11337D1*
Y6770D1*
Y6744D1*
Y6717D1*
Y6690D1*
X11304D1*
X11270D1*
X11236D1*
X11202D1*
X11169D1*
X11134D1*
X11100D1*
X11067D1*
X11033D1*
X10999D1*
X10965D1*
X10931D1*
X10897D1*
X10864D1*
X10830D1*
X10796D1*
X10762D1*
X10728D1*
X10694D1*
X10661D1*
X10627D1*
Y6724D1*
Y6758D1*
Y6792D1*
Y6826D1*
Y6859D1*
Y6894D1*
Y6928D1*
Y6962D1*
Y6996D1*
Y7029D1*
Y7063D1*
Y7097D1*
Y7131D1*
Y7165D1*
Y7199D1*
Y7232D1*
Y7266D1*
Y7300D1*
Y7334D1*
Y7369D1*
Y7402D1*
X11845Y7263D2*
X11870Y7261D1*
X11895Y7253D1*
X11916Y7241D1*
X11936Y7225D1*
X11952Y7206D1*
X11964Y7184D1*
X11971Y7160D1*
X11974Y7135D1*
Y7100D1*
Y7066D1*
Y7032D1*
Y6998D1*
Y6963D1*
Y6929D1*
Y6896D1*
Y6861D1*
Y6827D1*
Y6792D1*
Y6759D1*
Y6724D1*
Y6690D1*
X11938D1*
X11904D1*
X11869D1*
X11834D1*
X11799D1*
X11764D1*
X11729D1*
X11694D1*
X11659D1*
X11624D1*
X11590D1*
X11554D1*
X11520D1*
X11494Y6693D1*
X11469Y6700D1*
X11448Y6712D1*
X11429Y6728D1*
X11413Y6747D1*
X11401Y6768D1*
X11394Y6792D1*
X11391Y6818D1*
Y6854D1*
Y6889D1*
Y6924D1*
Y6959D1*
Y6995D1*
Y7030D1*
X11425D1*
X11459D1*
X11493D1*
X11527D1*
X11561D1*
X11595D1*
X11629D1*
X11663D1*
X11697D1*
X11731D1*
X11765D1*
X11799D1*
X11833D1*
X11867D1*
Y7065D1*
Y7099D1*
Y7135D1*
X11860Y7149D1*
X11845Y7156D1*
X11811D1*
X11775D1*
X11741D1*
X11706D1*
X11670D1*
X11636D1*
X11601D1*
X11566D1*
X11531D1*
X11496D1*
X11461D1*
X11426D1*
X11391D1*
Y7183D1*
Y7210D1*
Y7236D1*
Y7263D1*
X11426D1*
X11461D1*
X11496D1*
X11531D1*
X11566D1*
X11601D1*
X11636D1*
X11670D1*
X11706D1*
X11740D1*
X11775D1*
X11811D1*
X11845D1*
X11867Y6923D2*
X11833D1*
X11800D1*
X11766D1*
X11733D1*
X11699D1*
X11666D1*
X11632D1*
X11598D1*
X11565D1*
X11532D1*
X11498D1*
Y6888D1*
Y6853D1*
Y6818D1*
X11503Y6803D1*
X11520Y6796D1*
X11554D1*
X11589D1*
X11624D1*
X11659D1*
X11693D1*
X11728D1*
X11763D1*
X11797D1*
X11833D1*
X11867D1*
Y6829D1*
Y6860D1*
Y6892D1*
Y6923D1*
X12515Y7263D2*
X12540Y7261D1*
X12564Y7253D1*
X12586Y7241D1*
X12606Y7225D1*
X12621Y7206D1*
X12633Y7184D1*
X12641Y7160D1*
X12643Y7135D1*
Y7099D1*
Y7064D1*
Y7029D1*
Y6994D1*
Y6959D1*
Y6924D1*
Y6888D1*
Y6854D1*
Y6818D1*
X12641Y6792D1*
X12633Y6768D1*
X12621Y6747D1*
X12606Y6728D1*
X12586Y6711D1*
X12564Y6700D1*
X12540Y6693D1*
X12515Y6690D1*
X12479D1*
X12445D1*
X12410D1*
X12375D1*
X12340D1*
X12305D1*
X12270D1*
X12235D1*
X12200D1*
X12165D1*
X12130D1*
X12095D1*
X12061D1*
Y6725D1*
Y6759D1*
Y6794D1*
Y6829D1*
Y6863D1*
Y6898D1*
Y6932D1*
Y6966D1*
Y7001D1*
Y7036D1*
Y7070D1*
Y7105D1*
Y7140D1*
Y7174D1*
Y7209D1*
Y7243D1*
Y7277D1*
Y7312D1*
Y7347D1*
Y7381D1*
Y7416D1*
Y7450D1*
X12087D1*
X12114D1*
X12141D1*
X12167D1*
Y7419D1*
Y7388D1*
Y7357D1*
Y7325D1*
Y7294D1*
Y7263D1*
X12202D1*
X12236D1*
X12272D1*
X12306D1*
X12341D1*
X12376D1*
X12410D1*
X12445D1*
X12480D1*
X12515D1*
X12537Y7135D2*
X12529Y7149D1*
X12515Y7156D1*
X12482D1*
X12450D1*
X12417D1*
X12384D1*
X12352D1*
X12319D1*
X12286D1*
X12254D1*
X12221D1*
X12189D1*
X12173Y7149D1*
X12167Y7135D1*
Y7099D1*
Y7064D1*
Y7029D1*
Y6994D1*
Y6959D1*
Y6924D1*
Y6888D1*
Y6854D1*
Y6818D1*
X12173Y6803D1*
X12189Y6797D1*
X12221D1*
X12254D1*
X12286D1*
X12319D1*
X12352D1*
X12384D1*
X12417D1*
X12450D1*
X12482D1*
X12515D1*
X12529Y6803D1*
X12537Y6818D1*
Y6854D1*
Y6888D1*
Y6924D1*
Y6959D1*
Y6994D1*
Y7029D1*
Y7064D1*
Y7099D1*
Y7135D1*
X13295Y7113D2*
X13268D1*
X13241D1*
X13215D1*
X13188D1*
Y7135D1*
X13181Y7149D1*
X13166Y7156D1*
X13134D1*
X13101D1*
X13069D1*
X13036D1*
X13004D1*
X12971D1*
X12938D1*
X12906D1*
X12873D1*
X12841D1*
X12824Y7149D1*
X12819Y7135D1*
Y7106D1*
Y7079D1*
Y7051D1*
X12824Y7036D1*
X12841Y7030D1*
X12873D1*
X12906D1*
X12938D1*
X12971D1*
X13003D1*
X13036D1*
X13069D1*
X13101D1*
X13134D1*
X13166D1*
X13191Y7028D1*
X13215Y7020D1*
X13237Y7008D1*
X13257Y6992D1*
X13273Y6973D1*
X13284Y6951D1*
X13292Y6926D1*
X13295Y6901D1*
Y6874D1*
Y6846D1*
Y6818D1*
X13292Y6792D1*
X13284Y6768D1*
X13273Y6747D1*
X13257Y6728D1*
X13237Y6711D1*
X13215Y6700D1*
X13191Y6693D1*
X13166Y6690D1*
X13134D1*
X13101D1*
X13069D1*
X13036D1*
X13004D1*
X12971D1*
X12938D1*
X12906D1*
X12873D1*
X12841D1*
X12815Y6693D1*
X12790Y6700D1*
X12769Y6712D1*
X12750Y6728D1*
X12734Y6747D1*
X12722Y6768D1*
X12714Y6792D1*
X12712Y6818D1*
Y6840D1*
X12739D1*
X12765D1*
X12792D1*
X12819D1*
Y6818D1*
X12824Y6803D1*
X12841Y6797D1*
X12873D1*
X12906D1*
X12938D1*
X12971D1*
X13003D1*
X13036D1*
X13069D1*
X13101D1*
X13134D1*
X13166D1*
X13181Y6803D1*
X13188Y6818D1*
Y6846D1*
Y6874D1*
Y6901D1*
X13181Y6916D1*
X13166Y6923D1*
X13134D1*
X13101D1*
X13069D1*
X13036D1*
X13004D1*
X12971D1*
X12938D1*
X12906D1*
X12873D1*
X12841D1*
X12815Y6925D1*
X12790Y6933D1*
X12769Y6945D1*
X12750Y6961D1*
X12734Y6980D1*
X12722Y7001D1*
X12714Y7026D1*
X12712Y7051D1*
Y7079D1*
Y7106D1*
Y7135D1*
X12714Y7160D1*
X12722Y7184D1*
X12733Y7206D1*
X12750Y7225D1*
X12769Y7241D1*
X12790Y7253D1*
X12815Y7261D1*
X12841Y7263D1*
X12873D1*
X12906D1*
X12938D1*
X12971D1*
X13003D1*
X13036D1*
X13069D1*
X13101D1*
X13134D1*
X13166D1*
X13191Y7261D1*
X13215Y7253D1*
X13237Y7241D1*
X13257Y7225D1*
X13273Y7206D1*
X13284Y7184D1*
X13292Y7160D1*
X13295Y7135D1*
Y7113D1*
G36*
X15750Y6625D2*
Y7625D1*
X16250Y7125D1*
D1*
X15750Y6625D1*
G37*
G36*
X4750Y7625D2*
Y6625D1*
X4250Y7125D1*
D1*
X4750Y7625D1*
G37*
X8060Y16085D2*
D12*
X8195D1*
X8540D2*
X8660D1*
X8795D2*
X8855D1*
X9485D2*
X9545D1*
X10130D2*
X10190D1*
X10625D2*
X10685D1*
X10910D2*
X11000D1*
X8060Y16070D2*
X8196D1*
X8533D2*
X8660D1*
X8795D2*
X8855D1*
X9485D2*
X9545D1*
X10130D2*
X10190D1*
X10625D2*
X10685D1*
X10889D2*
X11007D1*
X11135D2*
X11150D1*
X11780D2*
X11810D1*
X12425D2*
X12515D1*
X13010D2*
X13040D1*
X8060Y16055D2*
X8198D1*
X8526D2*
X8660D1*
X8795D2*
X8855D1*
X9485D2*
X9545D1*
X10130D2*
X10190D1*
X10625D2*
X10685D1*
X10871D2*
X11012D1*
X11118D2*
X11150D1*
X11765D2*
X11810D1*
X12396D2*
X12544D1*
X12995D2*
X13040D1*
X8060Y16040D2*
X8201D1*
X8521D2*
X8660D1*
X8795D2*
X8855D1*
X9485D2*
X9545D1*
X10130D2*
X10190D1*
X10625D2*
X10685D1*
X10858D2*
X10998D1*
X11103D2*
X11150D1*
X11750D2*
X11810D1*
X12373D2*
X12568D1*
X12980D2*
X13040D1*
X8060Y16025D2*
X8206D1*
X8515D2*
X8660D1*
X8795D2*
X8855D1*
X9485D2*
X9545D1*
X10130D2*
X10190D1*
X10625D2*
X10685D1*
X10849D2*
X10967D1*
X11096D2*
X11150D1*
X11735D2*
X11810D1*
X12354D2*
X12586D1*
X12965D2*
X13040D1*
X8060Y16010D2*
X8210D1*
X8510D2*
X8660D1*
X10130D2*
X10190D1*
X10842D2*
X10937D1*
X11093D2*
X11150D1*
X11720D2*
X11810D1*
X12339D2*
X12601D1*
X12950D2*
X13040D1*
X8060Y15995D2*
X8135D1*
X8166D2*
X8215D1*
X8505D2*
X8555D1*
X8585D2*
X8660D1*
X10130D2*
X10190D1*
X10838D2*
X10912D1*
X11091D2*
X11150D1*
X11703D2*
X11810D1*
X12327D2*
X12410D1*
X12530D2*
X12613D1*
X12933D2*
X13040D1*
X8060Y15980D2*
X8135D1*
X8168D2*
X8220D1*
X8500D2*
X8553D1*
X8585D2*
X8660D1*
X10130D2*
X10190D1*
X10837D2*
X10902D1*
X11091D2*
X11150D1*
X11683D2*
X11810D1*
X12318D2*
X12395D1*
X12545D2*
X12622D1*
X12913D2*
X13040D1*
X8060Y15965D2*
X8135D1*
X8171D2*
X8225D1*
X8495D2*
X8549D1*
X8585D2*
X8660D1*
X10130D2*
X10190D1*
X10836D2*
X10898D1*
X11090D2*
X11150D1*
X11662D2*
X11810D1*
X12310D2*
X12381D1*
X12560D2*
X12629D1*
X12892D2*
X13040D1*
X8060Y15950D2*
X8135D1*
X8175D2*
X8230D1*
X8490D2*
X8545D1*
X8585D2*
X8660D1*
X10130D2*
X10190D1*
X10835D2*
X10896D1*
X11090D2*
X11150D1*
X11640D2*
X11810D1*
X12302D2*
X12368D1*
X12572D2*
X12635D1*
X12870D2*
X13040D1*
X8060Y15935D2*
X8135D1*
X8178D2*
X8235D1*
X8486D2*
X8542D1*
X8585D2*
X8660D1*
X9170D2*
X9245D1*
X9785D2*
X9875D1*
X10130D2*
X10190D1*
X10295D2*
X10370D1*
X10835D2*
X10896D1*
X11090D2*
X11150D1*
X11618D2*
X11718D1*
X11750D2*
X11810D1*
X12297D2*
X12359D1*
X12582D2*
X12640D1*
X12848D2*
X12948D1*
X12980D2*
X13040D1*
X8060Y15920D2*
X8135D1*
X8182D2*
X8240D1*
X8482D2*
X8539D1*
X8585D2*
X8660D1*
X8795D2*
X8855D1*
X8990D2*
X9050D1*
X9141D2*
X9272D1*
X9485D2*
X9545D1*
X9752D2*
X9909D1*
X10130D2*
X10191D1*
X10268D2*
X10404D1*
X10625D2*
X10685D1*
X10775D2*
X10985D1*
X11030D2*
X11225D1*
X11600D2*
X11698D1*
X11750D2*
X11810D1*
X12293D2*
X12354D1*
X12589D2*
X12645D1*
X12830D2*
X12928D1*
X12980D2*
X13040D1*
X8060Y15905D2*
X8135D1*
X8186D2*
X8245D1*
X8479D2*
X8534D1*
X8585D2*
X8660D1*
X8795D2*
X8855D1*
X8990D2*
X9051D1*
X9117D2*
X9293D1*
X9485D2*
X9545D1*
X9726D2*
X9935D1*
X10130D2*
X10193D1*
X10241D2*
X10430D1*
X10625D2*
X10685D1*
X10775D2*
X10985D1*
X11030D2*
X11225D1*
X11592D2*
X11674D1*
X11750D2*
X11810D1*
X12291D2*
X12349D1*
X12595D2*
X12648D1*
X12822D2*
X12905D1*
X12980D2*
X13040D1*
X8060Y15890D2*
X8135D1*
X8191D2*
X8250D1*
X8474D2*
X8530D1*
X8585D2*
X8660D1*
X8795D2*
X8855D1*
X8990D2*
X9053D1*
X9095D2*
X9309D1*
X9485D2*
X9545D1*
X9708D2*
X9953D1*
X10130D2*
X10198D1*
X10216D2*
X10448D1*
X10625D2*
X10685D1*
X10775D2*
X10985D1*
X11030D2*
X11225D1*
X11588D2*
X11646D1*
X11750D2*
X11810D1*
X12288D2*
X12345D1*
X12599D2*
X12652D1*
X12818D2*
X12877D1*
X12980D2*
X13040D1*
X8060Y15875D2*
X8135D1*
X8195D2*
X8253D1*
X8470D2*
X8525D1*
X8585D2*
X8660D1*
X8795D2*
X8855D1*
X8990D2*
X9058D1*
X9073D2*
X9321D1*
X9485D2*
X9545D1*
X9695D2*
X9965D1*
X10130D2*
X10460D1*
X10625D2*
X10685D1*
X10775D2*
X10985D1*
X11030D2*
X11225D1*
X11585D2*
X11615D1*
X11750D2*
X11810D1*
X12284D2*
X12340D1*
X12602D2*
X12656D1*
X12816D2*
X12847D1*
X12980D2*
X13040D1*
X8060Y15860D2*
X8135D1*
X8200D2*
X8257D1*
X8465D2*
X8520D1*
X8585D2*
X8660D1*
X8795D2*
X8855D1*
X8990D2*
X9128D1*
X9227D2*
X9330D1*
X9485D2*
X9545D1*
X9685D2*
X9756D1*
X9890D2*
X9975D1*
X10130D2*
X10268D1*
X10385D2*
X10468D1*
X10625D2*
X10685D1*
X10775D2*
X10985D1*
X11030D2*
X11225D1*
X11750D2*
X11810D1*
X12280D2*
X12338D1*
X12604D2*
X12660D1*
X12815D2*
D3*
X12980D2*
X13040D1*
X8060Y15845D2*
X8135D1*
X8205D2*
X8261D1*
X8460D2*
X8515D1*
X8585D2*
X8660D1*
X8795D2*
X8855D1*
X8990D2*
X9105D1*
X9248D2*
X9338D1*
X9485D2*
X9545D1*
X9678D2*
X9743D1*
X9905D2*
X9983D1*
X10130D2*
X10245D1*
X10398D2*
X10474D1*
X10625D2*
X10685D1*
X10835D2*
X10895D1*
X11090D2*
X11150D1*
X11750D2*
X11810D1*
X12278D2*
X12336D1*
X12605D2*
X12663D1*
X12980D2*
X13040D1*
X8060Y15830D2*
X8135D1*
X8210D2*
X8266D1*
X8455D2*
X8510D1*
X8585D2*
X8660D1*
X8795D2*
X8855D1*
X8990D2*
X9087D1*
X9264D2*
X9344D1*
X9485D2*
X9545D1*
X9672D2*
X9733D1*
X9917D2*
X9990D1*
X10130D2*
X10227D1*
X10408D2*
X10480D1*
X10625D2*
X10685D1*
X10835D2*
X10895D1*
X11090D2*
X11150D1*
X11750D2*
X11810D1*
X12276D2*
X12336D1*
X12605D2*
X12664D1*
X12980D2*
X13040D1*
X8060Y15815D2*
X8135D1*
X8215D2*
X8270D1*
X8450D2*
X8505D1*
X8585D2*
X8660D1*
X8795D2*
X8855D1*
X8990D2*
X9074D1*
X9275D2*
X9347D1*
X9485D2*
X9545D1*
X9668D2*
X9730D1*
X9927D2*
X9995D1*
X10130D2*
X10214D1*
X10417D2*
X10485D1*
X10625D2*
X10685D1*
X10835D2*
X10895D1*
X11090D2*
X11150D1*
X11750D2*
X11810D1*
X12276D2*
X12335D1*
X12605D2*
X12665D1*
X12980D2*
X13040D1*
X8060Y15800D2*
X8135D1*
X8220D2*
X8275D1*
X8445D2*
X8500D1*
X8585D2*
X8660D1*
X8795D2*
X8855D1*
X8990D2*
X9064D1*
X9283D2*
X9349D1*
X9485D2*
X9545D1*
X9667D2*
X9735D1*
X9935D2*
X9950D1*
X10130D2*
X10204D1*
X10423D2*
X10488D1*
X10625D2*
X10685D1*
X10835D2*
X10895D1*
X11090D2*
X11150D1*
X11750D2*
X11810D1*
X12275D2*
X12335D1*
X12605D2*
X12665D1*
X12980D2*
X13040D1*
X8060Y15785D2*
X8135D1*
X8223D2*
X8280D1*
X8440D2*
X8495D1*
X8585D2*
X8660D1*
X8795D2*
X8855D1*
X8990D2*
X9057D1*
X9287D2*
X9350D1*
X9485D2*
X9545D1*
X9668D2*
X9751D1*
X10130D2*
X10197D1*
X10427D2*
X10489D1*
X10625D2*
X10685D1*
X10835D2*
X10895D1*
X11090D2*
X11150D1*
X11750D2*
X11810D1*
X12275D2*
X12335D1*
X12605D2*
X12665D1*
X12980D2*
X13040D1*
X8060Y15770D2*
X8135D1*
X8227D2*
X8285D1*
X8435D2*
X8490D1*
X8585D2*
X8660D1*
X8795D2*
X8855D1*
X8990D2*
X9053D1*
X9289D2*
X9350D1*
X9485D2*
X9545D1*
X9672D2*
X9778D1*
X10130D2*
X10193D1*
X10429D2*
X10490D1*
X10625D2*
X10685D1*
X10835D2*
X10895D1*
X11090D2*
X11150D1*
X11750D2*
X11810D1*
X12275D2*
X12335D1*
X12605D2*
X12665D1*
X12980D2*
X13040D1*
X8060Y15755D2*
X8135D1*
X8231D2*
X8290D1*
X8430D2*
X8486D1*
X8585D2*
X8660D1*
X8795D2*
X8855D1*
X8990D2*
X9052D1*
X9290D2*
X9350D1*
X9485D2*
X9545D1*
X9678D2*
X9815D1*
X10130D2*
X10192D1*
X10430D2*
X10490D1*
X10625D2*
X10685D1*
X10835D2*
X10895D1*
X11090D2*
X11150D1*
X11750D2*
X11810D1*
X12275D2*
X12335D1*
X12605D2*
X12665D1*
X12980D2*
X13040D1*
X8060Y15740D2*
X8135D1*
X8236D2*
X8295D1*
X8426D2*
X8482D1*
X8585D2*
X8660D1*
X8795D2*
X8855D1*
X8990D2*
X9051D1*
X9290D2*
X9350D1*
X9485D2*
X9545D1*
X9688D2*
X9858D1*
X10130D2*
X10191D1*
X10430D2*
X10490D1*
X10625D2*
X10685D1*
X10835D2*
X10895D1*
X11090D2*
X11150D1*
X11750D2*
X11810D1*
X12275D2*
X12335D1*
X12605D2*
X12665D1*
X12980D2*
X13040D1*
X8060Y15725D2*
X8135D1*
X8240D2*
X8298D1*
X8422D2*
X8479D1*
X8585D2*
X8660D1*
X8795D2*
X8855D1*
X8990D2*
X9050D1*
X9290D2*
X9350D1*
X9485D2*
X9545D1*
X9701D2*
X9900D1*
X10130D2*
X10190D1*
X10430D2*
X10490D1*
X10625D2*
X10685D1*
X10835D2*
X10895D1*
X11090D2*
X11150D1*
X11750D2*
X11810D1*
X12275D2*
X12335D1*
X12605D2*
X12665D1*
X12980D2*
X13040D1*
X8060Y15710D2*
X8135D1*
X8245D2*
X8302D1*
X8419D2*
X8474D1*
X8585D2*
X8660D1*
X8795D2*
X8855D1*
X8990D2*
X9050D1*
X9290D2*
X9350D1*
X9485D2*
X9545D1*
X9721D2*
X9937D1*
X10130D2*
X10190D1*
X10430D2*
X10490D1*
X10625D2*
X10685D1*
X10835D2*
X10895D1*
X11090D2*
X11150D1*
X11750D2*
X11810D1*
X12276D2*
X12335D1*
X12605D2*
X12665D1*
X12980D2*
X13040D1*
X8060Y15695D2*
X8135D1*
X8250D2*
X8306D1*
X8414D2*
X8470D1*
X8585D2*
X8660D1*
X8795D2*
X8855D1*
X8990D2*
X9050D1*
X9290D2*
X9350D1*
X9485D2*
X9545D1*
X9749D2*
X9966D1*
X10130D2*
X10190D1*
X10430D2*
X10490D1*
X10625D2*
X10685D1*
X10835D2*
X10895D1*
X11090D2*
X11150D1*
X11750D2*
X11810D1*
X12278D2*
X12335D1*
X12605D2*
X12663D1*
X12980D2*
X13040D1*
X8060Y15680D2*
X8135D1*
X8255D2*
X8311D1*
X8410D2*
X8465D1*
X8585D2*
X8660D1*
X8795D2*
X8855D1*
X8990D2*
X9050D1*
X9290D2*
X9350D1*
X9485D2*
X9545D1*
X9784D2*
X9987D1*
X10130D2*
X10190D1*
X10430D2*
X10490D1*
X10625D2*
X10685D1*
X10835D2*
X10895D1*
X11090D2*
X11150D1*
X11750D2*
X11810D1*
X12281D2*
X12336D1*
X12605D2*
X12659D1*
X12980D2*
X13040D1*
X8060Y15665D2*
X8135D1*
X8260D2*
X8315D1*
X8405D2*
X8460D1*
X8585D2*
X8660D1*
X8795D2*
X8855D1*
X8990D2*
X9050D1*
X9290D2*
X9350D1*
X9485D2*
X9545D1*
X9825D2*
X10001D1*
X10130D2*
X10190D1*
X10430D2*
X10490D1*
X10625D2*
X10685D1*
X10835D2*
X10895D1*
X11090D2*
X11150D1*
X11750D2*
X11810D1*
X12285D2*
X12338D1*
X12603D2*
X12655D1*
X12980D2*
X13040D1*
X8060Y15650D2*
X8135D1*
X8265D2*
X8320D1*
X8400D2*
X8455D1*
X8585D2*
X8660D1*
X8795D2*
X8855D1*
X8990D2*
X9050D1*
X9290D2*
X9350D1*
X9485D2*
X9545D1*
X9868D2*
X10011D1*
X10130D2*
X10190D1*
X10430D2*
X10490D1*
X10625D2*
X10685D1*
X10835D2*
X10895D1*
X11090D2*
X11150D1*
X11750D2*
X11810D1*
X12288D2*
X12341D1*
X12599D2*
X12653D1*
X12980D2*
X13040D1*
X8060Y15635D2*
X8135D1*
X8270D2*
X8325D1*
X8395D2*
X8450D1*
X8585D2*
X8660D1*
X8795D2*
X8855D1*
X8990D2*
X9050D1*
X9290D2*
X9350D1*
X9485D2*
X9545D1*
X9905D2*
X10018D1*
X10130D2*
X10190D1*
X10430D2*
X10490D1*
X10625D2*
X10685D1*
X10835D2*
X10895D1*
X11090D2*
X11150D1*
X11750D2*
X11810D1*
X12290D2*
X12346D1*
X12595D2*
X12651D1*
X12980D2*
X13040D1*
X8060Y15620D2*
X8135D1*
X8275D2*
X8330D1*
X8390D2*
X8445D1*
X8585D2*
X8660D1*
X8795D2*
X8855D1*
X8990D2*
X9050D1*
X9290D2*
X9350D1*
X9485D2*
X9545D1*
X9933D2*
X10022D1*
X10130D2*
X10190D1*
X10430D2*
X10490D1*
X10625D2*
X10685D1*
X10835D2*
X10895D1*
X11090D2*
X11150D1*
X11750D2*
X11810D1*
X12292D2*
X12351D1*
X12589D2*
X12648D1*
X12980D2*
X13040D1*
X8060Y15605D2*
X8135D1*
X8280D2*
X8335D1*
X8385D2*
X8440D1*
X8585D2*
X8660D1*
X8795D2*
X8855D1*
X8990D2*
X9050D1*
X9290D2*
X9350D1*
X9485D2*
X9545D1*
X9695D2*
X9710D1*
X9953D2*
X10023D1*
X10130D2*
X10190D1*
X10430D2*
X10490D1*
X10625D2*
X10685D1*
X10835D2*
X10895D1*
X11090D2*
X11150D1*
X11750D2*
X11810D1*
X12297D2*
X12358D1*
X12582D2*
X12644D1*
X12980D2*
X13040D1*
X8060Y15590D2*
X8135D1*
X8283D2*
X8340D1*
X8380D2*
X8435D1*
X8585D2*
X8660D1*
X8795D2*
X8855D1*
X8990D2*
X9050D1*
X9290D2*
X9350D1*
X9485D2*
X9545D1*
X9650D2*
X9716D1*
X9958D2*
X10022D1*
X10130D2*
X10190D1*
X10430D2*
X10490D1*
X10625D2*
X10685D1*
X10835D2*
X10895D1*
X11090D2*
X11150D1*
X11750D2*
X11810D1*
X12303D2*
X12369D1*
X12571D2*
X12638D1*
X12980D2*
X13040D1*
X8060Y15575D2*
X8135D1*
X8287D2*
X8346D1*
X8375D2*
X8430D1*
X8585D2*
X8660D1*
X8795D2*
X8855D1*
X8990D2*
X9050D1*
X9290D2*
X9350D1*
X9485D2*
X9545D1*
X9658D2*
X9724D1*
X9956D2*
X10019D1*
X10130D2*
X10190D1*
X10430D2*
X10490D1*
X10625D2*
X10685D1*
X10835D2*
X10895D1*
X11090D2*
X11151D1*
X11750D2*
X11810D1*
X12309D2*
X12383D1*
X12557D2*
X12631D1*
X12980D2*
X13040D1*
X8060Y15560D2*
X8135D1*
X8291D2*
X8352D1*
X8368D2*
X8426D1*
X8585D2*
X8660D1*
X8795D2*
X8855D1*
X8990D2*
X9050D1*
X9290D2*
X9350D1*
X9485D2*
X9545D1*
X9664D2*
X9735D1*
X9944D2*
X10015D1*
X10130D2*
X10190D1*
X10430D2*
X10490D1*
X10625D2*
X10685D1*
X10835D2*
X10895D1*
X11090D2*
X11153D1*
X11750D2*
X11810D1*
X12317D2*
X12416D1*
X12525D2*
X12623D1*
X12980D2*
X13040D1*
X8060Y15545D2*
X8135D1*
X8296D2*
X8422D1*
X8585D2*
X8660D1*
X8795D2*
X8855D1*
X8990D2*
X9050D1*
X9290D2*
X9350D1*
X9485D2*
X9545D1*
X9670D2*
X9778D1*
X9908D2*
X10009D1*
X10130D2*
X10190D1*
X10430D2*
X10490D1*
X10625D2*
X10685D1*
X10835D2*
X10895D1*
X11091D2*
X11163D1*
X11750D2*
X11810D1*
X12325D2*
X12467D1*
X12474D2*
X12614D1*
X12980D2*
X13040D1*
X8060Y15530D2*
X8135D1*
X8300D2*
X8419D1*
X8585D2*
X8660D1*
X8795D2*
X8855D1*
X8990D2*
X9050D1*
X9290D2*
X9350D1*
X9485D2*
X9545D1*
X9678D2*
X9847D1*
X10002D1*
X10130D2*
X10190D1*
X10430D2*
X10490D1*
X10625D2*
X10685D1*
X10835D2*
X10895D1*
X11093D2*
X11184D1*
X11750D2*
X11810D1*
X12065D2*
X12125D1*
X12335D2*
X12602D1*
X12980D2*
X13040D1*
X8060Y15515D2*
X8135D1*
X8305D2*
X8415D1*
X8585D2*
X8660D1*
X8795D2*
X8855D1*
X8990D2*
X9050D1*
X9290D2*
X9350D1*
X9485D2*
X9545D1*
X9687D2*
X9991D1*
X10130D2*
X10190D1*
X10430D2*
X10490D1*
X10625D2*
X10685D1*
X10835D2*
X10895D1*
X11097D2*
X11203D1*
X11750D2*
X11810D1*
X12065D2*
X12125D1*
X12349D2*
X12588D1*
X12980D2*
X13040D1*
X8060Y15500D2*
X8135D1*
X8310D2*
X8410D1*
X8585D2*
X8660D1*
X8795D2*
X8855D1*
X8990D2*
X9050D1*
X9290D2*
X9350D1*
X9485D2*
X9545D1*
X9702D2*
X9975D1*
X10130D2*
X10190D1*
X10430D2*
X10490D1*
X10625D2*
X10685D1*
X10835D2*
X10895D1*
X11104D2*
X11217D1*
X11750D2*
X11810D1*
X12065D2*
X12125D1*
X12369D2*
X12569D1*
X12980D2*
X13040D1*
X8060Y15485D2*
X8135D1*
X8313D2*
X8407D1*
X8585D2*
X8660D1*
X8795D2*
X8855D1*
X8990D2*
X9050D1*
X9290D2*
X9350D1*
X9485D2*
X9545D1*
X9724D2*
X9952D1*
X10130D2*
X10190D1*
X10430D2*
X10490D1*
X10625D2*
X10685D1*
X10835D2*
X10895D1*
X11115D2*
X11229D1*
X11750D2*
X11810D1*
X12065D2*
X12125D1*
X12395D2*
X12544D1*
X12980D2*
X13040D1*
X8060Y15470D2*
X8135D1*
X8315D2*
X8405D1*
X8585D2*
X8660D1*
X8795D2*
X8855D1*
X8990D2*
X9050D1*
X9290D2*
X9350D1*
X9485D2*
X9545D1*
X9752D2*
X9923D1*
X10130D2*
X10190D1*
X10430D2*
X10490D1*
X10625D2*
X10685D1*
X10835D2*
X10895D1*
X11131D2*
X11240D1*
X11750D2*
X11810D1*
X12065D2*
X12125D1*
X12425D2*
X12515D1*
X12980D2*
X13040D1*
X9785Y15455D2*
X9890D1*
X11150D2*
X11225D1*
X8060Y16085D2*
Y16070D1*
Y16055D1*
Y16040D1*
Y16025D1*
Y16010D1*
Y15995D1*
Y15980D1*
Y15965D1*
Y15950D1*
Y15935D1*
Y15920D1*
Y15905D1*
Y15890D1*
Y15875D1*
Y15860D1*
Y15845D1*
Y15830D1*
Y15815D1*
Y15800D1*
Y15785D1*
Y15770D1*
Y15755D1*
Y15740D1*
Y15725D1*
Y15710D1*
Y15695D1*
Y15680D1*
Y15665D1*
Y15650D1*
Y15635D1*
Y15620D1*
Y15605D1*
Y15590D1*
Y15575D1*
Y15560D1*
Y15545D1*
Y15530D1*
Y15515D1*
Y15500D1*
Y15485D1*
Y15470D1*
X8195Y16085D2*
X8196Y16070D1*
X8198Y16055D1*
X8201Y16040D1*
X8206Y16025D1*
X8210Y16010D1*
X8215Y15995D1*
X8220Y15980D1*
X8225Y15965D1*
X8230Y15950D1*
X8235Y15935D1*
X8240Y15920D1*
X8245Y15905D1*
X8250Y15890D1*
X8253Y15875D1*
X8257Y15860D1*
X8261Y15845D1*
X8266Y15830D1*
X8270Y15815D1*
X8275Y15800D1*
X8280Y15785D1*
X8285Y15770D1*
X8290Y15755D1*
X8295Y15740D1*
X8298Y15725D1*
X8302Y15710D1*
X8306Y15695D1*
X8311Y15680D1*
X8315Y15665D1*
X8320Y15650D1*
X8325Y15635D1*
X8330Y15620D1*
X8335Y15605D1*
X8340Y15590D1*
X8346Y15575D1*
X8352Y15560D1*
X8360Y15545D1*
X8540Y16085D2*
X8533Y16070D1*
X8526Y16055D1*
X8521Y16040D1*
X8515Y16025D1*
X8510Y16010D1*
X8505Y15995D1*
X8500Y15980D1*
X8495Y15965D1*
X8490Y15950D1*
X8486Y15935D1*
X8482Y15920D1*
X8479Y15905D1*
X8474Y15890D1*
X8470Y15875D1*
X8465Y15860D1*
X8460Y15845D1*
X8455Y15830D1*
X8450Y15815D1*
X8445Y15800D1*
X8440Y15785D1*
X8435Y15770D1*
X8430Y15755D1*
X8426Y15740D1*
X8422Y15725D1*
X8419Y15710D1*
X8414Y15695D1*
X8410Y15680D1*
X8405Y15665D1*
X8400Y15650D1*
X8395Y15635D1*
X8390Y15620D1*
X8385Y15605D1*
X8380Y15590D1*
X8375Y15575D1*
X8368Y15560D1*
X8360Y15545D1*
X8660Y16085D2*
Y16070D1*
Y16055D1*
Y16040D1*
Y16025D1*
Y16010D1*
Y15995D1*
Y15980D1*
Y15965D1*
Y15950D1*
Y15935D1*
Y15920D1*
Y15905D1*
Y15890D1*
Y15875D1*
Y15860D1*
Y15845D1*
Y15830D1*
Y15815D1*
Y15800D1*
Y15785D1*
Y15770D1*
Y15755D1*
Y15740D1*
Y15725D1*
Y15710D1*
Y15695D1*
Y15680D1*
Y15665D1*
Y15650D1*
Y15635D1*
Y15620D1*
Y15605D1*
Y15590D1*
Y15575D1*
Y15560D1*
Y15545D1*
Y15530D1*
Y15515D1*
Y15500D1*
Y15485D1*
Y15470D1*
X8795Y16085D2*
Y16070D1*
Y16055D1*
Y16040D1*
Y16025D1*
X8855Y16085D2*
Y16070D1*
Y16055D1*
Y16040D1*
Y16025D1*
X9485Y16085D2*
Y16070D1*
Y16055D1*
Y16040D1*
Y16025D1*
X9545Y16085D2*
Y16070D1*
Y16055D1*
Y16040D1*
Y16025D1*
X10130Y16085D2*
Y16070D1*
Y16055D1*
Y16040D1*
Y16025D1*
Y16010D1*
Y15995D1*
Y15980D1*
Y15965D1*
Y15950D1*
Y15935D1*
Y15920D1*
Y15905D1*
Y15890D1*
Y15875D1*
Y15860D1*
Y15845D1*
Y15830D1*
Y15815D1*
Y15800D1*
Y15785D1*
Y15770D1*
Y15755D1*
Y15740D1*
Y15725D1*
Y15710D1*
Y15695D1*
Y15680D1*
Y15665D1*
Y15650D1*
Y15635D1*
Y15620D1*
Y15605D1*
Y15590D1*
Y15575D1*
Y15560D1*
Y15545D1*
Y15530D1*
Y15515D1*
Y15500D1*
Y15485D1*
Y15470D1*
X10190Y16085D2*
Y16070D1*
Y16055D1*
Y16040D1*
Y16025D1*
Y16010D1*
Y15995D1*
Y15980D1*
Y15965D1*
Y15950D1*
Y15935D1*
X10191Y15920D1*
X10193Y15905D1*
X10198Y15890D1*
X10205Y15875D1*
X10625Y16085D2*
Y16070D1*
Y16055D1*
Y16040D1*
Y16025D1*
X10685Y16085D2*
Y16070D1*
Y16055D1*
Y16040D1*
Y16025D1*
X10910Y16085D2*
X10889Y16070D1*
X10871Y16055D1*
X10858Y16040D1*
X10849Y16025D1*
X10842Y16010D1*
X10838Y15995D1*
X10837Y15980D1*
X10836Y15965D1*
X10835Y15950D1*
Y15935D1*
Y15920D1*
X10775D1*
Y15905D1*
Y15890D1*
Y15875D1*
Y15860D1*
Y15845D1*
X10835D1*
Y15830D1*
Y15815D1*
Y15800D1*
Y15785D1*
Y15770D1*
Y15755D1*
Y15740D1*
Y15725D1*
Y15710D1*
Y15695D1*
Y15680D1*
Y15665D1*
Y15650D1*
Y15635D1*
Y15620D1*
Y15605D1*
Y15590D1*
Y15575D1*
Y15560D1*
Y15545D1*
Y15530D1*
Y15515D1*
Y15500D1*
Y15485D1*
Y15470D1*
X11000Y16085D2*
X11007Y16070D1*
X11012Y16055D1*
X10998Y16040D1*
X10967Y16025D1*
X10937Y16010D1*
X10912Y15995D1*
X10902Y15980D1*
X10898Y15965D1*
X10896Y15950D1*
Y15935D1*
X10895Y15920D1*
X10985D1*
Y15905D1*
Y15890D1*
Y15875D1*
Y15860D1*
Y15845D1*
X10895D1*
Y15830D1*
Y15815D1*
Y15800D1*
Y15785D1*
Y15770D1*
Y15755D1*
Y15740D1*
Y15725D1*
Y15710D1*
Y15695D1*
Y15680D1*
Y15665D1*
Y15650D1*
Y15635D1*
Y15620D1*
Y15605D1*
Y15590D1*
Y15575D1*
Y15560D1*
Y15545D1*
Y15530D1*
Y15515D1*
Y15500D1*
Y15485D1*
Y15470D1*
X11135Y16070D2*
X11118Y16055D1*
X11103Y16040D1*
X11096Y16025D1*
X11093Y16010D1*
X11091Y15995D1*
Y15980D1*
X11090Y15965D1*
Y15950D1*
Y15935D1*
Y15920D1*
X11030D1*
Y15905D1*
Y15890D1*
Y15875D1*
Y15860D1*
Y15845D1*
X11090D1*
Y15830D1*
Y15815D1*
Y15800D1*
Y15785D1*
Y15770D1*
Y15755D1*
Y15740D1*
Y15725D1*
Y15710D1*
Y15695D1*
Y15680D1*
Y15665D1*
Y15650D1*
Y15635D1*
Y15620D1*
Y15605D1*
Y15590D1*
Y15575D1*
Y15560D1*
X11091Y15545D1*
X11093Y15530D1*
X11097Y15515D1*
X11104Y15500D1*
X11115Y15485D1*
X11131Y15470D1*
X11150Y15455D1*
Y16070D2*
Y16055D1*
Y16040D1*
Y16025D1*
Y16010D1*
Y15995D1*
Y15980D1*
Y15965D1*
Y15950D1*
Y15935D1*
Y15920D1*
X11225D1*
Y15905D1*
Y15890D1*
Y15875D1*
Y15860D1*
Y15845D1*
X11150D1*
Y15830D1*
Y15815D1*
Y15800D1*
Y15785D1*
Y15770D1*
Y15755D1*
Y15740D1*
Y15725D1*
Y15710D1*
Y15695D1*
Y15680D1*
Y15665D1*
Y15650D1*
Y15635D1*
Y15620D1*
Y15605D1*
Y15590D1*
X11151Y15575D1*
X11153Y15560D1*
X11163Y15545D1*
X11184Y15530D1*
X11203Y15515D1*
X11217Y15500D1*
X11229Y15485D1*
X11240Y15470D1*
X11225Y15455D1*
X11780Y16070D2*
X11765Y16055D1*
X11750Y16040D1*
X11735Y16025D1*
X11720Y16010D1*
X11703Y15995D1*
X11683Y15980D1*
X11662Y15965D1*
X11640Y15950D1*
X11618Y15935D1*
X11600Y15920D1*
X11592Y15905D1*
X11588Y15890D1*
X11585Y15875D1*
X11810Y16070D2*
Y16055D1*
Y16040D1*
Y16025D1*
Y16010D1*
Y15995D1*
Y15980D1*
Y15965D1*
Y15950D1*
Y15935D1*
Y15920D1*
Y15905D1*
Y15890D1*
Y15875D1*
Y15860D1*
Y15845D1*
Y15830D1*
Y15815D1*
Y15800D1*
Y15785D1*
Y15770D1*
Y15755D1*
Y15740D1*
Y15725D1*
Y15710D1*
Y15695D1*
Y15680D1*
Y15665D1*
Y15650D1*
Y15635D1*
Y15620D1*
Y15605D1*
Y15590D1*
Y15575D1*
Y15560D1*
Y15545D1*
Y15530D1*
Y15515D1*
Y15500D1*
Y15485D1*
Y15470D1*
X12425Y16070D2*
X12396Y16055D1*
X12373Y16040D1*
X12354Y16025D1*
X12339Y16010D1*
X12327Y15995D1*
X12318Y15980D1*
X12310Y15965D1*
X12302Y15950D1*
X12297Y15935D1*
X12293Y15920D1*
X12291Y15905D1*
X12288Y15890D1*
X12284Y15875D1*
X12280Y15860D1*
X12278Y15845D1*
X12276Y15830D1*
Y15815D1*
X12275Y15800D1*
Y15785D1*
Y15770D1*
Y15755D1*
Y15740D1*
Y15725D1*
X12276Y15710D1*
X12278Y15695D1*
X12281Y15680D1*
X12285Y15665D1*
X12288Y15650D1*
X12290Y15635D1*
X12292Y15620D1*
X12297Y15605D1*
X12303Y15590D1*
X12309Y15575D1*
X12317Y15560D1*
X12325Y15545D1*
X12335Y15530D1*
X12349Y15515D1*
X12369Y15500D1*
X12395Y15485D1*
X12425Y15470D1*
X12515Y16070D2*
X12544Y16055D1*
X12568Y16040D1*
X12586Y16025D1*
X12601Y16010D1*
X12613Y15995D1*
X12622Y15980D1*
X12629Y15965D1*
X12635Y15950D1*
X12640Y15935D1*
X12645Y15920D1*
X12648Y15905D1*
X12652Y15890D1*
X12656Y15875D1*
X12660Y15860D1*
X12663Y15845D1*
X12664Y15830D1*
X12665Y15815D1*
Y15800D1*
Y15785D1*
Y15770D1*
Y15755D1*
Y15740D1*
Y15725D1*
Y15710D1*
X12663Y15695D1*
X12659Y15680D1*
X12655Y15665D1*
X12653Y15650D1*
X12651Y15635D1*
X12648Y15620D1*
X12644Y15605D1*
X12638Y15590D1*
X12631Y15575D1*
X12623Y15560D1*
X12614Y15545D1*
X12602Y15530D1*
X12588Y15515D1*
X12569Y15500D1*
X12544Y15485D1*
X12515Y15470D1*
X13010Y16070D2*
X12995Y16055D1*
X12980Y16040D1*
X12965Y16025D1*
X12950Y16010D1*
X12933Y15995D1*
X12913Y15980D1*
X12892Y15965D1*
X12870Y15950D1*
X12848Y15935D1*
X12830Y15920D1*
X12822Y15905D1*
X12818Y15890D1*
X12816Y15875D1*
X12815Y15860D1*
X13040Y16070D2*
Y16055D1*
Y16040D1*
Y16025D1*
Y16010D1*
Y15995D1*
Y15980D1*
Y15965D1*
Y15950D1*
Y15935D1*
Y15920D1*
Y15905D1*
Y15890D1*
Y15875D1*
Y15860D1*
Y15845D1*
Y15830D1*
Y15815D1*
Y15800D1*
Y15785D1*
Y15770D1*
Y15755D1*
Y15740D1*
Y15725D1*
Y15710D1*
Y15695D1*
Y15680D1*
Y15665D1*
Y15650D1*
Y15635D1*
Y15620D1*
Y15605D1*
Y15590D1*
Y15575D1*
Y15560D1*
Y15545D1*
Y15530D1*
Y15515D1*
Y15500D1*
Y15485D1*
Y15470D1*
X8135Y16010D2*
Y15995D1*
Y15980D1*
Y15965D1*
Y15950D1*
Y15935D1*
Y15920D1*
Y15905D1*
Y15890D1*
Y15875D1*
Y15860D1*
Y15845D1*
Y15830D1*
Y15815D1*
Y15800D1*
Y15785D1*
Y15770D1*
Y15755D1*
Y15740D1*
Y15725D1*
Y15710D1*
Y15695D1*
Y15680D1*
Y15665D1*
Y15650D1*
Y15635D1*
Y15620D1*
Y15605D1*
Y15590D1*
Y15575D1*
Y15560D1*
Y15545D1*
Y15530D1*
Y15515D1*
Y15500D1*
Y15485D1*
Y15470D1*
X8165Y16010D2*
X8166Y15995D1*
X8168Y15980D1*
X8171Y15965D1*
X8175Y15950D1*
X8178Y15935D1*
X8182Y15920D1*
X8186Y15905D1*
X8191Y15890D1*
X8195Y15875D1*
X8200Y15860D1*
X8205Y15845D1*
X8210Y15830D1*
X8215Y15815D1*
X8220Y15800D1*
X8223Y15785D1*
X8227Y15770D1*
X8231Y15755D1*
X8236Y15740D1*
X8240Y15725D1*
X8245Y15710D1*
X8250Y15695D1*
X8255Y15680D1*
X8260Y15665D1*
X8265Y15650D1*
X8270Y15635D1*
X8275Y15620D1*
X8280Y15605D1*
X8283Y15590D1*
X8287Y15575D1*
X8291Y15560D1*
X8296Y15545D1*
X8300Y15530D1*
X8305Y15515D1*
X8310Y15500D1*
X8313Y15485D1*
X8315Y15470D1*
X8555Y16010D2*
Y15995D1*
X8553Y15980D1*
X8549Y15965D1*
X8545Y15950D1*
X8542Y15935D1*
X8539Y15920D1*
X8534Y15905D1*
X8530Y15890D1*
X8525Y15875D1*
X8520Y15860D1*
X8515Y15845D1*
X8510Y15830D1*
X8505Y15815D1*
X8500Y15800D1*
X8495Y15785D1*
X8490Y15770D1*
X8486Y15755D1*
X8482Y15740D1*
X8479Y15725D1*
X8474Y15710D1*
X8470Y15695D1*
X8465Y15680D1*
X8460Y15665D1*
X8455Y15650D1*
X8450Y15635D1*
X8445Y15620D1*
X8440Y15605D1*
X8435Y15590D1*
X8430Y15575D1*
X8426Y15560D1*
X8422Y15545D1*
X8419Y15530D1*
X8415Y15515D1*
X8410Y15500D1*
X8407Y15485D1*
X8405Y15470D1*
X8585Y16010D2*
Y15995D1*
Y15980D1*
Y15965D1*
Y15950D1*
Y15935D1*
Y15920D1*
Y15905D1*
Y15890D1*
Y15875D1*
Y15860D1*
Y15845D1*
Y15830D1*
Y15815D1*
Y15800D1*
Y15785D1*
Y15770D1*
Y15755D1*
Y15740D1*
Y15725D1*
Y15710D1*
Y15695D1*
Y15680D1*
Y15665D1*
Y15650D1*
Y15635D1*
Y15620D1*
Y15605D1*
Y15590D1*
Y15575D1*
Y15560D1*
Y15545D1*
Y15530D1*
Y15515D1*
Y15500D1*
Y15485D1*
Y15470D1*
X12425Y16010D2*
X12410Y15995D1*
X12395Y15980D1*
X12381Y15965D1*
X12368Y15950D1*
X12359Y15935D1*
X12354Y15920D1*
X12349Y15905D1*
X12345Y15890D1*
X12340Y15875D1*
X12338Y15860D1*
X12336Y15845D1*
Y15830D1*
X12335Y15815D1*
Y15800D1*
Y15785D1*
Y15770D1*
Y15755D1*
Y15740D1*
Y15725D1*
Y15710D1*
Y15695D1*
X12336Y15680D1*
X12338Y15665D1*
X12341Y15650D1*
X12346Y15635D1*
X12351Y15620D1*
X12358Y15605D1*
X12369Y15590D1*
X12383Y15575D1*
X12416Y15560D1*
X12467Y15545D1*
X12530Y15530D1*
X12515Y16010D2*
X12530Y15995D1*
X12545Y15980D1*
X12560Y15965D1*
X12572Y15950D1*
X12582Y15935D1*
X12589Y15920D1*
X12595Y15905D1*
X12599Y15890D1*
X12602Y15875D1*
X12604Y15860D1*
X12605Y15845D1*
Y15830D1*
Y15815D1*
Y15800D1*
Y15785D1*
Y15770D1*
Y15755D1*
Y15740D1*
Y15725D1*
Y15710D1*
Y15695D1*
Y15680D1*
X12603Y15665D1*
X12599Y15650D1*
X12595Y15635D1*
X12589Y15620D1*
X12582Y15605D1*
X12571Y15590D1*
X12557Y15575D1*
X12525Y15560D1*
X12474Y15545D1*
X12410Y15530D1*
X9170Y15935D2*
X9141Y15920D1*
X9117Y15905D1*
X9095Y15890D1*
X9073Y15875D1*
X9050Y15860D1*
X9245Y15935D2*
X9272Y15920D1*
X9293Y15905D1*
X9309Y15890D1*
X9321Y15875D1*
X9330Y15860D1*
X9338Y15845D1*
X9344Y15830D1*
X9347Y15815D1*
X9349Y15800D1*
X9350Y15785D1*
Y15770D1*
Y15755D1*
Y15740D1*
Y15725D1*
Y15710D1*
Y15695D1*
Y15680D1*
Y15665D1*
Y15650D1*
Y15635D1*
Y15620D1*
Y15605D1*
Y15590D1*
Y15575D1*
Y15560D1*
Y15545D1*
Y15530D1*
Y15515D1*
Y15500D1*
Y15485D1*
Y15470D1*
X9785Y15935D2*
X9752Y15920D1*
X9726Y15905D1*
X9708Y15890D1*
X9695Y15875D1*
X9685Y15860D1*
X9678Y15845D1*
X9672Y15830D1*
X9668Y15815D1*
X9667Y15800D1*
X9668Y15785D1*
X9672Y15770D1*
X9678Y15755D1*
X9688Y15740D1*
X9701Y15725D1*
X9721Y15710D1*
X9749Y15695D1*
X9784Y15680D1*
X9825Y15665D1*
X9868Y15650D1*
X9905Y15635D1*
X9933Y15620D1*
X9953Y15605D1*
X9958Y15590D1*
X9956Y15575D1*
X9944Y15560D1*
X9908Y15545D1*
X9847Y15530D1*
X9770Y15515D1*
X9875Y15935D2*
X9909Y15920D1*
X9935Y15905D1*
X9953Y15890D1*
X9965Y15875D1*
X9975Y15860D1*
X9983Y15845D1*
X9990Y15830D1*
X9995Y15815D1*
X9950Y15800D1*
X10295Y15935D2*
X10268Y15920D1*
X10241Y15905D1*
X10216Y15890D1*
X10190Y15875D1*
X10370Y15935D2*
X10404Y15920D1*
X10430Y15905D1*
X10448Y15890D1*
X10460Y15875D1*
X10468Y15860D1*
X10474Y15845D1*
X10480Y15830D1*
X10485Y15815D1*
X10488Y15800D1*
X10489Y15785D1*
X10490Y15770D1*
Y15755D1*
Y15740D1*
Y15725D1*
Y15710D1*
Y15695D1*
Y15680D1*
Y15665D1*
Y15650D1*
Y15635D1*
Y15620D1*
Y15605D1*
Y15590D1*
Y15575D1*
Y15560D1*
Y15545D1*
Y15530D1*
Y15515D1*
Y15500D1*
Y15485D1*
Y15470D1*
X11735Y15950D2*
X11718Y15935D1*
X11698Y15920D1*
X11674Y15905D1*
X11646Y15890D1*
X11615Y15875D1*
X11750Y15950D2*
Y15935D1*
Y15920D1*
Y15905D1*
Y15890D1*
Y15875D1*
Y15860D1*
Y15845D1*
Y15830D1*
Y15815D1*
Y15800D1*
Y15785D1*
Y15770D1*
Y15755D1*
Y15740D1*
Y15725D1*
Y15710D1*
Y15695D1*
Y15680D1*
Y15665D1*
Y15650D1*
Y15635D1*
Y15620D1*
Y15605D1*
Y15590D1*
Y15575D1*
Y15560D1*
Y15545D1*
Y15530D1*
Y15515D1*
Y15500D1*
Y15485D1*
Y15470D1*
X12965Y15950D2*
X12948Y15935D1*
X12928Y15920D1*
X12905Y15905D1*
X12877Y15890D1*
X12847Y15875D1*
X12815Y15860D1*
X12980Y15950D2*
Y15935D1*
Y15920D1*
Y15905D1*
Y15890D1*
Y15875D1*
Y15860D1*
Y15845D1*
Y15830D1*
Y15815D1*
Y15800D1*
Y15785D1*
Y15770D1*
Y15755D1*
Y15740D1*
Y15725D1*
Y15710D1*
Y15695D1*
Y15680D1*
Y15665D1*
Y15650D1*
Y15635D1*
Y15620D1*
Y15605D1*
Y15590D1*
Y15575D1*
Y15560D1*
Y15545D1*
Y15530D1*
Y15515D1*
Y15500D1*
Y15485D1*
Y15470D1*
X8795Y15920D2*
Y15905D1*
Y15890D1*
Y15875D1*
Y15860D1*
Y15845D1*
Y15830D1*
Y15815D1*
Y15800D1*
Y15785D1*
Y15770D1*
Y15755D1*
Y15740D1*
Y15725D1*
Y15710D1*
Y15695D1*
Y15680D1*
Y15665D1*
Y15650D1*
Y15635D1*
Y15620D1*
Y15605D1*
Y15590D1*
Y15575D1*
Y15560D1*
Y15545D1*
Y15530D1*
Y15515D1*
Y15500D1*
Y15485D1*
Y15470D1*
X8855Y15920D2*
Y15905D1*
Y15890D1*
Y15875D1*
Y15860D1*
Y15845D1*
Y15830D1*
Y15815D1*
Y15800D1*
Y15785D1*
Y15770D1*
Y15755D1*
Y15740D1*
Y15725D1*
Y15710D1*
Y15695D1*
Y15680D1*
Y15665D1*
Y15650D1*
Y15635D1*
Y15620D1*
Y15605D1*
Y15590D1*
Y15575D1*
Y15560D1*
Y15545D1*
Y15530D1*
Y15515D1*
Y15500D1*
Y15485D1*
Y15470D1*
X8990Y15920D2*
Y15905D1*
Y15890D1*
Y15875D1*
Y15860D1*
Y15845D1*
Y15830D1*
Y15815D1*
Y15800D1*
Y15785D1*
Y15770D1*
Y15755D1*
Y15740D1*
Y15725D1*
Y15710D1*
Y15695D1*
Y15680D1*
Y15665D1*
Y15650D1*
Y15635D1*
Y15620D1*
Y15605D1*
Y15590D1*
Y15575D1*
Y15560D1*
Y15545D1*
Y15530D1*
Y15515D1*
Y15500D1*
Y15485D1*
Y15470D1*
X9050Y15920D2*
X9051Y15905D1*
X9053Y15890D1*
X9058Y15875D1*
X9065Y15860D1*
X9485Y15920D2*
Y15905D1*
Y15890D1*
Y15875D1*
Y15860D1*
Y15845D1*
Y15830D1*
Y15815D1*
Y15800D1*
Y15785D1*
Y15770D1*
Y15755D1*
Y15740D1*
Y15725D1*
Y15710D1*
Y15695D1*
Y15680D1*
Y15665D1*
Y15650D1*
Y15635D1*
Y15620D1*
Y15605D1*
Y15590D1*
Y15575D1*
Y15560D1*
Y15545D1*
Y15530D1*
Y15515D1*
Y15500D1*
Y15485D1*
Y15470D1*
X9545Y15920D2*
Y15905D1*
Y15890D1*
Y15875D1*
Y15860D1*
Y15845D1*
Y15830D1*
Y15815D1*
Y15800D1*
Y15785D1*
Y15770D1*
Y15755D1*
Y15740D1*
Y15725D1*
Y15710D1*
Y15695D1*
Y15680D1*
Y15665D1*
Y15650D1*
Y15635D1*
Y15620D1*
Y15605D1*
Y15590D1*
Y15575D1*
Y15560D1*
Y15545D1*
Y15530D1*
Y15515D1*
Y15500D1*
Y15485D1*
Y15470D1*
X10625Y15920D2*
Y15905D1*
Y15890D1*
Y15875D1*
Y15860D1*
Y15845D1*
Y15830D1*
Y15815D1*
Y15800D1*
Y15785D1*
Y15770D1*
Y15755D1*
Y15740D1*
Y15725D1*
Y15710D1*
Y15695D1*
Y15680D1*
Y15665D1*
Y15650D1*
Y15635D1*
Y15620D1*
Y15605D1*
Y15590D1*
Y15575D1*
Y15560D1*
Y15545D1*
Y15530D1*
Y15515D1*
Y15500D1*
Y15485D1*
Y15470D1*
X10685Y15920D2*
Y15905D1*
Y15890D1*
Y15875D1*
Y15860D1*
Y15845D1*
Y15830D1*
Y15815D1*
Y15800D1*
Y15785D1*
Y15770D1*
Y15755D1*
Y15740D1*
Y15725D1*
Y15710D1*
Y15695D1*
Y15680D1*
Y15665D1*
Y15650D1*
Y15635D1*
Y15620D1*
Y15605D1*
Y15590D1*
Y15575D1*
Y15560D1*
Y15545D1*
Y15530D1*
Y15515D1*
Y15500D1*
Y15485D1*
Y15470D1*
X9155Y15875D2*
X9128Y15860D1*
X9105Y15845D1*
X9087Y15830D1*
X9074Y15815D1*
X9064Y15800D1*
X9057Y15785D1*
X9053Y15770D1*
X9052Y15755D1*
X9051Y15740D1*
X9050Y15725D1*
Y15710D1*
Y15695D1*
Y15680D1*
Y15665D1*
Y15650D1*
Y15635D1*
Y15620D1*
Y15605D1*
Y15590D1*
Y15575D1*
Y15560D1*
Y15545D1*
Y15530D1*
Y15515D1*
Y15500D1*
Y15485D1*
Y15470D1*
X9200Y15875D2*
X9227Y15860D1*
X9248Y15845D1*
X9264Y15830D1*
X9275Y15815D1*
X9283Y15800D1*
X9287Y15785D1*
X9289Y15770D1*
X9290Y15755D1*
Y15740D1*
Y15725D1*
Y15710D1*
Y15695D1*
Y15680D1*
Y15665D1*
Y15650D1*
Y15635D1*
Y15620D1*
Y15605D1*
Y15590D1*
Y15575D1*
Y15560D1*
Y15545D1*
Y15530D1*
Y15515D1*
Y15500D1*
Y15485D1*
Y15470D1*
X9770Y15875D2*
X9756Y15860D1*
X9743Y15845D1*
X9733Y15830D1*
X9730Y15815D1*
X9735Y15800D1*
X9751Y15785D1*
X9778Y15770D1*
X9815Y15755D1*
X9858Y15740D1*
X9900Y15725D1*
X9937Y15710D1*
X9966Y15695D1*
X9987Y15680D1*
X10001Y15665D1*
X10011Y15650D1*
X10018Y15635D1*
X10022Y15620D1*
X10023Y15605D1*
X10022Y15590D1*
X10019Y15575D1*
X10015Y15560D1*
X10009Y15545D1*
X10002Y15530D1*
X9991Y15515D1*
X9975Y15500D1*
X9952Y15485D1*
X9923Y15470D1*
X9890Y15455D1*
X9875Y15875D2*
X9890Y15860D1*
X9905Y15845D1*
X9917Y15830D1*
X9927Y15815D1*
X9935Y15800D1*
X10295Y15875D2*
X10268Y15860D1*
X10245Y15845D1*
X10227Y15830D1*
X10214Y15815D1*
X10204Y15800D1*
X10197Y15785D1*
X10193Y15770D1*
X10192Y15755D1*
X10191Y15740D1*
X10190Y15725D1*
Y15710D1*
Y15695D1*
Y15680D1*
Y15665D1*
Y15650D1*
Y15635D1*
Y15620D1*
Y15605D1*
Y15590D1*
Y15575D1*
Y15560D1*
Y15545D1*
Y15530D1*
Y15515D1*
Y15500D1*
Y15485D1*
Y15470D1*
X10370Y15875D2*
X10385Y15860D1*
X10398Y15845D1*
X10408Y15830D1*
X10417Y15815D1*
X10423Y15800D1*
X10427Y15785D1*
X10429Y15770D1*
X10430Y15755D1*
Y15740D1*
Y15725D1*
Y15710D1*
Y15695D1*
Y15680D1*
Y15665D1*
Y15650D1*
Y15635D1*
Y15620D1*
Y15605D1*
Y15590D1*
Y15575D1*
Y15560D1*
Y15545D1*
Y15530D1*
Y15515D1*
Y15500D1*
Y15485D1*
Y15470D1*
X9695Y15605D2*
X9650Y15590D1*
X9658Y15575D1*
X9664Y15560D1*
X9670Y15545D1*
X9678Y15530D1*
X9687Y15515D1*
X9702Y15500D1*
X9724Y15485D1*
X9752Y15470D1*
X9785Y15455D1*
X9710Y15605D2*
X9716Y15590D1*
X9724Y15575D1*
X9735Y15560D1*
X9778Y15545D1*
X9847Y15530D1*
X9935Y15515D1*
X12065Y15530D2*
Y15515D1*
Y15500D1*
Y15485D1*
Y15470D1*
X12125Y15530D2*
Y15515D1*
Y15500D1*
Y15485D1*
Y15470D1*
X4544Y6343D2*
D52*
X4620Y6075D1*
X4697Y6343D1*
X4773Y6075D1*
X4850Y6343D1*
X5025D2*
X5101Y6075D1*
X5178Y6343D1*
X5254Y6075D1*
X5331Y6343D1*
X5506D2*
X5582Y6075D1*
X5659Y6343D1*
X5735Y6075D1*
X5812Y6343D1*
X6006Y6113D2*
X5987Y6094D1*
X6006Y6075D1*
X6025Y6094D1*
X6006Y6113D1*
X6430Y6343D2*
Y6075D1*
Y6285D2*
X6392Y6324D1*
X6353Y6343D1*
X6296D1*
X6258Y6324D1*
X6220Y6285D1*
X6200Y6228D1*
Y6190D1*
X6220Y6132D1*
X6258Y6094D1*
X6296Y6075D1*
X6353D1*
X6392Y6094D1*
X6430Y6132D1*
X6605Y6343D2*
Y6075D1*
Y6228D2*
X6624Y6285D1*
X6662Y6324D1*
X6701Y6343D1*
X6758D1*
X7163D2*
Y6075D1*
Y6285D2*
X7125Y6324D1*
X7086Y6343D1*
X7029D1*
X6991Y6324D1*
X6953Y6285D1*
X6933Y6228D1*
Y6190D1*
X6953Y6132D1*
X6991Y6094D1*
X7029Y6075D1*
X7086D1*
X7125Y6094D1*
X7163Y6132D1*
X7567Y6285D2*
X7529Y6324D1*
X7491Y6343D1*
X7433D1*
X7395Y6324D1*
X7357Y6285D1*
X7338Y6228D1*
Y6190D1*
X7357Y6132D1*
X7395Y6094D1*
X7433Y6075D1*
X7491D1*
X7529Y6094D1*
X7567Y6132D1*
X7742Y6477D2*
Y6075D1*
Y6266D2*
X7800Y6324D1*
X7838Y6343D1*
X7896D1*
X7934Y6324D1*
X7953Y6266D1*
Y6075D1*
X8128Y6343D2*
Y6075D1*
Y6266D2*
X8185Y6324D1*
X8224Y6343D1*
X8281D1*
X8319Y6324D1*
X8338Y6266D1*
Y6075D1*
X8513Y6477D2*
X8532Y6458D1*
X8552Y6477D1*
X8532Y6496D1*
X8513Y6477D1*
X8532Y6343D2*
Y6075D1*
X8956Y6477D2*
Y6075D1*
Y6285D2*
X8918Y6324D1*
X8880Y6343D1*
X8822D1*
X8784Y6324D1*
X8746Y6285D1*
X8727Y6228D1*
Y6190D1*
X8746Y6132D1*
X8784Y6094D1*
X8822Y6075D1*
X8880D1*
X8918Y6094D1*
X8956Y6132D1*
X9131Y6477D2*
Y6075D1*
X9536Y6343D2*
Y6075D1*
Y6285D2*
X9498Y6324D1*
X9459Y6343D1*
X9402D1*
X9364Y6324D1*
X9326Y6285D1*
X9306Y6228D1*
Y6190D1*
X9326Y6132D1*
X9364Y6094D1*
X9402Y6075D1*
X9459D1*
X9498Y6094D1*
X9536Y6132D1*
X9711Y6477D2*
Y6075D1*
Y6285D2*
X9749Y6324D1*
X9787Y6343D1*
X9845D1*
X9883Y6324D1*
X9921Y6285D1*
X9940Y6228D1*
Y6190D1*
X9921Y6132D1*
X9883Y6094D1*
X9845Y6075D1*
X9787D1*
X9749Y6094D1*
X9711Y6132D1*
X10326Y6285D2*
X10307Y6324D1*
X10249Y6343D1*
X10192D1*
X10134Y6324D1*
X10115Y6285D1*
X10134Y6247D1*
X10173Y6228D1*
X10268Y6209D1*
X10307Y6190D1*
X10326Y6151D1*
Y6132D1*
X10307Y6094D1*
X10249Y6075D1*
X10192D1*
X10134Y6094D1*
X10115Y6132D1*
X10520Y6113D2*
X10501Y6094D1*
X10520Y6075D1*
X10539Y6094D1*
X10520Y6113D1*
X10944Y6285D2*
X10905Y6324D1*
X10867Y6343D1*
X10810D1*
X10771Y6324D1*
X10733Y6285D1*
X10714Y6228D1*
Y6190D1*
X10733Y6132D1*
X10771Y6094D1*
X10810Y6075D1*
X10867D1*
X10905Y6094D1*
X10944Y6132D1*
X11214Y6343D2*
X11176Y6324D1*
X11138Y6285D1*
X11119Y6228D1*
Y6190D1*
X11138Y6132D1*
X11176Y6094D1*
X11214Y6075D1*
X11272D1*
X11310Y6094D1*
X11348Y6132D1*
X11368Y6190D1*
Y6228D1*
X11348Y6285D1*
X11310Y6324D1*
X11272Y6343D1*
X11214D1*
X11543D2*
Y6075D1*
Y6266D2*
X11600Y6324D1*
X11639Y6343D1*
X11696D1*
X11734Y6324D1*
X11753Y6266D1*
Y6075D1*
Y6266D2*
X11811Y6324D1*
X11849Y6343D1*
X11906D1*
X11945Y6324D1*
X11964Y6266D1*
Y6075D1*
X12139D2*
X12407Y6476D1*
X12582Y6343D2*
Y6075D1*
Y6266D2*
X12640Y6324D1*
X12678Y6343D1*
X12735D1*
X12774Y6324D1*
X12793Y6266D1*
Y6075D1*
Y6266D2*
X12850Y6324D1*
X12889Y6343D1*
X12946D1*
X12984Y6324D1*
X13003Y6266D1*
Y6075D1*
X13178Y6477D2*
X13197Y6458D1*
X13217Y6477D1*
X13197Y6496D1*
X13178Y6477D1*
X13197Y6343D2*
Y6075D1*
X13392Y6343D2*
Y6075D1*
Y6266D2*
X13449Y6324D1*
X13488Y6343D1*
X13545D1*
X13583Y6324D1*
X13602Y6266D1*
Y6075D1*
X13777Y6477D2*
X13796Y6458D1*
X13816Y6477D1*
X13796Y6496D1*
X13777Y6477D1*
X13796Y6343D2*
Y6075D1*
X14201Y6285D2*
X14182Y6324D1*
X14125Y6343D1*
X14067D1*
X14010Y6324D1*
X13991Y6285D1*
X14010Y6247D1*
X14048Y6228D1*
X14144Y6209D1*
X14182Y6190D1*
X14201Y6151D1*
Y6132D1*
X14182Y6094D1*
X14125Y6075D1*
X14067D1*
X14010Y6094D1*
X13991Y6132D1*
X14376Y6477D2*
Y6075D1*
Y6266D2*
X14434Y6324D1*
X14472Y6343D1*
X14530D1*
X14568Y6324D1*
X14587Y6266D1*
Y6075D1*
X14762Y6477D2*
X14781Y6458D1*
X14800Y6477D1*
X14781Y6496D1*
X14762Y6477D1*
X14781Y6343D2*
Y6075D1*
X15128Y6477D2*
X15090D1*
X15052Y6458D1*
X15033Y6400D1*
Y6075D1*
X14975Y6343D2*
X15109D1*
X15361Y6477D2*
Y6151D1*
X15380Y6094D1*
X15418Y6075D1*
X15456D1*
X15303Y6343D2*
X15437D1*
X15631Y6075D2*
X15899Y6476D1*
X14061Y8100D2*
D53*
X14032Y8071D1*
X14018Y8028D1*
Y7971D1*
X14032Y7928D1*
X14061Y7899D1*
X14090D1*
X14119Y7913D1*
X14133Y7928D1*
X14147Y7956D1*
X14176Y8042D1*
X14190Y8071D1*
X14205Y8085D1*
X14233Y8100D1*
X14276D1*
X14305Y8071D1*
X14320Y8028D1*
Y7971D1*
X14305Y7928D1*
X14276Y7899D1*
X14119Y8303D2*
X14133Y8274D1*
X14162Y8245D1*
X14205Y8231D1*
X14233D1*
X14276Y8245D1*
X14305Y8274D1*
X14320Y8303D1*
Y8346D1*
X14305Y8375D1*
X14276Y8403D1*
X14233Y8418D1*
X14205D1*
X14162Y8403D1*
X14133Y8375D1*
X14119Y8346D1*
Y8303D1*
X14018Y8549D2*
X14320D1*
X14018Y8852D2*
X14320D1*
X14162D2*
X14133Y8824D1*
X14119Y8795D1*
Y8752D1*
X14133Y8723D1*
X14162Y8694D1*
X14205Y8680D1*
X14233D1*
X14276Y8694D1*
X14305Y8723D1*
X14320Y8752D1*
Y8795D1*
X14305Y8824D1*
X14276Y8852D1*
X14205Y8983D2*
Y9156D1*
X14176D1*
X14147Y9141D1*
X14133Y9127D1*
X14119Y9098D1*
Y9055D1*
X14133Y9027D1*
X14162Y8998D1*
X14205Y8983D1*
X14233D1*
X14276Y8998D1*
X14305Y9027D1*
X14320Y9055D1*
Y9098D1*
X14305Y9127D1*
X14276Y9156D1*
X14119Y9287D2*
X14320D1*
X14205D2*
X14162Y9301D1*
X14133Y9330D1*
X14119Y9359D1*
Y9402D1*
X14162Y10036D2*
X14133Y10007D1*
X14119Y9978D1*
Y9935D1*
X14133Y9906D1*
X14162Y9878D1*
X14205Y9863D1*
X14233D1*
X14276Y9878D1*
X14305Y9906D1*
X14320Y9935D1*
Y9978D1*
X14305Y10007D1*
X14276Y10036D1*
X14119Y10239D2*
X14133Y10210D1*
X14162Y10181D1*
X14205Y10167D1*
X14233D1*
X14276Y10181D1*
X14305Y10210D1*
X14320Y10239D1*
Y10282D1*
X14305Y10311D1*
X14276Y10339D1*
X14233Y10354D1*
X14205D1*
X14162Y10339D1*
X14133Y10311D1*
X14119Y10282D1*
Y10239D1*
Y10485D2*
X14320D1*
X14176D2*
X14133Y10528D1*
X14119Y10557D1*
Y10600D1*
X14133Y10629D1*
X14176Y10643D1*
X14320D1*
X14119Y10774D2*
X14320D1*
X14176D2*
X14133Y10817D1*
X14119Y10846D1*
Y10889D1*
X14133Y10918D1*
X14176Y10932D1*
X14320D1*
X14205Y11063D2*
Y11235D1*
X14176D1*
X14147Y11221D1*
X14133Y11207D1*
X14119Y11178D1*
Y11135D1*
X14133Y11106D1*
X14162Y11077D1*
X14205Y11063D1*
X14233D1*
X14276Y11077D1*
X14305Y11106D1*
X14320Y11135D1*
Y11178D1*
X14305Y11207D1*
X14276Y11235D1*
X14162Y11539D2*
X14133Y11510D1*
X14119Y11481D1*
Y11438D1*
X14133Y11410D1*
X14162Y11381D1*
X14205Y11366D1*
X14233D1*
X14276Y11381D1*
X14305Y11410D1*
X14320Y11438D1*
Y11481D1*
X14305Y11510D1*
X14276Y11539D1*
X14018Y11713D2*
X14262D1*
X14305Y11728D1*
X14320Y11756D1*
Y11785D1*
X14119Y11670D2*
Y11771D1*
Y11988D2*
X14133Y11959D1*
X14162Y11930D1*
X14205Y11916D1*
X14233D1*
X14276Y11930D1*
X14305Y11959D1*
X14320Y11988D1*
Y12031D1*
X14305Y12060D1*
X14276Y12088D1*
X14233Y12103D1*
X14205D1*
X14162Y12088D1*
X14133Y12060D1*
X14119Y12031D1*
Y11988D1*
Y12234D2*
X14320D1*
X14205D2*
X14162Y12249D1*
X14133Y12277D1*
X14119Y12306D1*
Y12349D1*
X14162Y12638D2*
X14133Y12624D1*
X14119Y12581D1*
Y12538D1*
X14133Y12495D1*
X14162Y12480D1*
X14190Y12495D1*
X14205Y12523D1*
X14219Y12595D1*
X14233Y12624D1*
X14262Y12638D1*
X14276D1*
X14305Y12624D1*
X14320Y12581D1*
Y12538D1*
X14305Y12495D1*
X14276Y12480D1*
X14592Y8325D2*
X14894D1*
X14736D2*
X14707Y8353D1*
X14693Y8382D1*
Y8425D1*
X14707Y8454D1*
X14736Y8482D1*
X14779Y8497D1*
X14807D1*
X14851Y8482D1*
X14879Y8454D1*
X14894Y8425D1*
Y8382D1*
X14879Y8353D1*
X14851Y8325D1*
X14779Y8628D2*
Y8800D1*
X14750D1*
X14721Y8786D1*
X14707Y8772D1*
X14693Y8743D1*
Y8700D1*
X14707Y8671D1*
X14736Y8642D1*
X14779Y8628D1*
X14807D1*
X14851Y8642D1*
X14879Y8671D1*
X14894Y8700D1*
Y8743D1*
X14879Y8772D1*
X14851Y8800D1*
X14592Y9046D2*
Y9018D1*
X14606Y8989D1*
X14650Y8974D1*
X14894D1*
X14693Y8931D2*
Y9032D1*
Y9249D2*
X14707Y9220D1*
X14736Y9192D1*
X14779Y9177D1*
X14807D1*
X14851Y9192D1*
X14879Y9220D1*
X14894Y9249D1*
Y9292D1*
X14879Y9321D1*
X14851Y9349D1*
X14807Y9364D1*
X14779D1*
X14736Y9349D1*
X14707Y9321D1*
X14693Y9292D1*
Y9249D1*
Y9495D2*
X14894D1*
X14779D2*
X14736Y9510D1*
X14707Y9538D1*
X14693Y9567D1*
Y9610D1*
X14779Y9742D2*
Y9914D1*
X14750D1*
X14721Y9899D1*
X14707Y9885D1*
X14693Y9856D1*
Y9813D1*
X14707Y9785D1*
X14736Y9756D1*
X14779Y9742D1*
X14807D1*
X14851Y9756D1*
X14879Y9785D1*
X14894Y9813D1*
Y9856D1*
X14879Y9885D1*
X14851Y9914D1*
X14592Y10547D2*
X14894D1*
X14736D2*
X14707Y10519D1*
X14693Y10490D1*
Y10447D1*
X14707Y10418D1*
X14736Y10389D1*
X14779Y10375D1*
X14807D1*
X14851Y10389D1*
X14879Y10418D1*
X14894Y10447D1*
Y10490D1*
X14879Y10519D1*
X14851Y10547D1*
X14592Y10678D2*
X14606Y10693D1*
X14592Y10707D1*
X14578Y10693D1*
X14592Y10678D1*
X14693Y10693D2*
X14894D1*
X14736Y10996D2*
X14707Y10982D1*
X14693Y10939D1*
Y10896D1*
X14707Y10853D1*
X14736Y10839D1*
X14764Y10853D1*
X14779Y10882D1*
X14793Y10953D1*
X14807Y10982D1*
X14836Y10996D1*
X14851D1*
X14879Y10982D1*
X14894Y10939D1*
Y10896D1*
X14879Y10853D1*
X14851Y10839D1*
X14693Y11128D2*
X14994D1*
X14736D2*
X14707Y11156D1*
X14693Y11185D1*
Y11228D1*
X14707Y11257D1*
X14736Y11285D1*
X14779Y11300D1*
X14808D1*
X14851Y11285D1*
X14879Y11257D1*
X14894Y11228D1*
Y11185D1*
X14879Y11156D1*
X14851Y11128D1*
X14592Y11431D2*
X14894D1*
X14693Y11735D2*
X14894D1*
X14736D2*
X14707Y11706D1*
X14693Y11677D1*
Y11634D1*
X14707Y11606D1*
X14736Y11577D1*
X14779Y11563D1*
X14807D1*
X14851Y11577D1*
X14879Y11606D1*
X14894Y11634D1*
Y11677D1*
X14879Y11706D1*
X14851Y11735D1*
X14693Y11880D2*
X14894Y11966D1*
X14951Y11938D1*
X14980Y11909D1*
X14994Y11880D1*
Y11866D1*
X14693Y12053D2*
X14894Y11966D1*
X14593Y12198D2*
X14793D1*
X14865D2*
X14879Y12184D1*
X14894Y12198D1*
X14879Y12213D1*
X14865Y12198D1*
M02*
