G04 DipTrace 2.4.0.1*
%INminishift.backmask.gbs*%
%MOIN*%
%ADD30C,0.125*%
%ADD31C,0.04*%
%ADD37R,0.0295X0.0453*%
%ADD39C,0.0787*%
%ADD41R,0.0787X0.0787*%
%ADD43R,0.0276X0.0748*%
%ADD45R,0.0748X0.0276*%
%ADD47C,0.0879*%
%ADD49R,0.0472X0.0512*%
%FSLAX44Y44*%
G04*
G70*
G90*
G75*
G01*
%LNBotMask*%
%LPD*%
D49*
X6312Y12188D3*
Y11519D3*
X6937Y12188D3*
Y11519D3*
D47*
X5500Y8250D3*
Y9250D3*
Y10250D3*
Y11250D3*
Y12250D3*
X12500D3*
Y11250D3*
Y10250D3*
Y9250D3*
Y8250D3*
D30*
X15250Y15250D3*
X15251Y5125D3*
X5250Y5250D3*
Y15250D3*
D45*
X11250Y11250D3*
Y10935D3*
Y10620D3*
Y10305D3*
Y9990D3*
Y9675D3*
Y9360D3*
Y9045D3*
D43*
X10699Y8494D3*
X10384D3*
X10069D3*
X9754D3*
X9439D3*
X9124D3*
X8809D3*
X8494D3*
D45*
X7943Y9045D3*
Y9360D3*
Y9675D3*
Y9990D3*
Y10305D3*
Y10620D3*
Y10935D3*
Y11250D3*
D43*
X8494Y11801D3*
X8809D3*
X9124D3*
X9439D3*
X9754D3*
X10069D3*
X10384D3*
X10699D3*
D41*
X13750Y5526D3*
D39*
X12750D3*
X11750D3*
X10750D3*
X9750D3*
X8750D3*
X7750D3*
X6750D3*
Y14975D3*
X7750D3*
X8750D3*
X9750D3*
X10750D3*
X11750D3*
X12750D3*
X13750D3*
D37*
X11000Y12750D3*
X10685D3*
X10370D3*
X10055D3*
Y13459D3*
X10370D3*
X10685D3*
X11000D3*
X10055Y7625D3*
X10370D3*
X10685D3*
X11000D3*
Y6917D3*
X10685D3*
X10370D3*
X10055D3*
D31*
X15625Y13750D3*
X13625Y13350D3*
Y14150D3*
M02*
