G04 DipTrace 2.3.1.0*
%INminishift_Top.gtl*%
%MOIN*%
%ADD13C,0.02*%
%ADD15C,0.01*%
%ADD16C,0.006*%
%ADD17C,0.013*%
%ADD19C,0.08*%
%ADD23R,0.0709X0.0709*%
%ADD24C,0.0709*%
%ADD27C,0.031*%
%ADD29C,0.0236*%
%FSLAX44Y44*%
G04*
G70*
G90*
G75*
G01*
%LNTop*%
%LPD*%
X14111Y13486D2*
D13*
Y13236D1*
X13361Y12486D1*
Y11236D1*
X12486D2*
X5486D1*
X8416Y10291D2*
X8861Y10736D1*
X10424D1*
X12486Y9236D2*
D15*
X12236D1*
X12111Y9361D1*
X5611D1*
X5486Y9236D1*
X9110Y7986D2*
X11236D1*
X12486Y9236D1*
X15111Y13986D2*
Y14236D1*
X14361Y13111D2*
Y12861D1*
X13611Y12111D1*
Y8486D1*
X12736Y7611D1*
X12486D1*
X8480D1*
X12486Y8236D2*
Y7611D1*
X8736Y7986D2*
X8361D1*
X8236Y7861D1*
Y7361D1*
X12861D1*
X13861Y8361D1*
Y11986D1*
X14611Y12736D1*
Y13486D1*
X5486Y8236D2*
X6361Y7361D1*
X8236D1*
X10736Y14961D2*
Y13861D1*
X10486Y13611D1*
X7111D1*
X7361Y10611D2*
Y9986D1*
X9486Y9111D2*
X9111Y8736D1*
X7861D1*
Y6861D2*
X10486D1*
X10736Y6611D1*
Y5512D1*
X7736Y14961D2*
Y14111D1*
X7986Y13861D1*
X9110D1*
X8861Y9111D2*
X8736Y8986D1*
X7736D1*
X7611Y8861D1*
Y8486D1*
Y6611D2*
X8486D1*
X8736Y6361D1*
Y5512D1*
Y14961D2*
Y14736D1*
X8486Y14486D1*
Y14111D1*
X7929Y13361D2*
X11111D1*
X12711Y14961D1*
X12736D1*
X13736D2*
X13711D1*
X12986Y14236D1*
X12361D1*
X11236Y13111D1*
X7361D1*
X11736Y5512D2*
Y6861D1*
X11486Y7111D1*
X8111D1*
Y8486D2*
X10486D1*
X10611Y8611D1*
Y9111D1*
X14111Y13986D2*
X13861Y13736D1*
X12986D1*
X12486Y13236D1*
X9611Y12611D2*
X11861D1*
X12486Y13236D1*
X14611Y13986D2*
Y14236D1*
X12486Y10236D2*
X13111Y10861D1*
Y12736D1*
X5486Y10236D2*
X6111Y9611D1*
X11861D1*
X12486Y10236D1*
X5486Y12236D2*
D13*
X12486D1*
X15111Y13486D2*
Y12611D1*
X14736Y12236D1*
X10736Y10291D2*
X10119D1*
X9986Y10424D1*
X8924D1*
X8736Y10236D1*
Y9986D1*
X8611Y9861D1*
X10736Y10291D2*
X11416D1*
X11986Y10861D1*
D29*
X13361Y11236D3*
X8416Y10291D3*
X10424Y10736D3*
X9110Y7986D3*
X15111Y14236D3*
X14361Y13111D3*
X8480Y7611D3*
X8736Y7986D3*
X7111Y13611D3*
X7361Y10611D3*
Y9986D3*
X9486Y9111D3*
X7861Y8736D3*
Y6861D3*
X9110Y13861D3*
X8861Y9111D3*
X7611Y8486D3*
Y6611D3*
X8486Y14111D3*
X7929Y13361D3*
X7361Y13111D3*
X8111Y7111D3*
Y8486D3*
X10611Y9111D3*
X9611Y12611D3*
X14611Y14236D3*
X13111Y12736D3*
X14611Y14236D3*
X14736Y12236D3*
X10736Y10291D3*
X8611Y9861D3*
X11986Y10861D3*
X10736Y10291D3*
X4233Y16187D2*
D16*
X16239D1*
X4233Y16128D2*
X16239D1*
X4233Y16070D2*
X16239D1*
X4233Y16011D2*
X16239D1*
X4233Y15952D2*
X4969D1*
X5504D2*
X14969D1*
X15504D2*
X16239D1*
X4233Y15893D2*
X4844D1*
X5628D2*
X14844D1*
X15629D2*
X16239D1*
X4233Y15835D2*
X4759D1*
X5715D2*
X14758D1*
X15714D2*
X16239D1*
X4233Y15776D2*
X4692D1*
X5780D2*
X14692D1*
X15781D2*
X16239D1*
X4233Y15717D2*
X4639D1*
X5834D2*
X14639D1*
X15833D2*
X16239D1*
X4233Y15659D2*
X4595D1*
X5877D2*
X14596D1*
X15877D2*
X16239D1*
X4233Y15600D2*
X4561D1*
X5912D2*
X14560D1*
X15912D2*
X16239D1*
X4233Y15541D2*
X4532D1*
X5941D2*
X14532D1*
X15941D2*
X16239D1*
X4233Y15483D2*
X4509D1*
X5964D2*
X14509D1*
X15963D2*
X16239D1*
X4233Y15424D2*
X4491D1*
X5981D2*
X6582D1*
X6891D2*
X7581D1*
X7891D2*
X8582D1*
X8891D2*
X9582D1*
X9891D2*
X10581D1*
X10891D2*
X11582D1*
X11891D2*
X12582D1*
X12891D2*
X13581D1*
X13891D2*
X14492D1*
X15981D2*
X16239D1*
X4233Y15365D2*
X4479D1*
X5994D2*
X6460D1*
X7012D2*
X7460D1*
X8012D2*
X8460D1*
X9013D2*
X9460D1*
X10012D2*
X10460D1*
X11012D2*
X11460D1*
X12013D2*
X12460D1*
X13012D2*
X13460D1*
X14012D2*
X14479D1*
X15993D2*
X16239D1*
X4233Y15307D2*
X4472D1*
X6001D2*
X6388D1*
X7084D2*
X7388D1*
X8085D2*
X8388D1*
X9084D2*
X9388D1*
X10084D2*
X10388D1*
X11085D2*
X11388D1*
X12084D2*
X12388D1*
X13084D2*
X13388D1*
X14085D2*
X14471D1*
X16001D2*
X16239D1*
X4233Y15248D2*
X4468D1*
X6004D2*
X6337D1*
X7135D2*
X7338D1*
X8135D2*
X8338D1*
X9135D2*
X9337D1*
X10135D2*
X10338D1*
X11135D2*
X11338D1*
X12135D2*
X12337D1*
X13135D2*
X13338D1*
X14135D2*
X14468D1*
X16005D2*
X16239D1*
X4233Y15189D2*
X4470D1*
X6003D2*
X6301D1*
X7171D2*
X7301D1*
X8172D2*
X8300D1*
X9172D2*
X9301D1*
X10171D2*
X10301D1*
X11172D2*
X11300D1*
X12172D2*
X12301D1*
X13171D2*
X13301D1*
X14172D2*
X14469D1*
X16003D2*
X16239D1*
X4233Y15131D2*
X4475D1*
X5997D2*
X6274D1*
X7199D2*
X7274D1*
X8198D2*
X8274D1*
X9198D2*
X9274D1*
X10199D2*
X10274D1*
X11198D2*
X11274D1*
X12198D2*
X12274D1*
X13199D2*
X13274D1*
X14198D2*
X14476D1*
X15997D2*
X16239D1*
X4233Y15072D2*
X4486D1*
X5986D2*
X6257D1*
X7216D2*
X7257D1*
X8216D2*
X8256D1*
X9216D2*
X9256D1*
X10216D2*
X10257D1*
X11216D2*
X11256D1*
X12216D2*
X12256D1*
X13216D2*
X13257D1*
X14216D2*
X14486D1*
X15987D2*
X16239D1*
X4233Y15013D2*
X4502D1*
X5971D2*
X6246D1*
X14226D2*
X14501D1*
X15971D2*
X16239D1*
X4233Y14954D2*
X4522D1*
X5951D2*
X6244D1*
X14229D2*
X14522D1*
X15950D2*
X16239D1*
X4233Y14896D2*
X4549D1*
X5925D2*
X6248D1*
X14224D2*
X14548D1*
X15924D2*
X16239D1*
X4233Y14837D2*
X4580D1*
X5892D2*
X6259D1*
X7213D2*
X7260D1*
X8213D2*
X8259D1*
X9213D2*
X9260D1*
X10213D2*
X10260D1*
X11213D2*
X11259D1*
X12213D2*
X12260D1*
X13213D2*
X13260D1*
X14213D2*
X14581D1*
X15892D2*
X16239D1*
X4233Y14778D2*
X4621D1*
X5851D2*
X6279D1*
X7193D2*
X7279D1*
X8193D2*
X8279D1*
X9194D2*
X9279D1*
X10193D2*
X10279D1*
X11193D2*
X11279D1*
X12194D2*
X12265D1*
X13193D2*
X13264D1*
X14193D2*
X14621D1*
X15852D2*
X16239D1*
X4233Y14720D2*
X4669D1*
X5803D2*
X6307D1*
X7165D2*
X7308D1*
X8165D2*
X8308D1*
X9165D2*
X9307D1*
X10165D2*
X10308D1*
X11165D2*
X11308D1*
X12165D2*
X12206D1*
X13165D2*
X13206D1*
X14165D2*
X14670D1*
X15803D2*
X16239D1*
X4233Y14661D2*
X4730D1*
X5743D2*
X6347D1*
X7126D2*
X7347D1*
X8126D2*
X8347D1*
X9125D2*
X9347D1*
X10126D2*
X10347D1*
X11126D2*
X11347D1*
X14126D2*
X14730D1*
X15742D2*
X16239D1*
X4233Y14602D2*
X4807D1*
X5666D2*
X6401D1*
X7071D2*
X7401D1*
X8071D2*
X8340D1*
X9072D2*
X9401D1*
X10071D2*
X10401D1*
X11071D2*
X11401D1*
X14071D2*
X14807D1*
X15665D2*
X16239D1*
X4233Y14544D2*
X4912D1*
X5561D2*
X6480D1*
X6993D2*
X7479D1*
X7993D2*
X8307D1*
X8993D2*
X9480D1*
X9993D2*
X10479D1*
X10993D2*
X11479D1*
X11993D2*
X12030D1*
X12993D2*
X13031D1*
X13993D2*
X14912D1*
X15560D2*
X16239D1*
X4233Y14485D2*
X5101D1*
X5371D2*
X6628D1*
X6845D2*
X7548D1*
X7924D2*
X8298D1*
X8845D2*
X9628D1*
X9845D2*
X10548D1*
X10924D2*
X11628D1*
X11845D2*
X11972D1*
X12498D2*
X12628D1*
X12845D2*
X12971D1*
X13499D2*
X13627D1*
X13845D2*
X14577D1*
X14646D2*
X15077D1*
X15372D2*
X16239D1*
X4233Y14426D2*
X7548D1*
X7924D2*
X8298D1*
X8690D2*
X10548D1*
X10924D2*
X11913D1*
X12440D2*
X12913D1*
X13779D2*
X14442D1*
X14780D2*
X14943D1*
X15280D2*
X16239D1*
X4233Y14368D2*
X7548D1*
X7924D2*
X8298D1*
X8674D2*
X10548D1*
X10924D2*
X11854D1*
X13856D2*
X14392D1*
X14831D2*
X14892D1*
X15331D2*
X16239D1*
X4233Y14309D2*
X7548D1*
X7924D2*
X8298D1*
X8674D2*
X10548D1*
X10924D2*
X11795D1*
X13901D2*
X14366D1*
X15357D2*
X16239D1*
X4233Y14250D2*
X7548D1*
X7924D2*
X8272D1*
X8701D2*
X10548D1*
X10924D2*
X11736D1*
X13929D2*
X13992D1*
X14231D2*
X14356D1*
X15367D2*
X16239D1*
X4233Y14192D2*
X7548D1*
X7924D2*
X8243D1*
X8730D2*
X10548D1*
X10924D2*
X11678D1*
X13205D2*
X13278D1*
X14318D2*
X14358D1*
X15363D2*
X16239D1*
X4233Y14133D2*
X7548D1*
X7979D2*
X8231D1*
X8742D2*
X10548D1*
X10924D2*
X11619D1*
X13147D2*
X13273D1*
X15364D2*
X16239D1*
X4233Y14074D2*
X7551D1*
X8037D2*
X8233D1*
X8740D2*
X8973D1*
X9248D2*
X10548D1*
X10924D2*
X11560D1*
X13076D2*
X13279D1*
X15391D2*
X16239D1*
X4233Y14015D2*
X7575D1*
X9314D2*
X10548D1*
X10924D2*
X11502D1*
X12405D2*
X13295D1*
X15797D2*
X16239D1*
X4233Y13957D2*
X7627D1*
X9347D2*
X10548D1*
X10924D2*
X11443D1*
X12346D2*
X13325D1*
X15866D2*
X16239D1*
X4233Y13898D2*
X7685D1*
X9364D2*
X10509D1*
X10924D2*
X11385D1*
X12286D2*
X12896D1*
X15907D2*
X16239D1*
X4233Y13839D2*
X7002D1*
X7220D2*
X7744D1*
X9365D2*
X10451D1*
X10923D2*
X11326D1*
X12228D2*
X12826D1*
X15933D2*
X16239D1*
X4233Y13781D2*
X6921D1*
X10906D2*
X11267D1*
X12169D2*
X12767D1*
X15946D2*
X16239D1*
X4233Y13722D2*
X6881D1*
X10861D2*
X11209D1*
X12111D2*
X12453D1*
X12520D2*
X12709D1*
X15949D2*
X16239D1*
X4233Y13663D2*
X6860D1*
X10802D2*
X11149D1*
X12052D2*
X12247D1*
X15942D2*
X16239D1*
X4233Y13605D2*
X6855D1*
X10743D2*
X11091D1*
X11993D2*
X12162D1*
X15922D2*
X16239D1*
X4233Y13546D2*
X6863D1*
X10684D2*
X11032D1*
X11935D2*
X12105D1*
X13060D2*
X13348D1*
X15889D2*
X16239D1*
X4233Y13487D2*
X6888D1*
X11876D2*
X12064D1*
X13001D2*
X13309D1*
X15838D2*
X16239D1*
X4233Y13429D2*
X6934D1*
X7289D2*
X7682D1*
X11818D2*
X12034D1*
X12943D2*
X13286D1*
X15399D2*
X15480D1*
X15743D2*
X16239D1*
X4233Y13370D2*
X7039D1*
X7184D2*
X7673D1*
X11759D2*
X12012D1*
X12961D2*
X13275D1*
X15380D2*
X16239D1*
X4233Y13311D2*
X7204D1*
X7518D2*
X7678D1*
X11700D2*
X12000D1*
X12973D2*
X13274D1*
X15349D2*
X16239D1*
X4233Y13253D2*
X7148D1*
X11641D2*
X11994D1*
X12978D2*
X13284D1*
X14800D2*
X14873D1*
X15349D2*
X16239D1*
X4233Y13194D2*
X7119D1*
X11582D2*
X11995D1*
X12977D2*
X13305D1*
X13918D2*
X14119D1*
X14800D2*
X14873D1*
X15349D2*
X16239D1*
X4233Y13135D2*
X7106D1*
X11524D2*
X12004D1*
X12968D2*
X13340D1*
X13882D2*
X14106D1*
X14800D2*
X14873D1*
X15349D2*
X16239D1*
X4233Y13076D2*
X7107D1*
X11465D2*
X12020D1*
X12952D2*
X13398D1*
X13824D2*
X14107D1*
X14800D2*
X14873D1*
X15349D2*
X16239D1*
X4233Y13018D2*
X7123D1*
X11406D2*
X12004D1*
X12927D2*
X13510D1*
X13712D2*
X14123D1*
X14800D2*
X14873D1*
X15349D2*
X16239D1*
X4233Y12959D2*
X7157D1*
X11342D2*
X11945D1*
X12892D2*
X12991D1*
X13231D2*
X14156D1*
X14800D2*
X14873D1*
X15349D2*
X16239D1*
X4233Y12900D2*
X7220D1*
X7502D2*
X11886D1*
X12844D2*
X12917D1*
X13306D2*
X14136D1*
X14800D2*
X14873D1*
X15349D2*
X16239D1*
X4233Y12842D2*
X9508D1*
X9715D2*
X11828D1*
X12777D2*
X12878D1*
X13344D2*
X14078D1*
X14800D2*
X14873D1*
X15349D2*
X16239D1*
X4233Y12783D2*
X9424D1*
X12669D2*
X12859D1*
X13364D2*
X14019D1*
X14800D2*
X14873D1*
X15349D2*
X16239D1*
X4233Y12724D2*
X5268D1*
X5704D2*
X9382D1*
X12705D2*
X12855D1*
X13367D2*
X13961D1*
X14799D2*
X14873D1*
X15349D2*
X16239D1*
X4233Y12666D2*
X5165D1*
X5806D2*
X9361D1*
X12807D2*
X12865D1*
X13357D2*
X13902D1*
X14785D2*
X14831D1*
X15349D2*
X16239D1*
X4233Y12607D2*
X5098D1*
X5874D2*
X9355D1*
X13332D2*
X13843D1*
X15349D2*
X16239D1*
X4233Y12548D2*
X5049D1*
X5924D2*
X9363D1*
X13300D2*
X13785D1*
X15341D2*
X16239D1*
X4233Y12490D2*
X5013D1*
X5960D2*
X9386D1*
X13300D2*
X13726D1*
X15316D2*
X16239D1*
X4233Y12431D2*
X4984D1*
X13300D2*
X13668D1*
X15266D2*
X16239D1*
X4233Y12372D2*
X4966D1*
X13300D2*
X13609D1*
X15207D2*
X16239D1*
X4233Y12314D2*
X4954D1*
X13300D2*
X13549D1*
X14452D2*
X14492D1*
X15148D2*
X16239D1*
X4233Y12255D2*
X4948D1*
X13300D2*
X13491D1*
X14394D2*
X14480D1*
X15090D2*
X16239D1*
X4233Y12196D2*
X4950D1*
X13300D2*
X13444D1*
X14335D2*
X14483D1*
X15031D2*
X16239D1*
X4233Y12137D2*
X4957D1*
X13300D2*
X13425D1*
X14276D2*
X14500D1*
X14972D2*
X16239D1*
X4233Y12079D2*
X4971D1*
X13300D2*
X13423D1*
X14218D2*
X14536D1*
X14937D2*
X16239D1*
X4233Y12020D2*
X4994D1*
X13300D2*
X13423D1*
X14159D2*
X14604D1*
X14868D2*
X16239D1*
X4233Y11961D2*
X5025D1*
X5948D2*
X12024D1*
X13300D2*
X13423D1*
X14101D2*
X16239D1*
X4233Y11903D2*
X5065D1*
X5907D2*
X12065D1*
X13300D2*
X13423D1*
X14050D2*
X16239D1*
X4233Y11844D2*
X5120D1*
X5852D2*
X12121D1*
X13300D2*
X13423D1*
X14050D2*
X16239D1*
X4233Y11785D2*
X5197D1*
X5776D2*
X12198D1*
X13300D2*
X13423D1*
X14050D2*
X16239D1*
X4233Y11727D2*
X5273D1*
X5699D2*
X12274D1*
X13300D2*
X13423D1*
X14050D2*
X16239D1*
X4233Y11668D2*
X5169D1*
X5804D2*
X12169D1*
X13300D2*
X13423D1*
X14050D2*
X16239D1*
X4233Y11609D2*
X5101D1*
X5872D2*
X12101D1*
X13300D2*
X13423D1*
X14050D2*
X16239D1*
X4233Y11551D2*
X5051D1*
X5922D2*
X12050D1*
X13300D2*
X13423D1*
X14050D2*
X16239D1*
X4233Y11492D2*
X5014D1*
X5959D2*
X12014D1*
X13300D2*
X13423D1*
X14050D2*
X16239D1*
X4233Y11433D2*
X4985D1*
X5986D2*
X11986D1*
X13300D2*
X13423D1*
X14050D2*
X16239D1*
X4233Y11375D2*
X4967D1*
X6006D2*
X11966D1*
X13300D2*
X13423D1*
X14050D2*
X16239D1*
X4233Y11316D2*
X4954D1*
X6018D2*
X11954D1*
X13300D2*
X13423D1*
X14050D2*
X16239D1*
X4233Y11257D2*
X4949D1*
X6024D2*
X11948D1*
X13300D2*
X13423D1*
X14050D2*
X16239D1*
X4233Y11198D2*
X4950D1*
X6023D2*
X11949D1*
X13300D2*
X13423D1*
X14050D2*
X16239D1*
X4233Y11140D2*
X4956D1*
X6016D2*
X11957D1*
X13300D2*
X13423D1*
X14050D2*
X16239D1*
X4233Y11081D2*
X4971D1*
X6001D2*
X11860D1*
X13300D2*
X13423D1*
X14050D2*
X16239D1*
X4233Y11022D2*
X4993D1*
X5980D2*
X11789D1*
X13300D2*
X13423D1*
X14050D2*
X16239D1*
X4233Y10964D2*
X5023D1*
X5950D2*
X11751D1*
X13300D2*
X13423D1*
X14050D2*
X16239D1*
X4233Y10905D2*
X5063D1*
X5909D2*
X11695D1*
X13300D2*
X13423D1*
X14050D2*
X16239D1*
X4233Y10846D2*
X5118D1*
X5854D2*
X7269D1*
X7454D2*
X11637D1*
X13299D2*
X13423D1*
X14050D2*
X16239D1*
X4233Y10788D2*
X5194D1*
X5778D2*
X7177D1*
X7545D2*
X11578D1*
X13284D2*
X13423D1*
X14050D2*
X16239D1*
X4233Y10729D2*
X5279D1*
X5694D2*
X7134D1*
X7589D2*
X11520D1*
X13243D2*
X13423D1*
X14050D2*
X16239D1*
X4233Y10670D2*
X5172D1*
X5800D2*
X7112D1*
X7610D2*
X11461D1*
X13184D2*
X13423D1*
X14050D2*
X16239D1*
X4233Y10612D2*
X5103D1*
X5869D2*
X7105D1*
X7618D2*
X8781D1*
X10129D2*
X11402D1*
X13126D2*
X13423D1*
X14050D2*
X16239D1*
X4233Y10553D2*
X5052D1*
X5920D2*
X7112D1*
X7611D2*
X8719D1*
X10191D2*
X11344D1*
X13066D2*
X13423D1*
X14050D2*
X16239D1*
X4233Y10494D2*
X5014D1*
X5957D2*
X7134D1*
X7589D2*
X8659D1*
X13008D2*
X13423D1*
X14050D2*
X16239D1*
X4233Y10436D2*
X4986D1*
X5986D2*
X7173D1*
X7549D2*
X8601D1*
X12986D2*
X13423D1*
X14050D2*
X16239D1*
X4233Y10377D2*
X4967D1*
X6005D2*
X7173D1*
X7549D2*
X8545D1*
X13006D2*
X13423D1*
X14050D2*
X16239D1*
X4233Y10318D2*
X4954D1*
X6018D2*
X7173D1*
X7549D2*
X8513D1*
X13018D2*
X13423D1*
X14050D2*
X16239D1*
X4233Y10259D2*
X4949D1*
X6024D2*
X7173D1*
X7549D2*
X8499D1*
X13024D2*
X13423D1*
X14050D2*
X16239D1*
X4233Y10201D2*
X4949D1*
X6023D2*
X7173D1*
X7549D2*
X8498D1*
X13023D2*
X13423D1*
X14050D2*
X16239D1*
X4233Y10142D2*
X4956D1*
X6016D2*
X7159D1*
X7563D2*
X8498D1*
X13016D2*
X13423D1*
X14050D2*
X16239D1*
X4233Y10083D2*
X4970D1*
X6002D2*
X7125D1*
X7598D2*
X8490D1*
X13002D2*
X13423D1*
X14050D2*
X16239D1*
X4233Y10025D2*
X4992D1*
X5981D2*
X7108D1*
X7615D2*
X8416D1*
X12980D2*
X13423D1*
X14050D2*
X16239D1*
X4233Y9966D2*
X5022D1*
X6020D2*
X7106D1*
X7617D2*
X8378D1*
X12951D2*
X13423D1*
X14050D2*
X16239D1*
X4233Y9907D2*
X5061D1*
X6079D2*
X7117D1*
X7605D2*
X8359D1*
X12911D2*
X13423D1*
X14050D2*
X16239D1*
X4233Y9849D2*
X5116D1*
X6137D2*
X7146D1*
X7576D2*
X8355D1*
X12857D2*
X13423D1*
X14050D2*
X16239D1*
X4233Y9790D2*
X5190D1*
X12782D2*
X13423D1*
X14050D2*
X16239D1*
X4233Y9731D2*
X5284D1*
X12688D2*
X13423D1*
X14050D2*
X16239D1*
X4233Y9673D2*
X5176D1*
X12797D2*
X13423D1*
X14050D2*
X16239D1*
X4233Y9614D2*
X5105D1*
X12868D2*
X13423D1*
X14050D2*
X16239D1*
X4233Y9555D2*
X5054D1*
X12918D2*
X13423D1*
X14050D2*
X16239D1*
X4233Y9497D2*
X5016D1*
X12957D2*
X13423D1*
X14050D2*
X16239D1*
X4233Y9438D2*
X4987D1*
X12985D2*
X13423D1*
X14050D2*
X16239D1*
X4233Y9379D2*
X4968D1*
X13005D2*
X13423D1*
X14050D2*
X16239D1*
X4233Y9320D2*
X4954D1*
X13018D2*
X13423D1*
X14050D2*
X16239D1*
X4233Y9262D2*
X4949D1*
X13024D2*
X13423D1*
X14050D2*
X16239D1*
X4233Y9203D2*
X4949D1*
X13023D2*
X13423D1*
X14050D2*
X16239D1*
X4233Y9144D2*
X4956D1*
X13017D2*
X13423D1*
X14050D2*
X16239D1*
X4233Y9086D2*
X4969D1*
X13003D2*
X13423D1*
X14050D2*
X16239D1*
X4233Y9027D2*
X4991D1*
X12982D2*
X13423D1*
X14050D2*
X16239D1*
X4233Y8968D2*
X5020D1*
X12952D2*
X13423D1*
X14050D2*
X16239D1*
X4233Y8910D2*
X5060D1*
X12913D2*
X13423D1*
X14050D2*
X16239D1*
X4233Y8851D2*
X5113D1*
X12859D2*
X13423D1*
X14050D2*
X16239D1*
X4233Y8792D2*
X5187D1*
X12786D2*
X13423D1*
X14050D2*
X16239D1*
X4233Y8734D2*
X5291D1*
X12682D2*
X13423D1*
X14050D2*
X16239D1*
X4233Y8675D2*
X5179D1*
X12794D2*
X13423D1*
X14050D2*
X16239D1*
X4233Y8616D2*
X5107D1*
X12865D2*
X13423D1*
X14050D2*
X16239D1*
X4233Y8558D2*
X5056D1*
X12916D2*
X13419D1*
X14050D2*
X16239D1*
X4233Y8499D2*
X5017D1*
X12955D2*
X13360D1*
X14050D2*
X16239D1*
X4233Y8440D2*
X4988D1*
X12984D2*
X13301D1*
X14050D2*
X16239D1*
X4233Y8381D2*
X4969D1*
X13005D2*
X13243D1*
X14050D2*
X16239D1*
X4233Y8323D2*
X4955D1*
X13018D2*
X13184D1*
X14045D2*
X16239D1*
X4233Y8264D2*
X4949D1*
X13023D2*
X13126D1*
X14022D2*
X16239D1*
X4233Y8205D2*
X4949D1*
X13023D2*
X13066D1*
X13969D2*
X16239D1*
X4233Y8147D2*
X4955D1*
X13910D2*
X16239D1*
X4233Y8088D2*
X4969D1*
X13852D2*
X16239D1*
X4233Y8029D2*
X4990D1*
X13793D2*
X16239D1*
X4233Y7971D2*
X5019D1*
X13734D2*
X16239D1*
X4233Y7912D2*
X5059D1*
X13676D2*
X16239D1*
X4233Y7853D2*
X5111D1*
X13617D2*
X16239D1*
X4233Y7795D2*
X5183D1*
X13559D2*
X16239D1*
X4233Y7736D2*
X5299D1*
X5674D2*
X5723D1*
X13500D2*
X16239D1*
X4233Y7677D2*
X5781D1*
X13441D2*
X16239D1*
X4233Y7619D2*
X5840D1*
X13382D2*
X16239D1*
X4233Y7560D2*
X5899D1*
X13323D2*
X16239D1*
X4233Y7501D2*
X5958D1*
X13265D2*
X16239D1*
X4233Y7442D2*
X6017D1*
X13206D2*
X16239D1*
X4233Y7384D2*
X6075D1*
X13147D2*
X16239D1*
X4233Y7325D2*
X6134D1*
X13089D2*
X16239D1*
X4233Y7266D2*
X6192D1*
X13030D2*
X16239D1*
X4233Y7208D2*
X6257D1*
X12965D2*
X16239D1*
X4233Y7149D2*
X7858D1*
X11712D2*
X16239D1*
X4233Y7090D2*
X7754D1*
X11771D2*
X16239D1*
X4233Y7032D2*
X7671D1*
X11830D2*
X16239D1*
X4233Y6973D2*
X7631D1*
X11886D2*
X16239D1*
X4233Y6914D2*
X7610D1*
X10697D2*
X11419D1*
X11917D2*
X16239D1*
X4233Y6856D2*
X7550D1*
X10756D2*
X11479D1*
X11925D2*
X16239D1*
X4233Y6797D2*
X7437D1*
X10815D2*
X11537D1*
X11925D2*
X16239D1*
X4233Y6738D2*
X7389D1*
X10873D2*
X11548D1*
X11925D2*
X16239D1*
X4233Y6680D2*
X7365D1*
X10911D2*
X11548D1*
X11925D2*
X16239D1*
X4233Y6621D2*
X7355D1*
X8741D2*
X10463D1*
X10924D2*
X11548D1*
X11925D2*
X16239D1*
X4233Y6562D2*
X7360D1*
X8799D2*
X10521D1*
X10924D2*
X11548D1*
X11925D2*
X16239D1*
X4233Y6503D2*
X7379D1*
X8858D2*
X10548D1*
X10924D2*
X11548D1*
X11925D2*
X16239D1*
X4233Y6445D2*
X7418D1*
X8904D2*
X10548D1*
X10924D2*
X11548D1*
X11925D2*
X16239D1*
X4233Y6386D2*
X7496D1*
X7726D2*
X8448D1*
X8923D2*
X10548D1*
X10924D2*
X11548D1*
X11925D2*
X16239D1*
X4233Y6327D2*
X8507D1*
X8925D2*
X10548D1*
X10924D2*
X11548D1*
X11925D2*
X16239D1*
X4233Y6269D2*
X8548D1*
X8925D2*
X10548D1*
X10924D2*
X11548D1*
X11925D2*
X16239D1*
X4233Y6210D2*
X8548D1*
X8925D2*
X10548D1*
X10924D2*
X11548D1*
X11925D2*
X16239D1*
X4233Y6151D2*
X8548D1*
X8925D2*
X10548D1*
X10924D2*
X11548D1*
X11925D2*
X16239D1*
X4233Y6093D2*
X8548D1*
X8925D2*
X10548D1*
X10924D2*
X11548D1*
X11925D2*
X16239D1*
X4233Y6034D2*
X8548D1*
X8925D2*
X10548D1*
X10924D2*
X11548D1*
X11925D2*
X16239D1*
X4233Y5975D2*
X5044D1*
X5429D2*
X6582D1*
X6890D2*
X7582D1*
X7891D2*
X8548D1*
X8925D2*
X9582D1*
X9890D2*
X10548D1*
X10924D2*
X11548D1*
X11925D2*
X12582D1*
X12890D2*
X13244D1*
X14229D2*
X15044D1*
X15429D2*
X16239D1*
X4233Y5917D2*
X4886D1*
X5586D2*
X6460D1*
X7012D2*
X7460D1*
X8012D2*
X8460D1*
X9013D2*
X9460D1*
X10012D2*
X10460D1*
X11012D2*
X11460D1*
X12013D2*
X12460D1*
X13012D2*
X13244D1*
X14229D2*
X14886D1*
X15586D2*
X16239D1*
X4233Y5858D2*
X4789D1*
X5684D2*
X6388D1*
X7084D2*
X7388D1*
X8085D2*
X8389D1*
X9084D2*
X9388D1*
X10084D2*
X10388D1*
X11085D2*
X11389D1*
X12084D2*
X12388D1*
X13084D2*
X13244D1*
X14229D2*
X14789D1*
X15683D2*
X16239D1*
X4233Y5799D2*
X4716D1*
X5756D2*
X6337D1*
X7135D2*
X7338D1*
X8135D2*
X8338D1*
X9135D2*
X9337D1*
X10135D2*
X10338D1*
X11135D2*
X11338D1*
X12135D2*
X12337D1*
X13135D2*
X13244D1*
X14229D2*
X14717D1*
X15756D2*
X16239D1*
X4233Y5741D2*
X4658D1*
X5814D2*
X6301D1*
X7171D2*
X7301D1*
X8172D2*
X8300D1*
X9172D2*
X9301D1*
X10171D2*
X10301D1*
X11172D2*
X11300D1*
X12172D2*
X12301D1*
X13171D2*
X13244D1*
X14229D2*
X14659D1*
X15814D2*
X16239D1*
X4233Y5682D2*
X4611D1*
X5861D2*
X6274D1*
X7198D2*
X7274D1*
X8198D2*
X8274D1*
X9198D2*
X9274D1*
X10198D2*
X10274D1*
X11198D2*
X11274D1*
X12198D2*
X12274D1*
X13198D2*
X13244D1*
X14229D2*
X14612D1*
X15861D2*
X16239D1*
X4233Y5623D2*
X4574D1*
X5899D2*
X6257D1*
X7216D2*
X7257D1*
X8216D2*
X8256D1*
X9216D2*
X9256D1*
X10216D2*
X10257D1*
X11216D2*
X11256D1*
X12216D2*
X12256D1*
X14229D2*
X14573D1*
X15899D2*
X16239D1*
X4233Y5564D2*
X4542D1*
X5930D2*
X6246D1*
X14229D2*
X14542D1*
X15931D2*
X16239D1*
X4233Y5506D2*
X4518D1*
X5956D2*
X6244D1*
X14229D2*
X14517D1*
X15955D2*
X16239D1*
X4233Y5447D2*
X4498D1*
X5975D2*
X6248D1*
X14229D2*
X14497D1*
X15975D2*
X16239D1*
X4233Y5388D2*
X4483D1*
X5989D2*
X6259D1*
X7213D2*
X7260D1*
X8213D2*
X8259D1*
X9213D2*
X9260D1*
X10213D2*
X10260D1*
X11213D2*
X11259D1*
X12213D2*
X12260D1*
X13213D2*
X13244D1*
X14229D2*
X14483D1*
X15990D2*
X16239D1*
X4233Y5330D2*
X4474D1*
X5999D2*
X6279D1*
X7193D2*
X7279D1*
X8193D2*
X8279D1*
X9194D2*
X9279D1*
X10193D2*
X10279D1*
X11193D2*
X11279D1*
X12194D2*
X12279D1*
X13193D2*
X13244D1*
X14229D2*
X14474D1*
X15999D2*
X16239D1*
X4233Y5271D2*
X4469D1*
X6003D2*
X6307D1*
X7165D2*
X7308D1*
X8165D2*
X8307D1*
X9166D2*
X9307D1*
X10165D2*
X10308D1*
X11165D2*
X11307D1*
X12166D2*
X12307D1*
X13165D2*
X13244D1*
X14229D2*
X14469D1*
X16004D2*
X16239D1*
X4233Y5212D2*
X4468D1*
X6004D2*
X6347D1*
X7126D2*
X7347D1*
X8126D2*
X8346D1*
X9126D2*
X9347D1*
X10126D2*
X10347D1*
X11126D2*
X11346D1*
X12126D2*
X12347D1*
X13126D2*
X13244D1*
X14229D2*
X14468D1*
X16005D2*
X16239D1*
X4233Y5154D2*
X4473D1*
X6000D2*
X6401D1*
X7071D2*
X7401D1*
X8071D2*
X8401D1*
X9072D2*
X9401D1*
X10071D2*
X10401D1*
X11071D2*
X11401D1*
X12072D2*
X12401D1*
X13071D2*
X13244D1*
X14229D2*
X14473D1*
X16000D2*
X16239D1*
X4233Y5095D2*
X4481D1*
X5991D2*
X6479D1*
X6993D2*
X7479D1*
X7994D2*
X8479D1*
X8993D2*
X9479D1*
X9993D2*
X10479D1*
X10994D2*
X11479D1*
X11993D2*
X12479D1*
X12993D2*
X13244D1*
X14229D2*
X14481D1*
X15991D2*
X16239D1*
X4233Y5036D2*
X4495D1*
X5978D2*
X6627D1*
X6845D2*
X7627D1*
X7846D2*
X8628D1*
X8845D2*
X9627D1*
X9845D2*
X10627D1*
X10846D2*
X11628D1*
X11845D2*
X12627D1*
X12845D2*
X13244D1*
X14229D2*
X14494D1*
X15977D2*
X16239D1*
X4233Y4978D2*
X4513D1*
X5959D2*
X14513D1*
X15960D2*
X16239D1*
X4233Y4919D2*
X4537D1*
X5935D2*
X14538D1*
X15935D2*
X16239D1*
X4233Y4860D2*
X4567D1*
X5905D2*
X14568D1*
X15905D2*
X16239D1*
X4233Y4801D2*
X4604D1*
X5868D2*
X14604D1*
X15869D2*
X16239D1*
X4233Y4743D2*
X4649D1*
X5823D2*
X14649D1*
X15824D2*
X16239D1*
X4233Y4684D2*
X4705D1*
X5768D2*
X14704D1*
X15767D2*
X16239D1*
X4233Y4625D2*
X4774D1*
X5699D2*
X14774D1*
X15698D2*
X16239D1*
X4233Y4567D2*
X4865D1*
X5607D2*
X14866D1*
X15607D2*
X16239D1*
X4233Y4508D2*
X5005D1*
X5468D2*
X15004D1*
X15467D2*
X16239D1*
X4233Y4449D2*
X16239D1*
X4233Y4391D2*
X16239D1*
X4233Y4332D2*
X16239D1*
X4233Y4273D2*
X16239D1*
X5711Y7754D2*
X5659Y7733D1*
X5602Y7716D1*
X5542Y7707D1*
X5483Y7704D1*
X5423Y7708D1*
X5364Y7718D1*
X5306Y7735D1*
X5251Y7759D1*
X5199Y7788D1*
X5150Y7823D1*
X5106Y7864D1*
X5066Y7909D1*
X5032Y7958D1*
X5004Y8011D1*
X4982Y8067D1*
X4966Y8124D1*
X4956Y8184D1*
X4954Y8244D1*
X4958Y8303D1*
X4969Y8362D1*
X4986Y8420D1*
X5010Y8475D1*
X5040Y8527D1*
X5076Y8575D1*
X5116Y8619D1*
X5162Y8658D1*
X5211Y8692D1*
X5264Y8720D1*
X5303Y8736D1*
X5251Y8759D1*
X5199Y8788D1*
X5150Y8823D1*
X5106Y8864D1*
X5066Y8909D1*
X5032Y8958D1*
X5004Y9011D1*
X4982Y9067D1*
X4966Y9124D1*
X4956Y9184D1*
X4954Y9244D1*
X4958Y9303D1*
X4969Y9362D1*
X4986Y9420D1*
X5010Y9475D1*
X5040Y9527D1*
X5076Y9575D1*
X5116Y9619D1*
X5162Y9658D1*
X5211Y9692D1*
X5264Y9720D1*
X5303Y9736D1*
X5251Y9759D1*
X5199Y9788D1*
X5150Y9823D1*
X5106Y9864D1*
X5066Y9909D1*
X5032Y9958D1*
X5004Y10011D1*
X4982Y10067D1*
X4966Y10124D1*
X4956Y10184D1*
X4954Y10244D1*
X4958Y10303D1*
X4969Y10362D1*
X4986Y10420D1*
X5010Y10475D1*
X5040Y10527D1*
X5076Y10575D1*
X5116Y10619D1*
X5162Y10658D1*
X5211Y10692D1*
X5264Y10720D1*
X5303Y10736D1*
X5251Y10759D1*
X5204Y10785D1*
X5160Y10816D1*
X5119Y10851D1*
X5082Y10890D1*
X5049Y10933D1*
X5020Y10979D1*
X4996Y11027D1*
X4978Y11078D1*
X4964Y11130D1*
X4956Y11184D1*
X4954Y11238D1*
X4957Y11292D1*
X4965Y11345D1*
X4979Y11397D1*
X4998Y11448D1*
X5022Y11496D1*
X5050Y11542D1*
X5083Y11584D1*
X5121Y11623D1*
X5162Y11658D1*
X5206Y11689D1*
X5253Y11715D1*
X5304Y11736D1*
X5251Y11759D1*
X5199Y11788D1*
X5150Y11823D1*
X5106Y11864D1*
X5066Y11909D1*
X5032Y11958D1*
X5004Y12011D1*
X4982Y12067D1*
X4966Y12124D1*
X4956Y12184D1*
X4954Y12244D1*
X4958Y12303D1*
X4969Y12362D1*
X4986Y12420D1*
X5010Y12475D1*
X5040Y12527D1*
X5076Y12575D1*
X5116Y12619D1*
X5162Y12658D1*
X5211Y12692D1*
X5264Y12720D1*
X5320Y12742D1*
X5378Y12758D1*
X5437Y12766D1*
X5497Y12769D1*
X5557Y12764D1*
X5616Y12753D1*
X5673Y12735D1*
X5728Y12710D1*
X5780Y12680D1*
X5828Y12644D1*
X5872Y12603D1*
X5911Y12558D1*
X5944Y12508D1*
X5965Y12469D1*
X6416D1*
X9406D1*
X9392Y12490D1*
X9379Y12517D1*
X9370Y12545D1*
X9363Y12574D1*
X9361Y12604D1*
X9362Y12634D1*
X9366Y12664D1*
X9374Y12693D1*
X9386Y12720D1*
X9400Y12747D1*
X9418Y12771D1*
X9439Y12793D1*
X9461Y12812D1*
X9487Y12829D1*
X9513Y12842D1*
X9542Y12852D1*
X9571Y12858D1*
X9601Y12862D1*
X9631Y12861D1*
X9660Y12857D1*
X9689Y12849D1*
X9717Y12838D1*
X9744Y12824D1*
X9783Y12793D1*
X11785Y12794D1*
X12038Y13046D1*
X12022Y13089D1*
X12008Y13148D1*
X12000Y13207D1*
Y13267D1*
X12008Y13327D1*
X12023Y13385D1*
X12044Y13441D1*
X12073Y13493D1*
X12108Y13542D1*
X12148Y13586D1*
X12194Y13625D1*
X12244Y13658D1*
X12298Y13685D1*
X12354Y13705D1*
X12413Y13717D1*
X12473Y13723D1*
X12532Y13721D1*
X12592Y13711D1*
X12649Y13695D1*
X12676Y13684D1*
X12857Y13865D1*
X12880Y13885D1*
X12906Y13900D1*
X12934Y13911D1*
X12963Y13917D1*
X12986Y13919D1*
X13360D1*
X13340Y13945D1*
X13310Y13996D1*
X13289Y14053D1*
X13280Y14112D1*
X13281Y14172D1*
X13293Y14231D1*
X13315Y14286D1*
X13346Y14337D1*
X13352Y14344D1*
X13115Y14107D1*
X13092Y14088D1*
X13067Y14072D1*
X13039Y14062D1*
X13009Y14055D1*
X12986Y14054D1*
X12436D1*
X12214Y13831D1*
X11365Y12982D1*
X11342Y12963D1*
X11317Y12947D1*
X11289Y12937D1*
X11259Y12930D1*
X11236Y12929D1*
X7532D1*
X7505Y12906D1*
X7480Y12891D1*
X7453Y12878D1*
X7424Y12869D1*
X7395Y12863D1*
X7365Y12861D1*
X7335Y12862D1*
X7305Y12867D1*
X7276Y12875D1*
X7249Y12887D1*
X7223Y12902D1*
X7199Y12920D1*
X7177Y12941D1*
X7158Y12964D1*
X7142Y12990D1*
X7129Y13017D1*
X7120Y13045D1*
X7113Y13074D1*
X7111Y13104D1*
X7112Y13134D1*
X7116Y13164D1*
X7124Y13193D1*
X7136Y13220D1*
X7150Y13247D1*
X7168Y13271D1*
X7189Y13293D1*
X7211Y13312D1*
X7237Y13329D1*
X7263Y13342D1*
X7292Y13352D1*
X7321Y13358D1*
X7351Y13362D1*
X7381Y13361D1*
X7410Y13357D1*
X7439Y13349D1*
X7467Y13338D1*
X7494Y13324D1*
X7533Y13293D1*
X7688Y13294D1*
X7681Y13324D1*
X7679Y13354D1*
X7680Y13384D1*
X7688Y13429D1*
X7283D1*
X7255Y13406D1*
X7230Y13391D1*
X7203Y13378D1*
X7174Y13369D1*
X7145Y13363D1*
X7115Y13361D1*
X7085Y13362D1*
X7055Y13367D1*
X7026Y13375D1*
X6999Y13387D1*
X6973Y13402D1*
X6949Y13420D1*
X6927Y13441D1*
X6908Y13464D1*
X6892Y13490D1*
X6879Y13517D1*
X6870Y13545D1*
X6863Y13574D1*
X6861Y13604D1*
X6862Y13634D1*
X6866Y13664D1*
X6874Y13693D1*
X6886Y13720D1*
X6900Y13747D1*
X6918Y13771D1*
X6939Y13793D1*
X6961Y13812D1*
X6987Y13829D1*
X7013Y13842D1*
X7042Y13852D1*
X7071Y13858D1*
X7101Y13862D1*
X7131Y13861D1*
X7160Y13857D1*
X7189Y13849D1*
X7217Y13838D1*
X7244Y13824D1*
X7283Y13793D1*
X7797Y13794D1*
X7607Y13982D1*
X7588Y14005D1*
X7572Y14031D1*
X7562Y14059D1*
X7555Y14088D1*
X7554Y14111D1*
Y14510D1*
X7519Y14525D1*
X7467Y14555D1*
X7419Y14591D1*
X7376Y14633D1*
X7339Y14680D1*
X7307Y14731D1*
X7282Y14786D1*
X7264Y14843D1*
X7253Y14902D1*
X7249Y14962D1*
X7253Y15021D1*
X7264Y15080D1*
X7283Y15137D1*
X7308Y15192D1*
X7340Y15243D1*
X7377Y15289D1*
X7420Y15331D1*
X7468Y15367D1*
X7520Y15397D1*
X7576Y15420D1*
X7633Y15436D1*
X7693Y15445D1*
X7753Y15447D1*
X7812Y15441D1*
X7871Y15428D1*
X7927Y15408D1*
X7981Y15381D1*
X8031Y15348D1*
X8076Y15309D1*
X8116Y15265D1*
X8151Y15215D1*
X8179Y15163D1*
X8201Y15107D1*
X8215Y15048D1*
X8222Y14989D1*
Y14931D1*
X8215Y14871D1*
X8200Y14813D1*
X8178Y14757D1*
X8150Y14704D1*
X8115Y14655D1*
X8075Y14611D1*
X8029Y14572D1*
X7979Y14539D1*
X7926Y14512D1*
X7918Y14509D1*
X7919Y14271D1*
Y14187D1*
X8062Y14043D1*
X8246Y14044D1*
X8238Y14074D1*
X8236Y14104D1*
X8237Y14134D1*
X8241Y14164D1*
X8249Y14193D1*
X8261Y14220D1*
X8275Y14247D1*
X8304Y14282D1*
Y14486D1*
X8306Y14516D1*
X8314Y14545D1*
X8326Y14573D1*
X8342Y14598D1*
X8357Y14615D1*
X8375Y14633D1*
X8339Y14680D1*
X8307Y14731D1*
X8282Y14786D1*
X8264Y14843D1*
X8253Y14902D1*
X8249Y14962D1*
X8253Y15021D1*
X8264Y15080D1*
X8283Y15137D1*
X8308Y15192D1*
X8340Y15243D1*
X8377Y15289D1*
X8420Y15331D1*
X8468Y15367D1*
X8520Y15397D1*
X8576Y15420D1*
X8633Y15436D1*
X8693Y15445D1*
X8753Y15447D1*
X8812Y15441D1*
X8871Y15428D1*
X8927Y15408D1*
X8981Y15381D1*
X9031Y15348D1*
X9076Y15309D1*
X9116Y15265D1*
X9151Y15215D1*
X9179Y15163D1*
X9201Y15107D1*
X9215Y15048D1*
X9222Y14989D1*
Y14931D1*
X9215Y14871D1*
X9200Y14813D1*
X9178Y14757D1*
X9150Y14704D1*
X9115Y14655D1*
X9075Y14611D1*
X9029Y14572D1*
X8979Y14539D1*
X8926Y14512D1*
X8869Y14492D1*
X8810Y14480D1*
X8751Y14474D1*
X8731D1*
X8668Y14410D1*
X8669Y14283D1*
X8685Y14264D1*
X8702Y14239D1*
X8715Y14212D1*
X8726Y14184D1*
X8733Y14155D1*
X8737Y14111D1*
X8735Y14081D1*
X8727Y14044D1*
X8938D1*
X8986Y14079D1*
X9012Y14092D1*
X9041Y14102D1*
X9070Y14108D1*
X9100Y14112D1*
X9130Y14111D1*
X9159Y14107D1*
X9188Y14099D1*
X9216Y14088D1*
X9243Y14074D1*
X9267Y14057D1*
X9289Y14036D1*
X9309Y14014D1*
X9326Y13989D1*
X9339Y13962D1*
X9350Y13934D1*
X9357Y13905D1*
X9361Y13861D1*
X9359Y13831D1*
X9351Y13794D1*
X10410D1*
X10554Y13937D1*
Y14509D1*
X10492Y14539D1*
X10442Y14573D1*
X10397Y14612D1*
X10357Y14656D1*
X10322Y14705D1*
X10294Y14758D1*
X10272Y14814D1*
X10258Y14872D1*
X10250Y14932D1*
Y14992D1*
X10258Y15051D1*
X10273Y15109D1*
X10294Y15165D1*
X10323Y15218D1*
X10358Y15267D1*
X10398Y15311D1*
X10444Y15350D1*
X10494Y15383D1*
X10548Y15409D1*
X10604Y15429D1*
X10663Y15442D1*
X10723Y15447D1*
X10782Y15445D1*
X10842Y15436D1*
X10899Y15419D1*
X10954Y15396D1*
X11006Y15366D1*
X11054Y15329D1*
X11097Y15287D1*
X11134Y15241D1*
X11166Y15189D1*
X11191Y15135D1*
X11209Y15078D1*
X11219Y15019D1*
X11223Y14961D1*
X11219Y14901D1*
X11208Y14842D1*
X11190Y14785D1*
X11165Y14730D1*
X11133Y14679D1*
X11096Y14633D1*
X11053Y14591D1*
X11005Y14555D1*
X10953Y14525D1*
X10918Y14509D1*
X10919Y14271D1*
Y13861D1*
X10916Y13831D1*
X10909Y13802D1*
X10897Y13775D1*
X10881Y13750D1*
X10865Y13732D1*
X10676Y13543D1*
X11035Y13544D1*
X11788Y14296D1*
X12281Y14789D1*
X12264Y14843D1*
X12253Y14902D1*
X12249Y14962D1*
X12253Y15021D1*
X12264Y15080D1*
X12283Y15137D1*
X12308Y15192D1*
X12340Y15243D1*
X12377Y15289D1*
X12420Y15331D1*
X12468Y15367D1*
X12520Y15397D1*
X12576Y15420D1*
X12633Y15436D1*
X12693Y15445D1*
X12753Y15447D1*
X12812Y15441D1*
X12871Y15428D1*
X12927Y15408D1*
X12981Y15381D1*
X13031Y15348D1*
X13076Y15309D1*
X13116Y15265D1*
X13151Y15215D1*
X13179Y15163D1*
X13201Y15107D1*
X13215Y15048D1*
X13222Y14989D1*
Y14931D1*
X13215Y14871D1*
X13200Y14813D1*
X13178Y14757D1*
X13150Y14704D1*
X13115Y14655D1*
X13075Y14611D1*
X13029Y14572D1*
X12979Y14539D1*
X12926Y14512D1*
X12869Y14492D1*
X12810Y14480D1*
X12751Y14474D1*
X12691Y14476D1*
X12632Y14485D1*
X12574Y14502D1*
X12528Y14521D1*
X12427Y14419D1*
X12912D1*
X13133Y14641D1*
X13281Y14789D1*
X13264Y14843D1*
X13253Y14902D1*
X13249Y14962D1*
X13253Y15021D1*
X13264Y15080D1*
X13283Y15137D1*
X13308Y15192D1*
X13340Y15243D1*
X13377Y15289D1*
X13420Y15331D1*
X13468Y15367D1*
X13520Y15397D1*
X13576Y15420D1*
X13633Y15436D1*
X13693Y15445D1*
X13753Y15447D1*
X13812Y15441D1*
X13871Y15428D1*
X13927Y15408D1*
X13981Y15381D1*
X14031Y15348D1*
X14076Y15309D1*
X14116Y15265D1*
X14151Y15215D1*
X14179Y15163D1*
X14201Y15107D1*
X14215Y15048D1*
X14222Y14989D1*
Y14931D1*
X14215Y14871D1*
X14200Y14813D1*
X14178Y14757D1*
X14150Y14704D1*
X14115Y14655D1*
X14075Y14611D1*
X14029Y14572D1*
X13979Y14539D1*
X13926Y14512D1*
X13869Y14492D1*
X13810Y14480D1*
X13751Y14474D1*
X13691Y14476D1*
X13632Y14485D1*
X13574Y14502D1*
X13528Y14521D1*
X13404Y14396D1*
X13434Y14418D1*
X13488Y14445D1*
X13545Y14462D1*
X13605Y14469D1*
X13665Y14464D1*
X13723Y14449D1*
X13777Y14424D1*
X13826Y14390D1*
X13868Y14347D1*
X13902Y14298D1*
X13926Y14243D1*
X13935Y14213D1*
X13964Y14233D1*
X13991Y14247D1*
X14019Y14258D1*
X14047Y14266D1*
X14077Y14272D1*
X14107Y14274D1*
X14137Y14272D1*
X14167Y14268D1*
X14196Y14261D1*
X14224Y14251D1*
X14251Y14237D1*
X14276Y14222D1*
X14300Y14203D1*
X14321Y14182D1*
X14341Y14159D1*
X14361Y14127D1*
X14370Y14170D1*
X14363Y14199D1*
X14361Y14229D1*
X14362Y14259D1*
X14366Y14289D1*
X14374Y14318D1*
X14386Y14345D1*
X14400Y14372D1*
X14418Y14396D1*
X14439Y14418D1*
X14461Y14437D1*
X14487Y14454D1*
X14513Y14467D1*
X14542Y14477D1*
X14571Y14483D1*
X14601Y14487D1*
X14631Y14486D1*
X14660Y14482D1*
X14689Y14474D1*
X14717Y14463D1*
X14744Y14449D1*
X14768Y14432D1*
X14790Y14411D1*
X14810Y14389D1*
X14827Y14364D1*
X14840Y14337D1*
X14851Y14309D1*
X14858Y14280D1*
X14861Y14251D1*
X14866Y14289D1*
X14874Y14318D1*
X14886Y14345D1*
X14900Y14372D1*
X14918Y14396D1*
X14939Y14418D1*
X14961Y14437D1*
X14987Y14454D1*
X15013Y14467D1*
X15042Y14477D1*
X15071Y14483D1*
X15100Y14486D1*
X15027Y14503D1*
X14970Y14522D1*
X14914Y14545D1*
X14861Y14573D1*
X14810Y14604D1*
X14762Y14640D1*
X14716Y14679D1*
X14674Y14721D1*
X14635Y14767D1*
X14600Y14816D1*
X14569Y14867D1*
X14542Y14921D1*
X14519Y14976D1*
X14501Y15034D1*
X14488Y15092D1*
X14479Y15151D1*
X14474Y15211D1*
X14475Y15271D1*
X14480Y15331D1*
X14489Y15390D1*
X14504Y15448D1*
X14523Y15505D1*
X14546Y15560D1*
X14574Y15614D1*
X14606Y15665D1*
X14641Y15713D1*
X14680Y15758D1*
X14723Y15800D1*
X14769Y15839D1*
X14818Y15874D1*
X14869Y15905D1*
X14923Y15931D1*
X14979Y15954D1*
X15036Y15972D1*
X15094Y15985D1*
X15154Y15994D1*
X15214Y15998D1*
X15273D1*
X15333Y15992D1*
X15392Y15982D1*
X15451Y15968D1*
X15507Y15949D1*
X15563Y15925D1*
X15616Y15897D1*
X15667Y15866D1*
X15715Y15830D1*
X15760Y15790D1*
X15802Y15747D1*
X15840Y15701D1*
X15875Y15652D1*
X15906Y15601D1*
X15932Y15547D1*
X15955Y15491D1*
X15972Y15434D1*
X15986Y15376D1*
X15994Y15316D1*
X15999Y15236D1*
X15996Y15176D1*
X15989Y15117D1*
X15977Y15058D1*
X15961Y15000D1*
X15940Y14944D1*
X15915Y14889D1*
X15886Y14837D1*
X15852Y14787D1*
X15815Y14740D1*
X15774Y14696D1*
X15730Y14656D1*
X15683Y14619D1*
X15633Y14585D1*
X15581Y14556D1*
X15526Y14531D1*
X15470Y14511D1*
X15412Y14494D1*
X15353Y14483D1*
X15294Y14476D1*
X15234Y14474D1*
X15184Y14476D1*
X15217Y14463D1*
X15244Y14449D1*
X15268Y14432D1*
X15290Y14411D1*
X15310Y14389D1*
X15327Y14364D1*
X15340Y14337D1*
X15351Y14309D1*
X15358Y14280D1*
X15362Y14236D1*
X15360Y14206D1*
X15355Y14177D1*
X15347Y14151D1*
X15372Y14108D1*
X15383Y14080D1*
X15391Y14051D1*
X15396Y14022D1*
X15399Y13991D1*
X15434Y14018D1*
X15488Y14045D1*
X15545Y14062D1*
X15605Y14069D1*
X15665Y14064D1*
X15723Y14049D1*
X15777Y14024D1*
X15826Y13990D1*
X15868Y13947D1*
X15902Y13898D1*
X15926Y13843D1*
X15940Y13785D1*
X15944Y13736D1*
X15938Y13677D1*
X15922Y13619D1*
X15896Y13565D1*
X15861Y13517D1*
X15817Y13475D1*
X15767Y13443D1*
X15712Y13419D1*
X15653Y13406D1*
X15593Y13404D1*
X15534Y13413D1*
X15477Y13432D1*
X15425Y13461D1*
X15399Y13481D1*
X15392Y13427D1*
X15385Y13398D1*
X15374Y13370D1*
X15360Y13343D1*
X15343Y13317D1*
X15344Y12611D1*
X15342Y12581D1*
X15336Y12552D1*
X15326Y12523D1*
X15313Y12496D1*
X15297Y12471D1*
X15276Y12447D1*
X14966Y12137D1*
X14943Y12095D1*
X14925Y12071D1*
X14904Y12050D1*
X14880Y12031D1*
X14855Y12016D1*
X14828Y12003D1*
X14799Y11994D1*
X14770Y11988D1*
X14740Y11986D1*
X14710Y11987D1*
X14680Y11992D1*
X14651Y12000D1*
X14624Y12012D1*
X14598Y12027D1*
X14574Y12045D1*
X14552Y12066D1*
X14533Y12089D1*
X14517Y12115D1*
X14504Y12142D1*
X14495Y12170D1*
X14488Y12199D1*
X14486Y12229D1*
X14487Y12259D1*
X14491Y12289D1*
X14499Y12318D1*
X14511Y12345D1*
X14525Y12372D1*
X14543Y12396D1*
X14564Y12418D1*
X14586Y12437D1*
X14612Y12454D1*
X14638Y12466D1*
X14879Y12707D1*
Y13317D1*
X14861Y13345D1*
X14844Y13318D1*
X14825Y13294D1*
X14793Y13264D1*
X14794Y12736D1*
X14791Y12706D1*
X14784Y12677D1*
X14772Y12650D1*
X14756Y12625D1*
X14740Y12607D1*
X14043Y11911D1*
X14044Y8361D1*
X14041Y8331D1*
X14034Y8302D1*
X14022Y8275D1*
X14006Y8250D1*
X13990Y8232D1*
X12990Y7232D1*
X12967Y7213D1*
X12942Y7197D1*
X12914Y7187D1*
X12884Y7180D1*
X12861Y7179D1*
X11677D1*
X11865Y6990D1*
X11885Y6967D1*
X11900Y6942D1*
X11911Y6914D1*
X11917Y6884D1*
X11919Y6861D1*
Y5962D1*
X11954Y5947D1*
X12006Y5917D1*
X12054Y5880D1*
X12097Y5839D1*
X12134Y5792D1*
X12166Y5741D1*
X12191Y5686D1*
X12209Y5629D1*
X12219Y5570D1*
X12223Y5512D1*
X12219Y5452D1*
X12208Y5393D1*
X12190Y5336D1*
X12165Y5281D1*
X12133Y5230D1*
X12096Y5184D1*
X12053Y5142D1*
X12005Y5106D1*
X11953Y5076D1*
X11898Y5053D1*
X11840Y5036D1*
X11781Y5027D1*
X11721Y5025D1*
X11661Y5031D1*
X11603Y5044D1*
X11546Y5064D1*
X11492Y5091D1*
X11442Y5124D1*
X11397Y5163D1*
X11357Y5207D1*
X11322Y5256D1*
X11294Y5309D1*
X11272Y5365D1*
X11258Y5423D1*
X11250Y5483D1*
Y5543D1*
X11258Y5602D1*
X11273Y5660D1*
X11294Y5716D1*
X11323Y5769D1*
X11358Y5818D1*
X11398Y5862D1*
X11444Y5901D1*
X11494Y5934D1*
X11554Y5963D1*
Y6786D1*
X11410Y6929D1*
X10677D1*
X10865Y6740D1*
X10885Y6717D1*
X10900Y6692D1*
X10911Y6664D1*
X10917Y6634D1*
X10919Y6611D1*
Y5963D1*
X10981Y5933D1*
X11031Y5899D1*
X11076Y5860D1*
X11116Y5816D1*
X11151Y5767D1*
X11179Y5714D1*
X11201Y5658D1*
X11215Y5600D1*
X11222Y5540D1*
Y5482D1*
X11215Y5422D1*
X11200Y5364D1*
X11178Y5308D1*
X11150Y5255D1*
X11115Y5207D1*
X11075Y5162D1*
X11029Y5123D1*
X10979Y5090D1*
X10926Y5063D1*
X10869Y5044D1*
X10810Y5031D1*
X10751Y5025D1*
X10691Y5027D1*
X10632Y5036D1*
X10574Y5053D1*
X10519Y5076D1*
X10467Y5106D1*
X10419Y5143D1*
X10376Y5184D1*
X10339Y5231D1*
X10307Y5282D1*
X10282Y5337D1*
X10264Y5394D1*
X10253Y5453D1*
X10249Y5513D1*
X10253Y5573D1*
X10264Y5631D1*
X10283Y5689D1*
X10308Y5743D1*
X10340Y5794D1*
X10377Y5841D1*
X10420Y5882D1*
X10468Y5918D1*
X10520Y5948D1*
X10554Y5963D1*
Y6537D1*
X10410Y6679D1*
X8676D1*
X8865Y6490D1*
X8885Y6467D1*
X8900Y6442D1*
X8911Y6414D1*
X8917Y6384D1*
X8919Y6361D1*
Y5963D1*
X8954Y5947D1*
X9006Y5917D1*
X9054Y5880D1*
X9097Y5839D1*
X9134Y5792D1*
X9166Y5741D1*
X9191Y5686D1*
X9209Y5629D1*
X9219Y5570D1*
X9223Y5512D1*
X9219Y5452D1*
X9208Y5393D1*
X9190Y5336D1*
X9165Y5281D1*
X9133Y5230D1*
X9096Y5184D1*
X9053Y5142D1*
X9005Y5106D1*
X8953Y5076D1*
X8898Y5053D1*
X8840Y5036D1*
X8781Y5027D1*
X8721Y5025D1*
X8661Y5031D1*
X8603Y5044D1*
X8546Y5064D1*
X8492Y5091D1*
X8442Y5124D1*
X8397Y5163D1*
X8357Y5207D1*
X8322Y5256D1*
X8294Y5309D1*
X8272Y5365D1*
X8258Y5423D1*
X8250Y5483D1*
Y5543D1*
X8258Y5602D1*
X8273Y5660D1*
X8294Y5716D1*
X8323Y5769D1*
X8358Y5818D1*
X8398Y5862D1*
X8444Y5901D1*
X8494Y5934D1*
X8554Y5963D1*
Y6285D1*
X8410Y6429D1*
X7782D1*
X7755Y6406D1*
X7730Y6391D1*
X7703Y6378D1*
X7674Y6369D1*
X7645Y6363D1*
X7615Y6361D1*
X7585Y6362D1*
X7555Y6367D1*
X7526Y6375D1*
X7499Y6387D1*
X7473Y6402D1*
X7449Y6420D1*
X7427Y6441D1*
X7408Y6464D1*
X7392Y6490D1*
X7379Y6517D1*
X7370Y6545D1*
X7363Y6574D1*
X7361Y6604D1*
X7362Y6634D1*
X7366Y6664D1*
X7374Y6693D1*
X7386Y6720D1*
X7400Y6747D1*
X7418Y6771D1*
X7439Y6793D1*
X7461Y6812D1*
X7487Y6829D1*
X7513Y6842D1*
X7542Y6852D1*
X7571Y6858D1*
X7611Y6861D1*
X7612Y6884D1*
X7616Y6914D1*
X7624Y6943D1*
X7636Y6970D1*
X7650Y6997D1*
X7668Y7021D1*
X7689Y7043D1*
X7711Y7062D1*
X7737Y7079D1*
X7763Y7092D1*
X7792Y7102D1*
X7821Y7108D1*
X7861Y7111D1*
X7862Y7134D1*
X7871Y7179D1*
X6361D1*
X6331Y7181D1*
X6302Y7189D1*
X6275Y7201D1*
X6250Y7217D1*
X6232Y7232D1*
X5711Y7754D1*
X6018Y10206D2*
X6011Y10147D1*
X5998Y10088D1*
X5978Y10032D1*
X5969Y10012D1*
X6187Y9793D1*
X6711Y9794D1*
X7202D1*
X7177Y9816D1*
X7158Y9839D1*
X7142Y9865D1*
X7129Y9892D1*
X7120Y9920D1*
X7113Y9949D1*
X7111Y9979D1*
X7112Y10009D1*
X7116Y10039D1*
X7124Y10068D1*
X7136Y10095D1*
X7150Y10122D1*
X7179Y10157D1*
Y10439D1*
X7158Y10464D1*
X7142Y10490D1*
X7129Y10517D1*
X7120Y10545D1*
X7113Y10574D1*
X7111Y10604D1*
X7112Y10634D1*
X7116Y10664D1*
X7124Y10693D1*
X7136Y10720D1*
X7150Y10747D1*
X7168Y10771D1*
X7189Y10793D1*
X7211Y10812D1*
X7237Y10829D1*
X7263Y10842D1*
X7292Y10852D1*
X7321Y10858D1*
X7351Y10862D1*
X7381Y10861D1*
X7410Y10857D1*
X7439Y10849D1*
X7467Y10838D1*
X7494Y10824D1*
X7518Y10807D1*
X7540Y10786D1*
X7560Y10764D1*
X7577Y10739D1*
X7590Y10712D1*
X7601Y10684D1*
X7608Y10655D1*
X7612Y10611D1*
X7610Y10581D1*
X7605Y10552D1*
X7596Y10523D1*
X7584Y10496D1*
X7568Y10470D1*
X7544Y10440D1*
Y10158D1*
X7577Y10114D1*
X7590Y10087D1*
X7601Y10059D1*
X7608Y10030D1*
X7612Y9986D1*
X7610Y9956D1*
X7605Y9927D1*
X7596Y9898D1*
X7584Y9871D1*
X7568Y9845D1*
X7550Y9821D1*
X7521Y9794D1*
X8370Y9795D1*
X8363Y9824D1*
X8361Y9854D1*
X8362Y9884D1*
X8366Y9914D1*
X8374Y9943D1*
X8386Y9970D1*
X8400Y9997D1*
X8418Y10021D1*
X8439Y10043D1*
X8461Y10062D1*
X8504Y10087D1*
Y10236D1*
X8506Y10266D1*
X8512Y10296D1*
X8521Y10324D1*
X8534Y10351D1*
X8551Y10376D1*
X8572Y10401D1*
X8759Y10588D1*
X8782Y10608D1*
X8807Y10625D1*
X8834Y10638D1*
X8862Y10648D1*
X8891Y10654D1*
X8924Y10656D1*
X9986D1*
X10016Y10654D1*
X10046Y10648D1*
X10074Y10639D1*
X10101Y10626D1*
X10126Y10609D1*
X10151Y10588D1*
X10215Y10524D1*
X10643D1*
X10667Y10532D1*
X10696Y10539D1*
X10726Y10542D1*
X10756Y10541D1*
X10785Y10537D1*
X10829Y10523D1*
X11320Y10524D1*
X11756Y10960D1*
X11775Y10997D1*
X11793Y11021D1*
X11814Y11043D1*
X11836Y11062D1*
X11862Y11079D1*
X11888Y11092D1*
X11917Y11102D1*
X11946Y11108D1*
X11969Y11111D1*
X11961Y11148D1*
X11955Y11202D1*
X11954Y11256D1*
X11959Y11309D1*
X11969Y11362D1*
X11984Y11414D1*
X12005Y11464D1*
X12031Y11512D1*
X12061Y11556D1*
X12095Y11598D1*
X12134Y11635D1*
X12176Y11669D1*
X12222Y11698D1*
X12270Y11723D1*
X12304Y11736D1*
X12251Y11759D1*
X12199Y11788D1*
X12150Y11823D1*
X12106Y11864D1*
X12066Y11909D1*
X12032Y11958D1*
X12008Y12003D1*
X11256Y12004D1*
X5966D1*
X5936Y11952D1*
X5901Y11903D1*
X5861Y11858D1*
X5817Y11819D1*
X5767Y11784D1*
X5715Y11755D1*
X5669Y11736D1*
X5723Y11713D1*
X5770Y11687D1*
X5814Y11656D1*
X5855Y11620D1*
X5892Y11581D1*
X5925Y11538D1*
X5953Y11492D1*
X5977Y11444D1*
X5995Y11393D1*
X6008Y11341D1*
X6016Y11287D1*
X6019Y11230D1*
X6015Y11176D1*
X6006Y11123D1*
X5992Y11071D1*
X5973Y11021D1*
X5949Y10972D1*
X5920Y10927D1*
X5886Y10885D1*
X5848Y10846D1*
X5807Y10811D1*
X5762Y10781D1*
X5715Y10755D1*
X5669Y10736D1*
X5728Y10710D1*
X5780Y10680D1*
X5828Y10644D1*
X5872Y10603D1*
X5911Y10558D1*
X5944Y10508D1*
X5972Y10455D1*
X5993Y10399D1*
X6008Y10341D1*
X6017Y10281D1*
X6019Y10236D1*
X6018Y10206D1*
X12584Y12760D2*
X12645Y12744D1*
X12701Y12723D1*
X12754Y12696D1*
X12804Y12663D1*
X12850Y12625D1*
X12892Y12581D1*
X12929Y12533D1*
Y12565D1*
X12908Y12589D1*
X12892Y12615D1*
X12879Y12642D1*
X12870Y12670D1*
X12863Y12699D1*
X12861Y12729D1*
X12862Y12759D1*
X12866Y12789D1*
X12874Y12818D1*
X12886Y12845D1*
X12900Y12872D1*
X12918Y12896D1*
X12939Y12918D1*
X12961Y12937D1*
X12987Y12954D1*
X13013Y12967D1*
X13042Y12977D1*
X13071Y12983D1*
X13101Y12987D1*
X13131Y12986D1*
X13160Y12982D1*
X13189Y12974D1*
X13217Y12963D1*
X13244Y12949D1*
X13268Y12932D1*
X13290Y12911D1*
X13310Y12889D1*
X13327Y12864D1*
X13340Y12837D1*
X13351Y12809D1*
X13358Y12780D1*
X13362Y12736D1*
X13360Y12706D1*
X13355Y12677D1*
X13346Y12648D1*
X13334Y12621D1*
X13318Y12595D1*
X13294Y12565D1*
Y10861D1*
X13291Y10831D1*
X13284Y10802D1*
X13272Y10775D1*
X13256Y10750D1*
X13240Y10732D1*
X12969Y10461D1*
X12993Y10399D1*
X13008Y10341D1*
X13017Y10281D1*
X13019Y10236D1*
X13015Y10176D1*
X13005Y10117D1*
X12988Y10060D1*
X12965Y10004D1*
X12936Y9952D1*
X12901Y9903D1*
X12861Y9858D1*
X12817Y9819D1*
X12767Y9784D1*
X12715Y9755D1*
X12669Y9736D1*
X12728Y9710D1*
X12780Y9680D1*
X12828Y9644D1*
X12872Y9603D1*
X12911Y9558D1*
X12944Y9508D1*
X12972Y9455D1*
X12993Y9399D1*
X13008Y9341D1*
X13017Y9281D1*
X13019Y9236D1*
X13015Y9176D1*
X13005Y9117D1*
X12988Y9060D1*
X12965Y9004D1*
X12936Y8952D1*
X12901Y8903D1*
X12861Y8858D1*
X12817Y8819D1*
X12767Y8784D1*
X12715Y8755D1*
X12669Y8736D1*
X12728Y8710D1*
X12780Y8680D1*
X12828Y8644D1*
X12872Y8603D1*
X12911Y8558D1*
X12944Y8508D1*
X12972Y8455D1*
X12993Y8399D1*
X13008Y8341D1*
X13017Y8281D1*
X13019Y8236D1*
X13015Y8176D1*
X13010Y8144D1*
X13429Y8562D1*
Y12111D1*
X13431Y12141D1*
X13439Y12170D1*
X13451Y12198D1*
X13467Y12223D1*
X13482Y12240D1*
X14179Y12937D1*
X14158Y12964D1*
X14142Y12990D1*
X14129Y13017D1*
X14120Y13045D1*
X14113Y13074D1*
X14111Y13104D1*
X14112Y13134D1*
X14116Y13164D1*
X14127Y13199D1*
X14083Y13200D1*
X14041Y13207D1*
X14002Y13221D1*
X13964Y13239D1*
X13934Y13260D1*
X13922Y13219D1*
X13896Y13165D1*
X13861Y13117D1*
X13817Y13075D1*
X13767Y13043D1*
X13712Y13019D1*
X13653Y13006D1*
X13593Y13004D1*
X13534Y13013D1*
X13477Y13032D1*
X13425Y13061D1*
X13378Y13099D1*
X13340Y13145D1*
X13310Y13196D1*
X13289Y13253D1*
X13280Y13312D1*
X13281Y13372D1*
X13293Y13431D1*
X13315Y13486D1*
X13346Y13537D1*
X13360Y13554D1*
X13062D1*
X12934Y13426D1*
X12951Y13382D1*
X12965Y13324D1*
X12972Y13264D1*
Y13206D1*
X12965Y13147D1*
X12950Y13089D1*
X12928Y13033D1*
X12900Y12980D1*
X12865Y12931D1*
X12825Y12887D1*
X12779Y12848D1*
X12729Y12815D1*
X12676Y12788D1*
X12619Y12768D1*
X12584Y12759D1*
X15998Y5206D2*
X15993Y5146D1*
X15984Y5087D1*
X15970Y5029D1*
X15951Y4972D1*
X15928Y4916D1*
X15901Y4863D1*
X15870Y4812D1*
X15834Y4763D1*
X15795Y4718D1*
X15753Y4676D1*
X15707Y4637D1*
X15659Y4601D1*
X15607Y4570D1*
X15554Y4543D1*
X15498Y4520D1*
X15441Y4502D1*
X15383Y4488D1*
X15324Y4479D1*
X15264Y4474D1*
X15204Y4475D1*
X15144Y4479D1*
X15085Y4489D1*
X15027Y4503D1*
X14970Y4522D1*
X14914Y4545D1*
X14861Y4573D1*
X14810Y4604D1*
X14762Y4640D1*
X14716Y4679D1*
X14674Y4721D1*
X14635Y4767D1*
X14600Y4816D1*
X14569Y4867D1*
X14542Y4921D1*
X14519Y4976D1*
X14501Y5034D1*
X14488Y5092D1*
X14479Y5151D1*
X14474Y5211D1*
X14475Y5271D1*
X14480Y5331D1*
X14489Y5390D1*
X14504Y5448D1*
X14523Y5505D1*
X14546Y5560D1*
X14574Y5614D1*
X14606Y5665D1*
X14641Y5713D1*
X14680Y5758D1*
X14723Y5800D1*
X14769Y5839D1*
X14818Y5874D1*
X14869Y5905D1*
X14923Y5931D1*
X14979Y5954D1*
X15036Y5972D1*
X15094Y5985D1*
X15154Y5994D1*
X15214Y5998D1*
X15273D1*
X15333Y5992D1*
X15392Y5982D1*
X15451Y5968D1*
X15507Y5949D1*
X15563Y5925D1*
X15616Y5897D1*
X15667Y5866D1*
X15715Y5830D1*
X15760Y5790D1*
X15802Y5747D1*
X15840Y5701D1*
X15875Y5652D1*
X15906Y5601D1*
X15932Y5547D1*
X15955Y5491D1*
X15972Y5434D1*
X15986Y5376D1*
X15994Y5316D1*
X15999Y5236D1*
X15998Y5206D1*
X5998D2*
X5993Y5146D1*
X5984Y5087D1*
X5970Y5029D1*
X5951Y4972D1*
X5928Y4916D1*
X5901Y4863D1*
X5870Y4812D1*
X5834Y4763D1*
X5795Y4718D1*
X5753Y4676D1*
X5707Y4637D1*
X5659Y4601D1*
X5607Y4570D1*
X5554Y4543D1*
X5498Y4520D1*
X5441Y4502D1*
X5383Y4488D1*
X5324Y4479D1*
X5264Y4474D1*
X5204Y4475D1*
X5144Y4479D1*
X5085Y4489D1*
X5027Y4503D1*
X4970Y4522D1*
X4914Y4545D1*
X4861Y4573D1*
X4810Y4604D1*
X4762Y4640D1*
X4716Y4679D1*
X4674Y4721D1*
X4635Y4767D1*
X4600Y4816D1*
X4569Y4867D1*
X4542Y4921D1*
X4519Y4976D1*
X4501Y5034D1*
X4488Y5092D1*
X4479Y5151D1*
X4474Y5211D1*
X4475Y5271D1*
X4480Y5331D1*
X4489Y5390D1*
X4504Y5448D1*
X4523Y5505D1*
X4546Y5560D1*
X4574Y5614D1*
X4606Y5665D1*
X4641Y5713D1*
X4680Y5758D1*
X4723Y5800D1*
X4769Y5839D1*
X4818Y5874D1*
X4869Y5905D1*
X4923Y5931D1*
X4979Y5954D1*
X5036Y5972D1*
X5094Y5985D1*
X5154Y5994D1*
X5214Y5998D1*
X5273D1*
X5333Y5992D1*
X5392Y5982D1*
X5451Y5968D1*
X5507Y5949D1*
X5563Y5925D1*
X5616Y5897D1*
X5667Y5866D1*
X5715Y5830D1*
X5760Y5790D1*
X5802Y5747D1*
X5840Y5701D1*
X5875Y5652D1*
X5906Y5601D1*
X5932Y5547D1*
X5955Y5491D1*
X5972Y5434D1*
X5986Y5376D1*
X5994Y5316D1*
X5999Y5236D1*
X5998Y5206D1*
Y15206D2*
X5993Y15146D1*
X5984Y15087D1*
X5970Y15029D1*
X5951Y14972D1*
X5928Y14916D1*
X5901Y14863D1*
X5870Y14812D1*
X5834Y14763D1*
X5795Y14718D1*
X5753Y14676D1*
X5707Y14637D1*
X5659Y14601D1*
X5607Y14570D1*
X5554Y14543D1*
X5498Y14520D1*
X5441Y14502D1*
X5383Y14488D1*
X5324Y14479D1*
X5264Y14474D1*
X5204Y14475D1*
X5144Y14479D1*
X5085Y14489D1*
X5027Y14503D1*
X4970Y14522D1*
X4914Y14545D1*
X4861Y14573D1*
X4810Y14604D1*
X4762Y14640D1*
X4716Y14679D1*
X4674Y14721D1*
X4635Y14767D1*
X4600Y14816D1*
X4569Y14867D1*
X4542Y14921D1*
X4519Y14976D1*
X4501Y15034D1*
X4488Y15092D1*
X4479Y15151D1*
X4474Y15211D1*
X4475Y15271D1*
X4480Y15331D1*
X4489Y15390D1*
X4504Y15448D1*
X4523Y15505D1*
X4546Y15560D1*
X4574Y15614D1*
X4606Y15665D1*
X4641Y15713D1*
X4680Y15758D1*
X4723Y15800D1*
X4769Y15839D1*
X4818Y15874D1*
X4869Y15905D1*
X4923Y15931D1*
X4979Y15954D1*
X5036Y15972D1*
X5094Y15985D1*
X5154Y15994D1*
X5214Y15998D1*
X5273D1*
X5333Y15992D1*
X5392Y15982D1*
X5451Y15968D1*
X5507Y15949D1*
X5563Y15925D1*
X5616Y15897D1*
X5667Y15866D1*
X5715Y15830D1*
X5760Y15790D1*
X5802Y15747D1*
X5840Y15701D1*
X5875Y15652D1*
X5906Y15601D1*
X5932Y15547D1*
X5955Y15491D1*
X5972Y15434D1*
X5986Y15376D1*
X5994Y15316D1*
X5999Y15236D1*
X5998Y15206D1*
X13279Y5999D2*
X14223D1*
Y5025D1*
X13249D1*
Y5999D1*
X13279D1*
X13222Y5482D2*
X13215Y5422D1*
X13200Y5364D1*
X13178Y5308D1*
X13150Y5255D1*
X13115Y5207D1*
X13075Y5162D1*
X13029Y5123D1*
X12979Y5090D1*
X12926Y5063D1*
X12869Y5044D1*
X12810Y5031D1*
X12751Y5025D1*
X12691Y5027D1*
X12632Y5036D1*
X12574Y5053D1*
X12519Y5076D1*
X12467Y5106D1*
X12419Y5143D1*
X12376Y5184D1*
X12339Y5231D1*
X12307Y5282D1*
X12282Y5337D1*
X12264Y5394D1*
X12253Y5453D1*
X12249Y5513D1*
X12253Y5573D1*
X12264Y5631D1*
X12283Y5689D1*
X12308Y5743D1*
X12340Y5794D1*
X12377Y5841D1*
X12420Y5882D1*
X12468Y5918D1*
X12520Y5948D1*
X12576Y5971D1*
X12633Y5988D1*
X12693Y5997D1*
X12753Y5998D1*
X12812Y5993D1*
X12871Y5980D1*
X12927Y5959D1*
X12981Y5933D1*
X13031Y5899D1*
X13076Y5860D1*
X13116Y5816D1*
X13151Y5767D1*
X13179Y5714D1*
X13201Y5658D1*
X13215Y5600D1*
X13222Y5540D1*
Y5482D1*
X10222D2*
X10215Y5422D1*
X10200Y5364D1*
X10178Y5308D1*
X10150Y5255D1*
X10115Y5207D1*
X10075Y5162D1*
X10029Y5123D1*
X9979Y5090D1*
X9926Y5063D1*
X9869Y5044D1*
X9810Y5031D1*
X9751Y5025D1*
X9691Y5027D1*
X9632Y5036D1*
X9574Y5053D1*
X9519Y5076D1*
X9467Y5106D1*
X9419Y5143D1*
X9376Y5184D1*
X9339Y5231D1*
X9307Y5282D1*
X9282Y5337D1*
X9264Y5394D1*
X9253Y5453D1*
X9249Y5513D1*
X9253Y5573D1*
X9264Y5631D1*
X9283Y5689D1*
X9308Y5743D1*
X9340Y5794D1*
X9377Y5841D1*
X9420Y5882D1*
X9468Y5918D1*
X9520Y5948D1*
X9576Y5971D1*
X9633Y5988D1*
X9693Y5997D1*
X9753Y5998D1*
X9812Y5993D1*
X9871Y5980D1*
X9927Y5959D1*
X9981Y5933D1*
X10031Y5899D1*
X10076Y5860D1*
X10116Y5816D1*
X10151Y5767D1*
X10179Y5714D1*
X10201Y5658D1*
X10215Y5600D1*
X10222Y5540D1*
Y5482D1*
X8222D2*
X8215Y5422D1*
X8200Y5364D1*
X8178Y5308D1*
X8150Y5255D1*
X8115Y5207D1*
X8075Y5162D1*
X8029Y5123D1*
X7979Y5090D1*
X7926Y5063D1*
X7869Y5044D1*
X7810Y5031D1*
X7751Y5025D1*
X7691Y5027D1*
X7632Y5036D1*
X7574Y5053D1*
X7519Y5076D1*
X7467Y5106D1*
X7419Y5143D1*
X7376Y5184D1*
X7339Y5231D1*
X7307Y5282D1*
X7282Y5337D1*
X7264Y5394D1*
X7253Y5453D1*
X7249Y5513D1*
X7253Y5573D1*
X7264Y5631D1*
X7283Y5689D1*
X7308Y5743D1*
X7340Y5794D1*
X7377Y5841D1*
X7420Y5882D1*
X7468Y5918D1*
X7520Y5948D1*
X7576Y5971D1*
X7633Y5988D1*
X7693Y5997D1*
X7753Y5998D1*
X7812Y5993D1*
X7871Y5980D1*
X7927Y5959D1*
X7981Y5933D1*
X8031Y5899D1*
X8076Y5860D1*
X8116Y5816D1*
X8151Y5767D1*
X8179Y5714D1*
X8201Y5658D1*
X8215Y5600D1*
X8222Y5540D1*
Y5482D1*
X7222D2*
X7215Y5422D1*
X7200Y5364D1*
X7178Y5308D1*
X7150Y5255D1*
X7115Y5207D1*
X7075Y5162D1*
X7029Y5123D1*
X6979Y5090D1*
X6926Y5063D1*
X6869Y5044D1*
X6810Y5031D1*
X6751Y5025D1*
X6691Y5027D1*
X6632Y5036D1*
X6574Y5053D1*
X6519Y5076D1*
X6467Y5106D1*
X6419Y5143D1*
X6376Y5184D1*
X6339Y5231D1*
X6307Y5282D1*
X6282Y5337D1*
X6264Y5394D1*
X6253Y5453D1*
X6249Y5513D1*
X6253Y5573D1*
X6264Y5631D1*
X6283Y5689D1*
X6308Y5743D1*
X6340Y5794D1*
X6377Y5841D1*
X6420Y5882D1*
X6468Y5918D1*
X6520Y5948D1*
X6576Y5971D1*
X6633Y5988D1*
X6693Y5997D1*
X6753Y5998D1*
X6812Y5993D1*
X6871Y5980D1*
X6927Y5959D1*
X6981Y5933D1*
X7031Y5899D1*
X7076Y5860D1*
X7116Y5816D1*
X7151Y5767D1*
X7179Y5714D1*
X7201Y5658D1*
X7215Y5600D1*
X7222Y5540D1*
Y5482D1*
Y14931D2*
X7215Y14871D1*
X7200Y14813D1*
X7178Y14757D1*
X7150Y14704D1*
X7115Y14655D1*
X7075Y14611D1*
X7029Y14572D1*
X6979Y14539D1*
X6926Y14512D1*
X6869Y14492D1*
X6810Y14480D1*
X6751Y14474D1*
X6691Y14476D1*
X6632Y14485D1*
X6574Y14502D1*
X6519Y14525D1*
X6467Y14555D1*
X6419Y14591D1*
X6376Y14633D1*
X6339Y14680D1*
X6307Y14731D1*
X6282Y14786D1*
X6264Y14843D1*
X6253Y14902D1*
X6249Y14962D1*
X6253Y15021D1*
X6264Y15080D1*
X6283Y15137D1*
X6308Y15192D1*
X6340Y15243D1*
X6377Y15289D1*
X6420Y15331D1*
X6468Y15367D1*
X6520Y15397D1*
X6576Y15420D1*
X6633Y15436D1*
X6693Y15445D1*
X6753Y15447D1*
X6812Y15441D1*
X6871Y15428D1*
X6927Y15408D1*
X6981Y15381D1*
X7031Y15348D1*
X7076Y15309D1*
X7116Y15265D1*
X7151Y15215D1*
X7179Y15163D1*
X7201Y15107D1*
X7215Y15048D1*
X7222Y14989D1*
Y14931D1*
X10222D2*
X10215Y14871D1*
X10200Y14813D1*
X10178Y14757D1*
X10150Y14704D1*
X10115Y14655D1*
X10075Y14611D1*
X10029Y14572D1*
X9979Y14539D1*
X9926Y14512D1*
X9869Y14492D1*
X9810Y14480D1*
X9751Y14474D1*
X9691Y14476D1*
X9632Y14485D1*
X9574Y14502D1*
X9519Y14525D1*
X9467Y14555D1*
X9419Y14591D1*
X9376Y14633D1*
X9339Y14680D1*
X9307Y14731D1*
X9282Y14786D1*
X9264Y14843D1*
X9253Y14902D1*
X9249Y14962D1*
X9253Y15021D1*
X9264Y15080D1*
X9283Y15137D1*
X9308Y15192D1*
X9340Y15243D1*
X9377Y15289D1*
X9420Y15331D1*
X9468Y15367D1*
X9520Y15397D1*
X9576Y15420D1*
X9633Y15436D1*
X9693Y15445D1*
X9753Y15447D1*
X9812Y15441D1*
X9871Y15428D1*
X9927Y15408D1*
X9981Y15381D1*
X10031Y15348D1*
X10076Y15309D1*
X10116Y15265D1*
X10151Y15215D1*
X10179Y15163D1*
X10201Y15107D1*
X10215Y15048D1*
X10222Y14989D1*
Y14931D1*
X12222D2*
X12215Y14871D1*
X12200Y14813D1*
X12178Y14757D1*
X12150Y14704D1*
X12115Y14655D1*
X12075Y14611D1*
X12029Y14572D1*
X11979Y14539D1*
X11926Y14512D1*
X11869Y14492D1*
X11810Y14480D1*
X11751Y14474D1*
X11691Y14476D1*
X11632Y14485D1*
X11574Y14502D1*
X11519Y14525D1*
X11467Y14555D1*
X11419Y14591D1*
X11376Y14633D1*
X11339Y14680D1*
X11307Y14731D1*
X11282Y14786D1*
X11264Y14843D1*
X11253Y14902D1*
X11249Y14962D1*
X11253Y15021D1*
X11264Y15080D1*
X11283Y15137D1*
X11308Y15192D1*
X11340Y15243D1*
X11377Y15289D1*
X11420Y15331D1*
X11468Y15367D1*
X11520Y15397D1*
X11576Y15420D1*
X11633Y15436D1*
X11693Y15445D1*
X11753Y15447D1*
X11812Y15441D1*
X11871Y15428D1*
X11927Y15408D1*
X11981Y15381D1*
X12031Y15348D1*
X12076Y15309D1*
X12116Y15265D1*
X12151Y15215D1*
X12179Y15163D1*
X12201Y15107D1*
X12215Y15048D1*
X12222Y14989D1*
Y14931D1*
X14376Y14151D2*
X14363Y14199D1*
X14361Y14229D1*
X14362Y14259D1*
X14366Y14289D1*
X14374Y14318D1*
X14386Y14345D1*
X14400Y14372D1*
X14418Y14396D1*
X14439Y14418D1*
X14461Y14437D1*
X14487Y14454D1*
X14513Y14467D1*
X14542Y14477D1*
X14571Y14483D1*
X14601Y14487D1*
X14631Y14486D1*
X14660Y14482D1*
X14689Y14474D1*
X14717Y14463D1*
X14744Y14449D1*
X14768Y14432D1*
X14790Y14411D1*
X14810Y14389D1*
X14827Y14364D1*
X14840Y14337D1*
X14851Y14309D1*
X14858Y14280D1*
X14861Y14251D1*
X14860Y14206D1*
X14855Y14177D1*
X14846Y14151D1*
X14861Y14127D1*
X14870Y14170D1*
X14863Y14199D1*
X14861Y14225D1*
X14855Y14177D1*
X14847Y14151D1*
X4257Y4227D2*
X16246D1*
Y16246D1*
X4227D1*
Y4227D1*
X4257D1*
X4954Y11236D2*
D17*
X6019D1*
X11954D2*
X12486D1*
X14111Y13486D2*
Y13199D1*
D19*
X5486Y8236D3*
Y9236D3*
Y10236D3*
Y11236D3*
Y12236D3*
X12486D3*
Y11236D3*
Y10236D3*
Y9236D3*
Y8236D3*
D23*
X13736Y5512D3*
D24*
X12736D3*
X11736D3*
X10736D3*
X9736D3*
X8736D3*
X7736D3*
X6736D3*
Y14961D3*
X7736D3*
X8736D3*
X9736D3*
X10736D3*
X11736D3*
X12736D3*
X13736D3*
X12486Y13236D3*
D27*
X15111Y13486D3*
X14611D3*
X14111D3*
Y13986D3*
X14611D3*
X15111D3*
G36*
X8921Y9931D2*
X9041Y10252D1*
X9761D1*
X9881Y9931D1*
X9801Y9771D1*
X8961D1*
D1*
X8921Y9931D1*
G37*
M02*
