G04 DipTrace 2.4.0.1*
%INminishift.backsilk.gbo*%
%MOIN*%
%ADD10C,0.0098*%
%ADD20O,0.0165X0.0164*%
%ADD25C,0.0118*%
%ADD51C,0.0062*%
%FSLAX44Y44*%
G04*
G70*
G90*
G75*
G01*
%LNBotSilk*%
%LPD*%
X6470Y12561D2*
D10*
X6155D1*
X7095D2*
X6780D1*
X10738Y11270D2*
X8455D1*
Y8986D1*
X10738D1*
Y11270D1*
D20*
X11255Y11581D3*
G36*
X10738Y11270D2*
Y10955D1*
X10423Y11270D1*
X10738D1*
G37*
X16549Y3951D2*
D10*
X3951D1*
Y16549D1*
X16549D1*
Y3951D1*
X11197Y12790D2*
Y13420D1*
X9858Y12790D2*
Y13420D1*
D25*
X11000Y12420D3*
X9858Y7586D2*
D10*
Y6956D1*
X11197Y7586D2*
Y6956D1*
D25*
X10055Y7955D3*
X6250Y13023D2*
D51*
X6212Y13042D1*
X6174Y13080D1*
X6155Y13118D1*
Y13195D1*
X6174Y13233D1*
X6212Y13271D1*
X6250Y13291D1*
X6308Y13310D1*
X6404D1*
X6461Y13291D1*
X6499Y13271D1*
X6537Y13233D1*
X6557Y13195D1*
Y13118D1*
X6537Y13080D1*
X6499Y13042D1*
X6461Y13023D1*
X6232Y12899D2*
X6212Y12861D1*
X6155Y12804D1*
X6557D1*
X6875Y13109D2*
X6837Y13128D1*
X6799Y13166D1*
X6780Y13204D1*
Y13281D1*
X6799Y13319D1*
X6837Y13357D1*
X6875Y13377D1*
X6933Y13396D1*
X7029D1*
X7086Y13377D1*
X7124Y13357D1*
X7162Y13319D1*
X7182Y13281D1*
Y13204D1*
X7162Y13166D1*
X7124Y13128D1*
X7086Y13109D1*
X6876Y12966D2*
X6857D1*
X6818Y12947D1*
X6799Y12928D1*
X6780Y12890D1*
Y12813D1*
X6799Y12775D1*
X6818Y12756D1*
X6857Y12737D1*
X6895D1*
X6933Y12756D1*
X6990Y12794D1*
X7182Y12985D1*
Y12718D1*
X9912Y10472D2*
Y10070D1*
X9501Y10376D2*
X9520Y10414D1*
X9559Y10453D1*
X9597Y10472D1*
X9673D1*
X9712Y10453D1*
X9750Y10414D1*
X9769Y10376D1*
X9788Y10319D1*
Y10223D1*
X9769Y10166D1*
X9750Y10127D1*
X9712Y10089D1*
X9673Y10070D1*
X9597D1*
X9559Y10089D1*
X9520Y10127D1*
X9501Y10166D1*
X9378Y10395D2*
X9339Y10414D1*
X9282Y10471D1*
Y10070D1*
X11896Y13165D2*
X11724D1*
X11667Y13185D1*
X11648Y13204D1*
X11628Y13242D1*
Y13280D1*
X11648Y13318D1*
X11667Y13338D1*
X11724Y13357D1*
X11896D1*
Y12955D1*
X11762Y13165D2*
X11628Y12955D1*
X11505Y13280D2*
X11467Y13299D1*
X11409Y13356D1*
Y12955D1*
X11982Y7283D2*
X11810D1*
X11753Y7303D1*
X11734Y7322D1*
X11715Y7360D1*
Y7398D1*
X11734Y7436D1*
X11753Y7456D1*
X11810Y7475D1*
X11982D1*
Y7073D1*
X11849Y7283D2*
X11715Y7073D1*
X11572Y7379D2*
Y7398D1*
X11553Y7436D1*
X11534Y7455D1*
X11495Y7474D1*
X11419D1*
X11381Y7455D1*
X11362Y7436D1*
X11342Y7398D1*
Y7360D1*
X11362Y7321D1*
X11400Y7264D1*
X11591Y7073D1*
X11323D1*
M02*
