G04 DipTrace 2.3.1.0*
%INminishift_BottomMask.gbs*%
%MOIN*%
%ADD30C,0.126*%
%ADD31C,0.04*%
%ADD36R,0.0295X0.0453*%
%ADD38C,0.0787*%
%ADD40R,0.0787X0.0787*%
%ADD42R,0.0276X0.0748*%
%ADD44R,0.0748X0.0276*%
%ADD46C,0.0879*%
%ADD48R,0.0472X0.0512*%
%FSLAX44Y44*%
G04*
G70*
G90*
G75*
G01*
%LNBotMask*%
%LPD*%
D48*
X6111Y12156D3*
Y11487D3*
X6736Y12156D3*
Y11487D3*
D46*
X5486Y8236D3*
Y9236D3*
Y10236D3*
Y11236D3*
Y12236D3*
X12486D3*
Y11236D3*
Y10236D3*
Y9236D3*
Y8236D3*
D30*
X15236Y15236D3*
Y5236D3*
X5236D3*
Y15236D3*
D44*
X11236Y11236D3*
Y10921D3*
Y10606D3*
Y10291D3*
Y9976D3*
Y9661D3*
Y9346D3*
Y9031D3*
D42*
X10685Y8480D3*
X10370D3*
X10055D3*
X9740D3*
X9425D3*
X9110D3*
X8795D3*
X8480D3*
D44*
X7929Y9031D3*
Y9346D3*
Y9661D3*
Y9976D3*
Y10291D3*
Y10606D3*
Y10921D3*
Y11236D3*
D42*
X8480Y11787D3*
X8795D3*
X9110D3*
X9425D3*
X9740D3*
X10055D3*
X10370D3*
X10685D3*
D40*
X13736Y5512D3*
D38*
X12736D3*
X11736D3*
X10736D3*
X9736D3*
X8736D3*
X7736D3*
X6736D3*
Y14961D3*
X7736D3*
X8736D3*
X9736D3*
X10736D3*
X11736D3*
X12736D3*
X13736D3*
D36*
X10986Y12736D3*
X10671D3*
X10356D3*
X10041D3*
Y13445D3*
X10356D3*
X10671D3*
X10986D3*
X10041Y7611D3*
X10356D3*
X10671D3*
X10986D3*
Y6903D3*
X10671D3*
X10356D3*
X10041D3*
D31*
X15611Y13736D3*
X13611Y13336D3*
Y14136D3*
M02*
