M48
INCH
T01C0.0118
T02C0.0236
T03C0.04
T04C0.126
%
T01
X+013361Y+011236
X+011986Y+010861
X+010736Y+010291
X+010424Y+010736
X+010611Y+009111
X+009486Y+009111
X+008861Y+009111
X+008611Y+009861
X+008416Y+010291
X+007361Y+009986
X+007361Y+010611
X+007861Y+008736
X+008111Y+008486
X+007611Y+008486
X+008736Y+007986
X+009110Y+007986
X+008480Y+007611
X+008111Y+007111
X+007861Y+006861
X+007611Y+006611
X+009611Y+012611
X+009110Y+013861
X+008486Y+014111
X+007929Y+013361
X+007361Y+013111
X+007111Y+013611
X+013111Y+012736
X+014361Y+013111
X+014736Y+012236
X+014611Y+014236
X+015111Y+014236
T02
X+013736Y+005512
X+012736Y+005512
X+011736Y+005512
X+010736Y+005512
X+009736Y+005512
X+008736Y+005512
X+007736Y+005512
X+006736Y+005512
X+006736Y+014961
X+007736Y+014961
X+008736Y+014961
X+009736Y+014961
X+010736Y+014961
X+011736Y+014961
X+012736Y+014961
X+013736Y+014961
T03
X+005486Y+008236
X+005486Y+009236
X+005486Y+010236
X+005486Y+011236
X+005486Y+012236
X+012486Y+012236
X+012486Y+011236
X+012486Y+010236
X+012486Y+009236
X+012486Y+008236
X+013611Y+013336
X+013611Y+014136
X+015611Y+013736
T04
X+015236Y+015236
X+015236Y+005236
X+005236Y+005236
X+005236Y+015236
T00
M30
