M48
INCH
T01C0.0118
T02C0.0236
T03C0.04
T04C0.125
%
T01
X+013375Y+011250
X+012000Y+010875
X+010750Y+010305
X+010438Y+010750
X+010625Y+009125
X+009500Y+009125
X+008875Y+009125
X+008625Y+009875
X+008430Y+010305
X+007375Y+010000
X+007375Y+010625
X+007875Y+008750
X+008125Y+008500
X+007625Y+008500
X+008750Y+008000
X+009124Y+008000
X+008494Y+007625
X+008125Y+007125
X+007875Y+006875
X+007625Y+006625
X+009625Y+012625
X+009124Y+013875
X+008500Y+014125
X+007943Y+013375
X+007625Y+013125
X+007250Y+013625
X+013125Y+012750
X+014375Y+013125
X+014750Y+012250
X+014625Y+014250
X+015125Y+014250
T02
X+013750Y+005526
X+012750Y+005526
X+011750Y+005526
X+010750Y+005526
X+009750Y+005526
X+008750Y+005526
X+007750Y+005526
X+006750Y+005526
X+006750Y+014975
X+007750Y+014975
X+008750Y+014975
X+009750Y+014975
X+010750Y+014975
X+011750Y+014975
X+012750Y+014975
X+013750Y+014975
T03
X+005500Y+008250
X+005500Y+009250
X+005500Y+010250
X+005500Y+011250
X+005500Y+012250
X+012500Y+012250
X+012500Y+011250
X+012500Y+010250
X+012500Y+009250
X+012500Y+008250
X+013625Y+013350
X+013625Y+014150
X+015625Y+013750
T04
X+015250Y+015250
X+005250Y+015250
X+005250Y+005250
X+015251Y+005125
T00
M30
