G04 DipTrace 2.3.1.0*
%INminishift_Bottom.gbl*%
%MOIN*%
%ADD13C,0.02*%
%ADD14C,0.0197*%
%ADD15C,0.01*%
%ADD16C,0.016*%
%ADD19R,0.0709X0.0709*%
%ADD20C,0.0709*%
%ADD22R,0.0669X0.0197*%
%ADD23R,0.0197X0.0669*%
%ADD25R,0.0217X0.0374*%
%ADD27R,0.0394X0.0433*%
%ADD30C,0.0236*%
%FSLAX44Y44*%
G04*
G70*
G90*
G75*
G01*
%LNBottom*%
%LPD*%
X11236Y9976D2*
D13*
X10736D1*
X8416Y10291D2*
X7929D1*
X13236Y11236D2*
X12486D1*
X5486D2*
X5861D1*
X6111Y11487D1*
X6736D2*
X6111D1*
X7929Y10291D2*
D14*
X7494D1*
D13*
X6931D1*
X6736Y10486D1*
Y11487D1*
X9110Y8480D2*
D15*
Y7986D1*
X15111Y14236D2*
Y13861D1*
X14361Y13111D1*
X8480Y7611D2*
Y8480D1*
X8795D2*
Y8045D1*
X8736Y7986D1*
X10055Y11787D2*
Y12722D1*
X10041Y12736D1*
X10685Y11787D2*
Y12722D1*
X10671Y12736D1*
X10986Y6903D2*
X13695D1*
X13736Y6861D1*
Y5512D1*
X10671Y6903D2*
Y6426D1*
X10861Y6236D1*
X12986D1*
X13236Y5986D1*
Y5236D1*
X12986Y4986D1*
X8262D1*
X7736Y5512D1*
X10356Y6903D2*
Y6241D1*
X10611Y5986D1*
X12611D1*
X12736Y5861D1*
Y5512D1*
X10041Y6903D2*
Y5817D1*
X9736Y5512D1*
X10041Y13445D2*
Y13931D1*
X9861Y14111D1*
X8861D1*
X8611Y14361D1*
X6861D1*
X6736Y14486D1*
Y14961D1*
X10356Y13445D2*
Y14106D1*
X10611Y14361D1*
X11611D1*
X11736Y14486D1*
Y14961D1*
X10370Y11787D2*
Y12722D1*
X10356Y12736D1*
X11236Y10921D2*
X11551D1*
X11736Y10736D1*
Y8861D1*
X10986Y8111D1*
Y7611D1*
X10685Y8480D2*
Y7625D1*
X10671Y7611D1*
X10370Y8480D2*
Y7625D1*
X10356Y7611D1*
X10055Y8480D2*
Y7625D1*
X10041Y7611D1*
X10671Y13445D2*
Y13796D1*
X10986Y14111D1*
X11986D1*
X12236Y14361D1*
Y15236D1*
X11986Y15486D1*
X10486D1*
X10236Y15236D1*
Y14611D1*
X9986Y14361D1*
X9486D1*
X9236Y14611D1*
Y15236D1*
X8986Y15486D1*
X6486D1*
X6236Y15236D1*
Y12986D1*
X5986Y12736D1*
X5236D1*
X4736Y12236D1*
Y7512D1*
X6736Y5512D1*
X10986Y13445D2*
Y13611D1*
X11236Y13861D1*
X12986D1*
X13236Y14111D1*
Y15361D1*
X12861Y15736D1*
X9986D1*
X9736Y15486D1*
Y14961D1*
X10986Y12736D2*
Y11486D1*
X11236Y11236D1*
X7111Y13611D2*
Y10861D1*
X7361Y10611D1*
Y9986D2*
X7919D1*
X7929Y9976D1*
X9425Y11787D2*
Y9172D1*
X9486Y9111D1*
X7861Y8736D2*
Y6861D1*
X9110Y13861D2*
Y11787D1*
X8795D2*
Y11427D1*
X8861Y11361D1*
Y9111D1*
X7611Y8486D2*
Y6611D1*
X8486Y14111D2*
Y11793D1*
X8480Y11787D1*
X7929Y11236D2*
Y13361D1*
X7361Y13111D2*
Y11111D1*
X7486Y10986D1*
X7864D1*
X7929Y10921D1*
X8111Y7111D2*
Y8486D1*
X10611Y9111D2*
X10861Y9361D1*
X11221D1*
X11236Y9346D1*
X9740Y11787D2*
Y12482D1*
X9611Y12611D1*
X14611Y14236D2*
Y14361D1*
X5486Y10236D2*
X4986Y9736D1*
Y8986D1*
X5236Y8736D1*
X7111D1*
X7361Y8986D1*
X7884D1*
X7929Y9031D1*
X12986Y12736D2*
X13486D1*
X14611Y13861D1*
Y14236D1*
X7929Y9346D2*
D13*
X8096D1*
X14736Y12236D2*
X12486D1*
X7929Y9346D2*
D14*
X8096D1*
X7929D2*
X8346D1*
D13*
X8611Y9611D1*
Y9861D1*
X10361Y10291D2*
X11236D1*
X5486Y12236D2*
X6031D1*
X6111Y12156D1*
X6736D2*
X6111D1*
X7929Y9346D2*
D14*
X7494D1*
D13*
X7376D1*
X5986Y10736D1*
D16*
X4986D1*
Y11736D1*
D13*
X5486Y12236D1*
D30*
X10736Y9976D3*
X8416Y10291D3*
X13236Y11236D3*
X9110Y7986D3*
X15111Y14236D3*
X14361Y13111D3*
X8480Y7611D3*
X8736Y7986D3*
X7111Y13611D3*
X7361Y10611D3*
Y9986D3*
X9486Y9111D3*
X7861Y8736D3*
Y6861D3*
X9110Y13861D3*
X8861Y9111D3*
X7611Y8486D3*
Y6611D3*
X8486Y14111D3*
X7929Y13361D3*
X7361Y13111D3*
X8111Y7111D3*
Y8486D3*
X10611Y9111D3*
X9611Y12611D3*
X14611Y14236D3*
X12986Y12736D3*
X14611Y14236D3*
X14736Y12236D3*
X8611Y9861D3*
X10361Y10291D3*
D19*
X13736Y5512D3*
D20*
X12736D3*
X11736D3*
X10736D3*
X9736D3*
X8736D3*
X7736D3*
X6736D3*
Y14961D3*
X7736D3*
X8736D3*
X9736D3*
X10736D3*
X11736D3*
X12736D3*
X13736D3*
D22*
X11236Y11236D3*
Y10921D3*
Y10606D3*
Y10291D3*
Y9976D3*
Y9661D3*
Y9346D3*
Y9031D3*
D23*
X10685Y8480D3*
X10370D3*
X10055D3*
X9740D3*
X9425D3*
X9110D3*
X8795D3*
X8480D3*
D22*
X7929Y9031D3*
Y9346D3*
Y9661D3*
Y9976D3*
Y10291D3*
Y10606D3*
Y10921D3*
Y11236D3*
D23*
X8480Y11787D3*
X8795D3*
X9110D3*
X9425D3*
X9740D3*
X10055D3*
X10370D3*
X10685D3*
D25*
X10986Y12736D3*
X10671D3*
X10356D3*
X10041D3*
Y13445D3*
X10356D3*
X10671D3*
X10986D3*
X10041Y7611D3*
X10356D3*
X10671D3*
X10986D3*
Y6903D3*
X10671D3*
X10356D3*
X10041D3*
D20*
X5486Y8236D3*
Y9236D3*
Y10236D3*
Y11236D3*
Y12236D3*
X12486D3*
Y11236D3*
Y10236D3*
Y9236D3*
Y8236D3*
D27*
X6111Y12156D3*
Y11487D3*
X6736Y12156D3*
Y11487D3*
M02*
