G04 DipTrace 2.3.1.0*
%INminishift_TopSilk.gto*%
%MOIN*%
%ADD10C,0.0098*%
%ADD12C,0.003*%
%ADD29C,0.004*%
%FSLAX44Y44*%
G04*
G70*
G90*
G75*
G01*
%LNTopSilk*%
%LPD*%
X5486Y7736D2*
D10*
X3951D1*
Y12736D1*
X5486D1*
Y7736D1*
X16463Y12736D2*
X12486D1*
Y7736D1*
X16463D1*
Y12736D1*
X9124Y14796D2*
D29*
X9091Y14793D1*
X9059Y14783D1*
X9029Y14767D1*
X9002Y14746D1*
X8981Y14719D1*
X8965Y14689D1*
X8955Y14657D1*
X8951Y14623D1*
X8954Y14593D1*
X8962Y14564D1*
X8975Y14537D1*
X8950Y14513D1*
X8927Y14489D1*
X8903Y14464D1*
X8878Y14440D1*
X8855Y14415D1*
X8830Y14391D1*
X8806Y14367D1*
X8783Y14342D1*
X8758Y14318D1*
X8734Y14293D1*
X8710Y14269D1*
X8686Y14245D1*
X8662Y14221D1*
X8638Y14197D1*
X8614Y14172D1*
X8590Y14148D1*
X8566Y14123D1*
X8542Y14099D1*
X8518Y14075D1*
X8493Y14050D1*
X8470Y14026D1*
X8446Y14001D1*
X8421Y13977D1*
X8398Y13953D1*
X8373Y13928D1*
X8349Y13904D1*
X8326Y13879D1*
X8301Y13855D1*
Y13820D1*
Y13787D1*
Y13752D1*
Y13717D1*
Y13683D1*
Y13648D1*
Y13614D1*
Y13580D1*
Y13545D1*
Y13510D1*
Y13476D1*
Y13441D1*
Y13407D1*
Y13373D1*
Y13338D1*
Y13303D1*
Y13269D1*
Y13235D1*
Y13200D1*
Y13166D1*
Y13131D1*
Y13096D1*
Y13062D1*
Y13028D1*
Y12993D1*
Y12959D1*
Y12924D1*
Y12889D1*
Y12855D1*
Y12821D1*
Y12786D1*
Y12752D1*
Y12717D1*
Y12682D1*
X8323Y12656D1*
X8346Y12630D1*
X8368Y12604D1*
X8391Y12578D1*
X8413Y12552D1*
X8435Y12527D1*
X8457Y12500D1*
X8479Y12474D1*
X8502Y12448D1*
X8524Y12422D1*
X8546Y12396D1*
X8569Y12370D1*
X8591Y12343D1*
X8613Y12317D1*
X8635Y12291D1*
X8657Y12265D1*
X8680Y12239D1*
X8702Y12213D1*
X8725Y12187D1*
X8747Y12161D1*
X8769Y12135D1*
X8791Y12109D1*
X8813Y12083D1*
X8836Y12057D1*
X8858Y12031D1*
X8881Y12005D1*
X8903Y11978D1*
X8925Y11952D1*
X8947Y11926D1*
X8969Y11900D1*
X8992Y11874D1*
X9014Y11848D1*
X9036Y11821D1*
X9059Y11795D1*
X9041Y11769D1*
X9024Y11742D1*
X9007Y11715D1*
X8979Y11736D1*
X8950Y11758D1*
X8922Y11778D1*
X8894Y11799D1*
X8866Y11821D1*
X8838Y11842D1*
X8810Y11862D1*
X8782Y11884D1*
X8754Y11905D1*
X8725Y11926D1*
X8697Y11947D1*
X8670Y11968D1*
X8642Y11989D1*
X8613Y12010D1*
X8585Y12031D1*
X8557Y12052D1*
X8529Y12073D1*
X8500Y12094D1*
X8473Y12116D1*
X8445Y12136D1*
X8417Y12157D1*
X8388Y12179D1*
X8360Y12200D1*
X8332Y12221D1*
X8305Y12242D1*
X8276Y12263D1*
X8248Y12284D1*
X8220Y12305D1*
X8192Y12326D1*
X8163Y12347D1*
X8135Y12368D1*
X8108Y12390D1*
X8080Y12410D1*
X8051Y12431D1*
X8042Y12465D1*
X8032Y12498D1*
X8022Y12531D1*
X8013Y12564D1*
X8003Y12598D1*
X7994Y12631D1*
X7985Y12664D1*
X7975Y12698D1*
X7966Y12731D1*
X7956Y12764D1*
X7946Y12798D1*
X7937Y12831D1*
X7927Y12864D1*
X7918Y12898D1*
X7909Y12931D1*
X7898Y12964D1*
X7889Y12998D1*
X7880Y13031D1*
X7870Y13064D1*
X7861Y13098D1*
X7851Y13131D1*
X7841Y13164D1*
X7832Y13198D1*
X7822Y13231D1*
X7813Y13264D1*
X7804Y13298D1*
X7794Y13331D1*
X7784Y13364D1*
X7775Y13398D1*
X7765Y13431D1*
X7756Y13464D1*
X7746Y13498D1*
X7737Y13531D1*
X7727Y13564D1*
X7717Y13598D1*
X7708Y13631D1*
X7699Y13664D1*
X7689Y13698D1*
X7680Y13731D1*
X7670Y13764D1*
X7660Y13798D1*
X7651Y13831D1*
X7641Y13864D1*
X7658Y13894D1*
X7673Y13925D1*
X7690Y13956D1*
X7706Y13986D1*
X7722Y14017D1*
X7739Y14048D1*
X7754Y14078D1*
X7771Y14109D1*
X7786Y14140D1*
X7803Y14171D1*
X7818Y14201D1*
X7835Y14232D1*
X7851Y14263D1*
X7867Y14293D1*
X7884Y14324D1*
X7899Y14355D1*
X7916Y14385D1*
X7942Y14378D1*
X7968Y14376D1*
X8002Y14380D1*
X8035Y14389D1*
X8065Y14406D1*
X8091Y14427D1*
X8112Y14453D1*
X8127Y14483D1*
X8138Y14516D1*
X8141Y14549D1*
X8138Y14583D1*
X8127Y14615D1*
X8112Y14645D1*
X8091Y14672D1*
X8065Y14693D1*
X8035Y14709D1*
X8002Y14719D1*
X7968Y14722D1*
X7935Y14719D1*
X7902Y14709D1*
X7873Y14693D1*
X7846Y14672D1*
X7825Y14645D1*
X7809Y14615D1*
X7799Y14583D1*
X7796Y14549D1*
X7798Y14518D1*
X7808Y14487D1*
X7822Y14459D1*
X7840Y14433D1*
X7820Y14407D1*
X7800Y14379D1*
X7779Y14352D1*
X7758Y14324D1*
X7737Y14296D1*
X7717Y14270D1*
X7696Y14242D1*
X7675Y14215D1*
X7655Y14187D1*
X7634Y14160D1*
X7613Y14133D1*
X7592Y14105D1*
X7572Y14078D1*
X7551Y14050D1*
X7530Y14023D1*
X7510Y13996D1*
X7488Y13968D1*
X7468Y13941D1*
X7448Y13913D1*
X7455Y13880D1*
X7463Y13846D1*
X7470Y13812D1*
X7478Y13779D1*
X7485Y13745D1*
X7492Y13711D1*
X7500Y13678D1*
X7508Y13644D1*
X7515Y13610D1*
X7523Y13576D1*
X7531Y13543D1*
X7538Y13509D1*
X7546Y13475D1*
X7553Y13442D1*
X7561Y13408D1*
X7568Y13374D1*
X7575Y13340D1*
X7583Y13306D1*
X7591Y13273D1*
X7598Y13240D1*
X7606Y13206D1*
X7613Y13172D1*
X7621Y13138D1*
X7629Y13104D1*
X7636Y13070D1*
X7644Y13037D1*
X7652Y13003D1*
X7659Y12970D1*
X7666Y12936D1*
X7673Y12902D1*
X7681Y12868D1*
X7689Y12835D1*
X7696Y12801D1*
X7704Y12767D1*
X7712Y12733D1*
X7719Y12700D1*
X7727Y12666D1*
X7735Y12633D1*
X7742Y12599D1*
X7750Y12565D1*
X7757Y12531D1*
X7764Y12497D1*
X7772Y12464D1*
X7779Y12431D1*
X7787Y12397D1*
X7795Y12363D1*
X7802Y12329D1*
X7829Y12306D1*
X7855Y12284D1*
X7882Y12261D1*
X7909Y12238D1*
X7935Y12216D1*
X7961Y12194D1*
X7988Y12171D1*
X8014Y12148D1*
X8041Y12126D1*
X8067Y12103D1*
X8094Y12080D1*
X8120Y12057D1*
X8147Y12035D1*
X8174Y12013D1*
X8199Y11990D1*
X8226Y11967D1*
X8253Y11945D1*
X8279Y11922D1*
X8306Y11899D1*
X8332Y11877D1*
X8359Y11854D1*
X8385Y11832D1*
X8412Y11809D1*
X8439Y11787D1*
X8464Y11764D1*
X8491Y11741D1*
X8518Y11719D1*
X8544Y11696D1*
X8571Y11673D1*
X8598Y11651D1*
X8624Y11629D1*
X8650Y11606D1*
X8677Y11583D1*
X8703Y11560D1*
X8730Y11538D1*
X8756Y11515D1*
X8783Y11492D1*
X8809Y11470D1*
X8836Y11448D1*
X8828Y11437D1*
X8794Y11440D1*
X8760Y11444D1*
X8725Y11447D1*
X8692Y11451D1*
X8657Y11455D1*
X8624Y11458D1*
X8589Y11462D1*
X8555Y11465D1*
X8521Y11469D1*
X8487Y11472D1*
X8453Y11476D1*
X8419Y11479D1*
X8384Y11483D1*
X8351Y11486D1*
X8316Y11490D1*
X8283Y11493D1*
X8248Y11497D1*
X8214Y11501D1*
X8180Y11504D1*
X8146Y11508D1*
X8112Y11511D1*
X8078Y11515D1*
X8043Y11518D1*
X8009Y11522D1*
X7975Y11525D1*
X7953Y11499D1*
X7930Y11473D1*
X7907Y11446D1*
X7884Y11420D1*
X7862Y11393D1*
X7839Y11366D1*
X7816Y11341D1*
X7793Y11314D1*
X7771Y11287D1*
X7748Y11260D1*
X7725Y11234D1*
X7702Y11208D1*
X7680Y11181D1*
X7657Y11155D1*
X7634Y11128D1*
X7612Y11101D1*
X7589Y11075D1*
X7566Y11049D1*
X7543Y11022D1*
X7521Y10996D1*
X7498Y10969D1*
X7475Y10942D1*
X7452Y10916D1*
X7430Y10890D1*
X7407Y10863D1*
X7384Y10837D1*
X7362Y10810D1*
X7339Y10783D1*
X7316Y10757D1*
X7293Y10731D1*
X7271Y10704D1*
X7247Y10677D1*
X7224Y10651D1*
X7202Y10624D1*
X7179Y10598D1*
X7156Y10572D1*
X7158Y10539D1*
X7160Y10506D1*
X7169Y10473D1*
X7178Y10440D1*
X7187Y10408D1*
X7196Y10375D1*
X7205Y10342D1*
X7214Y10309D1*
X7223Y10276D1*
X7232Y10243D1*
X7241Y10210D1*
X7250Y10177D1*
X7259Y10144D1*
X7268Y10111D1*
X7277Y10078D1*
X7286Y10045D1*
X7295Y10012D1*
X7304Y9979D1*
X7313Y9946D1*
X7322Y9913D1*
X7331Y9880D1*
X7340Y9847D1*
X7349Y9815D1*
X7358Y9781D1*
X7367Y9748D1*
X7336Y9733D1*
X7310Y9711D1*
X7287Y9685D1*
X7271Y9655D1*
X7260Y9622D1*
X7256Y9587D1*
X7260Y9553D1*
X7270Y9521D1*
X7286Y9491D1*
X7307Y9465D1*
X7334Y9444D1*
X7364Y9427D1*
X7396Y9418D1*
X7430Y9415D1*
X7463Y9418D1*
X7496Y9427D1*
X7526Y9444D1*
X7552Y9465D1*
X7574Y9491D1*
X7590Y9521D1*
X7600Y9554D1*
X7603Y9587D1*
X7600Y9620D1*
X7590Y9652D1*
X7575Y9681D1*
X7555Y9706D1*
X7530Y9727D1*
X7502Y9744D1*
X7471Y9755D1*
X7438Y9759D1*
X7434Y9793D1*
X7430Y9826D1*
X7427Y9860D1*
X7423Y9893D1*
X7419Y9927D1*
X7415Y9961D1*
X7411Y9994D1*
X7406Y10028D1*
X7402Y10062D1*
X7398Y10095D1*
X7394Y10129D1*
X7391Y10162D1*
X7387Y10195D1*
X7383Y10229D1*
X7379Y10262D1*
X7375Y10296D1*
X7370Y10330D1*
X7366Y10363D1*
X7362Y10397D1*
X7358Y10431D1*
X7354Y10464D1*
X7351Y10498D1*
X7373Y10524D1*
X7397Y10549D1*
X7420Y10575D1*
X7443Y10601D1*
X7466Y10627D1*
X7489Y10653D1*
X7512Y10678D1*
X7536Y10704D1*
X7558Y10730D1*
X7582Y10756D1*
X7605Y10781D1*
X7628Y10807D1*
X7651Y10833D1*
X7674Y10859D1*
X7697Y10884D1*
X7720Y10910D1*
X7743Y10936D1*
X7766Y10962D1*
X7789Y10988D1*
X7812Y11013D1*
X7836Y11039D1*
X7858Y11065D1*
X7882Y11091D1*
X7905Y11116D1*
X7928Y11142D1*
X7951Y11168D1*
X7974Y11194D1*
X7997Y11219D1*
X8021Y11245D1*
X8043Y11271D1*
X8078Y11265D1*
X8112Y11259D1*
X8146Y11252D1*
X8181Y11246D1*
X8215Y11240D1*
X8249Y11234D1*
X8283Y11228D1*
X8318Y11222D1*
X8352Y11215D1*
X8386Y11209D1*
X8421Y11203D1*
X8455Y11196D1*
X8489Y11190D1*
X8523Y11184D1*
X8558Y11178D1*
X8592Y11172D1*
X8626Y11166D1*
X8660Y11159D1*
X8695Y11153D1*
X8689Y11123D1*
X8682Y11092D1*
X8655Y11071D1*
X8627Y11050D1*
X8599Y11030D1*
X8571Y11009D1*
X8543Y10988D1*
X8515Y10967D1*
X8487Y10947D1*
X8459Y10927D1*
X8431Y10906D1*
X8403Y10885D1*
X8376Y10864D1*
X8348Y10844D1*
X8319Y10823D1*
X8292Y10802D1*
X8264Y10782D1*
X8236Y10761D1*
X8208Y10741D1*
X8180Y10720D1*
X8152Y10699D1*
X8124Y10679D1*
X8097Y10658D1*
X8069Y10638D1*
X8040Y10616D1*
X8013Y10596D1*
X7985Y10576D1*
X7957Y10555D1*
X7929Y10534D1*
X7901Y10513D1*
X7873Y10493D1*
X7845Y10472D1*
X7849Y10437D1*
X7853Y10402D1*
X7857Y10368D1*
X7861Y10332D1*
X7865Y10298D1*
X7868Y10263D1*
X7872Y10228D1*
X7876Y10193D1*
X7880Y10158D1*
X7884Y10123D1*
X7887Y10088D1*
X7891Y10054D1*
X7895Y10018D1*
X7899Y9984D1*
X7903Y9949D1*
X7907Y9914D1*
X7910Y9879D1*
X7914Y9844D1*
X7918Y9809D1*
X7922Y9774D1*
X7926Y9740D1*
X7930Y9704D1*
X7934Y9670D1*
X7938Y9635D1*
X7942Y9600D1*
X7945Y9565D1*
X7949Y9530D1*
X7953Y9496D1*
X7956Y9460D1*
X7960Y9426D1*
X7964Y9391D1*
X7968Y9356D1*
X7972Y9321D1*
X7976Y9286D1*
X7980Y9251D1*
X7984Y9216D1*
X7987Y9182D1*
X7991Y9146D1*
X7995Y9112D1*
X7999Y9077D1*
X8003Y9042D1*
X8027Y9016D1*
X8051Y8991D1*
X8076Y8966D1*
X8099Y8941D1*
X8123Y8915D1*
X8148Y8890D1*
X8172Y8865D1*
X8196Y8839D1*
X8221Y8813D1*
X8245Y8788D1*
X8269Y8763D1*
X8293Y8738D1*
X8317Y8713D1*
X8341Y8687D1*
X8366Y8662D1*
X8390Y8636D1*
X8414Y8611D1*
X8438Y8586D1*
X8462Y8560D1*
X8486Y8535D1*
X8472Y8507D1*
X8463Y8477D1*
X8460Y8444D1*
X8464Y8411D1*
X8473Y8378D1*
X8489Y8348D1*
X8511Y8322D1*
X8537Y8301D1*
X8567Y8285D1*
X8599Y8275D1*
X8633Y8272D1*
X8667Y8275D1*
X8700Y8285D1*
X8729Y8301D1*
X8755Y8322D1*
X8777Y8348D1*
X8793Y8378D1*
X8803Y8411D1*
X8806Y8444D1*
X8803Y8478D1*
X8793Y8510D1*
X8777Y8540D1*
X8755Y8566D1*
X8729Y8588D1*
X8699Y8603D1*
X8667Y8614D1*
X8633Y8617D1*
X8604Y8614D1*
X8576Y8606D1*
X8549Y8595D1*
X8530Y8622D1*
X8511Y8650D1*
X8492Y8678D1*
X8473Y8706D1*
X8453Y8733D1*
X8435Y8762D1*
X8415Y8789D1*
X8396Y8817D1*
X8377Y8845D1*
X8358Y8872D1*
X8339Y8900D1*
X8319Y8928D1*
X8301Y8956D1*
X8282Y8983D1*
X8262Y9011D1*
X8243Y9039D1*
X8224Y9067D1*
X8205Y9094D1*
X8185Y9123D1*
X8184Y9157D1*
X8182Y9191D1*
X8180Y9226D1*
X8178Y9260D1*
X8176Y9294D1*
X8174Y9329D1*
X8172Y9364D1*
X8170Y9397D1*
X8169Y9432D1*
X8167Y9467D1*
X8165Y9500D1*
X8163Y9535D1*
X8161Y9570D1*
X8159Y9604D1*
X8157Y9638D1*
X8156Y9673D1*
X8153Y9707D1*
X8152Y9741D1*
X8149Y9776D1*
X8148Y9811D1*
X8146Y9845D1*
X8144Y9879D1*
X8142Y9914D1*
X8140Y9948D1*
X8138Y9982D1*
X8136Y10017D1*
X8134Y10051D1*
X8133Y10086D1*
X8130Y10120D1*
X8129Y10154D1*
X8127Y10189D1*
X8125Y10223D1*
X8123Y10258D1*
X8121Y10292D1*
X8120Y10327D1*
X8117Y10361D1*
X8149Y10370D1*
X8181Y10379D1*
X8214Y10387D1*
X8246Y10396D1*
X8278Y10405D1*
X8309Y10414D1*
X8341Y10423D1*
X8373Y10432D1*
X8406Y10440D1*
X8438Y10449D1*
X8470Y10458D1*
X8502Y10467D1*
X8534Y10476D1*
X8566Y10484D1*
X8581Y10454D1*
X8597Y10422D1*
X8613Y10391D1*
X8628Y10361D1*
X8643Y10329D1*
X8659Y10299D1*
X8674Y10267D1*
X8690Y10236D1*
X8706Y10205D1*
X8721Y10174D1*
X8736Y10143D1*
X8752Y10112D1*
X8768Y10081D1*
X8783Y10050D1*
X8799Y10019D1*
X8814Y9988D1*
X8830Y9957D1*
X8845Y9926D1*
X8861Y9895D1*
X8877Y9864D1*
X8892Y9833D1*
X8907Y9802D1*
X8923Y9771D1*
X8939Y9740D1*
X8954Y9709D1*
X8969Y9678D1*
X8985Y9647D1*
X9001Y9616D1*
X9016Y9585D1*
X9032Y9554D1*
X9047Y9523D1*
X9063Y9492D1*
X9078Y9460D1*
X9110Y9447D1*
X9141Y9433D1*
X9172Y9419D1*
X9204Y9405D1*
X9235Y9392D1*
X9266Y9378D1*
X9297Y9364D1*
X9328Y9350D1*
X9360Y9336D1*
X9391Y9323D1*
X9422Y9308D1*
X9454Y9294D1*
X9485Y9281D1*
X9516Y9267D1*
X9548Y9253D1*
X9579Y9239D1*
X9610Y9226D1*
X9641Y9212D1*
X9672Y9226D1*
X9704Y9239D1*
X9735Y9253D1*
X9766Y9267D1*
X9798Y9281D1*
X9828Y9294D1*
X9860Y9308D1*
X9891Y9323D1*
X9922Y9336D1*
X9954Y9350D1*
X9984Y9364D1*
X10016Y9378D1*
X10047Y9392D1*
X10078Y9405D1*
X10110Y9419D1*
X10141Y9433D1*
X10172Y9447D1*
X10203Y9460D1*
X10219Y9492D1*
X10234Y9523D1*
X10250Y9554D1*
X10266Y9585D1*
X10281Y9615D1*
X10296Y9647D1*
X10312Y9678D1*
X10328Y9709D1*
X10343Y9740D1*
X10358Y9771D1*
X10374Y9802D1*
X10390Y9833D1*
X10405Y9864D1*
X10421Y9895D1*
X10436Y9926D1*
X10452Y9957D1*
X10467Y9988D1*
X10483Y10019D1*
X10499Y10050D1*
X10513Y10081D1*
X10529Y10112D1*
X10545Y10143D1*
X10560Y10174D1*
X10576Y10205D1*
X10592Y10236D1*
X10607Y10267D1*
X10622Y10299D1*
X10638Y10329D1*
X10654Y10360D1*
X10669Y10391D1*
X10684Y10422D1*
X10700Y10454D1*
X10716Y10484D1*
X10599Y11093D2*
X10593Y11123D1*
X10587Y11153D1*
X10621Y11159D1*
X10655Y11166D1*
X10690Y11172D1*
X10724Y11178D1*
X10758Y11184D1*
X10793Y11190D1*
X10827Y11196D1*
X10862Y11203D1*
X10896Y11209D1*
X10930Y11215D1*
X10964Y11222D1*
X10999Y11228D1*
X11033Y11234D1*
X11068Y11240D1*
X11102Y11246D1*
X11136Y11252D1*
X11170Y11259D1*
X11205Y11265D1*
X11239Y11271D1*
X11262Y11245D1*
X11286Y11219D1*
X11308Y11194D1*
X11332Y11168D1*
X11355Y11142D1*
X11378Y11116D1*
X11401Y11090D1*
X11424Y11065D1*
X11447Y11039D1*
X11470Y11013D1*
X11493Y10987D1*
X11516Y10962D1*
X11540Y10936D1*
X11562Y10910D1*
X11586Y10884D1*
X11609Y10859D1*
X11632Y10833D1*
X11655Y10807D1*
X11678Y10781D1*
X11701Y10756D1*
X11725Y10730D1*
X11747Y10704D1*
X11771Y10678D1*
X11794Y10653D1*
X11817Y10627D1*
X11840Y10601D1*
X11863Y10575D1*
X11886Y10549D1*
X11909Y10524D1*
X11932Y10498D1*
X11928Y10464D1*
X11924Y10431D1*
X11921Y10397D1*
X11916Y10363D1*
X11912Y10330D1*
X11908Y10296D1*
X11904Y10262D1*
X11900Y10229D1*
X11896Y10195D1*
X11892Y10162D1*
X11888Y10129D1*
X11884Y10095D1*
X11880Y10062D1*
X11876Y10028D1*
X11872Y9994D1*
X11868Y9961D1*
X11864Y9927D1*
X11860Y9893D1*
X11856Y9860D1*
X11852Y9826D1*
X11848Y9793D1*
X11844Y9759D1*
X11812Y9755D1*
X11781Y9744D1*
X11752Y9728D1*
X11728Y9706D1*
X11707Y9681D1*
X11692Y9652D1*
X11683Y9620D1*
X11680Y9587D1*
X11683Y9554D1*
X11693Y9521D1*
X11709Y9491D1*
X11731Y9465D1*
X11757Y9444D1*
X11786Y9427D1*
X11819Y9418D1*
X11853Y9415D1*
X11887Y9418D1*
X11919Y9427D1*
X11949Y9444D1*
X11975Y9465D1*
X11996Y9492D1*
X12012Y9522D1*
X12022Y9554D1*
X12025Y9587D1*
X12022Y9622D1*
X12011Y9655D1*
X11995Y9685D1*
X11973Y9711D1*
X11946Y9733D1*
X11916Y9748D1*
X11924Y9781D1*
X11934Y9815D1*
X11942Y9847D1*
X11952Y9880D1*
X11960Y9913D1*
X11970Y9946D1*
X11979Y9979D1*
X11988Y10012D1*
X11997Y10045D1*
X12006Y10078D1*
X12015Y10110D1*
X12024Y10143D1*
X12033Y10177D1*
X12042Y10210D1*
X12051Y10243D1*
X12060Y10276D1*
X12069Y10309D1*
X12078Y10342D1*
X12087Y10375D1*
X12096Y10408D1*
X12105Y10440D1*
X12114Y10473D1*
X12123Y10506D1*
X12124Y10539D1*
X12126Y10572D1*
X12103Y10598D1*
X12080Y10624D1*
X12058Y10651D1*
X12035Y10678D1*
X12012Y10704D1*
X11990Y10731D1*
X11967Y10757D1*
X11944Y10783D1*
X11921Y10810D1*
X11899Y10837D1*
X11876Y10863D1*
X11853Y10890D1*
X11830Y10916D1*
X11808Y10942D1*
X11785Y10969D1*
X11762Y10996D1*
X11739Y11022D1*
X11717Y11049D1*
X11694Y11075D1*
X11671Y11101D1*
X11649Y11128D1*
X11626Y11155D1*
X11603Y11181D1*
X11580Y11208D1*
X11558Y11234D1*
X11535Y11260D1*
X11512Y11287D1*
X11489Y11314D1*
X11467Y11341D1*
X11444Y11366D1*
X11421Y11393D1*
X11398Y11420D1*
X11376Y11446D1*
X11353Y11473D1*
X11330Y11499D1*
X11308Y11525D1*
X11273Y11522D1*
X11239Y11518D1*
X11205Y11515D1*
X11171Y11511D1*
X11137Y11508D1*
X11102Y11504D1*
X11068Y11501D1*
X11034Y11497D1*
X11000Y11493D1*
X10966Y11490D1*
X10931Y11486D1*
X10898Y11483D1*
X10863Y11479D1*
X10829Y11476D1*
X10795Y11472D1*
X10761Y11469D1*
X10727Y11465D1*
X10692Y11462D1*
X10658Y11458D1*
X10624Y11455D1*
X10590Y11451D1*
X10556Y11448D1*
X10522Y11444D1*
X10488Y11440D1*
X10453Y11437D1*
X10447Y11448D1*
X10473Y11470D1*
X10500Y11492D1*
X10526Y11515D1*
X10553Y11538D1*
X10579Y11561D1*
X10606Y11583D1*
X10633Y11606D1*
X10658Y11629D1*
X10685Y11651D1*
X10712Y11673D1*
X10738Y11696D1*
X10765Y11719D1*
X10791Y11741D1*
X10818Y11764D1*
X10844Y11787D1*
X10871Y11809D1*
X10898Y11832D1*
X10923Y11854D1*
X10950Y11877D1*
X10977Y11899D1*
X11003Y11922D1*
X11030Y11945D1*
X11057Y11967D1*
X11083Y11990D1*
X11109Y12013D1*
X11136Y12035D1*
X11163Y12057D1*
X11189Y12080D1*
X11215Y12103D1*
X11242Y12126D1*
X11268Y12148D1*
X11295Y12171D1*
X11322Y12194D1*
X11348Y12216D1*
X11374Y12238D1*
X11401Y12261D1*
X11427Y12284D1*
X11454Y12306D1*
X11481Y12329D1*
X11488Y12363D1*
X11496Y12397D1*
X11503Y12431D1*
X11511Y12464D1*
X11518Y12497D1*
X11525Y12531D1*
X11533Y12565D1*
X11541Y12599D1*
X11548Y12633D1*
X11556Y12666D1*
X11564Y12700D1*
X11571Y12733D1*
X11579Y12767D1*
X11586Y12801D1*
X11594Y12835D1*
X11601Y12869D1*
X11609Y12902D1*
X11616Y12936D1*
X11624Y12970D1*
X11631Y13003D1*
X11639Y13037D1*
X11646Y13071D1*
X11654Y13104D1*
X11662Y13138D1*
X11669Y13172D1*
X11677Y13206D1*
X11685Y13240D1*
X11692Y13273D1*
X11699Y13306D1*
X11707Y13340D1*
X11714Y13374D1*
X11722Y13408D1*
X11729Y13442D1*
X11737Y13475D1*
X11745Y13509D1*
X11752Y13543D1*
X11760Y13576D1*
X11768Y13610D1*
X11775Y13644D1*
X11783Y13678D1*
X11790Y13711D1*
X11797Y13745D1*
X11805Y13779D1*
X11812Y13812D1*
X11820Y13846D1*
X11828Y13880D1*
X11835Y13913D1*
X11815Y13941D1*
X11794Y13968D1*
X11773Y13996D1*
X11753Y14023D1*
X11732Y14050D1*
X11711Y14078D1*
X11690Y14105D1*
X11670Y14133D1*
X11649Y14160D1*
X11628Y14187D1*
X11608Y14215D1*
X11587Y14242D1*
X11566Y14270D1*
X11545Y14296D1*
X11525Y14324D1*
X11504Y14352D1*
X11483Y14379D1*
X11463Y14407D1*
X11442Y14433D1*
X11461Y14459D1*
X11475Y14487D1*
X11484Y14518D1*
X11487Y14549D1*
X11484Y14583D1*
X11474Y14615D1*
X11458Y14645D1*
X11436Y14672D1*
X11410Y14693D1*
X11380Y14710D1*
X11348Y14719D1*
X11314Y14722D1*
X11280Y14719D1*
X11248Y14709D1*
X11218Y14693D1*
X11192Y14672D1*
X11171Y14645D1*
X11155Y14615D1*
X11145Y14583D1*
X11142Y14549D1*
X11145Y14516D1*
X11155Y14483D1*
X11171Y14453D1*
X11192Y14427D1*
X11218Y14406D1*
X11248Y14389D1*
X11280Y14380D1*
X11314Y14377D1*
X11340Y14379D1*
X11367Y14385D1*
X11383Y14355D1*
X11399Y14324D1*
X11416Y14293D1*
X11431Y14263D1*
X11448Y14232D1*
X11464Y14201D1*
X11480Y14171D1*
X11496Y14140D1*
X11512Y14109D1*
X11529Y14078D1*
X11544Y14048D1*
X11561Y14017D1*
X11576Y13986D1*
X11593Y13956D1*
X11609Y13925D1*
X11625Y13894D1*
X11641Y13864D1*
X11632Y13831D1*
X11623Y13798D1*
X11612Y13764D1*
X11603Y13731D1*
X11594Y13698D1*
X11584Y13665D1*
X11575Y13631D1*
X11565Y13598D1*
X11555Y13565D1*
X11546Y13531D1*
X11536Y13498D1*
X11527Y13465D1*
X11518Y13431D1*
X11508Y13398D1*
X11498Y13365D1*
X11489Y13331D1*
X11479Y13298D1*
X11470Y13265D1*
X11460Y13231D1*
X11451Y13198D1*
X11441Y13165D1*
X11431Y13131D1*
X11422Y13098D1*
X11413Y13065D1*
X11403Y13031D1*
X11394Y12998D1*
X11384Y12965D1*
X11374Y12931D1*
X11365Y12898D1*
X11355Y12865D1*
X11346Y12831D1*
X11337Y12798D1*
X11326Y12765D1*
X11317Y12731D1*
X11308Y12698D1*
X11298Y12665D1*
X11289Y12631D1*
X11279Y12598D1*
X11270Y12565D1*
X11260Y12531D1*
X11250Y12498D1*
X11241Y12465D1*
X11231Y12431D1*
X11203Y12411D1*
X11175Y12390D1*
X11147Y12368D1*
X11119Y12347D1*
X11090Y12326D1*
X11063Y12305D1*
X11035Y12284D1*
X11007Y12263D1*
X10978Y12242D1*
X10950Y12221D1*
X10922Y12200D1*
X10894Y12179D1*
X10865Y12157D1*
X10837Y12136D1*
X10810Y12116D1*
X10782Y12094D1*
X10753Y12073D1*
X10725Y12052D1*
X10697Y12031D1*
X10669Y12010D1*
X10640Y11989D1*
X10612Y11968D1*
X10585Y11947D1*
X10557Y11926D1*
X10528Y11905D1*
X10500Y11884D1*
X10472Y11863D1*
X10444Y11842D1*
X10415Y11821D1*
X10387Y11799D1*
X10359Y11778D1*
X10331Y11758D1*
X10303Y11736D1*
X10275Y11715D1*
X10258Y11742D1*
X10241Y11769D1*
X10224Y11795D1*
X10246Y11821D1*
X10269Y11848D1*
X10291Y11874D1*
X10314Y11900D1*
X10336Y11926D1*
X10357Y11952D1*
X10380Y11978D1*
X10402Y12005D1*
X10425Y12031D1*
X10447Y12057D1*
X10469Y12083D1*
X10492Y12109D1*
X10513Y12135D1*
X10536Y12161D1*
X10558Y12187D1*
X10581Y12213D1*
X10603Y12239D1*
X10625Y12265D1*
X10648Y12291D1*
X10669Y12317D1*
X10692Y12343D1*
X10714Y12370D1*
X10736Y12396D1*
X10759Y12422D1*
X10781Y12448D1*
X10803Y12474D1*
X10825Y12500D1*
X10847Y12527D1*
X10870Y12552D1*
X10892Y12578D1*
X10915Y12604D1*
X10937Y12630D1*
X10959Y12656D1*
X10981Y12682D1*
Y12717D1*
Y12752D1*
Y12786D1*
Y12821D1*
Y12855D1*
Y12889D1*
Y12924D1*
Y12959D1*
Y12993D1*
Y13028D1*
Y13062D1*
Y13096D1*
Y13131D1*
Y13166D1*
Y13200D1*
Y13235D1*
Y13269D1*
Y13303D1*
Y13338D1*
Y13373D1*
Y13407D1*
Y13441D1*
Y13476D1*
Y13510D1*
Y13545D1*
Y13580D1*
Y13614D1*
Y13648D1*
Y13683D1*
Y13717D1*
Y13752D1*
Y13787D1*
Y13820D1*
Y13855D1*
X10957Y13879D1*
X10933Y13904D1*
X10909Y13928D1*
X10885Y13953D1*
X10861Y13977D1*
X10837Y14001D1*
X10813Y14026D1*
X10789Y14050D1*
X10765Y14075D1*
X10741Y14099D1*
X10716Y14123D1*
X10693Y14148D1*
X10669Y14172D1*
X10644Y14197D1*
X10621Y14221D1*
X10597Y14245D1*
X10572Y14269D1*
X10549Y14293D1*
X10524Y14318D1*
X10500Y14342D1*
X10477Y14367D1*
X10452Y14391D1*
X10428Y14415D1*
X10405Y14440D1*
X10380Y14464D1*
X10356Y14489D1*
X10332Y14513D1*
X10308Y14537D1*
X10321Y14564D1*
X10328Y14593D1*
X10331Y14623D1*
X10328Y14657D1*
X10318Y14689D1*
X10302Y14719D1*
X10281Y14746D1*
X10254Y14767D1*
X10224Y14783D1*
X10192Y14793D1*
X10158Y14796D1*
X10125Y14793D1*
X10092Y14783D1*
X10062Y14767D1*
X10036Y14745D1*
X10015Y14719D1*
X9999Y14689D1*
X9990Y14657D1*
X9986Y14623D1*
X9990Y14589D1*
X9999Y14557D1*
X10015Y14527D1*
X10036Y14501D1*
X10063Y14479D1*
X10093Y14463D1*
X10125Y14454D1*
X10158Y14450D1*
X10185Y14452D1*
X10211Y14459D1*
X10235Y14469D1*
X10256Y14441D1*
X10275Y14413D1*
X10296Y14385D1*
X10316Y14357D1*
X10336Y14329D1*
X10356Y14301D1*
X10376Y14273D1*
X10396Y14245D1*
X10415Y14217D1*
X10436Y14189D1*
X10456Y14161D1*
X10476Y14134D1*
X10496Y14105D1*
X10516Y14078D1*
X10536Y14049D1*
X10557Y14022D1*
X10576Y13993D1*
X10597Y13966D1*
X10616Y13938D1*
X10637Y13910D1*
X10657Y13882D1*
X10677Y13853D1*
X10697Y13826D1*
X10716Y13798D1*
X10715Y13763D1*
X10713Y13727D1*
X10711Y13692D1*
X10709Y13657D1*
X10708Y13622D1*
X10706Y13587D1*
X10704Y13552D1*
X10702Y13517D1*
X10700Y13481D1*
X10698Y13447D1*
X10696Y13411D1*
X10695Y13376D1*
X10693Y13341D1*
X10691Y13306D1*
X10689Y13270D1*
X10687Y13236D1*
X10685Y13200D1*
X10684Y13165D1*
X10682Y13130D1*
X10680Y13095D1*
X10678Y13059D1*
X10677Y13025D1*
X10674Y12989D1*
X10673Y12954D1*
X10670Y12919D1*
X10669Y12884D1*
X10667Y12848D1*
X10665Y12814D1*
X10663Y12778D1*
X10662Y12743D1*
X10659Y12708D1*
X10636Y12682D1*
X10611Y12656D1*
X10588Y12631D1*
X10564Y12605D1*
X10540Y12580D1*
X10516Y12554D1*
X10492Y12528D1*
X10468Y12503D1*
X10444Y12477D1*
X10420Y12452D1*
X10397Y12426D1*
X10372Y12400D1*
X10349Y12375D1*
X10325Y12349D1*
X10301Y12323D1*
X10277Y12297D1*
X10253Y12272D1*
X10237Y12301D1*
X10220Y12331D1*
X10205Y12361D1*
X10188Y12391D1*
X10172Y12421D1*
X10156Y12451D1*
X10140Y12481D1*
X10124Y12512D1*
X10107Y12541D1*
X10091Y12571D1*
X10075Y12601D1*
X10059Y12631D1*
X10058Y12637D1*
X10024D1*
X9988D1*
X9954D1*
X9919D1*
X9885D1*
X9850D1*
X9816D1*
X9781D1*
X9746D1*
X9712D1*
X9677D1*
X9643D1*
X9608D1*
X9573D1*
X9538D1*
X9504D1*
X9469D1*
X9435D1*
X9400D1*
X9365D1*
X9331D1*
X9296D1*
X9262D1*
X9227D1*
X9211Y12607D1*
X9194Y12576D1*
X9178Y12546D1*
X9161Y12515D1*
X9145Y12485D1*
X9128Y12454D1*
X9112Y12423D1*
X9095Y12393D1*
X9079Y12362D1*
X9063Y12332D1*
X9046Y12301D1*
X9030Y12271D1*
X9006Y12297D1*
X8982Y12322D1*
X8958Y12348D1*
X8934Y12374D1*
X8910Y12399D1*
X8886Y12425D1*
X8863Y12451D1*
X8838Y12476D1*
X8815Y12502D1*
X8791Y12528D1*
X8767Y12553D1*
X8743Y12579D1*
X8719Y12605D1*
X8695Y12631D1*
X8671Y12656D1*
X8647Y12682D1*
X8623Y12708D1*
X8621Y12743D1*
X8620Y12778D1*
X8617Y12814D1*
X8616Y12848D1*
X8614Y12884D1*
X8612Y12919D1*
X8610Y12954D1*
X8609Y12989D1*
X8606Y13025D1*
X8605Y13059D1*
X8603Y13095D1*
X8601Y13130D1*
X8599Y13165D1*
X8597Y13200D1*
X8595Y13236D1*
X8594Y13270D1*
X8591Y13306D1*
X8590Y13341D1*
X8588Y13376D1*
X8586Y13411D1*
X8584Y13447D1*
X8583Y13481D1*
X8580Y13517D1*
X8579Y13552D1*
X8577Y13587D1*
X8575Y13622D1*
X8573Y13657D1*
X8571Y13692D1*
X8569Y13727D1*
X8568Y13763D1*
X8566Y13798D1*
X8586Y13826D1*
X8606Y13854D1*
X8626Y13882D1*
X8646Y13910D1*
X8666Y13938D1*
X8686Y13966D1*
X8707Y13993D1*
X8726Y14022D1*
X8747Y14049D1*
X8766Y14078D1*
X8787Y14105D1*
X8807Y14134D1*
X8827Y14161D1*
X8847Y14189D1*
X8867Y14217D1*
X8887Y14245D1*
X8907Y14274D1*
X8927Y14301D1*
X8947Y14330D1*
X8967Y14357D1*
X8987Y14385D1*
X9008Y14413D1*
X9027Y14441D1*
X9048Y14469D1*
X9072Y14459D1*
X9098Y14452D1*
X9124Y14450D1*
X9158Y14454D1*
X9190Y14463D1*
X9220Y14479D1*
X9247Y14501D1*
X9268Y14527D1*
X9284Y14557D1*
X9293Y14589D1*
X9296Y14623D1*
X9293Y14657D1*
X9284Y14689D1*
X9268Y14719D1*
X9247Y14746D1*
X9220Y14767D1*
X9190Y14783D1*
X9158Y14793D1*
X9124Y14796D1*
X10709Y10484D2*
X10742Y10476D1*
X10774Y10467D1*
X10807Y10458D1*
X10840Y10449D1*
X10872Y10440D1*
X10905Y10432D1*
X10938Y10423D1*
X10970Y10414D1*
X11003Y10405D1*
X11035Y10396D1*
X11068Y10387D1*
X11101Y10379D1*
X11133Y10370D1*
X11166Y10361D1*
X11163Y10327D1*
X11162Y10292D1*
X11159Y10258D1*
X11158Y10223D1*
X11155Y10189D1*
X11154Y10154D1*
X11152Y10120D1*
X11150Y10086D1*
X11148Y10051D1*
X11146Y10017D1*
X11144Y9982D1*
X11142Y9948D1*
X11141Y9914D1*
X11139Y9879D1*
X11137Y9845D1*
X11135Y9811D1*
X11133Y9776D1*
X11131Y9741D1*
X11130Y9707D1*
X11127Y9673D1*
X11126Y9638D1*
X11123Y9604D1*
X11122Y9570D1*
X11119Y9535D1*
X11118Y9501D1*
X11116Y9467D1*
X11114Y9432D1*
X11112Y9397D1*
X11110Y9364D1*
X11108Y9329D1*
X11106Y9294D1*
X11105Y9260D1*
X11103Y9226D1*
X11101Y9191D1*
X11099Y9157D1*
X11097Y9123D1*
X11078Y9094D1*
X11059Y9067D1*
X11039Y9039D1*
X11021Y9011D1*
X11001Y8983D1*
X10982Y8956D1*
X10963Y8928D1*
X10944Y8900D1*
X10925Y8872D1*
X10905Y8845D1*
X10887Y8817D1*
X10867Y8789D1*
X10848Y8762D1*
X10829Y8733D1*
X10810Y8706D1*
X10791Y8678D1*
X10771Y8651D1*
X10753Y8622D1*
X10733Y8595D1*
X10707Y8606D1*
X10679Y8614D1*
X10650Y8617D1*
X10616Y8614D1*
X10583Y8604D1*
X10553Y8588D1*
X10528Y8566D1*
X10506Y8540D1*
X10490Y8510D1*
X10480Y8478D1*
X10477Y8444D1*
X10480Y8411D1*
X10490Y8378D1*
X10506Y8348D1*
X10528Y8322D1*
X10553Y8301D1*
X10583Y8285D1*
X10616Y8275D1*
X10650Y8272D1*
X10684Y8275D1*
X10716Y8285D1*
X10745Y8301D1*
X10771Y8322D1*
X10793Y8349D1*
X10808Y8379D1*
X10818Y8411D1*
X10822Y8444D1*
X10818Y8477D1*
X10811Y8507D1*
X10796Y8535D1*
X10820Y8561D1*
X10844Y8586D1*
X10869Y8611D1*
X10893Y8636D1*
X10917Y8662D1*
X10941Y8688D1*
X10966Y8713D1*
X10990Y8738D1*
X11014Y8763D1*
X11038Y8788D1*
X11062Y8814D1*
X11086Y8839D1*
X11111Y8865D1*
X11135Y8890D1*
X11159Y8915D1*
X11183Y8941D1*
X11207Y8966D1*
X11231Y8991D1*
X11256Y9016D1*
X11280Y9042D1*
X11284Y9077D1*
X11288Y9112D1*
X11291Y9146D1*
X11295Y9182D1*
X11299Y9216D1*
X11303Y9251D1*
X11307Y9286D1*
X11311Y9321D1*
X11315Y9356D1*
X11319Y9391D1*
X11322Y9426D1*
X11326Y9460D1*
X11329Y9496D1*
X11333Y9530D1*
X11337Y9565D1*
X11341Y9600D1*
X11345Y9635D1*
X11349Y9670D1*
X11353Y9705D1*
X11357Y9740D1*
X11361Y9774D1*
X11365Y9810D1*
X11369Y9844D1*
X11372Y9879D1*
X11376Y9914D1*
X11380Y9949D1*
X11384Y9984D1*
X11387Y10019D1*
X11391Y10054D1*
X11395Y10088D1*
X11399Y10124D1*
X11403Y10158D1*
X11407Y10193D1*
X11410Y10228D1*
X11414Y10263D1*
X11418Y10298D1*
X11422Y10332D1*
X11426Y10368D1*
X11430Y10402D1*
X11434Y10437D1*
X11438Y10472D1*
X11409Y10493D1*
X11381Y10513D1*
X11354Y10535D1*
X11326Y10555D1*
X11297Y10576D1*
X11270Y10596D1*
X11242Y10617D1*
X11213Y10638D1*
X11186Y10658D1*
X11158Y10679D1*
X11130Y10700D1*
X11102Y10720D1*
X11074Y10741D1*
X11046Y10762D1*
X11018Y10783D1*
X10990Y10803D1*
X10963Y10823D1*
X10934Y10845D1*
X10906Y10865D1*
X10879Y10886D1*
X10851Y10907D1*
X10822Y10927D1*
X10795Y10948D1*
X10767Y10968D1*
X10738Y10990D1*
X10711Y11010D1*
X10683Y11030D1*
X10655Y11052D1*
X10627Y11072D1*
X10599Y11093D1*
X9124Y14722D2*
X9154Y14718D1*
X9182Y14703D1*
X9204Y14681D1*
X9219Y14654D1*
X9224Y14623D1*
X9219Y14592D1*
X9204Y14564D1*
X9182Y14542D1*
X9154Y14528D1*
X9124Y14523D1*
X9092Y14528D1*
X9065Y14542D1*
X9043Y14565D1*
X9029Y14592D1*
X9024Y14623D1*
X9029Y14654D1*
X9043Y14681D1*
X9065Y14703D1*
X9093Y14718D1*
X9124Y14722D1*
X10158D2*
X10189Y14718D1*
X10217Y14703D1*
X10239Y14681D1*
X10253Y14654D1*
X10259Y14623D1*
X10253Y14592D1*
X10239Y14564D1*
X10217Y14542D1*
X10189Y14528D1*
X10158Y14523D1*
X10127Y14528D1*
X10100Y14542D1*
X10078Y14565D1*
X10064Y14592D1*
X10059Y14623D1*
X10064Y14654D1*
X10078Y14681D1*
X10100Y14703D1*
X10128Y14718D1*
X10158Y14722D1*
X7968Y14648D2*
X8000Y14644D1*
X8027Y14629D1*
X8049Y14607D1*
X8063Y14580D1*
X8068Y14549D1*
X8063Y14518D1*
X8049Y14491D1*
X8027Y14469D1*
X8000Y14455D1*
X7968Y14450D1*
X7938Y14455D1*
X7910Y14469D1*
X7887Y14491D1*
X7873Y14518D1*
X7869Y14549D1*
X7873Y14580D1*
X7887Y14608D1*
X7910Y14629D1*
X7938Y14644D1*
X7968Y14648D1*
X11314D2*
X11345Y14644D1*
X11373Y14629D1*
X11395Y14608D1*
X11409Y14580D1*
X11414Y14549D1*
X11409Y14518D1*
X11395Y14491D1*
X11373Y14469D1*
X11345Y14455D1*
X11314Y14450D1*
X11283Y14455D1*
X11256Y14469D1*
X11234Y14491D1*
X11220Y14518D1*
X11215Y14549D1*
X11220Y14580D1*
X11234Y14607D1*
X11256Y14629D1*
X11283Y14644D1*
X11314Y14648D1*
X9424Y11560D2*
X9449D1*
X9474D1*
X9507D1*
X9541D1*
X9574D1*
X9608D1*
X9641D1*
X9675D1*
X9708D1*
X9742D1*
X9775D1*
X9809D1*
X9834D1*
X9858D1*
Y11531D1*
Y11503D1*
Y11474D1*
X9834D1*
X9809D1*
Y11442D1*
Y11411D1*
X9810Y11378D1*
Y11347D1*
Y11315D1*
Y11283D1*
Y11251D1*
Y11219D1*
Y11187D1*
X9823Y11155D1*
X9835Y11122D1*
X9848Y11089D1*
X9860Y11056D1*
X9874Y11023D1*
X9886Y10991D1*
X9899Y10958D1*
X9911Y10925D1*
X9925Y10893D1*
X9937Y10860D1*
X9950Y10827D1*
X9962Y10794D1*
X9975Y10761D1*
X9988Y10728D1*
X10001Y10696D1*
X10013Y10663D1*
X10026Y10631D1*
X10039Y10598D1*
X10052Y10565D1*
X10064Y10532D1*
X10077Y10499D1*
X10090Y10466D1*
X10103Y10434D1*
X10115Y10401D1*
X10128Y10368D1*
X10141Y10336D1*
X10154Y10302D1*
X10166Y10270D1*
X10179Y10237D1*
X10191Y10204D1*
X10205Y10171D1*
X10190Y10140D1*
X10176Y10108D1*
X10161Y10077D1*
X10147Y10045D1*
X10132Y10013D1*
X10118Y9981D1*
X10103Y9950D1*
X10069D1*
X10035D1*
X10001D1*
X9966D1*
X9932D1*
X9898D1*
X9864D1*
X9829D1*
X9795D1*
X9761D1*
X9726D1*
X9693D1*
X9658D1*
X9625D1*
X9590D1*
X9556D1*
X9522D1*
X9487D1*
X9453D1*
X9419D1*
X9385D1*
X9351D1*
X9316D1*
X9282D1*
X9248D1*
X9214D1*
X9179D1*
X9165Y9981D1*
X9150Y10013D1*
X9136Y10045D1*
X9122Y10077D1*
X9107Y10108D1*
X9093Y10140D1*
X9078Y10171D1*
X9091Y10204D1*
X9104Y10237D1*
X9117Y10269D1*
X9129Y10302D1*
X9142Y10336D1*
X9154Y10368D1*
X9168Y10401D1*
X9180Y10434D1*
X9193Y10466D1*
X9205Y10499D1*
X9219Y10531D1*
X9231Y10565D1*
X9244Y10598D1*
X9256Y10630D1*
X9269Y10663D1*
X9282Y10696D1*
X9295Y10728D1*
X9307Y10761D1*
X9320Y10794D1*
X9333Y10827D1*
X9345Y10860D1*
X9358Y10893D1*
X9371Y10925D1*
X9384Y10958D1*
X9396Y10990D1*
X9409Y11023D1*
X9422Y11056D1*
X9435Y11089D1*
X9447Y11122D1*
X9460Y11155D1*
X9472Y11187D1*
Y11219D1*
Y11251D1*
Y11283D1*
Y11315D1*
Y11347D1*
Y11378D1*
Y11411D1*
Y11442D1*
Y11474D1*
X9448D1*
X9424D1*
Y11503D1*
Y11531D1*
Y11560D1*
X7430Y9686D2*
X7460Y9682D1*
X7488Y9667D1*
X7510Y9646D1*
X7525Y9619D1*
X7530Y9587D1*
X7525Y9556D1*
X7510Y9529D1*
X7488Y9507D1*
X7460Y9493D1*
X7430Y9488D1*
X7399Y9493D1*
X7372Y9507D1*
X7350Y9529D1*
X7336Y9556D1*
X7331Y9587D1*
X7336Y9618D1*
X7350Y9646D1*
X7372Y9667D1*
X7399Y9682D1*
X7430Y9686D1*
X11853D2*
X11884Y9682D1*
X11911Y9667D1*
X11933Y9646D1*
X11947Y9618D1*
X11952Y9587D1*
X11947Y9556D1*
X11933Y9529D1*
X11911Y9507D1*
X11884Y9493D1*
X11853Y9488D1*
X11822Y9493D1*
X11794Y9507D1*
X11772Y9529D1*
X11757Y9556D1*
X11753Y9587D1*
X11757Y9619D1*
X11772Y9646D1*
X11794Y9668D1*
X11822Y9682D1*
X11853Y9686D1*
X8633Y8544D2*
X8664Y8539D1*
X8692Y8525D1*
X8714Y8503D1*
X8729Y8476D1*
X8733Y8444D1*
X8729Y8414D1*
X8714Y8386D1*
X8692Y8364D1*
X8664Y8349D1*
X8633Y8344D1*
X8602Y8349D1*
X8575Y8364D1*
X8553Y8386D1*
X8539Y8414D1*
X8534Y8444D1*
X8539Y8475D1*
X8553Y8503D1*
X8575Y8525D1*
X8602Y8539D1*
X8633Y8544D1*
X10650D2*
X10680Y8539D1*
X10708Y8525D1*
X10730Y8503D1*
X10744Y8475D1*
X10749Y8444D1*
X10744Y8414D1*
X10730Y8386D1*
X10708Y8364D1*
X10680Y8349D1*
X10650Y8344D1*
X10619Y8349D1*
X10591Y8364D1*
X10568Y8386D1*
X10554Y8414D1*
X10550Y8444D1*
X10554Y8476D1*
X10568Y8503D1*
X10591Y8525D1*
X10619Y8539D1*
X10650Y8544D1*
X6274Y7637D2*
X6299Y7635D1*
X6324Y7627D1*
X6346Y7616D1*
X6365Y7600D1*
X6381Y7580D1*
X6393Y7558D1*
X6400Y7534D1*
X6403Y7509D1*
Y7475D1*
Y7440D1*
Y7406D1*
Y7372D1*
Y7337D1*
Y7303D1*
Y7269D1*
Y7235D1*
Y7200D1*
Y7166D1*
Y7132D1*
Y7098D1*
Y7063D1*
Y7029D1*
Y6995D1*
Y6961D1*
Y6926D1*
X6376D1*
X6350D1*
X6323D1*
X6296D1*
Y6958D1*
Y6988D1*
Y7020D1*
Y7051D1*
Y7082D1*
Y7113D1*
Y7144D1*
Y7175D1*
X6263D1*
X6230D1*
X6197D1*
X6164D1*
X6130D1*
X6097D1*
X6064D1*
X6030D1*
X5998D1*
X5965D1*
X5931D1*
X5898D1*
X5865D1*
X5831D1*
X5798D1*
Y7144D1*
Y7113D1*
Y7082D1*
Y7051D1*
Y7020D1*
Y6988D1*
Y6958D1*
Y6926D1*
X5772D1*
X5745D1*
X5718D1*
X5692D1*
Y6961D1*
Y6995D1*
Y7029D1*
Y7063D1*
Y7098D1*
Y7132D1*
Y7166D1*
Y7200D1*
Y7235D1*
Y7269D1*
Y7303D1*
Y7337D1*
Y7372D1*
Y7406D1*
Y7440D1*
Y7475D1*
Y7509D1*
X5694Y7534D1*
X5702Y7558D1*
X5714Y7580D1*
X5729Y7600D1*
X5748Y7616D1*
X5770Y7627D1*
X5795Y7635D1*
X5820Y7637D1*
X5855D1*
X5890D1*
X5925D1*
X5960D1*
X5994D1*
X6030D1*
X6065D1*
X6099D1*
X6135D1*
X6169D1*
X6205D1*
X6240D1*
X6274D1*
X6296Y7282D2*
Y7314D1*
Y7346D1*
Y7379D1*
Y7411D1*
Y7444D1*
Y7476D1*
Y7509D1*
X6289Y7524D1*
X6274Y7531D1*
X6240D1*
X6205D1*
X6169D1*
X6135D1*
X6099D1*
X6065D1*
X6030D1*
X5995D1*
X5960D1*
X5925D1*
X5890D1*
X5855D1*
X5820D1*
X5805Y7524D1*
X5798Y7509D1*
Y7476D1*
Y7444D1*
Y7412D1*
Y7379D1*
Y7346D1*
Y7314D1*
Y7282D1*
X5831D1*
X5865D1*
X5898D1*
X5931D1*
X5965D1*
X5998D1*
X6030D1*
X6064D1*
X6097D1*
X6130D1*
X6164D1*
X6197D1*
X6230D1*
X6263D1*
X6296D1*
X6959Y7499D2*
Y7472D1*
Y7446D1*
Y7419D1*
Y7392D1*
X6927D1*
X6896D1*
X6864D1*
X6832D1*
X6799D1*
X6767D1*
X6736D1*
X6704D1*
X6672D1*
X6640D1*
X6624Y7385D1*
X6618Y7371D1*
Y7336D1*
Y7302D1*
Y7268D1*
Y7234D1*
Y7200D1*
Y7165D1*
Y7132D1*
Y7097D1*
Y7063D1*
Y7029D1*
Y6995D1*
Y6960D1*
Y6926D1*
X6591D1*
X6564D1*
X6538D1*
X6511D1*
Y6958D1*
Y6991D1*
Y7022D1*
Y7054D1*
Y7090D1*
Y7125D1*
Y7160D1*
Y7195D1*
Y7230D1*
Y7265D1*
Y7300D1*
Y7335D1*
Y7371D1*
X6513Y7396D1*
X6521Y7420D1*
X6533Y7442D1*
X6549Y7461D1*
X6567Y7477D1*
X6589Y7489D1*
X6614Y7497D1*
X6640Y7499D1*
X6672D1*
X6704D1*
X6735D1*
X6767D1*
X6799D1*
X6832D1*
X6864D1*
X6896D1*
X6927D1*
X6959D1*
X7477D2*
X7502Y7497D1*
X7526Y7489D1*
X7548Y7477D1*
X7568Y7461D1*
X7583Y7442D1*
X7595Y7420D1*
X7602Y7396D1*
X7605Y7371D1*
Y7336D1*
Y7302D1*
Y7268D1*
Y7234D1*
Y7199D1*
Y7165D1*
Y7132D1*
Y7097D1*
Y7063D1*
Y7029D1*
Y6995D1*
Y6960D1*
Y6926D1*
X7570D1*
X7535D1*
X7500D1*
X7465D1*
X7430D1*
X7395D1*
X7360D1*
X7325D1*
X7290D1*
X7256D1*
X7220D1*
X7186D1*
X7151D1*
X7125Y6929D1*
X7100Y6936D1*
X7079Y6948D1*
X7060Y6964D1*
X7044Y6983D1*
X7032Y7004D1*
X7024Y7029D1*
X7022Y7054D1*
Y7090D1*
Y7125D1*
Y7160D1*
Y7195D1*
Y7231D1*
Y7266D1*
X7057D1*
X7090D1*
X7124D1*
X7158D1*
X7192D1*
X7226D1*
X7260D1*
X7294D1*
X7329D1*
X7362D1*
X7396D1*
X7430D1*
X7464D1*
X7498D1*
Y7301D1*
Y7335D1*
Y7371D1*
X7492Y7385D1*
X7477Y7392D1*
X7441D1*
X7407D1*
X7372D1*
X7336D1*
X7302D1*
X7267D1*
X7232D1*
X7197D1*
X7162D1*
X7127D1*
X7092D1*
X7057D1*
X7022D1*
Y7419D1*
Y7446D1*
Y7472D1*
Y7499D1*
X7057D1*
X7092D1*
X7127D1*
X7162D1*
X7197D1*
X7232D1*
X7267D1*
X7302D1*
X7336D1*
X7372D1*
X7406D1*
X7441D1*
X7477D1*
X7498Y7159D2*
X7465D1*
X7431D1*
X7398D1*
X7364D1*
X7330D1*
X7296D1*
X7264D1*
X7230D1*
X7196D1*
X7162D1*
X7129D1*
Y7125D1*
Y7089D1*
Y7054D1*
X7135Y7039D1*
X7151Y7032D1*
X7185D1*
X7220D1*
X7255D1*
X7289D1*
X7325D1*
X7359D1*
X7394D1*
X7429D1*
X7463D1*
X7498D1*
Y7065D1*
Y7096D1*
Y7128D1*
Y7159D1*
X8273Y7032D2*
Y7006D1*
Y6980D1*
Y6953D1*
Y6926D1*
X8238D1*
X8203D1*
X8168D1*
X8134D1*
X8098D1*
X8063D1*
X8029D1*
X7993D1*
X7959D1*
X7924D1*
X7889D1*
X7854D1*
X7818D1*
X7793Y6929D1*
X7768Y6936D1*
X7747Y6948D1*
X7728Y6964D1*
X7712Y6983D1*
X7700Y7004D1*
X7693Y7029D1*
X7691Y7054D1*
Y7090D1*
Y7125D1*
Y7160D1*
Y7195D1*
Y7230D1*
Y7265D1*
Y7300D1*
Y7335D1*
Y7371D1*
X7693Y7396D1*
X7700Y7420D1*
X7712Y7442D1*
X7728Y7461D1*
X7747Y7477D1*
X7768Y7489D1*
X7793Y7497D1*
X7818Y7499D1*
X7854D1*
X7888D1*
X7923D1*
X7958D1*
X7993D1*
X8028D1*
X8062D1*
X8097D1*
X8132D1*
X8167D1*
X8201D1*
X8236D1*
X8271D1*
Y7472D1*
Y7446D1*
Y7419D1*
Y7392D1*
X8236D1*
X8201D1*
X8167D1*
X8132D1*
X8097D1*
X8062D1*
X8028D1*
X7993D1*
X7958D1*
X7924D1*
X7888D1*
X7854D1*
X7818D1*
X7803Y7385D1*
X7797Y7371D1*
Y7335D1*
Y7300D1*
Y7265D1*
Y7230D1*
Y7195D1*
Y7160D1*
Y7125D1*
Y7090D1*
Y7054D1*
X7803Y7039D1*
X7818Y7033D1*
X7854D1*
X7889D1*
X7924D1*
X7959D1*
X7993D1*
X8029D1*
X8063D1*
X8098D1*
X8133D1*
X8168D1*
X8203D1*
X8238D1*
X8273D1*
X8819Y7499D2*
X8844Y7497D1*
X8868Y7489D1*
X8890Y7477D1*
X8909Y7461D1*
X8925Y7442D1*
X8936Y7420D1*
X8944Y7396D1*
X8947Y7371D1*
Y7336D1*
Y7302D1*
Y7268D1*
Y7234D1*
Y7199D1*
Y7165D1*
Y7132D1*
Y7097D1*
Y7063D1*
Y7029D1*
Y6995D1*
Y6960D1*
Y6926D1*
X8921D1*
X8894D1*
X8867D1*
X8841D1*
Y6960D1*
Y6995D1*
Y7029D1*
Y7063D1*
Y7097D1*
Y7131D1*
Y7165D1*
Y7199D1*
Y7234D1*
Y7268D1*
Y7302D1*
Y7336D1*
Y7371D1*
X8834Y7385D1*
X8819Y7392D1*
X8786D1*
X8754D1*
X8721D1*
X8689D1*
X8656D1*
X8624D1*
X8591D1*
X8558D1*
X8526D1*
X8493D1*
X8477Y7385D1*
X8471Y7371D1*
Y7336D1*
Y7302D1*
Y7268D1*
Y7234D1*
Y7199D1*
Y7165D1*
Y7132D1*
Y7097D1*
Y7063D1*
Y7029D1*
Y6995D1*
Y6960D1*
Y6926D1*
X8445D1*
X8418D1*
X8391D1*
X8365D1*
Y6961D1*
Y6995D1*
Y7030D1*
Y7065D1*
Y7099D1*
Y7134D1*
Y7168D1*
Y7202D1*
Y7237D1*
Y7272D1*
Y7306D1*
Y7341D1*
Y7376D1*
Y7410D1*
Y7445D1*
Y7479D1*
Y7513D1*
Y7548D1*
Y7583D1*
Y7617D1*
Y7652D1*
Y7686D1*
X8391D1*
X8418D1*
X8445D1*
X8471D1*
Y7655D1*
Y7624D1*
Y7593D1*
Y7561D1*
Y7530D1*
Y7499D1*
X8506D1*
X8540D1*
X8575D1*
X8610D1*
X8645D1*
X8680D1*
X8714D1*
X8749D1*
X8784D1*
X8819D1*
X9476D2*
X9501Y7497D1*
X9526Y7489D1*
X9548Y7477D1*
X9567Y7461D1*
X9583Y7442D1*
X9595Y7420D1*
X9602Y7396D1*
X9605Y7371D1*
Y7336D1*
Y7302D1*
Y7268D1*
Y7234D1*
Y7199D1*
Y7165D1*
Y7132D1*
Y7097D1*
Y7063D1*
Y7029D1*
Y6995D1*
Y6960D1*
Y6926D1*
X9578D1*
X9552D1*
X9524D1*
X9498D1*
Y6960D1*
Y6995D1*
Y7029D1*
Y7063D1*
Y7097D1*
Y7131D1*
Y7165D1*
Y7199D1*
Y7234D1*
Y7268D1*
Y7302D1*
Y7336D1*
Y7371D1*
X9491Y7385D1*
X9476Y7392D1*
X9443D1*
X9411D1*
X9378D1*
X9346D1*
X9313D1*
X9280D1*
X9248D1*
X9215D1*
X9183D1*
X9150D1*
X9135Y7385D1*
X9128Y7371D1*
Y7336D1*
Y7302D1*
Y7268D1*
Y7234D1*
Y7199D1*
Y7165D1*
Y7132D1*
Y7097D1*
Y7063D1*
Y7029D1*
Y6995D1*
Y6960D1*
Y6926D1*
X9102D1*
X9075D1*
X9048D1*
X9022D1*
Y6960D1*
Y6994D1*
Y7027D1*
Y7061D1*
Y7095D1*
Y7128D1*
Y7162D1*
Y7195D1*
Y7229D1*
Y7263D1*
Y7297D1*
Y7331D1*
Y7364D1*
Y7398D1*
Y7431D1*
Y7465D1*
Y7499D1*
X9057D1*
X9092D1*
X9127D1*
X9162D1*
X9197D1*
X9232D1*
X9266D1*
X9302D1*
X9336D1*
X9371D1*
X9407D1*
X9441D1*
X9476D1*
X9707D2*
X9734D1*
X9760D1*
X9787D1*
X9813D1*
Y7465D1*
Y7431D1*
Y7398D1*
Y7364D1*
Y7331D1*
Y7297D1*
Y7263D1*
Y7229D1*
Y7195D1*
Y7162D1*
Y7128D1*
Y7095D1*
Y7061D1*
Y7027D1*
Y6994D1*
Y6960D1*
Y6926D1*
X9787D1*
X9760D1*
X9734D1*
X9707D1*
Y6960D1*
Y6994D1*
Y7027D1*
Y7061D1*
Y7095D1*
Y7128D1*
Y7162D1*
Y7195D1*
Y7229D1*
Y7263D1*
Y7297D1*
Y7331D1*
Y7364D1*
Y7398D1*
Y7431D1*
Y7465D1*
Y7499D1*
X9813Y7686D2*
Y7660D1*
Y7633D1*
Y7606D1*
Y7580D1*
X9787D1*
X9760D1*
X9734D1*
X9707D1*
Y7606D1*
Y7633D1*
Y7660D1*
Y7686D1*
X9734D1*
X9760D1*
X9787D1*
X9813D1*
X10466D2*
Y7652D1*
Y7617D1*
Y7583D1*
Y7548D1*
Y7513D1*
Y7479D1*
Y7445D1*
Y7410D1*
Y7376D1*
Y7341D1*
Y7306D1*
Y7272D1*
Y7237D1*
Y7202D1*
Y7168D1*
Y7133D1*
Y7099D1*
Y7065D1*
Y7030D1*
Y6995D1*
Y6961D1*
Y6926D1*
X10432D1*
X10397D1*
X10362D1*
X10327D1*
X10292D1*
X10257D1*
X10223D1*
X10187D1*
X10152D1*
X10118D1*
X10082D1*
X10048D1*
X10013D1*
X9987Y6929D1*
X9962Y6936D1*
X9940Y6948D1*
X9922Y6964D1*
X9906Y6983D1*
X9894Y7004D1*
X9886Y7029D1*
X9884Y7054D1*
Y7090D1*
Y7125D1*
Y7160D1*
Y7195D1*
Y7230D1*
Y7265D1*
Y7300D1*
Y7335D1*
Y7371D1*
X9886Y7396D1*
X9894Y7420D1*
X9906Y7442D1*
X9922Y7461D1*
X9940Y7477D1*
X9962Y7489D1*
X9987Y7497D1*
X10013Y7499D1*
X10047D1*
X10082D1*
X10117D1*
X10151D1*
X10187D1*
X10221D1*
X10256D1*
X10291D1*
X10325D1*
X10360D1*
Y7530D1*
Y7561D1*
Y7593D1*
Y7624D1*
Y7655D1*
Y7686D1*
X10386D1*
X10413D1*
X10440D1*
X10466D1*
X10339Y7033D2*
X10354Y7039D1*
X10360Y7054D1*
Y7090D1*
Y7125D1*
Y7160D1*
Y7195D1*
Y7230D1*
Y7265D1*
Y7300D1*
Y7335D1*
Y7371D1*
X10354Y7385D1*
X10339Y7392D1*
X10306D1*
X10274D1*
X10241D1*
X10209D1*
X10176D1*
X10143D1*
X10111D1*
X10078D1*
X10045D1*
X10013D1*
X9997Y7385D1*
X9991Y7371D1*
Y7335D1*
Y7300D1*
Y7265D1*
Y7230D1*
Y7195D1*
Y7160D1*
Y7125D1*
Y7090D1*
Y7054D1*
X9997Y7039D1*
X10013Y7033D1*
X10045D1*
X10078D1*
X10111D1*
X10143D1*
X10176D1*
X10208D1*
X10241D1*
X10274D1*
X10306D1*
X10339D1*
X10863Y7638D2*
X10890D1*
X10916D1*
X10943D1*
X10970D1*
Y7605D1*
Y7571D1*
Y7537D1*
Y7504D1*
Y7470D1*
Y7436D1*
Y7403D1*
Y7369D1*
Y7335D1*
Y7302D1*
Y7269D1*
Y7235D1*
Y7201D1*
Y7167D1*
Y7134D1*
Y7100D1*
Y7066D1*
Y7032D1*
X11003D1*
X11036D1*
X11070D1*
X11104D1*
X11137D1*
X11171D1*
X11204D1*
X11238D1*
X11271D1*
X11305D1*
X11339D1*
X11373D1*
X11406D1*
X11439D1*
X11473D1*
X11507D1*
X11540D1*
X11573D1*
Y7006D1*
Y6980D1*
Y6953D1*
Y6926D1*
X11540D1*
X11506D1*
X11472D1*
X11438D1*
X11405D1*
X11370D1*
X11337D1*
X11303D1*
X11269D1*
X11235D1*
X11201D1*
X11167D1*
X11134D1*
X11100D1*
X11066D1*
X11032D1*
X10998D1*
X10964D1*
X10930D1*
X10897D1*
X10863D1*
Y6960D1*
Y6994D1*
Y7028D1*
Y7062D1*
Y7095D1*
Y7130D1*
Y7164D1*
Y7198D1*
Y7232D1*
Y7265D1*
Y7299D1*
Y7333D1*
Y7367D1*
Y7401D1*
Y7435D1*
Y7468D1*
Y7502D1*
Y7536D1*
Y7570D1*
Y7605D1*
Y7638D1*
X12081Y7499D2*
X12106Y7497D1*
X12131Y7489D1*
X12153Y7477D1*
X12172Y7461D1*
X12188Y7442D1*
X12200Y7420D1*
X12207Y7396D1*
X12210Y7371D1*
Y7336D1*
Y7302D1*
Y7268D1*
Y7234D1*
Y7199D1*
Y7165D1*
Y7132D1*
Y7097D1*
Y7063D1*
Y7029D1*
Y6995D1*
Y6960D1*
Y6926D1*
X12174D1*
X12140D1*
X12105D1*
X12070D1*
X12035D1*
X12000D1*
X11965D1*
X11930D1*
X11895D1*
X11860D1*
X11826D1*
X11790D1*
X11756D1*
X11730Y6929D1*
X11705Y6936D1*
X11684Y6948D1*
X11665Y6964D1*
X11649Y6983D1*
X11637Y7004D1*
X11630Y7029D1*
X11627Y7054D1*
Y7090D1*
Y7125D1*
Y7160D1*
Y7195D1*
Y7231D1*
Y7266D1*
X11661D1*
X11696D1*
X11729D1*
X11763D1*
X11797D1*
X11831D1*
X11865D1*
X11899D1*
X11933D1*
X11967D1*
X12001D1*
X12035D1*
X12069D1*
X12103D1*
Y7301D1*
Y7335D1*
Y7371D1*
X12096Y7385D1*
X12081Y7392D1*
X12047D1*
X12011D1*
X11977D1*
X11942D1*
X11906D1*
X11872D1*
X11837D1*
X11802D1*
X11767D1*
X11732D1*
X11697D1*
X11662D1*
X11627D1*
Y7419D1*
Y7446D1*
Y7472D1*
Y7499D1*
X11662D1*
X11697D1*
X11732D1*
X11767D1*
X11802D1*
X11837D1*
X11872D1*
X11906D1*
X11942D1*
X11976D1*
X12011D1*
X12047D1*
X12081D1*
X12103Y7159D2*
X12069D1*
X12036D1*
X12002D1*
X11969D1*
X11935D1*
X11902D1*
X11868D1*
X11834D1*
X11801D1*
X11768D1*
X11734D1*
Y7125D1*
Y7089D1*
Y7054D1*
X11739Y7039D1*
X11756Y7032D1*
X11790D1*
X11825D1*
X11860D1*
X11895D1*
X11929D1*
X11964D1*
X11999D1*
X12033D1*
X12069D1*
X12103D1*
Y7065D1*
Y7096D1*
Y7128D1*
Y7159D1*
X12751Y7499D2*
X12776Y7497D1*
X12800Y7489D1*
X12822Y7477D1*
X12842Y7461D1*
X12857Y7442D1*
X12869Y7420D1*
X12877Y7396D1*
X12879Y7371D1*
Y7335D1*
Y7300D1*
Y7265D1*
Y7230D1*
Y7195D1*
Y7160D1*
Y7125D1*
Y7090D1*
Y7054D1*
X12877Y7029D1*
X12869Y7004D1*
X12857Y6983D1*
X12842Y6964D1*
X12822Y6947D1*
X12800Y6936D1*
X12776Y6929D1*
X12751Y6926D1*
X12715D1*
X12681D1*
X12646D1*
X12611D1*
X12576D1*
X12541D1*
X12506D1*
X12471D1*
X12436D1*
X12401D1*
X12367D1*
X12331D1*
X12297D1*
Y6961D1*
Y6995D1*
Y7030D1*
Y7065D1*
Y7099D1*
Y7134D1*
Y7168D1*
Y7202D1*
Y7237D1*
Y7272D1*
Y7306D1*
Y7341D1*
Y7376D1*
Y7410D1*
Y7445D1*
Y7479D1*
Y7513D1*
Y7548D1*
Y7583D1*
Y7617D1*
Y7652D1*
Y7686D1*
X12323D1*
X12350D1*
X12377D1*
X12403D1*
Y7655D1*
Y7624D1*
Y7593D1*
Y7561D1*
Y7530D1*
Y7499D1*
X12438D1*
X12472D1*
X12508D1*
X12542D1*
X12577D1*
X12612D1*
X12646D1*
X12681D1*
X12716D1*
X12751D1*
X12773Y7371D2*
X12766Y7385D1*
X12751Y7392D1*
X12718D1*
X12686D1*
X12653D1*
X12621D1*
X12588D1*
X12555D1*
X12523D1*
X12490D1*
X12457D1*
X12425D1*
X12409Y7385D1*
X12403Y7371D1*
Y7335D1*
Y7300D1*
Y7265D1*
Y7230D1*
Y7195D1*
Y7160D1*
Y7125D1*
Y7090D1*
Y7054D1*
X12409Y7039D1*
X12425Y7033D1*
X12457D1*
X12490D1*
X12523D1*
X12555D1*
X12588D1*
X12621D1*
X12653D1*
X12686D1*
X12718D1*
X12751D1*
X12766Y7039D1*
X12773Y7054D1*
Y7090D1*
Y7125D1*
Y7160D1*
Y7195D1*
Y7230D1*
Y7265D1*
Y7300D1*
Y7335D1*
Y7371D1*
X13531Y7349D2*
X13504D1*
X13477D1*
X13451D1*
X13424D1*
Y7371D1*
X13417Y7385D1*
X13402Y7392D1*
X13370D1*
X13337D1*
X13305D1*
X13272D1*
X13240D1*
X13207D1*
X13174D1*
X13142D1*
X13109D1*
X13077D1*
X13060Y7385D1*
X13055Y7371D1*
Y7343D1*
Y7315D1*
Y7287D1*
X13060Y7272D1*
X13077Y7266D1*
X13109D1*
X13142D1*
X13174D1*
X13207D1*
X13239D1*
X13272D1*
X13305D1*
X13337D1*
X13370D1*
X13402D1*
X13427Y7264D1*
X13451Y7256D1*
X13473Y7244D1*
X13493Y7228D1*
X13509Y7209D1*
X13520Y7187D1*
X13528Y7162D1*
X13531Y7137D1*
Y7110D1*
Y7082D1*
Y7054D1*
X13528Y7029D1*
X13520Y7004D1*
X13509Y6983D1*
X13493Y6964D1*
X13473Y6947D1*
X13451Y6936D1*
X13427Y6929D1*
X13402Y6926D1*
X13370D1*
X13337D1*
X13305D1*
X13272D1*
X13240D1*
X13207D1*
X13174D1*
X13142D1*
X13109D1*
X13077D1*
X13051Y6929D1*
X13026Y6936D1*
X13005Y6948D1*
X12986Y6964D1*
X12970Y6983D1*
X12958Y7004D1*
X12951Y7029D1*
X12948Y7054D1*
Y7077D1*
X12975D1*
X13001D1*
X13028D1*
X13055D1*
Y7054D1*
X13060Y7039D1*
X13077Y7033D1*
X13109D1*
X13142D1*
X13174D1*
X13207D1*
X13239D1*
X13272D1*
X13305D1*
X13337D1*
X13370D1*
X13402D1*
X13417Y7039D1*
X13424Y7054D1*
Y7082D1*
Y7110D1*
Y7137D1*
X13417Y7152D1*
X13402Y7159D1*
X13370D1*
X13337D1*
X13305D1*
X13272D1*
X13240D1*
X13207D1*
X13174D1*
X13142D1*
X13109D1*
X13077D1*
X13051Y7162D1*
X13026Y7169D1*
X13005Y7181D1*
X12986Y7197D1*
X12970Y7216D1*
X12958Y7237D1*
X12951Y7262D1*
X12948Y7287D1*
Y7315D1*
Y7343D1*
Y7371D1*
X12951Y7396D1*
X12958Y7420D1*
X12969Y7442D1*
X12986Y7461D1*
X13005Y7477D1*
X13026Y7489D1*
X13051Y7497D1*
X13077Y7499D1*
X13109D1*
X13142D1*
X13174D1*
X13207D1*
X13239D1*
X13272D1*
X13305D1*
X13337D1*
X13370D1*
X13402D1*
X13427Y7497D1*
X13451Y7489D1*
X13473Y7477D1*
X13493Y7461D1*
X13509Y7442D1*
X13520Y7420D1*
X13528Y7396D1*
X13531Y7371D1*
Y7349D1*
X9808Y16087D2*
D12*
X9838D1*
X10616D2*
X10661D1*
X6921Y16072D2*
X7041D1*
X7415D2*
X7505D1*
X7654D2*
X7714D1*
X8342D2*
X8402D1*
X8986D2*
X9045D1*
X9479D2*
X9539D1*
X9773D2*
X9859D1*
X10566D2*
X10711D1*
X11005D2*
X11065D1*
X12965D2*
X13070D1*
X13773D2*
X13818D1*
X6921Y16057D2*
X7043D1*
X7407D2*
X7505D1*
X7654D2*
X7714D1*
X8342D2*
X8402D1*
X8986D2*
X9045D1*
X9479D2*
X9539D1*
X9745D2*
X9874D1*
X10526D2*
X10751D1*
X11005D2*
X11065D1*
X12936D2*
X13091D1*
X13765D2*
X13818D1*
X6921Y16042D2*
X7047D1*
X7401D2*
X7505D1*
X7654D2*
X7714D1*
X8342D2*
X8402D1*
X8986D2*
X9045D1*
X9479D2*
X9539D1*
X9726D2*
X9879D1*
X10003D2*
X10018D1*
X10496D2*
X10782D1*
X11005D2*
X11065D1*
X12913D2*
X13111D1*
X13754D2*
X13818D1*
X6921Y16027D2*
X7051D1*
X7395D2*
X7505D1*
X7654D2*
X7714D1*
X8342D2*
X8402D1*
X8986D2*
X9045D1*
X9479D2*
X9539D1*
X9713D2*
X9883D1*
X9984D2*
X10018D1*
X10473D2*
X10804D1*
X11005D2*
X11065D1*
X12894D2*
X13128D1*
X13741D2*
X13818D1*
X6921Y16012D2*
X7056D1*
X7388D2*
X7505D1*
X7654D2*
X7714D1*
X8342D2*
X8402D1*
X8986D2*
X9045D1*
X9479D2*
X9539D1*
X9708D2*
X9834D1*
X9969D2*
X10018D1*
X10457D2*
X10821D1*
X11005D2*
X11065D1*
X12879D2*
X12983D1*
X13039D2*
X13143D1*
X13727D2*
X13818D1*
X6921Y15997D2*
X7061D1*
X7381D2*
X7505D1*
X7654D2*
X7714D1*
X8342D2*
X8402D1*
X8986D2*
X9045D1*
X9479D2*
X9539D1*
X9705D2*
X9800D1*
X9963D2*
X10018D1*
X10446D2*
X10541D1*
X10718D2*
X10833D1*
X11005D2*
X11065D1*
X12867D2*
X12959D1*
X13064D2*
X13157D1*
X13712D2*
X13818D1*
X6921Y15982D2*
X7066D1*
X7375D2*
X7505D1*
X8986D2*
X9045D1*
X9704D2*
X9777D1*
X9960D2*
X10018D1*
X10439D2*
X10527D1*
X10742D2*
X10843D1*
X11005D2*
X11065D1*
X12858D2*
X12940D1*
X13084D2*
X13168D1*
X13695D2*
X13818D1*
X6921Y15967D2*
X7071D1*
X7370D2*
X7505D1*
X8986D2*
X9045D1*
X9704D2*
X9770D1*
X9959D2*
X10018D1*
X10432D2*
X10514D1*
X10761D2*
X10851D1*
X11005D2*
X11065D1*
X12850D2*
X12925D1*
X13098D2*
X13176D1*
X13674D2*
X13818D1*
X6921Y15952D2*
X6981D1*
X7013D2*
X7076D1*
X7365D2*
X7505D1*
X8986D2*
X9045D1*
X9704D2*
X9766D1*
X9958D2*
X10018D1*
X10427D2*
X10503D1*
X10776D2*
X10858D1*
X11005D2*
X11065D1*
X12842D2*
X12914D1*
X13109D2*
X13183D1*
X13652D2*
X13818D1*
X6921Y15937D2*
X6981D1*
X7017D2*
X7081D1*
X7360D2*
X7412D1*
X7445D2*
X7505D1*
X8986D2*
X9045D1*
X9704D2*
X9764D1*
X9958D2*
X10018D1*
X10424D2*
X10492D1*
X10788D2*
X10864D1*
X11005D2*
X11065D1*
X12837D2*
X12907D1*
X13117D2*
X13189D1*
X13631D2*
X13818D1*
X6921Y15922D2*
X6981D1*
X7021D2*
X7086D1*
X7355D2*
X7409D1*
X7445D2*
X7505D1*
X8986D2*
X9045D1*
X9704D2*
X9764D1*
X9958D2*
X10018D1*
X10423D2*
X10482D1*
X10792D2*
X10868D1*
X11005D2*
X11065D1*
X12833D2*
X12901D1*
X13123D2*
X13194D1*
X13615D2*
X13730D1*
X13758D2*
X13818D1*
X6921Y15907D2*
X6981D1*
X7026D2*
X7091D1*
X7350D2*
X7404D1*
X7445D2*
X7505D1*
X8043D2*
X8073D1*
X8656D2*
X8701D1*
X8986D2*
X9045D1*
X9180D2*
X9210D1*
X9704D2*
X9764D1*
X9958D2*
X10018D1*
X10423D2*
X10489D1*
X10796D2*
X10871D1*
X11005D2*
X11065D1*
X11349D2*
X11409D1*
X12277D2*
X12307D1*
X12829D2*
X12896D1*
X13127D2*
X13199D1*
X13602D2*
X13704D1*
X13758D2*
X13818D1*
X6921Y15892D2*
X6981D1*
X7031D2*
X7096D1*
X7345D2*
X7400D1*
X7445D2*
X7505D1*
X7654D2*
X7714D1*
X7849D2*
X7908D1*
X8002D2*
X8113D1*
X8342D2*
X8402D1*
X8616D2*
X8749D1*
X8986D2*
X9046D1*
X9139D2*
X9250D1*
X9479D2*
X9539D1*
X9629D2*
X9853D1*
X9898D2*
X10093D1*
X10424D2*
X10497D1*
X11005D2*
X11065D1*
X11303D2*
X11450D1*
X11633D2*
X11708D1*
X11963D2*
X12037D1*
X12236D2*
X12354D1*
X12825D2*
X12893D1*
X13131D2*
X13202D1*
X13597D2*
X13678D1*
X13758D2*
X13818D1*
X6921Y15877D2*
X6981D1*
X7036D2*
X7100D1*
X7340D2*
X7395D1*
X7445D2*
X7505D1*
X7654D2*
X7714D1*
X7849D2*
X7911D1*
X7967D2*
X8144D1*
X8342D2*
X8402D1*
X8584D2*
X8785D1*
X8986D2*
X9048D1*
X9104D2*
X9280D1*
X9479D2*
X9539D1*
X9630D2*
X9853D1*
X9900D2*
X10093D1*
X10428D2*
X10505D1*
X11005D2*
X11065D1*
X11267D2*
X11482D1*
X11639D2*
X11711D1*
X11957D2*
X12030D1*
X12204D2*
X12391D1*
X12821D2*
X12891D1*
X13135D2*
X13203D1*
X13595D2*
X13651D1*
X13758D2*
X13818D1*
X6921Y15862D2*
X6981D1*
X7041D2*
X7106D1*
X7335D2*
X7390D1*
X7445D2*
X7505D1*
X7654D2*
X7714D1*
X7849D2*
X7916D1*
X7937D2*
X8164D1*
X8342D2*
X8402D1*
X8562D2*
X8810D1*
X8986D2*
X9053D1*
X9074D2*
X9301D1*
X9479D2*
X9539D1*
X9636D2*
X9853D1*
X9904D2*
X10093D1*
X10435D2*
X10528D1*
X11005D2*
X11065D1*
X11240D2*
X11506D1*
X11644D2*
X11714D1*
X11952D2*
X12024D1*
X12179D2*
X12417D1*
X12818D2*
X12890D1*
X13139D2*
X13204D1*
X13593D2*
X13623D1*
X13758D2*
X13818D1*
X6921Y15847D2*
X6981D1*
X7046D2*
X7111D1*
X7330D2*
X7385D1*
X7445D2*
X7505D1*
X7654D2*
X7714D1*
X7849D2*
X8177D1*
X8342D2*
X8402D1*
X8546D2*
X8826D1*
X8986D2*
X9314D1*
X9479D2*
X9539D1*
X9655D2*
X9853D1*
X9918D2*
X10093D1*
X10443D2*
X10562D1*
X11005D2*
X11065D1*
X11221D2*
X11523D1*
X11648D2*
X11719D1*
X11948D2*
X12017D1*
X12161D2*
X12437D1*
X12816D2*
X12890D1*
X13142D2*
X13204D1*
X13758D2*
X13818D1*
X6921Y15832D2*
X6981D1*
X7051D2*
X7115D1*
X7325D2*
X7380D1*
X7445D2*
X7505D1*
X7654D2*
X7714D1*
X7849D2*
X7987D1*
X8084D2*
X8187D1*
X8342D2*
X8402D1*
X8536D2*
X8632D1*
X8741D2*
X8837D1*
X8986D2*
X9124D1*
X9221D2*
X9324D1*
X9479D2*
X9539D1*
X9674D2*
X9763D1*
X9934D2*
X10018D1*
X10455D2*
X10607D1*
X11005D2*
X11065D1*
X11208D2*
X11290D1*
X11439D2*
X11535D1*
X11654D2*
X11723D1*
X11943D2*
X12011D1*
X12146D2*
X12250D1*
X12367D2*
X12452D1*
X12816D2*
X12888D1*
X13143D2*
X13204D1*
X13758D2*
X13818D1*
X6921Y15817D2*
X6981D1*
X7056D2*
X7121D1*
X7320D2*
X7375D1*
X7445D2*
X7505D1*
X7654D2*
X7714D1*
X7849D2*
X7965D1*
X8106D2*
X8195D1*
X8342D2*
X8402D1*
X8529D2*
X8612D1*
X8761D2*
X8844D1*
X8986D2*
X9102D1*
X9243D2*
X9332D1*
X9479D2*
X9539D1*
X9691D2*
X9763D1*
X9947D2*
X10018D1*
X10469D2*
X10659D1*
X11005D2*
X11065D1*
X11198D2*
X11277D1*
X11453D2*
X11540D1*
X11660D2*
X11728D1*
X11938D2*
X12004D1*
X12134D2*
X12226D1*
X12381D2*
X12464D1*
X12815D2*
X12884D1*
X13144D2*
X13204D1*
X13758D2*
X13818D1*
X6921Y15802D2*
X6981D1*
X7061D2*
X7126D1*
X7315D2*
X7370D1*
X7445D2*
X7505D1*
X7654D2*
X7714D1*
X7849D2*
X7949D1*
X8122D2*
X8201D1*
X8342D2*
X8402D1*
X8525D2*
X8596D1*
X8777D2*
X8848D1*
X8986D2*
X9086D1*
X9259D2*
X9338D1*
X9479D2*
X9539D1*
X9698D2*
X9763D1*
X9953D2*
X10018D1*
X10486D2*
X10709D1*
X11005D2*
X11065D1*
X11192D2*
X11266D1*
X11466D2*
X11542D1*
X11667D2*
X11733D1*
X11933D2*
X11998D1*
X12125D2*
X12207D1*
X12396D2*
X12473D1*
X12815D2*
X12880D1*
X13144D2*
X13204D1*
X13758D2*
X13818D1*
X6921Y15787D2*
X6981D1*
X7066D2*
X7130D1*
X7310D2*
X7365D1*
X7445D2*
X7505D1*
X7654D2*
X7714D1*
X7849D2*
X7938D1*
X8128D2*
X8205D1*
X8342D2*
X8402D1*
X8523D2*
X8582D1*
X8791D2*
X8851D1*
X8986D2*
X9075D1*
X9265D2*
X9342D1*
X9479D2*
X9539D1*
X9701D2*
X9763D1*
X9956D2*
X10018D1*
X10509D2*
X10752D1*
X11005D2*
X11065D1*
X11188D2*
X11255D1*
X11476D2*
X11543D1*
X11673D2*
X11738D1*
X11927D2*
X11993D1*
X12118D2*
X12192D1*
X12408D2*
X12480D1*
X12815D2*
X12878D1*
X13144D2*
X13204D1*
X13758D2*
X13818D1*
X6921Y15772D2*
X6981D1*
X7071D2*
X7136D1*
X7305D2*
X7360D1*
X7445D2*
X7505D1*
X7654D2*
X7714D1*
X7849D2*
X7931D1*
X8133D2*
X8206D1*
X8342D2*
X8402D1*
X8523D2*
X8595D1*
X8986D2*
X9068D1*
X9270D2*
X9343D1*
X9479D2*
X9539D1*
X9703D2*
X9763D1*
X9957D2*
X10018D1*
X10541D2*
X10787D1*
X11005D2*
X11065D1*
X11185D2*
X11245D1*
X11479D2*
X11543D1*
X11678D2*
X11744D1*
X11921D2*
X11987D1*
X12113D2*
X12180D1*
X12417D2*
X12486D1*
X12815D2*
X12876D1*
X13144D2*
X13204D1*
X13758D2*
X13818D1*
X6921Y15758D2*
X6981D1*
X7076D2*
X7141D1*
X7300D2*
X7355D1*
X7445D2*
X7505D1*
X7654D2*
X7714D1*
X7849D2*
X7926D1*
X8138D2*
X8207D1*
X8342D2*
X8402D1*
X8525D2*
X8615D1*
X8986D2*
X9063D1*
X9275D2*
X9344D1*
X9479D2*
X9539D1*
X9703D2*
X9763D1*
X9958D2*
X10018D1*
X10582D2*
X10814D1*
X11005D2*
X11065D1*
X11481D2*
X11544D1*
X11683D2*
X11750D1*
X11914D2*
X11981D1*
X12107D2*
X12176D1*
X12422D2*
X12491D1*
X12815D2*
X12876D1*
X13144D2*
X13204D1*
X13758D2*
X13818D1*
X6921Y15743D2*
X6981D1*
X7081D2*
X7145D1*
X7295D2*
X7350D1*
X7445D2*
X7505D1*
X7654D2*
X7714D1*
X7849D2*
X7922D1*
X8142D2*
X8207D1*
X8342D2*
X8402D1*
X8529D2*
X8645D1*
X8986D2*
X9059D1*
X9279D2*
X9344D1*
X9479D2*
X9539D1*
X9703D2*
X9763D1*
X9958D2*
X10018D1*
X10630D2*
X10835D1*
X11005D2*
X11065D1*
X11455D2*
X11544D1*
X11688D2*
X11757D1*
X11908D2*
X11974D1*
X12103D2*
X12174D1*
X12425D2*
X12496D1*
X12815D2*
X12878D1*
X13144D2*
X13204D1*
X13758D2*
X13818D1*
X6921Y15728D2*
X6981D1*
X7086D2*
X7150D1*
X7290D2*
X7345D1*
X7445D2*
X7505D1*
X7654D2*
X7714D1*
X7849D2*
X7918D1*
X8145D2*
X8208D1*
X8342D2*
X8402D1*
X8535D2*
X8684D1*
X8986D2*
X9055D1*
X9282D2*
X9345D1*
X9479D2*
X9539D1*
X9704D2*
X9763D1*
X9958D2*
X10018D1*
X10679D2*
X10850D1*
X11005D2*
X11065D1*
X11412D2*
X11544D1*
X11693D2*
X11763D1*
X11903D2*
X11968D1*
X12100D2*
X12173D1*
X12426D2*
X12499D1*
X12815D2*
X12881D1*
X13144D2*
X13204D1*
X13758D2*
X13818D1*
X6921Y15713D2*
X6981D1*
X7091D2*
X7156D1*
X7285D2*
X7340D1*
X7445D2*
X7505D1*
X7654D2*
X7714D1*
X7849D2*
X7914D1*
X8147D2*
X8208D1*
X8342D2*
X8402D1*
X8547D2*
X8726D1*
X8986D2*
X9051D1*
X9284D2*
X9345D1*
X9479D2*
X9539D1*
X9704D2*
X9763D1*
X9958D2*
X10018D1*
X10721D2*
X10861D1*
X11005D2*
X11065D1*
X11357D2*
X11544D1*
X11699D2*
X11768D1*
X11898D2*
X11963D1*
X12098D2*
X12500D1*
X12815D2*
X12885D1*
X13144D2*
X13204D1*
X13758D2*
X13818D1*
X6921Y15698D2*
X6981D1*
X7098D2*
X7160D1*
X7280D2*
X7335D1*
X7445D2*
X7505D1*
X7654D2*
X7714D1*
X7849D2*
X7911D1*
X8147D2*
X8208D1*
X8342D2*
X8402D1*
X8565D2*
X8765D1*
X8986D2*
X9048D1*
X9284D2*
X9345D1*
X9479D2*
X9539D1*
X9704D2*
X9763D1*
X9958D2*
X10018D1*
X10756D2*
X10869D1*
X11005D2*
X11065D1*
X11304D2*
X11544D1*
X11705D2*
X11773D1*
X11893D2*
X11958D1*
X12098D2*
X12501D1*
X12815D2*
X12888D1*
X13144D2*
X13204D1*
X13758D2*
X13818D1*
X6921Y15683D2*
X6981D1*
X7104D2*
X7165D1*
X7275D2*
X7330D1*
X7445D2*
X7505D1*
X7654D2*
X7714D1*
X7849D2*
X7910D1*
X8148D2*
X8208D1*
X8342D2*
X8402D1*
X8591D2*
X8798D1*
X8986D2*
X9046D1*
X9285D2*
X9345D1*
X9479D2*
X9539D1*
X9704D2*
X9763D1*
X9958D2*
X10018D1*
X10781D2*
X10875D1*
X11005D2*
X11065D1*
X11261D2*
X11544D1*
X11712D2*
X11778D1*
X11888D2*
X11953D1*
X12097D2*
X12501D1*
X12816D2*
X12889D1*
X13142D2*
X13204D1*
X13758D2*
X13818D1*
X6921Y15668D2*
X6981D1*
X7110D2*
X7170D1*
X7270D2*
X7325D1*
X7445D2*
X7505D1*
X7654D2*
X7714D1*
X7849D2*
X7909D1*
X8148D2*
X8208D1*
X8342D2*
X8402D1*
X8625D2*
X8824D1*
X8986D2*
X9046D1*
X9285D2*
X9345D1*
X9479D2*
X9539D1*
X9704D2*
X9763D1*
X9958D2*
X10018D1*
X10799D2*
X10880D1*
X11005D2*
X11065D1*
X11230D2*
X11436D1*
X11484D2*
X11544D1*
X11718D2*
X11783D1*
X11883D2*
X11948D1*
X12097D2*
X12501D1*
X12818D2*
X12890D1*
X13138D2*
X13204D1*
X13758D2*
X13818D1*
X6921Y15653D2*
X6981D1*
X7115D2*
X7175D1*
X7265D2*
X7319D1*
X7445D2*
X7505D1*
X7654D2*
X7714D1*
X7849D2*
X7909D1*
X8148D2*
X8208D1*
X8342D2*
X8402D1*
X8667D2*
X8843D1*
X8986D2*
X9046D1*
X9285D2*
X9345D1*
X9479D2*
X9539D1*
X9704D2*
X9763D1*
X9958D2*
X10018D1*
X10407D2*
X10467D1*
X10808D2*
X10883D1*
X11005D2*
X11065D1*
X11209D2*
X11374D1*
X11484D2*
X11544D1*
X11723D2*
X11788D1*
X11878D2*
X11942D1*
X12097D2*
X12154D1*
X12821D2*
X12890D1*
X13135D2*
X13204D1*
X13758D2*
X13818D1*
X6921Y15638D2*
X6981D1*
X7120D2*
X7180D1*
X7260D2*
X7313D1*
X7445D2*
X7505D1*
X7654D2*
X7714D1*
X7849D2*
X7908D1*
X8148D2*
X8208D1*
X8342D2*
X8402D1*
X8709D2*
X8857D1*
X8986D2*
X9045D1*
X9285D2*
X9345D1*
X9479D2*
X9539D1*
X9704D2*
X9763D1*
X9958D2*
X10018D1*
X10392D2*
X10469D1*
X10817D2*
X10884D1*
X11005D2*
X11065D1*
X11194D2*
X11322D1*
X11483D2*
X11544D1*
X11729D2*
X11793D1*
X11873D2*
X11936D1*
X12098D2*
X12163D1*
X12825D2*
X12891D1*
X13132D2*
X13202D1*
X13758D2*
X13818D1*
X6921Y15623D2*
X6981D1*
X7126D2*
X7185D1*
X7253D2*
X7306D1*
X7445D2*
X7505D1*
X7654D2*
X7714D1*
X7849D2*
X7908D1*
X8148D2*
X8208D1*
X8342D2*
X8402D1*
X8746D2*
X8861D1*
X8986D2*
X9045D1*
X9285D2*
X9345D1*
X9479D2*
X9539D1*
X9704D2*
X9763D1*
X9958D2*
X10018D1*
X10399D2*
X10473D1*
X10826D2*
X10885D1*
X11005D2*
X11065D1*
X11184D2*
X11284D1*
X11481D2*
X11544D1*
X11735D2*
X11798D1*
X11867D2*
X11929D1*
X12100D2*
X12168D1*
X12828D2*
X12893D1*
X13130D2*
X13198D1*
X13758D2*
X13818D1*
X6921Y15608D2*
X6981D1*
X7130D2*
X7190D1*
X7247D2*
X7301D1*
X7445D2*
X7505D1*
X7654D2*
X7714D1*
X7849D2*
X7908D1*
X8148D2*
X8208D1*
X8342D2*
X8402D1*
X8774D2*
X8864D1*
X8986D2*
X9045D1*
X9285D2*
X9345D1*
X9479D2*
X9539D1*
X9704D2*
X9763D1*
X9958D2*
X10018D1*
X10404D2*
X10480D1*
X10818D2*
X10885D1*
X11005D2*
X11065D1*
X11177D2*
X11260D1*
X11478D2*
X11544D1*
X11742D2*
X11803D1*
X11861D2*
X11923D1*
X12103D2*
X12173D1*
X12832D2*
X12897D1*
X13127D2*
X13194D1*
X13758D2*
X13818D1*
X6921Y15593D2*
X6981D1*
X7136D2*
X7196D1*
X7241D2*
X7295D1*
X7445D2*
X7505D1*
X7654D2*
X7714D1*
X7849D2*
X7908D1*
X8148D2*
X8208D1*
X8342D2*
X8402D1*
X8537D2*
X8582D1*
X8793D2*
X8865D1*
X8986D2*
X9045D1*
X9285D2*
X9345D1*
X9479D2*
X9539D1*
X9704D2*
X9763D1*
X9958D2*
X10018D1*
X10408D2*
X10488D1*
X10811D2*
X10883D1*
X11005D2*
X11065D1*
X11173D2*
X11244D1*
X11473D2*
X11544D1*
X11748D2*
X11808D1*
X11854D2*
X11918D1*
X12108D2*
X12178D1*
X12426D2*
X12486D1*
X12836D2*
X12903D1*
X13123D2*
X13189D1*
X13758D2*
X13818D1*
X6921Y15578D2*
X6981D1*
X7141D2*
X7203D1*
X7235D2*
X7290D1*
X7445D2*
X7505D1*
X7654D2*
X7714D1*
X7849D2*
X7908D1*
X8148D2*
X8208D1*
X8342D2*
X8402D1*
X8523D2*
X8585D1*
X8799D2*
X8866D1*
X8986D2*
X9045D1*
X9285D2*
X9345D1*
X9479D2*
X9539D1*
X9704D2*
X9763D1*
X9958D2*
X10018D1*
X10413D2*
X10502D1*
X10804D2*
X10879D1*
X11005D2*
X11065D1*
X11171D2*
X11230D1*
X11468D2*
X11546D1*
X11753D2*
X11813D1*
X11846D2*
X11912D1*
X12112D2*
X12185D1*
X12418D2*
X12501D1*
X12841D2*
X12909D1*
X13116D2*
X13184D1*
X13758D2*
X13818D1*
X6921Y15563D2*
X6981D1*
X7145D2*
X7211D1*
X7228D2*
X7285D1*
X7445D2*
X7505D1*
X7654D2*
X7714D1*
X7849D2*
X7908D1*
X8148D2*
X8208D1*
X8342D2*
X8402D1*
X8519D2*
X8589D1*
X8798D2*
X8865D1*
X8986D2*
X9045D1*
X9285D2*
X9345D1*
X9479D2*
X9539D1*
X9704D2*
X9763D1*
X9958D2*
X10019D1*
X10420D2*
X10519D1*
X10788D2*
X10872D1*
X11005D2*
X11065D1*
X11171D2*
X11240D1*
X11460D2*
X11550D1*
X11759D2*
X11820D1*
X11837D2*
X11906D1*
X12118D2*
X12195D1*
X12407D2*
X12492D1*
X12846D2*
X12918D1*
X13107D2*
X13177D1*
X13758D2*
X13818D1*
X6921Y15548D2*
X6981D1*
X7150D2*
X7280D1*
X7445D2*
X7505D1*
X7654D2*
X7714D1*
X7849D2*
X7908D1*
X8148D2*
X8208D1*
X8342D2*
X8402D1*
X8522D2*
X8602D1*
X8789D2*
X8863D1*
X8986D2*
X9045D1*
X9285D2*
X9345D1*
X9479D2*
X9539D1*
X9704D2*
X9763D1*
X9958D2*
X10021D1*
X10428D2*
X10576D1*
X10739D2*
X10864D1*
X11005D2*
X11065D1*
X11172D2*
X11251D1*
X11437D2*
X11554D1*
X11765D2*
X11899D1*
X12125D2*
X12208D1*
X12394D2*
X12483D1*
X12853D2*
X12929D1*
X13094D2*
X13170D1*
X13758D2*
X13818D1*
X6921Y15533D2*
X6981D1*
X7156D2*
X7275D1*
X7445D2*
X7505D1*
X7654D2*
X7714D1*
X7849D2*
X7908D1*
X8148D2*
X8208D1*
X8342D2*
X8402D1*
X8527D2*
X8636D1*
X8753D2*
X8857D1*
X8986D2*
X9045D1*
X9285D2*
X9345D1*
X9479D2*
X9539D1*
X9704D2*
X9763D1*
X9958D2*
X10031D1*
X10440D2*
X10667D1*
X10658D2*
X10852D1*
X11005D2*
X11065D1*
X11176D2*
X11282D1*
X11398D2*
X11556D1*
X11772D2*
X11893D1*
X12134D2*
X12247D1*
X12361D2*
X12475D1*
X12861D2*
X12961D1*
X13060D2*
X13162D1*
X13354D2*
X13414D1*
X13758D2*
X13818D1*
X6921Y15518D2*
X6981D1*
X7160D2*
X7270D1*
X7445D2*
X7505D1*
X7654D2*
X7714D1*
X7849D2*
X7908D1*
X8148D2*
X8208D1*
X8342D2*
X8402D1*
X8535D2*
X8691D1*
X8690D2*
X8847D1*
X8986D2*
X9045D1*
X9285D2*
X9345D1*
X9479D2*
X9539D1*
X9704D2*
X9763D1*
X9959D2*
X10052D1*
X10454D2*
X10839D1*
X11005D2*
X11065D1*
X11183D2*
X11332D1*
X11336D2*
X11558D1*
X11777D2*
X11888D1*
X12145D2*
X12307D1*
X12310D2*
X12464D1*
X12871D2*
X13010D1*
X13153D1*
X13354D2*
X13414D1*
X13758D2*
X13818D1*
X6921Y15503D2*
X6981D1*
X7165D2*
X7265D1*
X7445D2*
X7505D1*
X7654D2*
X7714D1*
X7849D2*
X7908D1*
X8148D2*
X8208D1*
X8342D2*
X8402D1*
X8546D2*
X8833D1*
X8986D2*
X9045D1*
X9285D2*
X9345D1*
X9479D2*
X9539D1*
X9704D2*
X9763D1*
X9961D2*
X10072D1*
X10470D2*
X10822D1*
X11005D2*
X11065D1*
X11192D2*
X11559D1*
X11783D2*
X11883D1*
X12159D2*
X12451D1*
X12882D2*
X13141D1*
X13354D2*
X13414D1*
X13758D2*
X13818D1*
X6921Y15488D2*
X6981D1*
X7170D2*
X7260D1*
X7445D2*
X7505D1*
X7654D2*
X7714D1*
X7849D2*
X7908D1*
X8148D2*
X8208D1*
X8342D2*
X8402D1*
X8563D2*
X8816D1*
X8986D2*
X9045D1*
X9285D2*
X9345D1*
X9479D2*
X9539D1*
X9704D2*
X9763D1*
X9966D2*
X10088D1*
X10493D2*
X10800D1*
X11005D2*
X11065D1*
X11207D2*
X11453D1*
X11499D2*
X11561D1*
X11788D2*
X11878D1*
X12177D2*
X12431D1*
X12897D2*
X13124D1*
X13354D2*
X13414D1*
X13758D2*
X13818D1*
X6921Y15473D2*
X6981D1*
X7173D2*
X7255D1*
X7445D2*
X7505D1*
X7654D2*
X7714D1*
X7849D2*
X7908D1*
X8148D2*
X8208D1*
X8342D2*
X8402D1*
X8590D2*
X8791D1*
X8986D2*
X9045D1*
X9285D2*
X9345D1*
X9479D2*
X9539D1*
X9704D2*
X9763D1*
X9982D2*
X10100D1*
X10527D2*
X10771D1*
X11005D2*
X11065D1*
X11231D2*
X11418D1*
X11499D2*
X11567D1*
X11793D2*
X11875D1*
X12202D2*
X12404D1*
X12921D2*
X13099D1*
X13354D2*
X13414D1*
X13758D2*
X13818D1*
X6921Y15458D2*
X6981D1*
X7175D2*
X7250D1*
X7445D2*
X7505D1*
X7654D2*
X7714D1*
X7849D2*
X7908D1*
X8148D2*
X8208D1*
X8342D2*
X8402D1*
X8627D2*
X8756D1*
X8986D2*
X9045D1*
X9285D2*
X9345D1*
X9479D2*
X9539D1*
X9704D2*
X9763D1*
X10005D2*
X10090D1*
X10575D2*
X10733D1*
X11005D2*
X11065D1*
X11265D2*
X11378D1*
X11499D2*
X11574D1*
X11798D2*
X11873D1*
X12237D2*
X12366D1*
X12955D2*
X13065D1*
X13354D2*
X13414D1*
X13758D2*
X13818D1*
X8671Y15443D2*
X8716D1*
X10033D2*
X10078D1*
X10631D2*
X10691D1*
X11304D2*
X11334D1*
X12277D2*
X12322D1*
X12995D2*
X13025D1*
X9808Y16087D2*
X9773Y16072D1*
X9745Y16057D1*
X9726Y16042D1*
X9713Y16027D1*
X9708Y16012D1*
X9705Y15997D1*
X9704Y15982D1*
Y15967D1*
Y15952D1*
Y15937D1*
Y15922D1*
Y15907D1*
Y15892D1*
X9629D1*
X9630Y15877D1*
X9636Y15862D1*
X9655Y15847D1*
X9674Y15832D1*
X9691Y15817D1*
X9698Y15802D1*
X9701Y15787D1*
X9703Y15772D1*
Y15758D1*
Y15743D1*
X9704Y15728D1*
Y15713D1*
Y15698D1*
Y15683D1*
Y15668D1*
Y15653D1*
Y15638D1*
Y15623D1*
Y15608D1*
Y15593D1*
Y15578D1*
Y15563D1*
Y15548D1*
Y15533D1*
Y15518D1*
Y15503D1*
Y15488D1*
Y15473D1*
Y15458D1*
X9838Y16087D2*
X9859Y16072D1*
X9874Y16057D1*
X9879Y16042D1*
X9883Y16027D1*
X9834Y16012D1*
X9800Y15997D1*
X9777Y15982D1*
X9770Y15967D1*
X9766Y15952D1*
X9764Y15937D1*
Y15922D1*
Y15907D1*
X9763Y15892D1*
X9853D1*
Y15877D1*
Y15862D1*
Y15847D1*
Y15832D1*
X9763D1*
Y15817D1*
Y15802D1*
Y15787D1*
Y15772D1*
Y15758D1*
Y15743D1*
Y15728D1*
Y15713D1*
Y15698D1*
Y15683D1*
Y15668D1*
Y15653D1*
Y15638D1*
Y15623D1*
Y15608D1*
Y15593D1*
Y15578D1*
Y15563D1*
Y15548D1*
Y15533D1*
Y15518D1*
Y15503D1*
Y15488D1*
Y15473D1*
Y15458D1*
X10616Y16087D2*
X10566Y16072D1*
X10526Y16057D1*
X10496Y16042D1*
X10473Y16027D1*
X10457Y16012D1*
X10446Y15997D1*
X10439Y15982D1*
X10432Y15967D1*
X10427Y15952D1*
X10424Y15937D1*
X10423Y15922D1*
Y15907D1*
X10424Y15892D1*
X10428Y15877D1*
X10435Y15862D1*
X10443Y15847D1*
X10455Y15832D1*
X10469Y15817D1*
X10486Y15802D1*
X10509Y15787D1*
X10541Y15772D1*
X10582Y15758D1*
X10630Y15743D1*
X10679Y15728D1*
X10721Y15713D1*
X10756Y15698D1*
X10781Y15683D1*
X10799Y15668D1*
X10808Y15653D1*
X10817Y15638D1*
X10826Y15623D1*
X10818Y15608D1*
X10811Y15593D1*
X10804Y15578D1*
X10788Y15563D1*
X10739Y15548D1*
X10658Y15533D1*
X10556Y15518D1*
X10661Y16087D2*
X10711Y16072D1*
X10751Y16057D1*
X10782Y16042D1*
X10804Y16027D1*
X10821Y16012D1*
X10833Y15997D1*
X10843Y15982D1*
X10851Y15967D1*
X10858Y15952D1*
X10864Y15937D1*
X10868Y15922D1*
X10871Y15907D1*
X6921Y16072D2*
Y16057D1*
Y16042D1*
Y16027D1*
Y16012D1*
Y15997D1*
Y15982D1*
Y15967D1*
Y15952D1*
Y15937D1*
Y15922D1*
Y15907D1*
Y15892D1*
Y15877D1*
Y15862D1*
Y15847D1*
Y15832D1*
Y15817D1*
Y15802D1*
Y15787D1*
Y15772D1*
Y15758D1*
Y15743D1*
Y15728D1*
Y15713D1*
Y15698D1*
Y15683D1*
Y15668D1*
Y15653D1*
Y15638D1*
Y15623D1*
Y15608D1*
Y15593D1*
Y15578D1*
Y15563D1*
Y15548D1*
Y15533D1*
Y15518D1*
Y15503D1*
Y15488D1*
Y15473D1*
Y15458D1*
X7041Y16072D2*
X7043Y16057D1*
X7047Y16042D1*
X7051Y16027D1*
X7056Y16012D1*
X7061Y15997D1*
X7066Y15982D1*
X7071Y15967D1*
X7076Y15952D1*
X7081Y15937D1*
X7086Y15922D1*
X7091Y15907D1*
X7096Y15892D1*
X7100Y15877D1*
X7106Y15862D1*
X7111Y15847D1*
X7115Y15832D1*
X7121Y15817D1*
X7126Y15802D1*
X7130Y15787D1*
X7136Y15772D1*
X7141Y15758D1*
X7145Y15743D1*
X7150Y15728D1*
X7156Y15713D1*
X7160Y15698D1*
X7165Y15683D1*
X7170Y15668D1*
X7175Y15653D1*
X7180Y15638D1*
X7185Y15623D1*
X7190Y15608D1*
X7196Y15593D1*
X7203Y15578D1*
X7211Y15563D1*
X7220Y15548D1*
X7415Y16072D2*
X7407Y16057D1*
X7401Y16042D1*
X7395Y16027D1*
X7388Y16012D1*
X7381Y15997D1*
X7375Y15982D1*
X7370Y15967D1*
X7365Y15952D1*
X7360Y15937D1*
X7355Y15922D1*
X7350Y15907D1*
X7345Y15892D1*
X7340Y15877D1*
X7335Y15862D1*
X7330Y15847D1*
X7325Y15832D1*
X7320Y15817D1*
X7315Y15802D1*
X7310Y15787D1*
X7305Y15772D1*
X7300Y15758D1*
X7295Y15743D1*
X7290Y15728D1*
X7285Y15713D1*
X7280Y15698D1*
X7275Y15683D1*
X7270Y15668D1*
X7265Y15653D1*
X7260Y15638D1*
X7253Y15623D1*
X7247Y15608D1*
X7241Y15593D1*
X7235Y15578D1*
X7228Y15563D1*
X7220Y15548D1*
X7505Y16072D2*
Y16057D1*
Y16042D1*
Y16027D1*
Y16012D1*
Y15997D1*
Y15982D1*
Y15967D1*
Y15952D1*
Y15937D1*
Y15922D1*
Y15907D1*
Y15892D1*
Y15877D1*
Y15862D1*
Y15847D1*
Y15832D1*
Y15817D1*
Y15802D1*
Y15787D1*
Y15772D1*
Y15758D1*
Y15743D1*
Y15728D1*
Y15713D1*
Y15698D1*
Y15683D1*
Y15668D1*
Y15653D1*
Y15638D1*
Y15623D1*
Y15608D1*
Y15593D1*
Y15578D1*
Y15563D1*
Y15548D1*
Y15533D1*
Y15518D1*
Y15503D1*
Y15488D1*
Y15473D1*
Y15458D1*
X7654Y16072D2*
Y16057D1*
Y16042D1*
Y16027D1*
Y16012D1*
Y15997D1*
X7714Y16072D2*
Y16057D1*
Y16042D1*
Y16027D1*
Y16012D1*
Y15997D1*
X8342Y16072D2*
Y16057D1*
Y16042D1*
Y16027D1*
Y16012D1*
Y15997D1*
X8402Y16072D2*
Y16057D1*
Y16042D1*
Y16027D1*
Y16012D1*
Y15997D1*
X8986Y16072D2*
Y16057D1*
Y16042D1*
Y16027D1*
Y16012D1*
Y15997D1*
Y15982D1*
Y15967D1*
Y15952D1*
Y15937D1*
Y15922D1*
Y15907D1*
Y15892D1*
Y15877D1*
Y15862D1*
Y15847D1*
Y15832D1*
Y15817D1*
Y15802D1*
Y15787D1*
Y15772D1*
Y15758D1*
Y15743D1*
Y15728D1*
Y15713D1*
Y15698D1*
Y15683D1*
Y15668D1*
Y15653D1*
Y15638D1*
Y15623D1*
Y15608D1*
Y15593D1*
Y15578D1*
Y15563D1*
Y15548D1*
Y15533D1*
Y15518D1*
Y15503D1*
Y15488D1*
Y15473D1*
Y15458D1*
X9045Y16072D2*
Y16057D1*
Y16042D1*
Y16027D1*
Y16012D1*
Y15997D1*
Y15982D1*
Y15967D1*
Y15952D1*
Y15937D1*
Y15922D1*
Y15907D1*
X9046Y15892D1*
X9048Y15877D1*
X9053Y15862D1*
X9060Y15847D1*
X9479Y16072D2*
Y16057D1*
Y16042D1*
Y16027D1*
Y16012D1*
Y15997D1*
X9539Y16072D2*
Y16057D1*
Y16042D1*
Y16027D1*
Y16012D1*
Y15997D1*
X11005Y16072D2*
Y16057D1*
Y16042D1*
Y16027D1*
Y16012D1*
Y15997D1*
Y15982D1*
Y15967D1*
Y15952D1*
Y15937D1*
Y15922D1*
Y15907D1*
Y15892D1*
Y15877D1*
Y15862D1*
Y15847D1*
Y15832D1*
Y15817D1*
Y15802D1*
Y15787D1*
Y15772D1*
Y15758D1*
Y15743D1*
Y15728D1*
Y15713D1*
Y15698D1*
Y15683D1*
Y15668D1*
Y15653D1*
Y15638D1*
Y15623D1*
Y15608D1*
Y15593D1*
Y15578D1*
Y15563D1*
Y15548D1*
Y15533D1*
Y15518D1*
Y15503D1*
Y15488D1*
Y15473D1*
Y15458D1*
X11065Y16072D2*
Y16057D1*
Y16042D1*
Y16027D1*
Y16012D1*
Y15997D1*
Y15982D1*
Y15967D1*
Y15952D1*
Y15937D1*
Y15922D1*
Y15907D1*
Y15892D1*
Y15877D1*
Y15862D1*
Y15847D1*
Y15832D1*
Y15817D1*
Y15802D1*
Y15787D1*
Y15772D1*
Y15758D1*
Y15743D1*
Y15728D1*
Y15713D1*
Y15698D1*
Y15683D1*
Y15668D1*
Y15653D1*
Y15638D1*
Y15623D1*
Y15608D1*
Y15593D1*
Y15578D1*
Y15563D1*
Y15548D1*
Y15533D1*
Y15518D1*
Y15503D1*
Y15488D1*
Y15473D1*
Y15458D1*
X12965Y16072D2*
X12936Y16057D1*
X12913Y16042D1*
X12894Y16027D1*
X12879Y16012D1*
X12867Y15997D1*
X12858Y15982D1*
X12850Y15967D1*
X12842Y15952D1*
X12837Y15937D1*
X12833Y15922D1*
X12829Y15907D1*
X12825Y15892D1*
X12821Y15877D1*
X12818Y15862D1*
X12816Y15847D1*
Y15832D1*
X12815Y15817D1*
Y15802D1*
Y15787D1*
Y15772D1*
Y15758D1*
Y15743D1*
Y15728D1*
Y15713D1*
Y15698D1*
X12816Y15683D1*
X12818Y15668D1*
X12821Y15653D1*
X12825Y15638D1*
X12828Y15623D1*
X12832Y15608D1*
X12836Y15593D1*
X12841Y15578D1*
X12846Y15563D1*
X12853Y15548D1*
X12861Y15533D1*
X12871Y15518D1*
X12882Y15503D1*
X12897Y15488D1*
X12921Y15473D1*
X12955Y15458D1*
X12995Y15443D1*
X13070Y16072D2*
X13091Y16057D1*
X13111Y16042D1*
X13128Y16027D1*
X13143Y16012D1*
X13157Y15997D1*
X13168Y15982D1*
X13176Y15967D1*
X13183Y15952D1*
X13189Y15937D1*
X13194Y15922D1*
X13199Y15907D1*
X13202Y15892D1*
X13203Y15877D1*
X13204Y15862D1*
Y15847D1*
Y15832D1*
Y15817D1*
Y15802D1*
Y15787D1*
Y15772D1*
Y15758D1*
Y15743D1*
Y15728D1*
Y15713D1*
Y15698D1*
Y15683D1*
Y15668D1*
Y15653D1*
X13202Y15638D1*
X13198Y15623D1*
X13194Y15608D1*
X13189Y15593D1*
X13184Y15578D1*
X13177Y15563D1*
X13170Y15548D1*
X13162Y15533D1*
X13153Y15518D1*
X13141Y15503D1*
X13124Y15488D1*
X13099Y15473D1*
X13065Y15458D1*
X13025Y15443D1*
X13773Y16072D2*
X13765Y16057D1*
X13754Y16042D1*
X13741Y16027D1*
X13727Y16012D1*
X13712Y15997D1*
X13695Y15982D1*
X13674Y15967D1*
X13652Y15952D1*
X13631Y15937D1*
X13615Y15922D1*
X13602Y15907D1*
X13597Y15892D1*
X13595Y15877D1*
X13593Y15862D1*
X13818Y16072D2*
Y16057D1*
Y16042D1*
Y16027D1*
Y16012D1*
Y15997D1*
Y15982D1*
Y15967D1*
Y15952D1*
Y15937D1*
Y15922D1*
Y15907D1*
Y15892D1*
Y15877D1*
Y15862D1*
Y15847D1*
Y15832D1*
Y15817D1*
Y15802D1*
Y15787D1*
Y15772D1*
Y15758D1*
Y15743D1*
Y15728D1*
Y15713D1*
Y15698D1*
Y15683D1*
Y15668D1*
Y15653D1*
Y15638D1*
Y15623D1*
Y15608D1*
Y15593D1*
Y15578D1*
Y15563D1*
Y15548D1*
Y15533D1*
Y15518D1*
Y15503D1*
Y15488D1*
Y15473D1*
Y15458D1*
X10003Y16042D2*
X9984Y16027D1*
X9969Y16012D1*
X9963Y15997D1*
X9960Y15982D1*
X9959Y15967D1*
X9958Y15952D1*
Y15937D1*
Y15922D1*
Y15907D1*
Y15892D1*
X9898D1*
X9900Y15877D1*
X9904Y15862D1*
X9918Y15847D1*
X9934Y15832D1*
X9947Y15817D1*
X9953Y15802D1*
X9956Y15787D1*
X9957Y15772D1*
X9958Y15758D1*
Y15743D1*
Y15728D1*
Y15713D1*
Y15698D1*
Y15683D1*
Y15668D1*
Y15653D1*
Y15638D1*
Y15623D1*
Y15608D1*
Y15593D1*
Y15578D1*
Y15563D1*
Y15548D1*
Y15533D1*
X9959Y15518D1*
X9961Y15503D1*
X9966Y15488D1*
X9982Y15473D1*
X10005Y15458D1*
X10033Y15443D1*
X10018Y16042D2*
Y16027D1*
Y16012D1*
Y15997D1*
Y15982D1*
Y15967D1*
Y15952D1*
Y15937D1*
Y15922D1*
Y15907D1*
Y15892D1*
X10093D1*
Y15877D1*
Y15862D1*
Y15847D1*
Y15832D1*
X10018D1*
Y15817D1*
Y15802D1*
Y15787D1*
Y15772D1*
Y15758D1*
Y15743D1*
Y15728D1*
Y15713D1*
Y15698D1*
Y15683D1*
Y15668D1*
Y15653D1*
Y15638D1*
Y15623D1*
Y15608D1*
Y15593D1*
Y15578D1*
X10019Y15563D1*
X10021Y15548D1*
X10031Y15533D1*
X10052Y15518D1*
X10072Y15503D1*
X10088Y15488D1*
X10100Y15473D1*
X10090Y15458D1*
X10078Y15443D1*
X13010Y16027D2*
X12983Y16012D1*
X12959Y15997D1*
X12940Y15982D1*
X12925Y15967D1*
X12914Y15952D1*
X12907Y15937D1*
X12901Y15922D1*
X12896Y15907D1*
X12893Y15892D1*
X12891Y15877D1*
X12890Y15862D1*
Y15847D1*
X12888Y15832D1*
X12884Y15817D1*
X12880Y15802D1*
X12878Y15787D1*
X12876Y15772D1*
Y15758D1*
X12878Y15743D1*
X12881Y15728D1*
X12885Y15713D1*
X12888Y15698D1*
X12889Y15683D1*
X12890Y15668D1*
Y15653D1*
X12891Y15638D1*
X12893Y15623D1*
X12897Y15608D1*
X12903Y15593D1*
X12909Y15578D1*
X12918Y15563D1*
X12929Y15548D1*
X12961Y15533D1*
X13010Y15518D1*
X13070Y15503D1*
X13010Y16027D2*
X13039Y16012D1*
X13064Y15997D1*
X13084Y15982D1*
X13098Y15967D1*
X13109Y15952D1*
X13117Y15937D1*
X13123Y15922D1*
X13127Y15907D1*
X13131Y15892D1*
X13135Y15877D1*
X13139Y15862D1*
X13142Y15847D1*
X13143Y15832D1*
X13144Y15817D1*
Y15802D1*
Y15787D1*
Y15772D1*
Y15758D1*
Y15743D1*
Y15728D1*
Y15713D1*
Y15698D1*
X13142Y15683D1*
X13138Y15668D1*
X13135Y15653D1*
X13132Y15638D1*
X13130Y15623D1*
X13127Y15608D1*
X13123Y15593D1*
X13116Y15578D1*
X13107Y15563D1*
X13094Y15548D1*
X13060Y15533D1*
X13010Y15518D1*
X12950Y15503D1*
X10556Y16012D2*
X10541Y15997D1*
X10527Y15982D1*
X10514Y15967D1*
X10503Y15952D1*
X10492Y15937D1*
X10482Y15922D1*
X10489Y15907D1*
X10497Y15892D1*
X10505Y15877D1*
X10528Y15862D1*
X10562Y15847D1*
X10607Y15832D1*
X10659Y15817D1*
X10709Y15802D1*
X10752Y15787D1*
X10787Y15772D1*
X10814Y15758D1*
X10835Y15743D1*
X10850Y15728D1*
X10861Y15713D1*
X10869Y15698D1*
X10875Y15683D1*
X10880Y15668D1*
X10883Y15653D1*
X10884Y15638D1*
X10885Y15623D1*
Y15608D1*
X10883Y15593D1*
X10879Y15578D1*
X10872Y15563D1*
X10864Y15548D1*
X10852Y15533D1*
X10839Y15518D1*
X10822Y15503D1*
X10800Y15488D1*
X10771Y15473D1*
X10733Y15458D1*
X10691Y15443D1*
Y16012D2*
X10718Y15997D1*
X10742Y15982D1*
X10761Y15967D1*
X10776Y15952D1*
X10788Y15937D1*
X10792Y15922D1*
X10796Y15907D1*
X6981Y15967D2*
Y15952D1*
Y15937D1*
Y15922D1*
Y15907D1*
Y15892D1*
Y15877D1*
Y15862D1*
Y15847D1*
Y15832D1*
Y15817D1*
Y15802D1*
Y15787D1*
Y15772D1*
Y15758D1*
Y15743D1*
Y15728D1*
Y15713D1*
Y15698D1*
Y15683D1*
Y15668D1*
Y15653D1*
Y15638D1*
Y15623D1*
Y15608D1*
Y15593D1*
Y15578D1*
Y15563D1*
Y15548D1*
Y15533D1*
Y15518D1*
Y15503D1*
Y15488D1*
Y15473D1*
Y15458D1*
X7011Y15967D2*
X7013Y15952D1*
X7017Y15937D1*
X7021Y15922D1*
X7026Y15907D1*
X7031Y15892D1*
X7036Y15877D1*
X7041Y15862D1*
X7046Y15847D1*
X7051Y15832D1*
X7056Y15817D1*
X7061Y15802D1*
X7066Y15787D1*
X7071Y15772D1*
X7076Y15758D1*
X7081Y15743D1*
X7086Y15728D1*
X7091Y15713D1*
X7098Y15698D1*
X7104Y15683D1*
X7110Y15668D1*
X7115Y15653D1*
X7120Y15638D1*
X7126Y15623D1*
X7130Y15608D1*
X7136Y15593D1*
X7141Y15578D1*
X7145Y15563D1*
X7150Y15548D1*
X7156Y15533D1*
X7160Y15518D1*
X7165Y15503D1*
X7170Y15488D1*
X7173Y15473D1*
X7175Y15458D1*
X7415Y15952D2*
X7412Y15937D1*
X7409Y15922D1*
X7404Y15907D1*
X7400Y15892D1*
X7395Y15877D1*
X7390Y15862D1*
X7385Y15847D1*
X7380Y15832D1*
X7375Y15817D1*
X7370Y15802D1*
X7365Y15787D1*
X7360Y15772D1*
X7355Y15758D1*
X7350Y15743D1*
X7345Y15728D1*
X7340Y15713D1*
X7335Y15698D1*
X7330Y15683D1*
X7325Y15668D1*
X7319Y15653D1*
X7313Y15638D1*
X7306Y15623D1*
X7301Y15608D1*
X7295Y15593D1*
X7290Y15578D1*
X7285Y15563D1*
X7280Y15548D1*
X7275Y15533D1*
X7270Y15518D1*
X7265Y15503D1*
X7260Y15488D1*
X7255Y15473D1*
X7250Y15458D1*
X7445Y15952D2*
Y15937D1*
Y15922D1*
Y15907D1*
Y15892D1*
Y15877D1*
Y15862D1*
Y15847D1*
Y15832D1*
Y15817D1*
Y15802D1*
Y15787D1*
Y15772D1*
Y15758D1*
Y15743D1*
Y15728D1*
Y15713D1*
Y15698D1*
Y15683D1*
Y15668D1*
Y15653D1*
Y15638D1*
Y15623D1*
Y15608D1*
Y15593D1*
Y15578D1*
Y15563D1*
Y15548D1*
Y15533D1*
Y15518D1*
Y15503D1*
Y15488D1*
Y15473D1*
Y15458D1*
X13758Y15937D2*
X13730Y15922D1*
X13704Y15907D1*
X13678Y15892D1*
X13651Y15877D1*
X13623Y15862D1*
X13758Y15937D2*
Y15922D1*
Y15907D1*
Y15892D1*
Y15877D1*
Y15862D1*
Y15847D1*
Y15832D1*
Y15817D1*
Y15802D1*
Y15787D1*
Y15772D1*
Y15758D1*
Y15743D1*
Y15728D1*
Y15713D1*
Y15698D1*
Y15683D1*
Y15668D1*
Y15653D1*
Y15638D1*
Y15623D1*
Y15608D1*
Y15593D1*
Y15578D1*
Y15563D1*
Y15548D1*
Y15533D1*
Y15518D1*
Y15503D1*
Y15488D1*
Y15473D1*
Y15458D1*
X8043Y15907D2*
X8002Y15892D1*
X7967Y15877D1*
X7937Y15862D1*
X7908Y15847D1*
X8073Y15907D2*
X8113Y15892D1*
X8144Y15877D1*
X8164Y15862D1*
X8177Y15847D1*
X8187Y15832D1*
X8195Y15817D1*
X8201Y15802D1*
X8205Y15787D1*
X8206Y15772D1*
X8207Y15758D1*
Y15743D1*
X8208Y15728D1*
Y15713D1*
Y15698D1*
Y15683D1*
Y15668D1*
Y15653D1*
Y15638D1*
Y15623D1*
Y15608D1*
Y15593D1*
Y15578D1*
Y15563D1*
Y15548D1*
Y15533D1*
Y15518D1*
Y15503D1*
Y15488D1*
Y15473D1*
Y15458D1*
X8656Y15907D2*
X8616Y15892D1*
X8584Y15877D1*
X8562Y15862D1*
X8546Y15847D1*
X8536Y15832D1*
X8529Y15817D1*
X8525Y15802D1*
X8523Y15787D1*
Y15772D1*
X8525Y15758D1*
X8529Y15743D1*
X8535Y15728D1*
X8547Y15713D1*
X8565Y15698D1*
X8591Y15683D1*
X8625Y15668D1*
X8667Y15653D1*
X8709Y15638D1*
X8746Y15623D1*
X8774Y15608D1*
X8793Y15593D1*
X8799Y15578D1*
X8798Y15563D1*
X8789Y15548D1*
X8753Y15533D1*
X8690Y15518D1*
X8612Y15503D1*
X8701Y15907D2*
X8749Y15892D1*
X8785Y15877D1*
X8810Y15862D1*
X8826Y15847D1*
X8837Y15832D1*
X8844Y15817D1*
X8848Y15802D1*
X8851Y15787D1*
X9180Y15907D2*
X9139Y15892D1*
X9104Y15877D1*
X9074Y15862D1*
X9045Y15847D1*
X9210Y15907D2*
X9250Y15892D1*
X9280Y15877D1*
X9301Y15862D1*
X9314Y15847D1*
X9324Y15832D1*
X9332Y15817D1*
X9338Y15802D1*
X9342Y15787D1*
X9343Y15772D1*
X9344Y15758D1*
Y15743D1*
X9345Y15728D1*
Y15713D1*
Y15698D1*
Y15683D1*
Y15668D1*
Y15653D1*
Y15638D1*
Y15623D1*
Y15608D1*
Y15593D1*
Y15578D1*
Y15563D1*
Y15548D1*
Y15533D1*
Y15518D1*
Y15503D1*
Y15488D1*
Y15473D1*
Y15458D1*
X11349Y15907D2*
X11303Y15892D1*
X11267Y15877D1*
X11240Y15862D1*
X11221Y15847D1*
X11208Y15832D1*
X11198Y15817D1*
X11192Y15802D1*
X11188Y15787D1*
X11185Y15772D1*
X11409Y15907D2*
X11450Y15892D1*
X11482Y15877D1*
X11506Y15862D1*
X11523Y15847D1*
X11535Y15832D1*
X11540Y15817D1*
X11542Y15802D1*
X11543Y15787D1*
Y15772D1*
X11544Y15758D1*
Y15743D1*
Y15728D1*
Y15713D1*
Y15698D1*
Y15683D1*
Y15668D1*
Y15653D1*
Y15638D1*
Y15623D1*
Y15608D1*
Y15593D1*
X11546Y15578D1*
X11550Y15563D1*
X11554Y15548D1*
X11556Y15533D1*
X11558Y15518D1*
X11559Y15503D1*
X11561Y15488D1*
X11567Y15473D1*
X11574Y15458D1*
X12277Y15907D2*
X12236Y15892D1*
X12204Y15877D1*
X12179Y15862D1*
X12161Y15847D1*
X12146Y15832D1*
X12134Y15817D1*
X12125Y15802D1*
X12118Y15787D1*
X12113Y15772D1*
X12107Y15758D1*
X12103Y15743D1*
X12100Y15728D1*
X12098Y15713D1*
Y15698D1*
X12097Y15683D1*
Y15668D1*
Y15653D1*
X12098Y15638D1*
X12100Y15623D1*
X12103Y15608D1*
X12108Y15593D1*
X12112Y15578D1*
X12118Y15563D1*
X12125Y15548D1*
X12134Y15533D1*
X12145Y15518D1*
X12159Y15503D1*
X12177Y15488D1*
X12202Y15473D1*
X12237Y15458D1*
X12277Y15443D1*
X12307Y15907D2*
X12354Y15892D1*
X12391Y15877D1*
X12417Y15862D1*
X12437Y15847D1*
X12452Y15832D1*
X12464Y15817D1*
X12473Y15802D1*
X12480Y15787D1*
X12486Y15772D1*
X12491Y15758D1*
X12496Y15743D1*
X12499Y15728D1*
X12500Y15713D1*
X12501Y15698D1*
Y15683D1*
Y15668D1*
X7654Y15892D2*
Y15877D1*
Y15862D1*
Y15847D1*
Y15832D1*
Y15817D1*
Y15802D1*
Y15787D1*
Y15772D1*
Y15758D1*
Y15743D1*
Y15728D1*
Y15713D1*
Y15698D1*
Y15683D1*
Y15668D1*
Y15653D1*
Y15638D1*
Y15623D1*
Y15608D1*
Y15593D1*
Y15578D1*
Y15563D1*
Y15548D1*
Y15533D1*
Y15518D1*
Y15503D1*
Y15488D1*
Y15473D1*
Y15458D1*
X7714Y15892D2*
Y15877D1*
Y15862D1*
Y15847D1*
Y15832D1*
Y15817D1*
Y15802D1*
Y15787D1*
Y15772D1*
Y15758D1*
Y15743D1*
Y15728D1*
Y15713D1*
Y15698D1*
Y15683D1*
Y15668D1*
Y15653D1*
Y15638D1*
Y15623D1*
Y15608D1*
Y15593D1*
Y15578D1*
Y15563D1*
Y15548D1*
Y15533D1*
Y15518D1*
Y15503D1*
Y15488D1*
Y15473D1*
Y15458D1*
X7849Y15892D2*
Y15877D1*
Y15862D1*
Y15847D1*
Y15832D1*
Y15817D1*
Y15802D1*
Y15787D1*
Y15772D1*
Y15758D1*
Y15743D1*
Y15728D1*
Y15713D1*
Y15698D1*
Y15683D1*
Y15668D1*
Y15653D1*
Y15638D1*
Y15623D1*
Y15608D1*
Y15593D1*
Y15578D1*
Y15563D1*
Y15548D1*
Y15533D1*
Y15518D1*
Y15503D1*
Y15488D1*
Y15473D1*
Y15458D1*
X7908Y15892D2*
X7911Y15877D1*
X7916Y15862D1*
X7923Y15847D1*
X8342Y15892D2*
Y15877D1*
Y15862D1*
Y15847D1*
Y15832D1*
Y15817D1*
Y15802D1*
Y15787D1*
Y15772D1*
Y15758D1*
Y15743D1*
Y15728D1*
Y15713D1*
Y15698D1*
Y15683D1*
Y15668D1*
Y15653D1*
Y15638D1*
Y15623D1*
Y15608D1*
Y15593D1*
Y15578D1*
Y15563D1*
Y15548D1*
Y15533D1*
Y15518D1*
Y15503D1*
Y15488D1*
Y15473D1*
Y15458D1*
X8402Y15892D2*
Y15877D1*
Y15862D1*
Y15847D1*
Y15832D1*
Y15817D1*
Y15802D1*
Y15787D1*
Y15772D1*
Y15758D1*
Y15743D1*
Y15728D1*
Y15713D1*
Y15698D1*
Y15683D1*
Y15668D1*
Y15653D1*
Y15638D1*
Y15623D1*
Y15608D1*
Y15593D1*
Y15578D1*
Y15563D1*
Y15548D1*
Y15533D1*
Y15518D1*
Y15503D1*
Y15488D1*
Y15473D1*
Y15458D1*
X9479Y15892D2*
Y15877D1*
Y15862D1*
Y15847D1*
Y15832D1*
Y15817D1*
Y15802D1*
Y15787D1*
Y15772D1*
Y15758D1*
Y15743D1*
Y15728D1*
Y15713D1*
Y15698D1*
Y15683D1*
Y15668D1*
Y15653D1*
Y15638D1*
Y15623D1*
Y15608D1*
Y15593D1*
Y15578D1*
Y15563D1*
Y15548D1*
Y15533D1*
Y15518D1*
Y15503D1*
Y15488D1*
Y15473D1*
Y15458D1*
X9539Y15892D2*
Y15877D1*
Y15862D1*
Y15847D1*
Y15832D1*
Y15817D1*
Y15802D1*
Y15787D1*
Y15772D1*
Y15758D1*
Y15743D1*
Y15728D1*
Y15713D1*
Y15698D1*
Y15683D1*
Y15668D1*
Y15653D1*
Y15638D1*
Y15623D1*
Y15608D1*
Y15593D1*
Y15578D1*
Y15563D1*
Y15548D1*
Y15533D1*
Y15518D1*
Y15503D1*
Y15488D1*
Y15473D1*
Y15458D1*
X11633Y15892D2*
X11639Y15877D1*
X11644Y15862D1*
X11648Y15847D1*
X11654Y15832D1*
X11660Y15817D1*
X11667Y15802D1*
X11673Y15787D1*
X11678Y15772D1*
X11683Y15758D1*
X11688Y15743D1*
X11693Y15728D1*
X11699Y15713D1*
X11705Y15698D1*
X11712Y15683D1*
X11718Y15668D1*
X11723Y15653D1*
X11729Y15638D1*
X11735Y15623D1*
X11742Y15608D1*
X11748Y15593D1*
X11753Y15578D1*
X11759Y15563D1*
X11765Y15548D1*
X11772Y15533D1*
X11777Y15518D1*
X11783Y15503D1*
X11788Y15488D1*
X11793Y15473D1*
X11798Y15458D1*
X11708Y15892D2*
X11711Y15877D1*
X11714Y15862D1*
X11719Y15847D1*
X11723Y15832D1*
X11728Y15817D1*
X11733Y15802D1*
X11738Y15787D1*
X11744Y15772D1*
X11750Y15758D1*
X11757Y15743D1*
X11763Y15728D1*
X11768Y15713D1*
X11773Y15698D1*
X11778Y15683D1*
X11783Y15668D1*
X11788Y15653D1*
X11793Y15638D1*
X11798Y15623D1*
X11803Y15608D1*
X11808Y15593D1*
X11813Y15578D1*
X11820Y15563D1*
X11828Y15548D1*
X11963Y15892D2*
X11957Y15877D1*
X11952Y15862D1*
X11948Y15847D1*
X11943Y15832D1*
X11938Y15817D1*
X11933Y15802D1*
X11927Y15787D1*
X11921Y15772D1*
X11914Y15758D1*
X11908Y15743D1*
X11903Y15728D1*
X11898Y15713D1*
X11893Y15698D1*
X11888Y15683D1*
X11883Y15668D1*
X11878Y15653D1*
X11873Y15638D1*
X11867Y15623D1*
X11861Y15608D1*
X11854Y15593D1*
X11846Y15578D1*
X11837Y15563D1*
X11828Y15548D1*
X12037Y15892D2*
X12030Y15877D1*
X12024Y15862D1*
X12017Y15847D1*
X12011Y15832D1*
X12004Y15817D1*
X11998Y15802D1*
X11993Y15787D1*
X11987Y15772D1*
X11981Y15758D1*
X11974Y15743D1*
X11968Y15728D1*
X11963Y15713D1*
X11958Y15698D1*
X11953Y15683D1*
X11948Y15668D1*
X11942Y15653D1*
X11936Y15638D1*
X11929Y15623D1*
X11923Y15608D1*
X11918Y15593D1*
X11912Y15578D1*
X11906Y15563D1*
X11899Y15548D1*
X11893Y15533D1*
X11888Y15518D1*
X11883Y15503D1*
X11878Y15488D1*
X11875Y15473D1*
X11873Y15458D1*
X8013Y15847D2*
X7987Y15832D1*
X7965Y15817D1*
X7949Y15802D1*
X7938Y15787D1*
X7931Y15772D1*
X7926Y15758D1*
X7922Y15743D1*
X7918Y15728D1*
X7914Y15713D1*
X7911Y15698D1*
X7910Y15683D1*
X7909Y15668D1*
Y15653D1*
X7908Y15638D1*
Y15623D1*
Y15608D1*
Y15593D1*
Y15578D1*
Y15563D1*
Y15548D1*
Y15533D1*
Y15518D1*
Y15503D1*
Y15488D1*
Y15473D1*
Y15458D1*
X8058Y15847D2*
X8084Y15832D1*
X8106Y15817D1*
X8122Y15802D1*
X8128Y15787D1*
X8133Y15772D1*
X8138Y15758D1*
X8142Y15743D1*
X8145Y15728D1*
X8147Y15713D1*
Y15698D1*
X8148Y15683D1*
Y15668D1*
Y15653D1*
Y15638D1*
Y15623D1*
Y15608D1*
Y15593D1*
Y15578D1*
Y15563D1*
Y15548D1*
Y15533D1*
Y15518D1*
Y15503D1*
Y15488D1*
Y15473D1*
Y15458D1*
X8656Y15847D2*
X8632Y15832D1*
X8612Y15817D1*
X8596Y15802D1*
X8582Y15787D1*
X8595Y15772D1*
X8615Y15758D1*
X8645Y15743D1*
X8684Y15728D1*
X8726Y15713D1*
X8765Y15698D1*
X8798Y15683D1*
X8824Y15668D1*
X8843Y15653D1*
X8857Y15638D1*
X8861Y15623D1*
X8864Y15608D1*
X8865Y15593D1*
X8866Y15578D1*
X8865Y15563D1*
X8863Y15548D1*
X8857Y15533D1*
X8847Y15518D1*
X8833Y15503D1*
X8816Y15488D1*
X8791Y15473D1*
X8756Y15458D1*
X8716Y15443D1*
Y15847D2*
X8741Y15832D1*
X8761Y15817D1*
X8777Y15802D1*
X8791Y15787D1*
X9150Y15847D2*
X9124Y15832D1*
X9102Y15817D1*
X9086Y15802D1*
X9075Y15787D1*
X9068Y15772D1*
X9063Y15758D1*
X9059Y15743D1*
X9055Y15728D1*
X9051Y15713D1*
X9048Y15698D1*
X9046Y15683D1*
Y15668D1*
Y15653D1*
X9045Y15638D1*
Y15623D1*
Y15608D1*
Y15593D1*
Y15578D1*
Y15563D1*
Y15548D1*
Y15533D1*
Y15518D1*
Y15503D1*
Y15488D1*
Y15473D1*
Y15458D1*
X9195Y15847D2*
X9221Y15832D1*
X9243Y15817D1*
X9259Y15802D1*
X9265Y15787D1*
X9270Y15772D1*
X9275Y15758D1*
X9279Y15743D1*
X9282Y15728D1*
X9284Y15713D1*
Y15698D1*
X9285Y15683D1*
Y15668D1*
Y15653D1*
Y15638D1*
Y15623D1*
Y15608D1*
Y15593D1*
Y15578D1*
Y15563D1*
Y15548D1*
Y15533D1*
Y15518D1*
Y15503D1*
Y15488D1*
Y15473D1*
Y15458D1*
X11304Y15847D2*
X11290Y15832D1*
X11277Y15817D1*
X11266Y15802D1*
X11255Y15787D1*
X11245Y15772D1*
X11424Y15847D2*
X11439Y15832D1*
X11453Y15817D1*
X11466Y15802D1*
X11476Y15787D1*
X11479Y15772D1*
X11481Y15758D1*
X11455Y15743D1*
X11412Y15728D1*
X11357Y15713D1*
X11304Y15698D1*
X11261Y15683D1*
X11230Y15668D1*
X11209Y15653D1*
X11194Y15638D1*
X11184Y15623D1*
X11177Y15608D1*
X11173Y15593D1*
X11171Y15578D1*
Y15563D1*
X11172Y15548D1*
X11176Y15533D1*
X11183Y15518D1*
X11192Y15503D1*
X11207Y15488D1*
X11231Y15473D1*
X11265Y15458D1*
X11304Y15443D1*
X12277Y15847D2*
X12250Y15832D1*
X12226Y15817D1*
X12207Y15802D1*
X12192Y15787D1*
X12180Y15772D1*
X12176Y15758D1*
X12174Y15743D1*
X12173Y15728D1*
X12172Y15713D1*
X12352Y15847D2*
X12367Y15832D1*
X12381Y15817D1*
X12396Y15802D1*
X12408Y15787D1*
X12417Y15772D1*
X12422Y15758D1*
X12425Y15743D1*
X12426Y15728D1*
Y15713D1*
X11499Y15683D2*
X11436Y15668D1*
X11374Y15653D1*
X11322Y15638D1*
X11284Y15623D1*
X11260Y15608D1*
X11244Y15593D1*
X11230Y15578D1*
X11240Y15563D1*
X11251Y15548D1*
X11282Y15533D1*
X11332Y15518D1*
X11394Y15503D1*
X11484Y15683D2*
Y15668D1*
Y15653D1*
X11483Y15638D1*
X11481Y15623D1*
X11478Y15608D1*
X11473Y15593D1*
X11468Y15578D1*
X11460Y15563D1*
X11437Y15548D1*
X11398Y15533D1*
X11336Y15518D1*
X11259Y15503D1*
X10407Y15653D2*
X10392Y15638D1*
X10399Y15623D1*
X10404Y15608D1*
X10408Y15593D1*
X10413Y15578D1*
X10420Y15563D1*
X10428Y15548D1*
X10440Y15533D1*
X10454Y15518D1*
X10470Y15503D1*
X10493Y15488D1*
X10527Y15473D1*
X10575Y15458D1*
X10631Y15443D1*
X10467Y15653D2*
X10469Y15638D1*
X10473Y15623D1*
X10480Y15608D1*
X10488Y15593D1*
X10502Y15578D1*
X10519Y15563D1*
X10576Y15548D1*
X10667Y15533D1*
X10781Y15518D1*
X12142Y15668D2*
X12154Y15653D1*
X12163Y15638D1*
X12168Y15623D1*
X12173Y15608D1*
X12178Y15593D1*
X12185Y15578D1*
X12195Y15563D1*
X12208Y15548D1*
X12247Y15533D1*
X12307Y15518D1*
X12381Y15503D1*
X8537Y15593D2*
X8523Y15578D1*
X8519Y15563D1*
X8522Y15548D1*
X8527Y15533D1*
X8535Y15518D1*
X8546Y15503D1*
X8563Y15488D1*
X8590Y15473D1*
X8627Y15458D1*
X8671Y15443D1*
X8582Y15593D2*
X8585Y15578D1*
X8589Y15563D1*
X8602Y15548D1*
X8636Y15533D1*
X8691Y15518D1*
X8761Y15503D1*
X12426Y15593D2*
X12418Y15578D1*
X12407Y15563D1*
X12394Y15548D1*
X12361Y15533D1*
X12310Y15518D1*
X12247Y15503D1*
X12486Y15593D2*
X12501Y15578D1*
X12492Y15563D1*
X12483Y15548D1*
X12475Y15533D1*
X12464Y15518D1*
X12451Y15503D1*
X12431Y15488D1*
X12404Y15473D1*
X12366Y15458D1*
X12322Y15443D1*
X13354Y15533D2*
Y15518D1*
Y15503D1*
Y15488D1*
Y15473D1*
Y15458D1*
X13414Y15533D2*
Y15518D1*
Y15503D1*
Y15488D1*
Y15473D1*
Y15458D1*
X11484Y15503D2*
X11453Y15488D1*
X11418Y15473D1*
X11378Y15458D1*
X11334Y15443D1*
X11499Y15503D2*
Y15488D1*
Y15473D1*
Y15458D1*
M02*
